<?xml version="1.0" encoding="UTF-8"?>
<svg version="1.1" xmlns="http://www.w3.org/2000/svg" width="512" height="512">
<path d="M0 0 C7.59028527 4.1964417 13.4299601 9.28525571 16.2109375 17.6796875 C18.91512722 28.81756891 16.21061903 39.00008293 10.5234375 48.8671875 C7.15940568 54.10961272 3.24744594 58.89317936 -0.7265625 63.6796875 C-2.06273271 65.3440807 -3.39683588 67.01014185 -4.7265625 68.6796875 C-3.46071155 72.08912569 -1.97764612 74.96366579 0.0234375 77.9921875 C6.13517179 88.11892971 9.2193905 98.87555822 11.5859375 110.3671875 C13.80297807 121.04895406 17.7129492 130.51124373 22.24267578 140.39697266 C30.57009129 158.83878578 33.55353192 176.25896502 26.2734375 195.6796875 C18.24000071 212.60160509 5.23541759 223.15178833 -11.3515625 231.1171875 C-12.20959473 231.5301709 -13.06762695 231.9431543 -13.95166016 232.36865234 C-20.05658929 235.18336067 -26.19909423 237.09426678 -32.7265625 238.6796875 C-32.42967529 239.4516748 -32.13278809 240.22366211 -31.8269043 241.01904297 C-25.26325721 258.24108945 -26.79651366 276.42458848 -33.30078125 293.5390625 C-35.59672602 298.59643125 -38.45570968 302.87568509 -42.82310486 306.34521484 C-45.48268508 309.60702491 -45.04038739 311.52951289 -44.70922852 315.6796875 C-44.65932266 316.37610352 -44.60941681 317.07251953 -44.55799866 317.79003906 C-44.38718128 320.08886138 -44.18497171 322.38363453 -43.98046875 324.6796875 C-43.85099656 326.27854816 -43.72275369 327.8775088 -43.59568787 329.4765625 C-43.32438658 332.82687661 -43.0373956 336.17538642 -42.73950195 339.5234375 C-42.35930974 343.81201385 -42.01940861 348.10266524 -41.69137669 352.39550781 C-41.43433402 355.69811028 -41.15535097 358.99857979 -40.86979485 362.29882812 C-40.73573469 363.88028064 -40.60863231 365.46233908 -40.48864937 367.04492188 C-40.31758126 369.25913085 -40.11695525 371.46873228 -39.90844727 373.6796875 C-39.80089615 374.9378125 -39.69334503 376.1959375 -39.58253479 377.4921875 C-38.52397207 381.43410094 -37.06053237 382.45392911 -33.7265625 384.6796875 C-30.38887814 388.59283468 -30.14634484 392.39494895 -30.31640625 397.37109375 C-30.7265625 399.6796875 -30.7265625 399.6796875 -32.7890625 402.1796875 C-41.54283513 406.64969906 -51.08369101 406.83638061 -60.703125 406.8828125 C-61.63200531 406.88851257 -62.56088562 406.89421265 -63.51791382 406.90008545 C-65.46928792 406.9094776 -67.42067746 406.91604622 -69.37207031 406.91992188 C-72.34988779 406.92968201 -75.32702991 406.96078175 -78.3046875 406.9921875 C-80.20832927 406.99871375 -82.11197593 407.0039657 -84.015625 407.0078125 C-84.90013336 407.0201593 -85.78464172 407.0325061 -86.69595337 407.04522705 C-91.79826971 407.02688026 -95.31204465 406.52529743 -99.7265625 403.6796875 C-104.31858356 398.71534041 -104.89255926 394.8451341 -104.8515625 388.3046875 C-104.84962891 387.54752441 -104.84769531 386.79036133 -104.84570312 386.01025391 C-104.75826092 373.56188482 -104.20298907 361.11782414 -103.7265625 348.6796875 C-107.6865625 349.0096875 -111.6465625 349.3396875 -115.7265625 349.6796875 C-116.24565186 351.13262207 -116.76474121 352.58555664 -117.29956055 354.08251953 C-119.23451926 359.48799538 -121.18595079 364.88740149 -123.14233398 370.28515625 C-123.98568749 372.61915204 -124.82460557 374.95475558 -125.65893555 377.29199219 C-126.86115827 380.65735656 -128.0793794 384.01655628 -129.30078125 387.375 C-129.66870285 388.41584747 -130.03662445 389.45669495 -130.41569519 390.52908325 C-132.47812104 396.14675819 -134.41792218 400.46921873 -138.7265625 404.6796875 C-142.6422325 405.98491083 -146.37884511 405.84221129 -150.4609375 405.84765625 C-151.3311554 405.85098465 -152.20137329 405.85431305 -153.09796143 405.85774231 C-154.94730095 405.86280998 -156.79664963 405.86515068 -158.64599609 405.86499023 C-161.42431659 405.86714694 -164.20222012 405.88522026 -166.98046875 405.90429688 C-197.29873589 406.00240654 -197.29873589 406.00240654 -206.7265625 399.6796875 C-209.29964364 395.82006579 -208.8786111 393.89561445 -208.33984375 389.4296875 C-207.51114463 385.71373729 -205.962481 382.68348389 -204.078125 379.39453125 C-198.1097009 367.40593371 -195.84183378 353.28359789 -192.6015625 340.3671875 C-192.35191364 339.37467609 -192.35191364 339.37467609 -192.09722137 338.36211395 C-184.70604839 308.90580939 -179.99790855 279.31585622 -176.06231689 249.21563721 C-175.6409791 246.03327694 -175.18947174 242.85624124 -174.7265625 239.6796875 C-175.8815625 239.4734375 -177.0365625 239.2671875 -178.2265625 239.0546875 C-203.33325928 233.38797224 -228.45951581 218.49621014 -242.6015625 196.7421875 C-255.93890844 175.25681965 -259.58661009 148.72513999 -254.1015625 124.0546875 C-253.39803345 121.23230572 -252.59559381 118.45526028 -251.7265625 115.6796875 C-251.51757324 115.00292969 -251.30858398 114.32617188 -251.09326172 113.62890625 C-248.26883595 104.77692317 -244.39948263 96.7820319 -239.62231445 88.81787109 C-237.3014323 85.02274631 -237.3014323 85.02274631 -236.7265625 80.6796875 C-238.84960814 79.06259421 -238.84960814 79.06259421 -241.6015625 77.5546875 C-252.36799286 70.99758411 -261.54502296 62.80813394 -265.7265625 50.6796875 C-267.76777117 42.16241392 -266.27288706 34.99655556 -261.9140625 27.4921875 C-254.3035616 15.68592118 -243.20448914 6.11935305 -229.4140625 2.3671875 C-221.12454628 0.80044045 -213.4297226 1.93690024 -206.06640625 6.06640625 C-195.19390213 13.56280725 -188.94372416 27.16850326 -185.7265625 39.6796875 C-184.76878906 39.23238281 -183.81101562 38.78507812 -182.82421875 38.32421875 C-143.83993957 20.47396565 -100.47113401 19.20421087 -59.75927734 32.06298828 C-57.76110738 32.66920703 -55.75626917 33.19066343 -53.7265625 33.6796875 C-53.56800781 32.80828125 -53.40945313 31.936875 -53.24609375 31.0390625 C-51.11906048 20.18061641 -48.60718091 8.12987073 -39.7265625 0.6796875 C-26.64223096 -7.91602258 -13.79553981 -6.68036169 0 0 Z " fill="#FEFEFD" transform="translate(336.7265625,55.3203125)"/>
<path d="M0 0 C7.59028527 4.1964417 13.4299601 9.28525571 16.2109375 17.6796875 C18.91512722 28.81756891 16.21061903 39.00008293 10.5234375 48.8671875 C7.15940568 54.10961272 3.24744594 58.89317936 -0.7265625 63.6796875 C-2.06273271 65.3440807 -3.39683588 67.01014185 -4.7265625 68.6796875 C-3.46071155 72.08912569 -1.97764612 74.96366579 0.0234375 77.9921875 C6.13517179 88.11892971 9.2193905 98.87555822 11.5859375 110.3671875 C13.80297807 121.04895406 17.7129492 130.51124373 22.24267578 140.39697266 C30.57009129 158.83878578 33.55353192 176.25896502 26.2734375 195.6796875 C18.24000071 212.60160509 5.23541759 223.15178833 -11.3515625 231.1171875 C-12.20959473 231.5301709 -13.06762695 231.9431543 -13.95166016 232.36865234 C-20.05658929 235.18336067 -26.19909423 237.09426678 -32.7265625 238.6796875 C-32.42967529 239.4516748 -32.13278809 240.22366211 -31.8269043 241.01904297 C-25.26325721 258.24108945 -26.79651366 276.42458848 -33.30078125 293.5390625 C-35.59672602 298.59643125 -38.45570968 302.87568509 -42.82310486 306.34521484 C-45.48268508 309.60702491 -45.04038739 311.52951289 -44.70922852 315.6796875 C-44.65932266 316.37610352 -44.60941681 317.07251953 -44.55799866 317.79003906 C-44.38718128 320.08886138 -44.18497171 322.38363453 -43.98046875 324.6796875 C-43.85099656 326.27854816 -43.72275369 327.8775088 -43.59568787 329.4765625 C-43.32438658 332.82687661 -43.0373956 336.17538642 -42.73950195 339.5234375 C-42.35930974 343.81201385 -42.01940861 348.10266524 -41.69137669 352.39550781 C-41.43433402 355.69811028 -41.15535097 358.99857979 -40.86979485 362.29882812 C-40.73573469 363.88028064 -40.60863231 365.46233908 -40.48864937 367.04492188 C-40.31758126 369.25913085 -40.11695525 371.46873228 -39.90844727 373.6796875 C-39.80089615 374.9378125 -39.69334503 376.1959375 -39.58253479 377.4921875 C-38.52397207 381.43410094 -37.06053237 382.45392911 -33.7265625 384.6796875 C-30.38887814 388.59283468 -30.14634484 392.39494895 -30.31640625 397.37109375 C-30.7265625 399.6796875 -30.7265625 399.6796875 -32.7890625 402.1796875 C-41.54283513 406.64969906 -51.08369101 406.83638061 -60.703125 406.8828125 C-61.63200531 406.88851257 -62.56088562 406.89421265 -63.51791382 406.90008545 C-65.46928792 406.9094776 -67.42067746 406.91604622 -69.37207031 406.91992188 C-72.34988779 406.92968201 -75.32702991 406.96078175 -78.3046875 406.9921875 C-80.20832927 406.99871375 -82.11197593 407.0039657 -84.015625 407.0078125 C-84.90013336 407.0201593 -85.78464172 407.0325061 -86.69595337 407.04522705 C-91.79826971 407.02688026 -95.31204465 406.52529743 -99.7265625 403.6796875 C-104.31858356 398.71534041 -104.89255926 394.8451341 -104.8515625 388.3046875 C-104.84962891 387.54752441 -104.84769531 386.79036133 -104.84570312 386.01025391 C-104.75826092 373.56188482 -104.20298907 361.11782414 -103.7265625 348.6796875 C-107.6865625 349.0096875 -111.6465625 349.3396875 -115.7265625 349.6796875 C-116.24565186 351.13262207 -116.76474121 352.58555664 -117.29956055 354.08251953 C-119.23451926 359.48799538 -121.18595079 364.88740149 -123.14233398 370.28515625 C-123.98568749 372.61915204 -124.82460557 374.95475558 -125.65893555 377.29199219 C-126.86115827 380.65735656 -128.0793794 384.01655628 -129.30078125 387.375 C-129.66870285 388.41584747 -130.03662445 389.45669495 -130.41569519 390.52908325 C-132.47812104 396.14675819 -134.41792218 400.46921873 -138.7265625 404.6796875 C-142.6422325 405.98491083 -146.37884511 405.84221129 -150.4609375 405.84765625 C-151.3311554 405.85098465 -152.20137329 405.85431305 -153.09796143 405.85774231 C-154.94730095 405.86280998 -156.79664963 405.86515068 -158.64599609 405.86499023 C-161.42431659 405.86714694 -164.20222012 405.88522026 -166.98046875 405.90429688 C-197.29873589 406.00240654 -197.29873589 406.00240654 -206.7265625 399.6796875 C-209.29964364 395.82006579 -208.8786111 393.89561445 -208.33984375 389.4296875 C-207.51114463 385.71373729 -205.962481 382.68348389 -204.078125 379.39453125 C-198.1097009 367.40593371 -195.84183378 353.28359789 -192.6015625 340.3671875 C-192.35191364 339.37467609 -192.35191364 339.37467609 -192.09722137 338.36211395 C-184.70604839 308.90580939 -179.99790855 279.31585622 -176.06231689 249.21563721 C-175.6409791 246.03327694 -175.18947174 242.85624124 -174.7265625 239.6796875 C-175.8815625 239.4734375 -177.0365625 239.2671875 -178.2265625 239.0546875 C-203.33325928 233.38797224 -228.45951581 218.49621014 -242.6015625 196.7421875 C-255.93890844 175.25681965 -259.58661009 148.72513999 -254.1015625 124.0546875 C-253.39803345 121.23230572 -252.59559381 118.45526028 -251.7265625 115.6796875 C-251.51757324 115.00292969 -251.30858398 114.32617188 -251.09326172 113.62890625 C-248.26883595 104.77692317 -244.39948263 96.7820319 -239.62231445 88.81787109 C-237.3014323 85.02274631 -237.3014323 85.02274631 -236.7265625 80.6796875 C-238.84960814 79.06259421 -238.84960814 79.06259421 -241.6015625 77.5546875 C-252.36799286 70.99758411 -261.54502296 62.80813394 -265.7265625 50.6796875 C-267.76777117 42.16241392 -266.27288706 34.99655556 -261.9140625 27.4921875 C-254.3035616 15.68592118 -243.20448914 6.11935305 -229.4140625 2.3671875 C-221.12454628 0.80044045 -213.4297226 1.93690024 -206.06640625 6.06640625 C-195.19390213 13.56280725 -188.94372416 27.16850326 -185.7265625 39.6796875 C-184.76878906 39.23238281 -183.81101562 38.78507812 -182.82421875 38.32421875 C-143.83993957 20.47396565 -100.47113401 19.20421087 -59.75927734 32.06298828 C-57.76110738 32.66920703 -55.75626917 33.19066343 -53.7265625 33.6796875 C-53.56800781 32.80828125 -53.40945313 31.936875 -53.24609375 31.0390625 C-51.11906048 20.18061641 -48.60718091 8.12987073 -39.7265625 0.6796875 C-26.64223096 -7.91602258 -13.79553981 -6.68036169 0 0 Z M-223.140625 72.68359375 C-242.34982403 93.52511417 -254.21435708 122.58059717 -253.1328125 151.09375 C-251.59903532 172.88297211 -242.9615755 194.69255899 -226.87109375 209.875 C-195.39401376 236.36390885 -153.75690774 244.5019025 -113.60668945 244.09130859 C-109.89962327 244.0545443 -106.19355897 244.0502931 -102.48632812 244.05078125 C-84.24420633 243.99846326 -66.63557856 242.93523562 -48.7890625 238.9921875 C-47.59958008 238.73091064 -46.41009766 238.46963379 -45.18457031 238.20043945 C-21.19192844 232.7386079 3.37579938 223.83665583 18.03515625 202.77734375 C26.12350585 189.07562849 28.63932382 174.46108082 25.50390625 158.84765625 C23.71130387 153.20380918 21.38254804 147.89584886 18.92578125 142.51953125 C18.06039105 140.61554047 17.1971759 138.71055987 16.3359375 136.8046875 C15.89822021 135.83764893 15.46050293 134.87061035 15.00952148 133.87426758 C10.95035936 124.5793856 8.75220688 115.1224036 6.5625 105.25390625 C1.3214888 81.83338152 -13.35154784 62.16194594 -33.3515625 49.0546875 C-92.7118936 11.62705032 -174.93799202 22.4307187 -223.140625 72.68359375 Z " fill="#4F2901" transform="translate(336.7265625,55.3203125)"/>
<path d="M0 0 C1.32 0 2.64 0 4 0 C11.09813495 18.25706338 10.39188606 36.50245419 3.4296875 54.85546875 C1.50354907 59.09192075 -0.85288676 62.58632799 -4 66 C-4.48855469 66.54914063 -4.97710937 67.09828125 -5.48046875 67.6640625 C-7.74378321 69.65391738 -10.07478443 69.67497605 -13 70 C-13.061875 70.94875 -13.12375 71.8975 -13.1875 72.875 C-14.53017386 81.87454373 -20.12434177 90.23297504 -27 96 C-33.75542567 100.26939736 -41.10235405 104.11998567 -49.22265625 104.1328125 C-50.40118164 104.13474609 -50.40118164 104.13474609 -51.60351562 104.13671875 C-52.82071289 104.13091797 -52.82071289 104.13091797 -54.0625 104.125 C-55.28549805 104.13080078 -55.28549805 104.13080078 -56.53320312 104.13671875 C-57.31759766 104.13542969 -58.10199219 104.13414062 -58.91015625 104.1328125 C-59.62308838 104.13168457 -60.33602051 104.13055664 -61.07055664 104.12939453 C-63 104 -63 104 -66 103 C-66 104.32 -66 105.64 -66 107 C-70.29 107 -74.58 107 -79 107 C-78.505 105.02 -78.505 105.02 -78 103 C-78.72058594 103.32234619 -79.44117188 103.64469238 -80.18359375 103.97680664 C-89.74187823 107.44930753 -103.92286663 106.36622741 -113.375 102.875 C-125.84081781 97.0357485 -134.6500609 89.26195137 -141 77 C-141.57105469 75.95457031 -142.14210937 74.90914063 -142.73046875 73.83203125 C-144.69786443 69.06866117 -143.80586046 64.66433345 -143.0625 59.6875 C-142.92352295 58.65310791 -142.7845459 57.61871582 -142.64135742 56.55297852 C-142.21864003 53.45239153 -141.77592928 50.35527091 -141.32592773 47.25854492 C-140.82791485 43.80752083 -140.34440277 40.35447714 -139.85902405 36.9016571 C-138.26907578 25.59677284 -136.64350602 14.29720996 -135 3 C-134.01 2.67 -133.02 2.34 -132 2 C-132.02094727 3.09465576 -132.04189453 4.18931152 -132.06347656 5.31713867 C-132.13602709 9.3891078 -132.18185409 13.46102011 -132.21972656 17.53344727 C-132.23980786 19.29396175 -132.26707879 21.05440982 -132.30175781 22.81469727 C-132.35043112 25.34928802 -132.37300305 27.88299495 -132.390625 30.41796875 C-132.41127014 31.20149216 -132.43191528 31.98501556 -132.45318604 32.7922821 C-132.45471516 36.53957472 -132.18225454 38.71744238 -130.13061523 41.89819336 C-126.02952721 45.94382953 -121.50536307 49.42039646 -117 53 C-116.26523438 53.62390625 -115.53046875 54.2478125 -114.7734375 54.890625 C-106.42907285 61.82863606 -95.45172314 68.52751817 -84.30859375 68.26171875 C-68.94468658 66.51995601 -55.15562419 54.30696252 -43.52807617 45.05786133 C-35.51399065 38.72388125 -27.18776337 33.49874212 -18 29 C-24.48802813 22.70178121 -29.83644639 19.03419819 -39 18.5 C-55.32017143 19.04025395 -72.67781025 27.85297259 -84.8984375 38.234375 C-88.82748759 41.53536132 -92.27218708 43.71726698 -97.4375 44.5625 C-102.88620162 43.70217869 -106.95960265 41.56443383 -110.4296875 37.203125 C-112.9605991 32.8394843 -113.53026578 29.06581105 -112.66796875 24.10546875 C-111.06587321 19.05558866 -107.6034652 16.19575459 -103.1875 13.625 C-102.135625 13.08875 -101.08375 12.5525 -100 12 C-100.495 10.02 -100.495 10.02 -101 8 C-100.30668076 7.98969254 -99.61336151 7.97938507 -98.89903259 7.96876526 C-92.29609147 7.86990964 -85.69322017 7.76728831 -79.09039974 7.66066074 C-75.69758196 7.60599767 -72.30475524 7.55268277 -68.91186523 7.50268555 C-48.43548562 7.21198768 -48.43548562 7.21198768 -28 6 C-28.99 9.63 -29.98 13.26 -31 17 C-30.01 17.185625 -29.02 17.37125 -28 17.5625 C-21.97740134 19.25520594 -17.39491494 23.9076276 -14 29 C-14 30.32 -14 31.64 -14 33 C-15.1859375 33.25007813 -16.371875 33.50015625 -17.59375 33.7578125 C-21.75348815 34.80505765 -24.90530204 36.49307635 -28.5 38.875 C-29.08023926 39.257771 -29.66047852 39.64054199 -30.25830078 40.03491211 C-37.73110184 45.04020416 -44.86791844 50.52589584 -52 56 C-48.76830437 58.6405318 -45.41582727 60.33497848 -41.625 62.0625 C-40.52414062 62.56910156 -39.42328125 63.07570313 -38.2890625 63.59765625 C-32.05603894 66.2552043 -27.09194414 67.3416534 -20.375 67.3125 C-19.62476563 67.32861328 -18.87453125 67.34472656 -18.1015625 67.36132812 C-13.71030259 67.36522109 -11.24445665 66.99914407 -8 64 C-7.34 64 -6.68 64 -6 64 C-4.33206588 60.7722386 -2.89900895 57.47750316 -1.5 54.125 C-1.0771875 53.11695313 -0.654375 52.10890625 -0.21875 51.0703125 C3.36639257 42.03851102 4.19769871 33.7615136 4.25 24.125 C4.270625 23.18269531 4.29125 22.24039062 4.3125 21.26953125 C4.34322031 15.71683546 3.74138194 11.16316993 1.74511719 5.96826172 C0.99952992 3.99875826 0.47341238 2.05011634 0 0 Z " fill="#FCFBFB" transform="translate(300,294)"/>
<path d="M0 0 C2.2421875 1.390625 2.2421875 1.390625 4.3125 2.9375 C5.39917969 3.73414063 5.39917969 3.73414063 6.5078125 4.546875 C13.70209306 10.33415604 18.48835652 17.84484634 20.3125 26.9375 C21.89607526 41.61453901 17.33095155 56.11320599 8.171875 67.62890625 C5.96011844 70.15286654 3.68307491 72.56274418 1.3125 74.9375 C0.44818359 75.81921875 0.44818359 75.81921875 -0.43359375 76.71875 C-6.85171324 82.75209015 -16.04053016 87.11473337 -24.875 87 C-26.22658203 86.98646484 -26.22658203 86.98646484 -27.60546875 86.97265625 C-28.29253906 86.96105469 -28.97960937 86.94945312 -29.6875 86.9375 C-29.8525 86.215625 -30.0175 85.49375 -30.1875 84.75 C-32.64417321 80.14373772 -36.84369991 77.97110121 -41.67578125 76.21484375 C-44.50931637 75.44825609 -47.06932594 74.93335118 -50.015625 74.953125 C-52.5274899 74.93649013 -54.34142535 74.85805501 -56.6875 73.9375 C-63.94491439 64.31840919 -63.77737 51.98221839 -62.2265625 40.53515625 C-58.95482051 25.88929948 -49.66064939 12.84459169 -37.6875 3.9375 C-26.79857258 -2.43149528 -11.98706276 -5.73049239 0 0 Z " fill="#502B04" transform="translate(203.6875,145.0625)"/>
<path d="M0 0 C1.36125 0.8971875 1.36125 0.8971875 2.75 1.8125 C5.46475105 1.24338211 5.46475105 1.24338211 7.75 -0.1875 C13.27457118 -2.02902373 18.66005661 -2.0044855 24 0.4375 C28.86182818 3.18801634 31.72348114 6.56393489 34.0625 11.6875 C35.76504333 19.42633333 34.75581183 25.02003646 30.75 31.8125 C30.20988281 32.2765625 29.66976562 32.740625 29.11328125 33.21875 C27.07874879 35.59722921 27.56176919 37.43732784 27.75 40.5 C27.87617627 47.04539391 27.47905902 51.82943765 22.9453125 56.78515625 C17.56607322 61.72796668 13.32201357 64.28912847 5.80078125 64.0625 C-0.30991415 63.31757713 -4.33687372 60.3601873 -8.25 55.8125 C-9.66580928 53.85072505 -10.96208624 51.86362191 -12.25 49.8125 C-13.343125 50.4725 -14.43625 51.1325 -15.5625 51.8125 C-18.18707538 53.39714929 -19.0756378 53.8125 -22.25 53.8125 C-24.08997197 50.35765902 -25.92083882 46.8980752 -27.75 43.4375 C-28.27464844 42.45265625 -28.79929687 41.4678125 -29.33984375 40.453125 C-29.83613281 39.51210937 -30.33242188 38.57109375 -30.84375 37.6015625 C-31.30458984 36.73225098 -31.76542969 35.86293945 -32.24023438 34.96728516 C-33.25 32.8125 -33.25 32.8125 -33.25 30.8125 C-31.6 30.1525 -29.95 29.4925 -28.25 28.8125 C-28.58 27.843125 -28.91 26.87375 -29.25 25.875 C-30.90133529 19.93976593 -31.23002232 14.3429472 -28.6875 8.625 C-25.62016793 3.21396701 -21.56573377 -0.20116895 -15.875 -2.625 C-9.83526003 -3.56220103 -5.15239934 -3.4679611 0 0 Z " fill="#E8FCFA" transform="translate(383.25,105.1875)"/>
<path d="M0 0 C3.59439964 3.22095552 6.08169265 6.19735812 7 11 C8.155 10.9175 9.31 10.835 10.5 10.75 C16.88846979 10.77261405 21.19480343 13.39102045 25.875 17.5625 C29.02972323 21.81171905 29.83403222 26.80448676 30 32 C29.08162353 38.05939114 26.53660955 42.84948488 22 47 C20.32820424 47.62692341 18.6384681 48.20719106 16.9375 48.75 C13.08845058 50.09207708 13.08845058 50.09207708 10.7109375 53.2578125 C10.11106183 55.00527642 9.53421382 56.76081236 8.98046875 58.5234375 C6.97541305 63.58800051 2.83875712 66.13930518 -1.9375 68.375 C-9.50177378 69.91872934 -15.47830406 69.27326363 -22 65 C-28.23795466 58.48052245 -28.10059523 52.55059495 -28 44 C-31.63 44 -35.26 44 -39 44 C-39 35.75 -39 27.5 -39 19 C-35.535 18.505 -35.535 18.505 -32 18 C-31.9175 16.80375 -31.835 15.6075 -31.75 14.375 C-31.00269252 8.57057065 -28.31084141 5.25384831 -24.125 1.25 C-16.64862928 -4.13298691 -8.00240747 -4.63297275 0 0 Z " fill="#E8FCFB" transform="translate(412,202)"/>
<path d="M0 0 C-0.99 3.3 -1.98 6.6 -3 10 C-2.01 10.185625 -1.02 10.37125 0 10.5625 C6.02259866 12.25520594 10.60508506 16.9076276 14 22 C14 23.32 14 24.64 14 26 C12.81535156 26.24878906 11.63070312 26.49757813 10.41015625 26.75390625 C6.21905134 27.80835914 3.05356038 29.53114454 -0.5625 31.9375 C-1.14531738 32.32284912 -1.72813477 32.70819824 -2.32861328 33.10522461 C-9.38882307 37.82921154 -16.20349781 42.90738281 -23 48 C-23.33 47.34 -23.66 46.68 -24 46 C-14.18515183 35.86099171 -2.5689985 28.28449925 10 22 C3.51197187 15.70178121 -1.83644639 12.03419819 -11 11.5 C-27.32017143 12.04025395 -44.67781025 20.85297259 -56.8984375 31.234375 C-60.82748759 34.53536132 -64.27218708 36.71726698 -69.4375 37.5625 C-74.88620162 36.70217869 -78.95960265 34.56443383 -82.4296875 30.203125 C-84.9605991 25.8394843 -85.53026578 22.06581105 -84.66796875 17.10546875 C-83.06587321 12.05558866 -79.6034652 9.19575459 -75.1875 6.625 C-74.135625 6.08875 -73.08375 5.5525 -72 5 C-72.33 3.68 -72.66 2.36 -73 1 C-72.30001892 0.98969254 -71.60003784 0.97938507 -70.87884521 0.96876526 C-64.23081744 0.87014052 -57.58286363 0.76754375 -50.93496323 0.66066074 C-47.51851946 0.60586756 -44.10206678 0.55252567 -40.68554688 0.50268555 C-36.74341376 0.44511044 -32.80140137 0.38089003 -28.859375 0.31640625 C-27.04925934 0.29133751 -27.04925934 0.29133751 -25.20257568 0.26576233 C-18.56815121 0.15171822 -12.03040595 -0.18737063 -5.4307251 -0.89002991 C-3 -1 -3 -1 0 0 Z " fill="#EFE8E6" transform="translate(272,301)"/>
<path d="M0 0 C0.70125 0.45890625 1.4025 0.9178125 2.125 1.390625 C13.75269993 8.91071354 22.83059076 13.39944783 37 12 C44.10914145 9.98617727 50.10740116 6.62430417 55.8671875 2.0390625 C58.96734425 0.52872973 60.70813582 1.08965731 64 2 C66.2835659 3.05520225 68.53301728 4.18625587 70.75 5.375 C76.34783963 8.30517745 81.85326998 10.5128879 88 12 C88 16.20854093 87.47613166 17.39287219 84.71484375 20.421875 C72.50315338 31.65996819 55.93737355 32.79661817 40.1640625 32.3203125 C27.50004922 31.68043687 16.37737199 28.32673899 7.5 18.89453125 C5.08396636 15.84303043 3.50005889 12.57300459 2 9 C1.5875 8.0925 1.175 7.185 0.75 6.25 C0 4 0 4 0 0 Z " fill="#FFABCD" transform="translate(184,352)"/>
<path d="M0 0 C2.84558412 1.40969084 5.18531447 2.92750197 7.43359375 5.17578125 C7.28057428 9.43163538 4.09370185 12.31628076 1.43359375 15.36328125 C0.94246094 15.93336914 0.45132813 16.50345703 -0.0546875 17.09082031 C-11.7977379 30.58622513 -11.7977379 30.58622513 -16.56640625 32.17578125 C-19.66665295 32.20555042 -22.75276906 32.10952783 -25.8515625 32.015625 C-28.71648897 31.88303881 -28.71648897 31.88303881 -30.56640625 34.17578125 C-30.73317907 37.75922101 -30.73317907 37.75922101 -30.56640625 41.17578125 C-26.93640625 41.83578125 -23.30640625 42.49578125 -19.56640625 43.17578125 C-19.52773438 45.07650391 -19.52773438 45.07650391 -19.48828125 47.015625 C-19.06758017 61.23706864 -19.06758017 61.23706864 -12.69140625 73.67578125 C-10.01978403 75.56163223 -7.7909484 75.88264105 -4.56640625 76.17578125 C-5.22640625 77.16578125 -5.88640625 78.15578125 -6.56640625 79.17578125 C-6.96028413 81.49966072 -7.3012671 83.83371874 -7.56640625 86.17578125 C-16.06440663 83.78571864 -21.60231665 76.51443567 -25.96484375 69.2734375 C-28.80360189 63.78286382 -30.75797773 58.07436647 -32.56640625 52.17578125 C-32.81390625 51.41910156 -33.06140625 50.66242188 -33.31640625 49.8828125 C-36.49900116 38.45641272 -35.76505455 24.81450114 -30.56640625 14.17578125 C-23.72222238 2.55842016 -13.80959671 -4.43504552 0 0 Z " fill="#502B03" transform="translate(317.56640625,143.82421875)"/>
<path d="M0 0 C3.87467381 1.33953009 6.08379792 4.0087137 8.796875 6.9453125 C18.68934242 18.185538 18.68934242 18.185538 31.9375 23.38671875 C34.77077351 23.40789797 37.54292998 23.21638208 40.36328125 22.96875 C43.734375 22.9453125 43.734375 22.9453125 45.69140625 24.234375 C46.734375 25.9453125 46.734375 25.9453125 46.859375 28.9453125 C45.734375 31.9453125 45.734375 31.9453125 42.796875 33.8203125 C38.20891262 35.4547741 33.537166 35.20622871 28.734375 34.9453125 C28.79238281 36.20085937 28.85039062 37.45640625 28.91015625 38.75 C29.47530561 56.21904566 29.47530561 56.21904566 23.734375 63.9453125 C23.095 64.8115625 22.455625 65.6778125 21.796875 66.5703125 C18.851708 68.53375717 17.20209252 68.58224021 13.734375 67.9453125 C10.03887647 65.0057114 8.08402578 62.43021397 6.734375 57.9453125 C6.39753823 54.69208037 6.36421028 51.46395988 6.359375 48.1953125 C6.33488281 47.339375 6.31039062 46.4834375 6.28515625 45.6015625 C6.25602106 39.19182139 7.75596461 34.57746591 10.734375 28.9453125 C11.40242527 27.61267187 12.06950286 26.27954159 12.734375 24.9453125 C12.15010742 24.68339111 11.56583984 24.42146973 10.96386719 24.15161133 C7.03819045 22.02756744 4.13304912 18.75470205 0.984375 15.6328125 C0.28699219 14.96830078 -0.41039062 14.30378906 -1.12890625 13.61914062 C-1.78761719 12.96751953 -2.44632813 12.31589844 -3.125 11.64453125 C-3.72795898 11.05502686 -4.33091797 10.46552246 -4.95214844 9.8581543 C-6.64970638 7.38596722 -6.63749371 5.88566271 -6.265625 2.9453125 C-4.20464194 0.65533132 -3.10244038 -0.07488649 0 0 Z " fill="#FBFBFA" transform="translate(173.265625,152.0546875)"/>
<path d="M0 0 C0.66 0 1.32 0 2 0 C10.0376321 15.92111783 16.07652693 34.15947259 10.98046875 52.1015625 C10.65691406 53.05804688 10.33335937 54.01453125 10 55 C9.03320312 55.04898438 8.06640625 55.09796875 7.0703125 55.1484375 C-0.44991228 55.58029199 -7.65340279 56.21953056 -15 58 C-14.67773438 57.04867187 -14.35546875 56.09734375 -14.0234375 55.1171875 C-12.70104471 50.46189676 -12.63226025 45.93854244 -12.625 41.125 C-12.60050781 40.27808594 -12.57601563 39.43117187 -12.55078125 38.55859375 C-12.52468454 32.87820967 -13.5485604 28.97086197 -16.33349609 24.00341797 C-17 22 -17 22 -16.23779297 19.88623047 C-14.62868439 17.43416481 -12.75439724 15.39075079 -10.75 13.25 C-7.26429551 9.46680382 -4.12214511 5.62337728 -1.19140625 1.3984375 C-0.79824219 0.93695313 -0.40507812 0.47546875 0 0 Z " fill="#512B04" transform="translate(332,159)"/>
<path d="M0 0 C1.62890625 1.21875 1.62890625 1.21875 3.62890625 3.21875 C4.06640625 6.53125 4.06640625 6.53125 3.62890625 10.21875 C-1.02547676 16.24206919 -7.18325318 18.43290507 -14.37109375 20.21875 C-27.47952504 21.37854948 -37.90498106 19.59164015 -48.37109375 11.21875 C-48.16238857 5.27065241 -47.18353379 1.91874655 -43.05078125 -2.44140625 C-40.58108361 -4.41142088 -38.48294398 -4.64883084 -35.37109375 -4.78125 C-34.26701172 -5.02681641 -34.26701172 -5.02681641 -33.140625 -5.27734375 C-21.69648028 -7.35956472 -9.77163382 -6.4749412 0 0 Z " fill="#FEAACC" transform="translate(357.37109375,219.78125)"/>
<path d="M0 0 C0.70817871 -0.00563965 1.41635742 -0.0112793 2.14599609 -0.01708984 C8.79862631 0.07383098 15.16911896 1.03488984 20.8125 4.8125 C21.78316406 5.44671875 21.78316406 5.44671875 22.7734375 6.09375 C24.4375 7.3125 24.4375 7.3125 26.4375 9.3125 C26.87469405 13.17438075 26.84755887 15.5458682 25 19 C16.5235419 26.64948658 5.28280259 27.00070826 -5.57373047 26.50048828 C-12.29408672 25.86524714 -18.7778177 23.0971823 -23.5625 18.3125 C-25.1792707 15.07895861 -25.03881929 12.88489465 -24.5625 9.3125 C-18.58445175 1.21683591 -9.33834275 0.07076034 0 0 Z " fill="#FEAACC" transform="translate(147.5625,218.6875)"/>
<path d="M0 0 C3.11390117 2.21566045 4.9556923 4.30496187 7.25 7.3125 C6.29480469 7.78558594 5.33960938 8.25867188 4.35546875 8.74609375 C-3.29501545 12.62693241 -9.91852817 16.64305828 -16.3828125 22.33203125 C-19.91555682 25.28764407 -22.57808427 27.16334709 -27.1875 27.75 C-31.4926591 27.22129625 -33.47712679 26.13907232 -36.75 23.3125 C-39.64927304 18.96359044 -40.49101446 15.49960123 -39.75 10.3125 C-32.29209529 -1.57353562 -12.53955099 -5.84390395 0 0 Z " fill="#502B03" transform="translate(229.75,307.6875)"/>
<path d="M0 0 C3.59439964 3.22095552 6.08169265 6.19735812 7 11 C8.155 10.9175 9.31 10.835 10.5 10.75 C16.88846979 10.77261405 21.19480343 13.39102045 25.875 17.5625 C29.02972323 21.81171905 29.83403222 26.80448676 30 32 C29.08162353 38.05939114 26.53660955 42.84948488 22 47 C20.32820424 47.62692341 18.6384681 48.20719106 16.9375 48.75 C13.08845058 50.09207708 13.08845058 50.09207708 10.7109375 53.2578125 C10.11106183 55.00527642 9.53421382 56.76081236 8.98046875 58.5234375 C6.97541305 63.58800051 2.83875712 66.13930518 -1.9375 68.375 C-9.50177378 69.91872934 -15.47830406 69.27326363 -22 65 C-28.23795466 58.48052245 -28.10059523 52.55059495 -28 44 C-31.63 44 -35.26 44 -39 44 C-39 35.75 -39 27.5 -39 19 C-35.535 18.505 -35.535 18.505 -32 18 C-31.9175 16.80375 -31.835 15.6075 -31.75 14.375 C-31.00269252 8.57057065 -28.31084141 5.25384831 -24.125 1.25 C-16.64862928 -4.13298691 -8.00240747 -4.63297275 0 0 Z M-27.9375 8.3125 C-29.44791745 12.13296767 -29.74235724 15.92213699 -30 20 C-32.31 20.33 -34.62 20.66 -37 21 C-37 27.93 -37 34.86 -37 42 C-33.04 42 -29.08 42 -25 42 C-25.33 42.99 -25.66 43.98 -26 45 C-26.43933417 51.59001258 -25.74609893 56.26431588 -21.69921875 61.76953125 C-17.98647537 65.70338094 -14.80307132 66.44757518 -9.4375 66.625 C-2.32280412 66.26641281 0.82430086 64.22514685 5.75 59.1875 C8.23207148 56.124849 8.23207148 56.124849 8.75 52.3125 C9.36875 50.6728125 9.36875 50.6728125 10 49 C12.16039715 48.04383258 14.31880176 47.52877305 16.60546875 46.94140625 C20.87513984 45.26279168 23.47654519 41.72509996 26 38 C27.79044354 32.62866939 27.47155439 27.6643096 25.9375 22.25 C23.31287257 17.84739916 19.97196361 14.95506216 15.04296875 13.37109375 C12.8960922 12.98112573 10.92990932 12.90116818 8.75 12.9375 C7.5125 12.958125 6.275 12.97875 5 13 C4.9175 12.278125 4.835 11.55625 4.75 10.8125 C3.55032217 6.31370815 1.22455299 3.88780092 -2.5 1.1875 C-13.19248367 -2.44030696 -20.8422483 -0.15602623 -27.9375 8.3125 Z " fill="#55310C" transform="translate(412,202)"/>
<path d="M0 0 C1.36125 0.8971875 1.36125 0.8971875 2.75 1.8125 C5.46475105 1.24338211 5.46475105 1.24338211 7.75 -0.1875 C13.27457118 -2.02902373 18.66005661 -2.0044855 24 0.4375 C28.86182818 3.18801634 31.72348114 6.56393489 34.0625 11.6875 C35.76504333 19.42633333 34.75581183 25.02003646 30.75 31.8125 C30.20988281 32.2765625 29.66976562 32.740625 29.11328125 33.21875 C27.07874879 35.59722921 27.56176919 37.43732784 27.75 40.5 C27.87617627 47.04539391 27.47905902 51.82943765 22.9453125 56.78515625 C17.56607322 61.72796668 13.32201357 64.28912847 5.80078125 64.0625 C-0.30991415 63.31757713 -4.33687372 60.3601873 -8.25 55.8125 C-9.66580928 53.85072505 -10.96208624 51.86362191 -12.25 49.8125 C-13.343125 50.4725 -14.43625 51.1325 -15.5625 51.8125 C-18.18707538 53.39714929 -19.0756378 53.8125 -22.25 53.8125 C-24.08997197 50.35765902 -25.92083882 46.8980752 -27.75 43.4375 C-28.27464844 42.45265625 -28.79929687 41.4678125 -29.33984375 40.453125 C-29.83613281 39.51210937 -30.33242188 38.57109375 -30.84375 37.6015625 C-31.30458984 36.73225098 -31.76542969 35.86293945 -32.24023438 34.96728516 C-33.25 32.8125 -33.25 32.8125 -33.25 30.8125 C-31.6 30.1525 -29.95 29.4925 -28.25 28.8125 C-28.58 27.843125 -28.91 26.87375 -29.25 25.875 C-30.90133529 19.93976593 -31.23002232 14.3429472 -28.6875 8.625 C-25.62016793 3.21396701 -21.56573377 -0.20116895 -15.875 -2.625 C-9.83526003 -3.56220103 -5.15239934 -3.4679611 0 0 Z M-24.5 6.25 C-27.84465203 11.14752619 -28.75470235 14.85701229 -28.25 20.8125 C-27.41044107 23.57867683 -26.37484728 26.14098771 -25.25 28.8125 C-26.9 29.8025 -28.55 30.7925 -30.25 31.8125 C-28.64369175 36.05542532 -26.6731838 40.08275107 -24.625 44.125 C-24.30015625 44.77017578 -23.9753125 45.41535156 -23.640625 46.08007812 C-22.84558044 47.65847541 -22.04804366 49.23561694 -21.25 50.8125 C-18.23782888 50.16800393 -15.73344164 49.16227818 -13 47.75 C-11.94039063 47.20666016 -11.94039063 47.20666016 -10.859375 46.65234375 C-10.32828125 46.37519531 -9.7971875 46.09804687 -9.25 45.8125 C-9.20875 46.658125 -9.1675 47.50375 -9.125 48.375 C-7.66785633 54.099493 -4.17368265 57.54368804 0.6875 60.75 C5.88172376 62.55207763 9.89057592 62.42674315 14.875 60.1875 C19.72416362 57.54164568 22.9749607 54.13761791 24.75 48.8125 C24.66302663 45.02915828 24.49068691 41.25589483 24.296875 37.4765625 C24.86139674 32.91172292 26.33462561 31.75023556 29.75 28.8125 C32.34288172 23.98437541 33.42097743 20.27617337 32.75 14.8125 C30.5316952 8.4676712 27.37280514 4.71923954 21.375 1.5625 C15.2054397 -0.20023151 11.27119194 0.8678643 5.75 3.8125 C1.75 3.8125 1.75 3.8125 -1.3125 1.8125 C-9.72523838 -3.26415247 -18.21721505 -0.55635036 -24.5 6.25 Z " fill="#532F09" transform="translate(383.25,105.1875)"/>
<path d="M0 0 C2 3 2 3 2 5 C5.63 5.66 9.26 6.32 13 7 C13.03867187 8.90072266 13.03867187 8.90072266 13.078125 10.83984375 C13.49882608 25.06128739 13.49882608 25.06128739 19.875 37.5 C22.54662222 39.38585098 24.77545785 39.7068598 28 40 C27.34 40.99 26.68 41.98 26 43 C25.60612212 45.32387947 25.26513915 47.65793749 25 50 C16.50199962 47.60993739 10.9640896 40.33865442 6.6015625 33.09765625 C1.90216585 24.00833541 -2.67248822 12.42356749 -2 2 C-1.34 2 -0.68 2 0 2 C0 1.34 0 0.68 0 0 Z " fill="#55310B" transform="translate(285,180)"/>
<path d="M0 0 C7.95757625 3.97878812 15.51986355 12.83233282 19 21 C18.8125 24 18.8125 24 18 26 C15.7109375 25.8203125 15.7109375 25.8203125 13 25 C11.2265625 22.7421875 11.2265625 22.7421875 9.625 19.875 C5.32630001 12.51760377 5.32630001 12.51760377 -1 7 C-6.20269771 7.24657335 -8.444191 9.9497859 -11.87890625 13.52734375 C-14.92580716 17.07925586 -17.54901832 20.88457918 -20.140625 24.77734375 C-22 27 -22 27 -24.171875 27.87890625 C-24.77515625 27.91886719 -25.3784375 27.95882812 -26 28 C-27 27 -27 27 -27.375 24.8671875 C-26.83746741 20.75730291 -24.55931923 18.22805431 -22 15.125 C-21.50250244 14.50729736 -21.00500488 13.88959473 -20.49243164 13.25317383 C-8.90660839 -0.85640465 -8.90660839 -0.85640465 0 0 Z " fill="#56310B" transform="translate(264,226)"/>
<path d="M0 0 C-0.66 2.97 -1.32 5.94 -2 9 C-3.46759766 9.05607422 -3.46759766 9.05607422 -4.96484375 9.11328125 C-11.7121154 9.45164001 -17.93115252 9.81319937 -24.265625 12.37890625 C-26 13 -26 13 -29 13 C-30.21336474 11.52428613 -31.42304562 10.04493659 -32.59375 8.53515625 C-34.68976657 6.24700482 -37.17332817 5.18325797 -40 4 C-40 4.66 -40 5.32 -40 6 C-44.95 5.67 -49.9 5.34 -55 5 C-55 4.67 -55 4.34 -55 4 C-51.37 4 -47.74 4 -44 4 C-44 3.34 -44 2.68 -44 2 C-48.62 2 -53.24 2 -58 2 C-58 1.67 -58 1.34 -58 1 C-51.50793035 0.85589268 -45.01582091 0.71368937 -38.52368164 0.57275391 C-36.31924515 0.52468057 -34.11481782 0.4761857 -31.91040039 0.42724609 C-28.72544685 0.3566135 -25.54046251 0.28754218 -22.35546875 0.21875 C-21.38417526 0.19687622 -20.41288177 0.17500244 -19.41215515 0.15246582 C-12.94046057 0.0146485 -6.47308551 -0.02480317 0 0 Z " fill="#F4A4C1" transform="translate(268,301)"/>
<path d="M0 0 C1.32 0 2.64 0 4 0 C11.09813495 18.25706338 10.39188606 36.50245419 3.4296875 54.85546875 C0.92366541 60.36734793 -2.54465564 64.91493895 -7 69 C-9.1875 69.6875 -9.1875 69.6875 -11 70 C-10.1875 67.5625 -10.1875 67.5625 -9 65 C-7.515 64.505 -7.515 64.505 -6 64 C-4.88036242 62.25358873 -4.88036242 62.25358873 -4 60 C-3.5978125 59.07445312 -3.195625 58.14890625 -2.78125 57.1953125 C-2.3584375 56.18210937 -1.935625 55.16890625 -1.5 54.125 C-1.0771875 53.11695313 -0.654375 52.10890625 -0.21875 51.0703125 C3.36639257 42.03851102 4.19769871 33.7615136 4.25 24.125 C4.270625 23.18269531 4.29125 22.24039062 4.3125 21.26953125 C4.34322031 15.71683546 3.74138194 11.16316993 1.74511719 5.96826172 C0.99952992 3.99875826 0.47341238 2.05011634 0 0 Z " fill="#F5F3F1" transform="translate(300,294)"/>
<path d="M0 0 C0.33 0 0.66 0 1 0 C1 2.31 1 4.62 1 7 C-1.31 7 -3.62 7 -6 7 C-6 13.93 -6 20.86 -6 28 C-2.04 28 1.92 28 6 28 C5.938125 29.670625 5.87625 31.34125 5.8125 33.0625 C5.8386749 39.85924839 6.87343467 43.66596488 11.5625 48.8125 C15.50034716 51.84314693 20.18521262 52.36246886 25 53 C25 53.66 25 54.32 25 55 C18.90481448 55.51873919 14.18273231 54.33868898 9 51 C2.75686609 44.49057127 2.89949109 38.54325772 3 30 C-0.63 30 -4.26 30 -8 30 C-8 21.75 -8 13.5 -8 5 C-4.535 4.505 -4.535 4.505 -1 4 C-0.67 2.68 -0.34 1.36 0 0 Z " fill="#522D07" transform="translate(381,216)"/>
<path d="M0 0 C4.06809929 0.52537408 6.17603456 1.61400461 9.1875 4.375 C9.86167969 4.98085938 10.53585937 5.58671875 11.23046875 6.2109375 C14.2763928 9.29048102 15 10.5724245 15 15 C13.22302734 15.37318359 13.22302734 15.37318359 11.41015625 15.75390625 C7.21905134 16.80835914 4.05356038 18.53114454 0.4375 20.9375 C-0.43672607 21.51552368 -0.43672607 21.51552368 -1.32861328 22.10522461 C-8.38882307 26.82921154 -15.20349781 31.90738281 -22 37 C-22.33 36.34 -22.66 35.68 -23 35 C-13.18515183 24.86099171 -1.5689985 17.28449925 11 11 C9.73113036 9.87278564 8.45982438 8.74831342 7.1875 7.625 C6.47980469 6.99851562 5.77210938 6.37203125 5.04296875 5.7265625 C2.91196181 3.859401 2.91196181 3.859401 0 2 C0 1.34 0 0.68 0 0 Z " fill="#EEEAE6" transform="translate(271,312)"/>
<path d="M0 0 C0.86625 -0.00257813 1.7325 -0.00515625 2.625 -0.0078125 C5 0.125 5 0.125 8 1.125 C7.52753358 5.37719775 5.22727623 7.49814725 2 10.125 C-1.05989557 10.32241262 -2.90938692 8.54794166 -5.25 6.75 C-6.1575 5.88375 -7.065 5.0175 -8 4.125 C-8 3.135 -8 2.145 -8 1.125 C-5.05173237 0.14224412 -3.07347496 -0.00914725 0 0 Z " fill="#56310B" transform="translate(260,208.875)"/>
<path d="M0 0 C0.99 0.33 1.98 0.66 3 1 C2.01 4.3 1.02 7.6 0 11 C0.66 11 1.32 11 2 11 C1.67 11.99 1.34 12.98 1 14 C0.42024414 13.83701416 -0.15951172 13.67402832 -0.75683594 13.50610352 C-4.22673123 12.72322444 -7.712623 12.89687641 -11.25 12.9375 C-11.99507813 12.94201172 -12.74015625 12.94652344 -13.5078125 12.95117188 C-15.3385764 12.96290754 -17.16929873 12.9808415 -19 13 C-18.67 12.01 -18.34 11.02 -18 10 C-13.05 10 -8.1 10 -3 10 C-2.690625 8.535625 -2.38125 7.07125 -2.0625 5.5625 C-1.125 1.125 -1.125 1.125 0 0 Z " fill="#FBF6F7" transform="translate(269,300)"/>
<path d="M0 0 C0.66 0.33 1.32 0.66 2 1 C2 1.99 2 2.98 2 4 C-16.89066287 14.78103487 -16.89066287 14.78103487 -23 16 C-22.76953125 14.109375 -22.76953125 14.109375 -22 12 C-20.13671875 11.015625 -20.13671875 11.015625 -17.6875 10.25 C-11.09697594 7.88465996 -5.68324739 4.02319231 0 0 Z " fill="#F5EFEE" transform="translate(243,349)"/>
<path d="M0 0 C1.00289063 0.10183594 2.00578125 0.20367187 3.0390625 0.30859375 C3.80992187 0.39238281 4.58078125 0.47617188 5.375 0.5625 C5.375 0.8925 5.375 1.2225 5.375 1.5625 C4.73433594 1.57667969 4.09367187 1.59085938 3.43359375 1.60546875 C-2.91578631 1.9555836 -7.03469097 3.06169561 -11.625 7.5625 C-15.12842777 11.76661332 -15.29158359 16.28532307 -15.625 21.5625 C-15.955 21.5625 -16.285 21.5625 -16.625 21.5625 C-18.21555118 12.8144685 -18.21555118 12.8144685 -16.0625 8.25 C-11.13333981 2.81528492 -7.58455795 -0.79373281 0 0 Z " fill="#54310B" transform="translate(398.625,200.4375)"/>
<path d="M0 0 C0.33 0.66 0.66 1.32 1 2 C-2.88244124 7.51056176 -6.72253573 9.67501323 -13 12 C-13.33 11.34 -13.66 10.68 -14 10 C-16.31 10 -18.62 10 -21 10 C-21 9.67 -21 9.34 -21 9 C-20.34773438 8.97421875 -19.69546875 8.9484375 -19.0234375 8.921875 C-13.20853087 8.54450643 -9.64508225 7.7808809 -5 4 C-4.05125 3.2575 -3.1025 2.515 -2.125 1.75 C-1.42375 1.1725 -0.7225 0.595 0 0 Z " fill="#5A3612" transform="translate(420,259)"/>
<path d="M0 0 C4.95 0 9.9 0 15 0 C15 0.66 15 1.32 15 2 C7.08 2.495 7.08 2.495 -1 3 C-0.67 2.01 -0.34 1.02 0 0 Z " fill="#FEFAFB" transform="translate(209,303)"/>
<path d="M0 0 C-0.33 0.99 -0.66 1.98 -1 3 C-2.546875 2.9690625 -2.546875 2.9690625 -4.125 2.9375 C-7.55152969 2.99276661 -10.64572414 3.34550715 -14 4 C-14 3.34 -14 2.68 -14 2 C-9.35150485 -0.3992233 -5.08913926 -0.19957409 0 0 Z " fill="#4D2A03" transform="translate(403,104)"/>
<path d="M0 0 C0.66 0 1.32 0 2 0 C2 5.94 2 11.88 2 18 C1.67 18 1.34 18 1 18 C0.93941406 17.10796875 0.87882813 16.2159375 0.81640625 15.296875 C0.73261719 14.12640625 0.64882812 12.9559375 0.5625 11.75 C0.48128906 10.58984375 0.40007812 9.4296875 0.31640625 8.234375 C0.09350711 5.12133032 0.09350711 5.12133032 -0.59765625 2.640625 C-0.73042969 2.09921875 -0.86320313 1.5578125 -1 1 C-0.67 0.67 -0.34 0.34 0 0 Z " fill="#CDC2B7" transform="translate(166,296)"/>
<path d="M0 0 C0.33 0 0.66 0 1 0 C2.61050328 10.15317287 2.61050328 10.15317287 0.0625 13.6875 C-0.618125 14.120625 -1.29875 14.55375 -2 15 C-2 11.81529658 -1.53974382 8.94976093 -1 5.8125 C-0.814375 4.72582031 -0.62875 3.63914063 -0.4375 2.51953125 C-0.293125 1.68808594 -0.14875 0.85664063 0 0 Z " fill="#644322" transform="translate(408,145)"/>
<path d="M0 0 C1.32 0.33 2.64 0.66 4 1 C4 1.99 4 2.98 4 4 C-0.95 3.67 -5.9 3.34 -11 3 C-11 2.67 -11 2.34 -11 2 C-7.37 2 -3.74 2 0 2 C0 1.34 0 0.68 0 0 Z " fill="#D4C8C0" transform="translate(224,303)"/>
<path d="M0 0 C0.66 0.33 1.32 0.66 2 1 C2 1.66 2 2.32 2 3 C-0.31 3.66 -2.62 4.32 -5 5 C-5 4.34 -5 3.68 -5 3 C-7.31 3 -9.62 3 -12 3 C-12 2.67 -12 2.34 -12 2 C-10.95199219 1.90912109 -10.95199219 1.90912109 -9.8828125 1.81640625 C-8.97273438 1.73261719 -8.06265625 1.64882813 -7.125 1.5625 C-6.22007812 1.48128906 -5.31515625 1.40007812 -4.3828125 1.31640625 C-1.98889139 1.13010715 -1.98889139 1.13010715 0 0 Z " fill="#6C502F" transform="translate(411,266)"/>
<path d="M0 0 C0.33 0.66 0.66 1.32 1 2 C3.64 2 6.28 2 9 2 C9 2.66 9 3.32 9 4 C5.7 4 2.4 4 -1 4 C-0.67 2.68 -0.34 1.36 0 0 Z " fill="#4F2901" transform="translate(418,211)"/>
<path d="M0 0 C0.66 0.33 1.32 0.66 2 1 C1.75 2.875 1.75 2.875 1 5 C-1.0625 6.25 -1.0625 6.25 -3 7 C-1.125 2.25 -1.125 2.25 0 0 Z M-6 8 C-5.34 8.33 -4.68 8.66 -4 9 C-4.99 10.32 -5.98 11.64 -7 13 C-6.67 11.35 -6.34 9.7 -6 8 Z " fill="#5F401D" transform="translate(414,130)"/>
<path d="M0 0 C2.23551759 3.35327639 2.17283528 3.90743657 1.625 7.6875 C1.51414062 8.49574219 1.40328125 9.30398437 1.2890625 10.13671875 C1.19367188 10.75160156 1.09828125 11.36648437 1 12 C0.67 12 0.34 12 0 12 C-0.19401633 10.18818595 -0.38004375 8.37551468 -0.5625 6.5625 C-0.66691406 5.55316406 -0.77132813 4.54382813 -0.87890625 3.50390625 C-0.91886719 2.67761719 -0.95882813 1.85132813 -1 1 C-0.67 0.67 -0.34 0.34 0 0 Z " fill="#5F3F1C" transform="translate(439,223)"/>
<path d="M0 0 C0 0.66 0 1.32 0 2 C-2.97 2 -5.94 2 -9 2 C-6.98558063 -2.02883874 -3.72407517 -0.90585612 0 0 Z " fill="#5A3914" transform="translate(376,103)"/>
<path d="M0 0 C0.66 0 1.32 0 2 0 C2.99 2.64 3.98 5.28 5 8 C4.01 8 3.02 8 2 8 C1.01 5.69 0.02 3.38 -1 1 C-0.67 0.67 -0.34 0.34 0 0 Z " fill="#522903" transform="translate(372,152)"/>
<path d="M0 0 C1.03159626 3.09478879 0.97482862 4.52631393 0.5625 7.6875 C0.46066406 8.49574219 0.35882813 9.30398437 0.25390625 10.13671875 C0.17011719 10.75160156 0.08632813 11.36648437 0 12 C-0.33 12 -0.66 12 -1 12 C-1.22162329 10.37675914 -1.42689803 8.751279 -1.625 7.125 C-1.74101562 6.22007812 -1.85703125 5.31515625 -1.9765625 4.3828125 C-1.98429687 3.59648437 -1.99203125 2.81015625 -2 2 C-1.34 1.34 -0.68 0.68 0 0 Z " fill="#664B28" transform="translate(383,210)"/>
<path d="M0 0 C3.63 0.33 7.26 0.66 11 1 C11 1.33 11 1.66 11 2 C4.565 2.495 4.565 2.495 -2 3 C-1.34 2.01 -0.68 1.02 0 0 Z " fill="#684D2C" transform="translate(393,200)"/>
<path d="M0 0 C0.66 0.66 1.32 1.32 2 2 C1.34 2 0.68 2 0 2 C-0.2475 2.598125 -0.495 3.19625 -0.75 3.8125 C-2.16370012 6.28647521 -3.65055383 7.43370255 -6 9 C-4.47291037 5.56404834 -2.40072955 2.88087546 0 0 Z " fill="#D596A2" transform="translate(316,216)"/>
</svg>
