<?xml version="1.0" encoding="UTF-8"?>
<svg version="1.1" xmlns="http://www.w3.org/2000/svg" width="512" height="512">
<path d="M0 0 C6.01556135 4.55770848 10.00855864 11.46548896 11.21875 18.84765625 C11.60550091 35.77369594 3.28814261 49.34260102 -7.90625 61.41015625 C-8.48632812 61.98894531 -9.06640625 62.56773437 -9.6640625 63.1640625 C-10.96473822 64.76380725 -10.96473822 64.76380725 -10.6953125 66.6640625 C-9.42253147 69.70459496 -7.74484236 72.40746879 -6.03125 75.22265625 C-0.07320605 85.40556734 3.06187429 95.85541053 5.65625 107.28515625 C7.69766277 116.26721283 10.4935247 124.40947221 14.21875 132.84765625 C15.28373682 135.28344861 16.34327675 137.72129441 17.39331055 140.16357422 C18.08638158 141.77250598 18.78897195 143.3773869 19.50317383 144.97705078 C26.12333173 160.25991344 25.81783151 176.31472045 20.21875 191.84765625 C19.03369538 194.15960329 17.74144506 196.33608599 16.3671875 198.5390625 C14.92286529 201.44244491 14.40030372 204.2311333 13.78125 207.41015625 C11.23582349 219.38617932 2.57819424 225.87974256 -7.26953125 232.52734375 C-9.08527543 233.66903725 -10.92984017 234.76475616 -12.78125 235.84765625 C-3.98621011 236.87202756 -3.98621011 236.87202756 4.1171875 234.6171875 C5.24112016 233.08969512 6.23371376 231.46819974 7.21875 229.84765625 C12.2681663 226.32480767 17.25932615 226.03584619 23.21875 226.84765625 C29.50705946 228.71415093 33.4753684 232.58878799 37.21875 237.84765625 C40.06078038 243.531717 38.41356318 251.06351974 36.59375 256.84765625 C33.92747108 264.10219607 30.66775947 271.34953319 25.40625 277.09765625 C22.79293728 280.38296367 22.46687727 282.71220169 22.21875 286.84765625 C20.23875 286.84765625 18.25875 286.84765625 16.21875 286.84765625 C16.22922363 287.46471436 16.23969727 288.08177246 16.25048828 288.7175293 C16.46252708 303.23950278 15.90181817 317.42135768 14.21875 331.84765625 C14.78795166 331.8319458 15.35715332 331.81623535 15.94360352 331.80004883 C18.55604874 331.73717186 21.1683341 331.69850093 23.78125 331.66015625 C25.12413086 331.62245117 25.12413086 331.62245117 26.49414062 331.58398438 C33.0366968 331.51208815 37.5659916 332.41248399 43.09375 336.09765625 C45.30857474 339.54293919 45.49642159 343.02809066 44.88671875 347.0234375 C42.77294115 354.91941964 37.9082302 359.65100339 31.00390625 363.76171875 C16.84506077 371.11493132 4.06332746 374.11044134 -11.8046875 373.83984375 C-13.66796353 373.82235121 -15.53124509 373.8054407 -17.39453125 373.7890625 C-20.29133726 373.75796712 -23.18786097 373.72215549 -26.08447266 373.67626953 C-28.90791408 373.63401524 -31.73101707 373.61053679 -34.5546875 373.58984375 C-35.85471207 373.56191238 -35.85471207 373.56191238 -37.18099976 373.53341675 C-41.77238355 373.51379521 -44.27949759 373.61157517 -47.78125 376.84765625 C-84.23600247 389.19639888 -160.22157063 383.20043833 -195.09375 367.66015625 C-202.96683005 363.41181108 -208.45013185 357.91218648 -211.17443275 349.3927784 C-212.20143685 345.08530215 -212.03319276 340.93275849 -211.84643555 336.53295898 C-211.8032016 335.04798164 -211.8032016 335.04798164 -211.75909424 333.53300476 C-211.66070956 330.28172889 -211.53937824 327.03174043 -211.41796875 323.78125 C-211.34492111 321.50078504 -211.27339808 319.22027078 -211.20332336 316.93971252 C-211.01532388 310.94321979 -210.80820226 304.94754218 -210.59655762 298.95184326 C-210.3441051 291.70920476 -210.11262582 284.46587316 -209.87958241 277.22258854 C-209.69775163 271.57682369 -209.51245652 265.9312581 -209.31559753 260.28599548 C-208.93294656 249.1335952 -208.66875001 238.00720671 -208.78125 226.84765625 C-209.78982559 226.29451752 -210.79840118 225.74137878 -211.83753967 225.17147827 C-219.43675667 220.99527187 -226.17198087 216.50079241 -232.78125 210.84765625 C-233.38066406 210.39261719 -233.98007813 209.93757812 -234.59765625 209.46875 C-250.53695241 197.0797379 -258.90555595 176.27167605 -261.78125 156.84765625 C-262.72455296 141.53101834 -262.42931575 126.5382324 -257.78125 111.84765625 C-257.56694336 111.16171387 -257.35263672 110.47577148 -257.13183594 109.76904297 C-253.88327547 99.68999399 -249.21695412 90.90716312 -243.78125 81.84765625 C-243.09732499 80.52309262 -242.42164978 79.19380273 -241.78125 77.84765625 C-242.6990625 77.27917969 -243.616875 76.71070313 -244.5625 76.125 C-256.54755913 68.62514705 -268.41145777 60.86137365 -272.28125 46.28515625 C-273.83388661 36.33416704 -271.26704647 28.21160234 -265.78125 19.84765625 C-257.13984458 9.25450951 -245.32531887 0.00034502 -231.38671875 -1.5234375 C-220.80262738 -1.72907128 -213.69579574 0.79741348 -205.78125 7.84765625 C-204.16027877 9.97656881 -202.70070713 12.03283054 -201.28125 14.28515625 C-200.89396729 14.89117676 -200.50668457 15.49719727 -200.10766602 16.12158203 C-196.43855351 22.05575897 -193.97180805 28.22094294 -191.78125 34.84765625 C-187.19490181 33.33950487 -182.62411872 31.80118346 -178.08203125 30.1640625 C-161.48406437 24.27178426 -144.4489861 20.39530845 -126.78125 19.84765625 C-125.34652344 19.78771484 -125.34652344 19.78771484 -123.8828125 19.7265625 C-105.70712597 19.3294074 -88.26903222 22.1326251 -70.78125 26.84765625 C-69.54117188 27.17507812 -68.30109375 27.5025 -67.0234375 27.83984375 C-64.60314569 28.48979424 -62.18929827 29.154003 -59.78125 29.84765625 C-59.61109375 28.95304687 -59.4409375 28.0584375 -59.265625 27.13671875 C-56.61104125 13.89204024 -53.45971357 2.29429543 -41.55859375 -5.6328125 C-27.58935248 -12.86548508 -12.5584826 -8.12445694 0 0 Z " fill="#0D1108" transform="translate(369.78125,71.15234375)"/>
<path d="M0 0 C2.4732112 2.18740097 4.85421679 4.44222333 7.22265625 6.7421875 C7.980625 7.42667969 8.73859375 8.11117187 9.51953125 8.81640625 C23.96218816 22.28791899 30.23542819 39.39508482 34.19067383 58.2578125 C36.37764749 68.24559325 40.13737143 77.40119495 44.22265625 86.7421875 C45.0909316 88.74929113 45.95762464 90.75705829 46.82250977 92.765625 C47.53694569 94.41456562 48.26586016 96.05721304 48.99609375 97.69921875 C54.51740389 111.39699135 53.6242169 126.05388248 48.70703125 139.7734375 C47.21963617 142.74822766 45.71437129 144.5699231 43.22265625 146.7421875 C42.58328125 145.8140625 41.94390625 144.8859375 41.28515625 143.9296875 C37.18082717 139.09366744 32.29255601 138.09595316 26.171875 137.390625 C13.07717454 136.79469851 3.68683162 142.13422186 -5.77734375 150.7421875 C-6.56496094 151.43699219 -7.35257813 152.13179687 -8.1640625 152.84765625 C-18.1181405 162.16056981 -26.23972135 173.81971187 -32.77734375 185.7421875 C-35.38199732 182.56795137 -37.79655493 179.31480687 -40.12573242 175.93383789 C-45.43824966 168.25830272 -51.32282053 161.46816263 -57.77734375 154.7421875 C-58.64746094 153.74251953 -58.64746094 153.74251953 -59.53515625 152.72265625 C-66.45543389 145.01993516 -76.6921253 139.34776173 -86.9765625 138.46875 C-95.06753104 138.23317869 -101.11591369 138.91096852 -107.77734375 143.7421875 C-110.90807734 146.87292109 -111.00865157 149.78356383 -111.21484375 154.0546875 C-110.94742157 162.35591754 -107.63425285 167.26410997 -101.84350586 172.9453125 C-98.31801747 176.01131682 -94.3752231 178.28895896 -90.33984375 180.6171875 C-88.71438183 181.56991343 -87.09057718 182.5254747 -85.46875 183.484375 C-84.75920166 183.8954248 -84.04965332 184.30647461 -83.31860352 184.72998047 C-82.80998779 185.06400879 -82.30137207 185.39803711 -81.77734375 185.7421875 C-81.77734375 186.0721875 -81.77734375 186.4021875 -81.77734375 186.7421875 C-132.0666149 187.99893591 -132.0666149 187.99893591 -153.77734375 180.7421875 C-154.54481934 180.50193848 -155.31229492 180.26168945 -156.10302734 180.01416016 C-181.50080581 171.9982877 -204.96425441 156.55406462 -217.77734375 132.7421875 C-229.17232653 109.28363876 -229.13992204 83.93313802 -221.71484375 59.3671875 C-210.00879231 26.48541315 -185.75688489 2.03536112 -154.77734375 -13.2578125 C-107.30422392 -35.59331659 -41.86782583 -34.03601031 0 0 Z " fill="#FEFDFD" transform="translate(337.77734375,122.2578125)"/>
<path d="M0 0 C6.01556135 4.55770848 10.00855864 11.46548896 11.21875 18.84765625 C11.60550091 35.77369594 3.28814261 49.34260102 -7.90625 61.41015625 C-8.48632812 61.98894531 -9.06640625 62.56773437 -9.6640625 63.1640625 C-10.96473822 64.76380725 -10.96473822 64.76380725 -10.6953125 66.6640625 C-9.42253147 69.70459496 -7.74484236 72.40746879 -6.03125 75.22265625 C-0.07320605 85.40556734 3.06187429 95.85541053 5.65625 107.28515625 C7.69766277 116.26721283 10.4935247 124.40947221 14.21875 132.84765625 C15.28373682 135.28344861 16.34327675 137.72129441 17.39331055 140.16357422 C18.08638158 141.77250598 18.78897195 143.3773869 19.50317383 144.97705078 C26.1061291 160.22020057 25.87946048 176.28927926 20.21875 191.84765625 C18.41953032 195.65234762 16.44547816 199.27746877 14.21875 202.84765625 C13.22875 201.52765625 12.23875 200.20765625 11.21875 198.84765625 C11.54488281 198.24179687 11.87101562 197.6359375 12.20703125 197.01171875 C19.10490249 183.78571195 21.97039537 169.74654061 18.41015625 154.921875 C15.81437271 146.70339079 12.05344127 138.94047568 8.46069336 131.12036133 C4.34048298 122.08989391 1.62181815 113.24192843 -0.15625 103.47265625 C-3.46732972 86.20519748 -11.68258409 72.49626152 -23.78125 59.84765625 C-24.70164062 58.81511719 -24.70164062 58.81511719 -25.640625 57.76171875 C-45.94186961 35.81208249 -80.95147323 26.05836214 -109.81787109 24.70532227 C-151.32348953 23.46902485 -190.7992186 33.89539774 -221.58837891 62.74829102 C-243.88895274 84.15188788 -257.51620231 112.15725397 -258.21875 143.34765625 C-258.27457442 165.92499351 -249.55596609 187.66174763 -234.15625 204.03515625 C-219.22481216 218.20970093 -199.7964341 227.21342386 -180.02095032 232.27432251 C-178.59464284 232.63943841 -177.16958372 233.00949224 -175.7462616 233.38607788 C-163.48729438 236.59468354 -151.79413754 237.49577602 -139.15625 237.59765625 C-137.35934765 237.62591556 -135.56247093 237.6558562 -133.765625 237.6875 C-129.43754823 237.760162 -125.10977068 237.8104465 -120.78125 237.84765625 C-120.78125 238.17765625 -120.78125 238.50765625 -120.78125 238.84765625 C-131.01125 238.84765625 -141.24125 238.84765625 -151.78125 238.84765625 C-152.11125 239.83765625 -152.44125 240.82765625 -152.78125 241.84765625 C-170.80889077 239.4989122 -188.19288638 235.43090819 -204.78125 227.84765625 C-204.76964844 229.08668701 -204.75804687 230.32571777 -204.74609375 231.60229492 C-204.67093111 243.79288065 -204.86752465 255.96405158 -205.21875 268.1484375 C-205.25171173 269.2962652 -205.25171173 269.2962652 -205.28533936 270.46728134 C-205.46932899 276.83268594 -205.6610765 283.19785293 -205.85412598 289.56298828 C-206.61067231 314.28487159 -206.61067231 314.28487159 -206.90625 339.015625 C-206.91084229 340.09789871 -206.91543457 341.18017242 -206.92016602 342.29524231 C-206.91815186 343.27184311 -206.9161377 344.24844391 -206.9140625 345.25463867 C-206.91237061 346.52255501 -206.91237061 346.52255501 -206.91064453 347.81608582 C-206.90929259 349.91611833 -206.90929259 349.91611833 -205.78125 351.84765625 C-205.12125 350.52765625 -204.46125 349.20765625 -203.78125 347.84765625 C-203.12125 347.84765625 -202.46125 347.84765625 -201.78125 347.84765625 C-201.678125 347.04328125 -201.575 346.23890625 -201.46875 345.41015625 C-200.7671661 341.77467602 -199.68831281 338.49048986 -198.44921875 335.01171875 C-197.64996963 332.72588599 -197.64996963 332.72588599 -197.59375 329.72265625 C-196.27089581 325.04178757 -192.83284023 322.36769656 -188.78125 319.84765625 C-181.18102153 315.93539652 -172.71027969 316.3229412 -164.38061523 316.34667969 C-161.98363306 316.34765022 -159.58987988 316.30597582 -157.19335938 316.26171875 C-147.56711882 316.18808369 -140.52131888 317.49123015 -131.78125 321.84765625 C-117.68393077 326.46275629 -100.07308704 326.84684482 -85.78125 322.84765625 C-84.62753906 322.54085938 -83.47382813 322.2340625 -82.28515625 321.91796875 C-66.864808 317.34079271 -54.49301684 308.79667871 -44.78125 295.84765625 C-44.72517578 296.73517578 -44.72517578 296.73517578 -44.66796875 297.640625 C-44.26089502 302.53349159 -43.61039761 305.72181598 -40.78125 309.84765625 C-39.81883084 312.86821139 -39.63524675 315.66518293 -39.58837891 318.82470703 C-39.57231598 319.81318634 -39.55625305 320.80166565 -39.53970337 321.82009888 C-39.49494576 326.34327299 -39.45417349 330.8663042 -39.43115234 335.38964844 C-39.41462475 337.7676779 -39.38737744 340.14565834 -39.34912109 342.5234375 C-39.29404725 345.9677078 -39.27242904 349.410816 -39.2578125 352.85546875 C-39.23514313 353.90687042 -39.21247375 354.95827209 -39.18911743 356.04153442 C-39.20946806 363.2347978 -40.59682079 368.89037585 -44.78125 374.84765625 C-50.22022821 378.43994298 -56.00753229 378.39431752 -62.34375 378.53515625 C-63.43800293 378.56714111 -64.53225586 378.59912598 -65.65966797 378.63208008 C-69.69997654 378.73237143 -73.74009146 378.7964875 -77.78125 378.84765625 C-78.61569641 378.85861328 -79.45014282 378.86957031 -80.30987549 378.88085938 C-184.44192294 380.17528238 -184.44192294 380.17528238 -206.87109375 358.51953125 C-211.70191387 351.76231047 -212.18886786 344.60029656 -211.84643555 336.53295898 C-211.8032016 335.04798164 -211.8032016 335.04798164 -211.75909424 333.53300476 C-211.66070956 330.28172889 -211.53937824 327.03174043 -211.41796875 323.78125 C-211.34492111 321.50078504 -211.27339808 319.22027078 -211.20332336 316.93971252 C-211.01532388 310.94321979 -210.80820226 304.94754218 -210.59655762 298.95184326 C-210.3441051 291.70920476 -210.11262582 284.46587316 -209.87958241 277.22258854 C-209.69775163 271.57682369 -209.51245652 265.9312581 -209.31559753 260.28599548 C-208.93294656 249.1335952 -208.66875001 238.00720671 -208.78125 226.84765625 C-209.78982559 226.29451752 -210.79840118 225.74137878 -211.83753967 225.17147827 C-219.43675667 220.99527187 -226.17198087 216.50079241 -232.78125 210.84765625 C-233.38066406 210.39261719 -233.98007813 209.93757812 -234.59765625 209.46875 C-250.53695241 197.0797379 -258.90555595 176.27167605 -261.78125 156.84765625 C-262.72455296 141.53101834 -262.42931575 126.5382324 -257.78125 111.84765625 C-257.56694336 111.16171387 -257.35263672 110.47577148 -257.13183594 109.76904297 C-253.88327547 99.68999399 -249.21695412 90.90716312 -243.78125 81.84765625 C-243.09732499 80.52309262 -242.42164978 79.19380273 -241.78125 77.84765625 C-242.6990625 77.27917969 -243.616875 76.71070313 -244.5625 76.125 C-256.54755913 68.62514705 -268.41145777 60.86137365 -272.28125 46.28515625 C-273.83388661 36.33416704 -271.26704647 28.21160234 -265.78125 19.84765625 C-257.13984458 9.25450951 -245.32531887 0.00034502 -231.38671875 -1.5234375 C-220.80262738 -1.72907128 -213.69579574 0.79741348 -205.78125 7.84765625 C-204.16027877 9.97656881 -202.70070713 12.03283054 -201.28125 14.28515625 C-200.89396729 14.89117676 -200.50668457 15.49719727 -200.10766602 16.12158203 C-196.43855351 22.05575897 -193.97180805 28.22094294 -191.78125 34.84765625 C-187.19490181 33.33950487 -182.62411872 31.80118346 -178.08203125 30.1640625 C-161.48406437 24.27178426 -144.4489861 20.39530845 -126.78125 19.84765625 C-125.34652344 19.78771484 -125.34652344 19.78771484 -123.8828125 19.7265625 C-105.70712597 19.3294074 -88.26903222 22.1326251 -70.78125 26.84765625 C-69.54117188 27.17507812 -68.30109375 27.5025 -67.0234375 27.83984375 C-64.60314569 28.48979424 -62.18929827 29.154003 -59.78125 29.84765625 C-59.61109375 28.95304687 -59.4409375 28.0584375 -59.265625 27.13671875 C-56.61104125 13.89204024 -53.45971357 2.29429543 -41.55859375 -5.6328125 C-27.58935248 -12.86548508 -12.5584826 -8.12445694 0 0 Z " fill="#4E2901" transform="translate(369.78125,71.15234375)"/>
<path d="M0 0 C1.59141991 0.47311878 3.18250004 0.94738056 4.7734375 1.42211914 C5.65950684 1.68610001 6.54557617 1.95008087 7.45849609 2.22206116 C10.67142759 3.20551989 13.83178594 4.3190911 17 5.4375 C22.72055628 7.39245733 28.47556023 8.93307298 34.375 10.25 C35.46167969 10.49447876 35.46167969 10.49447876 36.5703125 10.74389648 C41.11319146 11.7184808 45.60796868 12.33913054 50.23681641 12.74511719 C52 13 52 13 53 14 C53.14572736 15.84037134 53.22727918 17.68590714 53.28125 19.53125 C53.33732422 21.21154297 53.33732422 21.21154297 53.39453125 22.92578125 C53.46484375 25.30859375 53.53515625 27.69140625 53.60546875 30.07421875 C53.66154297 31.75451172 53.66154297 31.75451172 53.71875 33.46875 C53.74904297 34.50451172 53.77933594 35.54027344 53.81054688 36.60742188 C53.7357549 38.95211615 53.7357549 38.95211615 55 40 C55.33 31.09 55.66 22.18 56 13 C65.24 13 74.48 13 84 13 C84 27.19 84 41.38 84 56 C82.515 56.495 82.515 56.495 81 57 C93.67080593 57.39596269 105.83972177 57.05342608 118 53 C117.814375 51.700625 117.62875 50.40125 117.4375 49.0625 C117.12109375 46.84765625 117.12109375 46.84765625 117 45 C117.33 44.67 117.66 44.34 118 44 C118.15888092 41.71011219 118.25138073 39.41556559 118.31640625 37.12109375 C118.35451416 35.86482178 118.39262207 34.6085498 118.43188477 33.31420898 C118.47498779 31.70489502 118.51809082 30.09558105 118.5625 28.4375 C118.706875 23.343125 118.85125 18.24875 119 13 C134.51 13 150.02 13 166 13 C166 27.19 166 41.38 166 56 C163.69 56 161.38 56 159 56 C159.33 56.66 159.66 57.32 160 58 C165.94 58 171.88 58 178 58 C178 85.72 178 113.44 178 142 C173.05 142 168.1 142 163 142 C163.33 140.35 163.66 138.7 164 137 C164.09644553 135.29444198 164.1477381 133.58591577 164.16113281 131.87768555 C164.17074036 130.88282639 164.1803479 129.88796722 164.19024658 128.86296082 C164.19449646 127.79830093 164.19874634 126.73364105 164.203125 125.63671875 C164.20882507 124.53076859 164.21452515 123.42481842 164.22039795 122.28535461 C164.22983228 119.94781446 164.2363757 117.61026109 164.24023438 115.27270508 C164.24993636 111.71086243 164.28097393 108.14959788 164.3125 104.58789062 C164.31903101 102.31250341 164.3242811 100.03711209 164.328125 97.76171875 C164.3466452 96.17383797 164.3466452 96.17383797 164.36553955 94.55387878 C164.38319972 85.09867401 164.38319972 85.09867401 160 77 C159.63239269 74.67182036 159.29758419 72.3381615 159 70 C158.45472656 70.64066406 157.90945313 71.28132813 157.34765625 71.94140625 C144.35476278 86.84436611 128.01403877 96.29739347 108 98 C95.18358991 98.77199202 79.80398805 99.37063343 68.14599609 92.984375 C60.96717284 89.08416542 53.49596387 89.39456038 45.54443359 89.47851562 C43.13666336 89.49989643 40.73189632 89.47868108 38.32421875 89.453125 C28.23804139 89.4352873 19.48380328 90.19491201 10.9375 96.125 C8.64611174 99.52512452 8.15896882 102.22236412 7.52734375 106.22265625 C6.62437195 110.97830773 5.03956815 115.61014823 3 120 C2.01 120.495 2.01 120.495 1 121 C0.34444881 123.52733235 0.34444881 123.52733235 0 126 C-2.61810383 122.99067501 -3.37234215 121.18836563 -3.32592773 117.21166992 C-3.32117935 116.24151443 -3.31643097 115.27135895 -3.3115387 114.27180481 C-3.28994186 113.20628891 -3.26834503 112.14077301 -3.24609375 111.04296875 C-3.23420517 109.90804489 -3.22231659 108.77312103 -3.21006775 107.60380554 C-3.16093832 103.7353185 -3.08437651 99.86783344 -3 96 C-2.98561134 95.30850105 -2.97122269 94.61700211 -2.95639801 93.90454865 C-2.73276106 83.17331291 -2.44114987 72.44437443 -2.13116455 61.71533203 C-2.03951581 58.5081962 -1.95191931 55.30095495 -1.86432838 52.09370613 C-1.38873829 34.72178099 -0.83865691 17.35895646 0 0 Z " fill="#FAFAF9" transform="translate(165,299)"/>
<path d="M0 0 C8.13667894 5.37327855 13.44682251 13.78535169 15.5625 23.2265625 C17.97362023 38.51134252 12.73627696 52.47094795 3.96484375 64.87890625 C-2.5625033 73.34028206 -10.84458013 80.50806615 -21.25 83.6875 C-25.4958227 84.16997985 -29.73197924 84.07458677 -34 84 C-34.495 82.63875 -34.495 82.63875 -35 81.25 C-37.60493346 77.01698313 -40.36618621 75.42014725 -45 74 C-46.99153736 73.748797 -48.98333903 73.49894498 -50.9777832 73.27197266 C-59.76578447 72.15885914 -59.76578447 72.15885914 -63.3671875 68.77734375 C-69.01681952 58.95130912 -68.44686233 45.8956477 -65.875 35.125 C-60.74282031 19.5374961 -51.50717879 6.73710895 -37.2578125 -1.60546875 C-24.95429635 -7.55716965 -11.80389422 -6.69197153 0 0 Z " fill="#4F2A02" transform="translate(235,160)"/>
<path d="M0 0 C10.37998008 4.39153003 17.46138756 17.28889841 23.51953125 26.36328125 C29.6572946 35.44777883 36.86039186 40.95024232 47.69140625 43.53125 C59.70770641 45.23367741 71.35771801 44.3805493 83 41 C84.60266171 40.59811674 86.20663288 40.20137723 87.8125 39.8125 C88.864375 39.544375 89.91625 39.27625 91 39 C90.505 34.545 90.505 34.545 90 30 C91.32 29.67 92.64 29.34 94 29 C95.75 30.3125 95.75 30.3125 97 32 C97 32.66 97 33.32 97 34 C97.70125 33.71125 98.4025 33.4225 99.125 33.125 C111.70536829 28.20224719 111.70536829 28.20224719 118.6875 31.125 C122.62266663 34.31567564 126.46897023 38.11440429 127.4140625 43.25 C127.75326279 47.67216674 127.72351765 50.80924686 125.37890625 54.66796875 C113.86362914 67.90745847 97.49224069 77.03300105 80 79 C48.44706496 80.66885142 24.73410668 70.98441327 1.37109375 50.16796875 C-3.18671481 45.97404656 -7.35941574 41.43438088 -11.4765625 36.8125 C-13.83860826 34.07028756 -13.83860826 34.07028756 -16.09375 32.15234375 C-18.89426497 28.99028688 -20.28429375 25.44316045 -21.875 21.5625 C-22.20757812 20.81162109 -22.54015625 20.06074219 -22.8828125 19.28710938 C-25.15915649 13.80362819 -25.15915649 13.80362819 -24.4453125 10.19921875 C-22.85234158 7.77531975 -21.22970432 6.10262197 -19 4.25 C-17.948125 3.36054688 -17.948125 3.36054688 -16.875 2.453125 C-11.96749837 -1.35018877 -5.94270545 -0.48794273 0 0 Z " fill="#4F2901" transform="translate(195,315)"/>
<path d="M0 0 C12.25634723 5.69714 18.8120322 16.30956493 23.6171875 28.625 C26.49832999 37.30552373 27.47189117 45.835818 27.5546875 54.9375 C27.56870605 55.99541748 27.56870605 55.99541748 27.58300781 57.07470703 C27.55391833 61.81741074 26.77224306 65.66992063 25.3046875 70.125 C24.34949219 70.15078125 23.39429688 70.1765625 22.41015625 70.203125 C12.71306669 70.62852075 4.72437089 71.98158363 -3.8203125 76.9375 C-6.34159371 79.87899474 -6.47604993 82.32444882 -6.6953125 86.125 C-13.64433313 84.87694973 -18.36849456 78.87172953 -22.3828125 73.4375 C-32.15073554 58.70773905 -36.48091777 40.10023998 -33.00390625 22.65625 C-30.081998 12.97360845 -24.60182631 5.23118363 -15.8359375 0.01953125 C-10.82441564 -2.0746996 -5.08969434 -1.65230657 0 0 Z " fill="#502A03" transform="translate(343.6953125,155.875)"/>
<path d="M0 0 C15.51 0 31.02 0 47 0 C47 14.19 47 28.38 47 43 C40 43 40 43 38.21484375 41.390625 C37.58255859 40.33101563 37.58255859 40.33101563 36.9375 39.25 C34.36058259 35.42531205 32.28052697 33.01436563 28 31 C21.5511186 29.93740022 15.96404217 31.6313024 10 34 C9.46375 33.34 8.9275 32.68 8.375 32 C5.75257807 29.35586425 5.75257807 29.35586425 0 30 C0 20.1 0 10.2 0 0 Z " fill="#00D3FE" transform="translate(284,312)"/>
<path d="M0 0 C2.64 0 5.28 0 8 0 C8.25045417 15.47999439 7.8113386 30.61979457 6 46 C6.56920166 45.98428955 7.13840332 45.9685791 7.72485352 45.95239258 C10.33729874 45.88951561 12.9495841 45.85084468 15.5625 45.8125 C16.45775391 45.78736328 17.35300781 45.76222656 18.27539062 45.73632812 C24.8179468 45.6644319 29.3472416 46.56482774 34.875 50.25 C37.08982474 53.69528294 37.27767159 57.18043441 36.66796875 61.17578125 C34.54896704 69.09127795 29.66495884 73.77786821 22.78515625 77.94921875 C15.05205504 82.02511851 8.82167507 83.79458123 0 86 C0 57.62 0 29.24 0 0 Z " fill="#4C2600" transform="translate(378,357)"/>
<path d="M0 0 C9.57 0 19.14 0 29 0 C29 13.53 29 27.06 29 41 C24.25237762 42.58254079 22.05152275 43.24776992 17.3828125 43.1953125 C16.00440186 43.18781982 16.00440186 43.18781982 14.59814453 43.18017578 C13.45200684 43.16196777 12.30586914 43.14375977 11.125 43.125 C7.45375 43.08375 3.7825 43.0425 0 43 C0 28.81 0 14.62 0 0 Z " fill="#FFF500" transform="translate(252,312)"/>
<path d="M0 0 C13.73260932 5.85655398 25.61763821 19.46532177 34.125 31.4375 C33.63 32.4275 33.63 32.4275 33.125 33.4375 C32.73344727 32.99994385 32.34189453 32.5623877 31.93847656 32.11157227 C17.79411591 14.96166102 17.79411591 14.96166102 -1.55078125 6.2421875 C-2.85595703 6.27699219 -2.85595703 6.27699219 -4.1875 6.3125 C-5.07050781 6.33054687 -5.95351562 6.34859375 -6.86328125 6.3671875 C-7.85908203 6.40199219 -7.85908203 6.40199219 -8.875 6.4375 C-7.91213978 13.60914851 -5.53869728 17.98715498 -0.875 23.4375 C-0.43285156 24.01113281 0.00929688 24.58476562 0.46484375 25.17578125 C4.21387331 29.90281852 8.71078963 33.50917015 13.44140625 37.2265625 C16.18081073 39.48348089 18.65484307 41.89140696 21.125 44.4375 C6.82991427 45.69608907 -2.16728163 43.75931453 -13.875 35.4375 C-14.78121094 34.81875 -15.68742188 34.2 -16.62109375 33.5625 C-22.08430831 29.5825528 -27.81108573 24.56532853 -30.875 18.4375 C-31.35466313 13.11402557 -31.79362037 8.16874608 -29.25 3.375 C-20.87414113 -3.4579375 -9.9868616 -3.26791522 0 0 Z " fill="#F7ED00" transform="translate(259.875,264.5625)"/>
<path d="M0 0 C0.69931641 -0.020625 1.39863281 -0.04125 2.11914062 -0.0625 C8.54054728 -0.11055543 12.37315075 1.59342025 17.0625 5.875 C19.82187386 10.25753495 20.07314548 13.21127914 19.1875 18.25 C16.11475402 29.46659722 4.63901423 35.91325626 -4.734375 41.5234375 C-5.75015625 42.09320313 -6.7659375 42.66296875 -7.8125 43.25 C-8.72773438 43.81589844 -9.64296875 44.38179688 -10.5859375 44.96484375 C-15.02443358 46.73271931 -18.96245445 46.57626263 -23.6875 46.4375 C-24.56664062 46.42396484 -25.44578125 46.41042969 -26.3515625 46.39648438 C-28.50547552 46.36136623 -30.65907004 46.30756694 -32.8125 46.25 C-29.9509018 43.27526884 -26.94020084 40.72422733 -23.6875 38.1875 C-15.94366634 31.89498724 -7.8322068 24.56841122 -3.8125 15.25 C-3.39259927 11.99723247 -3.39259927 11.99723247 -3.8125 9.25 C-5.0391948 7.81970405 -5.0391948 7.81970405 -8.6875 7.75 C-21.75037831 8.09807043 -31.64646049 21.70058576 -39.98339844 30.35644531 C-42.23146637 32.68372974 -44.51555168 34.97106696 -46.8125 37.25 C-39.72293424 22.16729637 -25.84674145 8.29503102 -10.8125 1.25 C-7.17206737 0.03652246 -3.79194814 0.0275028 0 0 Z " fill="#FAF000" transform="translate(360.8125,261.75)"/>
<path d="M0 0 C0 27.72 0 55.44 0 84 C-4.95 84 -9.9 84 -15 84 C-14.67 82.35 -14.34 80.7 -14 79 C-13.90355447 77.29444198 -13.8522619 75.58591577 -13.83886719 73.87768555 C-13.82445587 72.3853968 -13.82445587 72.3853968 -13.80975342 70.86296082 C-13.80550354 69.79830093 -13.80125366 68.73364105 -13.796875 67.63671875 C-13.79117493 66.53076859 -13.78547485 65.42481842 -13.77960205 64.28535461 C-13.77016772 61.94781446 -13.7636243 59.61026109 -13.75976562 57.27270508 C-13.75006364 53.71086243 -13.71902607 50.14959788 -13.6875 46.58789062 C-13.68096899 44.31250341 -13.6757189 42.03711209 -13.671875 39.76171875 C-13.6595282 38.70313156 -13.6471814 37.64454437 -13.63446045 36.55387878 C-13.61680028 27.09867401 -13.61680028 27.09867401 -18 19 C-18.08631874 17.65732587 -18.10706473 16.31025678 -18.09765625 14.96484375 C-18.09443359 14.15595703 -18.09121094 13.34707031 -18.08789062 12.51367188 C-18.07951172 11.66353516 -18.07113281 10.81339844 -18.0625 9.9375 C-18.05798828 9.08349609 -18.05347656 8.22949219 -18.04882812 7.34960938 C-18.03700373 5.23304337 -18.01906769 3.11651315 -18 1 C-11.81546408 0.08377246 -6.38333296 0 0 0 Z " fill="#00D1FB" transform="translate(343,357)"/>
<path d="M0 0 C4.62 0 9.24 0 14 0 C14 27.72 14 55.44 14 84 C9.38 84 4.76 84 0 84 C0 56.28 0 28.56 0 0 Z " fill="#00CAF3" transform="translate(362,357)"/>
<path d="M0 0 C9.24 0 18.48 0 28 0 C28 14.19 28 28.38 28 43 C13.06849315 43 13.06849315 43 6 37 C5.46906738 36.59273682 4.93813477 36.18547363 4.39111328 35.76586914 C1.29051256 32.92890629 0.11785705 30.83422764 -0.47705078 26.62329102 C-0.59067617 22.58551342 -0.52471459 18.59679031 -0.375 14.5625 C-0.34486312 13.14914534 -0.31749385 11.7357288 -0.29296875 10.32226562 C-0.23237854 6.87872218 -0.11500821 3.44385681 0 0 Z " fill="#00D3FE" transform="translate(221,312)"/>
<path d="M0 0 C4.29 0 8.58 0 13 0 C13 27.39 13 54.78 13 83 C8.71 83 4.42 83 0 83 C0 55.61 0 28.22 0 0 Z " fill="#FEF400" transform="translate(346,358)"/>
<path d="M0 0 C4.6826087 3.36521739 4.6826087 3.36521739 6 6 C6.39698344 9.57285098 6.29905341 11.47665653 4.5 14.625 C-3.53226851 22.25565508 -13.48077118 22.38716214 -24.015625 22.2109375 C-33.09059813 21.73049775 -39.16614548 18.89849454 -46 13 C-45.75858867 5.87836583 -45.75858867 5.87836583 -42.625 2.25 C-30.01029101 -6.54749208 -13.68898084 -6.17720027 0 0 Z " fill="#FDA9CA" transform="translate(382,230)"/>
<path d="M0 0 C2.64611876 2.40040774 3.10679128 3.25799649 3.5 6.796875 C3.09952797 10.8816897 2.15550014 12.16477486 -0.8125 14.984375 C-10.50934154 21.13258517 -22.72804063 21.21848393 -33.83203125 19.5234375 C-39.37268597 18.07656914 -44.36538818 15.70901069 -47.8125 10.984375 C-48.62220326 6.78863991 -48.35598955 4.90412655 -46.1875 1.234375 C-34.79312731 -9.56029386 -12.25139169 -8.78016404 0 0 Z " fill="#FEAACB" transform="translate(197.8125,237.015625)"/>
<path d="M0 0 C6.6 0 13.2 0 20 0 C20 14.52 20 29.04 20 44 C13.4 44 6.8 44 0 44 C0 29.48 0 14.96 0 0 Z " fill="#00CFFA" transform="translate(334,311)"/>
<path d="M0 0 C4.39712797 1.38856673 6.33670486 3.23369608 8.5625 7.125 C13.17975128 16.34441351 14.25587825 26.15782351 11.375 36.125 C9.84135412 40.01644726 8.00882924 42.64043706 4.5625 45.125 C1.625 45.875 1.625 45.875 -1.4375 45.125 C-6.76396376 40.83280105 -9.8502076 34.66632526 -10.72241211 27.921875 C-10.8379255 25.64837283 -10.84745508 23.40096395 -10.8125 21.125 C-10.82410156 20.36960938 -10.83570313 19.61421875 -10.84765625 18.8359375 C-10.81425377 12.3558555 -9.39752386 6.99503494 -5.6875 1.5625 C-3.4375 0.125 -3.4375 0.125 0 0 Z " fill="#FBFAF9" transform="translate(329.4375,177.875)"/>
<path d="M0 0 C3.77704426 0.74191941 5.11141359 1.76297555 7.45703125 4.7890625 C11.96116265 12.98759382 11.9090678 23.36564889 9.5546875 32.2578125 C7.3865476 37.80770519 5.51588185 41.27077177 0.5 44.6875 C-2.5 45.3125 -2.5 45.3125 -5.5 44.6875 C-10.42551696 39.98587017 -12.25247107 35.60028227 -12.8359375 28.734375 C-13.04621148 18.68304621 -12.34458673 10.88288747 -6.1875 2.5625 C-3.5 0.6875 -3.5 0.6875 0 0 Z " fill="#FCFBFA" transform="translate(213.5,178.3125)"/>
<path d="M0 0 C4.66658693 2.6409285 8.35263793 6.64277586 10.75 11.4375 C12.18567813 24.57042451 6.89644695 36.94094098 -0.7109375 47.45703125 C-1.82867998 48.83644177 -3.02993058 50.14771232 -4.25 51.4375 C-4.58 51.4375 -4.91 51.4375 -5.25 51.4375 C-5.745 30.6475 -5.745 30.6475 -6.25 9.4375 C-12.52 9.1075 -18.79 8.7775 -25.25 8.4375 C-19.54361106 -1.07314824 -10.50771587 -4.73758288 0 0 Z " fill="#4D2700" transform="translate(397.25,299.5625)"/>
<path d="M0 0 C5.28 0 10.56 0 16 0 C16 14.19 16 28.38 16 43 C10.72 43 5.44 43 0 43 C0 28.81 0 14.62 0 0 Z " fill="#00D2FD" transform="translate(373,311)"/>
<path d="M0 0 C0.763125 0.721875 1.52625 1.44375 2.3125 2.1875 C3.199375 2.785625 4.08625 3.38375 5 4 C8.50716645 2.89940764 8.50716645 2.89940764 10.8203125 1.82421875 C14.5444764 0.41597756 18.09381272 0.35380917 22 1 C27.56301829 3.78150915 31.19989162 7.91409993 34.3125 13.25 C35.57468103 18.2987241 36.31552366 23.38767899 33.90234375 28.1796875 C32.38416318 30.260607 30.76295009 32.12293038 29 34 C28.505 34.58394531 28.01 35.16789062 27.5 35.76953125 C15.97097662 48.53792464 -2.46169276 55.14210683 -19.32104492 56.13696289 C-33.49361653 56.72155858 -46.82345091 55.62537288 -60 50 C-59.34 49.34 -58.68 48.68 -58 48 C-54.96439299 48.58753684 -52.00012876 49.2643702 -49 50 C-26.8824838 55.20820633 -4.28900696 52.82131302 15.1875 41.078125 C25.70892296 33.91228679 25.70892296 33.91228679 31.62890625 23.1953125 C31.87457252 17.34687032 30.94438846 13.50787252 27 9 C26.484375 8.401875 25.96875 7.80375 25.4375 7.1875 C22.38404067 4.66507707 18.93609487 4.73760224 15.125 4.765625 C11.73682365 5.13932092 9.08396197 6.57663293 6 8 C4.68 8 3.36 8 2 8 C0.9739266 6.68662604 -0.02727325 5.35335895 -1 4 C-1.99 4 -2.98 4 -4 4 C-4 6.97 -4 9.94 -4 13 C-19.65253004 19.99440605 -38.66431311 22.16718067 -55 16 C-54.34 15.34 -53.68 14.68 -53 14 C-51.01993473 14.21214985 -49.04077557 14.43544366 -47.06640625 14.6953125 C-33.61356765 16.03202767 -19.89466106 15.29822035 -7 11 C-7.226875 9.741875 -7.45375 8.48375 -7.6875 7.1875 C-8.16341493 3.29051543 -8.16341493 3.29051543 -6.875 1 C-4.29383227 -0.37662279 -2.89619274 -0.48269879 0 0 Z " fill="#EEECE8" transform="translate(290,341)"/>
<path d="M0 0 C12.17635445 0.22548805 21.34008464 10.1921371 29.42871094 18.46044922 C44 33.68526786 44 33.68526786 44 37 C38.34818016 37.91651133 33.81507135 38.02138423 28.73046875 35.16015625 C25.29848558 32.65719329 22.14929401 29.84449309 19 27 C17.90875464 26.05459973 16.81631551 25.11057552 15.72265625 24.16796875 C10.13258654 19.27303282 5.09485954 14.24539728 1 8 C0.34 7.01 -0.32 6.02 -1 5 C-0.625 2.3125 -0.625 2.3125 0 0 Z " fill="#F7F7F7" transform="translate(254,272)"/>
<path d="M0 0 C4.29 0 8.58 0 13 0 C13 14.52 13 29.04 13 44 C8.71 44 4.42 44 0 44 C0 29.48 0 14.96 0 0 Z " fill="#F8EE00" transform="translate(357,311)"/>
<path d="M0 0 C-0.36536934 5.80937248 -2.04485803 9.09654621 -5.875 13.3125 C-6.37185303 13.869375 -6.86870605 14.42625 -7.38061523 15 C-8.40953632 16.13670663 -9.44758744 17.26521608 -10.49462891 18.38525391 C-11.87072893 19.86133655 -13.20901247 21.37244272 -14.54296875 22.88671875 C-22.04134531 30.66410467 -30.59163603 33.20919702 -41 35 C-41.66 34.67 -42.32 34.34 -43 34 C-36.93853138 26.50021679 -30.59149338 19.36166403 -23.8125 12.5 C-23.16023438 11.83033203 -22.50796875 11.16066406 -21.8359375 10.47070312 C-15.16345398 3.80493237 -9.72194241 -0.86803057 0 0 Z " fill="#F9F9F9" transform="translate(355,272)"/>
<path d="M0 0 C2.475 0.495 2.475 0.495 5 1 C3.96653471 10.13800886 -1.75760837 18.41080884 -8 25 C-11.72226404 27.48150936 -14.68643777 27.63751304 -19 27 C-21.46197428 25.76901286 -22.95751453 24.7601142 -25 23 C-25.78632813 22.33226562 -26.57265625 21.66453125 -27.3828125 20.9765625 C-32.3285005 16.6509309 -37.18180763 12.36610819 -41 7 C-40.875 4.0625 -40.875 4.0625 -40 2 C-36.69010924 2.30776177 -35.24855079 2.76681896 -32.7890625 5.07421875 C-32.07492187 5.93660156 -31.36078125 6.79898438 -30.625 7.6875 C-24.25979003 15.48548711 -24.25979003 15.48548711 -15.5625 19.875 C-14.716875 19.91625 -13.87125 19.9575 -13 20 C-7.77226978 13.73600373 -3.70626694 7.26319712 0 0 Z " fill="#55310B" transform="translate(303,234)"/>
<path d="M0 0 C2.31284456 0.14026283 4.62527591 0.28735558 6.9375 0.4375 C8.86916016 0.55931641 8.86916016 0.55931641 10.83984375 0.68359375 C14 1 14 1 15 2 C15.08713831 3.70772358 15.10700007 5.41898649 15.09765625 7.12890625 C15.09443359 8.16337891 15.09121094 9.19785156 15.08789062 10.26367188 C15.07951172 11.35228516 15.07113281 12.44089844 15.0625 13.5625 C15.05798828 14.65498047 15.05347656 15.74746094 15.04882812 16.87304688 C15.03699826 19.58208495 15.02051543 22.29101599 15 25 C11.74218562 21.81500029 8.98079402 18.48115877 6.375 14.75 C5.97547119 14.17805908 5.57594238 13.60611816 5.16430664 13.0168457 C2.24873656 8.69497766 0.70426888 5.13110187 0 0 Z " fill="#FAA7C8" transform="translate(203,311)"/>
<path d="M0 0 C2 2 2 2 2.5 4.5625 C1.77767733 9.52846833 -0.60964712 13.32282768 -4 17 C-6.70703125 18.265625 -6.70703125 18.265625 -9 19 C-7.49303906 15.57508876 -5.41116597 12.80775233 -3.12109375 9.87890625 C-1.7743786 7.62186797 -1.3941493 5.58189937 -1 3 C-13.43136045 4.27168405 -20.19206734 11.86543026 -28.39575195 20.5559082 C-31.39158445 23.66960348 -33.73358241 25.75957859 -38 27 C-32.34172374 14.35813255 -14.41164715 -2.05880674 0 0 Z " fill="#17170E" transform="translate(356,269)"/>
<path d="M0 0 C2.1875 -0.25 2.1875 -0.25 5 0 C5.763125 0.721875 6.52625 1.44375 7.3125 2.1875 C8.199375 2.785625 9.08625 3.38375 10 4 C13.50716645 2.89940764 13.50716645 2.89940764 15.8203125 1.82421875 C19.5444764 0.41597756 23.09381272 0.35380917 27 1 C32.57058972 3.78529486 36.31368987 7.94858167 39.3125 13.375 C40.26300238 17.00419092 40.12703888 20.25235316 40 24 C39.34 24 38.68 24 38 24 C37.85304688 23.12988281 37.85304688 23.12988281 37.703125 22.2421875 C36.45723598 15.73349142 34.26275019 10.34748929 29 6 C22.07089824 3.69029941 17.31484621 5.0854556 11 8 C9.68 8 8.36 8 7 8 C5.95884159 6.69855198 4.96113866 5.36161311 4 4 C1.91665365 2.7483533 1.91665365 2.7483533 0 2 C0 1.34 0 0.68 0 0 Z " fill="#EDF5F6" transform="translate(285,341)"/>
<path d="M0 0 C0.33 0 0.66 0 1 0 C1 14.19 1 28.38 1 43 C7.6 43 14.2 43 21 43 C21 43.33 21 43.66 21 44 C15.21512232 44.82546771 9.59074802 45.18263271 3.75 45.1875 C2.96109375 45.19974609 2.1721875 45.21199219 1.359375 45.22460938 C-5.70272256 45.2425032 -5.70272256 45.2425032 -9 43 C-6.69 43 -4.38 43 -2 43 C-2 34.75 -2 26.5 -2 18 C-1.67 18 -1.34 18 -1 18 C-0.505 9.09 -0.505 9.09 0 0 Z " fill="#1B210E" transform="translate(251,312)"/>
<path d="M0 0 C0.77085937 -0.01417969 1.54171875 -0.02835938 2.3359375 -0.04296875 C4.84334888 0.20948393 6.45761902 0.93556533 8.625 2.1875 C7.37906918 6.02912002 6.29108297 8.3020859 2.625 10.1875 C-1.77210202 10.07475379 -4.16158035 8.03367169 -7.375 5.1875 C-7 3.25 -7 3.25 -6.375 1.1875 C-4.04904054 0.02452027 -2.58776769 0.02149309 0 0 Z " fill="#59350F" transform="translate(286.375,220.8125)"/>
<path d="M0 0 C0 0.99 0 1.98 0 3 C-1.80984375 2.91298828 -1.80984375 2.91298828 -3.65625 2.82421875 C-15.76223275 2.20242785 -15.76223275 2.20242785 -26 8 C-27.21693876 10.43387753 -27.31959896 12.41838846 -27.5625 15.125 C-27.64628906 16.03507812 -27.73007813 16.94515625 -27.81640625 17.8828125 C-27.87699219 18.58148438 -27.93757812 19.28015625 -28 20 C-28.33 20 -28.66 20 -29 20 C-29.144375 18.906875 -29.28875 17.81375 -29.4375 16.6875 C-29.88288104 13.06877013 -29.88288104 13.06877013 -31 10 C-28.59660226 4.73541448 -25.20316536 2.32378926 -20.00390625 -0.09375 C-13.68560963 -1.99992011 -6.27818224 -2.09272741 0 0 Z " fill="#201F11" transform="translate(257,261)"/>
<path d="M0 0 C2.12041719 0.41040333 4.23871074 0.83948439 6.3359375 1.35546875 C16.79696114 3.88636157 27.29235597 4.51790228 38 5 C38 5.33 38 5.66 38 6 C34.04 6 30.08 6 26 6 C26 6.66 26 7.32 26 8 C16.27633411 7.44490884 7.01356837 5.78569871 -2 2 C-1.34 1.34 -0.68 0.68 0 0 Z " fill="#DFD8D1" transform="translate(232,389)"/>
<path d="M0 0 C9.28563887 -0.38749961 17.38722663 -0.63133222 24.9375 5.3125 C27.19412093 8.25294546 28.31664836 10.35545791 29 14 C28.125 16.875 28.125 16.875 27 19 C26.67 19 26.34 19 26 19 C25.92523438 18.40832031 25.85046875 17.81664062 25.7734375 17.20703125 C24.99546858 12.53159058 24.18580411 8.87831 20.12890625 5.9296875 C15.38336762 3.85732384 10.10959533 3.50792713 5 3 C5 2.67 5 2.34 5 2 C3.35 1.67 1.7 1.34 0 1 C0 0.67 0 0.34 0 0 Z " fill="#1D1C11" transform="translate(354,259)"/>
<path d="M0 0 C0.66 0.33 1.32 0.66 2 1 C0.67909475 2.67653359 -0.65807132 4.34024611 -2 6 C-2.60134766 6.74443359 -2.60134766 6.74443359 -3.21484375 7.50390625 C-8.09333183 13.37223249 -13.57419546 18.64527587 -19 24 C-20.66920349 25.6641538 -22.33482381 27.33181264 -24 29 C-18.54481062 17.394352 -9.0928482 8.74803514 0 0 Z " fill="#E0D700" transform="translate(338,270)"/>
<path d="M0 0 C2.1875 -0.25 2.1875 -0.25 5 0 C5.763125 0.721875 6.52625 1.44375 7.3125 2.1875 C8.199375 2.785625 9.08625 3.38375 10 4 C12.23656402 3.50786804 14.08064153 2.70933403 16.1328125 1.69921875 C18 1 18 1 21 2 C21.99 2.66 22.98 3.32 24 4 C22.10454608 4.48066535 20.20861961 4.95946743 18.3125 5.4375 C16.72888672 5.83775391 16.72888672 5.83775391 15.11328125 6.24609375 C12.4171683 6.89897932 9.7242424 7.47941193 7 8 C6.5875 7.38125 6.175 6.7625 5.75 6.125 C3.94426121 3.93231719 2.5909466 3.07211583 0 2 C0 1.34 0 0.68 0 0 Z " fill="#E9F3F3" transform="translate(285,341)"/>
<path d="M0 0 C0.33 0 0.66 0 1 0 C1 1.98 1 3.96 1 6 C1.66 6 2.32 6 3 6 C0.84302314 13.66925106 -5.92804917 19.26091642 -12 24 C-12 19.90550719 -10.39563083 18.93669388 -7.625 16 C-2.44303046 10.69061185 -2.44303046 10.69061185 -0.375 3.8125 C-0.25125 2.554375 -0.1275 1.29625 0 0 Z " fill="#F3F4F2" transform="translate(322,359)"/>
<path d="M0 0 C0 0.66 0 1.32 0 2 C-5.79799884 6.0333905 -10.01370081 6.50604984 -17 6 C-17 5.34 -17 4.68 -17 4 C-14.5424552 3.33030409 -12.08405076 2.6641232 -9.625 2 C-8.57699219 1.71382813 -8.57699219 1.71382813 -7.5078125 1.421875 C-2.2265625 0 -2.2265625 0 0 0 Z " fill="#52300C" transform="translate(328,303)"/>
<path d="M0 0 C1.15242188 0.01804687 2.30484375 0.03609375 3.4921875 0.0546875 C4.36101562 0.07789063 5.22984375 0.10109375 6.125 0.125 C6.125 0.455 6.125 0.785 6.125 1.125 C5.08859375 1.31835938 4.0521875 1.51171875 2.984375 1.7109375 C1.61452391 1.97364867 0.24473548 2.23668671 -1.125 2.5 C-2.14787109 2.68949219 -2.14787109 2.68949219 -3.19140625 2.8828125 C-6.03507382 3.43498096 -8.57727642 3.97411288 -11.171875 5.2890625 C-12.875 6.125 -12.875 6.125 -15.875 5.125 C-11.78752765 0.12920046 -6.07797798 -0.12404037 0 0 Z " fill="#090805" transform="translate(358.875,259.875)"/>
<path d="M0 0 C0 0.66 0 1.32 0 2 C-4.28297531 3.05619003 -8.42985646 3.11702092 -12.8125 3.0625 C-13.50537109 3.05798828 -14.19824219 3.05347656 -14.91210938 3.04882812 C-16.60811068 3.03713156 -18.30406703 3.01919924 -20 3 C-20 2.34 -20 1.68 -20 1 C-13.31184516 0.37577221 -6.71884955 -0.12920865 0 0 Z " fill="#FBFAF9" transform="translate(278,394)"/>
<path d="M0 0 C0.73992187 0.10699219 1.47984375 0.21398437 2.2421875 0.32421875 C3.03753906 0.4325 3.83289063 0.54078125 4.65234375 0.65234375 C5.46574219 0.7709375 6.27914062 0.88953125 7.1171875 1.01171875 C8.63766391 1.20209141 10.15847391 1.38982922 11.6796875 1.57421875 C13.38125 1.79078125 13.38125 1.79078125 15.1171875 2.01171875 C14.7871875 2.67171875 14.4571875 3.33171875 14.1171875 4.01171875 C7.71365428 4.24791465 2.27089589 3.83503975 -3.8828125 2.01171875 C-1.8828125 0.01171875 -1.8828125 0.01171875 0 0 Z " fill="#EDEDEC" transform="translate(238.8828125,354.98828125)"/>
<path d="M0 0 C0.33 0.99 0.66 1.98 1 3 C0.34 3.66 -0.32 4.32 -1 5 C-1.474375 6.155 -1.94875 7.31 -2.4375 8.5 C-4 12 -4 12 -7 14 C-7 8.54083952 -6.3264857 6.46699509 -3 2 C-2.01 1.34 -1.02 0.68 0 0 Z " fill="#18170D" transform="translate(316,292)"/>
<path d="M0 0 C1.98828125 0.20703125 1.98828125 0.20703125 4.3125 0.8125 C5.51132813 1.11220703 5.51132813 1.11220703 6.734375 1.41796875 C7.48203125 1.61003906 8.2296875 1.80210937 9 2 C10.66534667 2.33986667 12.33129513 2.67702486 14 3 C13.01 3.495 13.01 3.495 12 4 C11.67 4.66 11.34 5.32 11 6 C6.71 4.68 2.42 3.36 -2 2 C-1.34 1.34 -0.68 0.68 0 0 Z " fill="#EBE6E2" transform="translate(232,389)"/>
<path d="M0 0 C0.66 0.33 1.32 0.66 2 1 C0.53403275 4.9429464 -1.37308275 6.01834588 -5.125 7.75 C-6.49011719 8.39195312 -6.49011719 8.39195312 -7.8828125 9.046875 C-8.58148438 9.36140625 -9.28015625 9.6759375 -10 10 C-9.65514457 7.1157546 -9.21744593 6.1792182 -6.93359375 4.296875 C-6.10988281 3.78640625 -5.28617187 3.2759375 -4.4375 2.75 C-3.61121094 2.22921875 -2.78492188 1.7084375 -1.93359375 1.171875 C-1.29550781 0.78515625 -0.65742188 0.3984375 0 0 Z " fill="#F4F1EF" transform="translate(309,379)"/>
<path d="M0 0 C0.66 0.33 1.32 0.66 2 1 C1.5359375 1.928125 1.5359375 1.928125 1.0625 2.875 C-0.4039278 7.18802294 -0.66619026 11.4759996 -1 16 C-1.33 16 -1.66 16 -2 16 C-2.144375 14.906875 -2.28875 13.81375 -2.4375 12.6875 C-2.88288104 9.06877013 -2.88288104 9.06877013 -4 6 C-2.0625 2.8125 -2.0625 2.8125 0 0 Z " fill="#312F10" transform="translate(230,265)"/>
<path d="M0 0 C-1.40345869 2.80691738 -3.04109067 2.96959375 -5.9375 4.0625 C-9.52024761 5.41423906 -9.52024761 5.41423906 -13 7 C-11.55813953 2.43410853 -11.55813953 2.43410853 -9.3125 0.6875 C-6.16643337 -0.2478171 -3.26075491 -0.12541365 0 0 Z " fill="#0D0D07" transform="translate(244,261)"/>
<path d="M0 0 C1.4540625 0.0309375 1.4540625 0.0309375 2.9375 0.0625 C2.9375 0.3925 2.9375 0.7225 2.9375 1.0625 C4.5875 1.3925 6.2375 1.7225 7.9375 2.0625 C7.9375 2.3925 7.9375 2.7225 7.9375 3.0625 C1.6675 3.0625 -4.6025 3.0625 -11.0625 3.0625 C-11.0625 2.7325 -11.0625 2.4025 -11.0625 2.0625 C-9.928125 1.918125 -8.79375 1.77375 -7.625 1.625 C-3.97252634 1.04829363 -3.54680005 0.07238367 0 0 Z " fill="#D9D2CB" transform="translate(257.0625,356.9375)"/>
<path d="M0 0 C0 4.38968456 -2.12805101 5.76905739 -5 9 C-5.66 8.67 -6.32 8.34 -7 8 C-5.50902342 4.2047869 -3.24299151 2.38957269 0 0 Z " fill="#0F0E0A" transform="translate(321,293)"/>
<path d="M0 0 C0.33 0 0.66 0 1 0 C1 1.98 1 3.96 1 6 C1.66 6 2.32 6 3 6 C2.34 7.65 1.68 9.3 1 11 C0.01 11 -0.98 11 -2 11 C-1.34 7.37 -0.68 3.74 0 0 Z " fill="#D7D2CB" transform="translate(322,359)"/>
<path d="M0 0 C0.99 0.66 1.98 1.32 3 2 C-1.455 2.495 -1.455 2.495 -6 3 C-6.33 2.01 -6.66 1.02 -7 0 C-3.98968256 -0.93423645 -3.13349732 -1.04449911 0 0 Z " fill="#E0E5E3" transform="translate(306,343)"/>
<path d="M0 0 C2.0625 0.6875 2.0625 0.6875 5.0625 2.6875 C1.7625 3.0175 -1.5375 3.3475 -4.9375 3.6875 C-4.6075 2.6975 -4.2775 1.7075 -3.9375 0.6875 C-1.9375 -0.3125 -1.9375 -0.3125 0 0 Z " fill="#2B2B1B" transform="translate(348.9375,269.3125)"/>
<path d="M0 0 C0.33 0 0.66 0 1 0 C1 2.64 1 5.28 1 8 C-0.65 7.67 -2.3 7.34 -4 7 C-2.68 4.69 -1.36 2.38 0 0 Z " fill="#0C333A" transform="translate(324,367)"/>
<path d="M0 0 C0.66 0.33 1.32 0.66 2 1 C0.02 3.97 0.02 3.97 -2 7 C-2.99 6.67 -3.98 6.34 -5 6 C-3.35 4.02 -1.7 2.04 0 0 Z " fill="#1A1A0F" transform="translate(336,297)"/>
<path d="M0 0 C0.33 0.99 0.66 1.98 1 3 C-0.98 4.32 -2.96 5.64 -5 7 C-5 6.01 -5 5.02 -5 4 C-2.5 1.8125 -2.5 1.8125 0 0 Z " fill="#1E1D14" transform="translate(353,281)"/>
<path d="M0 0 C2.625 0.375 2.625 0.375 5 1 C5 2.32 5 3.64 5 5 C2.69 4.01 0.38 3.02 -2 2 C-1.34 1.34 -0.68 0.68 0 0 Z " fill="#1C1B11" transform="translate(261,271)"/>
<path d="M0 0 C-1.3125 1.5 -1.3125 1.5 -3 3 C-3.99 3 -4.98 3 -6 3 C-6 2.34 -6 1.68 -6 1 C-6.99 0.67 -7.98 0.34 -9 0 C-2.25 -1.125 -2.25 -1.125 0 0 Z " fill="#E6E0DB" transform="translate(284,393)"/>
<path d="M0 0 C-1.24976756 3.65316671 -1.67098753 4.78065836 -5 7 C-5 5 -5 3 -5 1 C-3 0 -3 0 0 0 Z " fill="#464407" transform="translate(314,299)"/>
</svg>
