<?xml version="1.0" encoding="UTF-8"?>
<svg version="1.1" xmlns="http://www.w3.org/2000/svg" width="512" height="512">
<path d="M0 0 C6.85167002 6.89059996 10.31352038 12.17842934 11.0234375 21.97265625 C10.90950831 36.68850934 2.34849919 48.01788033 -6.51171875 58.93359375 C-8.39673459 61.25657246 -10.22950295 63.58999231 -12 66 C-11.56429688 66.55945313 -11.12859375 67.11890625 -10.6796875 67.6953125 C-1.24639215 80.39554996 2.48388527 94.3020425 5.74609375 109.46875 C7.74703421 117.97035349 10.89198776 125.50022692 14.5 133.4375 C23.39762158 153.10261796 26.87244887 170.10258495 20 191 C12.5004189 209.76100995 -4.54706377 220.60077444 -22 229 C-22.66 229 -23.32 229 -24 229 C-23.68772461 229.48766846 -23.37544922 229.97533691 -23.05371094 230.4777832 C-12.23649668 247.47426105 -12.23649668 247.47426105 -9.78125 255.640625 C-7.86562094 261.42582475 -4.88671594 265.54555926 -0.6875 269.875 C3.5642005 274.37324715 7.40476289 278.94723434 11 284 C12.19496094 282.66195312 12.19496094 282.66195312 13.4140625 281.296875 C14.4840341 280.11427481 15.55436582 278.93200038 16.625 277.75 C17.14707031 277.16347656 17.66914063 276.57695312 18.20703125 275.97265625 C21.95740596 271.85187416 25.74259431 267.78720638 31.34375 266.43359375 C35.98361741 266.44199931 39.30461897 266.86711897 42.77734375 270.33984375 C47.36539058 276.56961979 47.39209691 283.22586319 46.5625 290.68359375 C43.57054794 308.32364442 33.74159113 324.94488492 19.55859375 335.8828125 C14.31441609 339.26303751 10.2092099 340.50895163 4 340 C-2.04569886 337.8840054 -7.04250986 333.95544426 -12 330 C-12.32871094 330.50789063 -12.65742188 331.01578125 -12.99609375 331.5390625 C-19.54084078 341.01032243 -29.02786119 346.29099095 -40.20703125 348.6875 C-50.2270086 350.36721681 -58.62324439 350.13667803 -68.59765625 348.42578125 C-72.04176656 347.99477319 -75.22443783 348.03657738 -78.6875 348.1875 C-86.35447354 348.3265624 -91.97660344 345.73545403 -97.625 340.625 C-101.08743733 338.25596393 -104.07825205 339.27356961 -108 340 C-111.5177324 340.7647844 -115.0086402 341.62340321 -118.5 342.5 C-134.84579068 346.6040364 -153.99928267 349.54026859 -169.375 340.75 C-178.57216314 334.3196183 -182.29286958 325.60160448 -184.24224377 314.79524136 C-184.9359731 310.67040984 -185.57120668 306.53760874 -186.19921875 302.40234375 C-186.48159382 300.59958346 -186.76496208 298.79697848 -187.04927063 296.99452209 C-187.79100856 292.27323915 -188.51823788 287.54983052 -189.24267578 282.8258667 C-189.83476186 278.98128799 -190.43717582 275.13836187 -191.04014874 271.29547787 C-191.76325797 266.68579851 -192.4819497 262.07543509 -193.19921875 257.46484375 C-193.33444128 256.59599989 -193.46966381 255.72715603 -193.60898399 254.83198357 C-193.99383586 252.35179989 -194.37574761 249.87118275 -194.7565918 247.39038086 C-194.86827194 246.67168823 -194.97995209 245.95299561 -195.09501648 245.21252441 C-195.86708369 240.15346214 -196.45943795 235.08909626 -197 230 C-198.00160156 229.86464844 -198.00160156 229.86464844 -199.0234375 229.7265625 C-202.83281226 228.79671512 -206.15331196 227.14774179 -209.625 225.375 C-210.33503174 225.0130957 -211.04506348 224.65119141 -211.77661133 224.27832031 C-228.40278562 215.68954165 -241.26881391 205.06872325 -251 189 C-251.48984375 188.19304687 -251.9796875 187.38609375 -252.484375 186.5546875 C-263.45465226 166.57794804 -265.46944117 139.44542412 -260.1015625 117.59765625 C-255.72014297 103.2881265 -250.32735274 90.49102911 -242 78 C-242.60585937 77.5875 -243.21171875 77.175 -243.8359375 76.75 C-269.40816079 59.12483687 -269.40816079 59.12483687 -272.5703125 44.33203125 C-273.85004702 34.67956554 -271.35162651 26.99809769 -265.71875 19.15625 C-257.97559829 9.44211422 -247.2656516 1.01261618 -235 -2 C-226.13115522 -2.94258254 -218.7396457 -2.51579352 -211.50390625 2.8515625 C-201.16196303 11.54924431 -196.42586038 22.96036898 -191 35 C-189.86046875 34.48050781 -188.7209375 33.96101563 -187.546875 33.42578125 C-179.05670835 29.64935222 -170.6594134 26.35385034 -161.625 24.125 C-160.85510742 23.93462158 -160.08521484 23.74424316 -159.29199219 23.5480957 C-156.86886117 22.98268143 -154.44172787 22.47878382 -152 22 C-151.06406006 21.81381104 -150.12812012 21.62762207 -149.16381836 21.43579102 C-140.35385719 19.87406621 -131.69148342 19.66038671 -122.77270508 19.68432617 C-120.33303524 19.68747351 -117.89459816 19.66397861 -115.45507812 19.63867188 C-101.02556061 19.57989528 -87.03977464 21.43157708 -73.1875 25.5625 C-72.08438477 25.87477539 -72.08438477 25.87477539 -70.95898438 26.19335938 C-67.21554828 27.27014577 -63.58375307 28.47215242 -60 30 C-59.82984375 29.03320312 -59.6596875 28.06640625 -59.484375 27.0703125 C-57.10811439 14.05785577 -54.2032972 4.19473405 -44 -5 C-30.60234935 -14.21544391 -11.96272352 -9.78768288 0 0 Z " fill="#4F2902" transform="translate(369,86)"/>
<path d="M0 0 C1.47533203 0.70769531 1.47533203 0.70769531 2.98046875 1.4296875 C24.96591165 12.66034664 40.96543277 31.19309072 50 54 C51.29376573 58.5398876 52.24105098 63.12699708 53.1875 67.75 C55.66822969 78.96066995 59.14386672 89.08392368 64.0925293 99.44042969 C71.5719961 115.10195132 74.97189035 130.32253182 69.96875 147.30078125 C63.51898099 165.27171023 50.16356483 177.05695889 33.34765625 185.23608398 C14.66932593 193.8387566 -6.55626999 198.55148693 -27 200 C-26.14231303 193.57264206 -24.15162872 187.49638046 -22.25976562 181.31445312 C-18.21092786 167.62074128 -17.51014844 153.85908757 -16.875 139.6875 C-16.78838665 137.86780863 -16.70115142 136.04814674 -16.61328125 134.22851562 C-16.40169468 129.81931704 -16.19848758 125.40980687 -16 121 C-15.05640625 120.55398437 -14.1128125 120.10796875 -13.140625 119.6484375 C-8.05717948 116.98026087 -5.83106397 113.34060325 -4 108 C-3.34 108 -2.68 108 -2 108 C-1.54109375 108.89203125 -1.0821875 109.7840625 -0.609375 110.703125 C0.01002747 111.88562062 0.62984099 113.06790098 1.25 114.25 C1.85328125 115.41015625 2.4565625 116.5703125 3.078125 117.765625 C4.82369637 120.70329389 6.56681536 122.65294579 9 125 C9 125.66 9 126.32 9 127 C9.556875 127.268125 10.11375 127.53625 10.6875 127.8125 C13.19712523 129.10122647 15.59334236 130.52926478 18 132 C18 130.96875 18 129.9375 18 128.875 C18.5142766 125.39482684 19.70982223 123.93433753 22.4375 121.75 C31.47328752 115.76878844 40.40597816 115.58784065 51 116 C54.22505528 93.82774493 50.90692817 75.07597122 38.27734375 56.4609375 C33.58173355 50.5331459 27.69395548 46.86728938 20.23046875 45.48828125 C12.97117593 45.03140268 8.39797082 47.26830591 3 52 C-4.96794395 60.18329379 -7.29989247 70.76208011 -7.23828125 81.86108398 C-7.15419659 86.9301041 -6.48429077 91.71123324 -5.4609375 96.6796875 C-4.09386999 103.56136633 -5.22472322 108.25015411 -9 114 C-11.1875 116.625 -11.1875 116.625 -14 118 C-18.6546752 117.92492459 -22.00711948 116.91650509 -25.4375 113.75 C-28.96806567 107.53620443 -29.36477616 101.92549243 -29.375 94.9375 C-29.39949219 94.05255859 -29.42398438 93.16761719 -29.44921875 92.25585938 C-29.47380901 86.79272368 -28.99431215 84.04956943 -25 80 C-25 79.34 -25 78.68 -25 78 C-29.62 78 -34.24 78 -39 78 C-38.67 79.32 -38.34 80.64 -38 82 C-37.00226563 82.56203125 -36.00453125 83.1240625 -34.9765625 83.703125 C-32 86 -32 86 -31.44433594 87.87304688 C-31.26209921 90.19109805 -31.28010535 92.42697904 -31.375 94.75 C-31.36855469 95.5234375 -31.36210937 96.296875 -31.35546875 97.09375 C-31.47867207 103.76912974 -33.28366468 109.25238251 -38.03515625 114.05859375 C-39.03869141 114.74115234 -39.03869141 114.74115234 -40.0625 115.4375 C-40.73410156 115.91058594 -41.40570313 116.38367188 -42.09765625 116.87109375 C-48.15711715 120.46695453 -57.14875078 119.98015715 -64 119 C-68.51315176 117.12192788 -71.58559773 114.41440227 -75 111 C-74.63551146 106.47643686 -73.19803898 102.61842738 -71.5 98.4375 C-67.16302663 87.73374886 -66.28162819 77.40313476 -70.73828125 66.53515625 C-75.28386202 57.40177569 -82.39191394 50.1813223 -92.07421875 46.69921875 C-102.93512236 44.10362229 -113.26318292 45.69801818 -123 51 C-135.25518845 59.08524121 -144.39717232 71.91052487 -148.375 86.125 C-150.21510257 96.59058339 -150.85384125 108.78431418 -145 118 C-144.67 118.66 -144.34 119.32 -144 120 C-142.07326062 120.32261683 -140.13143567 120.55629823 -138.1875 120.75 C-131.04525085 121.73540965 -125.05127758 124.0691701 -119 128 C-117 131 -117 131 -117 134 C-103.90942757 133.71654272 -93.40649336 129.12296431 -84 120 C-81.81888949 117.43937626 -79.84108855 114.81402152 -78 112 C-75 113 -75 113 -72.9375 115.3125 C-69.05791193 118.86191036 -64.91341687 120.29222986 -60 122 C-59.33076266 146.20408377 -60.06585203 177.96347437 -76.38671875 197.3984375 C-78.57047892 199.566335 -80.30956646 200.89603947 -83.38671875 201.359375 C-86.82459212 200.88660318 -88.22996102 199.53631884 -90.8125 197.25 C-96.22915677 192.69581685 -101.77619712 188.72238029 -109 188 C-110.216875 187.87625 -111.43375 187.7525 -112.6875 187.625 C-117.29799752 187.65119601 -120.6616613 189.5722829 -124.60546875 191.80859375 C-128.1317709 193.56311603 -130.74168615 194.31721214 -134.62451172 193.33837891 C-135.55021973 192.97147949 -136.47592773 192.60458008 -137.4296875 192.2265625 C-138.46520752 191.81865479 -139.50072754 191.41074707 -140.56762695 190.99047852 C-141.65906006 190.53987061 -142.75049316 190.0892627 -143.875 189.625 C-145.55758911 188.93651978 -145.55758911 188.93651978 -147.27416992 188.23413086 C-161.56564992 182.25023697 -173.10000804 175.02879541 -184 164 C-184.73863281 163.27167969 -185.47726563 162.54335938 -186.23828125 161.79296875 C-196.54862222 151.00214588 -201.63113974 138.28973239 -205 124 C-205.24621094 122.96101562 -205.49242187 121.92203125 -205.74609375 120.8515625 C-209.85892296 100.14559473 -205.89648839 78.90761802 -197 60 C-196.71141113 59.38318359 -196.42282227 58.76636719 -196.12548828 58.13085938 C-181.38039509 27.15739157 -153.03207992 4.65039502 -121.03833008 -6.72827148 C-81.78654359 -20.02407494 -37.36596552 -18.21335587 0 0 Z " fill="#FEFDFD" transform="translate(317,124)"/>
<path d="M0 0 C4.455 0.99 4.455 0.99 9 2 C9.9678349 6.51201902 9.9009992 10.08593617 9.125 14.625 C8.94195312 15.73101562 8.75890625 16.83703125 8.5703125 17.9765625 C8 21 8 21 7.2421875 23.12890625 C6.7940963 25.12653426 6.7940963 25.12653426 8.1875 27.11328125 C8.785625 27.83902344 9.38375 28.56476563 10 29.3125 C10.64066406 30.09109375 11.28132812 30.8696875 11.94140625 31.671875 C14.82253796 34.93023268 17.83983942 38.01273575 21 41 C24.49907057 39.49356643 26.82179434 37.43581135 29.5625 34.8125 C37.33758051 27.6910767 48.04298499 18.97800542 59.22265625 19.3984375 C69.62896428 21.65240577 78.95033129 28.15138223 86.765625 35.1171875 C88.79166058 36.82444126 90.58451843 37.94738189 93 39 C93.61875 38.34 94.2375 37.68 94.875 37 C97 35 97 35 99 35 C99.33 33.68 99.66 32.36 100 31 C102.31 31.33 104.62 31.66 107 32 C107 31.34 107 30.68 107 30 C106.34 29.67 105.68 29.34 105 29 C108.96 27.68 112.92 26.36 117 25 C112.03083364 25.51405169 107.70973649 26.23384882 103 28 C103.27070313 27.32453125 103.54140625 26.6490625 103.8203125 25.953125 C104.67717455 23.80813258 105.50104821 21.64987009 106.3046875 19.484375 C107.87354285 15.61701153 109.45998871 12.34326273 112 9 C116.11527521 7.51007514 119.68113978 7.50357929 124 8 C124.99 11.465 124.99 11.465 126 15 C127.91466367 14.87822312 127.91466367 14.87822312 130 14 C131.01187895 12.34051852 132.0126546 10.67419438 133 9 C133.99 9 134.98 9 136 9 C136 8.34 136 7.68 136 7 C137.43671568 6.35242375 138.87440416 5.70700547 140.3125 5.0625 C141.11300781 4.70285156 141.91351563 4.34320313 142.73828125 3.97265625 C149.19272378 1.19691154 156.55843945 0.85871521 163.38671875 2.61328125 C171.68334814 6.31334976 176.28385949 13.74479452 179.76171875 21.80078125 C180.8655087 24.11496236 180.8655087 24.11496236 183.01953125 25.48046875 C185 27 185 27 185.921875 29.32421875 C187.33375697 32.8283461 189.66202802 35.14566059 192.25 37.8125 C196.52373916 42.33179203 200.38709849 46.92240869 204 52 C204.79664063 51.10796875 205.59328125 50.2159375 206.4140625 49.296875 C207.4840341 48.11427481 208.55436582 46.93200038 209.625 45.75 C210.40810547 44.87021484 210.40810547 44.87021484 211.20703125 43.97265625 C214.95740596 39.85187416 218.74259431 35.78720638 224.34375 34.43359375 C228.98361741 34.44199931 232.30461897 34.86711897 235.77734375 38.33984375 C240.36539058 44.56961979 240.39209691 51.22586319 239.5625 58.68359375 C236.57054794 76.32364442 226.74159113 92.94488492 212.55859375 103.8828125 C207.31441609 107.26303751 203.2092099 108.50895163 197 108 C190.95430114 105.8840054 185.95749014 101.95544426 181 98 C180.50693359 98.76183594 180.50693359 98.76183594 180.00390625 99.5390625 C173.45915922 109.01032243 163.97213881 114.29099095 152.79296875 116.6875 C142.7729914 118.36721681 134.37675561 118.13667803 124.40234375 116.42578125 C120.95823344 115.99477319 117.77556217 116.03657738 114.3125 116.1875 C107.75586797 116.2982272 103.45186325 114.51363516 98 111 C97.29488281 110.54625 96.58976562 110.0925 95.86328125 109.625 C91.23548077 106.47096154 91.23548077 106.47096154 90 104 C83.8738312 104.74979535 77.94324743 106.09397217 71.9375 107.5 C63.85871929 109.38379297 56.21507438 111.1424672 47.875 111.1875 C46.67617187 111.20167969 45.47734375 111.21585937 44.2421875 111.23046875 C41.19715247 111.01401445 39.54672995 110.60279273 37 109 C37.7528125 108.97421875 38.505625 108.9484375 39.28125 108.921875 C42.30222232 108.21930137 42.30222232 108.21930137 43.84375 105.015625 C44.4141767 103.76864571 44.96570369 102.51288219 45.5 101.25 C47.64970638 96.29230396 49.89713863 92.62166158 54 89 C54.65742188 88.4121875 55.31484375 87.824375 55.9921875 87.21875 C60.01518045 84.77677762 64.48080835 85.38897141 69 86 C76.89066584 88.37852607 83.09261721 94.05951493 89.40234375 99.1328125 C98.96924677 107.34231432 98.96924677 107.34231432 110.1875 112.4375 C118.19168829 111.51898659 123.51997929 106.94089115 128.6875 101 C139.11621158 87.47036179 145.6044632 71.2212383 144 54 C142.79628734 50.54859639 141.39367728 47.69683864 138 46 C134.57721578 45.45235453 132.1009462 45.35833076 129.04296875 47.140625 C123.00311616 52.04874979 119.05188679 58.43723656 115 65 C111.43665263 64.42920093 109.9221243 63.2281095 107.53125 60.5703125 C106.88397949 59.86261719 106.23670898 59.15492188 105.56982422 58.42578125 C104.88678223 57.66652344 104.20374023 56.90726562 103.5 56.125 C85.09123461 35.53914646 85.09123461 35.53914646 60.796875 23.56640625 C49.65751774 23.54514793 42.12236241 28.8802417 34 36 C33.175 36.69222656 32.35 37.38445312 31.5 38.09765625 C24.83386414 43.83678259 16.98565872 51.02868256 13 59 C12.34 59 11.68 59 11 59 C11 59.99 11 60.98 11 62 C10.34 62 9.68 62 9 62 C7.82391102 54.35957092 6.65023265 46.71877486 5.47963715 39.07750225 C4.93601693 35.52943045 4.39156477 31.98149047 3.84521484 28.43383789 C3.31806367 25.01064696 2.79309328 21.5871281 2.26963806 18.16337013 C1.97200571 16.22047152 1.67211148 14.27791985 1.37219238 12.33537292 C1.10191223 10.56387627 1.10191223 10.56387627 0.82617188 8.7565918 C0.66628784 7.71512497 0.50640381 6.67365814 0.3416748 5.60063171 C0 3 0 3 0 0 Z " fill="#522D03" transform="translate(176,318)"/>
<path d="M0 0 C8.81887156 6.45315341 16.09771863 14.96676805 18 26 C18.96780243 36.08631595 17.19811172 46.16252711 12.30078125 55.1015625 C10.79922923 57.87676662 10.79922923 57.87676662 11.09375 60.66796875 C12.53037437 64.36479957 14.62309661 65.76777831 17.93359375 67.82421875 C24.9767304 70.52483548 33.49853763 70.21539484 40.734375 68.26171875 C45.66608796 66.00907543 48.63779995 62.66430304 51.0625 57.921875 C52.36615607 53.85881359 52.4642323 49.93109738 52.625 45.6875 C52.66367187 44.85154297 52.70234375 44.01558594 52.7421875 43.15429688 C52.83595159 41.10320741 52.91904245 39.05163485 53 37 C52.21367187 36.69835937 51.42734375 36.39671875 50.6171875 36.0859375 C48.01253779 35.00520225 46.60036592 34.31163967 45 32 C45.33 30.68 45.66 29.36 46 28 C50.62 28 55.24 28 60 28 C60.33 28.99 60.66 29.98 61 31 C60.36964844 31.68449219 59.73929687 32.36898437 59.08984375 33.07421875 C56.09349943 37.2691008 56.44784452 40.78615188 56.5625 45.8125 C56.55541016 46.67681641 56.54832031 47.54113281 56.54101562 48.43164062 C56.60331522 54.78140707 57.31740995 61.02998959 61.75 65.9375 C64.94706326 67.44722432 67.45860972 67.93787035 71 68 C75.74271469 65.41306471 77.37448783 62.04764306 79 57 C79.404058 52.79779678 78.85002436 49.15362443 78 45.0625 C75.62475347 32.53221395 75.84846467 19.99232498 82.3203125 8.6953125 C86.06854852 3.26753903 91.0906043 -1.04530215 97 -4 C105.08761746 -4.98287018 111.32771201 -3.71181606 118 1 C129.85894695 11.11177245 136.8939307 27.86325547 138.18652344 43.21533203 C138.61157124 51.33515022 138.28365263 59.1499441 136 67 C134.65808594 67.05607422 134.65808594 67.05607422 133.2890625 67.11328125 C123.65761147 67.63695289 114.18436279 68.40703693 106.2734375 74.4609375 C103.87751322 77.35662512 104.06200913 80.34146108 104 84 C99.37969441 81.95846962 96.39150902 79.73065992 93 76 C92.50371094 75.47277344 92.00742187 74.94554687 91.49609375 74.40234375 C87.7693236 70.30196256 83 64.8224938 83 59 C82.34 59 81.68 59 81 59 C80.95875 59.680625 80.9175 60.36125 80.875 61.0625 C79.64955096 65.17650749 77.31702255 68.27006109 74 71 C71.525 71.495 71.525 71.495 69 72 C69 79.92 69 87.84 69 96 C68.67 96 68.34 96 68 96 C67.67 88.08 67.34 80.16 67 72 C66.67 79.26 66.34 86.52 66 94 C64.68 94.33 63.36 94.66 62 95 C59.96484375 93.6015625 59.96484375 93.6015625 57.9375 91.625 C55.49163406 89.26833071 54.26745798 88.08915266 51 87 C51.0825 88.010625 51.165 89.02125 51.25 90.0625 C50.93034862 95.09700921 50.09902278 97.02689388 47 101 C43.25 101.9375 43.25 101.9375 40 102 C36.63944354 97.51925805 36.72570375 94.39449293 37 89 C36.01 89 35.02 89 34 89 C33.773125 89.78375 33.54625 90.5675 33.3125 91.375 C32 94 32 94 27 96 C26.67 92.04 26.34 88.08 26 84 C25.67 84 25.34 84 25 84 C25 80.37 25 76.74 25 73 C24.195625 72.95875 23.39125 72.9175 22.5625 72.875 C16.45037123 71.37377539 11.29838176 67.55764923 7 63 C6.73058594 63.58136719 6.46117187 64.16273438 6.18359375 64.76171875 C1.14643899 74.28742725 -8.8136051 81.14048174 -18.875 84.578125 C-23.21025778 85.43880118 -27.60562789 85.21810303 -32 85 C-32.226875 84.05125 -32.45375 83.1025 -32.6875 82.125 C-33.66416974 78.88703729 -33.66416974 78.88703729 -36.1875 77.8125 C-37.115625 77.544375 -38.04375 77.27625 -39 77 C-39.99 76.505 -40.98 76.01 -42 75.5 C-45.50384346 73.92984498 -48.88713521 73.60881704 -52.6875 73.1875 C-58.64774423 72.36044776 -58.64774423 72.36044776 -61.6875 69.25 C-64.20617771 63.01327424 -65.36178928 58.00035122 -65.3125 51.3125 C-65.30686035 50.51376465 -65.3012207 49.7150293 -65.29541016 48.89208984 C-64.97216152 33.08491165 -57.98053308 19.25720793 -47 8 C-34.22207301 -3.26350602 -15.71160604 -9.73122845 0 0 Z " fill="#502A03" transform="translate(232,173)"/>
<path d="M0 0 C11.86805783 5.35442609 18.45256094 16.6006164 23.33203125 28.19921875 C28.32535872 41.54014472 29.32654419 56.46808053 25.33203125 70.19921875 C23.99011719 70.25529297 23.99011719 70.25529297 22.62109375 70.3125 C12.98964272 70.83617164 3.51639404 71.60625568 -4.39453125 77.66015625 C-6.79045553 80.55584387 -6.60595962 83.54067983 -6.66796875 87.19921875 C-11.28827434 85.15768837 -14.27645973 82.92987867 -17.66796875 79.19921875 C-18.16425781 78.67199219 -18.66054688 78.14476562 -19.171875 77.6015625 C-22.89864515 73.50118131 -27.66796875 68.02171255 -27.66796875 62.19921875 C-28.32796875 62.19921875 -28.98796875 62.19921875 -29.66796875 62.19921875 C-29.70921875 62.87984375 -29.75046875 63.56046875 -29.79296875 64.26171875 C-31.01841779 68.37572624 -33.3509462 71.46927984 -36.66796875 74.19921875 C-39.14296875 74.69421875 -39.14296875 74.69421875 -41.66796875 75.19921875 C-41.66796875 83.11921875 -41.66796875 91.03921875 -41.66796875 99.19921875 C-41.99796875 99.19921875 -42.32796875 99.19921875 -42.66796875 99.19921875 C-42.99796875 91.27921875 -43.32796875 83.35921875 -43.66796875 75.19921875 C-43.99796875 82.45921875 -44.32796875 89.71921875 -44.66796875 97.19921875 C-46.64796875 97.69421875 -46.64796875 97.69421875 -48.66796875 98.19921875 C-50.703125 96.80078125 -50.703125 96.80078125 -52.73046875 94.82421875 C-55.17633469 92.46754946 -56.40051077 91.28837141 -59.66796875 90.19921875 C-59.58546875 91.20984375 -59.50296875 92.22046875 -59.41796875 93.26171875 C-59.73762013 98.29622796 -60.56894597 100.22611263 -63.66796875 104.19921875 C-67.41796875 105.13671875 -67.41796875 105.13671875 -70.66796875 105.19921875 C-74.02852521 100.7184768 -73.942265 97.59371168 -73.66796875 92.19921875 C-74.65796875 92.19921875 -75.64796875 92.19921875 -76.66796875 92.19921875 C-77.00828125 93.37484375 -77.00828125 93.37484375 -77.35546875 94.57421875 C-78.66796875 97.19921875 -78.66796875 97.19921875 -83.66796875 99.19921875 C-83.99796875 95.23921875 -84.32796875 91.27921875 -84.66796875 87.19921875 C-84.99796875 87.19921875 -85.32796875 87.19921875 -85.66796875 87.19921875 C-85.66796875 83.56921875 -85.66796875 79.93921875 -85.66796875 76.19921875 C-86.98796875 75.86921875 -88.30796875 75.53921875 -89.66796875 75.19921875 C-86.78885033 72.32010033 -84.55848236 72.92799942 -80.54296875 72.82421875 C-72.92161383 72.47272871 -67.68600669 71.29667874 -62.29296875 65.76171875 C-58.75444535 60.18173955 -58.28776075 55.3482077 -58.04296875 48.88671875 C-58.00429688 48.05076172 -57.965625 47.21480469 -57.92578125 46.35351562 C-57.83201716 44.30242616 -57.7489263 42.2508536 -57.66796875 40.19921875 C-58.45429688 39.89757812 -59.240625 39.5959375 -60.05078125 39.28515625 C-62.65543096 38.204421 -64.06760283 37.51085842 -65.66796875 35.19921875 C-65.33796875 33.87921875 -65.00796875 32.55921875 -64.66796875 31.19921875 C-60.04796875 31.19921875 -55.42796875 31.19921875 -50.66796875 31.19921875 C-50.33796875 32.18921875 -50.00796875 33.17921875 -49.66796875 34.19921875 C-50.29832031 34.88371094 -50.92867188 35.56820312 -51.578125 36.2734375 C-54.57446932 40.46831955 -54.22012423 43.98537063 -54.10546875 49.01171875 C-54.11255859 49.87603516 -54.11964844 50.74035156 -54.12695312 51.63085938 C-54.06465353 57.98062582 -53.3505588 64.22920834 -48.91796875 69.13671875 C-45.72090549 70.64644307 -43.20935903 71.1370891 -39.66796875 71.19921875 C-34.92525406 68.61228346 -33.29348092 65.24686181 -31.66796875 60.19921875 C-31.26391075 55.99701553 -31.81794439 52.35284318 -32.66796875 48.26171875 C-35.04321528 35.7314327 -34.81950408 23.19154373 -28.34765625 11.89453125 C-21.48064039 1.9504919 -12.09053228 -3.62892989 0 0 Z " fill="#512B04" transform="translate(342.66796875,169.80078125)"/>
<path d="M0 0 C8.55612523 3.43033592 14.78239465 13.69136065 20 21 C20.79664063 20.10796875 21.59328125 19.2159375 22.4140625 18.296875 C23.4840341 17.11427481 24.55436582 15.93200038 25.625 14.75 C26.14707031 14.16347656 26.66914063 13.57695312 27.20703125 12.97265625 C30.95740596 8.85187416 34.74259431 4.78720638 40.34375 3.43359375 C44.98361741 3.44199931 48.30461897 3.86711897 51.77734375 7.33984375 C56.36539058 13.56961979 56.39209691 20.22586319 55.5625 27.68359375 C52.57054794 45.32364442 42.74159113 61.94488492 28.55859375 72.8828125 C23.31441609 76.26303751 19.2092099 77.50895163 13 77 C6.5856431 74.87043351 1.83354512 70.57644166 -3 66 C-2.67 64.88625 -2.34 63.7725 -2 62.625 C0.54059871 50.98979432 0.22086977 38.77686293 -5 28 C-9.93084985 17.68852684 -9.93084985 17.68852684 -9 12 C-6.77746898 7.34410498 -3.86317844 3.43393639 0 0 Z " fill="#4E2800" transform="translate(360,349)"/>
<path d="M0 0 C4.455 0.99 4.455 0.99 9 2 C9.9678349 6.51201902 9.9009992 10.08593617 9.125 14.625 C8.94195312 15.73101562 8.75890625 16.83703125 8.5703125 17.9765625 C8 21 8 21 7.2421875 23.12890625 C6.7940963 25.12653426 6.7940963 25.12653426 8.1875 27.11328125 C8.785625 27.83902344 9.38375 28.56476563 10 29.3125 C10.64066406 30.09109375 11.28132812 30.8696875 11.94140625 31.671875 C14.82253796 34.93023268 17.83983942 38.01273575 21 41 C24.49907057 39.49356643 26.82179434 37.43581135 29.5625 34.8125 C37.33758051 27.6910767 48.04298499 18.97800542 59.22265625 19.3984375 C69.62896428 21.65240577 78.95033129 28.15138223 86.765625 35.1171875 C88.79166058 36.82444126 90.58451843 37.94738189 93 39 C94.32 37.68 95.64 36.36 97 35 C99.93789998 36.01306896 100.95500458 36.93167363 102.6875 39.5625 C103.85228946 42.61313906 104.12523468 44.23416875 104.25 47.375 C104.63301186 52.38819969 106.95874992 54.97878645 110.30859375 58.56640625 C111.88474783 60.21552461 111.88474783 60.21552461 114 60 C115.24235401 58.35246578 116.4184391 56.65474697 117.5625 54.9375 C122.08836768 48.59144641 126.73407619 42.79534173 134.6875 41.3125 C139.33710564 42.27751249 142.3072825 43.81990563 145.26171875 47.625 C149.71496167 55.12519859 148.70201875 63.66982595 146.875 71.875 C143.58080956 83.59618926 138.61580732 93.51878239 131 103 C129.97519531 104.31871094 129.97519531 104.31871094 128.9296875 105.6640625 C126.85078586 108.18062764 124.60527727 110.04604205 122 112 C135.79053873 116.61538191 150.93406675 115.03287319 164 109 C171.08683022 105.33057439 175.99816445 101.04916417 178.96484375 93.56640625 C182.2737729 83.06017499 182.26243131 72.20652496 178 62 C177.11721444 60.32638571 176.22109897 58.65974186 175.3125 57 C172.70283035 51.93930323 171.84397422 47.62415718 173 42 C174.98496015 37.3970806 177.62182611 33.59447342 182 31 C181.80528889 29.05000871 181.80528889 29.05000871 181 27 C176.68191701 24.19753554 172.83455454 25.06233729 168 26 C165.08490718 26.94476554 165.08490718 26.94476554 163 28 C163.0625 26.1875 163.0625 26.1875 164 24 C167.96873594 21.90330932 170.48438726 21 175 21 C171.78009155 13.52981239 167.66099761 8.24290773 160 5 C154.57510838 4.63221074 150.10490582 5.28398129 144.8828125 6.7578125 C144.26148438 6.83773438 143.64015625 6.91765625 143 7 C142.01 6.01 142.01 6.01 141 5 C147.91543221 1.14022388 155.69673294 0.61084108 163.37109375 2.62109375 C171.68458529 6.26736197 176.29157348 13.76266293 179.76171875 21.80078125 C181.16247851 24.28856593 182.627014 25.45631016 185 27 C184.8125 29.75 184.8125 29.75 184 33 C182.36739286 34.37482707 180.69774938 35.70647667 179 37 C176.09545211 41.50705708 175.5976714 44.69361204 176 50 C176.91653049 52.84398614 178.14618596 55.49620949 179.4375 58.1875 C184.59499322 69.24802507 186.06450737 81.61744284 182.875 93.625 C179.30132079 103.25408008 172.60822566 108.65183233 163.65625 113.1875 C150.89008575 118.82450759 137.84736938 118.73198751 124.40234375 116.42578125 C120.95823344 115.99477319 117.77556217 116.03657738 114.3125 116.1875 C107.75586797 116.2982272 103.45186325 114.51363516 98 111 C97.29488281 110.54625 96.58976562 110.0925 95.86328125 109.625 C91.23548077 106.47096154 91.23548077 106.47096154 90 104 C83.8738312 104.74979535 77.94324743 106.09397217 71.9375 107.5 C63.85871929 109.38379297 56.21507438 111.1424672 47.875 111.1875 C46.67617187 111.20167969 45.47734375 111.21585937 44.2421875 111.23046875 C41.19715247 111.01401445 39.54672995 110.60279273 37 109 C37.7528125 108.97421875 38.505625 108.9484375 39.28125 108.921875 C42.30222232 108.21930137 42.30222232 108.21930137 43.84375 105.015625 C44.4141767 103.76864571 44.96570369 102.51288219 45.5 101.25 C47.64970638 96.29230396 49.89713863 92.62166158 54 89 C54.65742188 88.4121875 55.31484375 87.824375 55.9921875 87.21875 C60.01518045 84.77677762 64.48080835 85.38897141 69 86 C76.89066584 88.37852607 83.09261721 94.05951493 89.40234375 99.1328125 C98.96924677 107.34231432 98.96924677 107.34231432 110.1875 112.4375 C118.19168829 111.51898659 123.51997929 106.94089115 128.6875 101 C139.11621158 87.47036179 145.6044632 71.2212383 144 54 C142.79628734 50.54859639 141.39367728 47.69683864 138 46 C134.57721578 45.45235453 132.1009462 45.35833076 129.04296875 47.140625 C123.00311616 52.04874979 119.05188679 58.43723656 115 65 C111.43665263 64.42920093 109.9221243 63.2281095 107.53125 60.5703125 C106.88397949 59.86261719 106.23670898 59.15492188 105.56982422 58.42578125 C104.88678223 57.66652344 104.20374023 56.90726562 103.5 56.125 C85.09123461 35.53914646 85.09123461 35.53914646 60.796875 23.56640625 C49.65751774 23.54514793 42.12236241 28.8802417 34 36 C33.175 36.69222656 32.35 37.38445312 31.5 38.09765625 C24.83386414 43.83678259 16.98565872 51.02868256 13 59 C12.34 59 11.68 59 11 59 C11 59.99 11 60.98 11 62 C10.34 62 9.68 62 9 62 C7.82391102 54.35957092 6.65023265 46.71877486 5.47963715 39.07750225 C4.93601693 35.52943045 4.39156477 31.98149047 3.84521484 28.43383789 C3.31806367 25.01064696 2.79309328 21.5871281 2.26963806 18.16337013 C1.97200571 16.22047152 1.67211148 14.27791985 1.37219238 12.33537292 C1.10191223 10.56387627 1.10191223 10.56387627 0.82617188 8.7565918 C0.66628784 7.71512497 0.50640381 6.67365814 0.3416748 5.60063171 C0 3 0 3 0 0 Z " fill="#FAF9F8" transform="translate(176,318)"/>
<path d="M0 0 C-0.3609375 0.53367187 -0.721875 1.06734375 -1.09375 1.6171875 C-4.73309513 7.4603583 -6.51140673 12.14767134 -5 19 C-3.48395403 22.99471168 -1.58129399 26.78661356 0.37109375 30.58203125 C4.70110623 39.66778886 4.06921591 50.96995911 1.09375 60.43359375 C-3.07434737 70.2137365 -10.41349115 75.07973848 -19.828125 79.25390625 C-31.84923543 83.67705842 -45.76248439 83.52057411 -58 80 C-56.03375331 77.45116169 -54.0932516 75.08807096 -51.75 72.875 C-39.86718416 60.45205617 -32.2342355 44.04177189 -31.5625 26.75 C-31.67431933 21.99767852 -32.63950273 18.75946357 -35.04296875 14.69140625 C-36.26379186 12.53378826 -36.694264 10.44588799 -37 8 C-35.68 7.67 -34.36 7.34 -33 7 C-30.27111434 11.09332849 -30.23109895 14.95091178 -29.66015625 19.7734375 C-28.96922581 23.15041113 -28.10829752 25.28140583 -26 28 C-22.87364791 28.41746608 -22.87364791 28.41746608 -20 28 C-17.85217881 21.58970741 -18.01720551 16.18441556 -18.41796875 9.42578125 C-18 6 -18 6 -15.73828125 3.62109375 C-13.39223979 2.23221043 -11.63459289 1.32366136 -9 0.75 C-8.360625 0.60046875 -7.72125 0.4509375 -7.0625 0.296875 C-4.68726722 -0.04501457 -2.3964853 -0.04992678 0 0 Z " fill="#4F2A02" transform="translate(355,351)"/>
<path d="M0 0 C4.455 0.99 4.455 0.99 9 2 C9.9678349 6.51201902 9.9009992 10.08593617 9.125 14.625 C8.94195312 15.73101562 8.75890625 16.83703125 8.5703125 17.9765625 C8 21 8 21 7.2421875 23.12890625 C6.7940963 25.12653426 6.7940963 25.12653426 8.1875 27.11328125 C8.785625 27.83902344 9.38375 28.56476563 10 29.3125 C10.64066406 30.09109375 11.28132812 30.8696875 11.94140625 31.671875 C14.82253796 34.93023268 17.83983942 38.01273575 21 41 C24.49907057 39.49356643 26.82179434 37.43581135 29.5625 34.8125 C37.33758051 27.6910767 48.04298499 18.97800542 59.22265625 19.3984375 C69.62896428 21.65240577 78.95033129 28.15138223 86.765625 35.1171875 C88.79166058 36.82444126 90.58451843 37.94738189 93 39 C94.32 37.68 95.64 36.36 97 35 C99.93789998 36.01306896 100.95500458 36.93167363 102.6875 39.5625 C103.85228946 42.61313906 104.12523468 44.23416875 104.25 47.375 C104.63301186 52.38819969 106.95874992 54.97878645 110.30859375 58.56640625 C111.88474783 60.21552461 111.88474783 60.21552461 114 60 C115.24235401 58.35246578 116.4184391 56.65474697 117.5625 54.9375 C122.08836768 48.59144641 126.73407619 42.79534173 134.6875 41.3125 C139.33710564 42.27751249 142.3072825 43.81990563 145.26171875 47.625 C149.71496167 55.12519859 148.70201875 63.66982595 146.875 71.875 C143.92055211 82.4226551 139.69060933 93.94066282 132 102 C129.7890625 102.76171875 129.7890625 102.76171875 128 103 C129.64506914 99.48208291 131.70599004 96.32094467 133.8125 93.0625 C141.43239651 80.95481168 145.34013841 68.38415227 144 54 C142.79628734 50.54859639 141.39367728 47.69683864 138 46 C134.57721578 45.45235453 132.1009462 45.35833076 129.04296875 47.140625 C123.00311616 52.04874979 119.05188679 58.43723656 115 65 C111.43665263 64.42920093 109.9221243 63.2281095 107.53125 60.5703125 C106.88397949 59.86261719 106.23670898 59.15492188 105.56982422 58.42578125 C104.88678223 57.66652344 104.20374023 56.90726562 103.5 56.125 C85.09123461 35.53914646 85.09123461 35.53914646 60.796875 23.56640625 C49.65751774 23.54514793 42.12236241 28.8802417 34 36 C33.175 36.69222656 32.35 37.38445312 31.5 38.09765625 C24.83386414 43.83678259 16.98565872 51.02868256 13 59 C12.34 59 11.68 59 11 59 C11 59.99 11 60.98 11 62 C10.34 62 9.68 62 9 62 C7.82391102 54.35957092 6.65023265 46.71877486 5.47963715 39.07750225 C4.93601693 35.52943045 4.39156477 31.98149047 3.84521484 28.43383789 C3.31806367 25.01064696 2.79309328 21.5871281 2.26963806 18.16337013 C1.97200571 16.22047152 1.67211148 14.27791985 1.37219238 12.33537292 C1.10191223 10.56387627 1.10191223 10.56387627 0.82617188 8.7565918 C0.66628784 7.71512497 0.50640381 6.67365814 0.3416748 5.60063171 C0 3 0 3 0 0 Z " fill="#F0EDE9" transform="translate(176,318)"/>
<path d="M0 0 C1.2684375 0.99 1.2684375 0.99 2.5625 2 C3.490625 2.680625 3.490625 2.680625 4.4375 3.375 C6.2549592 6.00021884 5.99698727 7.8965195 5.5625 11 C2.67098524 16.2801574 -2.00640853 18.04939673 -7.4375 20 C-17.0541283 22.74135215 -29.63597636 22.40430604 -38.625 18.0703125 C-40.2634809 17.10276128 -41.8542469 16.05550207 -43.4375 15 C-43.4375 14.34 -43.4375 13.68 -43.4375 13 C-44.0975 13 -44.7575 13 -45.4375 13 C-45.93797526 9.87202964 -46.07889436 7.11534406 -45.4375 4 C-35.32212087 -8.93441921 -12.7330415 -7.40831505 0 0 Z " fill="#FDA9CA" transform="translate(381.4375,245)"/>
<path d="M0 0 C2 3 2 3 2 6 C4.31 6 6.62 6 9 6 C9 6.33 9 6.66 9 7 C6.69 7 4.38 7 2 7 C1.95875 7.556875 1.9175 8.11375 1.875 8.6875 C0.27396087 12.91881771 -3.06340327 15.02395525 -6.953125 16.984375 C-16.60690767 20.56235039 -30.18784701 20.89063759 -39.875 17.3125 C-43.62516458 15.43741771 -46.56671666 13.48770613 -49 10 C-49.625 6.5 -49.625 6.5 -49 3 C-45.07260182 -2.44768135 -39.09830829 -5.12032983 -32.65234375 -6.50390625 C-20.77843639 -8.0291724 -10.11468765 -6.72083378 0 0 Z " fill="#FDAACB" transform="translate(198,252)"/>
<path d="M0 0 C8.02900992 3.52530997 11.74056235 10.68166108 14.84765625 18.50390625 C17.52163087 27.47387564 18.01769873 35.98648183 17.95703125 45.32421875 C17.96863281 47.15049805 17.96863281 47.15049805 17.98046875 49.01367188 C17.97789062 50.17705078 17.9753125 51.34042969 17.97265625 52.5390625 C17.97040039 53.59085693 17.96814453 54.64265137 17.96582031 55.72631836 C17.70703125 58.38671875 17.70703125 58.38671875 15.70703125 61.38671875 C13.14453125 61.63671875 13.14453125 61.63671875 10.70703125 61.38671875 C8.94511606 59.62480356 9.49362211 57.09241333 9.42578125 54.69921875 C9.36970703 52.93771484 9.36970703 52.93771484 9.3125 51.140625 C9.27769531 49.90183594 9.24289063 48.66304687 9.20703125 47.38671875 C9.21921843 26.87394627 9.21921843 26.87394627 -0.29296875 9.38671875 C-4.01875964 6.90285816 -5.88008277 7.00629755 -10.29296875 7.38671875 C-14.13814505 8.81748202 -15.64463843 10.669295 -17.48046875 14.19921875 C-21.04335644 22.07205122 -22.35519014 29.49042837 -22.5390625 38.125 C-22.57193359 39.35669922 -22.60480469 40.58839844 -22.63867188 41.85742188 C-22.70033407 44.43805031 -22.75756056 47.01878822 -22.81054688 49.59960938 C-22.84470703 50.82486328 -22.87886719 52.05011719 -22.9140625 53.3125 C-22.93911865 54.43052002 -22.9641748 55.54854004 -22.98999023 56.70043945 C-23.29296875 59.38671875 -23.29296875 59.38671875 -25.29296875 61.38671875 C-29.84852431 60.83116319 -29.84852431 60.83116319 -31.29296875 59.38671875 C-32.37220828 44.57062072 -32.42808667 29.45480221 -27.29296875 15.38671875 C-26.85984375 14.15501953 -26.85984375 14.15501953 -26.41796875 12.8984375 C-21.73221506 1.79069102 -11.50923118 -3.07827818 0 0 Z " fill="#F6F4F2" transform="translate(209.29296875,180.61328125)"/>
<path d="M0 0 C0.53625 0.474375 1.0725 0.94875 1.625 1.4375 C1.3125 3.3125 1.3125 3.3125 0.625 5.4375 C-2.89722892 7.78565261 -5.20126395 7.89012478 -9.375 8.4375 C-14.86553073 9.40034825 -14.86553073 9.40034825 -19.375 12.4375 C-19.44160816 14.83249786 -19.4046736 17.23084975 -19.3125 19.625 C-19.12476256 29.88716758 -19.12476256 29.88716758 -22.375 34.4375 C-25.5625 35.375 -25.5625 35.375 -28.375 35.4375 C-32.63316515 30.46964066 -33.1973892 25.67663142 -33.98046875 19.265625 C-34.21365373 16.49407079 -34.21365373 16.49407079 -35.375 14.4375 C-36.365 14.4375 -37.355 14.4375 -38.375 14.4375 C-38.87 15.9225 -38.87 15.9225 -39.375 17.4375 C-39.890625 17.2725 -40.40625 17.1075 -40.9375 16.9375 C-45.21094797 16.06089529 -48.54505763 15.44682976 -52.546875 17.61328125 C-58.86236772 22.1756803 -63.10010081 27.99603065 -67.375 34.4375 C-71.91952434 32.37180712 -74.85876404 29.77558039 -77.375 25.4375 C-78.12148329 22.35069071 -78.55125286 19.36682031 -78.85546875 16.20703125 C-79.42820664 13.15386463 -80.48203775 11.83214897 -82.375 9.4375 C-82.0625 6.6875 -82.0625 6.6875 -81.375 4.4375 C-76.72515756 5.32156511 -72.17984349 6.51019657 -67.60546875 7.71875 C-47.67763746 12.15251174 -24.82520304 10.37846507 -5.375 4.4375 C-5.375 3.4475 -5.375 2.4575 -5.375 1.4375 C-6.32375 1.31375 -7.2725 1.19 -8.25 1.0625 C-11.375 0.4375 -11.375 0.4375 -13.375 -1.5625 C-8.43392006 -2.87043293 -4.36023124 -2.86857318 0 0 Z " fill="#F9D900" transform="translate(357.375,344.5625)"/>
<path d="M0 0 C0.66 0 1.32 0 2 0 C2.556875 0.9075 3.11375 1.815 3.6875 2.75 C6.20182106 6.76501296 6.20182106 6.76501296 13 10 C13 17.59 13 25.18 13 33 C11.02 33.495 11.02 33.495 9 34 C6.96484375 32.6015625 6.96484375 32.6015625 4.9375 30.625 C2.49163406 28.26833071 1.26745798 27.08915266 -2 26 C-1.87625 27.5159375 -1.87625 27.5159375 -1.75 29.0625 C-2.06965138 34.09700921 -2.90097722 36.02689388 -6 40 C-9.75 40.9375 -9.75 40.9375 -13 41 C-16.36055646 36.51925805 -16.27429625 33.39449293 -16 28 C-16.99 28 -17.98 28 -19 28 C-19.226875 28.78375 -19.45375 29.5675 -19.6875 30.375 C-21 33 -21 33 -26 35 C-25.67 27.74 -25.34 20.48 -25 13 C-20.05 12.01 -20.05 12.01 -15 11 C-8.68459246 8.75636838 -5.1679164 6.78327124 -1.19140625 1.390625 C-0.79824219 0.93171875 -0.40507812 0.4728125 0 0 Z " fill="#FBDA00" transform="translate(285,234)"/>
<path d="M0 0 C4.81236689 2.40618344 6.37633535 6.1981232 8.09179688 11.06616211 C11.18315573 21.05241462 11.31091949 31.19095685 11.25 41.5625 C11.25714359 42.92773804 11.26495274 44.29297276 11.2734375 45.65820312 C11.27085937 46.94791016 11.26828125 48.23761719 11.265625 49.56640625 C11.26336914 50.73115479 11.26111328 51.89590332 11.25878906 53.09594727 C11 56 11 56 9 59 C5.125 58.125 5.125 58.125 4 57 C3.86502722 54.70432376 3.79619756 52.40472047 3.75390625 50.10546875 C3.72089991 48.6595007 3.68768967 47.2135373 3.65429688 45.76757812 C3.60739023 43.49491482 3.56311049 41.22225995 3.52319336 38.94946289 C3.71688063 22.23617976 3.71688063 22.23617976 -2 7 C-4.43389012 7.16522173 -4.43389012 7.16522173 -7 8 C-13.26582222 16.29326487 -11.36877887 29.29622027 -11.125 39.0625 C-11.06969006 41.74984156 -11.02038918 44.43697167 -10.9826355 47.12461853 C-10.95817402 48.78640918 -10.92301667 50.44808456 -10.87600708 52.10939026 C-10.84158583 54.07306012 -10.91165207 56.03801662 -11 58 C-11.66 58.66 -12.32 59.32 -13 60 C-16.53571429 59.46428571 -16.53571429 59.46428571 -18 58 C-18.12618459 55.24420494 -18.18871956 52.51495189 -18.203125 49.7578125 C-18.20882507 48.9196701 -18.21452515 48.08152771 -18.22039795 47.21798706 C-18.22987111 45.43407458 -18.23639107 43.65014443 -18.24023438 41.86621094 C-18.24983649 39.17089747 -18.28079258 36.47638084 -18.3125 33.78125 C-18.45290206 11.08322439 -18.45290206 11.08322439 -11 2 C-7.28533687 -0.47644209 -4.30508111 -0.6415415 0 0 Z " fill="#F4F1EF" transform="translate(346,180)"/>
<path d="M0 0 C4.455 0.99 4.455 0.99 9 2 C9.9678349 6.51201902 9.9009992 10.08593617 9.125 14.625 C8.94195312 15.73101562 8.75890625 16.83703125 8.5703125 17.9765625 C8 21 8 21 7.2421875 23.12890625 C6.7940963 25.12653426 6.7940963 25.12653426 8.1875 27.11328125 C8.785625 27.83902344 9.38375 28.56476563 10 29.3125 C10.64066406 30.09109375 11.28132812 30.8696875 11.94140625 31.671875 C14.82253796 34.93023268 17.83983942 38.01273575 21 41 C24.32759923 39.44805246 26.48580485 37.69378051 29 35 C29.66 35.33 30.32 35.66 31 36 C30.46375 36.66 29.9275 37.32 29.375 38 C27.59712106 40.24574182 25.88378003 42.5068325 24.1875 44.8125 C21.44775806 48.49577552 18.49227897 51.929086 15.41796875 55.3359375 C13.92124226 56.95775345 13.92124226 56.95775345 13 59 C12.34 59 11.68 59 11 59 C11 59.99 11 60.98 11 62 C10.34 62 9.68 62 9 62 C7.82391102 54.35957092 6.65023265 46.71877486 5.47963715 39.07750225 C4.93601693 35.52943045 4.39156477 31.98149047 3.84521484 28.43383789 C3.31806367 25.01064696 2.79309328 21.5871281 2.26963806 18.16337013 C1.97200571 16.22047152 1.67211148 14.27791985 1.37219238 12.33537292 C1.10191223 10.56387627 1.10191223 10.56387627 0.82617188 8.7565918 C0.66628784 7.71512497 0.50640381 6.67365814 0.3416748 5.60063171 C0 3 0 3 0 0 Z " fill="#F9F8F6" transform="translate(176,318)"/>
<path d="M0 0 C4.62 0 9.24 0 14 0 C14.495 1.485 14.495 1.485 15 3 C14.36964844 3.68449219 13.73929687 4.36898437 13.08984375 5.07421875 C10.09349943 9.2691008 10.44784452 12.78615188 10.5625 17.8125 C10.55541016 18.67681641 10.54832031 19.54113281 10.54101562 20.43164062 C10.60331522 26.78140707 11.31740995 33.02998959 15.75 37.9375 C18.94706326 39.44722432 21.45860972 39.93787035 25 40 C28.65520228 37.80687863 30.18987886 35.74953665 32 32 C32.99 31.67 33.98 31.34 35 31 C34.72098491 35.60374894 32.58642116 38.13222701 29.765625 41.546875 C28 43 28 43 23 44 C23 51.92 23 59.84 23 68 C22.67 68 22.34 68 22 68 C21.67 60.08 21.34 52.16 21 44 C17.535 42.515 17.535 42.515 14 41 C11.85284949 39.14542824 10.65626644 37.35892493 9 35 C9 34.34 9 33.68 9 33 C8.34 33 7.68 33 7 33 C6.73445313 33.59683594 6.46890625 34.19367188 6.1953125 34.80859375 C3.22768282 40.24924816 -2.17051208 43.61442283 -7.93359375 45.54296875 C-11.34826062 46.29819753 -14.51520133 46.18668564 -18 46 C-18 50.62 -18 55.24 -18 60 C-21.15353333 55.7952889 -21.36246719 55.14908143 -21.1875 50.25 C-21.16042969 49.26515625 -21.13335937 48.2803125 -21.10546875 47.265625 C-21.07066406 46.51796875 -21.03585937 45.7703125 -21 45 C-22.32 44.67 -23.64 44.34 -25 44 C-22.12088158 41.12088158 -19.89051361 41.72878067 -15.875 41.625 C-8.25364508 41.27350996 -3.01803794 40.09745999 2.375 34.5625 C5.9135234 28.9825208 6.380208 24.14898895 6.625 17.6875 C6.66367187 16.85154297 6.70234375 16.01558594 6.7421875 15.15429688 C6.83595159 13.10320741 6.91904245 11.05163485 7 9 C6.21367187 8.69835937 5.42734375 8.39671875 4.6171875 8.0859375 C2.01253779 7.00520225 0.60036592 6.31163967 -1 4 C-0.67 2.68 -0.34 1.36 0 0 Z " fill="#613E14" transform="translate(278,201)"/>
<path d="M0 0 C1.75 0.9375 1.75 0.9375 3.75 2.9375 C3.375 6.0625 3.375 6.0625 2.75 8.9375 C4.07 8.9375 5.39 8.9375 6.75 8.9375 C13.55769231 9.74519231 13.55769231 9.74519231 14.75 10.9375 C14.79092937 13.27047433 14.79241723 15.60455225 14.75 17.9375 C15.74 18.2675 16.73 18.5975 17.75 18.9375 C8.11538113 23.19896604 1.06224181 23.91865152 -9.1484375 20.7890625 C-11.25 19.9375 -11.25 19.9375 -13.25 17.9375 C-14.05168421 10.95139474 -14.05168421 10.95139474 -11.125 7.25 C-10.17625 6.486875 -9.2275 5.72375 -8.25 4.9375 C-7.74597656 4.45925781 -7.24195313 3.98101562 -6.72265625 3.48828125 C-2.88062514 -0.08001736 -2.88062514 -0.08001736 0 0 Z " fill="#FADA00" transform="translate(317.25,327.0625)"/>
<path d="M0 0 C3.92394744 0.52319299 5.21030167 2.49888605 7.8125 5.375 C9.97870544 6.67019995 9.97870544 6.67019995 11.8125 7.375 C11.8125 8.035 11.8125 8.695 11.8125 9.375 C19.0725 9.045 26.3325 8.715 33.8125 8.375 C33.8125 7.715 33.8125 7.055 33.8125 6.375 C38.17844146 2.90508677 42.10638984 0.34791889 47.75 0.4375 C49.77860205 1.05850063 51.79984473 1.70411491 53.8125 2.375 C53.8125 3.365 53.8125 4.355 53.8125 5.375 C34.18970363 14.67823812 6.43744487 13.91906656 -14.1875 8.375 C-15.1775 7.715 -16.1675 7.055 -17.1875 6.375 C-16.5275 6.375 -15.8675 6.375 -15.1875 6.375 C-15.1875 5.715 -15.1875 5.055 -15.1875 4.375 C-15.8475 4.045 -16.5075 3.715 -17.1875 3.375 C-11.44575184 1.22184444 -6.02024106 0.70826365 0 0 Z " fill="#623C00" transform="translate(298.1875,343.625)"/>
<path d="M0 0 C7.1216568 4.28798704 11.16209192 10.83137291 14.38671875 18.30078125 C15.78747851 20.78856593 17.252014 21.95631016 19.625 23.5 C19.4375 26.25 19.4375 26.25 18.625 29.5 C16.99239286 30.87482707 15.32274938 32.20647667 13.625 33.5 C10.72045211 38.00705708 10.2226714 41.19361204 10.625 46.5 C11.54153049 49.34398614 12.77118596 51.99620949 14.0625 54.6875 C17.48704022 62.03161299 18.8060135 67.34471679 18.8125 75.375 C18.82474609 76.16519531 18.83699219 76.95539063 18.84960938 77.76953125 C18.8612095 82.41731548 18.40374711 86.12695373 16.625 90.5 C15.635 90.005 15.635 90.005 14.625 89.5 C14.8725 87.9221875 14.8725 87.9221875 15.125 86.3125 C16.57813703 74.23864082 15.80808204 64.22381891 9.9375 53.5 C7.32783035 48.43930323 6.46897422 44.12415718 7.625 38.5 C9.60996015 33.8970806 12.24682611 30.09447342 16.625 27.5 C16.43028889 25.55000871 16.43028889 25.55000871 15.625 23.5 C11.30691701 20.69753554 7.45955454 21.56233729 2.625 22.5 C-0.29009282 23.44476554 -0.29009282 23.44476554 -2.375 24.5 C-2.3125 22.6875 -2.3125 22.6875 -1.375 20.5 C2.59373594 18.40330932 5.10938726 17.5 9.625 17.5 C6.40509155 10.02981239 2.28599761 4.74290773 -5.375 1.5 C-10.79989162 1.13221074 -15.27009418 1.78398129 -20.4921875 3.2578125 C-21.11351562 3.33773438 -21.73484375 3.41765625 -22.375 3.5 C-23.035 2.84 -23.695 2.18 -24.375 1.5 C-17.08004477 -2.57160292 -7.77793677 -3.41137578 0 0 Z " fill="#F0EDE6" transform="translate(341.375,321.5)"/>
<path d="M0 0 C0.59068881 1.36312801 1.14640366 2.74143721 1.6875 4.125 C2.00074219 4.89070313 2.31398438 5.65640625 2.63671875 6.4453125 C3 9 3 9 2.14453125 12.16015625 C-0.95077105 16.25903561 -4.09870446 16.49947063 -9 17.3125 C-10.62513045 17.62040601 -12.25013586 17.92897296 -13.875 18.23828125 C-14.59429687 18.36243408 -15.31359375 18.48658691 -16.0546875 18.61450195 C-18.20343059 18.99793053 -18.20343059 18.99793053 -21 20 C-20.33772738 18.33158243 -19.66970414 16.66544846 -19 15 C-18.54625 13.83984375 -18.0925 12.6796875 -17.625 11.484375 C-13.46618064 1.63556411 -13.46618064 1.63556411 -9.38671875 -0.1328125 C-6.18467555 -0.42011594 -3.18429679 0 0 0 Z " fill="#F8A9C6" transform="translate(300,326)"/>
<path d="M0 0 C2.3125 0 2.3125 0 5 1 C7.80941255 6.72287742 8.91107862 12.74831019 10 19 C11.32 19 12.64 19 14 19 C14.10957031 18.31292969 14.21914063 17.62585938 14.33203125 16.91796875 C14.56986328 15.56638672 14.56986328 15.56638672 14.8125 14.1875 C15.03873047 12.84751953 15.03873047 12.84751953 15.26953125 11.48046875 C16.07429804 8.74770453 16.68009895 7.63252296 19 6 C21.72507798 5.60921444 24.23121956 5.86383047 27 6 C27.66 7.32 28.32 8.64 29 10 C27.989375 10.78375 26.97875 11.5675 25.9375 12.375 C21.3681994 16.25424296 18.24650647 21.00689278 15 26 C10.45389423 23.93358829 7.52007958 21.33722896 5 17 C4.25266458 13.94602391 3.8241917 10.9950348 3.51953125 7.8671875 C2.94240689 4.68215534 1.80690677 2.65922129 0 0 Z " fill="#573205" transform="translate(275,353)"/>
<path d="M0 0 C0.33 1.32 0.66 2.64 1 4 C0.071875 4.433125 -0.85625 4.86625 -1.8125 5.3125 C-4.51745934 6.7445373 -5.9541611 7.85186916 -8 10 C-8.66 10 -9.32 10 -10 10 C-12.60018816 13.90028225 -12.15085514 17.47434569 -12 22 C-8.3321148 23.96189209 -5.12751449 25.39301257 -1 26 C-2.32 26.33 -3.64 26.66 -5 27 C-5 27.66 -5 28.32 -5 29 C-0.71 29 3.58 29 8 29 C8 29.33 8 29.66 8 30 C3.05 30 -1.9 30 -7 30 C-7 29.34 -7 28.68 -7 28 C-7.928125 27.7525 -8.85625 27.505 -9.8125 27.25 C-13 26 -13 26 -14.375 23.9375 C-15.85261132 21.7449071 -15.85261132 21.7449071 -18.48046875 21.609375 C-19.37378906 21.65578125 -20.26710938 21.7021875 -21.1875 21.75 C-22.53908203 21.80414063 -22.53908203 21.80414063 -23.91796875 21.859375 C-24.60503906 21.90578125 -25.29210937 21.9521875 -26 22 C-24.69921875 20.015625 -24.69921875 20.015625 -23 18 C-19.8125 17.75 -19.8125 17.75 -17 18 C-16.71125 17.05125 -16.4225 16.1025 -16.125 15.125 C-14.88937238 11.69270105 -13.51002776 10.49457237 -10.9375 8 C-8.94824305 6.1474289 -8.94824305 6.1474289 -8 4 C-7.01 4 -6.02 4 -5 4 C-5 3.34 -5 2.68 -5 2 C-2 0 -2 0 0 0 Z " fill="#6B4613" transform="translate(317,323)"/>
<path d="M0 0 C0.99 0.33 1.98 0.66 3 1 C1.8553125 1.804375 1.8553125 1.804375 0.6875 2.625 C-3.17739717 6.04049053 -4.82142383 9.03083577 -5.2890625 14.1875 C-4.93969346 18.79539436 -3.53961328 22.06690188 -1.5625 26.1875 C1.86204022 33.53161299 3.1810135 38.84471679 3.1875 46.875 C3.19974609 47.66519531 3.21199219 48.45539063 3.22460938 49.26953125 C3.2362095 53.91731548 2.77874711 57.62695373 1 62 C0.34 61.67 -0.32 61.34 -1 61 C-0.835 59.948125 -0.67 58.89625 -0.5 57.8125 C0.95313703 45.73864082 0.18308204 35.72381891 -5.6875 25 C-8.29532074 19.94288866 -9.16251752 15.6203603 -8 10 C-6.06437735 5.59885039 -4.01232681 2.67488454 0 0 Z " fill="#E6E1DB" transform="translate(357,350)"/>
<path d="M0 0 C3.94432682 0.52591024 5.22737572 2.44972778 7.8125 5.375 C9.12898873 6.39707398 10.4595639 7.40168521 11.8125 8.375 C2.50627889 8.79238865 -6.23223261 8.09780096 -15.1875 5.375 C-15.8475 4.715 -16.5075 4.055 -17.1875 3.375 C-11.44575184 1.22184444 -6.02024106 0.70826365 0 0 Z " fill="#F4A801" transform="translate(298.1875,343.625)"/>
<path d="M0 0 C4.62 0 9.24 0 14 0 C14.33 0.99 14.66 1.98 15 3 C13.75111384 4.44607871 12.498541 5.88942017 11.21484375 7.3046875 C9.28555641 9.99700488 9.19382918 12.76951369 9 16 C8.34 16 7.68 16 7 16 C7 13.69 7 11.38 7 9 C6.236875 8.731875 5.47375 8.46375 4.6875 8.1875 C2.08754297 7.03868178 0.61114577 6.32721056 -1 4 C-0.67 2.68 -0.34 1.36 0 0 Z " fill="#542F09" transform="translate(278,201)"/>
<path d="M0 0 C2.93576279 1.012332 3.97512741 1.96357942 5.75 4.5625 C7.30903894 8.84985708 7.27038392 12.49360134 7 17 C6.319375 16.29875 5.63875 15.5975 4.9375 14.875 C1.79219487 11.72065663 -1.5888386 8.86065696 -5 6 C-3.35 4.02 -1.7 2.04 0 0 Z " fill="#F1BACC" transform="translate(273,353)"/>
<path d="M0 0 C-0.33 1.32 -0.66 2.64 -1 4 C-2.26457031 4.27714844 -3.52914063 4.55429687 -4.83203125 4.83984375 C-6.49220605 5.20564498 -8.15236129 5.57153502 -9.8125 5.9375 C-11.06256836 6.21110352 -11.06256836 6.21110352 -12.33789062 6.49023438 C-13.14033203 6.66748047 -13.94277344 6.84472656 -14.76953125 7.02734375 C-15.87711792 7.27085571 -15.87711792 7.27085571 -17.00708008 7.51928711 C-19.18820645 8.01553608 -19.18820645 8.01553608 -22 9 C-20.92598892 6.08482708 -20.22189824 4.22189824 -18 2 C-15.13671875 1.3671875 -15.13671875 1.3671875 -11.6875 0.875 C-9.99173828 0.62363281 -9.99173828 0.62363281 -8.26171875 0.3671875 C-5.46572381 0.05242879 -2.80843941 -0.07376764 0 0 Z " fill="#EFD110" transform="translate(301,337)"/>
<path d="M0 0 C0.53625 0.474375 1.0725 0.94875 1.625 1.4375 C1.3125 3.3125 1.3125 3.3125 0.625 5.4375 C-2.82745824 7.73913882 -4.32238713 7.78240322 -8.375 7.4375 C-9.035 6.7775 -9.695 6.1175 -10.375 5.4375 C-8.725 5.1075 -7.075 4.7775 -5.375 4.4375 C-5.375 3.4475 -5.375 2.4575 -5.375 1.4375 C-6.32375 1.31375 -7.2725 1.19 -8.25 1.0625 C-11.375 0.4375 -11.375 0.4375 -13.375 -1.5625 C-8.43392006 -2.87043293 -4.36023124 -2.86857318 0 0 Z " fill="#EACB0D" transform="translate(357.375,344.5625)"/>
<path d="M0 0 C3.46941546 0.45822468 6.67395049 0.89131683 10 2 C10 2.99 10 3.98 10 5 C5.25645564 7.22656164 1.27749285 8.46148032 -4 9 C-4 8.01 -4 7.02 -4 6 C-1.36 5.34 1.28 4.68 4 4 C4 3.67 4 3.34 4 3 C2.35 2.67 0.7 2.34 -1 2 C-0.67 1.34 -0.34 0.68 0 0 Z " fill="#593302" transform="translate(342,344)"/>
<path d="M0 0 C1.98 0.495 1.98 0.495 4 1 C6.42857143 8.42857143 6.42857143 8.42857143 5 12 C2.66475218 9.74259377 0.81294927 7.7194239 -1 5 C-0.625 2.3125 -0.625 2.3125 0 0 Z " fill="#5D3802" transform="translate(319,358)"/>
<path d="M0 0 C1.98567708 0.5859375 3.97135417 1.171875 5.95703125 1.7578125 C2.39924204 5.31560171 -2.6900637 5.70949446 -7.54296875 5.8828125 C-8.36796875 5.8415625 -9.19296875 5.8003125 -10.04296875 5.7578125 C-2.56643405 -0.30424266 -2.56643405 -0.30424266 0 0 Z " fill="#E8A109" transform="translate(342.04296875,345.2421875)"/>
<path d="M0 0 C0 0.66 0 1.32 0 2 C-6.27 2.99 -12.54 3.98 -19 5 C-19 4.34 -19 3.68 -19 3 C-6.51480638 -0.44419134 -6.51480638 -0.44419134 0 0 Z " fill="#FCEDF1" transform="translate(302,335)"/>
<path d="M0 0 C0.33 1.32 0.66 2.64 1 4 C0.071875 4.433125 -0.85625 4.86625 -1.8125 5.3125 C-4.51745934 6.7445373 -5.9541611 7.85186916 -8 10 C-8.66 10 -9.32 10 -10 10 C-9.34 8.02 -8.68 6.04 -8 4 C-7.01 4 -6.02 4 -5 4 C-5 3.34 -5 2.68 -5 2 C-2 0 -2 0 0 0 Z " fill="#5F3C0F" transform="translate(317,323)"/>
<path d="M0 0 C0.66 0.33 1.32 0.66 2 1 C3.09506492 4.28519475 3.09960608 6.73663415 3.0625 10.1875 C3.05347656 11.27417969 3.04445313 12.36085938 3.03515625 13.48046875 C3.02355469 14.31191406 3.01195312 15.14335937 3 16 C0.58338 14.14206097 0.0319994 13.16868254 -0.546875 10.1171875 C-0.61390625 9.04726563 -0.6809375 7.97734375 -0.75 6.875 C-0.82734375 5.79992187 -0.9046875 4.72484375 -0.984375 3.6171875 C-0.98953125 2.75351562 -0.9946875 1.88984375 -1 1 C-0.67 0.67 -0.34 0.34 0 0 Z " fill="#E3DDD7" transform="translate(321,368)"/>
<path d="M0 0 C1 3 1 3 0.14453125 4.7890625 C-0.51482422 5.69785156 -0.51482422 5.69785156 -1.1875 6.625 C-1.61417969 7.23601562 -2.04085938 7.84703125 -2.48046875 8.4765625 C-4.26692012 10.26760629 -5.53471865 10.60935585 -8 11 C-3.8 1.9 -3.8 1.9 0 0 Z " fill="#F0EDE9" transform="translate(312,410)"/>
<path d="M0 0 C0.33 0 0.66 0 1 0 C1 1.65 1 3.3 1 5 C-2.3 5.33 -5.6 5.66 -9 6 C-8.01 4.68 -7.02 3.36 -6 2 C-2.8125 1.75 -2.8125 1.75 0 2 C0 1.34 0 0.68 0 0 Z " fill="#7F560A" transform="translate(300,339)"/>
<path d="M0 0 C0.33 0 0.66 0 1 0 C1.08107583 1.93681161 1.13922475 3.8745934 1.1875 5.8125 C1.23970703 7.43091797 1.23970703 7.43091797 1.29296875 9.08203125 C1 12 1 12 -0.51171875 13.88671875 C-1.00285156 14.25410156 -1.49398438 14.62148437 -2 15 C-2 12.36 -2 9.72 -2 7 C-1.34 7 -0.68 7 0 7 C0 4.69 0 2.38 0 0 Z " fill="#6D4E2D" transform="translate(287,210)"/>
<path d="M0 0 C0.33 0.66 0.66 1.32 1 2 C-0.45463481 2.38909985 -1.91391207 2.76088029 -3.375 3.125 C-4.18710937 3.33382813 -4.99921875 3.54265625 -5.8359375 3.7578125 C-6.55007813 3.83773438 -7.26421875 3.91765625 -8 4 C-8.66 3.34 -9.32 2.68 -10 2 C-3.375 -1.125 -3.375 -1.125 0 0 Z " fill="#E9E4E0" transform="translate(327,321)"/>
<path d="M0 0 C-2.77079887 3.80984844 -6.62868145 4.06840752 -11 5 C-10.25 3.0625 -10.25 3.0625 -9 1 C-6.05528957 -0.21850087 -3.15451555 -0.08762543 0 0 Z " fill="#673F00" transform="translate(294,342)"/>
<path d="M0 0 C0 0.99 0 1.98 0 3 C-1.98 3 -3.96 3 -6 3 C-6 2.34 -6 1.68 -6 1 C-6.66 0.67 -7.32 0.34 -8 0 C-4.94736336 -0.98120464 -3.05263664 -0.98120464 0 0 Z " fill="#704912" transform="translate(332,349)"/>
<path d="M0 0 C1.66519519 0.34060811 3.33157466 0.67558396 5 1 C5 1.33 5 1.66 5 2 C1.37 2.33 -2.26 2.66 -6 3 C-6 2.34 -6 1.68 -6 1 C-6.66 0.67 -7.32 0.34 -8 0 C-4.89377798 -0.99842851 -3.10026923 -0.93947552 0 0 Z " fill="#745637" transform="translate(329,318)"/>
<path d="M0 0 C0 3 0 3 -2.3125 5.5625 C-5 8 -5 8 -8 10 C-6.5682479 4.98886765 -4.01554307 3.05530451 0 0 Z " fill="#F5F3F1" transform="translate(306,419)"/>
<path d="M0 0 C0.66 0.33 1.32 0.66 2 1 C0.5361389 5.39158329 -1.97831338 5.87947433 -6 8 C-4.73058503 4.08597051 -3.48832306 2.20927127 0 0 Z " fill="#ECE8E4" transform="translate(218,343)"/>
<path d="M0 0 C1.45823212 -0.0270043 2.91660675 -0.04639787 4.375 -0.0625 C5.18710938 -0.07410156 5.99921875 -0.08570313 6.8359375 -0.09765625 C9 0 9 0 11 1 C10.67 1.99 10.34 2.98 10 4 C2.90178571 3.33035714 2.90178571 3.33035714 0 0 Z " fill="#E1DBD5" transform="translate(229,338)"/>
<path d="M0 0 C0.66 0 1.32 0 2 0 C2.125 3.375 2.125 3.375 2 7 C1.34 7.66 0.68 8.32 0 9 C-1.10844919 5.67465243 -0.84454356 3.37817425 0 0 Z " fill="#DAD2CA" transform="translate(357,403)"/>
<path d="M0 0 C0 0.66 0 1.32 0 2 C-2.31 2.33 -4.62 2.66 -7 3 C-7 2.01 -7 1.02 -7 0 C-3.86650268 -1.04449911 -3.01031744 -0.93423645 0 0 Z " fill="#6B4300" transform="translate(345,350)"/>
<path d="M0 0 C1.32 0.33 2.64 0.66 4 1 C4.33 2.65 4.66 4.3 5 6 C4.01 6 3.02 6 2 6 C1.855625 5.38125 1.71125 4.7625 1.5625 4.125 C1.06847775 1.96741678 1.06847775 1.96741678 0 0 Z " fill="#FBFAFA" transform="translate(356,343)"/>
</svg>
