<?xml version="1.0" encoding="UTF-8"?>
<svg version="1.1" xmlns="http://www.w3.org/2000/svg" width="512" height="512">
<path d="M0 0 C6.42600288 5.74510191 10.42386828 11.39183177 11.30859375 20.00390625 C11.94610739 36.36675639 3.36529781 49.04004099 -7 61 C-8.31946963 62.34705436 -9.64877202 63.68480477 -11 65 C-9.88145414 68.72614153 -9.88145414 68.72614153 -7 71 C-5.948125 70.690625 -4.89625 70.38125 -3.8125 70.0625 C3.60441098 67.99549202 10.01251818 69.00231696 17 72 C24.27626475 76.25505815 29.04981801 81.83490853 31.60546875 89.9140625 C33.15479878 98.10556981 32.60302805 105.94653643 28 113 C24.04996865 118.01575763 20.07579718 121.05115939 14 123 C12.68 123 11.36 123 10 123 C10.47626831 124.04957886 10.47626831 124.04957886 10.9621582 125.12036133 C12.42069655 128.34734084 13.86663788 131.57982214 15.3125 134.8125 C15.81201172 135.91271484 16.31152344 137.01292969 16.82617188 138.14648438 C21.44820625 148.5231046 24.57370279 157.94790752 24.4375 169.375 C24.42920166 170.28693115 24.42090332 171.1988623 24.41235352 172.13842773 C23.98871654 189.15777942 16.37948402 202.70500221 4.2890625 214.30078125 C2.0882456 216.25505856 0.0188133 217.58886011 -2.6640625 218.79296875 C-6.5210053 220.56178457 -9.1365598 221.84520817 -12 225 C-13.18394413 230.21004994 -12.55636642 235.54160369 -12.19921875 240.82421875 C-11.69927912 248.72441083 -14.46085569 255.09707438 -18 262 C-17.41734375 262.26296875 -16.8346875 262.5259375 -16.234375 262.796875 C-4.14639114 269.30578939 2.63384416 285.38538859 6.5859375 297.84765625 C7.16034341 300.83348318 7.11838367 303.77467277 7.1875 306.8125 C7.55548101 312.65193642 8.32418797 315.37791201 12.50390625 319.3671875 C16.85661653 324.11766504 17.61848531 331.81721785 18 338 C18.06445312 338.84433594 18.12890625 339.68867188 18.1953125 340.55859375 C18.53974752 348.65281665 17.35156421 356.0951415 11.94140625 362.3984375 C-0.39359306 373.9221974 -18.80883371 372.18883768 -34.6875 372.1875 C-35.75275909 372.18885956 -35.75275909 372.18885956 -36.83953857 372.19024658 C-38.89703351 372.18994971 -40.95426795 372.18095673 -43.01171875 372.16796875 C-44.21272217 372.16047607 -45.41372559 372.1529834 -46.65112305 372.14526367 C-49.85458757 372.00630753 -52.84454237 371.5422203 -56 371 C-57.86176851 370.90477265 -59.72577673 370.84667739 -61.58984375 370.82421875 C-62.62173828 370.80037109 -63.65363281 370.77652344 -64.71679688 370.75195312 C-66.85982477 370.70906658 -69.00311672 370.6777713 -71.14648438 370.65820312 C-77.66440886 370.48336173 -81.65771728 369.79152689 -87 366 C-87.99 365.34 -88.98 364.68 -90 364 C-90.7425 364.61875 -91.485 365.2375 -92.25 365.875 C-97.40685354 369.85984137 -101.22412322 370.30195535 -107.69140625 370.34375 C-108.5507225 370.3583728 -109.41003876 370.37299561 -110.2953949 370.38806152 C-113.05104838 370.43448668 -115.80663681 370.46862028 -118.5625 370.5 C-129.96191786 370.63366324 -141.18909044 370.98488988 -152.52090454 372.28703308 C-158.50618132 372.97221641 -164.40848217 373.34828845 -170.4375 373.3125 C-171.46609131 373.30903564 -172.49468262 373.30557129 -173.55444336 373.30200195 C-185.07420206 373.15392466 -196.56800534 372.42215259 -208.0625 371.6875 C-209.03210663 371.62873688 -210.00171326 371.56997375 -211.0007019 371.50942993 C-213.80493215 371.3360976 -216.60744093 371.14539146 -219.41015625 370.94921875 C-220.66042099 370.87397476 -220.66042099 370.87397476 -221.9359436 370.79721069 C-230.52543549 370.15280621 -237.95050703 368.10794837 -244.26953125 362.06640625 C-250.44741266 354.689207 -250.7552592 346.24902034 -250 337 C-249.10120818 328.97243472 -246.01963197 322.35905026 -239.8125 317.0625 C-237 315 -237 315 -235 314 C-235.09539062 313.10539062 -235.19078125 312.21078125 -235.2890625 311.2890625 C-236.76639891 295.17578868 -232.96090875 282.3322895 -223.0625 269.359375 C-220.29141925 266.18942656 -217.63866458 264.11042546 -214 262 C-213.34 262 -212.68 262 -212 262 C-212.48210937 261.28714844 -212.96421875 260.57429688 -213.4609375 259.83984375 C-219.21569811 251.11374755 -222.45418656 243.60285539 -221 233 C-219.63358391 229.15784744 -217.94059956 225.58317847 -216 222 C-217.06154297 221.62875 -217.06154297 221.62875 -218.14453125 221.25 C-236.60831503 213.16735867 -249.46572358 194.5224454 -256.78515625 176.45703125 C-265.80333311 150.79437362 -263.50293455 122.21024993 -252.0390625 97.71875 C-249.5261919 92.53584483 -247.02298967 87.41348695 -243.75390625 82.66015625 C-241.81651689 80.25276337 -241.81651689 80.25276337 -242 78 C-243.54287884 76.95825306 -245.13800326 75.9937241 -246.75 75.0625 C-257.09651096 68.6276377 -267.74305692 60.07616766 -271.625 48.06640625 C-273.41992081 38.17564471 -271.81658665 29.76884987 -266.3046875 21.4375 C-258.2703622 10.76843644 -247.69194994 3.23064998 -235 -1 C-224.08811261 -1.85555929 -216.47263968 -0.76310707 -207.875 6.0625 C-199.15459472 14.24653115 -195.04091712 25.0317964 -191 36 C-190.22140625 35.63648438 -189.4428125 35.27296875 -188.640625 34.8984375 C-172.73810947 27.75329803 -156.29574489 23.1603827 -139 21 C-137.89269531 20.85691406 -136.78539062 20.71382812 -135.64453125 20.56640625 C-110.52601812 18.08820946 -82.38142082 21.03188936 -59 31 C-58.98582031 30.44054687 -58.97164062 29.88109375 -58.95703125 29.3046875 C-58.27575487 17.85187922 -54.51926983 6.01041171 -46 -2 C-31.5145091 -12.69976792 -14.36297121 -10.13338459 0 0 Z " fill="#4F2A03" transform="translate(376,74)"/>
<path d="M0 0 C13.33825265 11.72966655 13.33825265 11.72966655 17.39453125 19.046875 C17.19761053 22.45360339 15.4829859 24.50382701 13.39453125 27.109375 C11.45143915 29.54291102 10.39324515 31.05073331 9.39453125 34.046875 C8.86085938 33.9025 8.3271875 33.758125 7.77734375 33.609375 C0.22082972 31.72678327 -7.03435186 30.43428828 -14.29296875 33.921875 C-21.82658726 38.65538752 -25.66218878 45.97032286 -28.02539062 54.31518555 C-29.00317679 58.91975178 -28.99966709 63.4198905 -28.91796875 68.109375 C-28.92119141 69.03814453 -28.92441406 69.96691406 -28.92773438 70.92382812 C-28.89233188 75.5100601 -28.57648803 79.42227276 -27.24609375 83.8203125 C-26.62384231 86.33876234 -26.35184258 87.50130504 -27.45385742 89.87182617 C-28.86309419 91.64387248 -30.35353826 93.1035358 -32.04296875 94.609375 C-32.56568359 95.14111328 -33.08839844 95.67285156 -33.62695312 96.22070312 C-36.60430514 99.04537042 -38.07047854 99.98806604 -42.265625 100.44921875 C-44.81733535 100.14181972 -47.16342128 99.82833019 -49.60546875 99.046875 C-49.71373164 96.6290038 -49.79286664 94.21599944 -49.85546875 91.796875 C-49.88898438 91.11496094 -49.9225 90.43304688 -49.95703125 89.73046875 C-50.02443515 86.25916788 -50.01997637 84.50780747 -47.65234375 81.875 C-46.63914062 80.97007812 -46.63914062 80.97007812 -45.60546875 80.046875 C-45.27546875 78.396875 -44.94546875 76.746875 -44.60546875 75.046875 C-49.55546875 75.376875 -54.50546875 75.706875 -59.60546875 76.046875 C-57.22793793 80.90682752 -57.22793793 80.90682752 -54.46484375 82.31640625 C-51.82811504 84.77033654 -52.04712556 86.85934625 -51.8984375 90.35351562 C-51.88425781 91.13919922 -51.87007812 91.92488281 -51.85546875 92.734375 C-51.82582031 93.53166016 -51.79617188 94.32894531 -51.765625 95.15039062 C-51.69502793 97.11534249 -51.64797167 99.08111477 -51.60546875 101.046875 C-50.78868652 101.18786621 -49.9719043 101.32885742 -49.13037109 101.47412109 C-46.07697944 102.00346813 -43.02435146 102.53697634 -39.97216797 103.07324219 C-38.01064536 103.4165928 -36.04829588 103.75520874 -34.0859375 104.09375 C-32.22001953 104.42246094 -32.22001953 104.42246094 -30.31640625 104.7578125 C-29.17478027 104.95681152 -28.0331543 105.15581055 -26.85693359 105.36083984 C-23.66466339 106.03438537 -20.67631791 106.95275788 -17.60546875 108.046875 C-18.3793136 114.70194073 -20.74391755 118.52060319 -25.60546875 123.046875 C-19.80046793 119.75214481 -17.44640357 117.13459248 -14.60546875 111.046875 C-9.16046875 114.511875 -9.16046875 114.511875 -3.60546875 118.046875 C-3.60546875 116.066875 -3.60546875 114.086875 -3.60546875 112.046875 C0.18158769 106.23057671 7.91470574 103.45272243 14.39453125 102.046875 C19.08490248 101.7495304 23.7031226 101.80031922 28.39453125 102.046875 C31.43004323 91.23286358 30.9453126 80.09619214 29.39453125 69.046875 C32.21630859 69.22973633 32.21630859 69.22973633 35.39453125 70.046875 C37.02197266 72.2331543 37.02197266 72.2331543 38.24609375 75.12109375 C38.70330811 76.17441895 39.16052246 77.22774414 39.6315918 78.31298828 C40.08961182 79.4420459 40.54763184 80.57110352 41.01953125 81.734375 C41.4988208 82.87890137 41.97811035 84.02342773 42.47192383 85.20263672 C49.95633343 103.36047644 53.64195411 119.38026723 46.18164062 138.23242188 C38.37498586 156.22840768 21.77504832 166.62442607 4.39453125 174.046875 C-37.22391669 190.2180055 -86.85102717 192.70574139 -130.60546875 185.046875 C-131.88188232 184.8300708 -131.88188232 184.8300708 -133.18408203 184.60888672 C-162.85262672 179.415885 -194.01289228 167.46220543 -212.85546875 142.796875 C-227.08504247 122.06485264 -232.13676309 96.89505553 -227.88671875 72.0859375 C-223.73646791 52.18414987 -214.53304933 34.53977235 -201.60546875 19.046875 C-200.86296875 18.15097656 -200.12046875 17.25507813 -199.35546875 16.33203125 C-179.24069557 -6.9795541 -149.52563676 -21.36160845 -119.60546875 -26.953125 C-118.54328125 -27.15808594 -117.48109375 -27.36304687 -116.38671875 -27.57421875 C-76.99291399 -34.0067657 -31.14157058 -26.21188986 0 0 Z " fill="#FEFEFD" transform="translate(346.60546875,126.953125)"/>
<path d="M0 0 C0.53254395 0.22139648 1.06508789 0.44279297 1.61376953 0.67089844 C12.29073701 5.08689402 22.78707996 9.155122 34 12 C35.29591003 12.35031782 36.59147046 12.70193088 37.88671875 13.0546875 C45.93031965 15.19867453 53.67967427 16.58794567 61.98828125 17.21484375 C65 18 65 18 66.87109375 20.2421875 C68.00312031 23.00762263 68.51639636 25.21803835 68.75 28.1875 C68.86601562 29.47720703 68.86601562 29.47720703 68.984375 30.79296875 C69 33 69 33 68 35 C67.14664063 34.9278125 66.29328125 34.855625 65.4140625 34.78125 C52.27932662 33.80630053 39.16454706 33.9020495 26 34 C26 34.66 26 35.32 26 36 C26.8657666 35.98428955 27.7315332 35.9685791 28.62353516 35.95239258 C31.9076158 35.90055249 35.19124742 35.86331158 38.47558594 35.83520508 C39.88353435 35.82033238 41.2914383 35.80002781 42.69921875 35.77368164 C67.52957367 35.32141446 67.52957367 35.32141446 75.5625 42.5625 C80.76938277 48.59622681 85.32364003 56.45281764 84.88671875 64.5703125 C83.91246318 77.33142939 83.91246318 77.33142939 89.4921875 88.28125 C94.3908254 93.86518958 93.6650271 101.55945601 93.25585938 108.54199219 C92.2673888 118.0381007 90.25079191 129.9015246 85 138 C72.78208396 147.3530407 54.72736098 145.4403786 40.14990234 145.33618164 C36.66610039 145.31277613 33.18307866 145.31561798 29.69921875 145.32226562 C18.05850951 145.30983621 6.45230759 145.00104753 -5.1640625 144.23046875 C-6.22192963 144.16998856 -7.27979675 144.10950836 -8.36972046 144.04719543 C-15.87067024 143.47862626 -22.47257225 141.96209709 -28.33984375 137.03515625 C-29.13068359 136.05869141 -29.13068359 136.05869141 -29.9375 135.0625 C-30.48277344 134.41410156 -31.02804688 133.76570312 -31.58984375 133.09765625 C-36.35495475 126.00938863 -35.90710677 117.55809055 -34.5703125 109.3671875 C-32.93942881 103.5886243 -29.71219348 98.72982094 -25 95 C-18.93854814 91.67212879 -12.7595416 90.04481643 -6 88.8125 C-5.16210938 88.64814453 -4.32421875 88.48378906 -3.4609375 88.31445312 C0.5398717 87.54959254 4.50891002 86.91549431 8.5625 86.51171875 C11.48943648 86.21488921 14.26542765 85.75100217 17.125 85.0625 C24.32006584 83.37322367 31.70205627 82.65283928 39.02880859 81.75 C40.97854819 81.50799596 42.92681265 81.25419774 44.875 81 C46.60363281 80.7834375 46.60363281 80.7834375 48.3671875 80.5625 C49.23601562 80.376875 50.10484375 80.19125 51 80 C51.33 79.34 51.66 78.68 52 78 C32.73280289 80.49180832 13.58882868 83.21848391 -5.44946289 87.11962891 C-7.25338501 87.48773682 -7.25338501 87.48773682 -9.09375 87.86328125 C-10.14240234 88.08282471 -11.19105469 88.30236816 -12.27148438 88.52856445 C-15 89 -15 89 -19 89 C-22.02189761 82.95620478 -20.64861088 72.72823768 -19.12890625 66.3359375 C-15.55461523 56.51542644 -9.93251294 46.83264544 -1 41 C2.4375 39.625 2.4375 39.625 5 39 C3.11247424 35.74926118 1.07256155 32.65285804 -1.0625 29.5625 C-5.22968803 23.28586691 -7.06832483 17.54186455 -6 10 C-4.59458306 6.12184478 -2.92258673 2.92258673 0 0 Z " fill="#8BFDCE" transform="translate(164,298)"/>
<path d="M0 0 C2 2 2 2 2.265625 4.94140625 C2.21817478 15.93799374 0.80752287 24.12824187 -4 34 C-11.09406894 33.41523944 -18.01563899 32.36766005 -25 31 C-25 31.99 -25 32.98 -25 34 C-23.9378125 34.10957031 -22.875625 34.21914063 -21.78125 34.33203125 C-10.50880057 35.56483046 -0.94737407 36.7248401 6.6796875 46.0546875 C14.01443347 55.99734314 21.38198363 68.28280224 21.125 80.875 C21.10695313 82.02742188 21.08890625 83.17984375 21.0703125 84.3671875 C21.04710937 85.23601562 21.02390625 86.10484375 21 87 C20.32122803 86.85900879 19.64245605 86.71801758 18.94311523 86.57275391 C1.40801641 82.93289256 1.40801641 82.93289256 -16.3046875 80.359375 C-19 80 -19 80 -22 79 C-22 79.99 -22 80.98 -22 82 C-20.90171875 81.96261719 -19.8034375 81.92523438 -18.671875 81.88671875 C-13.4116094 81.89018858 -8.40241238 82.82385506 -3.25 83.8125 C-1.79291626 84.08924561 -1.79291626 84.08924561 -0.30639648 84.37158203 C1.60741097 84.73997276 3.52029992 85.11317496 5.43212891 85.49169922 C7.57070891 85.91502338 9.71270892 86.32102447 11.85546875 86.72265625 C18.20932936 88.06751648 22.79268185 89.90433315 27 95 C30.92767375 101.54612292 31.23106975 107.30184618 31.3125 114.75 C31.35600586 116.05324219 31.35600586 116.05324219 31.40039062 117.3828125 C31.46941259 124.45490929 29.91127217 129.626311 25.25390625 135.0234375 C24.69574219 135.46945312 24.13757813 135.91546875 23.5625 136.375 C22.72912109 137.06722656 22.72912109 137.06722656 21.87890625 137.7734375 C16.85461843 141.05332602 11.77966638 141.58765572 5.9375 142.125 C5.03862061 142.2077417 4.13974121 142.2904834 3.21362305 142.37573242 C-4.74830398 143.02942873 -12.70078525 143.24812931 -20.6875 143.3125 C-21.85611572 143.33006348 -23.02473145 143.34762695 -24.22875977 143.36572266 C-32.57530024 143.35974333 -39.58679584 142.37989544 -46.984375 138.390625 C-49.96979726 134.84977535 -50.4752382 131.23946792 -51.25 126.75 C-51.48976563 125.51830078 -51.48976563 125.51830078 -51.734375 124.26171875 C-53.25043596 116.28976485 -54.21889091 108.36767252 -54.375 100.25 C-54.41238281 99.528125 -54.44976562 98.80625 -54.48828125 98.0625 C-54.56483229 93.19725644 -53.62978129 89.95765541 -51.4921875 85.58203125 C-47.826588 77.382287 -48.49100077 69.23034887 -48.75 60.4375 C-48.81671712 57.20717273 -48.86990895 53.97668774 -48.921875 50.74609375 C-48.93669418 49.97444382 -48.95151337 49.20279388 -48.96678162 48.40776062 C-49.04520233 43.3366574 -48.79900101 38.39406795 -48.23583984 33.34936523 C-47.86633283 29.66844801 -47.89135137 26.00794001 -47.9375 22.3125 C-47.94201172 21.59900391 -47.94652344 20.88550781 -47.95117188 20.15039062 C-47.96269426 18.43355526 -47.9806137 16.71676457 -48 15 C-44.47237985 13.70770351 -40.97819965 12.74322313 -37.3046875 11.9921875 C-24.19093372 9.31054482 -12.25847849 5.35809852 0 0 Z " fill="#8BFDCE" transform="translate(359,300)"/>
<path d="M0 0 C6.7733791 3.94835727 11.23513419 9.38794731 13.5 16.9375 C14.60092471 24.87639039 13.35841984 31.46717451 8.5 37.9375 C3.01103054 43.05909749 -3.34910954 45.14332351 -10.5 46.9375 C-11.985 47.4325 -11.985 47.4325 -13.5 47.9375 C-14.16 47.6075 -14.82 47.2775 -15.5 46.9375 C-15.005 48.7009375 -15.005 48.7009375 -14.5 50.5 C-12.30519148 60.49506324 -12.52269719 70.49140582 -16.5 79.9375 C-17.38300781 79.96328125 -18.26601563 79.9890625 -19.17578125 80.015625 C-28.57408179 80.45979817 -37.35524415 81.60485945 -45.125 87.3125 C-47.80666628 90.27644694 -48.31656477 91.99364258 -48.5 95.9375 C-52.60958767 94.48705729 -55.93258745 92.42639248 -59.5 89.9375 C-59.891875 90.824375 -60.28375 91.71125 -60.6875 92.625 C-62.58932684 96.10075249 -64.4887027 98.3778973 -67.5 100.9375 C-68.49 100.9375 -69.48 100.9375 -70.5 100.9375 C-69.84 99.6175 -69.18 98.2975 -68.5 96.9375 C-67.84 96.9375 -67.18 96.9375 -66.5 96.9375 C-64.88526115 93.27742527 -64.10645022 89.88215818 -63.5 85.9375 C-64.10884033 85.82680176 -64.71768066 85.71610352 -65.3449707 85.60205078 C-68.16748047 85.08886719 -70.98999023 84.57568359 -73.8125 84.0625 C-75.24819336 83.80146484 -75.24819336 83.80146484 -76.71289062 83.53515625 C-78.65334533 83.1823463 -80.59361147 82.82849779 -82.53369141 82.47363281 C-84.57096471 82.10541453 -86.60981528 81.74584999 -88.64990234 81.39355469 C-89.64586426 81.21985352 -90.64182617 81.04615234 -91.66796875 80.8671875 C-93.02378052 80.63491455 -93.02378052 80.63491455 -94.40698242 80.39794922 C-96.5 79.9375 -96.5 79.9375 -97.5 78.9375 C-97.6020761 75.41398433 -97.69870948 71.89608583 -97.66601562 68.37109375 C-97.72583753 64.00604101 -97.72583753 64.00604101 -99.88916016 60.38085938 C-101.39874813 59.19732111 -102.94758929 58.06428287 -104.5 56.9375 C-104.5 55.9475 -104.5 54.9575 -104.5 53.9375 C-101.61584117 52.49542059 -99.08278472 52.84355113 -95.875 52.875 C-94.68648438 52.88402344 -93.49796875 52.89304688 -92.2734375 52.90234375 C-91.35820312 52.91394531 -90.44296875 52.92554688 -89.5 52.9375 C-89.25 55.1875 -89.25 55.1875 -89.5 57.9375 C-90.14453125 58.54078125 -90.7890625 59.1440625 -91.453125 59.765625 C-94.3072447 62.79404209 -94.16762196 65.7258654 -94.25 69.6875 C-94.27964844 70.38488281 -94.30929687 71.08226562 -94.33984375 71.80078125 C-94.41018458 73.51240813 -94.45739946 75.22495815 -94.5 76.9375 C-88.96659559 77.99708808 -85.05608166 77.95867859 -80.25 74.8046875 C-77.13910564 72.08051867 -74.53055779 69.59424325 -72.5 65.9375 C-72.67002084 63.63224226 -73.22045117 61.62931173 -73.86791992 59.41137695 C-74.99663911 54.99372089 -74.82823543 50.53494976 -74.8125 46 C-74.82861328 45.07509766 -74.84472656 44.15019531 -74.86132812 43.19726562 C-74.86911918 32.07943317 -71.80449088 23.37957552 -64.5 14.9375 C-59.05756458 10.07499623 -54.35739895 8.66113295 -47.21875 8.703125 C-43.05089172 9.06242313 -39.3565057 10.37254116 -35.5 11.9375 C-35.37238281 11.32132813 -35.24476563 10.70515625 -35.11328125 10.0703125 C-34.27269054 7.14698429 -32.78813578 5.89875924 -30.5 3.9375 C-28.6875 2.9375 -28.6875 2.9375 -26.5 1.9375 C-25.55125 1.23625 -24.6025 0.535 -23.625 -0.1875 C-16.61433657 -4.18282432 -7.11765974 -3.25194136 0 0 Z " fill="#522C05" transform="translate(391.5,149.0625)"/>
<path d="M0 0 C7.90188245 5.44649525 13.61626491 13.28968156 15.82421875 22.6796875 C17.35496926 37.62793481 13.98868662 52.17872151 4.62304688 64.22460938 C-3.1912182 73.71087174 -12.37729475 82.3286427 -24.98046875 84.06640625 C-27.85941585 84.2382267 -30.34775678 84.25175118 -33.17578125 83.6796875 C-35.23828125 80.9921875 -35.23828125 80.9921875 -37.17578125 77.6796875 C-43.36211533 73.20369284 -49.80407608 72.00714428 -57.29296875 71.4296875 C-61.08615952 70.44284112 -62.10111124 68.94189487 -64.17578125 65.6796875 C-69.32915614 54.93067048 -68.16309076 42.67258006 -64.58129883 31.65966797 C-59.21205426 16.78182176 -49.2171902 4.96125822 -35.17578125 -2.3203125 C-34.55316406 -2.66191406 -33.93054688 -3.00351563 -33.2890625 -3.35546875 C-22.50022791 -8.38713781 -9.77441343 -5.93133167 0 0 Z " fill="#4F2A02" transform="translate(241.17578125,163.3203125)"/>
<path d="M0 0 C0.19625099 3.95795086 0.38051982 7.91636935 0.5625 11.875 C0.64661133 13.56689453 0.64661133 13.56689453 0.73242188 15.29296875 C0.78076172 16.36933594 0.82910156 17.44570313 0.87890625 18.5546875 C0.94960327 20.04718018 0.94960327 20.04718018 1.02172852 21.56982422 C1 24 1 24 0 26 C-0.15441209 28.10374996 -0.24992639 30.21195119 -0.31640625 32.3203125 C-0.35830078 33.57714844 -0.40019531 34.83398438 -0.44335938 36.12890625 C-0.48267578 37.44761719 -0.52199219 38.76632812 -0.5625 40.125 C-0.60569512 41.46485751 -0.64930973 42.80470156 -0.69335938 44.14453125 C-0.79970981 47.42957815 -0.90173808 50.71470281 -1 54 C-1.58910156 53.84402344 -2.17820312 53.68804687 -2.78515625 53.52734375 C-6.07870727 52.74316494 -8.62199869 52.58515773 -12 53 C-18.12273014 58.8506088 -19.30214752 64.76608193 -20.125 72.8125 C-20.21136719 73.60076172 -20.29773438 74.38902344 -20.38671875 75.20117188 C-20.59751064 77.13343084 -20.79962896 79.06663263 -21 81 C-21.33 81 -21.66 81 -22 81 C-22.09796875 79.94941406 -22.1959375 78.89882813 -22.296875 77.81640625 C-23.19758305 69.0423396 -24.02335062 61.00763255 -29.6875 53.875 C-33.54948881 52.41370694 -37.0750612 52.87081483 -41 54 C-44.48563173 56.04863767 -46.75524531 58.63286796 -49 62 C-50.9453125 62.51171875 -50.9453125 62.51171875 -53.125 62.6875 C-55.043125 62.8421875 -55.043125 62.8421875 -57 63 C-56.95359375 61.75605469 -56.9071875 60.51210938 -56.859375 59.23046875 C-56.508365 45.95615143 -57.60108438 36.44594932 -66.25 25.83984375 C-68.0435711 23.80685006 -68.0435711 23.80685006 -70.9375 22.125 C-73 20 -73 20 -73.234375 17.56640625 C-73.20386114 15.69234696 -73.12177488 13.81819224 -72.98046875 11.94921875 C-73.00417322 8.36984345 -73.97165762 5.41381517 -75 2 C-74.08276657 2.00666183 -74.08276657 2.00666183 -73.14700317 2.01345825 C-66.68868385 2.05826561 -60.23040979 2.08810012 -53.77197266 2.10986328 C-51.37286582 2.11982075 -48.9737708 2.13339158 -46.57470703 2.15087891 C-33.76359796 2.24181371 -21.18042994 2.17310484 -8.47216797 0.43310547 C-5.59126685 0.07375245 -2.89541564 -0.08871358 0 0 Z " fill="#FDA9CA" transform="translate(308,315)"/>
<path d="M0 0 C4 4.0952381 4 4.0952381 4 7 C5.98 7 7.96 7 10 7 C10 7.33 10 7.66 10 8 C8.02 8 6.04 8 4 8 C3.835 8.721875 3.67 9.44375 3.5 10.1875 C1.32484944 14.26590731 -1.84058337 16.11835914 -6 18 C-17.88535842 21.56311584 -30.36859182 21.70078611 -41.71484375 16.38671875 C-45.66608267 13.98895838 -46.78805832 12.71824679 -48.125 8.1875 C-48.33962974 5.64460419 -48.28535282 4.4380066 -46.8828125 2.28515625 C-34.39057368 -9.4599391 -13.70801668 -9.37071452 0 0 Z " fill="#FDAACB" transform="translate(204,240)"/>
<path d="M0 0 C0.66 0.66 1.32 1.32 2 2 C4.09054783 2.78716398 6.19740566 3.5313949 8.3125 4.25 C13.8917387 6.34838624 17.06034306 7.77394322 20 13 C20.625 15.5625 20.625 15.5625 20 18 C14.56737771 24.51914675 8.17539995 27.30728061 -0.14379883 28.24047852 C-10.85213859 28.89009432 -21.02891247 28.47622587 -29.83984375 21.5546875 C-31.25 20.1875 -31.25 20.1875 -33 18 C-32.05354029 13.17305546 -31.10857831 10.16530879 -26.94140625 7.1328125 C-18.1774781 2.01905161 -9.99347113 1.47479568 0 2 C0 1.34 0 0.68 0 0 Z " fill="#FDA9CA" transform="translate(375,227)"/>
<path d="M0 0 C4.59047821 2.63527453 7.99478431 6.17706863 10.375 10.9375 C11.00113739 16.5522074 10.98221884 21.66284074 7.76953125 26.46484375 C4.06808293 30.37365613 -0.17189288 31.81839286 -5.4375 32.25 C-8.625 31.9375 -8.625 31.9375 -11.625 30.9375 C-15.08291002 30.39508274 -17.52773278 30.15198953 -20.46386719 32.25390625 C-21.08938477 32.83011719 -21.71490234 33.40632813 -22.359375 34 C-23.40581177 34.95422852 -23.40581177 34.95422852 -24.47338867 35.92773438 C-25.18342041 36.59095703 -25.89345215 37.25417969 -26.625 37.9375 C-27.29571533 38.55431641 -27.96643066 39.17113281 -28.6574707 39.80664062 C-30.67796032 41.67269321 -32.68434464 43.55286304 -34.6875 45.4375 C-35.35587891 46.06269531 -36.02425781 46.68789062 -36.71289062 47.33203125 C-39.98483088 50.40364863 -43.21291236 53.50659097 -46.375 56.69140625 C-48.69314664 59.02563062 -51.044857 61.25400972 -53.5625 63.375 C-57.22331155 66.50268365 -60.51006181 69.88879664 -63.765625 73.43359375 C-65.625 74.9375 -65.625 74.9375 -69.625 74.9375 C-69.625 74.2775 -69.625 73.6175 -69.625 72.9375 C-68.12109375 71.45703125 -68.12109375 71.45703125 -66.0625 69.75 C-63.2996132 67.40470242 -60.65820243 65.02920595 -58.125 62.4375 C-55.79474555 60.06525898 -53.40395594 57.84636483 -50.875 55.6875 C-46.95514263 52.31459948 -43.33391773 48.67681219 -39.70556641 44.99853516 C-36.37937827 41.64452251 -32.93005914 38.50452202 -29.34765625 35.4296875 C-24.53550636 31.37907095 -24.53550636 31.37907095 -21.625 25.9375 C-21.66491845 22.40653167 -21.74821748 18.88777013 -21.92773438 15.36132812 C-22.05394308 10.03719057 -21.13899427 7.17589815 -17.625 2.9375 C-11.88605905 -2.01885809 -6.92842752 -2.030746 0 0 Z " fill="#F93000" transform="translate(386.625,155.0625)"/>
<path d="M0 0 C7.04640149 3.27614704 11.10891393 7.74269039 14.9375 14.37890625 C17.03800013 21.38057335 17.0691832 27.67691613 14.125 34.44140625 C10.86926373 40.31670043 5.9248758 43.19771835 0.0625 46.12890625 C-1.39022578 46.16585523 -2.84477729 46.14241455 -4.296875 46.0859375 C-5.16570312 46.06466797 -6.03453125 46.04339844 -6.9296875 46.02148438 C-8.75299788 45.96854123 -10.57600433 45.90363841 -12.3984375 45.82617188 C-21.42856046 45.64636854 -25.96113007 49.89150408 -32.25 55.81640625 C-32.81614014 56.34387451 -33.38228027 56.87134277 -33.96557617 57.41479492 C-38.02944584 61.22053137 -41.97080969 65.13609938 -45.87890625 69.1015625 C-48.53207464 71.71445509 -51.31875289 74.14116069 -54.15625 76.55078125 C-55.79026664 77.99846266 -57.22808113 79.50930726 -58.6875 81.12890625 C-59.80125 82.11890625 -59.80125 82.11890625 -60.9375 83.12890625 C-63.078125 82.75390625 -63.078125 82.75390625 -64.9375 82.12890625 C-52.25009466 69.2674359 -52.25009466 69.2674359 -45.9609375 63.93359375 C-43.34731285 61.60252311 -40.89615031 59.12056699 -38.4375 56.62890625 C-34.11017861 52.24879451 -29.67878862 48.05997467 -24.9375 44.12890625 C-24.19757813 43.39542969 -23.45765625 42.66195312 -22.6953125 41.90625 C-19.03854134 39.54954904 -16.29493835 40.05399039 -12.1875 40.62890625 C-5.59584304 41.27497098 -0.30892455 41.41184829 5.0625 37.12890625 C9.07926293 33.07406974 10.37001179 29.16305969 10.5625 23.50390625 C10.25847981 17.55497065 8.63528887 14.00751517 4.8125 9.44140625 C0.08246559 5.46387731 -4.6226498 3.50975246 -10.88671875 3.77734375 C-15.99464084 4.65298754 -19.83915827 6.9742393 -23.375 10.69140625 C-25.919644 14.66105088 -25.92700992 17.41073947 -25.66674805 22.03051758 C-25.14709525 33.42515261 -25.14709525 33.42515261 -28.625 37.44140625 C-30.02744665 38.71042174 -31.47120503 39.93423642 -32.9375 41.12890625 C-33.94648844 42.0503491 -34.94859143 42.97936378 -35.9453125 43.9140625 C-38.16587821 45.99538482 -40.40291157 48.05577691 -42.65625 50.1015625 C-45.60715489 52.79941014 -48.441978 55.59438395 -51.25 58.44140625 C-54.63737365 61.8723474 -58.11634265 65.07638292 -61.79296875 68.19140625 C-63.51789817 69.74981243 -65.12875324 71.33099393 -66.73828125 73.00390625 C-67.22627197 73.50865479 -67.7142627 74.01340332 -68.21704102 74.53344727 C-69.6272937 76.00364096 -71.02488667 77.48594667 -72.421875 78.96875 C-74.9375 81.12890625 -74.9375 81.12890625 -78.9375 81.12890625 C-77.84172771 77.84158937 -77.15945399 77.24886869 -74.5625 75.12890625 C-70.48774498 71.68216007 -66.75237711 67.97616478 -63.00634766 64.17773438 C-59.80883824 60.95480404 -56.49678369 57.95670865 -53.04296875 55.015625 C-49.38366717 51.73651059 -45.98388359 48.19228281 -42.55078125 44.6796875 C-39.9375 42.12890625 -39.9375 42.12890625 -37.21875 39.97265625 C-34.07859163 37.43472003 -32.71222812 35.02175499 -31.9375 31.12890625 C-31.93472971 28.69105172 -31.9814468 26.25291456 -32.0625 23.81640625 C-32.18787929 16.76730412 -31.33106327 11.74931177 -26.9375 6.12890625 C-19.0892017 -1.19417132 -10.55245253 -3.12925121 0 0 Z " fill="#F5F3F1" transform="translate(388.9375,147.87109375)"/>
<path d="M0 0 C2.890625 0.390625 2.890625 0.390625 4.890625 2.390625 C5.68242872 6.5475945 4.81785333 8.99581373 2.515625 12.390625 C-3.06075139 19.26903267 -12.40454855 24.43621506 -21.22753906 25.69213867 C-23.42681913 25.8276524 -25.59370232 25.85833172 -27.796875 25.828125 C-28.57853027 25.82055176 -29.36018555 25.81297852 -30.16552734 25.80517578 C-39.92301506 25.53152669 -49.09077731 23.28264864 -56.70703125 16.90625 C-58.109375 15.390625 -58.109375 15.390625 -59.296875 12.703125 C-59.109375 10.390625 -59.109375 10.390625 -58.046875 8.578125 C-55.1862351 6.82482958 -53.41836377 6.93645007 -50.109375 7.390625 C-48.07104076 8.6645839 -46.07085374 10.00124423 -44.109375 11.390625 C-35.75391477 14.85985118 -24.15673291 14.88556494 -15.546875 11.953125 C-10.88199647 9.77512569 -8.08850849 6.32660457 -5.09375 2.21875 C-3.109375 0.390625 -3.109375 0.390625 0 0 Z " fill="#FBFAF9" transform="translate(237.109375,204.609375)"/>
<path d="M0 0 C4.28474894 2.95220674 6.62476447 6.62038716 8.2734375 11.56640625 C9.0197119 18.16560415 8.81640381 23.44237247 4.81640625 28.91015625 C0.51435274 33.52805672 -4.14723217 35.04134954 -10.3359375 35.578125 C-12.91516993 35.5654817 -15.25321313 35.14645897 -17.7890625 34.69140625 C-20.63017169 34.3733066 -22.15410892 34.25384659 -24.6796875 35.6328125 C-26.82505163 37.50324551 -28.7566833 39.51132466 -30.7265625 41.56640625 C-32.29020661 43.02639773 -33.8749532 44.46130319 -35.4609375 45.89697266 C-40.67584787 50.62597538 -45.70705145 55.50493948 -50.6484375 60.51953125 C-53.87070607 63.69334465 -57.27717973 66.64335982 -60.7265625 69.56640625 C-60.7265625 66.56640625 -60.7265625 66.56640625 -59.00390625 64.5859375 C-58.23175781 63.85761719 -57.45960938 63.12929687 -56.6640625 62.37890625 C-53.76474801 59.62827455 -51.05560941 56.8201587 -48.4609375 53.78515625 C-44.58717509 49.31091612 -40.37003025 45.2806796 -36.0390625 41.25390625 C-35.29333984 40.55201172 -34.54761719 39.85011719 -33.77929688 39.12695312 C-24.70452057 30.63503489 -24.70452057 30.63503489 -20.1640625 30.31640625 C-16.7265625 30.56640625 -16.7265625 30.56640625 -13.7265625 31.56640625 C-7.80314246 32.14713371 -3.51061117 31.01436926 1.2734375 27.56640625 C4.50334403 23.32715393 4.78858763 19.14827299 4.6328125 13.96875 C4.10144702 10.41668726 2.57660438 8.26440174 0.2734375 5.56640625 C-0.1803125 4.98890625 -0.6340625 4.41140625 -1.1015625 3.81640625 C-5.0342519 0.79126055 -9.81757128 0.05788056 -14.69921875 0.1796875 C-18.36074684 0.87812928 -21.15593845 2.92630588 -23.7265625 5.56640625 C-25.51509689 8.46673229 -26.05386123 10.94245855 -26.3515625 14.31640625 C-26.42632812 15.115625 -26.50109375 15.91484375 -26.578125 16.73828125 C-26.62710938 17.3415625 -26.67609375 17.94484375 -26.7265625 18.56640625 C-27.7165625 18.89640625 -28.7065625 19.22640625 -29.7265625 19.56640625 C-30.23109962 12.60099103 -29.93452467 8.25284161 -25.7265625 2.56640625 C-17.69323591 -5.05495487 -9.38706857 -5.06901703 0 0 Z " fill="#5C320C" transform="translate(391.7265625,154.43359375)"/>
<path d="M0 0 C0.91394531 0.21914062 1.82789063 0.43828125 2.76953125 0.6640625 C6.60328344 0.88690708 10.43597679 1.0429772 14.2734375 1.1875 C17.81333462 1.67003346 19.31497673 2.12359857 21.76953125 4.6640625 C22.20703125 7.1640625 22.20703125 7.1640625 21.76953125 9.6640625 C19.45715996 12.59198237 18.85202819 12.65409308 14.890625 13.1328125 C13.3297503 13.1662431 11.76822218 13.17547889 10.20703125 13.1640625 C9.40088379 13.16341797 8.59473633 13.16277344 7.76416016 13.16210938 C1.19887576 12.99840633 -3.80242719 11.48278521 -9.23046875 7.6640625 C-7.87644896 3.60200314 -4.70774921 -0.70904804 0 0 Z " fill="#F7F6F4" transform="translate(352.23046875,213.3359375)"/>
<path d="M0 0 C2.3309055 3.49635825 2.03923437 4.24200263 1.625 8.25 C1.49785476 12.44317557 1.49785476 12.44317557 3.5625 15.92578125 C4.96520688 17.03891417 6.38823587 18.12680737 7.828125 19.19140625 C13.26765124 23.72108368 16.85153406 31.10920433 18 38 C18.14423346 42.67213393 18.11664838 47.32758437 18 52 C15.72017037 50.21604843 15.05044284 49.34885204 14.62890625 46.43359375 C14.60699219 45.44488281 14.58507812 44.45617187 14.5625 43.4375 C13.91716416 33.68706211 10.74166165 26.26098955 3.82470703 19.22143555 C-4.74653824 12.4807475 -18.87393828 13.48430409 -29.375 13.3125 C-30.80471629 13.27920924 -32.23440496 13.2447095 -33.6640625 13.20898438 C-37.10917088 13.12545779 -40.55435646 13.05803662 -44 13 C-44 12.34 -44 11.68 -44 11 C-38.83989103 9.95628864 -33.86592497 9.80847934 -28.625 9.8125 C-27.31837402 9.8115332 -27.31837402 9.8115332 -25.98535156 9.81054688 C-17.87637796 9.87553683 -10.00782472 10.74737937 -2 12 C-2 8.7 -2 5.4 -2 2 C-1.34 2 -0.68 2 0 2 C0 1.34 0 0.68 0 0 Z " fill="#5D3C18" transform="translate(234,321)"/>
<path d="M0 0 C-0.33 0.99 -0.66 1.98 -1 3 C-2.08007324 3.14622803 -3.16014648 3.29245605 -4.27294922 3.44311523 C-8.27279126 3.98559526 -12.27198428 4.53273493 -16.27099609 5.08129883 C-18.0032438 5.31825264 -19.73566587 5.5539354 -21.46826172 5.78833008 C-23.95587133 6.12509005 -26.44282202 6.4663875 -28.9296875 6.80859375 C-30.09538773 6.96490517 -30.09538773 6.96490517 -31.28463745 7.12437439 C-35.26550507 7.62688269 -35.26550507 7.62688269 -39 9 C-41.20362497 9.34413566 -43.41314924 9.65095402 -45.625 9.9375 C-49.69079774 10.49154826 -53.6591249 11.06593108 -57.625 12.125 C-61 13 -61 13 -65 13 C-65 12.34 -65 11.68 -65 11 C-65.66 10.67 -66.32 10.34 -67 10 C-36.729049 3.97562476 -36.729049 3.97562476 -24.6875 2.1875 C-23.93887695 2.07623779 -23.19025391 1.96497559 -22.41894531 1.8503418 C-14.99030491 0.79186983 -7.5147347 -0.19775618 0 0 Z " fill="#55431A" transform="translate(216,376)"/>
<path d="M0 0 C1.18851562 0.00902344 2.37703125 0.01804688 3.6015625 0.02734375 C4.51679688 0.03894531 5.43203125 0.05054688 6.375 0.0625 C6.625 2.3125 6.625 2.3125 6.375 5.0625 C5.73046875 5.66578125 5.0859375 6.2690625 4.421875 6.890625 C1.5677553 9.91904209 1.70737804 12.8508654 1.625 16.8125 C1.59535156 17.50988281 1.56570313 18.20726562 1.53515625 18.92578125 C1.46481542 20.63740813 1.41760054 22.34995815 1.375 24.0625 C4.675 24.3925 7.975 24.7225 11.375 25.0625 C10.385 25.3925 9.395 25.7225 8.375 26.0625 C8.375 26.7225 8.375 27.3825 8.375 28.0625 C6.89531676 27.92200482 5.41625484 27.77495174 3.9375 27.625 C3.11378906 27.54378906 2.29007812 27.46257812 1.44140625 27.37890625 C-0.625 27.0625 -0.625 27.0625 -1.625 26.0625 C-1.7270761 22.53898433 -1.82370948 19.02108583 -1.79101562 15.49609375 C-1.85083753 11.13104101 -1.85083753 11.13104101 -4.01416016 7.50585938 C-5.52374813 6.32232111 -7.07258929 5.18928287 -8.625 4.0625 C-8.625 3.0725 -8.625 2.0825 -8.625 1.0625 C-5.74084117 -0.37957941 -3.20778472 -0.03144887 0 0 Z " fill="#56320C" transform="translate(295.625,201.9375)"/>
<path d="M0 0 C0.8861499 0.00265869 1.7722998 0.00531738 2.68530273 0.00805664 C18.30054104 0.12101368 18.30054104 0.12101368 24.3125 2.125 C24.3125 3.115 24.3125 4.105 24.3125 5.125 C23.15878906 4.97160156 22.00507813 4.81820313 20.81640625 4.66015625 C13.65306915 3.86422991 6.4490016 3.76381896 -0.75 3.5625 C-2.2024839 3.51921245 -3.65495801 3.47559526 -5.10742188 3.43164062 C-8.63400991 3.32562746 -12.16070935 3.22407252 -15.6875 3.125 C-15.6875 2.465 -15.6875 1.805 -15.6875 1.125 C-10.42268694 0.04283614 -5.34766994 -0.02856501 0 0 Z " fill="#55431A" transform="translate(205.6875,330.875)"/>
<path d="M0 0 C26.9576474 2.96248351 26.9576474 2.96248351 39 6 C38.34 6.33 37.68 6.66 37 7 C37 7.66 37 8.32 37 9 C36.36473389 8.88027832 35.72946777 8.76055664 35.07495117 8.63720703 C27.50863395 7.23384844 19.92050863 6.02837582 12.3125 4.875 C11.12205078 4.69324219 9.93160156 4.51148438 8.70507812 4.32421875 C5.80359427 3.88142202 2.90190279 3.44004132 0 3 C0 2.01 0 1.02 0 0 Z " fill="#56441C" transform="translate(337,379)"/>
<path d="M0 0 C0.99 0.33 1.98 0.66 3 1 C3.30263054 6.1447192 2.92574244 8.78462109 0 13 C-6.63801232 20.33364772 -14.03823626 27.12513028 -22 33 C-20.63260163 29.91850324 -19.08922579 27.86925068 -16.6640625 25.5390625 C-16.01179688 24.90226562 -15.35953125 24.26546875 -14.6875 23.609375 C-13.32046035 22.29411715 -11.95327456 20.97901117 -10.5859375 19.6640625 C-3.30713297 12.82256842 -3.30713297 12.82256842 -0.25 3.625 C-0.1675 2.42875 -0.085 1.2325 0 0 Z " fill="#5A2901" transform="translate(363,173)"/>
<path d="M0 0 C0.66 0.33 1.32 0.66 2 1 C1.06027344 1.90492188 1.06027344 1.90492188 0.1015625 2.828125 C-0.71570313 3.62734375 -1.53296875 4.4265625 -2.375 5.25 C-3.18710937 6.03890625 -3.99921875 6.8278125 -4.8359375 7.640625 C-6.796258 9.77786973 -7.7761698 11.42788228 -9 14 C-10.5859375 15.921875 -10.5859375 15.921875 -12.375 17.75 C-12.96023438 18.36359375 -13.54546875 18.9771875 -14.1484375 19.609375 C-16 21 -16 21 -20 21 C-18.90422771 17.71268312 -18.22195399 17.11996244 -15.625 15 C-10.09342288 10.32330298 -5.0753467 5.15931384 0 0 Z " fill="#E8E3DE" transform="translate(330,208)"/>
<path d="M0 0 C4.01208627 -0.47762932 5.71549035 -0.17851586 9.1875 2 C12.49444542 5.04655602 14.01621951 8.65928432 15 13 C15 14.32 15 15.64 15 17 C14.34 17 13.68 17 13 17 C12.67 18.32 12.34 19.64 12 21 C12 17.7 12 14.4 12 11 C11.34 11 10.68 11 10 11 C9.608125 10.05125 9.21625 9.1025 8.8125 8.125 C6.74448695 4.55946025 5.76177199 4.253924 2 3 C1.34 2.01 0.68 1.02 0 0 Z " fill="#613617" transform="translate(270,367)"/>
<path d="M0 0 C0.66 0.33 1.32 0.66 2 1 C1.24074219 1.73605469 0.48148437 2.47210938 -0.30078125 3.23046875 C-1.30495521 4.2158731 -2.30884654 5.20156552 -3.3125 6.1875 C-3.81201172 6.67025391 -4.31152344 7.15300781 -4.82617188 7.65039062 C-7.04076506 9.83565145 -8.93145415 11.88529061 -10.53125 14.5625 C-12.34565072 17.57363311 -14.54117161 19.50985062 -17.1875 21.8125 C-18.53908203 22.99779297 -18.53908203 22.99779297 -19.91796875 24.20703125 C-20.60503906 24.79871094 -21.29210937 25.39039063 -22 26 C-22.66 25.67 -23.32 25.34 -24 25 C-22.82244141 23.83984375 -22.82244141 23.83984375 -21.62109375 22.65625 C-16.3888056 17.47729302 -11.24594404 12.29992573 -6.46875 6.69140625 C-4.42440477 4.33714698 -2.23766801 2.16985989 0 0 Z " fill="#5C300A" transform="translate(351,192)"/>
<path d="M0 0 C0 0.33 0 0.66 0 1 C-1.98 1.33 -3.96 1.66 -6 2 C-5.67 2.66 -5.34 3.32 -5 4 C-5.62390625 4.53109375 -6.2478125 5.0621875 -6.890625 5.609375 C-9.40567212 8.45976173 -9.94794961 10.56056821 -10.75 14.25 C-10.99234375 15.32765625 -11.2346875 16.4053125 -11.484375 17.515625 C-11.65453125 18.33546875 -11.8246875 19.1553125 -12 20 C-13.50390625 18.73828125 -13.50390625 18.73828125 -15 17 C-14.90282224 11.0721567 -13.74317735 7.73401842 -10 3 C-9.566875 2.38125 -9.13375 1.7625 -8.6875 1.125 C-5.93940904 -0.70706064 -3.19562441 -0.1808844 0 0 Z " fill="#66391B" transform="translate(303,367)"/>
<path d="M0 0 C4.52148915 4.52148915 4.125 10.39169355 4.125 16.4375 C4.0930633 18.62516369 4.05460454 20.81278471 4 23 C1.66617545 21.18410978 1.04508588 20.25610255 0.5234375 17.29296875 C0.47445312 16.26816406 0.42546875 15.24335938 0.375 14.1875 C0.18061349 10.83838243 -0.05412219 7.68609132 -0.625 4.375 C-1 2 -1 2 0 0 Z " fill="#663D1F" transform="translate(248,350)"/>
<path d="M0 0 C0.33 0 0.66 0 1 0 C0.67 8.91 0.34 17.82 0 27 C-0.33 27 -0.66 27 -1 27 C-1.33 21.72 -1.66 16.44 -2 11 C-2.33 11 -2.66 11 -3 11 C-3.32434322 6.35108046 -2.776422 3.77593392 0 0 Z " fill="#635A34" transform="translate(310,336)"/>
<path d="M0 0 C0.99 0.33 1.98 0.66 3 1 C-2.40221402 10.12177122 -2.40221402 10.12177122 -6 13 C-6.99 13 -7.98 13 -9 13 C-8.34 11.68 -7.68 10.36 -7 9 C-6.34 9 -5.68 9 -5 9 C-4.5978125 7.88625 -4.5978125 7.88625 -4.1875 6.75 C-3.05770579 4.13363446 -1.79106798 2.19812889 0 0 Z " fill="#5D3A16" transform="translate(330,237)"/>
<path d="M0 0 C1.32 0.66 2.64 1.32 4 2 C0.4912812 5.09592835 -2.49197399 6.74194623 -7 8 C-5.50902342 4.2047869 -3.24299151 2.38957269 0 0 Z M-13 9 C-8.25 8.875 -8.25 8.875 -6 10 C-6 10.66 -6 11.32 -6 12 C-7.32 12 -8.64 12 -10 12 C-10 11.34 -10 10.68 -10 10 C-10.99 9.67 -11.98 9.34 -13 9 Z " fill="#633719" transform="translate(267,368)"/>
<path d="M0 0 C2.64745321 0.28056438 5.29237964 0.57385631 7.9375 0.875 C8.69224609 0.95363281 9.44699219 1.03226562 10.22460938 1.11328125 C12.15919299 1.33883808 14.08176019 1.66258974 16 2 C16.33 2.66 16.66 3.32 17 4 C11.22240116 4.12036664 5.72040011 3.8320582 0 3 C0 2.01 0 1.02 0 0 Z " fill="#51330B" transform="translate(337,379)"/>
<path d="M0 0 C3.63 0.33 7.26 0.66 11 1 C10.01 1.495 10.01 1.495 9 2 C9 2.66 9 3.32 9 4 C6.03 3.67 3.06 3.34 0 3 C0 2.01 0 1.02 0 0 Z " fill="#584B22" transform="translate(334,331)"/>
<path d="M0 0 C2.1640625 -0.29296875 2.1640625 -0.29296875 4.625 -0.1875 C5.44226563 -0.16042969 6.25953125 -0.13335937 7.1015625 -0.10546875 C8.04128906 -0.05326172 8.04128906 -0.05326172 9 0 C9 0.66 9 1.32 9 2 C6.24921116 2.91692961 4.64051087 3.10886083 1.8125 3.0625 C-0.0746875 3.0315625 -0.0746875 3.0315625 -2 3 C-1.34 2.01 -0.68 1.02 0 0 Z " fill="#533B12" transform="translate(180,380)"/>
<path d="M0 0 C3.3 0.33 6.6 0.66 10 1 C9.01 1.33 8.02 1.66 7 2 C7 2.66 7 3.32 7 4 C4.03 3.67 1.06 3.34 -2 3 C-1.34 2.67 -0.68 2.34 0 2 C0 1.34 0 0.68 0 0 Z " fill="#6B4C2B" transform="translate(297,226)"/>
<path d="M0 0 C0 0.99 0 1.98 0 3 C-2.31 3.33 -4.62 3.66 -7 4 C-7 3.34 -7 2.68 -7 2 C-7.99 1.67 -8.98 1.34 -10 1 C-6.59437148 0.22157062 -3.49234244 -0.09978121 0 0 Z " fill="#5B582E" transform="translate(179,381)"/>
<path d="M0 0 C0.78890625 0.12761719 1.5778125 0.25523437 2.390625 0.38671875 C3.18984375 0.50660156 3.9890625 0.62648438 4.8125 0.75 C5.41578125 0.85699219 6.0190625 0.96398437 6.640625 1.07421875 C5.650625 1.56921875 5.650625 1.56921875 4.640625 2.07421875 C4.640625 2.73421875 4.640625 3.39421875 4.640625 4.07421875 C1.010625 3.74421875 -2.619375 3.41421875 -6.359375 3.07421875 C-2.359375 0.07421875 -2.359375 0.07421875 0 0 Z " fill="#595127" transform="translate(355.359375,380.92578125)"/>
<path d="M0 0 C0.99 0 1.98 0 3 0 C4.35439668 2.70879335 4.06501451 5.00933268 4 8 C3.01 8 2.02 8 1 8 C0.67 5.36 0.34 2.72 0 0 Z " fill="#5D3A17" transform="translate(308,329)"/>
<path d="M0 0 C0.99 0.33 1.98 0.66 3 1 C2.01 2.98 1.02 4.96 0 7 C-0.99 6.67 -1.98 6.34 -3 6 C-1.125 1.125 -1.125 1.125 0 0 Z " fill="#664523" transform="translate(330,237)"/>
<path d="M0 0 C0.33 0 0.66 0 1 0 C1.33 3.3 1.66 6.6 2 10 C1.01 10 0.02 10 -1 10 C-0.67 6.7 -0.34 3.4 0 0 Z " fill="#642A01" transform="translate(397,169)"/>
<path d="M0 0 C0.33 0.66 0.66 1.32 1 2 C-1.625 5.875 -1.625 5.875 -5 7 C-3.75023244 3.34683329 -3.32901247 2.21934164 0 0 Z " fill="#5F3D19" transform="translate(361,153)"/>
</svg>
