<?xml version="1.0" encoding="UTF-8"?>
<svg version="1.1" xmlns="http://www.w3.org/2000/svg" width="512" height="512">
<path d="M0 0 C1.09441406 0.40025391 1.09441406 0.40025391 2.2109375 0.80859375 C9.12768884 3.78995209 13.30020332 8.98423169 16.9375 15.4375 C22.62568326 33.71839084 13.99097706 51.97198838 6 68 C6.56460937 68.24363281 7.12921875 68.48726563 7.7109375 68.73828125 C20.84557166 75.97801987 28.86870229 92.33517675 35.11083984 105.29711914 C39.15686761 113.57861063 44.75518433 120.47019869 50.53417969 127.59619141 C63.31170104 143.38964705 70.26694429 158.18926697 69 179 C67.16003078 192.20723671 61.55350881 202.92586741 53 213 C52.50242187 213.64195312 52.00484375 214.28390625 51.4921875 214.9453125 C45.35717022 222.56013294 37.09733976 228.60177349 29 234 C30.02738281 234.3403125 31.05476563 234.680625 32.11328125 235.03125 C41.17063689 238.15118848 48.64041573 241.68826274 56 248 C56.67675781 248.5775 57.35351562 249.155 58.05078125 249.75 C64.78265546 255.97734403 68.38515649 262.66627369 69.0546875 271.8359375 C69 274 69 274 68 277 C68.60360352 277.06993164 69.20720703 277.13986328 69.82910156 277.21191406 C101.6489719 280.98468557 101.6489719 280.98468557 110 290 C121.54392164 307.82894565 118.0641111 334.98382644 115 355 C114.68287815 356.3372818 114.35395052 357.67199099 114 359 C114.63502441 358.98428955 115.27004883 358.9685791 115.92431641 358.95239258 C118.8244523 358.8897141 121.72444524 358.85090583 124.625 358.8125 C126.12353516 358.77479492 126.12353516 358.77479492 127.65234375 358.73632812 C134.24665754 358.6708217 138.42863813 359.37244412 143.84765625 363.359375 C146.38426505 366.97081804 145.51111738 371.8170624 145 376 C142.8101434 383.16179518 136.38847481 388.08078256 130.1171875 391.6328125 C113.73797111 399.64132371 95.93350051 403.28042399 78 399 C75.59406214 398.11653619 73.33298946 397.06928683 71 396 C68.20659843 395.74609778 68.20659843 395.74609778 66 396 C65.6596875 397.11375 65.6596875 397.11375 65.3125 398.25 C63.47907322 402.09146563 60.77023176 404.11488412 57 406 C55.66401752 406.15007974 54.32157306 406.24480999 52.97875977 406.30981445 C52.13788315 406.35083786 51.29700653 406.39186127 50.4306488 406.43412781 C49.50607376 406.47262344 48.58149872 406.51111908 47.62890625 406.55078125 C46.65595108 406.59262039 45.68299591 406.63445953 44.68055725 406.67756653 C32.10306104 407.17122749 19.52303652 407.19778756 6.9375 407.1875 C5.68330261 407.18722809 4.42910522 407.18695618 3.13690186 407.18667603 C-14.96916734 407.16862742 -32.99047857 407.06991307 -51 405 C-51.89557617 404.89816406 -52.79115234 404.79632813 -53.71386719 404.69140625 C-85.60613761 400.84295351 -85.60613761 400.84295351 -95 392 C-98.42478695 386.73216837 -100.04361775 380.90810715 -101.47265625 374.85546875 C-101.68184189 374.00503494 -101.89102753 373.15460114 -102.10655212 372.27839661 C-102.76754107 369.58353376 -103.41545434 366.88574089 -104.0625 364.1875 C-104.9256301 360.63864956 -105.7932768 357.09090493 -106.66015625 353.54296875 C-106.86540924 352.69999237 -107.07066223 351.85701599 -107.28213501 350.98849487 C-108.82780868 340.76582282 -108.82780868 340.76582282 -113 332 C-113.17681808 332.62116699 -113.35363617 333.24233398 -113.53581238 333.88232422 C-115.38691195 340.37594815 -117.25547671 346.86436491 -119.1340332 353.35009766 C-119.83184108 355.76776343 -120.52526063 358.18670047 -121.21411133 360.60693359 C-122.20790095 364.09560157 -123.21764446 367.5793172 -124.23046875 371.0625 C-124.53276901 372.13677246 -124.83506927 373.21104492 -125.14653015 374.31787109 C-127.4711103 382.22671211 -130.45265737 389.30956248 -136.8125 394.8125 C-137.41707031 395.35519531 -138.02164063 395.89789063 -138.64453125 396.45703125 C-145.88614247 401.20070693 -152.71297363 401.44506574 -161.12890625 401.3984375 C-162.27737534 401.40130768 -163.42584442 401.40417786 -164.6091156 401.40713501 C-167.02709448 401.40916875 -169.44509007 401.40368744 -171.86303711 401.39111328 C-175.55424904 401.37503594 -179.2443685 401.39099406 -182.93554688 401.41015625 C-185.29166907 401.40817398 -187.64779059 401.40433066 -190.00390625 401.3984375 C-191.10199112 401.40451019 -192.20007599 401.41058289 -193.33143616 401.4168396 C-199.32272781 401.36208573 -203.74260683 400.96589063 -209 398 C-213.75425263 392.87041163 -214.30001034 389.5807921 -214.2109375 382.7578125 C-213.81225488 377.54540638 -211.91956947 374.89867017 -208.25 371.3125 C-199.73301254 365.25233585 -191.20098905 364.8539196 -181.125 364.4375 C-180.15046875 364.39431641 -179.1759375 364.35113281 -178.171875 364.30664062 C-175.78137198 364.20117726 -173.39077556 364.09905825 -171 364 C-170.74801346 363.01329819 -170.49602692 362.02659637 -170.23640442 361.00999451 C-167.85486353 351.69278895 -165.457543 342.37976788 -163.04488087 333.07057095 C-161.80513167 328.28495682 -160.57090489 323.49806111 -159.34936523 318.70776367 C-158.16938407 314.08129498 -156.97481159 309.45881773 -155.77020836 304.83870125 C-155.3141333 303.07908399 -154.8632518 301.31811183 -154.41776466 299.55578423 C-153.79083714 297.0794992 -153.1452842 294.60876191 -152.49536133 292.13842773 C-152.3169722 291.41553558 -152.13858307 290.69264343 -151.95478821 289.94784546 C-149.85770315 282.14814553 -145.95596544 277.04416595 -139 273 C-140.8871875 272.58041016 -140.8871875 272.58041016 -142.8125 272.15234375 C-159.21911406 268.36806091 -173.40720894 263.1843885 -187 253 C-187.71414062 252.47019531 -188.42828125 251.94039062 -189.1640625 251.39453125 C-206.65585523 237.28262676 -216.9065264 213.46569845 -219.71875 191.58984375 C-221.19873202 172.69951773 -219.23418355 154.91141061 -213 137 C-214.60875 136.4121875 -214.60875 136.4121875 -216.25 135.8125 C-244.94758326 124.962177 -244.94758326 124.962177 -251.66015625 111.7265625 C-254.63535185 103.45152867 -254.15849784 93.86118021 -251 85.6875 C-244.69481035 72.59757107 -235.54281424 61.60475261 -222 56 C-214.57489321 53.5249644 -206.83965526 54.65657109 -199.6953125 57.546875 C-190.08048165 62.73052294 -181.38569145 72.57915746 -176 82 C-172.17603246 80.30253148 -168.96900784 77.84726343 -165.625 75.375 C-136.9006987 54.60130902 -102.73796968 43.73543807 -67.3125 43.875 C-66.31927734 43.87113281 -65.32605469 43.86726563 -64.30273438 43.86328125 C-59.09322044 43.87020419 -54.13247757 44.09553542 -49 45 C-49.02618408 44.33581055 -49.05236816 43.67162109 -49.0793457 42.98730469 C-49.92498448 18.29893398 -49.92498448 18.29893398 -44 9 C-43.6390625 8.38511719 -43.278125 7.77023438 -42.90625 7.13671875 C-33.70722278 -6.10330972 -13.19015961 -4.83639186 0 0 Z " fill="#4F2901" transform="translate(310,54)"/>
<path d="M0 0 C0.65730103 0.00215515 1.31460205 0.0043103 1.99182129 0.00653076 C31.90445807 0.16343108 59.9015462 8.80218456 81.90234375 29.71484375 C89.65780062 37.89453074 94.95486559 47.47867292 100.03735352 57.44311523 C104.38968563 65.95695349 109.01551393 73.1173818 115.375 80.3125 C128.61514587 96.26178341 135.8863924 111.26610372 134.375 132.3125 C132.18313709 147.89465269 123.30214432 159.70287015 112.375 170.3125 C111.37339844 171.31023437 111.37339844 171.31023437 110.3515625 172.328125 C99.68719746 182.29395084 86.49338407 189.19614215 73.375 195.3125 C72.69131348 195.63959961 72.00762695 195.96669922 71.30322266 196.30371094 C51.2282296 205.88995267 29.96739193 212.1561079 8.375 217.3125 C7.54129883 217.51359375 6.70759766 217.7146875 5.84863281 217.921875 C-30.54906159 226.56504992 -73.43527209 228.00533499 -106.625 208.3125 C-127.01558592 194.72693555 -140.77015682 174.47468106 -145.625 150.3125 C-151.30281257 119.28730987 -143.0732028 88.9385745 -125.84765625 63.05761719 C-122.16672005 57.80375697 -117.97485378 53.01708191 -113.625 48.3125 C-113.15723145 47.80090332 -112.68946289 47.28930664 -112.20751953 46.76220703 C-89.80524492 22.51422493 -58.88144059 7.99879931 -26.625 2.3125 C-25.74473145 2.13807373 -24.86446289 1.96364746 -23.95751953 1.78393555 C-15.94264513 0.2827305 -8.14342546 -0.03645688 0 0 Z " fill="#FEFDFD" transform="translate(240.625,101.6875)"/>
<path d="M0 0 C5.48538091 2.89740633 10.28884266 6.35386066 15 10.375 C11.87665644 12.06249368 8.76989758 13.10384347 5.375 14.125 C-2.5055188 16.76146172 -9.79272544 19.4500675 -14.125 26.9375 C-16.92732897 33.54940074 -17.53853653 41.08954848 -15.08984375 47.91015625 C-14.14451904 49.77708785 -13.08161234 51.58357957 -12 53.375 C-12 54.035 -12 54.695 -12 55.375 C-11.4225 55.66375 -10.845 55.9525 -10.25 56.25 C-8 57.375 -8 57.375 -6.359375 58.43359375 C-2.94702673 59.79514331 0.38588393 59.62469946 4 59.5625 C4.7115625 59.56185547 5.423125 59.56121094 6.15625 59.56054688 C9.56855376 59.5318988 12.73882668 59.43657986 16 58.375 C16.2165625 59.550625 16.2165625 59.550625 16.4375 60.75 C16.87798925 63.33921018 16.87798925 63.33921018 18 65.375 C19.13842389 72.36078294 17.8247971 77.78967696 14.75 84 C14.45029297 84.61584961 14.15058594 85.23169922 13.84179688 85.86621094 C11.5596887 90.17120693 11.5596887 90.17120693 9.20507812 91.02856445 C6.72396923 91.41836666 4.30682944 91.58925694 1.796875 91.69140625 C0.8171875 91.73330078 -0.1625 91.77519531 -1.171875 91.81835938 C-2.18765625 91.85767578 -3.2034375 91.89699219 -4.25 91.9375 C-5.796875 92.00227539 -5.796875 92.00227539 -7.375 92.06835938 C-9.9165387 92.17425682 -12.45817196 92.27633443 -15 92.375 C-15 92.705 -15 93.035 -15 93.375 C-15.72503723 93.36833817 -16.45007446 93.36167633 -17.19708252 93.35481262 C-24.08044883 93.29432415 -30.96377464 93.24883578 -37.84733963 93.21956348 C-41.38499683 93.20400756 -44.92243166 93.18295763 -48.45996094 93.14868164 C-52.54103546 93.10939338 -56.62188195 93.09520774 -60.703125 93.08203125 C-61.95361633 93.06654739 -63.20410767 93.05106354 -64.49249268 93.03511047 C-73.2237353 93.03346224 -83.39116667 93.19590959 -90.625 98.75 C-92.91200367 101.2777409 -94.07002478 103.12008673 -95 106.375 C-95.66 106.375 -96.32 106.375 -97 106.375 C-99.26858827 113.64735389 -101.20645194 120.97184417 -103 128.375 C-103.33 128.375 -103.66 128.375 -104 128.375 C-104.07186523 127.63338623 -104.14373047 126.89177246 -104.21777344 126.12768555 C-105.1450649 118.30525364 -106.80134084 110.9164244 -108.890625 103.33203125 C-109.15967651 102.34975555 -109.42872803 101.36747986 -109.70593262 100.35543823 C-110.83313883 96.26219326 -111.96920954 92.17189551 -113.13378906 88.08911133 C-113.99034652 85.0713015 -114.81731498 82.04655481 -115.640625 79.01953125 C-116.04042572 77.66127983 -116.04042572 77.66127983 -116.44830322 76.27558899 C-118.26654146 69.47551104 -117.72210397 64.15627956 -116 57.375 C-115.71898437 56.2096875 -115.43796875 55.044375 -115.1484375 53.84375 C-114.76558594 52.37421875 -114.76558594 52.37421875 -114.375 50.875 C-112.4520044 42.56174212 -111.42437141 35.03818816 -115.63671875 27.32421875 C-117.59275011 24.52748623 -119.78895035 21.97472505 -122 19.375 C-120.96166016 19.31554199 -120.96166016 19.31554199 -119.90234375 19.25488281 C-87.28979553 17.31059058 -54.88328948 12.05956793 -24.44360352 -0.2355957 C-14.76500279 -4.10452296 -9.51359119 -4.42214666 0 0 Z " fill="#FEA9CB" transform="translate(317,308.625)"/>
<path d="M0 0 C6.39206507 6.61443891 5.29802737 18.31218025 5.1875 26.875 C5.17887939 27.94911133 5.17025879 29.02322266 5.16137695 30.12988281 C5.12527236 33.420489 5.06724597 36.70989226 5 40 C4.98066406 41.02834961 4.96132813 42.05669922 4.94140625 43.11621094 C4.87769832 45.99524724 4.78895078 48.87206883 4.6875 51.75 C4.66518311 52.61222168 4.64286621 53.47444336 4.61987305 54.36279297 C4.41435083 58.98820258 4.08714398 62.31996081 1 66 C-3.0205797 68.97612488 -6.53945712 69.52452775 -11.41015625 69.67578125 C-12.17747574 69.70859695 -12.94479523 69.74141266 -13.73536682 69.77522278 C-25.27091978 70.20487805 -36.82197606 70.18693626 -48.36401367 70.18530273 C-51.06362676 70.18522192 -53.7630685 70.19210877 -56.46264648 70.20581055 C-79.3308487 70.31976986 -102.58330502 70.35116475 -125.0625 65.625 C-126.09697266 65.4290625 -127.13144531 65.233125 -128.19726562 65.03125 C-137.96718544 63.07850195 -147.02654907 60.4639383 -154 53 C-156.53574423 47.92851154 -155.49187263 41.59256662 -153.8828125 36.3828125 C-152.65763493 33.21950092 -151.3794617 30.09886217 -150 27 C-149.34 27 -148.68 27 -148 27 C-147.979375 26.29875 -147.95875 25.5975 -147.9375 24.875 C-146.48837635 20.43102081 -143.907808 18.4273476 -140 16 C-131.04831 12.66754868 -122.05987428 12.60200197 -112.625 12.75 C-110.66433594 12.75773437 -110.66433594 12.75773437 -108.6640625 12.765625 C-102.43718673 12.81504465 -96.26257582 13.01566992 -90.0546875 13.5078125 C-82.90279064 14.06565439 -75.78172386 14.15194632 -68.61376953 14.13037109 C-66.50155466 14.12500395 -64.38955232 14.1303611 -62.27734375 14.13671875 C-50.5818516 14.14436975 -38.87230814 14.10676372 -27.5 11.125 C-26.8503125 10.96386719 -26.200625 10.80273438 -25.53125 10.63671875 C-18.53336362 8.81670395 -13.953293 6.22847595 -9 1 C-5.9167365 -0.54163175 -3.39121901 -0.29747535 0 0 Z " fill="#4F2A02" transform="translate(370,388)"/>
<path d="M0 0 C7.2365554 5.99045028 12.25308369 14.04339966 13.26611328 23.47851562 C14.45462563 41.95177159 10.85696262 57.79547477 -1.125 72.3125 C-6.28245261 77.79338608 -13.07054464 82.52182173 -20.73828125 83.265625 C-23.8912401 82.89532931 -24.82407868 81.24185833 -27 79 C-31.28239774 77.23665976 -34.88892007 76.75211681 -39.5 76.8125 C-41.12421875 76.82216797 -41.12421875 76.82216797 -42.78125 76.83203125 C-46.0169457 76.91351306 -46.0169457 76.91351306 -49.1796875 77.6953125 C-52 78 -52 78 -53.9765625 76.84765625 C-64.183074 65.79463314 -65.68100201 53.92655694 -65.375 39.34765625 C-64.6823309 25.3977953 -57.95943448 13.4414462 -49 3 C-34.09794851 -9.611408 -16.0987629 -11.07430824 0 0 Z " fill="#4F2A02" transform="translate(214,180)"/>
<path d="M0 0 C2.48745703 0.13203738 4.97255359 0.31572028 7.453125 0.54296875 C9.40025391 0.67094849 9.40025391 0.67094849 11.38671875 0.80151367 C15.16439316 1.06393048 18.93182765 1.38970139 22.703125 1.73046875 C24.52072219 1.86736914 26.33841648 2.00299307 28.15625 2.13671875 C38.80842848 3.02173016 50.58862207 4.18007565 58.703125 11.73046875 C59.453125 14.48046875 59.453125 14.48046875 58.703125 17.73046875 C57.04595414 19.97918668 55.26533529 21.98077075 53.33203125 23.99609375 C50.51725398 26.99312279 50.40124411 29.43369531 50.45361328 33.50195312 C50.88268405 37.33420167 52.47053511 40.54224063 54.140625 43.98046875 C59.30074679 54.97510449 60.93549192 66.70484138 56.73828125 78.45703125 C51.33445224 90.32506326 42.68239509 96.21481217 30.703125 100.73046875 C26.05177662 102.11796525 21.58220936 103.04524839 16.703125 102.73046875 C16.3628125 103.84421875 16.3628125 103.84421875 16.015625 104.98046875 C14.18219822 108.82193438 11.47335676 110.84535287 7.703125 112.73046875 C6.36714252 112.88054849 5.02469806 112.97527874 3.68188477 113.0402832 C2.42056984 113.10181831 2.42056984 113.10181831 1.1337738 113.16459656 C0.20919876 113.20309219 -0.71537628 113.24158783 -1.66796875 113.28125 C-2.64092392 113.32308914 -3.61387909 113.36492828 -4.61631775 113.40803528 C-17.19381396 113.90169624 -29.77383848 113.92825631 -42.359375 113.91796875 C-43.61357239 113.91769684 -44.86776978 113.91742493 -46.15997314 113.91714478 C-64.26604234 113.89909617 -82.28735357 113.80038182 -100.296875 111.73046875 C-101.19245117 111.62863281 -102.08802734 111.52679688 -103.01074219 111.421875 C-136.6207173 107.36614616 -136.6207173 107.36614616 -146.296875 96.48046875 C-147.72596761 92.55046407 -147.54018579 88.86675225 -147.296875 84.73046875 C-144.296875 86.73046875 -144.296875 86.73046875 -143.484375 90.04296875 C-141.78201623 95.32924073 -138.90629469 97.39218182 -134.171875 99.8203125 C-119.99847459 105.99786367 -103.31910477 107.72754224 -88.01953125 108.84375 C-86.86477798 108.92804764 -85.71002472 109.01234528 -84.52027893 109.09919739 C-70.93682399 110.0022367 -57.35839576 109.99514967 -43.75128174 109.92608643 C-41.04280787 109.91518532 -38.33438274 109.91567112 -35.62589073 109.91607475 C-23.98403939 109.91573504 -12.33752496 109.90953305 -0.70703125 109.34375 C-0.00702499 109.31363327 0.69298126 109.28351654 1.41419983 109.25248718 C5.19578702 109.02841855 8.32076299 108.47178628 11.703125 106.73046875 C14.37002305 102.44379827 14.15330109 97.39113934 14.328125 92.48046875 C14.36462158 91.57312988 14.40111816 90.66579102 14.4387207 89.73095703 C14.70529969 82.35789414 14.83639509 74.98295048 14.890625 67.60546875 C14.90367676 66.58807617 14.91672852 65.57068359 14.93017578 64.52246094 C15.00241276 52.56612977 15.00241276 52.56612977 10.703125 41.73046875 C5.68570236 41.16245864 2.71113721 41.67172259 -1.296875 44.73046875 C-2.39128906 45.95443359 -2.39128906 45.95443359 -3.5078125 47.203125 C-6.73555068 50.12798019 -9.10313961 50.91395846 -13.296875 51.98046875 C-14.493125 52.295 -15.689375 52.60953125 -16.921875 52.93359375 C-30.01790852 56.02571278 -43.29363278 55.87095454 -56.671875 55.79296875 C-58.19791517 55.78793606 -59.72395698 55.78337633 -61.25 55.77929688 C-64.93232654 55.76844894 -68.61458969 55.75128529 -72.296875 55.73046875 C-72.296875 55.40046875 -72.296875 55.07046875 -72.296875 54.73046875 C-67.841875 54.23546875 -67.841875 54.23546875 -63.296875 53.73046875 C-63.296875 53.40046875 -63.296875 53.07046875 -63.296875 52.73046875 C-52.736875 52.40046875 -42.176875 52.07046875 -31.296875 51.73046875 C-30.306875 48.76046875 -29.316875 45.79046875 -28.296875 42.73046875 C-27.74 41.94671875 -27.183125 41.16296875 -26.609375 40.35546875 C-24.46293737 36.0625935 -24.77595703 31.43902598 -25.296875 26.73046875 C-26.24122741 23.97343592 -26.24122741 23.97343592 -27.296875 21.73046875 C-23.421875 23.48046875 -23.421875 23.48046875 -22.296875 25.73046875 C-21.03560407 35.38956894 -23.73509589 42.31290015 -28.296875 50.73046875 C-16.97693943 49.96301549 -7.23984133 47.71397601 0.8984375 39.4375 C2.703125 37.73046875 2.703125 37.73046875 5.703125 36.73046875 C5.08316422 35.43637586 4.45696147 34.14527202 3.828125 32.85546875 C3.48007812 32.13617188 3.13203125 31.416875 2.7734375 30.67578125 C1.73754957 28.57911856 1.73754957 28.57911856 -0.296875 26.73046875 C-4.89133729 26.17192102 -4.89133729 26.17192102 -8.9453125 27.95703125 C-10.57925972 30.10099668 -10.98732056 31.77975675 -11.484375 34.41796875 C-11.64292969 35.22621094 -11.80148437 36.03445313 -11.96484375 36.8671875 C-12.07441406 37.48207031 -12.18398438 38.09695313 -12.296875 38.73046875 C-13.616875 38.73046875 -14.936875 38.73046875 -16.296875 38.73046875 C-18.19555053 33.37620377 -19.71128252 28.20208868 -20.57421875 22.578125 C-21.16092752 20.52683091 -21.16092752 20.52683091 -23.36328125 19.4765625 C-24.00136719 19.23035156 -24.63945312 18.98414063 -25.296875 18.73046875 C-20.29274773 17.77921881 -16.72803313 17.84122702 -11.8203125 19.14453125 C-4.11894826 20.93085668 3.19646177 21.18867061 11.078125 21.10546875 C11.75367432 21.10214539 12.42922363 21.09882202 13.12524414 21.09539795 C25.97521712 21.02130733 37.38814172 19.30678965 49.703125 15.73046875 C49.703125 15.07046875 49.703125 14.41046875 49.703125 13.73046875 C47.49602517 13.0804325 45.28738608 12.4356213 43.078125 11.79296875 C41.84835937 11.43332031 40.61859375 11.07367188 39.3515625 10.703125 C33.73151076 9.20484568 28.53853415 8.60313517 22.72265625 8.59765625 C22.06915695 8.59669952 21.41565765 8.5957428 20.74235535 8.59475708 C19.36493839 8.59408008 17.98751815 8.59590069 16.61010742 8.60009766 C14.53882368 8.60540926 12.46776108 8.60015881 10.39648438 8.59375 C2.78137196 8.5903264 -4.72847311 8.8536965 -12.296875 9.73046875 C-9.59349334 3.3326247 -7.23369591 0.10576191 0 0 Z " fill="#FAF9F8" transform="translate(359.296875,347.26953125)"/>
<path d="M0 0 C15.74399939 9.12031033 27.25853098 25.66046423 31.99609375 43.109375 C32.81694131 46.63155724 33.01989637 49.9370599 32.9375 53.5625 C32.91945313 54.6040625 32.90140625 55.645625 32.8828125 56.71875 C32.85960937 57.4921875 32.83640625 58.265625 32.8125 59.0625 C31.575 59.43375 30.3375 59.805 29.0625 60.1875 C20.91122646 62.94322281 12.10785156 66.15015454 6.7265625 73.18359375 C5.09080894 76.54597608 5.42623707 79.39300217 5.8125 83.0625 C-4.18729493 82.536195 -11.96810589 75.04302705 -18.5703125 68.20703125 C-23.04839624 63.08430029 -26.12106782 57.10134639 -29.1875 51.0625 C-29.73019531 50.01191406 -30.27289063 48.96132812 -30.83203125 47.87890625 C-35.34599445 38.49974928 -36.01889411 25.19927291 -33.4296875 15.109375 C-32.4961148 12.94819094 -31.45883852 11.0401377 -30.1875 9.0625 C-29.61 7.99 -29.0325 6.9175 -28.4375 5.8125 C-21.12945869 -3.11955049 -10.53435765 -4.76119787 0 0 Z " fill="#4F2A02" transform="translate(316.1875,144.9375)"/>
<path d="M0 0 C6.10700223 21.52100692 6.10700223 21.52100692 6.9375 28.375 C9.10023558 43.19295068 17.4342276 55.92014279 29.125 64.9375 C34.97753364 69.21435151 39.93377673 72.26815976 47.28125 72.6953125 C48.45300781 72.77136719 49.62476563 72.84742188 50.83203125 72.92578125 C52.04246094 72.99152344 53.25289063 73.05726563 54.5 73.125 C56.90639457 73.27107507 59.31265176 73.41943505 61.71875 73.5703125 C62.78029297 73.62977051 63.84183594 73.68922852 64.93554688 73.75048828 C68.00089794 74.00007311 70.97518203 74.45111449 74 75 C74 75.33 74 75.66 74 76 C73.27496277 75.99333817 72.54992554 75.98667633 71.80291748 75.97981262 C64.91955117 75.91932415 58.03622536 75.87383578 51.15266037 75.84456348 C47.61500317 75.82900756 44.07756834 75.80795763 40.54003906 75.77368164 C36.45896454 75.73439338 32.37811805 75.72020774 28.296875 75.70703125 C27.04638367 75.69154739 25.79589233 75.67606354 24.50750732 75.66011047 C15.7762647 75.65846224 5.60883333 75.82090959 -1.625 81.375 C-3.91200367 83.9027409 -5.07002478 85.74508673 -6 89 C-6.66 89 -7.32 89 -8 89 C-10.26858827 96.27235389 -12.20645194 103.59684417 -14 111 C-14.33 111 -14.66 111 -15 111 C-15.10779785 109.88757935 -15.10779785 109.88757935 -15.21777344 108.75268555 C-16.1450649 100.93025364 -17.80134084 93.5414244 -19.890625 85.95703125 C-20.15967651 84.97475555 -20.42872803 83.99247986 -20.70593262 82.98043823 C-21.83313883 78.88719326 -22.96920954 74.79689551 -24.13378906 70.71411133 C-24.99034652 67.6963015 -25.81731498 64.67155481 -26.640625 61.64453125 C-26.90715881 60.7390303 -27.17369263 59.83352936 -27.44830322 58.90058899 C-29.26654146 52.10051104 -28.72210397 46.78127956 -27 40 C-26.71898437 38.8346875 -26.43796875 37.669375 -26.1484375 36.46875 C-25.76558594 34.99921875 -25.76558594 34.99921875 -25.375 33.5 C-23.4520044 25.18674212 -22.42437141 17.66318816 -26.63671875 9.94921875 C-28.59275011 7.15248623 -30.78895035 4.59972505 -33 2 C-28.62527437 1.66300003 -24.25017987 1.33104633 -19.875 1 C-18.6375 0.90460938 -17.4 0.80921875 -16.125 0.7109375 C-14.92617187 0.62070312 -13.72734375 0.53046875 -12.4921875 0.4375 C-10.84259033 0.31181641 -10.84259033 0.31181641 -9.15966797 0.18359375 C-6.09799722 0.00569417 -3.06600693 -0.03231628 0 0 Z " fill="#FEFDFD" transform="translate(228,326)"/>
<path d="M0 0 C4.00827066 0.41752819 7.28917928 1.03775442 11 2.625 C15.98584989 4.61933995 20.0000043 3.66666523 25 2 C34.0505734 1.17615067 41.50905867 1.52319759 49 7 C54.44709814 11.86884993 57.65621848 17.20142643 58.31640625 24.49609375 C58.62557156 34.55892601 57.45822744 40.4470465 50.6875 47.8125 C45.2399333 52.933446 39.20803581 54.57919642 31.875 55.3125 C23.15257508 54.60907864 16.73452845 51.53865742 10.65625 45.29296875 C9 43 9 43 7.79296875 39.453125 C5.65061814 35.32711641 4.26760145 34.72184247 0.04882812 33.25195312 C-0.68916016 33.02443359 -1.42714844 32.79691406 -2.1875 32.5625 C-2.93708984 32.30791016 -3.68667969 32.05332031 -4.45898438 31.79101562 C-6.29811098 31.17016397 -8.14813948 30.58176976 -10 30 C-9.4341795 23.60799657 -7.34583798 18.13001615 -5 12.1875 C-4.44699219 10.75760742 -4.44699219 10.75760742 -3.8828125 9.29882812 C-1.21552579 2.43105159 -1.21552579 2.43105159 0 0 Z " fill="#FDFCFC" transform="translate(376,248)"/>
<path d="M0 0 C6.31715329 11.59990937 5.31879949 28.51967439 5.4375 41.3125 C5.4595752 42.53316162 5.48165039 43.75382324 5.50439453 45.01147461 C5.48806767 51.97295875 5.033216 58.11121418 1 64 C-2.76377825 66.5091855 -5.65003143 66.82892758 -10 66 C-23.84907271 59.89744098 -32.8807283 44.09253231 -41 32 C-41.43747559 31.35579102 -41.87495117 30.71158203 -42.32568359 30.04785156 C-43.50775214 28.29393367 -44.665145 26.5267671 -45.8125 24.75 C-46.78123047 23.25726563 -46.78123047 23.25726563 -47.76953125 21.734375 C-49.17912771 18.60193843 -49.05016709 17.21503668 -48 14 C-46.85917969 13.62230469 -45.71835938 13.24460938 -44.54296875 12.85546875 C-40.76348413 11.59712008 -36.99255163 10.31508718 -33.22439575 9.02322388 C-30.33532403 8.0345572 -27.44356256 7.05389352 -24.55151367 6.07397461 C-23.05238297 5.56412959 -21.55433875 5.05107924 -20.05737305 4.53491211 C-17.87049049 3.78162872 -15.67990188 3.04014832 -13.48828125 2.30078125 C-12.49433098 1.95398064 -12.49433098 1.95398064 -11.4803009 1.60017395 C-7.52784834 0.28174381 -4.15992019 -0.23625427 0 0 Z " fill="#532A05" transform="translate(280,187)"/>
<path d="M0 0 C-0.433125 0.52207031 -0.86625 1.04414063 -1.3125 1.58203125 C-5.19169427 6.70939219 -6.94616364 10.62668843 -6.6015625 17.1015625 C-5.67542135 21.56387896 -3.63473875 25.25097526 -1.46875 29.23046875 C3.1837409 38.00338377 3.10389553 48.13931229 0.9375 57.6875 C-2.00762679 67.19409532 -8.40373889 73.34244389 -17 78 C-21.69510439 80.42358627 -25.99690774 81.18356906 -31.26171875 81.57421875 C-32.33768311 81.65631592 -33.41364746 81.73841309 -34.5222168 81.82299805 C-35.33988525 81.88140869 -36.15755371 81.93981934 -37 82 C-37.00546844 81.0494574 -37.00546844 81.0494574 -37.01104736 80.07971191 C-37.05298724 73.46032562 -37.12241349 66.84162529 -37.20751953 60.22265625 C-37.2356756 57.75527826 -37.25691668 55.28781097 -37.27099609 52.8203125 C-37.29249902 49.26516174 -37.33919018 45.71107861 -37.390625 42.15625 C-37.39185364 41.06010376 -37.39308228 39.96395752 -37.39434814 38.83459473 C-37.52201929 32.09788793 -38.51802248 27.78817875 -42 22 C-42.33 21.34 -42.66 20.68 -43 20 C-42.0409375 19.5359375 -42.0409375 19.5359375 -41.0625 19.0625 C-37.90231425 15.90231425 -38.18099207 12.31666092 -38 8 C-36.68 7.67 -35.36 7.34 -34 7 C-31.43021207 11.36863948 -31.19800332 15.95840269 -30.5625 20.90625 C-30.05776243 23.68230664 -29.41740385 25.59041346 -28 28 C-24.535 27.505 -24.535 27.505 -21 27 C-18.46615311 21.97174354 -18.9058788 17.15517991 -19.16601562 11.70703125 C-19.30798116 6.46899259 -19.30798116 6.46899259 -17.71484375 4.04296875 C-15.01516833 2.40102493 -12.09915948 2.38739494 -9 2 C-5.5647952 -0.29013653 -4.014669 -0.17842973 0 0 Z " fill="#502A02" transform="translate(414,365)"/>
<path d="M0 0 C1.24609375 2.16015625 1.24609375 2.16015625 2 4 C-0.31210132 6.31210132 -1.41791477 6.46184889 -4.5625 7.0625 C-7.5677197 7.46477866 -7.5677197 7.46477866 -10 9 C-11.134375 9.144375 -12.26875 9.28875 -13.4375 9.4375 C-17.04058997 9.64847551 -17.04058997 9.64847551 -19 12 C-19.08550638 15.31616034 -18.99467204 18.57204032 -18.83398438 21.8828125 C-18.7053185 26.65676013 -19.2223567 29.91523045 -22 34 C-25.6875 34.875 -25.6875 34.875 -29 35 C-31.63321125 31.15090705 -32.53770029 28.04513319 -33.125 23.4375 C-33.81563211 18.17011553 -33.81563211 18.17011553 -35 13 C-35.99 13.33 -36.98 13.66 -38 14 C-38.01417969 14.60328125 -38.02835937 15.2065625 -38.04296875 15.828125 C-38.29375377 20.03046864 -38.4695405 22.34829261 -41.1875 25.6875 C-44 27 -44 27 -47.0625 26.75 C-50.66270442 24.60519737 -51.55787774 22.65137943 -53.140625 18.875 C-53.95333798 16.81453766 -53.95333798 16.81453766 -56 15 C-60.59446229 14.44145227 -60.59446229 14.44145227 -64.6484375 16.2265625 C-66.28238472 18.37052793 -66.69044556 20.049288 -67.1875 22.6875 C-67.34605469 23.49574219 -67.50460937 24.30398438 -67.66796875 25.13671875 C-67.77753906 25.75160156 -67.88710938 26.36648438 -68 27 C-69.32 27 -70.64 27 -72 27 C-73.89867553 21.64573502 -75.41440752 16.47161993 -76.27734375 10.84765625 C-76.86405252 8.79636216 -76.86405252 8.79636216 -79.06640625 7.74609375 C-79.70449219 7.49988281 -80.34257812 7.25367188 -81 7 C-75.99587273 6.04875006 -72.43115813 6.11075827 -67.5234375 7.4140625 C-59.82207326 9.20038793 -52.50666323 9.45820186 -44.625 9.375 C-43.94945068 9.37167664 -43.27390137 9.36835327 -42.57788086 9.3649292 C-29.72790788 9.29083858 -18.31498328 7.5763209 -6 4 C-6 3.34 -6 2.68 -6 2 C-8.20709983 1.34996375 -10.41573892 0.70515255 -12.625 0.0625 C-13.85476563 -0.29714844 -15.08453125 -0.65679687 -16.3515625 -1.02734375 C-21.97161424 -2.52562307 -27.16459085 -3.12733358 -32.98046875 -3.1328125 C-33.63396805 -3.13376923 -34.28746735 -3.13472595 -34.96076965 -3.13571167 C-36.33818661 -3.13638867 -37.71560685 -3.13456806 -39.09301758 -3.13037109 C-41.16430132 -3.12505949 -43.23536392 -3.13030994 -45.30664062 -3.13671875 C-52.92175304 -3.14014235 -60.43159811 -2.87677225 -68 -2 C-66.9375 -4.4375 -66.9375 -4.4375 -65 -7 C-47.86438528 -10.999118 -14.64155538 -11.77327802 0 0 Z " fill="#F9D900" transform="translate(415,359)"/>
<path d="M0 0 C0.495 1.485 0.495 1.485 1 3 C1.99 3.33 2.98 3.66 4 4 C3.34 4 2.68 4 2 4 C1.9071875 5.299375 1.9071875 5.299375 1.8125 6.625 C0.80392893 10.81444905 -0.7133014 13.30962224 -4 16 C-13.02081116 21.3063595 -21.05580221 24.35875708 -31.5 24.375 C-32.74330078 24.41173828 -32.74330078 24.41173828 -34.01171875 24.44921875 C-39.50058721 24.47539777 -42.67757504 23.69540653 -47 20 C-49 17 -49 17 -48.9375 14.1875 C-47.03365765 7.714436 -42.59441916 4.28792162 -37 0.9609375 C-34.39652127 -0.28995267 -31.85040702 -0.65238939 -29 -1 C-28.67 -1.66 -28.34 -2.32 -28 -3 C-18.86732552 -5.07256888 -7.93125055 -5.75593183 0 0 Z " fill="#FDAACB" transform="translate(190,260)"/>
<path d="M0 0 C1.72265625 1.36328125 1.72265625 1.36328125 3 3 C3.48817385 7.32382557 3.64063168 9.77697588 1.625 13.625 C-7.35658895 21.75119953 -17.62774369 25.54915372 -29.625 25.375 C-30.43195313 25.38660156 -31.23890625 25.39820313 -32.0703125 25.41015625 C-37.44868759 25.38396286 -41.2002147 24.43206279 -46 22 C-47.08746441 18.05223003 -47.79637235 14.61308997 -45.9296875 10.83203125 C-35.71737066 -1.92103108 -14.81512051 -7.50015476 0 0 Z " fill="#FDAACB" transform="translate(368,207)"/>
<path d="M0 0 C0.74403076 0.00539795 1.48806152 0.0107959 2.25463867 0.01635742 C8.29630388 0.18255741 13.42805871 1.33577821 18.6875 4.4375 C19.79351562 5.01564453 19.79351562 5.01564453 20.921875 5.60546875 C23.15310285 7.92061447 23.17863095 9.68812668 23.19213867 12.83349609 C23.16998291 13.52781738 23.14782715 14.22213867 23.125 14.9375 C23.11251221 15.6485791 23.10002441 16.3596582 23.0871582 17.09228516 C22.89092756 23.03278277 22.22121173 28.99471183 19.6875 34.4375 C16.6875 36.4375 16.6875 36.4375 13.79296875 36.26171875 C3.00300476 33.3979673 -4.03280831 22.00245444 -10.3125 13.4375 C-10.78606934 12.81504395 -11.25963867 12.19258789 -11.74755859 11.55126953 C-15.3125 6.77838313 -15.3125 6.77838313 -15.3125 3.4375 C-10.02107218 0.82299373 -5.87995475 -0.08178609 0 0 Z " fill="#FC0073" transform="translate(259.3125,213.5625)"/>
<path d="M0 0 C4.00827066 0.41752819 7.28917928 1.03775442 11 2.625 C15.98584989 4.61933995 20.0000043 3.66666523 25 2 C34.0505734 1.17615067 41.50905867 1.52319759 49 7 C54.44709814 11.86884993 57.65621848 17.20142643 58.31640625 24.49609375 C58.62557156 34.55892601 57.45822744 40.4470465 50.6875 47.8125 C45.2399333 52.933446 39.20803581 54.57919642 31.875 55.3125 C23.15257508 54.60907864 16.73452845 51.53865742 10.65625 45.29296875 C9 43 9 43 7.79296875 39.453125 C5.65061814 35.32711641 4.26760145 34.72184247 0.04882812 33.25195312 C-0.68916016 33.02443359 -1.42714844 32.79691406 -2.1875 32.5625 C-2.93708984 32.30791016 -3.68667969 32.05332031 -4.45898438 31.79101562 C-6.29811098 31.17016397 -8.14813948 30.58176976 -10 30 C-9.4341795 23.60799657 -7.34583798 18.13001615 -5 12.1875 C-4.44699219 10.75760742 -4.44699219 10.75760742 -3.8828125 9.29882812 C-1.21552579 2.43105159 -1.21552579 2.43105159 0 0 Z M2 4 C0.62749639 7.24255652 -0.71971548 10.49503652 -2.0625 13.75 C-2.64741211 15.13058594 -2.64741211 15.13058594 -3.24414062 16.5390625 C-3.60830078 17.42851562 -3.97246094 18.31796875 -4.34765625 19.234375 C-4.68804932 20.05131836 -5.02844238 20.86826172 -5.37915039 21.70996094 C-6.07948432 24.29318244 -6.07948361 25.55806458 -5 28 C-1.92936099 29.44996104 -1.92936099 29.44996104 1.75 30.625 C5.41881628 32.00137807 8.37242947 33.14371487 10.7578125 36.3984375 C11.49445692 38.11384023 12.19608706 39.84476477 12.859375 41.58984375 C14.77546348 45.63856496 18.17755515 47.83288168 22 50 C28.89377579 52.29792526 36.79178706 52.0015615 43.4375 49.0625 C48.9415081 45.9250361 52.67407404 41.08417934 54.6328125 35.05078125 C55.82584082 28.38759116 55.85373682 21.80644005 52.3984375 15.8515625 C48.46424879 10.64260873 43.55403488 6.15659439 37 5 C30.28801227 4.45660069 26.01188203 4.8574253 20 8 C16.04095951 7.85603489 12.889647 7.03498659 9.3125 5.4375 C5.99026403 3.73460459 5.99026403 3.73460459 2 4 Z " fill="#543009" transform="translate(376,248)"/>
<path d="M0 0 C1.98 0 3.96 0 6 0 C7.88907969 6.92662552 6.07417378 12.63264797 3 19 C-2.31932303 26.85233399 -9.89214943 33.26198239 -19.27246094 35.55566406 C-24.63376092 36.4290588 -30.08072847 36.18464475 -35.5 36.1875 C-36.72332031 36.19974609 -37.94664062 36.21199219 -39.20703125 36.22460938 C-40.97626953 36.22750977 -40.97626953 36.22750977 -42.78125 36.23046875 C-43.85439453 36.23457764 -44.92753906 36.23868652 -46.03320312 36.24291992 C-49.32351233 35.97351096 -52.57968531 35.42031469 -55 33 C-55.125 30.5 -55.125 30.5 -55 28 C-54 27 -54 27 -51.38305664 26.93408203 C-49.66397095 26.97057861 -49.66397095 26.97057861 -47.91015625 27.0078125 C-46.02006836 27.03294922 -46.02006836 27.03294922 -44.09179688 27.05859375 C-41.4402379 27.09921338 -38.78995574 27.1541374 -36.13867188 27.21484375 C-26.06503969 27.32717011 -16.85323848 26.5324589 -8.75390625 20.00390625 C-3.95639265 14.52255998 -2.24374594 6.79187961 0 0 Z " fill="#F9F7F6" transform="translate(209,201)"/>
<path d="M0 0 C0.90886963 0.00080566 1.81773926 0.00161133 2.75415039 0.00244141 C12.97825442 0.09386409 23.2555084 0.66946336 32.9375 4.1875 C32.9375 4.8475 32.9375 5.5075 32.9375 6.1875 C25.50164051 8.46378352 18.34317097 9.34578288 10.58203125 9.390625 C9.40769783 9.39917511 9.40769783 9.39917511 8.2096405 9.40789795 C6.55993986 9.41729485 4.9102209 9.42386065 3.26049805 9.42773438 C0.77423195 9.43740574 -1.71119406 9.46846525 -4.19726562 9.5 C-13.24305623 9.55837965 -21.37355703 9.0524853 -30.0625 6.1875 C-28.0625 3.1875 -28.0625 3.1875 -26.21484375 2.4921875 C-25.11849609 2.27949219 -25.11849609 2.27949219 -24 2.0625 C-23.28714844 1.91554688 -22.57429688 1.76859375 -21.83984375 1.6171875 C-14.54846624 0.48912628 -7.37755974 -0.00688655 0 0 Z " fill="#F9AB00" transform="translate(371.0625,356.8125)"/>
<path d="M0 0 C0.495 2.475 0.495 2.475 1 5 C-10.32631075 13.38985982 -20.99529255 16.4703487 -35 15 C-39.91378309 13.63506025 -44.13960626 11.35686412 -48 8 C-47.125 3.125 -47.125 3.125 -46 2 C-41.68309597 1.520344 -39.5823476 2.70362334 -36 5 C-27.45261884 7.62589648 -18.6162794 5.82777704 -10.765625 1.875 C-10.07984375 1.50375 -9.3940625 1.1325 -8.6875 0.75 C-5.45445355 -0.98128654 -3.56651023 -1.33744134 0 0 Z " fill="#F6F5F3" transform="translate(341,175)"/>
<path d="M0 0 C54.66282498 1.38145212 54.66282498 1.38145212 65 11 C65.75 13.75 65.75 13.75 65 17 C63.34282914 19.24871793 61.56221029 21.250302 59.62890625 23.265625 C56.81412898 26.26265404 56.69811911 28.70322656 56.75048828 32.77148438 C57.17955905 36.60373292 58.76741011 39.81177188 60.4375 43.25 C65.59762179 54.24463574 67.23236692 65.97437263 63.03515625 77.7265625 C58.05655461 88.66069894 50.47852502 94.42095145 39.6328125 99.1640625 C35.94248517 100.3357688 33.6812303 100.06346653 30 99 C30 98.67 30 98.34 30 98 C31.134375 97.7525 32.26875 97.505 33.4375 97.25 C42.07156828 95.05722075 51.13699161 91.28467391 56.5390625 83.89453125 C62.09645111 74.45347048 63.62902442 64.33900694 61.2421875 53.5859375 C59.86301579 48.86200291 58.49606557 44.48429099 55.75 40.375 C53.25962513 35.57213417 53.20505601 31.30765632 54 26 C56.23054144 21.53891712 59.38871838 18.41065486 63 15 C61.67897818 11.85189328 60.67052634 10.38207562 57.5625 8.9375 C38.98012922 1.60311652 17.57720403 3.67986962 -2 4 C-1.34 2.68 -0.68 1.36 0 0 Z " fill="#E9E5E0" transform="translate(353,348)"/>
<path d="M0 0 C3.875 1.75 3.875 1.75 5 4 C6.26127093 13.65910019 3.56177911 20.5824314 -1 29 C10.5407303 28.21757761 19.58546277 25.86277967 27.94140625 17.66015625 C30.19304466 15.84431882 31.38962762 15.35262392 34.25 15.1875 C38.75210162 16.16295535 40.24462654 17.35318218 43 21 C44.75088294 24.41839049 45 26.06384019 45 30 C44.34 30 43.68 30 43 30 C42.67 31.32 42.34 32.64 42 34 C41.81824219 32.86111328 41.81824219 32.86111328 41.6328125 31.69921875 C41.46523438 30.70535156 41.29765625 29.71148437 41.125 28.6875 C40.96257812 27.70136719 40.80015625 26.71523438 40.6328125 25.69921875 C40.11914546 22.79940173 40.11914546 22.79940173 38 20 C32.98257736 19.43198989 30.00801221 19.94125384 26 23 C25.27039063 23.81597656 24.54078125 24.63195312 23.7890625 25.47265625 C20.56132432 28.39751144 18.19373539 29.18348971 14 30.25 C12.80375 30.56453125 11.6075 30.8790625 10.375 31.203125 C-2.72103352 34.29524403 -15.99675778 34.14048579 -29.375 34.0625 C-30.90104017 34.05746731 -32.42708198 34.05290758 -33.953125 34.04882812 C-37.63545154 34.03798019 -41.31771469 34.02081654 -45 34 C-45 33.67 -45 33.34 -45 33 C-40.545 32.505 -40.545 32.505 -36 32 C-36 31.67 -36 31.34 -36 31 C-25.44 30.67 -14.88 30.34 -4 30 C-3.01 27.03 -2.02 24.06 -1 21 C-0.443125 20.21625 0.11375 19.4325 0.6875 18.625 C2.83393763 14.33212475 2.52091797 9.70855723 2 5 C1.05564759 2.24296717 1.05564759 2.24296717 0 0 Z " fill="#F5EDED" transform="translate(332,369)"/>
<path d="M0 0 C3.87928626 -0.11213882 7.75608516 -0.16594396 11.63671875 -0.18115234 C12.32214752 -0.18443542 13.00757629 -0.18771851 13.71377563 -0.19110107 C25.66510482 -0.20961483 37.90061925 0.21716878 48.63671875 6.13134766 C48.30671875 7.12134766 47.97671875 8.11134766 47.63671875 9.13134766 C45.25309804 10.00303745 43.02810751 10.66703719 40.57421875 11.25634766 C39.93033203 11.42521484 39.28644531 11.59408203 38.62304688 11.76806641 C29.61570479 14.04908823 20.8225988 14.34497127 11.55761719 14.37158203 C9.53668084 14.38122851 7.51679017 14.41230508 5.49609375 14.44384766 C-3.58274982 14.47938129 -11.58449326 13.40092708 -20.36328125 11.13134766 C-20.03328125 10.14134766 -19.70328125 9.15134766 -19.36328125 8.13134766 C-18.78167236 8.27282227 -18.20006348 8.41429687 -17.60083008 8.56005859 C-9.21631183 10.35679746 -1.02528921 10.43659742 7.50561523 10.39208984 C9.9343387 10.38141307 12.36231518 10.39201416 14.79101562 10.40478516 C24.26316033 10.41201442 33.28881445 9.79732959 42.63671875 8.13134766 C42.63671875 7.47134766 42.63671875 6.81134766 42.63671875 6.13134766 C23.06476484 2.93500134 4.25569225 1.75604039 -15.36328125 5.13134766 C-14.42578125 3.19384766 -14.42578125 3.19384766 -12.36328125 1.13134766 C-8.19577819 0.31955279 -4.23519407 0.16539884 0 0 Z " fill="#573000" transform="translate(361.36328125,354.86865234375)"/>
<path d="M0 0 C1.24609375 2.16015625 1.24609375 2.16015625 2 4 C-0.31210132 6.31210132 -1.41791477 6.46184889 -4.5625 7.0625 C-7.5677197 7.46477866 -7.5677197 7.46477866 -10 9 C-12.33944736 8.71269945 -14.6739143 8.38063221 -17 8 C-13.49461443 6.03698408 -9.86648272 5.04097612 -6 4 C-6 3.34 -6 2.68 -6 2 C-8.20709983 1.34996375 -10.41573892 0.70515255 -12.625 0.0625 C-13.85476563 -0.29714844 -15.08453125 -0.65679687 -16.3515625 -1.02734375 C-21.97161424 -2.52562307 -27.16459085 -3.12733358 -32.98046875 -3.1328125 C-33.63396805 -3.13376923 -34.28746735 -3.13472595 -34.96076965 -3.13571167 C-36.33818661 -3.13638867 -37.71560685 -3.13456806 -39.09301758 -3.13037109 C-41.16430132 -3.12505949 -43.23536392 -3.13030994 -45.30664062 -3.13671875 C-52.92175304 -3.14014235 -60.43159811 -2.87677225 -68 -2 C-66.9375 -4.4375 -66.9375 -4.4375 -65 -7 C-47.86438528 -10.999118 -14.64155538 -11.77327802 0 0 Z " fill="#EECF09" transform="translate(415,359)"/>
<path d="M0 0 C0.495 0.99 0.495 0.99 1 2 C-25.28399751 12.59304686 -54.52885354 21.04298667 -83 22 C-83 21.01 -83 20.02 -83 19 C-82.06285156 18.84144531 -81.12570313 18.68289063 -80.16015625 18.51953125 C-76.34291671 17.86586458 -72.53126381 17.18316613 -68.72070312 16.49169922 C-66.8894709 16.16074968 -65.05741406 15.83433439 -63.22460938 15.51220703 C-50.21908691 13.20499011 -37.57017106 10.20009526 -24.9375 6.375 C-24.29688629 6.18113708 -23.65627258 5.98727417 -22.99624634 5.78753662 C-17.3686221 4.07412352 -11.77836499 2.35481399 -6.31640625 0.1640625 C-3 -1 -3 -1 0 0 Z " fill="#653C1D" transform="translate(299,305)"/>
<path d="M0 0 C3.87928626 -0.11213882 7.75608516 -0.16594396 11.63671875 -0.18115234 C12.32214752 -0.18443542 13.00757629 -0.18771851 13.71377563 -0.19110107 C25.66510482 -0.20961483 37.90061925 0.21716878 48.63671875 6.13134766 C48.30671875 7.12134766 47.97671875 8.11134766 47.63671875 9.13134766 C45.57421875 9.81884766 45.57421875 9.81884766 43.63671875 10.13134766 C43.14171875 8.15134766 43.14171875 8.15134766 42.63671875 6.13134766 C23.06476484 2.93500134 4.25569225 1.75604039 -15.36328125 5.13134766 C-14.42578125 3.19384766 -14.42578125 3.19384766 -12.36328125 1.13134766 C-8.19577819 0.31955279 -4.23519407 0.16539884 0 0 Z " fill="#4F2900" transform="translate(361.36328125,354.86865234375)"/>
<path d="M0 0 C54.79536424 1.38480169 54.79536424 1.38480169 65 11 C65.3125 13.75 65.3125 13.75 65 16 C63 15 63 15 62.08984375 13.06640625 C59.9917019 9.08820898 56.11571707 8.2772915 52 7 C34.43210566 2.50766576 15.98112182 3.70596908 -2 4 C-1.34 2.68 -0.68 1.36 0 0 Z " fill="#E9E4DE" transform="translate(353,348)"/>
<path d="M0 0 C-0.58704453 6.22267206 -0.58704453 6.22267206 -2.0625 9 C-5.27554481 10.65834571 -8.5885911 9.91475279 -12 9 C-12.99 8.34 -13.98 7.68 -15 7 C-14.875 5.1875 -14.875 5.1875 -14 3 C-9.24803827 -0.24524216 -5.53771745 -0.28643366 0 0 Z " fill="#55310B" transform="translate(261,179)"/>
<path d="M0 0 C0.60626221 0.13712402 1.21252441 0.27424805 1.8371582 0.41552734 C10.27400736 2.15122317 18.61392932 2.4348064 27.1875 2.625 C28.63088016 2.66328681 30.07424009 2.70234425 31.51757812 2.7421875 C35.01153097 2.83699033 38.50563989 2.92143199 42 3 C42 3.33 42 3.66 42 4 C35.73 4 29.46 4 23 4 C23 4.66 23 5.32 23 6 C14.65474478 6.51917486 7.08961486 4.95829294 -1 3 C-0.67 2.01 -0.34 1.02 0 0 Z " fill="#895900" transform="translate(342,363)"/>
<path d="M0 0 C3 2 3 2 3.8125 5.3125 C5.63053585 10.95797975 9.12912091 12.75274728 14 16 C13.67 16.33 13.34 16.66 13 17 C14.32 17.99 15.64 18.98 17 20 C10.46528906 19.50989668 5.31581578 16.60529275 1 11.75 C-0.42909261 7.81999532 -0.24331079 4.1362835 0 0 Z " fill="#C5B9AD" transform="translate(212,432)"/>
<path d="M0 0 C0 0.99 0 1.98 0 3 C-0.61746094 2.94199219 -1.23492187 2.88398438 -1.87109375 2.82421875 C-9.01012267 2.44390519 -13.08159585 4.20024636 -19 8 C-20.32497871 8.68312051 -21.65599474 9.35511855 -23 10 C-23 9.01 -23 8.02 -23 7 C-16.51337359 0.67433206 -9.0185808 -3.0061936 0 0 Z " fill="#E2DCD5" transform="translate(359,312)"/>
<path d="M0 0 C7.19825708 -0.61002179 7.19825708 -0.61002179 10.875 2.1875 C13.99547039 6.31753434 15 8.8053999 15 14 C14.34 14 13.68 14 13 14 C12.67 15.32 12.34 16.64 12 18 C11.87882812 17.24074219 11.75765625 16.48148437 11.6328125 15.69921875 C11.46523438 14.70535156 11.29765625 13.71148437 11.125 12.6875 C10.96257812 11.70136719 10.80015625 10.71523438 10.6328125 9.69921875 C10.11914546 6.79940173 10.11914546 6.79940173 8 4 C4.28359861 3.72971626 1.542799 3.819067 -2 5 C-1.34 3.35 -0.68 1.7 0 0 Z " fill="#EFEBE8" transform="translate(362,385)"/>
<path d="M0 0 C7.58872751 0.90554564 14.72967573 2.95887942 22.01171875 5.21484375 C22.01171875 6.53484375 22.01171875 7.85484375 22.01171875 9.21484375 C20.69171875 9.54484375 19.37171875 9.87484375 18.01171875 10.21484375 C17.68171875 8.89484375 17.35171875 7.57484375 17.01171875 6.21484375 C9.75171875 5.22484375 2.49171875 4.23484375 -4.98828125 3.21484375 C-1.98828125 0.21484375 -1.98828125 0.21484375 0 0 Z " fill="#593100" transform="translate(386.98828125,354.78515625)"/>
<path d="M0 0 C0.33 0.66 0.66 1.32 1 2 C-1.72588833 3.00981089 -4.45512264 4.00803308 -7.1875 5 C-7.95642578 5.28617187 -8.72535156 5.57234375 -9.51757812 5.8671875 C-13.45822357 7.28784938 -16.74151681 8.40963365 -21 8 C-20 5 -20 5 -18.37353516 4.09277344 C-17.68565918 3.85075195 -16.9977832 3.60873047 -16.2890625 3.359375 C-15.53882813 3.09382813 -14.78859375 2.82828125 -14.015625 2.5546875 C-13.22671875 2.28914063 -12.4378125 2.02359375 -11.625 1.75 C-10.84382813 1.46898437 -10.06265625 1.18796875 -9.2578125 0.8984375 C-3.39174107 -1.13058036 -3.39174107 -1.13058036 0 0 Z " fill="#5D3512" transform="translate(299,305)"/>
<path d="M0 0 C0.66 0.33 1.32 0.66 2 1 C0.54669392 5.35991823 -2.24805219 7.45701315 -6 10 C-9.97396957 11.77644335 -13.63262187 13 -18 13 C-18.33 12.01 -18.66 11.02 -19 10 C-18.13117188 9.78085937 -17.26234375 9.56171875 -16.3671875 9.3359375 C-9.25097394 7.37778477 -4.63840513 5.83113787 0 0 Z " fill="#EBE6E2" transform="translate(359,387)"/>
<path d="M0 0 C-1.05078125 1.45703125 -1.05078125 1.45703125 -3 3 C-6.35546875 3.51171875 -6.35546875 3.51171875 -10.1875 3.6875 C-12.09595703 3.78611328 -12.09595703 3.78611328 -14.04296875 3.88671875 C-15.01878906 3.92410156 -15.99460938 3.96148437 -17 4 C-17 3.01 -17 2.02 -17 1 C-14.73052303 0.63724344 -12.45935265 0.28506814 -10.1875 -0.0625 C-8.92292969 -0.25972656 -7.65835938 -0.45695312 -6.35546875 -0.66015625 C-3 -1 -3 -1 0 0 Z " fill="#5E3915" transform="translate(233,323)"/>
<path d="M0 0 C2.01780741 3.02671112 3.59897924 6.04112827 5.1875 9.3125 C5.73792969 10.42238281 6.28835938 11.53226562 6.85546875 12.67578125 C8.11334111 16.32919209 7.96631741 18.30788551 7 22 C5.54117025 19.2388673 4.47752638 16.54538261 3.5625 13.5625 C2.66347773 10.75017393 1.82725864 8.72237996 0.25 6.1875 C-1 4 -1 4 -0.6875 1.6875 C-0.460625 1.130625 -0.23375 0.57375 0 0 Z " fill="#E2DCD6" transform="translate(409,383)"/>
<path d="M0 0 C0.66 0.33 1.32 0.66 2 1 C2.0543965 3.37531394 2.09385864 5.74935883 2.125 8.125 C2.15013672 9.12273437 2.15013672 9.12273437 2.17578125 10.140625 C2.21847278 14.49516056 1.59996217 17.95600114 0 22 C-0.33 22 -0.66 22 -1 22 C-0.67 14.74 -0.34 7.48 0 0 Z " fill="#EDE9E5" transform="translate(416,402)"/>
<path d="M0 0 C-2 3 -2 3 -5.4765625 3.73046875 C-6.85780047 3.89648293 -8.24080122 4.04831396 -9.625 4.1875 C-10.68460937 4.3102832 -10.68460937 4.3102832 -11.765625 4.43554688 C-13.5090683 4.63580725 -15.25440086 4.81949401 -17 5 C-14.59764421 1.17459269 -14.59764421 1.17459269 -11.9140625 0.390625 C-11.15867187 0.34421875 -10.40328125 0.2978125 -9.625 0.25 C-8.43970703 0.16685547 -8.43970703 0.16685547 -7.23046875 0.08203125 C-4.81635566 -0.006754 -2.4151217 -0.07790715 0 0 Z " fill="#623A00" transform="translate(363,355)"/>
<path d="M0 0 C2.375 0.5625 2.375 0.5625 5 2 C7.4494231 7.43132949 6.96352389 10.65485165 5 16 C4.67 16 4.34 16 4 16 C3.96261719 15.40832031 3.92523438 14.81664062 3.88671875 14.20703125 C3.48131892 9.33428431 2.85719103 6.09944801 0 2 C0 1.34 0 0.68 0 0 Z " fill="#684618" transform="translate(333,366)"/>
<path d="M0 0 C5.90042053 0.59004205 10.7117768 1.7117768 15 6 C15.125 8.625 15.125 8.625 15 11 C13 10 13 10 12.2265625 8.109375 C10.50346406 5.14608468 8.49814321 4.55736228 5.375 3.25 C4.37210937 2.82203125 3.36921875 2.3940625 2.3359375 1.953125 C1.56507813 1.63859375 0.79421875 1.3240625 0 1 C0 0.67 0 0.34 0 0 Z " fill="#F2EEE8" transform="translate(403,353)"/>
<path d="M0 0 C3.63 0.66 7.26 1.32 11 2 C11.33 2.99 11.66 3.98 12 5 C10.39504433 4.88557539 8.79101881 4.75805306 7.1875 4.625 C6.29417969 4.55539062 5.40085937 4.48578125 4.48046875 4.4140625 C2 4 2 4 -1 2 C-0.67 1.34 -0.34 0.68 0 0 Z " fill="#6C4400" transform="translate(342,363)"/>
<path d="M0 0 C0.99 0.33 1.98 0.66 3 1 C0.19195732 3.96404505 -2.18315774 6.44499019 -6 8 C-6 7.01 -6 6.02 -6 5 C-3.1875 2.25 -3.1875 2.25 0 0 Z " fill="#EAE6E1" transform="translate(342,314)"/>
<path d="M0 0 C0.66 0.33 1.32 0.66 2 1 C0.90101298 4.29696105 0.05402613 5.04670589 -2.5625 7.1875 C-3.20316406 7.71730469 -3.84382813 8.24710937 -4.50390625 8.79296875 C-4.99761719 9.19128906 -5.49132812 9.58960938 -6 10 C-6.33 9.34 -6.66 8.68 -7 8 C-4.69 5.36 -2.38 2.72 0 0 Z " fill="#F3F0EE" transform="translate(359,387)"/>
<path d="M0 0 C1.1484375 1.703125 1.1484375 1.703125 2 4 C1.1015625 6.359375 1.1015625 6.359375 -0.375 8.75 C-1.09816406 9.94882812 -1.09816406 9.94882812 -1.8359375 11.171875 C-2.22007812 11.77515625 -2.60421875 12.3784375 -3 13 C-3.66 12.67 -4.32 12.34 -5 12 C-3.41037341 7.96479403 -1.71767682 3.98188718 0 0 Z " fill="#E2DCD6" transform="translate(414,422)"/>
<path d="M0 0 C0.89332031 0.12761719 1.78664063 0.25523437 2.70703125 0.38671875 C3.60808594 0.50660156 4.50914062 0.62648438 5.4375 0.75 C6.12457031 0.85699219 6.81164062 0.96398437 7.51953125 1.07421875 C7.51953125 2.06421875 7.51953125 3.05421875 7.51953125 4.07421875 C3.22953125 3.74421875 -1.06046875 3.41421875 -5.48046875 3.07421875 C-2.48046875 0.07421875 -2.48046875 0.07421875 0 0 Z " fill="#744A00" transform="translate(387.48046875,354.92578125)"/>
<path d="M0 0 C0.99 0.33 1.98 0.66 3 1 C0.69 3.64 -1.62 6.28 -4 9 C-4.66 8.67 -5.32 8.34 -6 8 C-4.55746343 4.63408134 -2.66735273 2.48952921 0 0 Z " fill="#E6E1DB" transform="translate(415,364)"/>
<path d="M0 0 C-0.99 1.485 -0.99 1.485 -2 3 C-5.625 3.1875 -5.625 3.1875 -9 3 C-8.67 2.01 -8.34 1.02 -8 0 C-4.71303767 -0.79953138 -3.28976808 -1.09658936 0 0 Z " fill="#5E3513" transform="translate(261,317)"/>
<path d="M0 0 C2.64 0.66 5.28 1.32 8 2 C8 2.99 8 3.98 8 5 C6.68 5 5.36 5 4 5 C4 4.34 4 3.68 4 3 C2.35 2.67 0.7 2.34 -1 2 C-0.67 1.34 -0.34 0.68 0 0 Z " fill="#F1EEEB" transform="translate(225,448)"/>
<path d="M0 0 C0 0.66 0 1.32 0 2 C-3.21451269 3.60725635 -6.43612536 3.05748185 -10 3 C-9 1 -9 1 -7.25 0.375 C-4.79549443 -0.03408426 -2.4840589 -0.06900164 0 0 Z " fill="#F7F5F4" transform="translate(341,398)"/>
<path d="M0 0 C0 0.66 0 1.32 0 2 C-3.8503105 4.56687367 -5.58569763 3.83288724 -10 3 C-6.71687741 1.24118433 -3.76143005 0 0 0 Z " fill="#D7B500" transform="translate(408,364)"/>
<path d="M0 0 C2.96175123 0.61277612 4.38058783 1.25372522 7 3 C4.03 3.66 1.06 4.32 -2 5 C-1.34 3.35 -0.68 1.7 0 0 Z " fill="#DDD6CE" transform="translate(362,385)"/>
<path d="M0 0 C-0.33 0.99 -0.66 1.98 -1 3 C-3.0625 3.6875 -3.0625 3.6875 -5 4 C-5.33 2.68 -5.66 1.36 -6 0 C-3.50907189 -1.24546405 -2.58919267 -0.7767578 0 0 Z " fill="#633B00" transform="translate(410,361)"/>
<path d="M0 0 C0.99 0.33 1.98 0.66 3 1 C3 2.32 3 3.64 3 5 C2.34 5 1.68 5 1 5 C0.67 6.32 0.34 7.64 0 9 C0 6.03 0 3.06 0 0 Z " fill="#DDD6CF" transform="translate(374,394)"/>
<path d="M0 0 C1.32 0.66 2.64 1.32 4 2 C4 2.66 4 3.32 4 4 C2.02 4 0.04 4 -2 4 C-1.34 2.68 -0.68 1.36 0 0 Z " fill="#F6F4F2" transform="translate(353,348)"/>
</svg>
