<?xml version="1.0" encoding="UTF-8"?>
<svg version="1.1" xmlns="http://www.w3.org/2000/svg" width="512" height="512">
<path d="M0 0 C5.16342359 4.05035024 8.54725023 9.85373372 9.75 16.3125 C11.03858115 31.33186394 5.87714008 42.76287295 -1.2265625 55.5625 C-2.80006147 58.41046194 -4.13654161 61.24749627 -5.25 64.3125 C-4.82589844 64.70179687 -4.40179688 65.09109375 -3.96484375 65.4921875 C7.16686912 76.110129 14.16537759 89.79403154 19.1875 104.1875 C23.8879101 116.53106988 32.34398309 127.45272746 39.75 138.3125 C51.80015486 126.77814382 51.80015486 126.77814382 57.79296875 112.078125 C57.46367428 110.15301889 57.10796275 108.23248204 56.75 106.3125 C57.75 103.375 57.75 103.375 59.75 101.3125 C62.07817964 100.94489269 64.4118385 100.61008419 66.75 100.3125 C67.96690533 98.54720405 67.96690533 98.54720405 68.75 96.3125 C72.92058443 91.42695824 77.02809891 88.76869714 83.36328125 87.9921875 C89.68326472 87.72994752 94.64181815 88.44364497 99.75 92.3125 C106.01498532 98.24318769 109.01481743 103.37635487 109.375 112.125 C109.4517209 120.73372474 106.11339034 127.09649408 101.86132812 134.39550781 C100.82252271 136.18740152 99.8386899 138.01085063 98.859375 139.8359375 C81.28715569 172.10089481 55.23220754 200.69470942 22.95703125 218.48046875 C20.04419908 220.14443743 17.34596173 221.917817 14.625 223.875 C-6.89607062 239.3125 -6.89607062 239.3125 -16.25 239.3125 C-15.82589844 240.36228027 -15.40179688 241.41206055 -14.96484375 242.49365234 C-13.39593573 246.37978881 -11.83155568 250.2677344 -10.26855469 254.15625 C-9.59075811 255.84066872 -8.91172583 257.52459074 -8.23144531 259.20800781 C-7.25522669 261.62436236 -6.28343024 264.04245399 -5.3125 266.4609375 C-5.00626709 267.2161972 -4.70003418 267.97145691 -4.38452148 268.74960327 C-2.25 274.08475659 -2.25 274.08475659 -2.25 276.3125 C-1.60675781 276.27769531 -0.96351563 276.24289062 -0.30078125 276.20703125 C8.63931506 275.93921096 20.00225721 276.42310342 27.19921875 282.44140625 C41.84625688 300.1137772 41.6256751 327.59527701 42.75 349.3125 C44.09191406 348.98765625 44.09191406 348.98765625 45.4609375 348.65625 C62.00623518 344.84624542 62.00623518 344.84624542 70.1875 347.375 C73.67411318 350.01121972 74.58047565 352.11597144 75.75 356.3125 C75.98022743 364.26302063 72.30831154 370.43685265 67.0703125 376.16796875 C53.75777701 388.47197883 34.45932122 395.97202849 16.36328125 395.5625 C11.30916383 395.07899699 7.36981029 393.75233137 3.5 390.3125 C-1.72405039 381.35698505 -3.45505568 371.38866473 -5.25 361.3125 C-6.57451172 362.07046875 -6.57451172 362.07046875 -7.92578125 362.84375 C-15.14777323 366.82080047 -21.78762084 370.40114454 -30.25 368.3125 C-38.98737585 364.18297382 -45.39771992 354.70693497 -51.25 347.3125 C-52.508125 347.56 -53.76625 347.8075 -55.0625 348.0625 C-55.98417969 348.24039062 -56.90585937 348.41828125 -57.85546875 348.6015625 C-60.36296229 349.12672225 -62.82115561 349.70262069 -65.30078125 350.3359375 C-80.72341679 354.1367446 -101.79894784 357.61716309 -116.25 349.3125 C-123.91147887 344.18120088 -128.65627512 337.51514353 -130.9651947 328.52902222 C-131.4941709 325.56193927 -131.9226066 322.59787142 -132.3125 319.609375 C-132.63797226 317.39061787 -132.96349456 315.17186809 -133.2890625 312.953125 C-133.77470201 309.49552927 -134.25350065 306.0370615 -134.72949219 302.578125 C-135.19895601 299.21093617 -135.69235286 295.84786753 -136.1875 292.484375 C-136.32099854 291.45302429 -136.45449707 290.42167358 -136.59204102 289.35906982 C-137.68021391 282.02397282 -139.41373602 278.32060675 -145.34448242 273.67016602 C-151.12097899 270.42109924 -155.99329625 269.53102283 -162.5625 269.25 C-208.47605091 266.10942184 -252.72131643 246.11696292 -288.25 217.3125 C-289.17941406 216.57515625 -290.10882813 215.8378125 -291.06640625 215.078125 C-298.07308243 209.45683714 -304.74229758 203.4993209 -311.25 197.3125 C-311.88615234 196.71034668 -312.52230469 196.10819336 -313.17773438 195.48779297 C-315.21530009 193.54699689 -317.23471309 191.5889015 -319.25 189.625 C-319.88518555 189.01962402 -320.52037109 188.41424805 -321.17480469 187.79052734 C-328.13017017 180.92261563 -331.38175947 173.94881776 -331.5 164.125 C-331.46227601 154.22009493 -329.42919714 148.58105958 -322.52734375 141.3671875 C-315.17849754 134.73683912 -307.69770447 133.40255631 -298.03515625 133.88671875 C-291.61416026 134.60899797 -287.32776839 136.78597628 -282.1875 140.5625 C-279.14964092 142.37228839 -278.45443141 142.48418339 -275.125 142.3125 C-271.25 142.3125 -271.25 142.3125 -268.75 143.75 C-267.25 146.3125 -267.25 146.3125 -267.75 150.25 C-267.95019307 154.61134907 -266.44635376 156.76712596 -263.57373047 159.97973633 C-261.41741052 162.23407082 -259.22369272 164.4427409 -256.98730469 166.61767578 C-255.24909437 168.31338349 -253.54710166 170.03904752 -251.8515625 171.77734375 C-247.00983068 177.15841677 -247.00983068 177.15841677 -241.25 181.3125 C-241.2814209 180.15186035 -241.2814209 180.15186035 -241.31347656 178.96777344 C-241.80819766 157.83253664 -240.56118488 139.15391019 -232.421875 119.40234375 C-231.0726907 116.39576226 -231.0726907 116.39576226 -231.25 113.3125 C-232.10980469 112.98378906 -232.96960938 112.65507812 -233.85546875 112.31640625 C-245.65426765 107.56857986 -257.66900517 101.75770839 -264.25 90.3125 C-264.86875 89.28125 -265.4875 88.25 -266.125 87.1875 C-268.8370973 80.09057473 -268.26508062 71.09529539 -265.6875 64.0625 C-259.13287504 50.08539032 -248.65499436 39.0364787 -234.25 33.3125 C-226.83486153 31.0374007 -219.6436222 31.85965207 -212.62890625 34.98828125 C-208.61495579 37.22264776 -205.45535678 40.04679131 -202.25 43.3125 C-201.65445313 43.90933594 -201.05890625 44.50617188 -200.4453125 45.12109375 C-195.35364795 50.56351742 -191.81903745 56.80361711 -188.25 63.3125 C-187.62996094 62.9 -187.00992188 62.4875 -186.37109375 62.0625 C-163.62704393 47.23086344 -138.43221414 37.14091958 -111.25 34.3125 C-110.21359375 34.20292969 -109.1771875 34.09335938 -108.109375 33.98046875 C-96.59256998 32.93727989 -85.2365445 32.95498752 -73.75 34.1875 C-73.00854736 34.26589111 -72.26709473 34.34428223 -71.50317383 34.42504883 C-66.90511737 34.9672504 -62.66898883 35.92865876 -58.25 37.3125 C-58.42917969 36.66796875 -58.60835938 36.0234375 -58.79296875 35.359375 C-60.23070878 25.77444149 -58.40378031 13.5380699 -53.25 5.3125 C-52.84007812 4.60867187 -52.43015625 3.90484375 -52.0078125 3.1796875 C-47.85876709 -3.17280575 -42.03396658 -6.52819522 -34.703125 -8.3046875 C-22.32248293 -10.23669852 -10.29206312 -6.95774304 0 0 Z " fill="#FEFEFD" transform="translate(367.25,62.6875)"/>
<path d="M0 0 C5.16342359 4.05035024 8.54725023 9.85373372 9.75 16.3125 C11.03858115 31.33186394 5.87714008 42.76287295 -1.2265625 55.5625 C-2.80006147 58.41046194 -4.13654161 61.24749627 -5.25 64.3125 C-4.82589844 64.70179687 -4.40179688 65.09109375 -3.96484375 65.4921875 C7.16686912 76.110129 14.16537759 89.79403154 19.1875 104.1875 C23.8879101 116.53106988 32.34398309 127.45272746 39.75 138.3125 C51.80015486 126.77814382 51.80015486 126.77814382 57.79296875 112.078125 C57.46367428 110.15301889 57.10796275 108.23248204 56.75 106.3125 C57.75 103.375 57.75 103.375 59.75 101.3125 C62.07817964 100.94489269 64.4118385 100.61008419 66.75 100.3125 C67.96690533 98.54720405 67.96690533 98.54720405 68.75 96.3125 C72.92058443 91.42695824 77.02809891 88.76869714 83.36328125 87.9921875 C89.68326472 87.72994752 94.64181815 88.44364497 99.75 92.3125 C106.01498532 98.24318769 109.01481743 103.37635487 109.375 112.125 C109.4517209 120.73372474 106.11339034 127.09649408 101.86132812 134.39550781 C100.82252271 136.18740152 99.8386899 138.01085063 98.859375 139.8359375 C81.28715569 172.10089481 55.23220754 200.69470942 22.95703125 218.48046875 C20.04419908 220.14443743 17.34596173 221.917817 14.625 223.875 C-6.89607062 239.3125 -6.89607062 239.3125 -16.25 239.3125 C-15.82589844 240.36228027 -15.40179688 241.41206055 -14.96484375 242.49365234 C-13.39593573 246.37978881 -11.83155568 250.2677344 -10.26855469 254.15625 C-9.59075811 255.84066872 -8.91172583 257.52459074 -8.23144531 259.20800781 C-7.25522669 261.62436236 -6.28343024 264.04245399 -5.3125 266.4609375 C-5.00626709 267.2161972 -4.70003418 267.97145691 -4.38452148 268.74960327 C-2.25 274.08475659 -2.25 274.08475659 -2.25 276.3125 C-1.60675781 276.27769531 -0.96351563 276.24289062 -0.30078125 276.20703125 C8.63931506 275.93921096 20.00225721 276.42310342 27.19921875 282.44140625 C41.84625688 300.1137772 41.6256751 327.59527701 42.75 349.3125 C44.09191406 348.98765625 44.09191406 348.98765625 45.4609375 348.65625 C62.00623518 344.84624542 62.00623518 344.84624542 70.1875 347.375 C73.67411318 350.01121972 74.58047565 352.11597144 75.75 356.3125 C75.98022743 364.26302063 72.30831154 370.43685265 67.0703125 376.16796875 C53.75777701 388.47197883 34.45932122 395.97202849 16.36328125 395.5625 C11.30916383 395.07899699 7.36981029 393.75233137 3.5 390.3125 C-1.72405039 381.35698505 -3.45505568 371.38866473 -5.25 361.3125 C-6.57451172 362.07046875 -6.57451172 362.07046875 -7.92578125 362.84375 C-15.14777323 366.82080047 -21.78762084 370.40114454 -30.25 368.3125 C-38.98737585 364.18297382 -45.39771992 354.70693497 -51.25 347.3125 C-52.508125 347.56 -53.76625 347.8075 -55.0625 348.0625 C-55.98417969 348.24039062 -56.90585937 348.41828125 -57.85546875 348.6015625 C-60.36296229 349.12672225 -62.82115561 349.70262069 -65.30078125 350.3359375 C-80.72341679 354.1367446 -101.79894784 357.61716309 -116.25 349.3125 C-123.91147887 344.18120088 -128.65627512 337.51514353 -130.9651947 328.52902222 C-131.4941709 325.56193927 -131.9226066 322.59787142 -132.3125 319.609375 C-132.63797226 317.39061787 -132.96349456 315.17186809 -133.2890625 312.953125 C-133.77470201 309.49552927 -134.25350065 306.0370615 -134.72949219 302.578125 C-135.19895601 299.21093617 -135.69235286 295.84786753 -136.1875 292.484375 C-136.32099854 291.45302429 -136.45449707 290.42167358 -136.59204102 289.35906982 C-137.68021391 282.02397282 -139.41373602 278.32060675 -145.34448242 273.67016602 C-151.12097899 270.42109924 -155.99329625 269.53102283 -162.5625 269.25 C-208.47605091 266.10942184 -252.72131643 246.11696292 -288.25 217.3125 C-289.17941406 216.57515625 -290.10882813 215.8378125 -291.06640625 215.078125 C-298.07308243 209.45683714 -304.74229758 203.4993209 -311.25 197.3125 C-311.88615234 196.71034668 -312.52230469 196.10819336 -313.17773438 195.48779297 C-315.21530009 193.54699689 -317.23471309 191.5889015 -319.25 189.625 C-319.88518555 189.01962402 -320.52037109 188.41424805 -321.17480469 187.79052734 C-328.13017017 180.92261563 -331.38175947 173.94881776 -331.5 164.125 C-331.46227601 154.22009493 -329.42919714 148.58105958 -322.52734375 141.3671875 C-315.17849754 134.73683912 -307.69770447 133.40255631 -298.03515625 133.88671875 C-291.61416026 134.60899797 -287.32776839 136.78597628 -282.1875 140.5625 C-279.14964092 142.37228839 -278.45443141 142.48418339 -275.125 142.3125 C-271.25 142.3125 -271.25 142.3125 -268.75 143.75 C-267.25 146.3125 -267.25 146.3125 -267.75 150.25 C-267.95019307 154.61134907 -266.44635376 156.76712596 -263.57373047 159.97973633 C-261.41741052 162.23407082 -259.22369272 164.4427409 -256.98730469 166.61767578 C-255.24909437 168.31338349 -253.54710166 170.03904752 -251.8515625 171.77734375 C-247.00983068 177.15841677 -247.00983068 177.15841677 -241.25 181.3125 C-241.2814209 180.15186035 -241.2814209 180.15186035 -241.31347656 178.96777344 C-241.80819766 157.83253664 -240.56118488 139.15391019 -232.421875 119.40234375 C-231.0726907 116.39576226 -231.0726907 116.39576226 -231.25 113.3125 C-232.10980469 112.98378906 -232.96960938 112.65507812 -233.85546875 112.31640625 C-245.65426765 107.56857986 -257.66900517 101.75770839 -264.25 90.3125 C-264.86875 89.28125 -265.4875 88.25 -266.125 87.1875 C-268.8370973 80.09057473 -268.26508062 71.09529539 -265.6875 64.0625 C-259.13287504 50.08539032 -248.65499436 39.0364787 -234.25 33.3125 C-226.83486153 31.0374007 -219.6436222 31.85965207 -212.62890625 34.98828125 C-208.61495579 37.22264776 -205.45535678 40.04679131 -202.25 43.3125 C-201.65445313 43.90933594 -201.05890625 44.50617188 -200.4453125 45.12109375 C-195.35364795 50.56351742 -191.81903745 56.80361711 -188.25 63.3125 C-187.62996094 62.9 -187.00992188 62.4875 -186.37109375 62.0625 C-163.62704393 47.23086344 -138.43221414 37.14091958 -111.25 34.3125 C-110.21359375 34.20292969 -109.1771875 34.09335938 -108.109375 33.98046875 C-96.59256998 32.93727989 -85.2365445 32.95498752 -73.75 34.1875 C-73.00854736 34.26589111 -72.26709473 34.34428223 -71.50317383 34.42504883 C-66.90511737 34.9672504 -62.66898883 35.92865876 -58.25 37.3125 C-58.42917969 36.66796875 -58.60835938 36.0234375 -58.79296875 35.359375 C-60.23070878 25.77444149 -58.40378031 13.5380699 -53.25 5.3125 C-52.84007812 4.60867187 -52.43015625 3.90484375 -52.0078125 3.1796875 C-47.85876709 -3.17280575 -42.03396658 -6.52819522 -34.703125 -8.3046875 C-22.32248293 -10.23669852 -10.29206312 -6.95774304 0 0 Z M-190.25 70.3125 C-191.10207031 71.03953125 -191.95414063 71.7665625 -192.83203125 72.515625 C-195.35501359 74.73243898 -197.80744218 77.00760647 -200.25 79.3125 C-201.06082031 80.04726562 -201.87164062 80.78203125 -202.70703125 81.5390625 C-216.40428963 94.43821291 -226.58438634 111.75417741 -232.625 129.5 C-232.86387939 130.1997998 -233.10275879 130.89959961 -233.34887695 131.62060547 C-241.75270953 157.90577418 -238.6273233 186.02276102 -226.25 210.3125 C-215.36196783 231.2932169 -195.42461305 242.97676897 -173.75390625 250.53125 C-170.27247162 251.5937919 -166.79596369 252.49096746 -163.25 253.3125 C-162.0125 253.59996094 -160.775 253.88742187 -159.5 254.18359375 C-135.83688915 259.10933725 -110.95958442 257.92577571 -87.25 254.3125 C-85.08344155 254.00574512 -82.91677385 253.69976092 -80.75 253.39453125 C-67.99263251 251.53725111 -55.58370561 249.07353664 -43.25 245.3125 C-41.85249512 244.88710938 -41.85249512 244.88710938 -40.42675781 244.453125 C-18.05804292 237.5366275 2.45613115 229.18499643 20.75 214.3125 C21.63945313 213.64347656 21.63945313 213.64347656 22.546875 212.9609375 C33.61499573 204.27906298 41.41440431 191.077993 43.46875 177.19140625 C45.56574621 155.72632003 37.53469839 141.26799206 25.86621094 124.10400391 C21.34928841 117.39125477 17.73531043 110.85167379 14.75 103.3125 C4.04166822 76.96127602 -12.25105713 58.29478358 -38.625 47 C-47.00122528 43.54682763 -55.38175248 41.11075724 -64.25 39.3125 C-65.24128906 39.08820313 -66.23257813 38.86390625 -67.25390625 38.6328125 C-107.92101912 30.72682251 -158.87845375 43.32410542 -190.25 70.3125 Z " fill="#4E2801" transform="translate(367.25,62.6875)"/>
<path d="M0 0 C2.02921354 4.97524509 4.05541957 9.95170159 6.07910156 14.92919922 C6.76484258 16.6147391 7.45133942 18.29997173 8.13867188 19.98486328 C10.12908991 24.86487942 12.10428851 29.75056849 14.05773926 34.64550781 C14.67774056 36.19474803 15.30189913 37.74233207 15.93054199 39.28808594 C16.79806454 41.42649315 17.64731936 43.57130901 18.4921875 45.71875 C18.97800293 46.93498047 19.46381836 48.15121094 19.96435547 49.40429688 C21.15691445 53.5447987 21.18935248 56.71744851 21 61 C21.66 60.67 22.32 60.34 23 60 C27.539219 59.45600715 30.9544269 59.37710539 34.9375 61.75 C39.58243257 66.81719917 39.80293125 72.08672709 39.578125 78.76953125 C38.63451875 89.01814361 31.60124086 99.40609134 25 107 C24.37222656 107.74636719 23.74445313 108.49273437 23.09765625 109.26171875 C16.02082707 117.47953382 8.30260035 125.46205314 -2.8046875 127.51953125 C-8.74243997 127.87316471 -12.52209559 126.87977933 -17.0234375 122.98046875 C-31.01186944 108.96439169 -31.01186944 108.96439169 -33 103 C-38.99362675 103.75609483 -44.73999619 105.07646059 -50.59570312 106.5390625 C-64.39401595 109.89777988 -82.38671206 112.09983995 -95.1875 104.8125 C-103.49907453 99.11171826 -107.48064538 91.76328388 -109.41101074 81.89990234 C-110.35709198 76.22647766 -111.05144754 70.5206247 -111.75 64.8125 C-111.97149661 63.07992948 -112.1941442 61.3475057 -112.41796875 59.61523438 C-112.95858775 55.41172912 -113.48362432 51.20654929 -114 47 C-113.01 47.33 -112.02 47.66 -111 48 C-110.5978125 47.11828125 -110.5978125 47.11828125 -110.1875 46.21875 C-108.64751744 43.34141417 -106.62183502 41.18401852 -104.4375 38.78125 C-101.7798844 35.48811763 -100.7202705 32.86145309 -100.75 28.625 C-100.74484375 27.89539063 -100.7396875 27.16578125 -100.734375 26.4140625 C-101.06307456 23.42676352 -101.97707998 20.81708927 -103 18 C-101.7109375 17.98582031 -100.421875 17.97164063 -99.09375 17.95703125 C-68.09278828 17.2789925 -37.01988985 11.29371604 -7.75 1.1875 C-4 0 -4 0 0 0 Z " fill="#4F2901" transform="translate(348,304)"/>
<path d="M0 0 C8.27048302 5.75523303 13.69785035 13.24303676 16.03125 23.109375 C18.40308895 40.74095031 13.88073127 56.24098503 3.3125 70.3671875 C-2.58101681 77.45151764 -9.0636125 82.32491558 -17.96875 85.109375 C-21.15625 85.3828125 -21.15625 85.3828125 -23.96875 85.109375 C-25.65748879 83.46507671 -27.32180515 81.79553282 -28.96875 80.109375 C-33.97919614 77.31508773 -37.69753099 77.05173365 -43.29931641 77.31738281 C-52.97731272 77.75813429 -52.97731272 77.75813429 -56.296875 75.5859375 C-57.88849642 73.48789109 -58.95039041 71.53383779 -59.96875 69.109375 C-60.28714844 68.48933594 -60.60554687 67.86929688 -60.93359375 67.23046875 C-66.41192493 55.94561142 -65.05460846 41.08067756 -61.29296875 29.4921875 C-55.66986843 15.12757135 -47.80363479 4.30590729 -33.96875 -2.890625 C-22.54194368 -7.54948818 -10.47862945 -6.00838845 0 0 Z " fill="#502B03" transform="translate(248.96875,171.890625)"/>
<path d="M0 0 C2.02921354 4.97524509 4.05541957 9.95170159 6.07910156 14.92919922 C6.76484258 16.6147391 7.45133942 18.29997173 8.13867188 19.98486328 C10.12908991 24.86487942 12.10428851 29.75056849 14.05773926 34.64550781 C14.67774056 36.19474803 15.30189913 37.74233207 15.93054199 39.28808594 C16.79806454 41.42649315 17.64731936 43.57130901 18.4921875 45.71875 C18.97800293 46.93498047 19.46381836 48.15121094 19.96435547 49.40429688 C21.15691445 53.5447987 21.18935248 56.71744851 21 61 C21.66 60.67 22.32 60.34 23 60 C27.539219 59.45600715 30.9544269 59.37710539 34.9375 61.75 C39.58243257 66.81719917 39.80293125 72.08672709 39.578125 78.76953125 C38.63451875 89.01814361 31.60124086 99.40609134 25 107 C24.37222656 107.74636719 23.74445313 108.49273437 23.09765625 109.26171875 C16.02082707 117.47953382 8.30260035 125.46205314 -2.8046875 127.51953125 C-8.74243997 127.87316471 -12.52209559 126.87977933 -17.0234375 122.98046875 C-31.01186944 108.96439169 -31.01186944 108.96439169 -33 103 C-38.99362675 103.75609483 -44.73999619 105.07646059 -50.59570312 106.5390625 C-64.39401595 109.89777988 -82.38671206 112.09983995 -95.1875 104.8125 C-101.4790222 100.53877676 -105.63886392 95.21458248 -108 88 C-108.1875 84.5625 -108.1875 84.5625 -108 82 C-106.03706234 83.96293766 -105.31652719 85.27094455 -104.1875 87.75 C-99.75781413 96.60937175 -94.32050398 100.55840955 -85 104 C-81.31564382 104.68245338 -77.74433987 104.9852585 -74 105 C-73.74605469 104.26910156 -73.49210937 103.53820312 -73.23046875 102.78515625 C-70.14475775 95.80067389 -64.06897094 89.80321261 -57 87 C-51.81812139 86.11508149 -47.47480971 86.3340985 -42.875 89 C-35.27630877 94.47530446 -29.67981625 101.55818746 -24.0144043 108.90893555 C-16.89994059 118.59302852 -16.89994059 118.59302852 -6.5625 123.5 C4.20787973 123.12589175 13.53795548 115.09892702 20.61132812 107.58886719 C28.48430256 98.58089995 35.913956 86.18216591 36.5625 74.0625 C36.25571776 69.79901354 35.11750217 67.03956462 32 64 C25.66123138 62.68853063 21.78819301 64.71126695 16.4609375 68.12890625 C13.18788854 70.61746252 10.47558558 73.45480219 7.7890625 76.55859375 C6 78 6 78 4.02734375 77.81152344 C1.46664701 76.78650466 1.00730967 75.89177323 -0.2265625 73.45703125 C-0.61320068 72.7199292 -0.99983887 71.98282715 -1.39819336 71.22338867 C-1.80303955 70.42779541 -2.20788574 69.63220215 -2.625 68.8125 C-7.13964993 60.33904284 -12.10784214 52.57405288 -18 45 C-18.45020508 44.41814941 -18.90041016 43.83629883 -19.36425781 43.23681641 C-25.37526479 35.55982957 -31.4516949 28.18276837 -41 25 C-59.22010355 23.23676417 -77.25567843 37.22316507 -90.73046875 48.23046875 C-93 50 -93 50 -95.9375 51.1875 C-102.05008859 54.80515447 -105.15001895 61.30840189 -107 68 C-107.27580863 70.28452807 -107.4843786 72.57818383 -107.625 74.875 C-107.69976562 76.02742188 -107.77453125 77.17984375 -107.8515625 78.3671875 C-107.90054688 79.23601562 -107.94953125 80.10484375 -108 81 C-108.33 81 -108.66 81 -109 81 C-109.73854903 76.48061153 -110.46874463 71.95998345 -111.19116211 67.43798828 C-111.43820554 65.89920491 -111.68754544 64.36078842 -111.93920898 62.82275391 C-112.30012805 60.61452718 -112.6528226 58.40512147 -113.00390625 56.1953125 C-113.11843643 55.50567413 -113.23296661 54.81603577 -113.35096741 54.10549927 C-114.11387171 49.22774341 -114.11387171 49.22774341 -113 47 C-112.34 47.33 -111.68 47.66 -111 48 C-110.5978125 47.11828125 -110.5978125 47.11828125 -110.1875 46.21875 C-108.64751744 43.34141417 -106.62183502 41.18401852 -104.4375 38.78125 C-101.7798844 35.48811763 -100.7202705 32.86145309 -100.75 28.625 C-100.74484375 27.89539063 -100.7396875 27.16578125 -100.734375 26.4140625 C-101.06307456 23.42676352 -101.97707998 20.81708927 -103 18 C-101.7109375 17.98582031 -100.421875 17.97164063 -99.09375 17.95703125 C-68.09278828 17.2789925 -37.01988985 11.29371604 -7.75 1.1875 C-4 0 -4 0 0 0 Z " fill="#FAF9F8" transform="translate(348,304)"/>
<path d="M0 0 C15.45131347 9.40127902 25.0286701 25.70535677 29.54296875 42.78027344 C30.89134402 49.51412376 30.47010359 56.4241063 30.03515625 63.23828125 C28.97296875 63.480625 27.91078125 63.72296875 26.81640625 63.97265625 C11.84892698 67.133802 11.84892698 67.133802 1.03515625 77.23828125 C0.61610922 80.99030392 0.61610922 80.99030392 1.03515625 84.23828125 C-5.08141587 83.93245264 -8.49607877 81.07467383 -12.96484375 77.23828125 C-13.62742187 76.68269531 -14.29 76.12710938 -14.97265625 75.5546875 C-24.001483 67.32252193 -29.45676791 55.78714477 -32.96484375 44.23828125 C-33.320625 43.12839844 -33.67640625 42.01851562 -34.04296875 40.875 C-36.87239933 29.71313615 -35.38026269 18.85422576 -29.64453125 8.9609375 C-22.57263144 -1.41504665 -11.8574221 -5.13740465 0 0 Z " fill="#512C05" transform="translate(356.96484375,148.76171875)"/>
<path d="M0 0 C1.10327148 1.63549805 1.10327148 1.63549805 2.12109375 3.76171875 C2.49758057 4.54393799 2.87406738 5.32615723 3.26196289 6.13208008 C3.64989014 6.97536865 4.03781738 7.81865723 4.4375 8.6875 C4.83638428 9.54947998 5.23526855 10.41145996 5.64624023 11.29956055 C11.73421049 24.75855985 16.23047487 38.60042894 11.125 53.1875 C9.94637851 56.09913162 8.75392688 58.36910968 7 61 C6.34 61 5.68 61 5 61 C3.40019906 58.58971389 1.90663103 56.17588595 0.4375 53.6875 C-3.86934488 46.57955129 -8.57308389 40.30324692 -14 34 C-14.63292969 33.16210938 -15.26585937 32.32421875 -15.91796875 31.4609375 C-18.20236337 28.76080878 -20.56635812 26.87127996 -23.4375 24.8125 C-24.36433594 24.13832031 -25.29117188 23.46414063 -26.24609375 22.76953125 C-31.40539349 19.45440673 -35.88189854 18.20464681 -42 19 C-55.54323322 22.14681007 -67.61280793 29.58585252 -78.60888672 37.85009766 C-82.81494006 41 -82.81494006 41 -85 41 C-87.29612756 24.29157175 -87.29612756 24.29157175 -87 16 C-89.97 16.33 -92.94 16.66 -96 17 C-96 16.34 -96 15.68 -96 15 C-94.7109375 14.98582031 -93.421875 14.97164063 -92.09375 14.95703125 C-63.13385893 14.32363385 -33.46222879 9.23417443 -6 0 C-3 -1 -3 -1 0 0 Z " fill="#FDAACA" transform="translate(341,307)"/>
<path d="M0 0 C2.875 2.4375 2.875 2.4375 5 5 C5.495 5.495 5.495 5.495 6 6 C6.61690342 12.04565356 5.46618977 16.13833123 2 21 C-8.93585503 33.34219339 -23.76388556 38.22757995 -39.8984375 39.24609375 C-50.71729268 39.43262574 -61.37099308 39.23313815 -70 32 C-73.47509186 28.19911828 -73.38208998 24.33490693 -73.49609375 19.40234375 C-72.80419479 16.0518094 -71.73962843 15.05170056 -69 13 C-66.07953708 12.69849396 -63.55265396 12.62628055 -60.6484375 12.75 C-59.42732773 12.77271973 -59.42732773 12.77271973 -58.18154907 12.79589844 C-54.71001786 12.86097538 -51.24039746 12.9727485 -47.77001953 13.08203125 C-33.2007372 13.50137056 -24.01241339 11.68719399 -12.10351562 3.00390625 C-7.9323799 0.13416487 -5.02723727 -0.64575557 0 0 Z " fill="#FB0072" transform="translate(335,220)"/>
<path d="M0 0 C2.0419476 1.89840933 3.41620416 3.67709943 5 6 C4.34 6 3.68 6 3 6 C2.9071875 7.0828125 2.9071875 7.0828125 2.8125 8.1875 C1.49151196 12.76015089 -1.26030956 14.97855739 -5.30859375 17.35546875 C-12.76070871 21.22330924 -19.53537121 23.34729458 -28 23.25 C-28.67289063 23.25773437 -29.34578125 23.26546875 -30.0390625 23.2734375 C-36.04721755 23.25023999 -41.07243651 22.43541962 -45.9375 18.8125 C-48 16 -48 16 -48.875 12.6875 C-47.51611589 6.96077409 -43.68175292 4.31624165 -39 1 C-36.62902606 -0.39294719 -34.66544245 -1.12767338 -32 -2 C-30.824375 -2.391875 -29.64875 -2.78375 -28.4375 -3.1875 C-18.93911552 -5.34538541 -8.4356212 -5.26229678 0 0 Z " fill="#FDA9CA" transform="translate(222,252)"/>
<path d="M0 0 C2.2091558 3.3137337 2.10577169 5.34613801 1.5 9.25 C-1.86100536 14.6066023 -5.76817065 16.82859454 -11.5 19.25 C-12.36625 19.641875 -13.2325 20.03375 -14.125 20.4375 C-21.95338543 23.11563186 -33.17725741 23.8871701 -41.1796875 21.42578125 C-43.25 20.375 -43.25 20.375 -46.5 18.25 C-47.82572661 17.56833206 -49.15745809 16.8979224 -50.5 16.25 C-49.84 16.25 -49.18 16.25 -48.5 16.25 C-48.78875 15.239375 -49.0775 14.22875 -49.375 13.1875 C-49.50299331 9.15571062 -49.5067788 8.58094356 -47.1875 5.625 C-35.96399532 -5.88297139 -13.36075957 -9.3525317 0 0 Z " fill="#FDAACB" transform="translate(406.5,216.75)"/>
<path d="M0 0 C1.2065625 0.0309375 1.2065625 0.0309375 2.4375 0.0625 C6.80110948 10.45204639 8.70728686 20.84736011 8.875 32.0625 C8.89715576 32.86341064 8.91931152 33.66432129 8.94213867 34.48950195 C8.92257989 39.80669581 8.00354396 42.88442047 4.4375 47.0625 C2.3671875 48.70703125 2.3671875 48.70703125 0.3125 49.875 C-0.37070312 50.27332031 -1.05390625 50.67164063 -1.7578125 51.08203125 C-7.38613958 54.13984531 -13.2744846 53.73349834 -19.5625 53.0625 C-25.79797323 50.9113113 -28.52649861 45.89455798 -31.375 40.25 C-35.75536502 30.9939722 -41.13152615 19.41200533 -38.5625 9.0625 C-36.25 8.375 -36.25 8.375 -33.5625 8.0625 C-29.74613155 11.01095894 -29.5646572 15.00602284 -28.75 19.5 C-27.08716581 27.75537554 -25.0786481 36.97391622 -18.58203125 42.85546875 C-15.46614027 44.7177711 -13.12973371 44.42526953 -9.5625 44.0625 C-6.06920903 42.96380365 -3.18765935 41.68765935 -0.5625 39.0625 C0.71184551 30.20135331 -1.24167021 21.55244142 -3.22705078 12.95556641 C-4.97997869 5.14483863 -4.97997869 5.14483863 -3.5625 1.0625 C-2.5625 0.0625 -2.5625 0.0625 0 0 Z " fill="#F9F8F6" transform="translate(368.5625,163.9375)"/>
<path d="M0 0 C1.98 0 3.96 0 6 0 C10.51349001 12.03597337 15.42926384 29.3944483 10.875 42 C7.26765878 47.77174596 2.44321072 50.9930983 -4 53 C-10.49425429 53.88469632 -15.85830194 53.62324968 -21.23046875 49.640625 C-30.95204936 40.62723901 -35.23276516 24.85767041 -36.1875 11.96875 C-36 10 -36 10 -34 8 C-31.375 8.375 -31.375 8.375 -29 9 C-27.47950554 13.52523318 -25.97596375 18.05416033 -24.53515625 22.60546875 C-24.17067383 23.73952148 -24.17067383 23.73952148 -23.79882812 24.89648438 C-23.30488962 26.43332752 -22.81798631 27.97244826 -22.33789062 29.51367188 C-20.41567996 35.43245776 -18.35347952 40.43101366 -13 44 C-8.28916788 44.1058614 -3.10377295 43.36277837 1 41 C6.05233504 32.80557674 2.34823347 21.79266936 0.33544922 13.08203125 C-0.71102765 8.37975199 -1.23884316 4.7761689 0 0 Z " fill="#F9F8F7" transform="translate(234,194)"/>
<path d="M0 0 C2.875 2.4375 2.875 2.4375 5 5 C5.495 5.495 5.495 5.495 6 6 C6.61690342 12.04565356 5.46618977 16.13833123 2 21 C-8.93585503 33.34219339 -23.76388556 38.22757995 -39.8984375 39.24609375 C-50.71729268 39.43262574 -61.37099308 39.23313815 -70 32 C-73.47509186 28.19911828 -73.38208998 24.33490693 -73.49609375 19.40234375 C-72.80419479 16.0518094 -71.73962843 15.05170056 -69 13 C-66.07953708 12.69849396 -63.55265396 12.62628055 -60.6484375 12.75 C-59.42732773 12.77271973 -59.42732773 12.77271973 -58.18154907 12.79589844 C-54.71001786 12.86097538 -51.24039746 12.9727485 -47.77001953 13.08203125 C-33.2007372 13.50137056 -24.01241339 11.68719399 -12.10351562 3.00390625 C-7.9323799 0.13416487 -5.02723727 -0.64575557 0 0 Z M-29 16 C-31.89375433 16.06268803 -34.76355343 16.06688934 -37.65625 16.02734375 C-39.41796681 16.0147001 -41.17968566 16.00233895 -42.94140625 15.99023438 C-45.72646399 15.96537218 -48.51141671 15.93736345 -51.29638672 15.90405273 C-53.97884819 15.87394202 -56.66117396 15.85610532 -59.34375 15.83984375 C-60.18023071 15.82638412 -61.01671143 15.8129245 -61.87854004 15.79905701 C-63.92010631 15.79014726 -65.96160074 15.88597935 -68 16 C-70.33542357 18.33542357 -70.39362193 19.04676431 -70.5625 22.25 C-70.49544697 25.03046545 -70.32875039 26.53435355 -68.71484375 28.8203125 C-61.84338118 35.05002116 -54.22472473 36.52394737 -45.25 36.375 C-44.36892578 36.36557373 -43.48785156 36.35614746 -42.58007812 36.34643555 C-30.68684006 36.07226189 -16.17690592 33.13801091 -7 25 C-7 24.34 -7 23.68 -7 23 C-8.72718516 22.03810003 -10.45684058 21.08063492 -12.1875 20.125 C-13.15042969 19.59132812 -14.11335938 19.05765625 -15.10546875 18.5078125 C-21.79280516 14.80822773 -21.79280516 14.80822773 -29 16 Z " fill="#522B05" transform="translate(335,220)"/>
<path d="M0 0 C0.9265741 0.00565979 1.85314819 0.01131958 2.80780029 0.01715088 C5.76302062 0.03951579 8.71702205 0.08971238 11.671875 0.140625 C13.6770658 0.16068985 15.68227564 0.17894065 17.6875 0.1953125 C22.59942694 0.239381 27.51044442 0.30840945 32.421875 0.390625 C31.761875 1.710625 31.101875 3.030625 30.421875 4.390625 C29.24568604 4.38538818 28.06949707 4.38015137 26.85766602 4.37475586 C22.50985469 4.35670837 18.1620467 4.34519392 13.81420898 4.33569336 C11.9294377 4.33065256 10.04467035 4.32382002 8.15991211 4.31518555 C5.45685864 4.30310883 2.75385669 4.29739432 0.05078125 4.29296875 C-0.79713486 4.28780746 -1.64505096 4.28264618 -2.5186615 4.27732849 C-4.53883568 4.27713305 -6.55890434 4.32856289 -8.578125 4.390625 C-10.13742468 5.94992468 -9.89753503 7.47922068 -10.015625 9.640625 C-9.96001567 13.53327816 -9.77407702 14.16528017 -7.078125 17.265625 C-0.35108474 21.83500911 6.23920389 22.89727812 14.171875 22.765625 C15.05294922 22.75619873 15.93402344 22.74677246 16.84179688 22.73706055 C27.53648014 22.49051706 36.3275632 19.70928708 46.0234375 15.28125 C46.81492187 14.98734375 47.60640625 14.6934375 48.421875 14.390625 C49.081875 14.720625 49.741875 15.050625 50.421875 15.390625 C49.421875 18.390625 49.421875 18.390625 47.4453125 19.671875 C32.28432425 26.64861295 13.6461121 29.42662819 -2.578125 24.390625 C-6.57039692 22.57052099 -9.61942721 20.43920071 -12.578125 17.203125 C-14.06466372 13.02223486 -14.4796403 8.75623057 -13.578125 4.390625 C-10.06837558 -0.81806567 -5.70377295 -0.13112269 0 0 Z " fill="#5D3211" transform="translate(275.578125,232.609375)"/>
<path d="M0 0 C0 0.66 0 1.32 0 2 C-0.81082031 2.29132813 -1.62164062 2.58265625 -2.45703125 2.8828125 C-15.24120047 7.61548516 -25.98489105 14.1195564 -37 22 C-37 19 -37 19 -34.875 16.55859375 C-28.00383241 10.44362803 -9.25264835 -3.08421612 0 0 Z " fill="#F6F0EF" transform="translate(298,327)"/>
<path d="M0 0 C-0.59193955 6.27455919 -0.59193955 6.27455919 -2.125 9 C-5.24747499 10.66531999 -7.66558509 9.8189791 -11 9 C-13.4375 7.4375 -13.4375 7.4375 -15 6 C-14.02703346 3.34645489 -13.34207577 2.20122104 -10.875 0.75 C-7.12311455 -0.22875273 -3.8735649 -0.13130728 0 0 Z " fill="#55310B" transform="translate(308,219)"/>
<path d="M0 0 C-2.57662412 8.73189286 -5.97338718 17.88093404 -13 24 C-13.99 24.33 -14.98 24.66 -16 25 C-13.90893711 20.62183707 -11.39630536 16.47747099 -8.921875 12.30859375 C-7.25804166 9.44655208 -5.92179132 6.76483086 -4.875 3.6171875 C-3.82791276 0.48527478 -3.27058205 0 0 0 Z " fill="#EBE6E2" transform="translate(387,385)"/>
<path d="M0 0 C-2.4558914 3.6838371 -4.93007727 4.34628977 -8.9375 5.6875 C-9.88786133 6.02491211 -9.88786133 6.02491211 -10.85742188 6.36914062 C-13.70264609 7.35345058 -15.96817578 8 -19 8 C-19 6.68 -19 5.36 -19 4 C-16.39898714 3.13499112 -13.79493589 2.28273072 -11.1875 1.4375 C-10.44951172 1.19064453 -9.71152344 0.94378906 -8.95117188 0.68945312 C-3.33984375 -1.11328125 -3.33984375 -1.11328125 0 0 Z " fill="#603917" transform="translate(346,302)"/>
<path d="M0 0 C3.87596015 1.47019178 5.21211357 3.30232579 7 7 C7.29296875 10.33203125 7.29296875 10.33203125 7.1875 13.8125 C7.16042969 14.97394531 7.13335937 16.13539063 7.10546875 17.33203125 C7.07066406 18.21246094 7.03585937 19.09289062 7 20 C6.01 20.33 5.02 20.66 4 21 C4.04640625 20.20335937 4.0928125 19.40671875 4.140625 18.5859375 C4.36911774 11.87804348 4.27013932 8.2042323 0 3 C0 2.01 0 1.02 0 0 Z " fill="#F0EDE9" transform="translate(380,365)"/>
<path d="M0 0 C0.66 0 1.32 0 2 0 C2 3.63 2 7.26 2 11 C1.01 11.33 0.02 11.66 -1 12 C-0.67 8.04 -0.34 4.08 0 0 Z " fill="#FBFAF9" transform="translate(385,374)"/>
<path d="M0 0 C0.66 0.33 1.32 0.66 2 1 C1.5359375 1.7734375 1.5359375 1.7734375 1.0625 2.5625 C-0.29059287 5.66665423 -0.61359424 8.65115007 -1 12 C-1.33 12 -1.66 12 -2 12 C-2.144375 11.236875 -2.28875 10.47375 -2.4375 9.6875 C-2.9632594 6.91827092 -2.9632594 6.91827092 -4 4 C-2.68 2.68 -1.36 1.36 0 0 Z " fill="#682E18" transform="translate(266,233)"/>
</svg>
