<?xml version="1.0" encoding="UTF-8"?>
<svg version="1.1" xmlns="http://www.w3.org/2000/svg" width="512" height="512">
<path d="M0 0 C5.81521964 4.39348396 9.65701915 10.43444726 11.125 17.60546875 C12.59696966 33.1938688 6.56809967 45.65607646 -0.88525391 58.81298828 C-1.93737476 60.7184326 -2.9135187 62.65294691 -3.875 64.60546875 C-3.2459375 65.24871094 -2.616875 65.89195313 -1.96875 66.5546875 C7.20781768 76.24260006 13.47803723 86.55683489 18.5703125 98.9296875 C23.3390347 110.20448044 29.04139625 120.60674378 36.125 130.60546875 C36.80433594 131.58257812 37.48367188 132.5596875 38.18359375 133.56640625 C39.82150486 135.91946165 41.4684151 138.26554257 43.125 140.60546875 C46.27201253 136.21872401 47.45817039 133.83674496 46.6875 128.41796875 C46.44193359 127.19013672 46.44193359 127.19013672 46.19140625 125.9375 C46.125 123.60546875 46.125 123.60546875 47.4453125 121.3203125 C49.125 119.60546875 49.125 119.60546875 51.4375 119.35546875 C54.71402007 118.44109105 54.98607811 117.6208985 56.8125 114.85546875 C60.7777707 109.2168741 65.8891755 106.40790755 72.640625 105.12890625 C79.29336722 104.73141536 84.73883719 106.7515764 90.125 110.60546875 C95.82596062 116.3417659 98.15593047 122.20332679 98.5625 130.23046875 C98.3837862 137.21732732 96.23108632 142.44905797 93.125 148.60546875 C92.72200684 149.4248291 92.31901367 150.24418945 91.90380859 151.08837891 C83.36171848 168.38404253 73.77575974 184.95448622 61.125 199.60546875 C60.46628906 200.37375 59.80757813 201.14203125 59.12890625 201.93359375 C40.85108169 222.72671527 21.0975108 238.82669171 -4.80712891 249.09423828 C-5.5707373 249.39700684 -6.3343457 249.69977539 -7.12109375 250.01171875 C-8.13707642 250.40327148 -8.13707642 250.40327148 -9.17358398 250.80273438 C-11.07962528 251.58490506 -11.07962528 251.58490506 -12.875 253.60546875 C-13.00491223 256.05195057 -13.00491223 256.05195057 -12.71658325 258.91174316 C-12.59008298 260.57334599 -12.59008298 260.57334599 -12.46102715 262.26851654 C-12.3580337 263.47605843 -12.25504025 264.68360031 -12.14892578 265.92773438 C-12.00071223 267.81092251 -12.00071223 267.81092251 -11.84950447 269.73215485 C-11.63945302 272.37765972 -11.42564845 275.0224755 -11.20432281 277.66702271 C-10.89598069 281.35455598 -10.5966628 285.04269419 -10.30023193 288.73120117 C-9.81587249 294.71087412 -9.31647413 300.68918877 -8.81158066 306.66716003 C-8.48211119 310.56853629 -8.15483754 314.47009375 -7.82815552 318.3717041 C-7.13745842 326.61646256 -6.44386245 334.86097617 -5.75 343.10546875 C-4.93794917 352.75496989 -4.12708835 362.40456851 -3.31894302 372.05439758 C-2.99677178 375.89457557 -2.67260781 379.73458199 -2.34835815 383.57458496 C-2.15255202 385.90974123 -1.95683765 388.24490519 -1.76123047 390.58007812 C-1.62568253 392.17565552 -1.62568253 392.17565552 -1.48739624 393.8034668 C-1.40614502 394.77819946 -1.3248938 395.75293213 -1.24118042 396.75720215 C-1.17003462 397.60206932 -1.09888882 398.44693649 -1.02558708 399.3174057 C-0.88789742 401.4095016 -0.875 403.50884677 -0.875 405.60546875 C-0.00875 405.94578125 -0.00875 405.94578125 0.875 406.29296875 C4.45953805 408.38394928 6.58298134 410.70322492 7.73828125 414.7578125 C8.3739771 418.61693576 8.45984159 420.90534543 6.75 424.48046875 C-1.4003825 431.07839744 -12.84853985 430.76031032 -22.8515625 430.80859375 C-23.78044281 430.81429382 -24.70932312 430.8199939 -25.66635132 430.8258667 C-27.61772542 430.83525885 -29.56911496 430.84182747 -31.52050781 430.84570312 C-34.49832529 430.85546326 -37.47546741 430.886563 -40.453125 430.91796875 C-42.35676677 430.924495 -44.26041343 430.92974695 -46.1640625 430.93359375 C-47.04857086 430.94594055 -47.93307922 430.95828735 -48.84439087 430.9710083 C-53.94358924 430.95267272 -57.46817493 430.45968718 -61.875 427.60546875 C-68.71482462 419.8413435 -66.94612129 408.87067185 -66.578125 399.17626953 C-66.50016675 397.10988875 -66.43289369 395.04336549 -66.3671875 392.9765625 C-66.13624373 386.14309045 -65.76031693 379.38789675 -64.875 372.60546875 C-69.165 372.60546875 -73.455 372.60546875 -77.875 372.60546875 C-78.29990723 374.05397217 -78.72481445 375.50247559 -79.16259766 376.99487305 C-81.55691365 384.96859867 -84.40328177 392.77572062 -87.23535156 400.60229492 C-87.91423088 402.48620137 -88.58704589 404.3723037 -89.25390625 406.26049805 C-90.22598203 409.01209195 -91.2163363 411.75648007 -92.2109375 414.5 C-92.5038266 415.33964798 -92.7967157 416.17929596 -93.09848022 417.04438782 C-94.9019266 421.94177627 -96.7122689 425.23022551 -100.875 428.60546875 C-104.72720248 429.88953624 -108.37561481 429.76793783 -112.390625 429.7734375 C-113.23864685 429.7767659 -114.0866687 429.7800943 -114.96038818 429.78352356 C-116.76264912 429.78859096 -118.56491945 429.79093194 -120.3671875 429.79077148 C-123.07308418 429.79292739 -125.77855215 429.8109986 -128.484375 429.83007812 C-160.21824591 429.93399726 -160.21824591 429.93399726 -168.5390625 423.2734375 C-170.73174222 420.53579352 -170.53265187 418.18090616 -170.39768982 414.76907349 C-169.77825324 411.01990444 -168.3106285 408.03185367 -166.59790039 404.69091797 C-162.93705841 397.18704441 -160.65258685 389.59992648 -158.68359375 381.48828125 C-158.32912141 380.07258047 -157.9737504 378.65710445 -157.61755371 377.24183655 C-156.68402836 373.50937682 -155.77320952 369.77176642 -154.86979294 366.03191757 C-154.30948468 363.7180164 -153.74301532 361.40569826 -153.17507935 359.09365845 C-147.29727806 335.1123663 -142.46373833 311.19061094 -139.875 286.60546875 C-145.74894589 290.4676512 -150.74264773 294.81740844 -155.875 299.60546875 C-156.54660156 300.21132813 -157.21820313 300.8171875 -157.91015625 301.44140625 C-164.06341183 307.2282462 -168.85309934 314.02846318 -173.68310547 320.91845703 C-174.67281342 322.31929315 -175.69389257 323.6979026 -176.72265625 325.0703125 C-180.32730098 330.14091302 -179.84344955 332.79477144 -178.875 338.60546875 C-180 341.04296875 -180 341.04296875 -181.875 342.60546875 C-183.06222656 342.77949219 -183.06222656 342.77949219 -184.2734375 342.95703125 C-187.52316446 343.76702326 -188.36306786 344.91891575 -190.375 347.54296875 C-193.01057302 350.72383274 -194.72173822 352.67098485 -198.875 353.60546875 C-200.48375 353.97671875 -200.48375 353.97671875 -202.125 354.35546875 C-208.95139785 354.81056194 -213.91035713 353.78394321 -219.25 349.35546875 C-223.98450014 344.73414391 -226.04147284 340.7780106 -226.8125 334.16796875 C-226.20720403 308.94730315 -198.86517525 281.15128433 -181.69921875 264.26171875 C-178.84309255 261.57545898 -175.91251414 259.08214202 -172.875 256.60546875 C-175.91082657 255.01050403 -179.03646787 253.70551752 -182.20483398 252.39868164 C-206.06600638 242.41498709 -222.78383372 226.56373443 -232.875 202.60546875 C-234.46036523 198.31980784 -235.79952627 194.04579099 -236.875 189.60546875 C-237.1388147 188.5534729 -237.1388147 188.5534729 -237.40795898 187.48022461 C-239.05158661 180.28962782 -239.22227504 173.27338688 -239.1875 165.91796875 C-239.18186035 164.67354004 -239.1762207 163.42911133 -239.17041016 162.14697266 C-238.96480163 146.58383211 -235.00832904 133.17551644 -229.875 118.60546875 C-229.38 117.12046875 -229.38 117.12046875 -228.875 115.60546875 C-230.45087891 114.95191406 -230.45087891 114.95191406 -232.05859375 114.28515625 C-245.10057111 108.79052597 -257.92649826 102.92829861 -264.1484375 89.40234375 C-267.50149624 81.10983289 -266.5451036 72.40250606 -263.19140625 64.2578125 C-257.35435128 52.49709938 -247.95882527 41.99961297 -235.875 36.60546875 C-234.946875 36.17234375 -234.01875 35.73921875 -233.0625 35.29296875 C-223.05537034 33.13456823 -215.41989899 34.61619699 -206.82421875 39.85546875 C-197.84863831 45.99023441 -192.11234905 55.28140036 -186.875 64.60546875 C-184.13836351 63.27430717 -181.5249427 61.83172964 -178.92578125 60.25 C-142.12360378 38.15693564 -100.29297218 30.04310742 -57.875 37.60546875 C-57.83761719 36.42210937 -57.80023438 35.23875 -57.76171875 34.01953125 C-57.24758328 20.63642904 -56.23895211 8.54442329 -45.953125 -1.21875 C-32.78259757 -11.7602768 -13.42973045 -8.71641159 0 0 Z " fill="#FEFEFD" transform="translate(339.875,44.39453125)"/>
<path d="M0 0 C5.81521964 4.39348396 9.65701915 10.43444726 11.125 17.60546875 C12.59696966 33.1938688 6.56809967 45.65607646 -0.88525391 58.81298828 C-1.93737476 60.7184326 -2.9135187 62.65294691 -3.875 64.60546875 C-3.2459375 65.24871094 -2.616875 65.89195313 -1.96875 66.5546875 C7.20781768 76.24260006 13.47803723 86.55683489 18.5703125 98.9296875 C23.3390347 110.20448044 29.04139625 120.60674378 36.125 130.60546875 C36.80433594 131.58257812 37.48367188 132.5596875 38.18359375 133.56640625 C39.82150486 135.91946165 41.4684151 138.26554257 43.125 140.60546875 C46.27201253 136.21872401 47.45817039 133.83674496 46.6875 128.41796875 C46.44193359 127.19013672 46.44193359 127.19013672 46.19140625 125.9375 C46.125 123.60546875 46.125 123.60546875 47.4453125 121.3203125 C49.125 119.60546875 49.125 119.60546875 51.4375 119.35546875 C54.71402007 118.44109105 54.98607811 117.6208985 56.8125 114.85546875 C60.7777707 109.2168741 65.8891755 106.40790755 72.640625 105.12890625 C79.29336722 104.73141536 84.73883719 106.7515764 90.125 110.60546875 C95.82596062 116.3417659 98.15593047 122.20332679 98.5625 130.23046875 C98.3837862 137.21732732 96.23108632 142.44905797 93.125 148.60546875 C92.72200684 149.4248291 92.31901367 150.24418945 91.90380859 151.08837891 C83.36171848 168.38404253 73.77575974 184.95448622 61.125 199.60546875 C60.46628906 200.37375 59.80757813 201.14203125 59.12890625 201.93359375 C40.85108169 222.72671527 21.0975108 238.82669171 -4.80712891 249.09423828 C-5.5707373 249.39700684 -6.3343457 249.69977539 -7.12109375 250.01171875 C-8.13707642 250.40327148 -8.13707642 250.40327148 -9.17358398 250.80273438 C-11.07962528 251.58490506 -11.07962528 251.58490506 -12.875 253.60546875 C-13.00491223 256.05195057 -13.00491223 256.05195057 -12.71658325 258.91174316 C-12.59008298 260.57334599 -12.59008298 260.57334599 -12.46102715 262.26851654 C-12.3580337 263.47605843 -12.25504025 264.68360031 -12.14892578 265.92773438 C-12.00071223 267.81092251 -12.00071223 267.81092251 -11.84950447 269.73215485 C-11.63945302 272.37765972 -11.42564845 275.0224755 -11.20432281 277.66702271 C-10.89598069 281.35455598 -10.5966628 285.04269419 -10.30023193 288.73120117 C-9.81587249 294.71087412 -9.31647413 300.68918877 -8.81158066 306.66716003 C-8.48211119 310.56853629 -8.15483754 314.47009375 -7.82815552 318.3717041 C-7.13745842 326.61646256 -6.44386245 334.86097617 -5.75 343.10546875 C-4.93794917 352.75496989 -4.12708835 362.40456851 -3.31894302 372.05439758 C-2.99677178 375.89457557 -2.67260781 379.73458199 -2.34835815 383.57458496 C-2.15255202 385.90974123 -1.95683765 388.24490519 -1.76123047 390.58007812 C-1.62568253 392.17565552 -1.62568253 392.17565552 -1.48739624 393.8034668 C-1.40614502 394.77819946 -1.3248938 395.75293213 -1.24118042 396.75720215 C-1.17003462 397.60206932 -1.09888882 398.44693649 -1.02558708 399.3174057 C-0.88789742 401.4095016 -0.875 403.50884677 -0.875 405.60546875 C-0.00875 405.94578125 -0.00875 405.94578125 0.875 406.29296875 C4.45953805 408.38394928 6.58298134 410.70322492 7.73828125 414.7578125 C8.3739771 418.61693576 8.45984159 420.90534543 6.75 424.48046875 C-1.4003825 431.07839744 -12.84853985 430.76031032 -22.8515625 430.80859375 C-23.78044281 430.81429382 -24.70932312 430.8199939 -25.66635132 430.8258667 C-27.61772542 430.83525885 -29.56911496 430.84182747 -31.52050781 430.84570312 C-34.49832529 430.85546326 -37.47546741 430.886563 -40.453125 430.91796875 C-42.35676677 430.924495 -44.26041343 430.92974695 -46.1640625 430.93359375 C-47.04857086 430.94594055 -47.93307922 430.95828735 -48.84439087 430.9710083 C-53.94358924 430.95267272 -57.46817493 430.45968718 -61.875 427.60546875 C-68.71482462 419.8413435 -66.94612129 408.87067185 -66.578125 399.17626953 C-66.50016675 397.10988875 -66.43289369 395.04336549 -66.3671875 392.9765625 C-66.13624373 386.14309045 -65.76031693 379.38789675 -64.875 372.60546875 C-69.165 372.60546875 -73.455 372.60546875 -77.875 372.60546875 C-78.29990723 374.05397217 -78.72481445 375.50247559 -79.16259766 376.99487305 C-81.55691365 384.96859867 -84.40328177 392.77572062 -87.23535156 400.60229492 C-87.91423088 402.48620137 -88.58704589 404.3723037 -89.25390625 406.26049805 C-90.22598203 409.01209195 -91.2163363 411.75648007 -92.2109375 414.5 C-92.5038266 415.33964798 -92.7967157 416.17929596 -93.09848022 417.04438782 C-94.9019266 421.94177627 -96.7122689 425.23022551 -100.875 428.60546875 C-104.72720248 429.88953624 -108.37561481 429.76793783 -112.390625 429.7734375 C-113.23864685 429.7767659 -114.0866687 429.7800943 -114.96038818 429.78352356 C-116.76264912 429.78859096 -118.56491945 429.79093194 -120.3671875 429.79077148 C-123.07308418 429.79292739 -125.77855215 429.8109986 -128.484375 429.83007812 C-160.21824591 429.93399726 -160.21824591 429.93399726 -168.5390625 423.2734375 C-170.73174222 420.53579352 -170.53265187 418.18090616 -170.39768982 414.76907349 C-169.77825324 411.01990444 -168.3106285 408.03185367 -166.59790039 404.69091797 C-162.93705841 397.18704441 -160.65258685 389.59992648 -158.68359375 381.48828125 C-158.32912141 380.07258047 -157.9737504 378.65710445 -157.61755371 377.24183655 C-156.68402836 373.50937682 -155.77320952 369.77176642 -154.86979294 366.03191757 C-154.30948468 363.7180164 -153.74301532 361.40569826 -153.17507935 359.09365845 C-147.29727806 335.1123663 -142.46373833 311.19061094 -139.875 286.60546875 C-145.74894589 290.4676512 -150.74264773 294.81740844 -155.875 299.60546875 C-156.54660156 300.21132813 -157.21820313 300.8171875 -157.91015625 301.44140625 C-164.06341183 307.2282462 -168.85309934 314.02846318 -173.68310547 320.91845703 C-174.67281342 322.31929315 -175.69389257 323.6979026 -176.72265625 325.0703125 C-180.32730098 330.14091302 -179.84344955 332.79477144 -178.875 338.60546875 C-180 341.04296875 -180 341.04296875 -181.875 342.60546875 C-183.06222656 342.77949219 -183.06222656 342.77949219 -184.2734375 342.95703125 C-187.52316446 343.76702326 -188.36306786 344.91891575 -190.375 347.54296875 C-193.01057302 350.72383274 -194.72173822 352.67098485 -198.875 353.60546875 C-200.48375 353.97671875 -200.48375 353.97671875 -202.125 354.35546875 C-208.95139785 354.81056194 -213.91035713 353.78394321 -219.25 349.35546875 C-223.98450014 344.73414391 -226.04147284 340.7780106 -226.8125 334.16796875 C-226.20720403 308.94730315 -198.86517525 281.15128433 -181.69921875 264.26171875 C-178.84309255 261.57545898 -175.91251414 259.08214202 -172.875 256.60546875 C-175.91082657 255.01050403 -179.03646787 253.70551752 -182.20483398 252.39868164 C-206.06600638 242.41498709 -222.78383372 226.56373443 -232.875 202.60546875 C-234.46036523 198.31980784 -235.79952627 194.04579099 -236.875 189.60546875 C-237.1388147 188.5534729 -237.1388147 188.5534729 -237.40795898 187.48022461 C-239.05158661 180.28962782 -239.22227504 173.27338688 -239.1875 165.91796875 C-239.18186035 164.67354004 -239.1762207 163.42911133 -239.17041016 162.14697266 C-238.96480163 146.58383211 -235.00832904 133.17551644 -229.875 118.60546875 C-229.38 117.12046875 -229.38 117.12046875 -228.875 115.60546875 C-230.45087891 114.95191406 -230.45087891 114.95191406 -232.05859375 114.28515625 C-245.10057111 108.79052597 -257.92649826 102.92829861 -264.1484375 89.40234375 C-267.50149624 81.10983289 -266.5451036 72.40250606 -263.19140625 64.2578125 C-257.35435128 52.49709938 -247.95882527 41.99961297 -235.875 36.60546875 C-234.946875 36.17234375 -234.01875 35.73921875 -233.0625 35.29296875 C-223.05537034 33.13456823 -215.41989899 34.61619699 -206.82421875 39.85546875 C-197.84863831 45.99023441 -192.11234905 55.28140036 -186.875 64.60546875 C-184.13836351 63.27430717 -181.5249427 61.83172964 -178.92578125 60.25 C-142.12360378 38.15693564 -100.29297218 30.04310742 -57.875 37.60546875 C-57.83761719 36.42210937 -57.80023438 35.23875 -57.76171875 34.01953125 C-57.24758328 20.63642904 -56.23895211 8.54442329 -45.953125 -1.21875 C-32.78259757 -11.7602768 -13.42973045 -8.71641159 0 0 Z M-197.875 80.60546875 C-198.69742188 81.3634375 -199.51984375 82.12140625 -200.3671875 82.90234375 C-221.47405124 103.02290544 -235.42224411 132.51512021 -236.17749023 161.7800293 C-236.30592499 187.60794555 -228.09238611 212.08344407 -209.875 230.60546875 C-209.18664062 231.30671875 -208.49828125 232.00796875 -207.7890625 232.73046875 C-182.54764974 256.75203629 -143.11174342 259.64311037 -110.14768982 258.91566467 C-97.26868242 258.47776837 -84.50561696 256.00220981 -71.875 253.60546875 C-70.62920166 253.37190674 -69.38340332 253.13834473 -68.09985352 252.89770508 C-30.5273901 245.64338732 12.05716671 233.01441291 36.375 201.1953125 C44.60155733 189.02074217 47.57594513 174.70691143 45.4375 160.29296875 C42.86001162 147.58206717 36.07613894 137.39431765 28.93408203 126.84667969 C23.24432127 118.41444011 18.92410571 110.09205919 15.125 100.60546875 C10.0274226 88.63245517 4.1444578 79.04071715 -4.875 69.60546875 C-5.68710937 68.68121094 -5.68710937 68.68121094 -6.515625 67.73828125 C-25.19575808 47.26561014 -57.29721093 39.58774332 -83.8125 38.3203125 C-126.26737988 37.12919363 -166.97197276 51.39167451 -197.875 80.60546875 Z " fill="#4E2801" transform="translate(339.875,44.39453125)"/>
<path d="M0 0 C0 4.62 0 9.24 0 14 C1.32 13.34 2.64 12.68 4 12 C5.6709209 25.05739274 6.85905052 38.13981986 7.91479492 51.26025391 C8.18990448 54.65466751 8.47670063 58.04797736 8.76367188 61.44140625 C8.94081809 63.61973373 9.11727567 65.79811734 9.29296875 67.9765625 C9.37935104 68.98079254 9.46573334 69.98502258 9.55473328 71.01968384 C10.62732511 84.78142473 6.53795194 95.61347748 -1.90234375 106.59375 C-8.62454568 114.30487921 -18.94134419 120.1559131 -29 122 C-33.67204038 122.14938167 -38.32757302 122.11664866 -43 122 C-43 123.32 -43 124.64 -43 126 C-47.29 126 -51.58 126 -56 126 C-56 124.68 -56 123.36 -56 122 C-56.99 121.505 -56.99 121.505 -58 121 C-58 121.66 -58 122.32 -58 123 C-83.11411221 124.04601903 -83.11411221 124.04601903 -94 118 C-94.97066406 117.46890625 -95.94132812 116.9378125 -96.94140625 116.390625 C-107.42349003 110.17268142 -116.27278616 101.39057377 -121 90 C-121.76618805 80.66331932 -120.13960914 71.22914593 -118.87597656 62.00317383 C-118.62439379 60.11908028 -118.38816392 58.23287575 -118.16699219 56.3449707 C-117.84384404 53.59273029 -117.47416339 50.85030856 -117.09375 48.10546875 C-116.95882141 46.84599678 -116.95882141 46.84599678 -116.82116699 45.56108093 C-116.29182284 42.0702329 -115.87496478 39.80854777 -113.22583008 37.36050415 C-109.91881179 35.21447769 -106.85875153 33.83132105 -103 33 C-103.33 32.34 -103.66 31.68 -104 31 C-103.91188555 28.78861145 -103.7570216 26.57957815 -103.5625 24.375 C-103.46066406 23.18648438 -103.35882813 21.99796875 -103.25390625 20.7734375 C-103.17011719 19.85820312 -103.08632812 18.94296875 -103 18 C-101.90051025 17.93268677 -101.90051025 17.93268677 -100.77880859 17.86401367 C-67.69323272 15.79197207 -31.50243508 0 0 0 Z " fill="#FEAACB" transform="translate(319,288)"/>
<path d="M0 0 C9.1700717 4.67236987 15.83611341 11.82339627 19.8984375 21.31640625 C24.72559427 36.38553043 20.59553761 51.45585967 13.7109375 65.12890625 C8.01628865 74.82441095 0.73493631 82.13647819 -9.6015625 86.56640625 C-13.15547371 87.3981727 -15.90250076 87.71674138 -19.5390625 87.25390625 C-21.24790255 85.6305082 -22.91352967 83.96071572 -24.5390625 82.25390625 C-29.09674774 80.57115638 -33.1108165 80.09214031 -37.89575195 80.08081055 C-47.06516837 80.02093279 -47.06516837 80.02093279 -50.8359375 78.05859375 C-52.56718764 76.211332 -53.51015672 74.56794337 -54.5390625 72.25390625 C-55.14427734 70.98160156 -55.14427734 70.98160156 -55.76171875 69.68359375 C-61.14302163 56.29418251 -59.45555251 40.49418303 -54.4140625 27.25390625 C-48.38518666 13.62263566 -39.16943857 4.11278904 -25.5390625 -1.74609375 C-17.29155669 -4.49526235 -7.89667744 -3.3230886 0 0 Z " fill="#4F2A02" transform="translate(218.5390625,152.74609375)"/>
<path d="M0 0 C0 4.62 0 9.24 0 14 C1.32 13.34 2.64 12.68 4 12 C5.6709209 25.05739274 6.85905052 38.13981986 7.91479492 51.26025391 C8.18990448 54.65466751 8.47670063 58.04797736 8.76367188 61.44140625 C8.94081809 63.61973373 9.11727567 65.79811734 9.29296875 67.9765625 C9.37935104 68.98079254 9.46573334 69.98502258 9.55473328 71.01968384 C10.62732511 84.78142473 6.53795194 95.61347748 -1.90234375 106.59375 C-8.62454568 114.30487921 -18.94134419 120.1559131 -29 122 C-33.67204038 122.14938167 -38.32757302 122.11664866 -43 122 C-43 123.32 -43 124.64 -43 126 C-47.29 126 -51.58 126 -56 126 C-56 124.68 -56 123.36 -56 122 C-56.99 121.505 -56.99 121.505 -58 121 C-58 121.66 -58 122.32 -58 123 C-83.11411221 124.04601903 -83.11411221 124.04601903 -94 118 C-94.97066406 117.46890625 -95.94132812 116.9378125 -96.94140625 116.390625 C-107.42349003 110.17268142 -116.27278616 101.39057377 -121 90 C-121.76618805 80.66331932 -120.13960914 71.22914593 -118.87597656 62.00317383 C-118.62439379 60.11908028 -118.38816392 58.23287575 -118.16699219 56.3449707 C-117.84384404 53.59273029 -117.47416339 50.85030856 -117.09375 48.10546875 C-116.95882141 46.84599678 -116.95882141 46.84599678 -116.82116699 45.56108093 C-116.29182284 42.0702329 -115.87496478 39.80854777 -113.22583008 37.36050415 C-109.91881179 35.21447769 -106.85875153 33.83132105 -103 33 C-103.33 32.34 -103.66 31.68 -104 31 C-103.82670535 26.65086321 -103.38269385 22.33719699 -103 18 C-97.06 18 -91.12 18 -85 18 C-85.598125 19.8975 -86.19625 21.795 -86.8125 23.75 C-91.00348475 37.39299292 -93.19032387 49.55736415 -93.25 63.8125 C-93.270625 65.03259766 -93.29125 66.25269531 -93.3125 67.50976562 C-93.36519039 79.76686848 -91.03880998 89.78441625 -82.2890625 98.75390625 C-69.97848007 109.11661172 -51.23177387 109.03750204 -36 108 C-24.73138785 106.51538207 -13.4297191 102.13333959 -6.24609375 92.99609375 C2.57640064 78.86350869 2.08301663 58.91148569 -1.3125 43.125 C-1.85847342 41.0788519 -2.41964583 39.03666346 -3 37 C-3.29003906 35.56333984 -3.29003906 35.56333984 -3.5859375 34.09765625 C-5.10051624 26.77063572 -7.94916575 20.42543128 -11.30737305 13.78588867 C-11.65324463 13.09342041 -11.99911621 12.40095215 -12.35546875 11.6875 C-12.67153076 11.07261719 -12.98759277 10.45773437 -13.31323242 9.82421875 C-14 8 -14 8 -14 4 C-12.42032193 3.32471777 -10.83608097 2.66010306 -9.25 2 C-8.36828125 1.62875 -7.4865625 1.2575 -6.578125 0.875 C-4 0 -4 0 0 0 Z " fill="#FDFCFC" transform="translate(319,288)"/>
<path d="M0 0 C14.36248861 7.41541532 23.25987668 22.30005723 28.63671875 37.015625 C31.37531418 45.74069394 32.96324936 54.5983193 30.375 63.5625 C29.25222656 63.78164062 28.12945312 64.00078125 26.97265625 64.2265625 C12.77917869 67.07170668 12.77917869 67.07170668 2.375 76.5625 C2.13444532 78.61959596 2.13444532 78.61959596 2.25 80.75 C2.29125 82.008125 2.3325 83.26625 2.375 84.5625 C-5.70547866 84.15847607 -11.37527115 78.22668113 -16.625 72.5625 C-17.553125 71.634375 -18.48125 70.70625 -19.4375 69.75 C-30.40940764 56.75994354 -34.717233 40.13737852 -33.7890625 23.4921875 C-32.99409661 14.14187438 -28.79324869 7.34300463 -21.9375 1.125 C-15.79366141 -3.02624229 -6.74949037 -2.6515855 0 0 Z " fill="#502A03" transform="translate(330.625,131.4375)"/>
<path d="M0 0 C0.33 1.32 0.66 2.64 1 4 C1.6290625 3.95359375 2.258125 3.9071875 2.90625 3.859375 C10.08505256 3.55665441 15.11009133 4.82781935 20.71484375 9.3984375 C22 11 22 11 22.125 14.8125 C21.3750402 19.0339232 19.67051423 21.06604709 16.296875 23.6171875 C5.64117384 30.03235452 -7.13074029 33.25361048 -19.48046875 30.43359375 C-21.5625 29.6875 -21.5625 29.6875 -25 28 C-25.825 27.608125 -26.65 27.21625 -27.5 26.8125 C-29.52792327 24.36209271 -29.62201036 22.17212597 -29.43359375 19.0546875 C-28.66931553 15.4329727 -26.8135758 13.22190661 -24 11 C-16.54267101 6.38234003 -8.86397262 3.55680137 0 4 C0 2.68 0 1.36 0 0 Z " fill="#FDAACB" transform="translate(361,191)"/>
<path d="M0 0 C1.12559326 0.00519653 1.12559326 0.00519653 2.27392578 0.01049805 C8.44243947 0.1314624 14.51566322 0.59275761 19.4140625 4.79296875 C20.6875 6.3125 20.6875 6.3125 20.6875 8.3125 C22.0075 8.6425 23.3275 8.9725 24.6875 9.3125 C23.6975 9.3125 22.7075 9.3125 21.6875 9.3125 C21.605 10.034375 21.5225 10.75625 21.4375 11.5 C20.2362627 16.00463986 17.84574919 18.58879846 13.91796875 21.04296875 C12.91378906 21.52378906 11.90960938 22.00460938 10.875 22.5 C9.87855469 22.98855469 8.88210937 23.47710937 7.85546875 23.98046875 C-1.2990013 27.82963557 -11.92485514 29.39273785 -21.5390625 26.26171875 C-27.88870353 23.16009295 -27.88870353 23.16009295 -29.3125 20.3125 C-29.80394985 16.05326793 -29.66470018 13.8995003 -27.4375 10.1875 C-20.58236704 2.8831703 -9.66131248 -0.07197108 0 0 Z " fill="#FEAACB" transform="translate(178.3125,231.6875)"/>
<path d="M0 0 C4.2569245 0.48191598 6.54371624 2.26936125 9.3125 5.375 C14.64780485 13.75905048 15.84578394 25.11585883 13.8125 34.7421875 C12.29658898 39.30714683 10.12478435 42.4704024 6.3125 45.375 C3.27229159 45.79887521 1.88420974 45.80319893 -0.6015625 43.94140625 C-1.16617188 43.28011719 -1.73078125 42.61882812 -2.3125 41.9375 C-3.16714844 40.98037109 -3.16714844 40.98037109 -4.0390625 40.00390625 C-8.19522541 33.37571279 -9.2124924 26.51640752 -9.1875 18.8125 C-9.21585938 18.01392578 -9.24421875 17.21535156 -9.2734375 16.39257812 C-9.29370232 10.17634377 -7.47126613 6.26131529 -3.6875 1.375 C-2.6875 0.375 -2.6875 0.375 0 0 Z " fill="#FBFAF9" transform="translate(200.6875,173.625)"/>
<path d="M0 0 C6.72173913 0 6.72173913 0 9.72265625 2.34765625 C16.6782816 10.15716912 19.12510105 18.10211198 19.25 28.4375 C19.27578125 29.71496094 19.3015625 30.99242187 19.328125 32.30859375 C18.89394258 37.19314595 17.47076792 40.52923208 14 44 C10.98671817 44.56061057 8.93968451 44.52572658 6.2265625 43.0078125 C0.13672876 38.3008231 -3.37842676 31.45558903 -5 24 C-5.17155565 21.19323712 -5.2763171 18.43279267 -5.3125 15.625 C-5.34150391 14.8825 -5.37050781 14.14 -5.40039062 13.375 C-5.46100808 8.09661879 -4.4230236 5.22805592 -1 1 C-0.67 0.67 -0.34 0.34 0 0 Z " fill="#FCFBFA" transform="translate(312,154)"/>
<path d="M0 0 C1.32 0 2.64 0 4 0 C4.36669613 6.29730087 3.41190057 10.51058961 0.75 16.1875 C0.44964844 16.87263672 0.14929688 17.55777344 -0.16015625 18.26367188 C-4.4371599 27.71857995 -4.4371599 27.71857995 -9 30 C-17.8025947 31.12033024 -23.88807125 27.02414705 -30.8203125 21.92578125 C-38.62174532 15.77333933 -38.62174532 15.77333933 -41 13 C-40.6875 10.8125 -40.6875 10.8125 -40 9 C-34.96804497 9.47651089 -31.90618585 11.92866751 -28 14.875 C-21.24977469 20.27750974 -21.24977469 20.27750974 -13.4375 23.5625 C-10.73109516 23.2076259 -10.73109516 23.2076259 -9.01171875 20.44921875 C-6.86306436 16.7652152 -5.58716408 13.30915472 -4.375 9.25 C-2.25309917 2.25309917 -2.25309917 2.25309917 0 0 Z " fill="#54300A" transform="translate(299,213)"/>
<path d="M0 0 C0.75 1.625 0.75 1.625 1 4 C-0.9375 7.25 -0.9375 7.25 -3 10 C-7.77576339 9.5317879 -11.04476345 8.75668002 -15 6 C-14.02703346 3.34645489 -13.34207577 2.20122104 -10.875 0.75 C-7.12311455 -0.22875273 -3.8735649 -0.13130728 0 0 Z " fill="#58340F" transform="translate(287,203)"/>
<path d="M0 0 C0.33 0.66 0.66 1.32 1 2 C-2.66325545 3.15693611 -6.33113152 4.29850134 -10 5.4375 C-11.02996094 5.76298828 -12.05992187 6.08847656 -13.12109375 6.42382812 C-18.77683959 8.17098528 -24.09803808 9.496347 -30 10 C-29.67 8.68 -29.34 7.36 -29 6 C-24.92122301 4.79644841 -20.83637596 3.61496837 -16.75 2.4375 C-15.59113281 2.09525391 -14.43226563 1.75300781 -13.23828125 1.40039062 C-12.12324219 1.08134766 -11.00820313 0.76230469 -9.859375 0.43359375 C-8.83295898 0.13509521 -7.80654297 -0.16340332 -6.74902344 -0.47094727 C-4.01308634 -0.99748152 -2.55039073 -1.07440899 0 0 Z " fill="#653F1F" transform="translate(312,288)"/>
</svg>
