<?xml version="1.0" encoding="UTF-8"?>
<svg version="1.1" xmlns="http://www.w3.org/2000/svg" width="512" height="512">
<path d="M0 0 C7.8209336 5.92533011 11.41788206 11.0652402 13.625 20.6875 C14.470625 20.048125 15.31625 19.40875 16.1875 18.75 C19.57533846 16.48877763 22.54615075 15.98414358 26.625 15.6875 C27.45 15.56375 28.275 15.44 29.125 15.3125 C31.625 15.6875 31.625 15.6875 34.4375 18.25 C38.29214145 21.30478208 41.97543728 20.79619894 46.625 20.3125 C47.30151611 20.2204126 47.97803223 20.1283252 48.67504883 20.03344727 C54.07917366 19.37718996 56.95841503 20.14782292 61.625 22.6875 C65.34403859 25.96459005 67.51115696 29.36692077 67.9375 34.3125 C67.84947144 40.37546724 65.24980707 44.79189175 61.375 49.3125 C53.59888945 56.02823184 43.35587568 64.56059083 32.625 64.6875 C29.87890625 62.765625 29.87890625 62.765625 27.1875 59.9375 C26.71376953 59.44032471 26.24003906 58.94314941 25.75195312 58.4309082 C19.75451491 51.94694311 15.49838898 44.58414121 11.625 36.6875 C11.30789063 37.40292969 10.99078125 38.11835937 10.6640625 38.85546875 C5.55143337 49.77276796 -1.66511325 58.47961386 -9.375 67.6875 C-8.48748047 68.99460938 -8.48748047 68.99460938 -7.58203125 70.328125 C-3.04568245 77.12784884 0.76034878 83.6180218 3.5546875 91.359375 C4.52067239 93.99659936 4.52067239 93.99659936 7.625 95.6875 C10.00680078 95.03115107 10.00680078 95.03115107 12.5625 93.8125 C21.65706203 90.28970522 30.06489944 90.66194426 39.0703125 94.35546875 C43.20431988 96.51096801 46.69151792 99.04025624 49.625 102.6875 C50.625 106.125 50.625 106.125 50.625 108.6875 C51.285 108.6875 51.945 108.6875 52.625 108.6875 C54.08133693 119.86157607 54.50322196 128.10663679 47.625 137.6875 C41.34587082 145.83369767 33.99999572 151.85953906 25.625 157.6875 C25.86476563 158.7084375 25.86476563 158.7084375 26.109375 159.75 C28.7285529 174.67137711 25.67117692 189.90827783 17.625 202.6875 C14.85596829 206.28046205 11.84923738 209.50113118 8.625 212.6875 C7.95984375 213.37457031 7.2946875 214.06164062 6.609375 214.76953125 C-5.02717017 226.02855491 -20.32069768 231.59849128 -35.375 236.6875 C-35.21451172 238.01587891 -35.21451172 238.01587891 -35.05078125 239.37109375 C-34.27318632 247.40624134 -34.56677606 254.35958014 -36.18896484 262.26391602 C-37.18825146 267.22703954 -37.63758097 272.00734017 -37.8125 277.0625 C-38.21098644 284.96972113 -39.18875924 292.48681463 -44.95996094 298.28417969 C-47.68959717 301.54792897 -47.84918942 303.8988112 -47.58630371 308.05880737 C-47.46623962 309.30200241 -47.46623962 309.30200241 -47.34375 310.5703125 C-47.27885376 311.46928253 -47.21395752 312.36825256 -47.14709473 313.29446411 C-46.99731109 315.31252737 -46.83455319 317.32965561 -46.66113281 319.3458252 C-46.35442486 322.927792 -46.08489282 326.51136289 -45.8203125 330.09667969 C-45.2621794 337.55470428 -44.65948675 345.00856732 -44.04681396 352.46228027 C-43.81539965 355.29104281 -43.58823094 358.12014007 -43.36107635 360.94924736 C-43.13968745 363.70156416 -42.91611825 366.4537004 -42.69184875 369.20578384 C-42.53525127 371.13050834 -42.38009452 373.05534988 -42.22497559 374.98019409 C-41.97067685 386.40826482 -41.97067685 386.40826482 -36.875 396 C-33.12568538 399.91065808 -31.94277092 401.99630864 -32.03515625 407.65234375 C-32.63324022 411.23397307 -34.52276283 412.62417949 -37.375 414.6875 C-45.44320564 417.7321059 -54.01351735 417.85577568 -62.53515625 417.92578125 C-63.48386093 417.933853 -64.43256561 417.94192474 -65.41001892 417.95024109 C-67.40426856 417.96399482 -69.39854088 417.9747554 -71.39282227 417.98266602 C-73.42446837 417.9942326 -75.456083 418.01475735 -77.48754883 418.04418945 C-80.44112544 418.08689809 -83.39380913 418.10303317 -86.34765625 418.11328125 C-87.24887711 418.13078934 -88.15009796 418.14829742 -89.07862854 418.16633606 C-95.03328901 418.14595048 -98.49585022 417.15515445 -103.375 413.6875 C-107.60344258 408.26443645 -106.74574926 401.67701956 -106.625 395.125 C-106.61404297 393.93801514 -106.60308594 392.75103027 -106.59179688 391.52807617 C-106.4608409 380.90142579 -106.0116687 370.29485539 -105.375 359.6875 C-109.665 359.6875 -113.955 359.6875 -118.375 359.6875 C-118.705 361.6675 -119.035 363.6475 -119.375 365.6875 C-119.86295682 367.31466694 -120.39494168 368.92927129 -120.96972656 370.52783203 C-121.29386536 371.43542267 -121.61800415 372.34301331 -121.95196533 373.27810669 C-122.30297302 374.24078461 -122.65398071 375.20346252 -123.015625 376.1953125 C-123.56171417 377.69987503 -123.56171417 377.69987503 -124.11883545 379.23483276 C-124.88921866 381.34889184 -125.66266167 383.46183809 -126.43896484 385.57373047 C-127.62152582 388.80301288 -128.78160431 392.03982965 -129.94140625 395.27734375 C-130.69393675 397.33383728 -131.44779848 399.38984427 -132.203125 401.4453125 C-132.54603577 402.41203888 -132.88894653 403.37876526 -133.24224854 404.37478638 C-135.47273014 410.34454985 -137.49708323 413.74854161 -143.375 416.6875 C-146.26202292 416.79925451 -149.12406778 416.8516407 -152.01171875 416.85546875 C-152.88335159 416.85879715 -153.75498444 416.86212555 -154.6530304 416.86555481 C-156.50834628 416.87062869 -158.36367133 416.87296299 -160.21899414 416.87280273 C-163.00618527 416.87495648 -165.79295885 416.89301442 -168.58007812 416.91210938 C-200.85359178 417.01484756 -200.85359178 417.01484756 -209.0390625 410.328125 C-211.02356923 407.89101147 -211.01748478 405.49397912 -210.9312439 402.44096375 C-210.23211106 398.98018525 -208.79807584 396.41356205 -207.10009766 393.31958008 C-203.24714376 385.96157068 -201.08003786 378.45504011 -199.1484375 370.38671875 C-198.79030485 368.93853204 -198.43111601 367.49060617 -198.07095337 366.04292297 C-197.32266007 363.0191708 -196.58613588 359.99287446 -195.85839844 356.96411133 C-194.95078536 353.19005126 -194.01568074 349.42349562 -193.07209396 345.65829277 C-189.17057698 330.04678211 -185.74264055 314.41754032 -183.2265625 298.51953125 C-183.11249432 297.82889776 -182.99842613 297.13826427 -182.88090134 296.4267025 C-181.22756662 286.27184065 -181.78766922 279.34311179 -185 269.625 C-187.24363351 261.45587288 -188.35879469 250.70820869 -184.5 242.875 C-183.125 240.8125 -181.75 238.75 -180.375 236.6875 C-180.97578369 236.59170654 -181.57656738 236.49591309 -182.19555664 236.3972168 C-188.82102862 235.2226693 -194.66711551 233.20831788 -200.8125 230.5 C-202.19272339 229.8978064 -202.19272339 229.8978064 -203.60083008 229.28344727 C-226.46305996 219.09974933 -244.97193025 202.18005689 -254.375 178.6875 C-261.0009133 159.17282385 -262.08947905 136.56093118 -256.375 116.6875 C-255.88193359 114.88732422 -255.88193359 114.88732422 -255.37890625 113.05078125 C-251.65376488 100.71527851 -245.66792134 89.28786866 -238.375 78.6875 C-239.09171875 78.42066406 -239.8084375 78.15382813 -240.546875 77.87890625 C-252.97829474 72.64191313 -262.68361284 63.87362352 -268.28125 51.60546875 C-271.52048595 42.96364999 -270.47272201 35.11142459 -266.8125 26.75 C-260.28545158 14.74404233 -248.44820834 5.38041933 -235.5625 1.125 C-226.3779726 -1.27863382 -218.62389294 -0.9363933 -210.2734375 3.90625 C-199.8984235 11.11668444 -195.30462159 21.51455818 -190.375 32.6875 C-189.71946006 34.0263389 -189.05895944 35.36295415 -188.375 36.6875 C-187.4778125 36.31238281 -186.580625 35.93726563 -185.65625 35.55078125 C-145.61123033 19.0277989 -103.70304942 17.0213003 -62.31005859 30.18432617 C-60.22432712 30.81333065 -60.22432712 30.81333065 -57.375 30.6875 C-57.15585937 29.58792969 -56.93671875 28.48835938 -56.7109375 27.35546875 C-54.04591753 14.65489301 -50.71519021 3.28369612 -39.375 -4.3125 C-27.30071117 -11.63581866 -10.97713379 -7.27439911 0 0 Z " fill="#FEFDFD" transform="translate(341.375,58.3125)"/>
<path d="M0 0 C7.8209336 5.92533011 11.41788206 11.0652402 13.625 20.6875 C14.470625 20.048125 15.31625 19.40875 16.1875 18.75 C19.57533846 16.48877763 22.54615075 15.98414358 26.625 15.6875 C27.45 15.56375 28.275 15.44 29.125 15.3125 C31.625 15.6875 31.625 15.6875 34.4375 18.25 C38.29214145 21.30478208 41.97543728 20.79619894 46.625 20.3125 C47.30151611 20.2204126 47.97803223 20.1283252 48.67504883 20.03344727 C54.07917366 19.37718996 56.95841503 20.14782292 61.625 22.6875 C65.34403859 25.96459005 67.51115696 29.36692077 67.9375 34.3125 C67.84947144 40.37546724 65.24980707 44.79189175 61.375 49.3125 C53.59888945 56.02823184 43.35587568 64.56059083 32.625 64.6875 C29.87890625 62.765625 29.87890625 62.765625 27.1875 59.9375 C26.71376953 59.44032471 26.24003906 58.94314941 25.75195312 58.4309082 C19.75451491 51.94694311 15.49838898 44.58414121 11.625 36.6875 C11.30789063 37.40292969 10.99078125 38.11835937 10.6640625 38.85546875 C5.55143337 49.77276796 -1.66511325 58.47961386 -9.375 67.6875 C-8.48748047 68.99460938 -8.48748047 68.99460938 -7.58203125 70.328125 C-3.04568245 77.12784884 0.76034878 83.6180218 3.5546875 91.359375 C4.52067239 93.99659936 4.52067239 93.99659936 7.625 95.6875 C10.00680078 95.03115107 10.00680078 95.03115107 12.5625 93.8125 C21.66070202 90.28829526 30.05910427 90.66872088 39.0703125 94.3515625 C43.13682483 96.4780873 46.79269747 99.04488631 49.625 102.6875 C50.3359375 105.41015625 50.3359375 105.41015625 50.625 107.6875 C47.49260443 105.9789206 44.92072084 104.09232747 42.3125 101.6875 C36.02295478 96.26175498 29.88856764 95.13291871 21.6640625 95.3203125 C17.68629505 95.80091679 14.39800247 97.03305385 10.78125 98.71484375 C8.73397775 99.63834156 6.81491643 100.21467713 4.625 100.6875 C3.84125 99.635625 3.0575 98.58375 2.25 97.5 C-3.90414297 90.36350557 -12.3157333 87.97892738 -21.375 86.6875 C-21.375 86.0275 -21.375 85.3675 -21.375 84.6875 C-14.02325194 84.13496779 -8.863417 85.17685892 -2.375 88.6875 C-7.12798564 79.09087232 -12.11941277 70.67396141 -19.375 62.6875 C-19.91382813 62.06746094 -20.45265625 61.44742188 -21.0078125 60.80859375 C-30.6695438 50.34576413 -43.55779801 43.47005069 -56.375 37.6875 C-57.3959375 37.21570313 -58.416875 36.74390625 -59.46875 36.2578125 C-74.49821971 29.89006349 -92.11320548 26.58826632 -108.3984375 26.484375 C-109.13782059 26.47736069 -109.87720367 26.47034637 -110.63899231 26.46311951 C-113.00939093 26.44572337 -115.37953991 26.43926826 -117.75 26.4375 C-118.55901764 26.43682526 -119.36803528 26.43615051 -120.2015686 26.43545532 C-131.86512874 26.45093863 -143.01928584 26.79313503 -154.375 29.6875 C-155.40101318 29.93693359 -155.40101318 29.93693359 -156.44775391 30.19140625 C-178.3066596 35.59237128 -198.44202825 45.86463704 -215.375 60.6875 C-216.19226563 61.34878906 -217.00953125 62.01007813 -217.8515625 62.69140625 C-239.46847069 80.77412151 -252.68298645 108.94938305 -255.375 136.6875 C-257.22717045 158.85331224 -250.7614449 181.77519784 -237.23046875 199.49609375 C-222.70805741 216.47503238 -197.64866689 231.69322791 -175.07177734 233.9140625 C-171.9328338 234.10789529 -168.80879706 234.25566937 -165.66333008 234.23657227 C-160.78695998 234.27621755 -157.75831227 235.3087108 -153.52148438 237.67944336 C-149.68272275 239.48224667 -145.54005067 240.03884457 -141.375 240.6875 C-141.33012451 239.96272461 -141.28524902 239.23794922 -141.23901367 238.49121094 C-141.02490964 235.13913641 -140.79378709 231.7884311 -140.5625 228.4375 C-140.45711914 226.72820312 -140.45711914 226.72820312 -140.34960938 224.984375 C-139.48215047 212.77055363 -137.96171352 200.41421116 -128.4375 191.8125 C-121.46603866 186.97515948 -113.62487411 186.5594755 -105.375 187.6875 C-102.41893664 189.21472132 -100.26821407 190.94020439 -98.375 193.6875 C-98.375 194.3475 -98.375 195.0075 -98.375 195.6875 C-97.715 195.6875 -97.055 195.6875 -96.375 195.6875 C-96.148125 195.11 -95.92125 194.5325 -95.6875 193.9375 C-93.95963005 190.97543723 -92.24746965 189.57646102 -89.375 187.6875 C-82.34002689 186.61610432 -74.22173753 186.50498661 -68.01171875 190.37109375 C-60.52301871 196.39422481 -57.01585636 204.32851006 -55.375 213.6875 C-55.23417098 215.52497541 -55.13060602 217.36557451 -55.05859375 219.20703125 C-54.99575195 220.7394043 -54.99575195 220.7394043 -54.93164062 222.30273438 C-54.89232422 223.35783203 -54.85300781 224.41292969 -54.8125 225.5 C-54.76931641 226.57443359 -54.72613281 227.64886719 -54.68164062 228.75585938 C-54.57589017 231.39962082 -54.47379767 234.0434711 -54.375 236.6875 C-53.19035156 236.21957031 -52.00570312 235.75164062 -50.78515625 235.26953125 C-47.15640887 233.90845198 -43.63604386 233.05136696 -39.8125 232.375 C-20.49510202 228.39181858 1.1228804 218.23867211 12.625 201.6875 C20.68882904 187.7815091 21.93251709 176.52462997 21.625 160.6875 C18.59952121 160.6875 17.5526447 161.03509892 14.9296875 162.33203125 C14.2173999 162.67814453 13.5051123 163.02425781 12.77124023 163.38085938 C11.64697632 163.93483398 11.64697632 163.93483398 10.5 164.5 C4.62931293 167.33630867 -1.09872202 169.86167368 -7.375 171.6875 C-7.705 170.6975 -8.035 169.7075 -8.375 168.6875 C-7.81216309 168.45675781 -7.24932617 168.22601563 -6.66943359 167.98828125 C15.89184923 158.68238428 39.43892112 148.53397924 49.625 124.6875 C50.2988719 123.02373352 50.96753451 121.35781774 51.625 119.6875 C52.285 119.6875 52.945 119.6875 53.625 119.6875 C53.23130792 131.89195445 46.23205754 140.46990208 37.625 148.6875 C33.77517999 151.891513 29.72630553 154.81450425 25.625 157.6875 C25.86476563 158.7084375 25.86476563 158.7084375 26.109375 159.75 C28.7285529 174.67137711 25.67117692 189.90827783 17.625 202.6875 C14.85596829 206.28046205 11.84923738 209.50113118 8.625 212.6875 C7.95984375 213.37457031 7.2946875 214.06164062 6.609375 214.76953125 C-5.02717017 226.02855491 -20.32069768 231.59849128 -35.375 236.6875 C-35.21451172 238.01587891 -35.21451172 238.01587891 -35.05078125 239.37109375 C-34.27318632 247.40624134 -34.56677606 254.35958014 -36.18896484 262.26391602 C-37.18825146 267.22703954 -37.63758097 272.00734017 -37.8125 277.0625 C-38.21098644 284.96972113 -39.18875924 292.48681463 -44.95996094 298.28417969 C-47.68959717 301.54792897 -47.84918942 303.8988112 -47.58630371 308.05880737 C-47.46623962 309.30200241 -47.46623962 309.30200241 -47.34375 310.5703125 C-47.27885376 311.46928253 -47.21395752 312.36825256 -47.14709473 313.29446411 C-46.99731109 315.31252737 -46.83455319 317.32965561 -46.66113281 319.3458252 C-46.35442486 322.927792 -46.08489282 326.51136289 -45.8203125 330.09667969 C-45.2621794 337.55470428 -44.65948675 345.00856732 -44.04681396 352.46228027 C-43.81539965 355.29104281 -43.58823094 358.12014007 -43.36107635 360.94924736 C-43.13968745 363.70156416 -42.91611825 366.4537004 -42.69184875 369.20578384 C-42.53525127 371.13050834 -42.38009452 373.05534988 -42.22497559 374.98019409 C-41.97067685 386.40826482 -41.97067685 386.40826482 -36.875 396 C-33.12568538 399.91065808 -31.94277092 401.99630864 -32.03515625 407.65234375 C-32.63324022 411.23397307 -34.52276283 412.62417949 -37.375 414.6875 C-45.44320564 417.7321059 -54.01351735 417.85577568 -62.53515625 417.92578125 C-63.48386093 417.933853 -64.43256561 417.94192474 -65.41001892 417.95024109 C-67.40426856 417.96399482 -69.39854088 417.9747554 -71.39282227 417.98266602 C-73.42446837 417.9942326 -75.456083 418.01475735 -77.48754883 418.04418945 C-80.44112544 418.08689809 -83.39380913 418.10303317 -86.34765625 418.11328125 C-87.24887711 418.13078934 -88.15009796 418.14829742 -89.07862854 418.16633606 C-95.03328901 418.14595048 -98.49585022 417.15515445 -103.375 413.6875 C-107.60344258 408.26443645 -106.74574926 401.67701956 -106.625 395.125 C-106.61404297 393.93801514 -106.60308594 392.75103027 -106.59179688 391.52807617 C-106.4608409 380.90142579 -106.0116687 370.29485539 -105.375 359.6875 C-109.665 359.6875 -113.955 359.6875 -118.375 359.6875 C-118.705 361.6675 -119.035 363.6475 -119.375 365.6875 C-119.86295682 367.31466694 -120.39494168 368.92927129 -120.96972656 370.52783203 C-121.29386536 371.43542267 -121.61800415 372.34301331 -121.95196533 373.27810669 C-122.30297302 374.24078461 -122.65398071 375.20346252 -123.015625 376.1953125 C-123.56171417 377.69987503 -123.56171417 377.69987503 -124.11883545 379.23483276 C-124.88921866 381.34889184 -125.66266167 383.46183809 -126.43896484 385.57373047 C-127.62152582 388.80301288 -128.78160431 392.03982965 -129.94140625 395.27734375 C-130.69393675 397.33383728 -131.44779848 399.38984427 -132.203125 401.4453125 C-132.54603577 402.41203888 -132.88894653 403.37876526 -133.24224854 404.37478638 C-135.47273014 410.34454985 -137.49708323 413.74854161 -143.375 416.6875 C-146.26202292 416.79925451 -149.12406778 416.8516407 -152.01171875 416.85546875 C-152.88335159 416.85879715 -153.75498444 416.86212555 -154.6530304 416.86555481 C-156.50834628 416.87062869 -158.36367133 416.87296299 -160.21899414 416.87280273 C-163.00618527 416.87495648 -165.79295885 416.89301442 -168.58007812 416.91210938 C-200.85359178 417.01484756 -200.85359178 417.01484756 -209.0390625 410.328125 C-211.02356923 407.89101147 -211.01748478 405.49397912 -210.9312439 402.44096375 C-210.23211106 398.98018525 -208.79807584 396.41356205 -207.10009766 393.31958008 C-203.24714376 385.96157068 -201.08003786 378.45504011 -199.1484375 370.38671875 C-198.79030485 368.93853204 -198.43111601 367.49060617 -198.07095337 366.04292297 C-197.32266007 363.0191708 -196.58613588 359.99287446 -195.85839844 356.96411133 C-194.95078536 353.19005126 -194.01568074 349.42349562 -193.07209396 345.65829277 C-189.17057698 330.04678211 -185.74264055 314.41754032 -183.2265625 298.51953125 C-183.11249432 297.82889776 -182.99842613 297.13826427 -182.88090134 296.4267025 C-181.22756662 286.27184065 -181.78766922 279.34311179 -185 269.625 C-187.24363351 261.45587288 -188.35879469 250.70820869 -184.5 242.875 C-183.125 240.8125 -181.75 238.75 -180.375 236.6875 C-180.97578369 236.59170654 -181.57656738 236.49591309 -182.19555664 236.3972168 C-188.82102862 235.2226693 -194.66711551 233.20831788 -200.8125 230.5 C-202.19272339 229.8978064 -202.19272339 229.8978064 -203.60083008 229.28344727 C-226.46305996 219.09974933 -244.97193025 202.18005689 -254.375 178.6875 C-261.0009133 159.17282385 -262.08947905 136.56093118 -256.375 116.6875 C-255.88193359 114.88732422 -255.88193359 114.88732422 -255.37890625 113.05078125 C-251.65376488 100.71527851 -245.66792134 89.28786866 -238.375 78.6875 C-239.09171875 78.42066406 -239.8084375 78.15382813 -240.546875 77.87890625 C-252.97829474 72.64191313 -262.68361284 63.87362352 -268.28125 51.60546875 C-271.52048595 42.96364999 -270.47272201 35.11142459 -266.8125 26.75 C-260.28545158 14.74404233 -248.44820834 5.38041933 -235.5625 1.125 C-226.3779726 -1.27863382 -218.62389294 -0.9363933 -210.2734375 3.90625 C-199.8984235 11.11668444 -195.30462159 21.51455818 -190.375 32.6875 C-189.71946006 34.0263389 -189.05895944 35.36295415 -188.375 36.6875 C-187.4778125 36.31238281 -186.580625 35.93726563 -185.65625 35.55078125 C-145.61123033 19.0277989 -103.70304942 17.0213003 -62.31005859 30.18432617 C-60.22432712 30.81333065 -60.22432712 30.81333065 -57.375 30.6875 C-57.15585937 29.58792969 -56.93671875 28.48835938 -56.7109375 27.35546875 C-54.04591753 14.65489301 -50.71519021 3.28369612 -39.375 -4.3125 C-27.30071117 -11.63581866 -10.97713379 -7.27439911 0 0 Z " fill="#4E2801" transform="translate(341.375,58.3125)"/>
<path d="M0 0 C0 0.99 0 1.98 0 3 C0.598125 3.04125 1.19625 3.0825 1.8125 3.125 C4 4 4 4 5.75 6.9375 C7 10 7 10 7 12 C7.66 12 8.32 12 9 12 C13.45590478 21.99905033 10.60898791 32.11544262 7 42 C0.24931216 58.09779407 -10.54035822 71.04391015 -22 84 C-24.97 83.34 -27.94 82.68 -31 82 C-31 81.34 -31 80.68 -31 80 C-33.97 79.505 -33.97 79.505 -37 79 C-36.34 79.515625 -35.68 80.03125 -35 80.5625 C-33 83 -33 83 -32.4375 86.4375 C-33.16435043 91.04088608 -34.29742424 92.20417749 -38 95 C-48.00093884 100.28519366 -58.34673755 101.65964006 -69.4765625 99.24609375 C-74.62755273 97.61643803 -79.16833816 95.96378811 -83 92 C-84.6167707 88.76645861 -84.47631929 86.57239465 -84 83 C-80.34692041 78.18862689 -74.84508466 75.24126996 -69 74 C-64.33798793 73.4870278 -59.68551609 73.19084265 -55 73 C-55.68964844 72.64808594 -56.37929687 72.29617187 -57.08984375 71.93359375 C-63.60889976 68.50863017 -69.4099089 64.79453734 -75 60 C-75.62777344 59.47921875 -76.25554687 58.9584375 -76.90234375 58.421875 C-83.02994421 52.89764877 -87.34065914 45.777519 -88.4765625 37.546875 C-88.624804 31.64416798 -88.3804649 26.92984465 -85 22 C-84.34 22 -83.68 22 -83 22 C-82.979375 21.4225 -82.95875 20.845 -82.9375 20.25 C-81.66654088 17.19969812 -79.60841951 16.47543405 -76.765625 15.0078125 C-74.80734611 13.99847275 -74.80734611 13.99847275 -72.9375 11.875 C-68.47230829 7.55384673 -62.86165273 7.64142764 -56.96875 7.73046875 C-52.13029423 8.1697496 -47.60668772 9.50304925 -43 11 C-42.61070312 10.49210938 -42.22140625 9.98421875 -41.8203125 9.4609375 C-31.17855406 -3.63283902 -15.30886059 -8.86094256 0 0 Z " fill="#FDC4DF" transform="translate(208,146)"/>
<path d="M0 0 C2.375 2.8125 2.375 2.8125 2.375 4.8125 C3.13425781 4.46316406 3.89351563 4.11382812 4.67578125 3.75390625 C5.66964844 3.29886719 6.66351563 2.84382812 7.6875 2.375 C8.67363281 1.92253906 9.65976562 1.47007812 10.67578125 1.00390625 C17.12164682 -1.84122979 23.89109453 -2.26655367 30.77734375 -0.609375 C36.69149733 1.74345283 41.30176768 5.7720711 46.08984375 9.88671875 C48.21449181 11.82991755 48.21449181 11.82991755 50.375 12.8125 C51.32549429 23.54252441 48.46623073 32.02768645 42 40.625 C40.81064673 42.0370407 39.60320594 43.43412041 38.375 44.8125 C37.88773437 45.39257812 37.40046875 45.97265625 36.8984375 46.5703125 C25.68922503 58.92918779 7.90162265 67.35258874 -7.625 72.8125 C-8.615 72.8125 -9.605 72.8125 -10.625 72.8125 C-10.295 73.4725 -9.965 74.1325 -9.625 74.8125 C-2.88680785 72.75678036 3.18502833 70.03890125 9.45703125 66.82421875 C12.375 65.8125 12.375 65.8125 14.63671875 66.51953125 C16.375 67.8125 16.375 67.8125 18.375 69.8125 C18.92640298 73.98740829 18.93141978 76.04069192 16.4375 79.5 C7.15492257 86.50929316 -3.23467516 87.75098049 -14.625 86.8125 C-20.93822343 85.38574108 -27.0212936 83.57495489 -31.625 78.8125 C-33.2417707 75.57895861 -33.10131929 73.38489465 -32.625 69.8125 C-30.59534469 67.37372569 -28.3231086 65.47897884 -25.625 63.8125 C-24.965 63.8125 -24.305 63.8125 -23.625 63.8125 C-25.55476924 60.39235514 -27.59363605 57.63614776 -30.3125 54.8125 C-41.13024628 42.80161994 -49.09670626 27.37178653 -48.9765625 10.9921875 C-48.29518636 4.82951886 -45.39493555 0.01151084 -41.5625 -4.75 C-39.53602634 -6.25351272 -38.06318886 -6.68304713 -35.625 -7.1875 C-35.295 -7.8475 -34.965 -8.5075 -34.625 -9.1875 C-22.50026791 -11.9855151 -9.03326294 -8.6121318 0 0 Z " fill="#FDC4DF" transform="translate(343.625,154.1875)"/>
<path d="M0 0 C2.31 0 4.62 0 7 0 C7.06993164 0.67353516 7.13986328 1.34707031 7.21191406 2.04101562 C9.69192483 30.7860233 9.69192483 30.7860233 22.5 56.0625 C28.93204933 61.04733823 34.04787656 61.66815362 42 61 C45.06863054 60.48266603 47.98480226 59.79087154 51 59 C51.21089086 71.23166991 41.92929634 81.91153036 33.85546875 90.3984375 C25.07577264 98.39744928 12.39663634 107.61594129 0.1328125 108.1171875 C-0.57101563 108.07851563 -1.27484375 108.03984375 -2 108 C-2 109.32 -2 110.64 -2 112 C-6.29 112 -10.58 112 -15 112 C-14.67 110.35 -14.34 108.7 -14 107 C-15.485 107.495 -15.485 107.495 -17 108 C-19.25463867 107.05053711 -19.25463867 107.05053711 -21.91796875 105.52734375 C-23.41106567 104.68260498 -23.41106567 104.68260498 -24.93432617 103.82080078 C-26.00787354 103.19931152 -27.0814209 102.57782227 -28.1875 101.9375 C-29.29649658 101.30569824 -30.40549316 100.67389648 -31.5480957 100.02294922 C-35.03964359 98.02813177 -38.52164563 96.01768654 -42 94 C-43.08925781 93.36884277 -44.17851562 92.73768555 -45.30078125 92.08740234 C-50.40933957 89.12222418 -55.51032551 86.14441448 -60.60546875 83.15625 C-67.04022718 79.3842672 -73.5113574 75.67842063 -80 72 C-79.37536408 65.08339065 -78.49987484 58.2372298 -77.4375 51.375 C-77.22963867 50.01181641 -77.22963867 50.01181641 -77.01757812 48.62109375 C-76.68066063 46.4137033 -76.34144335 44.20669409 -76 42 C-73.38673014 44.5450976 -71.03496258 47.16043485 -68.75 50 C-64.13943866 55.33592983 -58.1010481 58.67468929 -50.99609375 59.23828125 C-40.18215501 59.46381894 -33.16229431 57.94379357 -24.8125 50.9375 C-13.24720089 39.8058996 -7.1808875 24.04653111 -2.82421875 8.8671875 C-1.96559666 5.88032202 -0.9996869 2.9423099 0 0 Z " fill="#FEA9CB" transform="translate(239,303)"/>
<path d="M0 0 C2.61326986 2.5450976 4.96503742 5.16043485 7.25 8 C11.30203713 12.67810295 15.71777331 15.10089225 21.65234375 16.7265625 C24 18 24 18 24.93359375 20.6875 C25.09988281 21.780625 25.26617187 22.87375 25.4375 24 C27.13382733 32.48163663 29.99957392 39.21872387 37.1875 44.375 C51.77842616 53.06066093 71.32323644 54.65003161 87.75 50.75 C89.51352192 50.20891941 91.26576676 49.62865955 93 49 C93.804375 48.7215625 94.60875 48.443125 95.4375 48.15625 C103.31775162 45.06804328 110.07955862 39.56085123 114 32 C115.47947091 27.70542472 116.77975341 23.37471385 118 19 C120.97 18.34 123.94 17.68 127 17 C127.21089086 29.23166991 117.92929634 39.91153036 109.85546875 48.3984375 C101.07577264 56.39744928 88.39663634 65.61594129 76.1328125 66.1171875 C75.42898437 66.07851563 74.72515625 66.03984375 74 66 C74 67.32 74 68.64 74 70 C69.71 70 65.42 70 61 70 C61.33 68.35 61.66 66.7 62 65 C60.515 65.495 60.515 65.495 59 66 C56.74536133 65.05053711 56.74536133 65.05053711 54.08203125 63.52734375 C53.0866333 62.96418457 52.09123535 62.40102539 51.06567383 61.82080078 C49.99212646 61.19931152 48.9185791 60.57782227 47.8125 59.9375 C46.70350342 59.30569824 45.59450684 58.67389648 44.4519043 58.02294922 C40.96035641 56.02813177 37.47835437 54.01768654 34 52 C32.91074219 51.36884277 31.82148438 50.73768555 30.69921875 50.08740234 C25.59066043 47.12222418 20.48967449 44.14441448 15.39453125 41.15625 C8.95977282 37.3842672 2.4886426 33.67842063 -4 30 C-3.37536408 23.08339065 -2.49987484 16.2372298 -1.4375 9.375 C-1.29892578 8.46621094 -1.16035156 7.55742187 -1.01757812 6.62109375 C-0.68066063 4.4137033 -0.34144335 2.20669409 0 0 Z " fill="#FCFAFA" transform="translate(163,345)"/>
<path d="M0 0 C3.48431163 0.92313713 6.82125011 2.15476048 10.1875 3.4375 C11.92990026 4.0849703 13.67336058 4.72959643 15.41796875 5.37109375 C16.17875732 5.65911865 16.9395459 5.94714355 17.72338867 6.24389648 C29.83673426 10.26695614 41.83804999 7.580975 53 2 C56.0826338 1.52155585 58.92434762 1.44850371 62 2 C65.60762193 5.01862243 66.81618826 6.85628253 67.5625 11.5 C66.63329727 17.28170587 63.53344967 21.15907449 58.9765625 24.76953125 C49.59638147 30.60897201 40.70403298 32.18065541 29.9375 32.1875 C28.95072266 32.19974609 27.96394531 32.21199219 26.94726562 32.22460938 C12.63260952 32.25273247 0.37890919 29.73782403 -10.28515625 19.8046875 C-13.74294544 16.16573851 -13.39927849 12.53752065 -13.3359375 7.7109375 C-13 5 -13 5 -11 1.8125 C-7.22452812 -0.46851426 -4.26350499 -0.51235832 0 0 Z " fill="#FC0073" transform="translate(234,191)"/>
<path d="M0 0 C0.70125 0.4125 1.4025 0.825 2.125 1.25 C3.011875 1.70375 3.89875 2.1575 4.8125 2.625 C7.125 4.25 7.125 4.25 7.9375 6.4375 C7.999375 7.035625 8.06125 7.63375 8.125 8.25 C8.82753906 8.09144531 9.53007812 7.93289062 10.25390625 7.76953125 C16.14690393 6.70317929 23.45691656 5.66731783 28.75 9 C31.47583298 11.58236809 32.97054739 13.53815029 33.3125 17.328125 C32.76029358 23.72451605 30.67210628 27.73061998 26.125 32.25 C20.3922641 37.07070973 10.9638522 44.53289013 3.109375 44.15234375 C-6.198802 39.91968846 -12.15761376 29.03921417 -16.3125 20.1875 C-17.11023567 16.02154704 -17.03597379 12.34356343 -15.875 8.25 C-13.28728531 4.70113414 -11.83182663 3.48469332 -7.5625 2.4375 C-6.2321875 2.3446875 -6.2321875 2.3446875 -4.875 2.25 C-4.875 1.59 -4.875 0.93 -4.875 0.25 C-1.875 -0.75 -1.875 -0.75 0 0 Z " fill="#FBC3DD" transform="translate(372.875,74.75)"/>
<path d="M0 0 C0.99 0 1.98 0 3 0 C2.84015625 0.70511719 2.6803125 1.41023437 2.515625 2.13671875 C1.14438203 9.75127249 0.82415796 18.23407873 5 25 C15.11739377 38.16083742 29.02927378 46.07362846 44.25 52.1875 C48.5054979 54.0219088 50.57650224 56.01295529 53 60 C53.625 63.5625 53.625 63.5625 53 67 C48.90347926 72.6822707 41.79235094 75.71031311 35 77 C24.13313154 77.79672954 14.11264925 77.0750995 4.8125 70.875 C2.3937386 68.37283304 2.03790683 67.24639439 1.5 63.75 C2.02699973 59.79750205 2.22759095 59.27037186 5 56.75 C13.09547477 50.71460628 21.17360903 50.40023222 31 50 C30.31035156 49.64808594 29.62070313 49.29617187 28.91015625 48.93359375 C22.39110024 45.50863017 16.5900911 41.79453734 11 37 C10.37222656 36.47921875 9.74445313 35.9584375 9.09765625 35.421875 C2.97368021 29.90091629 -1.39776505 22.75925498 -2.44140625 14.51171875 C-2.53255082 9.14634155 -2.24768519 4.92134299 0 0 Z " fill="#FEABCC" transform="translate(122,169)"/>
<path d="M0 0 C-1.10175536 2.47894956 -2.266293 4.3245446 -4 6.4375 C-8.72041516 12.48553192 -8.68905297 18.6035833 -8 26 C-4.88592189 41.514449 4.2130304 53.36768478 14.5 64.9375 C17 68 17 68 17 71 C17.5775 71.28875 18.155 71.5775 18.75 71.875 C19.86375 72.431875 19.86375 72.431875 21 73 C22.051875 73.37125 22.051875 73.37125 23.125 73.75 C25.89478683 75.59652455 26.18480954 77.87510323 27 81 C33.73819215 78.94428036 39.81002833 76.22640125 46.08203125 73.01171875 C49 72 49 72 51.26171875 72.70703125 C53 74 53 74 55 76 C55.55140298 80.17490829 55.55641978 82.22819192 53.0625 85.6875 C43.77992257 92.69679316 33.39032484 93.93848049 22 93 C15.68677657 91.57324108 9.6037064 89.76245489 5 85 C3.3832293 81.76645861 3.52368071 79.57239465 4 76 C6.02965531 73.56122569 8.3018914 71.66647884 11 70 C11.66 70 12.32 70 13 70 C11.07023076 66.57985514 9.03136395 63.82364776 6.3125 61 C-4.50524628 48.98911994 -12.47170626 33.55928653 -12.3515625 17.1796875 C-11.66632491 10.98209417 -8.74147883 6.15123855 -4.875 1.375 C-3 0 -3 0 0 0 Z " fill="#FCAACA" transform="translate(307,148)"/>
<path d="M0 0 C3.48431163 0.92313713 6.82125011 2.15476048 10.1875 3.4375 C11.92990026 4.0849703 13.67336058 4.72959643 15.41796875 5.37109375 C16.17875732 5.65911865 16.9395459 5.94714355 17.72338867 6.24389648 C29.83673426 10.26695614 41.83804999 7.580975 53 2 C56.0826338 1.52155585 58.92434762 1.44850371 62 2 C65.60762193 5.01862243 66.81618826 6.85628253 67.5625 11.5 C66.63329727 17.28170587 63.53344967 21.15907449 58.9765625 24.76953125 C49.59638147 30.60897201 40.70403298 32.18065541 29.9375 32.1875 C28.95072266 32.19974609 27.96394531 32.21199219 26.94726562 32.22460938 C12.63260952 32.25273247 0.37890919 29.73782403 -10.28515625 19.8046875 C-13.74294544 16.16573851 -13.39927849 12.53752065 -13.3359375 7.7109375 C-13 5 -13 5 -11 1.8125 C-7.22452812 -0.46851426 -4.26350499 -0.51235832 0 0 Z M-10 6 C-11.03782241 10.54047305 -10.47412665 14.13641217 -8.25 18.1875 C-0.95158919 25.65225636 10.45378647 28.95905976 20.609375 29.30078125 C22.65616991 29.31930428 24.70314695 29.32275349 26.75 29.3125 C27.81025391 29.31121094 28.87050781 29.30992187 29.96289062 29.30859375 C37.36635434 29.21758621 44.00193503 28.57823446 51 26 C48.83969128 19.26843028 44.03000757 15.41415322 38 12 C34.31460222 11.36617874 30.85791584 11.31217417 27.12109375 11.296875 C20.10079915 11.05744961 13.53555893 8.10003416 7.01269531 5.71020508 C-2.16732189 1.98998843 -2.16732189 1.98998843 -10 6 Z " fill="#542B07" transform="translate(234,191)"/>
<path d="M0 0 C4.6 2.2 4.6 2.2 6 5 C6.83931882 10.62024883 6.50895954 14.93041209 3.375 19.75 C2.28547831 21.19413016 1.16070192 22.61243361 0 24 C-0.5259375 24.63679688 -1.051875 25.27359375 -1.59375 25.9296875 C-3.125 27.625 -3.125 27.625 -6 30 C-9.5364824 29.53842456 -11.97899965 27.82665138 -15 26 C-16.155 25.566875 -17.31 25.13375 -18.5 24.6875 C-23.08454712 22.47709335 -25.9453275 19.93550512 -27.703125 15.04296875 C-28.55128207 10.93568959 -28.17855928 9.31679871 -26.0625 5.5625 C-22.22319671 2.35002173 -19.82805732 2.17951681 -15 2 C-1.02906977 -0.06976744 -1.02906977 -0.06976744 0 0 Z " fill="#FCC5DF" transform="translate(406,36)"/>
<path d="M0 0 C3.4410478 1.01956972 4.03827397 1.56591039 6.375 4 C8.1075 4.433125 8.1075 4.433125 9.875 4.875 C13.375 6 13.375 6 15.375 8.3125 C16.56304449 11.50536958 16.59373012 12.83130169 15.375 16 C12.32759091 20.14447637 8.23888404 21.78177301 3.375 23 C0.97205348 23.21269018 -1.20671993 23.1511425 -3.625 23 C-7.12215112 16.90496519 -9.82945649 12.10629327 -8.625 5 C-5.9573351 1.03892181 -4.82598436 0 0 0 Z " fill="#532C07" transform="translate(424.625,66)"/>
<path d="M0 0 C4.6 2.2 4.6 2.2 6 5 C6.83931882 10.62024883 6.50895954 14.93041209 3.375 19.75 C2.28547831 21.19413016 1.16070192 22.61243361 0 24 C-0.5259375 24.63679688 -1.051875 25.27359375 -1.59375 25.9296875 C-3.125 27.625 -3.125 27.625 -6 30 C-8.1796875 29.6484375 -8.1796875 29.6484375 -10 29 C-9.62488281 28.56429687 -9.24976563 28.12859375 -8.86328125 27.6796875 C-1.1039203 19.85136803 -1.1039203 19.85136803 2.1875 10 C2.20167969 9.29875 2.21585937 8.5975 2.23046875 7.875 C2.16512323 5.75475062 2.16512323 5.75475062 0 4 C-2.9157691 3.58297878 -2.9157691 3.58297878 -6 4 C-6.91265625 4.74830078 -6.91265625 4.74830078 -7.84375 5.51171875 C-10.62249429 7.42965638 -12.28909485 7.27785819 -15.625 7.125 C-19.46127878 6.85036956 -19.46127878 6.85036956 -23 8 C-23.49388235 12.04735982 -23.49388235 12.04735982 -23 16 C-21.32565308 17.89255754 -19.6055591 19.23940451 -17.53125 20.67578125 C-17.0259375 21.11277344 -16.520625 21.54976562 -16 22 C-16 22.99 -16 23.98 -16 25 C-18.73509897 24.91955591 -20.50956538 24.40361127 -22.6328125 22.65625 C-25.43197142 19.68129849 -27.37019955 16.9850832 -28.1875 12.9375 C-28 9 -28 9 -26.0625 5.5625 C-22.22319671 2.35002173 -19.82805732 2.17951681 -15 2 C-1.02906977 -0.06976744 -1.02906977 -0.06976744 0 0 Z " fill="#542D08" transform="translate(406,36)"/>
<path d="M0 0 C0.99 0 1.98 0 3 0 C2.84015625 0.70511719 2.6803125 1.41023437 2.515625 2.13671875 C1.14438203 9.75127249 0.82415796 18.23407873 5 25 C16.021211 39.33653464 31.60938165 47.14574142 48 54 C48 54.66 48 55.32 48 56 C43.14550537 55.42669312 39.11444484 53.92086777 34.75 51.8125 C34.09104736 51.49716309 33.43209473 51.18182617 32.75317383 50.85693359 C18.64266395 44.00931285 7.18211307 35.50959222 -0.875 21.8125 C-2.99439315 14.63011211 -3.20251666 6.86435842 0 0 Z " fill="#5E3815" transform="translate(122,169)"/>
<path d="M0 0 C0 0.66 0 1.32 0 2 C-2.76276177 1.47731534 -5.3260876 0.89130413 -8 0 C-16.96057075 -0.81565663 -24.67963157 -0.63866217 -32 5 C-34.44855977 7.60551873 -36.71672408 10.25029365 -38.89453125 13.0859375 C-39.58933594 13.71757812 -40.28414062 14.34921875 -41 15 C-43.92075673 14.83749173 -45.92010779 14.03233732 -48.625 12.9375 C-56.75618709 10.67883692 -64.93290533 12.04009848 -73 14 C-72.505 12.515 -72.505 12.515 -72 11 C-61.94682451 5.97341225 -52.35925397 7.63374339 -42 11 C-41.61070312 10.49210938 -41.22140625 9.98421875 -40.8203125 9.4609375 C-30.56830629 -3.15328212 -14.70723251 -9.22806746 0 0 Z " fill="#633E1C" transform="translate(207,146)"/>
<path d="M0 0 C-1.10175536 2.47894956 -2.266293 4.3245446 -4 6.4375 C-8.72041516 12.48553192 -8.68905297 18.6035833 -8 26 C-4.87662791 41.56075199 4.27607032 53.33269202 14.5 65 C17 68 17 68 17 70 C3.17587678 63.65646294 -5.80413602 45.30439083 -10.8046875 31.83203125 C-13.13375041 24.09507571 -13.25505028 15.81207413 -9.75 8.5 C-4.91237942 0 -4.91237942 0 0 0 Z " fill="#5D3714" transform="translate(307,148)"/>
<path d="M0 0 C0.66 0 1.32 0 2 0 C5.917522 6.80081819 4.34336378 14.54077083 2.4375 21.8125 C-2.76424834 38.4327203 -12.39588231 51.70101086 -23.4375 64.875 C-23.94563232 65.48859375 -24.45376465 66.1021875 -24.97729492 66.734375 C-26.2508119 68.21690675 -27.61906981 69.61696794 -29 71 C-29.99 71 -30.98 71 -32 71 C-30.32092884 66.8777295 -27.36642483 63.88954025 -24.4375 60.625 C-8.87319916 42.84190861 0.883343 23.94841011 0 0 Z " fill="#5D3815" transform="translate(215,159)"/>
<path d="M0 0 C0.66 0.33 1.32 0.66 2 1 C2.26272882 2.38662433 2.46064745 3.78580755 2.625 5.1875 C3.42249122 9.13727936 4.48195517 10.92297438 7.6875 13.375 C17.67060939 19.88650558 27.30723634 21.32483686 38.9375 21.1875 C40.48727539 21.1865332 40.48727539 21.1865332 42.06835938 21.18554688 C48.12104777 21.1510477 53.99812497 20.78230905 60 20 C60 20.99 60 21.98 60 23 C53.86319602 25.15988073 48.22045176 25.30061631 41.75 25.25 C40.77675781 25.25773437 39.80351562 25.26546875 38.80078125 25.2734375 C24.55174379 25.23559145 12.32575945 22.68831723 1.71484375 12.8046875 C-0.81831947 10.1388073 -1.1379896 8.51613575 -1.125 4.9375 C-1 1 -1 1 0 0 Z " fill="#5F2C0F" transform="translate(222,198)"/>
<path d="M0 0 C2.5625 0.3125 2.5625 0.3125 3.9375 1.75 C5.62261356 3.67584562 5.62261356 3.67584562 9.125 3.8125 C10.8265625 4.06 10.8265625 4.06 12.5625 4.3125 C14.5625 7.3125 14.5625 7.3125 14.5 9.8125 C13.5625 12.3125 13.5625 12.3125 11.5625 14.0625 C7.60249477 15.71250218 3.81649517 16.04372906 -0.4375 16.3125 C-5.20627587 6.5407673 -5.20627587 6.5407673 -4.4375 2.3125 C-2.4375 0.3125 -2.4375 0.3125 0 0 Z " fill="#F6C0D7" transform="translate(423.4375,69.6875)"/>
<path d="M0 0 C5.79504315 3.26188058 9.80266281 8.10513626 11.8125 14.4375 C12.55671968 22.35329109 12.62804063 31.23036771 8.8125 38.4375 C7.8225 38.7675 6.8325 39.0975 5.8125 39.4375 C6.69448758 31.87760648 6.69448758 31.87760648 7.33203125 29.5 C8.94401509 22.58026448 8.57617947 14.58484314 4.8125 8.4375 C1.10530797 4.37579507 -2.35263485 2.56189764 -7.875 2.1875 C-13.17528786 2.24628323 -18.36199012 3.61199012 -22.1875 7.4375 C-23.1775 7.4375 -24.1675 7.4375 -25.1875 7.4375 C-23.34364211 2.72206016 -20.33582571 1.48260317 -15.91015625 -0.57421875 C-10.27693583 -2.61898886 -5.48064753 -2.39193346 0 0 Z " fill="#FFF7FA" transform="translate(201.1875,148.5625)"/>
<path d="M0 0 C5.47441041 2.43664934 9.3100478 6.54193025 12.7421875 11.38671875 C15.09406501 18.44235127 14.37526368 24.88353031 11.2421875 31.57421875 C8.23041629 37.10060277 4.48811626 41.29124723 -0.2578125 45.38671875 C-0.9178125 45.05671875 -1.5778125 44.72671875 -2.2578125 44.38671875 C-0.85901586 41.2481253 0.82383735 39.06179386 3.1796875 36.57421875 C8.57129854 30.46372624 10.33795878 25.07594759 10.09375 16.97265625 C9.41357089 11.96956103 6.80062152 9.34189091 3.1796875 6.07421875 C-1.04707349 3.1479996 -4.42010574 3.27811594 -9.4453125 3.32421875 C-10.71761719 3.33324219 -11.98992187 3.34226563 -13.30078125 3.3515625 C-14.27660156 3.36316406 -15.25242187 3.37476563 -16.2578125 3.38671875 C-15.9278125 2.39671875 -15.5978125 1.40671875 -15.2578125 0.38671875 C-10.81051784 -1.83692858 -4.69996781 -1.27663485 0 0 Z " fill="#FFF8FB" transform="translate(375.2578125,156.61328125)"/>
<path d="M0 0 C8.00945568 -0.30372936 14.69065285 -0.50848663 22 3 C22.33 2.34 22.66 1.68 23 1 C23 1.99 23 2.98 23 4 C23.598125 4.04125 24.19625 4.0825 24.8125 4.125 C27 5 27 5 28.75 7.9375 C30 11 30 11 30 13 C30.66 13.33 31.32 13.66 32 14 C31.34 14 30.68 14 30 14 C30.33 14.99 30.66 15.98 31 17 C31.68706609 25.44298519 30.4057105 32.92368616 28 41 C27.34 40.34 26.68 39.68 26 39 C26.21009225 37.45932346 26.43108727 35.9197083 26.69140625 34.38671875 C27.68374678 26.71178122 28.40926065 18.44456616 24.26953125 11.61328125 C21.00934766 7.47034025 17.14114614 4.40213077 12 3 C9.40276198 2.72010747 6.81469036 2.50013136 4.20703125 2.34375 C2 2 2 2 0 0 Z " fill="#F0BAD0" transform="translate(185,145)"/>
<path d="M0 0 C4.14949326 0.55064366 6.5051044 2.84262261 9.625 5.5 C13.10402974 8.56394994 13.10402974 8.56394994 17 11 C17.74215309 19.37808373 16.5849127 26.78479527 12 34 C9.828125 34.8359375 9.828125 34.8359375 8 35 C8.32484375 34.21689453 8.32484375 34.21689453 8.65625 33.41796875 C11.15752548 26.8058007 12.56405308 19.86904619 10.34375 12.95703125 C8.21302481 8.79660664 5.06471294 6.07903408 1.390625 3.26171875 C0.93171875 2.84535156 0.4728125 2.42898437 0 2 C0 1.34 0 0.68 0 0 Z " fill="#EDB6CB" transform="translate(377,156)"/>
<path d="M0 0 C0.87785156 -0.00257813 1.75570313 -0.00515625 2.66015625 -0.0078125 C4.9375 0.125 4.9375 0.125 6.9375 1.125 C6.591656 4.23759604 6.06370033 5.95372813 4.1875 8.5 C1.9375 10.125 1.9375 10.125 -0.5 10.125 C-3.63403398 8.90196235 -5.68272294 7.50477706 -8.0625 5.125 C-8.0625 3.805 -8.0625 2.485 -8.0625 1.125 C-5.09900719 0.13716906 -3.0912337 -0.00910525 0 0 Z " fill="#55310A" transform="translate(263.0625,182.875)"/>
<path d="M0 0 C0.66 0 1.32 0 2 0 C3.11165232 4.4378561 3.11527763 8.76956386 3.0625 13.3125 C3.05798828 14.05306641 3.05347656 14.79363281 3.04882812 15.55664062 C3.03712175 17.37112899 3.01918898 19.18557534 3 21 C1.02 21 -0.96 21 -3 21 C-2.58169634 13.77875787 -2.04538889 6.95432222 0 0 Z " fill="#F5F2F0" transform="translate(243,279)"/>
<path d="M0 0 C0.66 0.33 1.32 0.66 2 1 C1 4 1 4 -0.71484375 5.11914062 C-1.44832031 5.46138672 -2.18179687 5.80363281 -2.9375 6.15625 C-3.75089844 6.53910156 -4.56429688 6.92195312 -5.40234375 7.31640625 C-6.25957031 7.70699219 -7.11679687 8.09757813 -8 8.5 C-9.23943359 9.08587891 -9.23943359 9.08587891 -10.50390625 9.68359375 C-15.8936356 12.18867922 -21.32077138 14.2509622 -27 16 C-27.33 15.01 -27.66 14.02 -28 13 C-27.40050537 12.74831055 -26.80101074 12.49662109 -26.18334961 12.23730469 C-23.4327797 11.07944927 -20.68514356 9.91478179 -17.9375 8.75 C-16.99455078 8.35425781 -16.05160156 7.95851562 -15.08007812 7.55078125 C-10.89195822 5.77046547 -6.84331333 3.99168335 -2.94140625 1.640625 C-1.97074219 1.09921875 -1.00007813 0.5578125 0 0 Z " fill="#603615" transform="translate(361,214)"/>
<path d="M0 0 C-0.33 0.66 -0.66 1.32 -1 2 C-1.82242188 1.97679687 -2.64484375 1.95359375 -3.4921875 1.9296875 C-10.61171361 1.81459123 -17.09154367 2.25339253 -24 4 C-23.67 3.01 -23.34 2.02 -23 1 C-15.92523346 -2.53738327 -7.14272238 -4.18883953 0 0 Z " fill="#5B3612" transform="translate(158,156)"/>
<path d="M0 0 C0.66 0 1.32 0 2 0 C5.47990548 5.91031565 4.61113084 13.23146856 3 19.6875 C2.67 20.780625 2.34 21.87375 2 23 C1.01 23 0.02 23 -1 23 C-0.835 21.989375 -0.67 20.97875 -0.5 19.9375 C0.34762407 13.33558292 0.07784918 6.6431304 0 0 Z " fill="#64411E" transform="translate(215,159)"/>
<path d="M0 0 C0.99 0 1.98 0 3 0 C1.91884632 2.43259577 0.8409533 4.17956886 -0.9375 6.1875 C-4.76766245 11.4104488 -6.1834896 17.63121889 -7 24 C-7.33 24 -7.66 24 -8 24 C-8.67900421 15.86452363 -8.58111995 10.31213443 -3.5078125 3.70703125 C-2.38158435 2.43200094 -1.20293228 1.20293228 0 0 Z " fill="#59340F" transform="translate(304,148)"/>
<path d="M0 0 C3.3040711 3.51227284 3.71191611 7.13378205 4.1875 11.75 C4.26935547 12.44738281 4.35121094 13.14476562 4.43554688 13.86328125 C4.63477133 15.57426776 4.81889929 17.28700037 5 19 C4.01 19.33 3.02 19.66 2 20 C-0.07965362 13.24112575 -0.21133202 7.04440079 0 0 Z " fill="#694525" transform="translate(295,162)"/>
<path d="M0 0 C2 2 2 2 2.265625 3.875 C2.26046875 4.57625 2.2553125 5.2775 2.25 6 C2.25515625 6.70125 2.2603125 7.4025 2.265625 8.125 C2 10 2 10 0 12 C-0.433125 10.63875 -0.433125 10.63875 -0.875 9.25 C-1.76531776 6.67797092 -2.71494413 4.38653234 -4 2 C-2.68 1.34 -1.36 0.68 0 0 Z " fill="#F8F3F4" transform="translate(362,217)"/>
<path d="M0 0 C0.33 0.66 0.66 1.32 1 2 C0.01 3.32 -0.98 4.64 -2 6 C-5.34373475 5.44271087 -8.03312999 4.64826111 -11 3 C-11 2.34 -11 1.68 -11 1 C-9.01432292 1.32552083 -7.02864583 1.65104167 -5.04296875 1.9765625 C-2.68244176 2.19577848 -2.68244176 2.19577848 0 0 Z " fill="#58310D" transform="translate(168,155)"/>
<path d="M0 0 C0.99 0 1.98 0 3 0 C2.34 4.95 1.68 9.9 1 15 C0.67 15 0.34 15 0 15 C-0.2165625 13.63875 -0.2165625 13.63875 -0.4375 12.25 C-0.88795806 9.16447382 -0.88795806 9.16447382 -1.6875 6.9375 C-2.1283644 4.20414069 -1.15923283 2.45484598 0 0 Z " fill="#6E492B" transform="translate(122,169)"/>
<path d="M0 0 C5.841744 -0.35050464 9.8531808 -0.16727335 15 3 C15 3.66 15 4.32 15 5 C11.48294042 4.34728444 8.10674923 3.48606976 4.6875 2.4375 C3.80449219 2.16808594 2.92148438 1.89867187 2.01171875 1.62109375 C1.34785156 1.41613281 0.68398437 1.21117187 0 1 C0 0.67 0 0.34 0 0 Z " fill="#55300A" transform="translate(192,143)"/>
<path d="M0 0 C1.60379341 -0.05416188 3.20811406 -0.09286638 4.8125 -0.125 C5.70582031 -0.14820313 6.59914063 -0.17140625 7.51953125 -0.1953125 C10 0 10 0 13 2 C12.67 2.66 12.34 3.32 12 4 C6.06 3.01 6.06 3.01 0 2 C0 1.34 0 0.68 0 0 Z " fill="#5B3612" transform="translate(320,143)"/>
<path d="M0 0 C1.74965358 -0.05429959 3.49979787 -0.09292823 5.25 -0.125 C6.22453125 -0.14820313 7.1990625 -0.17140625 8.203125 -0.1953125 C11.0196498 0.00137219 12.60949036 0.55431084 15 2 C14.67 2.66 14.34 3.32 14 4 C11.03 3.67 8.06 3.34 5 3 C5 2.67 5 2.34 5 2 C3.35 1.67 1.7 1.34 0 1 C0 0.67 0 0.34 0 0 Z " fill="#6F4F2F" transform="translate(143,154)"/>
<path d="M0 0 C0.33 0.99 0.66 1.98 1 3 C-2.73487777 2.5020163 -4.81237635 2.12508244 -8 0 C-5.13822943 -1.43088528 -3.06624227 -0.59991697 0 0 Z " fill="#64391A" transform="translate(169,222)"/>
<path d="M0 0 C1.0326802 2.78823655 1.04509293 3.8677274 0.0625 6.75 C-0.288125 7.4925 -0.63875 8.235 -1 9 C-1.66 8.67 -2.32 8.34 -3 8 C-2.25 2.25 -2.25 2.25 0 0 Z " fill="#58320D" transform="translate(215,181)"/>
<path d="M0 0 C1.79093191 -0.08086147 3.58289628 -0.13912702 5.375 -0.1875 C6.87160156 -0.23970703 6.87160156 -0.23970703 8.3984375 -0.29296875 C9.25695312 -0.19628906 10.11546875 -0.09960938 11 0 C11.66 0.99 12.32 1.98 13 3 C10.0845524 3 7.65845519 2.59136731 4.8125 2 C3.91144531 1.814375 3.01039063 1.62875 2.08203125 1.4375 C1.39496094 1.293125 0.70789063 1.14875 0 1 C0 0.67 0 0.34 0 0 Z " fill="#FDF0F6" transform="translate(389,83)"/>
<path d="M0 0 C1.65 0 3.3 0 5 0 C4.67 1.98 4.34 3.96 4 6 C1.7522025 3.94766315 0.9977758 2.99332739 0 0 Z " fill="#E7BCC6" transform="translate(194,302)"/>
<path d="M0 0 C0.66 0.33 1.32 0.66 2 1 C1.67 1.99 1.34 2.98 1 4 C-1.5625 5.1875 -1.5625 5.1875 -4 6 C-3.6875 4.125 -3.6875 4.125 -3 2 C-2.01 1.34 -1.02 0.68 0 0 Z " fill="#613E1B" transform="translate(361,214)"/>
<path d="M0 0 C2.97 0.495 2.97 0.495 6 1 C6 1.99 6 2.98 6 4 C4.02 3.34 2.04 2.68 0 2 C0 1.34 0 0.68 0 0 Z " fill="#5E3715" transform="translate(157,156)"/>
</svg>
