<?xml version="1.0" encoding="UTF-8"?>
<svg version="1.1" xmlns="http://www.w3.org/2000/svg" width="512" height="512">
<path d="M0 0 C6.86632529 6.11472382 10.27666843 14.41564287 11.79296875 23.375 C11.87044072 25.14052798 11.90095948 26.90858456 11.890625 28.67578125 C11.88740234 29.65224609 11.88417969 30.62871094 11.88085938 31.63476562 C11.87248047 32.64216797 11.86410156 33.64957031 11.85546875 34.6875 C11.85095703 35.71423828 11.84644531 36.74097656 11.84179688 37.79882812 C11.83005059 40.32427882 11.8136244 42.84960905 11.79296875 45.375 C12.73426636 45.35143433 12.73426636 45.35143433 13.69458008 45.32739258 C27.7163385 45.02470957 41.06290232 45.40633699 54.79296875 48.375 C55.56946777 48.54128906 56.3459668 48.70757812 57.14599609 48.87890625 C84.65714883 54.98119521 111.3723335 68.12064461 131.8046875 87.66015625 C133.7769295 89.58083942 133.7769295 89.58083942 136.79296875 90.375 C137.04820312 89.65054688 137.3034375 88.92609375 137.56640625 88.1796875 C141.74670163 78.62092289 150.564862 69.80105033 160.23046875 65.9375 C169.5447967 62.97792675 177.0457035 63.98904728 185.79296875 68.375 C192.35833657 72.65100325 197.69921939 77.6842784 201.79296875 84.375 C202.20546875 85.03886719 202.61796875 85.70273438 203.04296875 86.38671875 C206.93111688 93.690497 207.32844632 102.29447974 204.9453125 110.1796875 C197.78672616 125.75871269 182.21974889 135.28126148 166.79296875 141.375 C166.92574219 142.1071875 167.05851562 142.839375 167.1953125 143.59375 C168.67068403 152.63982361 169.12922642 161.50861638 169.18725586 170.66992188 C169.32531895 176.82359126 170.28043415 181.59651043 172.84228516 187.20996094 C177.89666333 198.72054789 175.93254077 215.97163505 172.00390625 227.5625 C170.59760364 230.82875121 168.97883243 233.73458167 166.953125 236.65234375 C163.60212573 241.62806994 161.85833296 247.76901143 159.79296875 253.375 C160.41945313 253.90609375 161.0459375 254.4371875 161.69140625 254.984375 C162.50867188 255.69078125 163.3259375 256.3971875 164.16796875 257.125 C164.98007812 257.82109375 165.7921875 258.5171875 166.62890625 259.234375 C170.38334343 262.94815041 171.1165421 265.82857577 171.23046875 271.0625 C170.90596659 288.12749585 162.9821418 307.28676275 151.0078125 319.4453125 C145.69191205 324.07680248 140.90389198 326.08396278 133.8046875 325.7578125 C116.26193321 323.52799419 100.18315941 316.74489308 84.35424805 309.18286133 C83.54383057 308.80411865 82.73341309 308.42537598 81.8984375 308.03515625 C81.17809326 307.69105713 80.45774902 307.34695801 79.71557617 306.99243164 C77.61044594 306.1074216 77.61044594 306.1074216 74.79296875 307.375 C73.10721386 309.29812475 73.10721386 309.29812475 71.48046875 311.625 C68.54708332 315.52167937 65.74814183 318.52359615 61.79296875 321.375 C61.13296875 321.375 60.47296875 321.375 59.79296875 321.375 C59.84308105 321.97333145 59.89319336 322.5716629 59.94482422 323.18812561 C60.46733597 329.4336443 60.98580164 335.67948964 61.50195312 341.92553711 C61.69493214 344.25439885 61.88893152 346.58317627 62.08398438 348.91186523 C62.36468572 352.26524385 62.64167755 355.61891174 62.91796875 358.97265625 C63.00546387 360.00834244 63.09295898 361.04402863 63.18310547 362.11109924 C63.60033335 367.21938624 63.89352593 372.24972627 63.79296875 377.375 C64.37046875 377.601875 64.94796875 377.82875 65.54296875 378.0625 C69.35380649 380.28548868 71.41226539 383.23288992 72.79296875 387.375 C73.27628057 391.72480636 73.3468742 393.64188985 70.66796875 397.1875 C62.92141601 403.08161622 52.71048746 402.53521463 43.37890625 402.578125 C42.40563385 402.58382507 41.43236145 402.58952515 40.42959595 402.59539795 C38.38406444 402.60479383 36.33851817 402.61136023 34.29296875 402.61523438 C31.17030725 402.62499269 28.0482902 402.6560884 24.92578125 402.6875 C22.93099346 402.69402631 20.93620101 402.69927824 18.94140625 402.703125 C18.01315033 402.7154718 17.08489441 402.7278186 16.12850952 402.74053955 C10.96375592 402.72281844 7.14681746 402.4617869 2.79296875 399.375 C-0.81745034 395.12161928 -1.70270559 392.1656542 -1.6328125 386.640625 C-1.62507812 385.35164307 -1.61734375 384.06266113 -1.609375 382.73461914 C-1.58015115 381.36473046 -1.55019082 379.9948573 -1.51953125 378.625 C-1.50257199 377.22844981 -1.48695203 375.83188273 -1.47265625 374.43530273 C-1.3466933 364.40105918 -0.97568492 354.38122371 -0.20703125 344.375 C-4.49703125 344.375 -8.78703125 344.375 -13.20703125 344.375 C-13.53703125 346.355 -13.86703125 348.335 -14.20703125 350.375 C-14.60496595 351.72496016 -15.04218515 353.06426111 -15.52636719 354.38574219 C-15.79044373 355.11380066 -16.05452026 355.84185913 -16.32659912 356.59197998 C-16.75467865 357.74527802 -16.75467865 357.74527802 -17.19140625 358.921875 C-17.48887756 359.73311829 -17.78634888 360.54436157 -18.09283447 361.38018799 C-18.72233924 363.0923209 -19.35453569 364.80346628 -19.98925781 366.51367188 C-20.94773014 369.09990295 -21.89434628 371.69025172 -22.83984375 374.28125 C-31.01452574 396.53747405 -31.01452574 396.53747405 -35.2668457 400.10131836 C-39.41914021 401.90008283 -43.13052395 401.78564786 -47.609375 401.73828125 C-48.98060265 401.73902901 -48.98060265 401.73902901 -50.37953186 401.73979187 C-52.31529918 401.73745442 -54.25106971 401.72774531 -56.18676758 401.71118164 C-59.10331493 401.68783 -62.01893123 401.69059371 -64.93554688 401.69726562 C-96.93163004 401.65040121 -96.93163004 401.65040121 -105.20703125 393.375 C-106.58504638 385.7959168 -103.81746141 379.38701109 -99.74690247 373.13090515 C-98.0758035 370.1401419 -97.24641924 367.45710326 -96.40112305 364.13989258 C-96.08020691 362.89305695 -95.75929077 361.64622131 -95.4286499 360.36160278 C-95.08725684 358.99772726 -94.74647463 357.63369871 -94.40625 356.26953125 C-94.04540585 354.84246361 -93.68433746 353.41545265 -93.32305908 351.98849487 C-92.36258189 348.17783427 -91.41673659 344.36369669 -90.47648239 340.54800034 C-89.89549434 338.19140647 -89.31125667 335.83563384 -88.72683716 333.47988892 C-82.66144125 308.95676313 -77.76859421 284.53885086 -75.20703125 259.375 C-76.20428223 259.11525391 -77.2015332 258.85550781 -78.22900391 258.58789062 C-103.17267035 252.04732529 -127.24758833 241.54652813 -148.20703125 226.375 C-148.76616211 225.97152344 -149.32529297 225.56804687 -149.90136719 225.15234375 C-156.70242338 220.15362931 -163.02435202 215.28839616 -164.7421875 206.69921875 C-165.58217327 195.16850504 -159.41323791 185.5241904 -152.26953125 177 C-143.57361446 167.01963478 -134.06136252 157.55636558 -123.99365234 148.96777344 C-122.22736201 147.39312488 -120.62201175 145.73953124 -119.01953125 144 C-115.82205345 140.74330964 -112.2514738 138.10609066 -108.51953125 135.5 C-107.96048096 135.10635254 -107.40143066 134.71270508 -106.82543945 134.30712891 C-104.02094734 132.39434516 -101.59524563 130.8861175 -98.20703125 130.375 C-98.11421875 129.01375 -98.11421875 129.01375 -98.01953125 127.625 C-94.85220627 105.80565017 -76.68713191 84.97287904 -59.93359375 71.7109375 C-52.74987577 66.375 -52.74987577 66.375 -50.20703125 66.375 C-52.5542594 62.14998934 -55.042739 58.09618117 -57.70703125 54.0625 C-64.38999947 43.65083706 -67.71154996 33.39410259 -65.8515625 21.0078125 C-63.67983249 12.816455 -57.95713421 6.75452962 -50.92578125 2.29296875 C-35.68654733 -5.71437208 -15.06046913 -11.08877019 0 0 Z M-101.33203125 194.875 C-102.32009766 195.37580078 -102.32009766 195.37580078 -103.328125 195.88671875 C-104.95624296 196.71257568 -106.58187609 197.54332791 -108.20703125 198.375 C-105.38175589 199.94397703 -103.08861077 200.68684205 -99.87890625 201.0078125 C-99.0796875 201.09160156 -98.28046875 201.17539062 -97.45703125 201.26171875 C-96.21953125 201.37966797 -96.21953125 201.37966797 -94.95703125 201.5 C-93.69632813 201.62955078 -93.69632813 201.62955078 -92.41015625 201.76171875 C-90.34314902 201.97311722 -88.27517197 202.17499462 -86.20703125 202.375 C-88.18703125 198.745 -90.16703125 195.115 -92.20703125 191.375 C-95.57734612 191.375 -98.38535401 193.36373385 -101.33203125 194.875 Z " fill="#4F2901" transform="translate(235.20703125,57.625)"/>
<path d="M0 0 C18.27891795 16.00370562 35.85806415 39.02478018 38.65332031 64.13549805 C38.785671 67.47735288 38.77889538 70.79380587 38.65332031 74.13549805 C38.21632813 73.54897461 37.77933594 72.96245117 37.32910156 72.3581543 C31.7507763 64.66418505 31.7507763 64.66418505 23.65332031 60.13549805 C14.53374297 59.10503733 8.72150436 60.46238905 1.41113281 65.76049805 C-10.21640859 75.1564911 -15.40494786 88.94788761 -17.09667969 103.51049805 C-17.17917969 104.70674805 -17.26167969 105.90299805 -17.34667969 107.13549805 C-18.02730469 106.45487305 -18.70792969 105.77424805 -19.40917969 105.07299805 C-20.10333984 104.38657227 -20.10333984 104.38657227 -20.81152344 103.6862793 C-21.84563624 102.64164117 -22.85861045 101.57569843 -23.85058594 100.4909668 C-35.80236672 87.73280081 -53.84155304 80.35414517 -71.19433594 79.7019043 C-73.59916979 79.67844573 -76.00431632 79.67779046 -78.40917969 79.69799805 C-79.67979248 79.70557129 -80.95040527 79.71314453 -82.25952148 79.72094727 C-104.30785105 80.10376472 -129.29791217 85.9529908 -145.34667969 102.13549805 C-148.6302008 105.94861934 -148.93093273 109.56164638 -148.74902344 114.4440918 C-147.7639125 121.03381449 -144.85743493 126.45177087 -139.53417969 130.51049805 C-126.99430018 137.69353582 -112.52887794 137.79890868 -98.46704102 138.10131836 C-97.20400146 138.15126953 -95.94096191 138.2012207 -94.63964844 138.25268555 C-93.50035889 138.27959473 -92.36106934 138.30650391 -91.18725586 138.33422852 C-88.34667969 139.13549805 -88.34667969 139.13549805 -86.51586914 141.94067383 C-81.32111624 156.1353985 -84.19839339 169.85137688 -90.34667969 183.13549805 C-91.00133875 184.4747679 -91.66145049 185.81160863 -92.34667969 187.13549805 C-121.29596249 180.76134403 -159.11612532 164.36605242 -180.34667969 143.13549805 C-181.02329126 141.23643699 -181.64062577 139.31594164 -182.22167969 137.38549805 C-184.66970372 129.90741005 -187.25871451 125.25646892 -194.06933594 121.19799805 C-196.50690403 120.06074501 -198.78640413 119.52285296 -201.40917969 118.94799805 C-206.9385981 117.48257437 -209.01574805 114.31917035 -211.97167969 109.6081543 C-212.42542969 108.79217773 -212.87917969 107.97620117 -213.34667969 107.13549805 C-213.93449219 106.08168945 -213.93449219 106.08168945 -214.53417969 105.0065918 C-215.34667969 103.13549805 -215.34667969 103.13549805 -215.34667969 100.13549805 C-213.14355469 98.62768555 -213.14355469 98.62768555 -210.09667969 97.01049805 C-198.66405634 90.60498567 -187.75671239 83.4583503 -182.34667969 71.13549805 C-177.34667969 73.13549805 -177.34667969 73.13549805 -175.15917969 74.26049805 C-170.29351435 75.7742606 -164.79781262 75.82305831 -159.88183594 74.4440918 C-156.37962746 74.01778291 -154.76967041 75.20840768 -151.78417969 77.01049805 C-143.75889179 81.79673078 -136.65560666 82.33498205 -127.49121094 80.2644043 C-111.24973647 75.74852991 -97.82933925 67.56194494 -89.34667969 52.57299805 C-86.81466005 47.485128 -84.90830944 42.80285281 -84.34667969 37.13549805 C-84.22486328 35.95407227 -84.22486328 35.95407227 -84.10058594 34.7487793 C-83.59771546 25.04185532 -87.113201 16.54194892 -93.29199219 9.14331055 C-101.18512974 1.43024458 -110.94296297 -1.43097094 -121.80419922 -1.58178711 C-141.71317484 -0.95740543 -164.42517896 10.08415949 -178.34667969 24.13549805 C-183.22103566 29.63342028 -187.19598013 35.50037998 -190.34667969 42.13549805 C-191.16265625 41.80936523 -191.97863281 41.48323242 -192.81933594 41.1472168 C-196.95099449 39.96216745 -200.51940423 39.87635284 -204.78417969 39.94799805 C-205.50927734 39.94864258 -206.234375 39.94928711 -206.98144531 39.94995117 C-211.52686112 39.98670656 -215.86197745 40.39691072 -220.34667969 41.13549805 C-214.47656937 15.69835333 -195.97908656 -5.20712541 -174.34667969 -18.86450195 C-162.3880129 -26.22782935 -149.82367378 -31.02996322 -136.34667969 -34.86450195 C-135.10402344 -35.22672852 -133.86136719 -35.58895508 -132.58105469 -35.9621582 C-87.38118595 -46.66477029 -34.47149039 -29.64771355 0 0 Z " fill="#FDFDFD" transform="translate(361.3466796875,144.864501953125)"/>
<path d="M0 0 C2.2275 1.423125 2.2275 1.423125 4.5 2.875 C6.07897656 3.8764992 7.6579762 4.87796213 9.23730469 5.87890625 C11.06043373 7.03843652 12.87774906 8.2067689 14.6953125 9.375 C29.38180619 18.7636007 44.30153396 26.30970169 60.4375 32.875 C61.13149902 33.15808014 61.82549805 33.44116028 62.54052734 33.7328186 C70.25290573 36.86534543 77.94828679 39.83578002 86 42 C84.63654311 45.81086201 82.88163266 48.79784676 80.5 52.0625 C74.76820731 59.94371495 73.86930952 66.33310572 75 76 C77.72293246 82.76074105 83.93102702 86.43953585 90 90 C84.36263939 96.84536646 75.41908211 100.68012356 67 103 C63.7890625 103.1953125 63.7890625 103.1953125 60.625 103.125 C59.56539063 103.10695313 58.50578125 103.08890625 57.4140625 103.0703125 C56.61742187 103.04710937 55.82078125 103.02390625 55 103 C55 104.32 55 105.64 55 107 C50.71 107 46.42 107 42 107 C42.495 105.02 42.495 105.02 43 103 C42.28046143 102.89002686 41.56092285 102.78005371 40.81958008 102.66674805 C37.78566358 101.94931572 35.59511354 100.86701444 32.88671875 99.33203125 C31.4030481 98.4968396 31.4030481 98.4968396 29.8894043 97.64477539 C28.83277588 97.04012451 27.77614746 96.43547363 26.6875 95.8125 C25.03971558 94.87942017 25.03971558 94.87942017 23.35864258 93.92749023 C12.79934897 87.93010082 2.30792291 81.81534386 -8.16259766 75.66455078 C-13.10263443 72.76649789 -18.05159229 69.88372912 -23 67 C-21.4387866 52.59507032 -19.26745075 38.30936348 -17 24 C-15.35 24 -13.7 24 -12 24 C-11.85691406 23.12601562 -11.85691406 23.12601562 -11.7109375 22.234375 C-10.84654218 19.517704 -9.64459482 18.24403033 -7.625 16.25 C-6.71621094 15.32960938 -6.71621094 15.32960938 -5.7890625 14.390625 C-4 13 -4 13 -1 13 C-0.67 8.71 -0.34 4.42 0 0 Z " fill="#FEA9CB" transform="translate(181,292)"/>
<path d="M0 0 C7.12353298 4.65511477 10.69818902 10.85513039 13 19 C14.01988294 30.92070967 12.80111206 41.18792561 5.7265625 51.015625 C2.40797778 54.82974499 -1.12993424 57.51995341 -6.1953125 58.3671875 C-10.06591436 58.48856526 -13.56585967 57.92651575 -17.3125 57 C-27.28930702 54.64436501 -34.34640834 55.59403649 -43.32421875 60.53125 C-49.59076373 63.97098856 -55.96213807 64.79739322 -63 64 C-66.625 62.5 -66.625 62.5 -69 61 C-69 60.01 -69 59.02 -69 58 C-68.31292969 57.68546875 -67.62585938 57.3709375 -66.91796875 57.046875 C-66.01691406 56.61890625 -65.11585938 56.1909375 -64.1875 55.75 C-63.29417969 55.33234375 -62.40085938 54.9146875 -61.48046875 54.484375 C-58.83346437 52.90034088 -57.50935198 51.67821042 -56 49 C-56.04649703 44.6542316 -56.04649703 44.6542316 -58 41 C-63.03761016 40.68281714 -68.09961113 40.69322963 -73 42 C-77.00390625 37.99609375 -77.00390625 37.99609375 -78 36 C-77.699298 26.0883995 -70.15338817 18.79641285 -63.3125 12.25 C-54.79625158 4.96549513 -44.96812199 -0.51471393 -34 -3 C-33.07417114 -3.25475098 -33.07417114 -3.25475098 -32.12963867 -3.51464844 C-21.98710464 -5.82616485 -9.07062929 -5.13102147 0 0 Z " fill="#FDFDFC" transform="translate(252,154)"/>
<path d="M0 0 C6.59301475 2.63907097 10.5682839 6.53047316 14.1875 12.5625 C20.9702292 29.89614129 14.32109398 49.37301099 7.3125 65.4375 C3.37959416 74.12154134 -1.01469783 82.37977832 -6.33984375 90.30078125 C-7.83551997 92.48385688 -7.83551997 92.48385688 -8.6875 95.4375 C6.87961472 81.4770829 17.18170368 52.28581653 18.75390625 31.8515625 C19.11393498 23.44691222 18.01525745 16.09096741 14.3125 8.4375 C17.5568953 9.84221621 19.54767149 11.47486529 21.875 14.125 C22.74318359 15.08986328 22.74318359 15.08986328 23.62890625 16.07421875 C28.08704677 22.33216542 28.81141473 27.62459827 28.6875 35.125 C28.67734863 36.01348633 28.66719727 36.90197266 28.65673828 37.81738281 C28.49425801 44.72720271 27.58844175 50.88659541 25.3125 57.4375 C24.92191406 58.62988281 24.53132813 59.82226562 24.12890625 61.05078125 C18.61085892 77.20165794 10.81220025 97.28656813 -5.0625 105.5 C-11.58857449 108.4108364 -17.86349546 109.84485458 -24.91015625 107.7890625 C-29.99732831 105.49542423 -33.5892366 102.05809351 -36.6875 97.4375 C-38.42826065 92.21521805 -39.3744642 86.82746776 -36.81445312 81.68310547 C-34.82146391 78.43355231 -32.58442342 75.3652897 -30.36328125 72.26953125 C-19.1665489 56.60519576 -14.20898258 39.03967801 -17.23046875 20.01953125 C-18.50316831 14.80919767 -20.19505961 11.55359046 -23.6875 7.4375 C-23.75 5.375 -23.75 5.375 -22.6875 3.4375 C-15.64631426 -2.88151284 -8.86356889 -2.86474464 0 0 Z " fill="#FC0073" transform="translate(296.6875,270.5625)"/>
<path d="M0 0 C9.1179096 6.54110906 14.78084301 16.02629267 16.875 27.0625 C17.86087618 39.63646182 17.08075543 56.1206011 9.2109375 66.58984375 C3.23834388 73.17366771 -1.89788913 74.45937182 -10.375 75.4375 C-14.09871409 74.92972081 -15.54585878 73.78105426 -18.125 71.0625 C-20.71361381 65.89818318 -21.65690195 61.31063194 -22.375 55.625 C-23.46844714 48.32567123 -25.33402549 43.91689321 -31.125 39.0625 C-34.96573238 35.32283953 -36.27677637 32.89411575 -36.5625 27.5 C-36.50708206 21.17311819 -33.75453537 17.06396501 -30.125 12.0625 C-29.361875 10.99 -28.59875 9.9175 -27.8125 8.8125 C-19.99778236 0.81604474 -11.09903851 -3.32971155 0 0 Z " fill="#FDFDFC" transform="translate(391.125,225.9375)"/>
<path d="M0 0 C8.71036811 5.27529336 8.71036811 5.27529336 9.90234375 8.2578125 C10.0309425 11.86886546 9.16399535 14.73015339 8.125 18.1875 C3.38819141 34.00446574 1.82758746 54.80069161 8.4609375 70.1796875 C13.62478065 79.64236454 20.37842563 83.40330417 30.1875 87.25 C44.49180432 91.06448115 61.94643819 90.43917746 76 86 C76.33 85.67 76.66 85.34 77 85 C81.76563016 84.13352179 84.62005918 86.37379169 88.42578125 88.90625 C88.94527344 89.2671875 89.46476562 89.628125 90 90 C84.36263939 96.84536646 75.41908211 100.68012356 67 103 C63.7890625 103.1953125 63.7890625 103.1953125 60.625 103.125 C59.56539063 103.10695313 58.50578125 103.08890625 57.4140625 103.0703125 C56.61742187 103.04710937 55.82078125 103.02390625 55 103 C55 104.32 55 105.64 55 107 C50.71 107 46.42 107 42 107 C42.495 105.02 42.495 105.02 43 103 C42.28046143 102.89002686 41.56092285 102.78005371 40.81958008 102.66674805 C37.78566358 101.94931572 35.59511354 100.86701444 32.88671875 99.33203125 C31.4030481 98.4968396 31.4030481 98.4968396 29.8894043 97.64477539 C28.83277588 97.04012451 27.77614746 96.43547363 26.6875 95.8125 C25.03971558 94.87942017 25.03971558 94.87942017 23.35864258 93.92749023 C12.79934897 87.93010082 2.30792291 81.81534386 -8.16259766 75.66455078 C-13.10263443 72.76649789 -18.05159229 69.88372912 -23 67 C-21.4387866 52.59507032 -19.26745075 38.30936348 -17 24 C-15.35 24 -13.7 24 -12 24 C-11.85691406 23.12601562 -11.85691406 23.12601562 -11.7109375 22.234375 C-10.84654218 19.517704 -9.64459482 18.24403033 -7.625 16.25 C-6.71621094 15.32960938 -6.71621094 15.32960938 -5.7890625 14.390625 C-4 13 -4 13 -1 13 C-0.67 8.71 -0.34 4.42 0 0 Z " fill="#FCFBFB" transform="translate(181,292)"/>
<path d="M0 0 C2.64 0.33 5.28 0.66 8 1 C8.17015625 1.86882812 8.3403125 2.73765625 8.515625 3.6328125 C10.33915447 13.72939181 10.33915447 13.72939181 16.8125 21.23828125 C18.50212042 22.22957065 20.24786488 23.12393244 22 24 C22.11454288 27.15708801 21.91157466 29.96470275 21 33 C19.43359375 34.59375 19.43359375 34.59375 17.4375 36.0625 C12.40194744 39.84140843 10.41946025 44.68740934 8.14233398 50.40258789 C6.4292193 54.33923639 5.12550634 56.35563101 1.05078125 57.98046875 C-1.97226682 58.86787287 -4.65063318 59.28953422 -7.8125 59.0625 C-11.50012774 58.93320817 -14.7015459 59.23897043 -18.3125 60 C-24.55028643 61.26900526 -30.65919915 61.18145376 -37 61 C-36.27595226 56.95295419 -35.16553713 53.10929598 -33.9375 49.1875 C-33.57527344 48.02605469 -33.21304687 46.86460937 -32.83984375 45.66796875 C-32.56269531 44.78753906 -32.28554688 43.90710938 -32 43 C-29.49677775 44.18517741 -27.62114507 45.30493201 -25.4375 47.0625 C-21.59798521 50.11442202 -18.15523416 50.4017087 -13.4140625 50.34765625 C-8.0909604 49.58106064 -4.32698599 46.32698599 -0.625 42.625 C3.13986921 36.5432882 3.35508347 30.34005835 3.3125 23.375 C3.31056641 22.06354004 3.31056641 22.06354004 3.30859375 20.72558594 C3.20208499 13.48565311 2.12864158 6.94342609 0 0 Z " fill="#FAF9F8" transform="translate(359,280)"/>
<path d="M0 0 C5 2 5 2 7.1875 3.125 C12.08923561 4.64998441 17.54379212 4.63312191 22.515625 3.3515625 C25.67348784 2.90469512 27.00856847 3.61899639 29.75 5.1875 C30.91789062 5.82751953 30.91789062 5.82751953 32.109375 6.48046875 C34.34876383 8.28030812 34.52829486 9.23558846 35 12 C35.53625 12.763125 36.0725 13.52625 36.625 14.3125 C38 17 38 17 38.125 20.5625 C37 24 37 24 34.1875 26.4375 C27.0728953 29.79152793 19.0908229 28.58449088 11.8125 26.375 C3.55551525 23.30564965 -2.76427659 19.09356075 -8 12 C-7.59007812 11.46890625 -7.18015625 10.9378125 -6.7578125 10.390625 C-6.21898437 9.68421875 -5.68015625 8.9778125 -5.125 8.25 C-4.59132812 7.55390625 -4.05765625 6.8578125 -3.5078125 6.140625 C-2.10761086 4.15277397 -1.02144735 2.20156614 0 0 Z " fill="#FDAACB" transform="translate(179,216)"/>
<path d="M0 0 C2.64 0.33 5.28 0.66 8 1 C8.17015625 1.86882812 8.3403125 2.73765625 8.515625 3.6328125 C10.33915447 13.72939181 10.33915447 13.72939181 16.8125 21.23828125 C18.50212042 22.22957065 20.24786488 23.12393244 22 24 C21.67 26.31 21.34 28.62 21 31 C16.95718521 31.16845062 13.60152172 31.00365948 9.6875 29.9375 C6.20599947 28.62457897 6.20599947 28.62457897 4 30 C3.96261719 28.92363281 3.92523438 27.84726562 3.88671875 26.73828125 C3.49398876 17.47347219 2.48097431 8.97207692 0 0 Z " fill="#F7A5C3" transform="translate(359,280)"/>
<path d="M0 0 C0.33 0 0.66 0 1 0 C2.50967815 26.20130304 -7.80422048 55.90550336 -25 76 C-25.66 76 -26.32 76 -27 76 C-26.43726896 71.98965096 -25.22963818 69.5030074 -22.9375 66.1875 C-10.94771445 47.79825836 -3.21824136 28.00040904 -2.29956055 5.97265625 C-1.9515715 3.68109022 -1.12497072 2.01295737 0 0 Z " fill="#5F230B" transform="translate(315,290)"/>
<path d="M0 0 C9.27634774 1.72948856 16.6053038 10.90902545 22.6875 17.6875 C24.0078125 20.0234375 24.0078125 20.0234375 24.6875 21.6875 C20.6875 21.6875 20.6875 21.6875 19.01171875 20.18359375 C18.47160156 19.50425781 17.93148437 18.82492188 17.375 18.125 C14.98987937 15.23720878 12.58124266 12.46742128 9.9375 9.8125 C9.10992187 8.98105469 9.10992187 8.98105469 8.265625 8.1328125 C5.7037452 5.78653645 4.12423988 4.72315224 0.625 4.4375 C-2.43476736 4.38003586 -2.43476736 4.38003586 -4.3125 6.6875 C-4.89692963 9.55987733 -4.89692963 9.55987733 -4.3125 12.6875 C-1.87499975 15.37517578 -1.87499975 15.37517578 0.6875 17.6875 C0.6875 18.6775 0.6875 19.6675 0.6875 20.6875 C0.12160156 20.95304687 -0.44429687 21.21859375 -1.02734375 21.4921875 C-1.76082031 21.84539062 -2.49429688 22.19859375 -3.25 22.5625 C-3.98089844 22.91054687 -4.71179688 23.25859375 -5.46484375 23.6171875 C-7.47582459 24.5559977 -7.47582459 24.5559977 -8.3125 26.6875 C-9.3025 26.6875 -10.2925 26.6875 -11.3125 26.6875 C-9.96228174 22.26860387 -8.05134332 20.34404657 -4.3125 17.6875 C-4.9725 17.006875 -5.6325 16.32625 -6.3125 15.625 C-8.83180235 11.92477467 -9.0191341 10.0843344 -8.3125 5.6875 C-5.79631331 2.10384018 -4.29942201 0.89233287 0 0 Z " fill="#EDEAE6" transform="translate(150.3125,191.3125)"/>
<path d="M0 0 C0.495 0.99 0.495 0.99 1 2 C0.36835938 2.13535156 -0.26328125 2.27070313 -0.9140625 2.41015625 C-18.77662961 6.70849733 -32.1251889 16.37107816 -43 31 C-44.28062485 32.7074998 -45.60507941 34.38452728 -47 36 C-47.66 36 -48.32 36 -49 36 C-47.67587631 31.0585775 -45.48802475 27.57505376 -42.1875 23.75 C-41.70394043 23.18788818 -41.22038086 22.62577637 -40.72216797 22.04663086 C-32.89249157 13.23668397 -12.38816615 -5.50585162 0 0 Z " fill="#5F3C18" transform="translate(221,149)"/>
<path d="M0 0 C4.17187726 0.49416314 5.87297679 2.67365874 8.5625 5.75 C9.32691406 6.61109375 10.09132813 7.4721875 10.87890625 8.359375 C13.47430729 11.590482 15.73196392 14.43007438 16.4375 18.5625 C16 21 16 21 14.4375 23.3125 C11.11272628 25.61426642 8.96808477 25.42515194 5 25 C2.5625 24 2.5625 24 1 23 C0.071875 23.99 0.071875 23.99 -0.875 25 C-3 27 -3 27 -5 27 C-4.42437172 23.66135596 -3.40936384 22.30897368 -1 20 C-0.67 19.01 -0.34 18.02 0 17 C2.27071461 18.01790655 3.80784632 18.77442829 5.4375 20.6875 C6.2109375 21.3371875 6.2109375 21.3371875 7 22 C9.65466049 21.76956136 9.65466049 21.76956136 12 21 C11.52918354 16.11349585 10.28269742 13.54274695 7.125 9.8125 C6.42632812 8.97332031 5.72765625 8.13414062 5.0078125 7.26953125 C3.0973391 5.04532065 3.0973391 5.04532065 1.2421875 3.32421875 C0 2 0 2 0 0 Z " fill="#EDE9E5" transform="translate(379,319)"/>
<path d="M0 0 C5.65611463 -0.56561146 9.22642128 1.28608722 14 4 C14 5.32 14 6.64 14 8 C11.41198827 10.14435258 9.81917778 11 6.4375 11 C3.12808862 9.64229277 1.85923256 8.02986047 0 5 C-0.25 2.1875 -0.25 2.1875 0 0 Z " fill="#56310B" transform="translate(315,215)"/>
<path d="M0 0 C0.33 0 0.66 0 1 0 C1.15855469 0.66386719 1.31710937 1.32773437 1.48046875 2.01171875 C2.95195002 7.58058431 4.18135445 11.44338067 9 15 C11.67790896 15.87238858 11.67790896 15.87238858 14 16 C13.34 17.32 12.68 18.64 12 20 C6.38425434 16.83214347 2.09586151 14.03084679 -0.4921875 7.96875 C-1.23343022 5.09500899 -0.84242992 2.80809972 0 0 Z " fill="#694324" transform="translate(369,285)"/>
<path d="M0 0 C0.33 0 0.66 0 1 0 C1 5.61 1 11.22 1 17 C-2.40077605 12.46563193 -2.40077605 12.46563193 -2.3125 8.5 C-2.30863281 7.7471875 -2.30476563 6.994375 -2.30078125 6.21875 C-1.97144914 3.78939106 -1.20809315 2.11777285 0 0 Z " fill="#731F18" transform="translate(315,290)"/>
<path d="M0 0 C2 2 2 2 2.1953125 4.3828125 C2.17210937 5.28773438 2.14890625 6.19265625 2.125 7.125 C2.10695313 8.03507812 2.08890625 8.94515625 2.0703125 9.8828125 C2.03550781 10.93082031 2.03550781 10.93082031 2 12 C-0.25900493 9.74099507 -0.34458029 9.05816925 -0.6875 6 C-0.77386719 5.29875 -0.86023438 4.5975 -0.94921875 3.875 C-1 2 -1 2 0 0 Z " fill="#5F240B" transform="translate(313,284)"/>
<path d="M0 0 C2.475 0.99 2.475 0.99 5 2 C4.443125 2.268125 3.88625 2.53625 3.3125 2.8125 C0.80287477 4.10122647 -1.59334236 5.52926478 -4 7 C-4 4 -4 4 -2 1.8125 C-1.34 1.214375 -0.68 0.61625 0 0 Z " fill="#E0DAD3" transform="translate(147,192)"/>
<path d="M0 0 C0.66 0.33 1.32 0.66 2 1 C0.49776416 5.20626034 -2.28550034 6.73900021 -6 9 C-4.47291037 5.56404834 -2.40072955 2.88087546 0 0 Z " fill="#593510" transform="translate(191,161)"/>
<path d="M0 0 C1.9375 0.6875 1.9375 0.6875 2.9375 2.6875 C0.6275 3.0175 -1.6825 3.3475 -4.0625 3.6875 C-4.0625 2.6975 -4.0625 1.7075 -4.0625 0.6875 C-2.0625 -0.3125 -2.0625 -0.3125 0 0 Z " fill="#684725" transform="translate(219.0625,148.3125)"/>
<path d="M0 0 C0.33 0 0.66 0 1 0 C1.125 5.75 1.125 5.75 0 8 C-0.66 8 -1.32 8 -2 8 C-1.125 1.125 -1.125 1.125 0 0 Z " fill="#542604" transform="translate(313,310)"/>
</svg>
