<?xml version="1.0" encoding="UTF-8"?>
<svg version="1.1" xmlns="http://www.w3.org/2000/svg" width="512" height="512">
<path d="M0 0 C5.71876901 4.07882789 9.9257498 9.46924936 12.0625 16.1875 C13.72856884 32.1992984 8.69254886 43.44988218 -0.9375 56.1875 C-3.83839925 59.61993048 -6.83263531 62.93889157 -9.9375 66.1875 C-9.65777344 66.67476563 -9.37804687 67.16203125 -9.08984375 67.6640625 C-7.67951903 70.1582059 -6.30428244 72.66920335 -4.9375 75.1875 C-4.07125 76.78271484 -4.07125 76.78271484 -3.1875 78.41015625 C1.61154422 87.5841912 4.80302689 96.63963149 6.76953125 106.86328125 C8.94575903 117.9511478 13.13074368 127.94515573 17.734375 138.21533203 C25.28956846 155.11222723 28.93511838 171.16993787 23.0625 189.26953125 C18.84533942 200.07600524 12.50917809 208.33318635 4.0625 216.1875 C13.99764089 215.47784708 21.30035424 211.5504149 28.0625 204.1875 C30.35656663 200.98494238 32.26734038 197.69067557 34.0625 194.1875 C34.8978125 192.57875 34.8978125 192.57875 35.75 190.9375 C36.40712782 187.92992571 36.40712782 187.92992571 33.8125 185.125 C33.35359375 184.68027344 32.8946875 184.23554688 32.421875 183.77734375 C28.33334825 178.99564723 28.72185223 173.43420758 28.7890625 167.47265625 C29.09719562 163.77065686 29.94798726 160.83433857 31.50390625 157.48046875 C32.90437483 151.73169211 30.66225463 145.31828153 28.9609375 139.8359375 C28.54912978 138.4766683 28.13768197 137.11729002 27.7265625 135.7578125 C27.08174595 133.65206808 26.43289774 131.54774009 25.77734375 129.4453125 C25.13975393 127.39128062 24.51821992 125.33290093 23.8984375 123.2734375 C23.52251465 122.0570459 23.1465918 120.8406543 22.75927734 119.58740234 C22.02479873 116.0035379 22.09758076 113.69808275 23.0625 110.1875 C25.20035908 107.72572288 26.81038524 106.45332595 30.03125 105.76953125 C32.125 105.625 32.125 105.625 36.0625 106.1875 C39.66945325 109.77902823 40.93393633 113.2295041 42.203125 118.09765625 C42.46098785 119.07163612 42.46098785 119.07163612 42.72406006 120.06529236 C43.08266743 121.42944587 43.4353056 122.79518129 43.78222656 124.16235352 C44.31267011 126.25066969 44.86170693 128.33339966 45.4140625 130.41601562 C48.0625 140.56233257 48.0625 140.56233257 48.0625 145.1875 C48.7225 145.1875 49.3825 145.1875 50.0625 145.1875 C50.08755615 144.48890869 50.1126123 143.79031738 50.13842773 143.07055664 C50.3865076 136.22051469 50.65145386 129.37132477 50.93017578 122.52246094 C51.0448481 119.63237995 51.14682279 116.7421982 51.24609375 113.8515625 C51.30883729 112.35933012 51.3725507 110.86713801 51.4375 109.375 C51.48648437 108.08980469 51.53546875 106.80460937 51.5859375 105.48046875 C52.09400984 101.9697722 52.95122497 100.01113677 55.0625 97.1875 C58.73781103 94.87730449 61.97736606 94.96563462 66.12890625 95.65625 C69.27083379 96.51948666 70.93470847 97.73731581 73.0625 100.1875 C74.29771491 105.66317733 73.85094368 110.15947142 72.84765625 115.5703125 C72.64576942 116.73625443 72.64576942 116.73625443 72.43980408 117.92575073 C72.01159598 120.38989327 71.56915585 122.85118661 71.125 125.3125 C70.68671056 127.78128153 70.25153686 130.25054327 69.82090759 132.72067261 C69.55322237 134.25192474 69.28079867 135.78235841 69.00294495 137.3117981 C68.35450394 140.97988251 67.90495469 144.46029756 68.0625 148.1875 C68.71476562 148.32285156 69.36703125 148.45820313 70.0390625 148.59765625 C75.80715844 150.01841145 79.21651651 151.57546289 82.90625 156.2734375 C87.21237677 163.40182303 86.71691089 171.14642613 86.0625 179.1875 C84.87955835 183.48238473 82.91267024 185.61455918 79.1875 188.125 C75.93226729 189.23177912 73.47462216 189.43122301 70.0625 189.1875 C70.000625 190.21875 69.93875 191.25 69.875 192.3125 C67.81027673 208.18854785 58.70389139 224.47623802 48.0625 236.1875 C47.25167969 237.09113281 46.44085938 237.99476563 45.60546875 238.92578125 C31.36147943 254.00397199 10.7761864 265.12552839 -10.1953125 266.3828125 C-21.49217471 265.8813852 -30.95745008 260.68897988 -39.9375 254.1875 C-40.9275 253.5275 -41.9175 252.8675 -42.9375 252.1875 C-42.80118164 253.60228638 -42.80118164 253.60228638 -42.66210938 255.0456543 C-42.32477244 258.55849952 -41.9895576 262.07153402 -41.65576172 265.5847168 C-41.51109931 267.10270125 -41.36560139 268.62060632 -41.21923828 270.13842773 C-41.00852144 272.32515251 -40.80085064 274.51214889 -40.59375 276.69921875 C-40.52812866 277.37337326 -40.46250732 278.04752777 -40.39489746 278.74211121 C-40.06702656 282.2373393 -39.86663806 285.67688159 -39.9375 289.1875 C-39.30585938 289.20167969 -38.67421875 289.21585937 -38.0234375 289.23046875 C-20.89158322 290.1438385 -5.18142663 298.36771155 6.35546875 310.875 C13.21462919 318.87536014 17.21913201 328.69225385 18.0625 339.1875 C18.13210938 340.033125 18.20171875 340.87875 18.2734375 341.75 C18.59552443 350.07470824 16.76998262 358.08712112 15.0625 366.1875 C15.88814453 365.94773437 15.88814453 365.94773437 16.73046875 365.703125 C23.7960062 364.14089561 30.81640581 364.46642261 37.0625 368.1875 C39.39768602 371.83719471 39.38636716 374.62872042 38.78125 378.81640625 C36.59499801 386.02866146 30.03347575 390.35261741 23.75390625 393.87109375 C11.91255747 399.66287102 -1.65055944 402.58249598 -14.72265625 399.5390625 C-18.95987615 397.68577379 -20.64591267 395.35956434 -22.3125 391.1652832 C-23.3623949 387.84294 -23.69076304 384.52094571 -24 381.0625 C-24.1587725 379.56365486 -24.3189444 378.06495733 -24.48046875 376.56640625 C-24.55700684 375.82922363 -24.63354492 375.09204102 -24.71240234 374.33251953 C-25.55552066 362.89954801 -25.55552066 362.89954801 -30.9375 353.1875 C-34.85833305 351.22708348 -39.18143349 351.64535866 -43.265625 352.90625 C-46.82337979 354.32935192 -50.30378674 355.89628746 -53.78515625 357.49609375 C-54.76355469 357.93050781 -55.74195313 358.36492187 -56.75 358.8125 C-57.62269531 359.21726562 -58.49539063 359.62203125 -59.39453125 360.0390625 C-70.9764575 363.79329218 -82.92365402 363.47166159 -94.96020508 363.39331055 C-97.89347925 363.37488391 -100.82643916 363.37280265 -103.75976562 363.37304688 C-105.64062772 363.36813611 -107.52148769 363.36230973 -109.40234375 363.35546875 C-110.27116684 363.35435593 -111.13998993 363.3532431 -112.03514099 363.35209656 C-116.44568889 363.31771738 -120.59542621 363.07161272 -124.9375 362.1875 C-125.205625 362.77015625 -125.47375 363.3528125 -125.75 363.953125 C-133.10219285 377.78685628 -149.02098291 386.42708686 -163.328125 391.35546875 C-177.28520561 395.01662413 -192.07900909 394.39599509 -204.91015625 387.46875 C-214.29272948 381.53910834 -222.40600499 373.84647141 -227.9375 364.1875 C-228.69933594 365.20070313 -228.69933594 365.20070313 -229.4765625 366.234375 C-238.15291711 377.47789071 -238.15291711 377.47789071 -244.9375 378.75 C-249.12788007 377.96430374 -251.01333295 376.24458374 -253.9375 373.1875 C-257.88204287 365.65700906 -256.44128701 355.97453909 -254.03515625 348.140625 C-249.94191706 337.12820925 -244.43246027 325.56603249 -233.921875 319.42578125 C-229.50396144 317.59269408 -226.47576031 317.79386101 -221.9375 319.1875 C-214.98215108 322.76306456 -208.76369182 327.68508561 -202.54296875 332.390625 C-197.35630093 335.96763729 -193.32759551 338.00078488 -186.9375 337.1875 C-181.08190275 334.25970137 -179.11958337 328.01845593 -176.9375 322.1875 C-175.91803882 318.09282654 -175.30240895 313.9873174 -174.734375 309.80859375 C-174.56625305 308.67470718 -174.3981311 307.54082062 -174.22491455 306.37257385 C-173.69694942 302.79210379 -173.19138833 299.2089299 -172.6875 295.625 C-172.16475417 292.00974176 -171.6374176 288.39519639 -171.10723877 284.78102112 C-170.78026022 282.54150664 -170.45844007 280.30123176 -170.14227295 278.06016541 C-169.99832092 277.05474197 -169.8543689 276.04931854 -169.70605469 275.01342773 C-169.58123718 274.1272728 -169.45641968 273.24111786 -169.32781982 272.32810974 C-168.9375 270.1875 -168.9375 270.1875 -167.9375 268.1875 C-168.77273193 268.34831055 -169.60796387 268.50912109 -170.46850586 268.67480469 C-177.08903601 269.65327702 -183.8178081 269.43238479 -190.5 269.4375 C-191.28683167 269.43817474 -192.07366333 269.43884949 -192.88433838 269.43954468 C-205.4672301 269.42240614 -217.58484775 268.74617374 -229.9375 266.1875 C-230.77812988 266.02121094 -231.61875977 265.85492188 -232.48486328 265.68359375 C-252.33722534 261.67676306 -271.15457049 254.85789388 -288.9375 245.1875 C-289.97028076 244.63594238 -289.97028076 244.63594238 -291.02392578 244.07324219 C-314.32056391 231.60221899 -314.32056391 231.60221899 -319.1875 221.625 C-320.86022166 213.95835908 -320.96632847 206.32466427 -317.33984375 199.2265625 C-313.75834792 194.0189279 -309.00063841 190.05512366 -302.9375 188.1875 C-297.06701124 187.71564038 -290.72966516 187.3509187 -285.0625 189.1875 C-282.21717306 190.09800462 -280.59274059 190.27140587 -277.6875 190.1875 C-273.9375 190.1875 -273.9375 190.1875 -270.9375 192.1875 C-270.23697539 194.850563 -270.16005182 197.42785737 -269.9375 200.1875 C-268.65939453 200.58195312 -268.65939453 200.58195312 -267.35546875 200.984375 C-263.82052032 202.22867685 -260.60462888 203.76957702 -257.25 205.4375 C-251.21110019 208.35126144 -245.08259946 210.61673257 -238.6875 212.625 C-237.86548096 212.8837793 -237.04346191 213.14255859 -236.1965332 213.40917969 C-232.94866528 214.39850204 -230.35675389 215.1875 -226.9375 215.1875 C-227.4221875 214.775 -227.906875 214.3625 -228.40625 213.9375 C-248.72565919 196.43154747 -258.50560403 176.02955181 -260.9375 149.1875 C-262.58582519 126.28264785 -255.26882561 102.04762226 -242.22265625 83.32421875 C-240.6797915 81.17460193 -240.6797915 81.17460193 -240.9375 78.1875 C-243.11996202 76.59101408 -245.24800407 75.19095231 -247.5625 73.8125 C-258.13947005 67.40890644 -267.02533 59.79475982 -270.5 47.39453125 C-272.27067673 38.46209951 -270.24312929 30.53613094 -265.46484375 22.8046875 C-256.69442231 10.90345367 -244.73928759 1.69627756 -229.9375 -0.8125 C-221.89299696 -1.55736139 -214.69506139 0.59068357 -208.1875 5.3125 C-198.8100712 13.18755905 -194.06449521 24.94827674 -189.9375 36.1875 C-188.968125 35.81238281 -187.99875 35.43726563 -187 35.05078125 C-145.68784344 19.20994299 -101.02156087 14.8729742 -58.9375 31.1875 C-58.71199463 30.30396851 -58.71199463 30.30396851 -58.48193359 29.40258789 C-57.7763292 26.68017095 -57.04462021 23.96540107 -56.3125 21.25 C-55.95865234 19.86071289 -55.95865234 19.86071289 -55.59765625 18.44335938 C-52.77514904 8.13035227 -47.51980245 -0.29392698 -38.20703125 -5.84375 C-25.42126165 -11.73229207 -11.26832158 -6.8778217 0 0 Z " fill="#4E2801" transform="translate(372.9375,59.8125)"/>
<path d="M0 0 C1.23017349 0.00214508 1.23017349 0.00214508 2.48519897 0.0043335 C16.90520693 0.06616572 30.51898905 1.53047992 44.4375 5.5 C45.2227002 5.71930176 46.00790039 5.93860352 46.81689453 6.16455078 C62.60116693 10.73846084 78.21210358 18.47007592 90.4375 29.5 C91.54738281 30.39912109 91.54738281 30.39912109 92.6796875 31.31640625 C109.14344034 44.96024295 118.34841958 64.03639868 122.0234375 84.8125 C123.92509724 95.28397701 128.05650735 104.40180574 132.37451172 114.07958984 C140.32010473 132.17159928 143.64537623 148.5979293 136.4375 167.5 C125.91098369 188.41978557 106.45022747 199.0433294 85.0625 206.25 C61.38309057 213.93720378 37.53507734 217.02247584 12.68017578 216.83618164 C9.30867666 216.81247311 5.93796857 216.81566622 2.56640625 216.82226562 C-10.26933452 216.8058379 -22.83978087 216.21442567 -35.5625 214.5 C-36.56861328 214.364729 -37.57472656 214.22945801 -38.61132812 214.09008789 C-64.79689156 210.20676283 -93.02595935 201.03378016 -112.5625 182.5 C-113.25988281 181.8915625 -113.95726562 181.283125 -114.67578125 180.65625 C-130.02579195 166.58789068 -137.73858021 144.95950633 -138.64941406 124.55273438 C-139.80511496 92.63198288 -127.44485518 65.13464069 -105.84472656 41.86083984 C-89.76950552 25.02985172 -68.89153 13.11700248 -46.75 6.25 C-46.00508301 6.01563232 -45.26016602 5.78126465 -44.49267578 5.53979492 C-29.90937324 1.27139919 -15.13151918 -0.08611167 0 0 Z " fill="#FEFEFD" transform="translate(254.5625,84.5)"/>
<path d="M0 0 C1.77298842 13.91933838 3.06415701 27.87701101 4.28710938 41.85424805 C4.51161473 44.40118343 4.7404273 46.94774297 4.97363281 49.49389648 C6.12334185 62.04758567 7.21163561 74.59627116 7.3984375 87.20703125 C7.43525131 88.48606575 7.43525131 88.48606575 7.47280884 89.79093933 C7.47695274 97.52929117 5.08516151 105.79805929 -0.26171875 111.625 C-10.48774466 119.71390139 -21.82318203 121.31120222 -34.375 121.1953125 C-35.5400708 121.1924826 -36.7051416 121.18965271 -37.90551758 121.18673706 C-41.60378562 121.17559807 -45.30180592 121.15050479 -49 121.125 C-51.51692357 121.1149621 -54.03385096 121.10583766 -56.55078125 121.09765625 C-62.70060447 121.0756793 -68.85028453 121.04226444 -75 121 C-74.34 119.68 -73.68 118.36 -73 117 C-73.7226001 116.89453857 -74.4452002 116.78907715 -75.18969727 116.68041992 C-78.27276861 115.93395829 -80.29400057 114.81290873 -82.96484375 113.11328125 C-83.9199585 112.51112793 -84.87507324 111.90897461 -85.85913086 111.28857422 C-86.87499268 110.63646973 -87.89085449 109.98436523 -88.9375 109.3125 C-91.0833109 107.94657935 -93.2291448 106.58069481 -95.375 105.21484375 C-96.468125 104.51601074 -97.56125 103.81717773 -98.6875 103.09716797 C-101.91749253 101.05223608 -105.17140149 99.05304879 -108.4375 97.06640625 C-109.4469165 96.44531982 -110.45633301 95.8242334 -111.49633789 95.18432617 C-113.42601556 93.99723883 -115.36254398 92.82120165 -117.30639648 91.6574707 C-118.17337158 91.11823975 -119.04034668 90.57900879 -119.93359375 90.0234375 C-120.69728271 89.55856934 -121.46097168 89.09370117 -122.24780273 88.61474609 C-124.55518271 86.48836861 -124.59163553 85.07998421 -125 82 C-124.8679657 79.57214355 -124.8679657 79.57214355 -124.50268555 77.01367188 C-124.36892014 76.04917114 -124.23515472 75.08467041 -124.09733582 74.09094238 C-123.94533218 73.0606189 -123.79332855 72.03029541 -123.63671875 70.96875 C-123.40865288 69.36574036 -123.40865288 69.36574036 -123.17597961 67.73034668 C-122.8529025 65.4737808 -122.52567069 63.21780639 -122.19458008 60.96240234 C-121.68957869 57.51419354 -121.20026512 54.0640206 -120.71289062 50.61328125 C-120.39676781 48.41913599 -120.0797407 46.2251208 -119.76171875 44.03125 C-119.54282234 42.48576477 -119.54282234 42.48576477 -119.31950378 40.90905762 C-119.17628189 39.94455688 -119.03306 38.98005615 -118.88549805 37.98632812 C-118.76256882 37.14203247 -118.63963959 36.29773682 -118.51298523 35.42785645 C-117.94996193 32.76317984 -117.18734377 30.45197255 -116 28 C-113.8984375 27.4609375 -113.8984375 27.4609375 -111.375 27.375 C-106.40789236 26.62022966 -104.55315477 24.93798625 -101.5625 20.9375 C-99.20468162 17.50660353 -97.67017442 14.23307675 -96.39428711 10.29907227 C-96.13111191 9.49276871 -95.86793671 8.68646515 -95.5967865 7.85572815 C-95.39984695 7.24333786 -95.20290741 6.63094757 -95 6 C-93.92149277 5.99453156 -93.92149277 5.99453156 -92.82119751 5.98895264 C-85.91247598 5.95045788 -79.00412146 5.89294504 -72.09572792 5.81609726 C-68.54736598 5.77724231 -64.99922924 5.74476177 -61.45068359 5.72900391 C-42.08154689 5.63697678 -23.34917804 4.399222 -4.31069946 0.44085693 C-2 0 -2 0 0 0 Z " fill="#FEAACB" transform="translate(325,298)"/>
<path d="M0 0 C7.37004395 5.29952993 12.86502249 12.74507502 15.5234375 21.4921875 C15.93172718 24.60844972 15.9531886 27.66541582 15.8984375 30.8046875 C15.88756104 31.64918457 15.87668457 32.49368164 15.86547852 33.36376953 C15.70829772 39.51220759 15.11662847 44.85199714 12.5234375 50.4921875 C12.059375 51.51441406 11.5953125 52.53664062 11.1171875 53.58984375 C4.6934881 66.54329418 -4.56832313 76.98344856 -18.11328125 82.58203125 C-23.35496153 84.32390662 -27.97560656 84.79779616 -33.4765625 84.4921875 C-33.7859375 83.6053125 -34.0953125 82.7184375 -34.4140625 81.8046875 C-37.27919668 77.20310836 -40.37320036 75.25579836 -45.4765625 73.4921875 C-48.03504955 73.23929814 -50.59850448 73.03368389 -53.1640625 72.8671875 C-59.80783043 72.18748406 -59.80783043 72.18748406 -62.73828125 69.140625 C-68.47806533 58.82847055 -68.81859953 47.65607675 -65.7890625 36.4296875 C-62.66818172 26.43413927 -58.31055572 18.4173225 -51.4765625 10.4921875 C-50.90421875 9.80125 -50.331875 9.1103125 -49.7421875 8.3984375 C-36.88430022 -5.88810392 -16.65185516 -10.13819573 0 0 Z " fill="#502A02" transform="translate(239.4765625,149.5078125)"/>
<path d="M0 0 C1.77298842 13.91933838 3.06415701 27.87701101 4.28710938 41.85424805 C4.51161473 44.40118343 4.7404273 46.94774297 4.97363281 49.49389648 C6.12334185 62.04758567 7.21163561 74.59627116 7.3984375 87.20703125 C7.43525131 88.48606575 7.43525131 88.48606575 7.47280884 89.79093933 C7.47695274 97.52929117 5.08516151 105.79805929 -0.26171875 111.625 C-10.48774466 119.71390139 -21.82318203 121.31120222 -34.375 121.1953125 C-35.5400708 121.1924826 -36.7051416 121.18965271 -37.90551758 121.18673706 C-41.60378562 121.17559807 -45.30180592 121.15050479 -49 121.125 C-51.51692357 121.1149621 -54.03385096 121.10583766 -56.55078125 121.09765625 C-62.70060447 121.0756793 -68.85028453 121.04226444 -75 121 C-74.34 119.68 -73.68 118.36 -73 117 C-73.7226001 116.89453857 -74.4452002 116.78907715 -75.18969727 116.68041992 C-78.27276861 115.93395829 -80.29400057 114.81290873 -82.96484375 113.11328125 C-83.9199585 112.51112793 -84.87507324 111.90897461 -85.85913086 111.28857422 C-86.87499268 110.63646973 -87.89085449 109.98436523 -88.9375 109.3125 C-91.0833109 107.94657935 -93.2291448 106.58069481 -95.375 105.21484375 C-96.468125 104.51601074 -97.56125 103.81717773 -98.6875 103.09716797 C-101.91749253 101.05223608 -105.17140149 99.05304879 -108.4375 97.06640625 C-109.4469165 96.44531982 -110.45633301 95.8242334 -111.49633789 95.18432617 C-113.42601556 93.99723883 -115.36254398 92.82120165 -117.30639648 91.6574707 C-118.17337158 91.11823975 -119.04034668 90.57900879 -119.93359375 90.0234375 C-120.69728271 89.55856934 -121.46097168 89.09370117 -122.24780273 88.61474609 C-124.55518271 86.48836861 -124.59163553 85.07998421 -125 82 C-124.8679657 79.57214355 -124.8679657 79.57214355 -124.50268555 77.01367188 C-124.36892014 76.04917114 -124.23515472 75.08467041 -124.09733582 74.09094238 C-123.94533218 73.0606189 -123.79332855 72.03029541 -123.63671875 70.96875 C-123.40865288 69.36574036 -123.40865288 69.36574036 -123.17597961 67.73034668 C-122.8529025 65.4737808 -122.52567069 63.21780639 -122.19458008 60.96240234 C-121.68957869 57.51419354 -121.20026512 54.0640206 -120.71289062 50.61328125 C-120.39676781 48.41913599 -120.0797407 46.2251208 -119.76171875 44.03125 C-119.54282234 42.48576477 -119.54282234 42.48576477 -119.31950378 40.90905762 C-119.17628189 39.94455688 -119.03306 38.98005615 -118.88549805 37.98632812 C-118.76256882 37.14203247 -118.63963959 36.29773682 -118.51298523 35.42785645 C-117.94996193 32.76317984 -117.18734377 30.45197255 -116 28 C-113.8984375 27.4609375 -113.8984375 27.4609375 -111.375 27.375 C-106.40789236 26.62022966 -104.55315477 24.93798625 -101.5625 20.9375 C-98.41011638 16.11021357 -96.45858333 11.56084895 -95 6 C-91.37 6 -87.74 6 -84 6 C-84.44730469 6.97195313 -84.89460938 7.94390625 -85.35546875 8.9453125 C-92.81734115 25.70194306 -96.41736656 41.86580619 -96.5 60.25 C-96.50636475 61.46333008 -96.51272949 62.67666016 -96.51928711 63.92675781 C-96.36142042 74.94234431 -94.39850352 84.52830696 -87 93 C-74.14687517 104.65869303 -57.30373245 103.78453657 -41.04443359 103.22241211 C-31.05663467 102.49275013 -19.24968346 99.26745229 -12 92 C-4.55933567 82.15515875 -2.46332392 72.0072475 -2.625 59.875 C-2.6391394 58.22685303 -2.6391394 58.22685303 -2.65356445 56.54541016 C-2.96725932 39.51590339 -6.79474511 22.94673807 -15.08203125 7.953125 C-16 6 -16 6 -16 3 C-2.63106796 0 -2.63106796 0 0 0 Z " fill="#FDFCFC" transform="translate(325,298)"/>
<path d="M0 0 C12.50279208 5.75862757 19.17633505 16.2035994 24.21484375 28.6015625 C27.46426181 37.58709154 28.63378872 45.90763616 28.77734375 55.4140625 C28.80405151 56.54944458 28.80405151 56.54944458 28.83129883 57.70776367 C28.82385886 62.91631269 27.80047271 66.50512979 25.46484375 71.1640625 C24.42585938 71.18984375 23.386875 71.215625 22.31640625 71.2421875 C12.5183085 71.59501781 4.39312302 72.41857026 -3.66015625 78.5390625 C-5.90114355 81.67644472 -5.97406403 83.38945555 -5.53515625 87.1640625 C-13.9648369 84.79321482 -19.52386565 77.59216299 -23.86328125 70.40625 C-31.53515783 55.52854542 -35.39345411 38.60622899 -31.8515625 21.94921875 C-30.92596779 19.5180924 -29.86876115 17.3950464 -28.53515625 15.1640625 C-28.11105469 14.37902344 -27.68695313 13.59398437 -27.25 12.78515625 C-21.47686623 3.02389665 -11.4254384 -3.76740188 0 0 Z " fill="#502B03" transform="translate(347.53515625,144.8359375)"/>
<path d="M0 0 C0.99773437 -0.00315216 1.99546875 -0.00630432 3.0234375 -0.009552 C4.65152344 -0.00651566 4.65152344 -0.00651566 6.3125 -0.00341797 C7.41851562 -0.00437469 8.52453125 -0.00533142 9.6640625 -0.00631714 C12.00781308 -0.00699913 14.35156553 -0.00514351 16.6953125 -0.00097656 C20.29691788 0.00437139 23.89839853 -0.00092093 27.5 -0.00732422 C29.77083361 -0.00666344 32.04166714 -0.00538229 34.3125 -0.00341797 C35.94058594 -0.00645432 35.94058594 -0.00645432 37.6015625 -0.009552 C38.59929687 -0.00639984 39.59703125 -0.00324768 40.625 0 C41.50800781 0.00079559 42.39101563 0.00159119 43.30078125 0.00241089 C45.3125 0.12939453 45.3125 0.12939453 46.3125 1.12939453 C46.48434098 19.89442927 42.90242045 45.77918245 30.8046875 60.78173828 C28.0600893 63.26049844 26.08427067 64.16223584 22.375 64.00439453 C15.49972434 62.04003006 12.67421561 56.98133005 9.34277344 51.0378418 C3.40878958 40.10279423 -0.27361958 28.04515023 -3.6875 16.12939453 C-4.0278125 14.97310547 -4.0278125 14.97310547 -4.375 13.79345703 C-5.56062625 9.49556187 -5.96000441 5.58029984 -5.6875 1.12939453 C-4.05995356 -0.49815191 -2.24611677 0.00202376 0 0 Z " fill="#532C06" transform="translate(267.6875,222.87060546875)"/>
<path d="M0 0 C2 3 2 3 2 6.375 C0.77826153 10.80380194 -1.20496302 12.68553799 -5 15 C-14.60783906 19.80391953 -26.07246455 20.63527462 -36.4375 17.75 C-40.40810995 16.38349138 -43.67170167 14.59769625 -47 12 C-47.61875 11.54625 -48.2375 11.0925 -48.875 10.625 C-50.71664241 7.96484985 -50.50253668 6.14085422 -50 3 C-44.793246 -3.3968692 -38.33959744 -6.39626939 -30.265625 -7.51953125 C-18.83079453 -8.478089 -9.22521427 -7.41634873 0 0 Z " fill="#FDAACB" transform="translate(391,223)"/>
<path d="M0 0 C0.754021 0.00749268 1.50804199 0.01498535 2.28491211 0.02270508 C11.26247393 0.19615177 18.5172391 1.45532872 25.6875 7.25 C27.6875 10.25 27.6875 10.25 27.6875 13.625 C26.44418849 18.13200421 24.61376751 19.99531173 20.6875 22.25 C10.85037604 27.32615503 -0.2315818 27.90129321 -10.875 25 C-16.30580957 23.07846771 -21.46699435 20.46676036 -24.3125 15.25 C-24.8125 12.8125 -24.8125 12.8125 -24.3125 10.25 C-17.77128647 2.40054376 -9.98901633 -0.12987164 0 0 Z " fill="#FEABCC" transform="translate(178.3125,220.75)"/>
<path d="M0 0 C11.49149563 -0.73349972 21.21657492 1.18645069 30.37890625 8.4375 C33.61748853 11.55902509 34.95695099 13.13901987 35.1875 17.75 C34.46318549 22.72029613 32.33161489 26.97951129 30.125 31.4375 C29.77332764 32.1480957 29.42165527 32.85869141 29.05932617 33.59082031 C27.31539889 36.95801309 26.20638945 38.86240703 23 41 C19.56390194 40.90957637 18.19361996 40.16824259 15.5859375 37.90234375 C12.69279399 34.65520533 10.87760316 31.51459122 9 27.625 C8.6596875 26.93180664 8.319375 26.23861328 7.96875 25.52441406 C4.22120327 17.68508572 0 8.76435785 0 0 Z " fill="#FC0073" transform="translate(270,242)"/>
<path d="M0 0 C4.48924425 0.76088886 5.76067088 1.97031942 8.3984375 5.5390625 C12.40719963 12.02596849 12.98600335 18.18702695 13.125 25.6875 C13.14739746 26.44329346 13.16979492 27.19908691 13.19287109 27.9777832 C13.16583004 34.52100602 11.24478673 39.81198459 6.8125 44.6875 C3.62297182 46.09464478 1.96602279 45.76244668 -1.3125 44.625 C-8.16440588 37.93244077 -10.40769123 29.82752616 -10.625 20.4375 C-10.57848889 13.60811813 -9.32088358 7.27451451 -4.8828125 1.890625 C-3.3125 0.625 -3.3125 0.625 0 0 Z " fill="#FBFAF9" transform="translate(333.3125,167.375)"/>
<path d="M0 0 C3.68782334 0.94559573 5.08851572 2.65786197 7.4375 5.625 C11.71628024 13.88747218 11.62859183 23.16995119 9.1875 32.0625 C7.28894707 37.55315073 4.70538001 42.7516109 -0.5625 45.625 C-3 46.1875 -3 46.1875 -5.5625 45.625 C-10.93228407 40.25521593 -12.80259008 35.50041926 -12.94287109 27.93603516 C-12.90606278 10.81347499 -12.90606278 10.81347499 -7.13671875 3.921875 C-4.9347502 1.8507728 -2.9317817 0.71506871 0 0 Z " fill="#FBFAF9" transform="translate(218.5625,167.375)"/>
<path d="M0 0 C7.45254345 -0.45940336 14.32740252 -0.00547715 21.5625 1.75 C22.57957031 1.98541504 22.57957031 1.98541504 23.6171875 2.22558594 C27.7712561 3.30988941 30.39387126 4.54899162 33 8 C33.58674844 12.0338955 33.35608261 14.27235293 31.5625 17.9375 C27.71096569 21.03751542 24.85303373 20.35684072 20 20 C20 23.3 20 26.6 20 30 C19.01 30.33 18.02 30.66 17 31 C17.01160156 30.39671875 17.02320313 29.7934375 17.03515625 29.171875 C17.04417969 28.37265625 17.05320312 27.5734375 17.0625 26.75 C17.07410156 25.96109375 17.08570313 25.1721875 17.09765625 24.359375 C17.00385306 22.09308998 16.63241063 20.1711105 16 18 C17.15628906 17.92652344 17.15628906 17.92652344 18.3359375 17.8515625 C19.33882813 17.77679688 20.34171875 17.70203125 21.375 17.625 C22.87160156 17.52058594 22.87160156 17.52058594 24.3984375 17.4140625 C27.15508879 17.23636036 27.15508879 17.23636036 29 15 C29.16677282 11.41656024 29.16677282 11.41656024 29 8 C22.49164956 5.4963292 16.37077159 4.36695826 9.4375 3.8125 C8.52419922 3.73064453 7.61089844 3.64878906 6.66992188 3.56445312 C4.44726687 3.36662519 2.22426445 3.17864676 0 3 C0 2.01 0 1.02 0 0 Z " fill="#E7E2DC" transform="translate(413,214)"/>
<path d="M0 0 C1.18851562 0.00902344 2.37703125 0.01804688 3.6015625 0.02734375 C4.51679688 0.03894531 5.43203125 0.05054688 6.375 0.0625 C6.60813213 3.90918016 6.61613186 4.75438706 4.125 7.9375 C1.375 10.0625 1.375 10.0625 -0.5625 10.125 C-3.4810278 8.62151598 -6.04872798 7.11180729 -8.625 5.0625 C-8.625 3.7425 -8.625 2.4225 -8.625 1.0625 C-5.74084117 -0.37957941 -3.20778472 -0.03144887 0 0 Z " fill="#57330D" transform="translate(292.625,210.9375)"/>
<path d="M0 0 C0.66 0 1.32 0 2 0 C1.3902439 6.46341463 1.3902439 6.46341463 -0.25 8.71875 C-2.52988381 10.38795064 -3.8935396 10.30897654 -6.6875 10.1875 C-8.8221875 10.0946875 -8.8221875 10.0946875 -11 10 C-11 13.3 -11 16.6 -11 20 C-11.99 20.33 -12.98 20.66 -14 21 C-13.98839844 20.39671875 -13.97679687 19.7934375 -13.96484375 19.171875 C-13.95582031 18.37265625 -13.94679688 17.5734375 -13.9375 16.75 C-13.92589844 15.96109375 -13.91429687 15.1721875 -13.90234375 14.359375 C-13.99614694 12.09308998 -14.36758937 10.1711105 -15 8 C-13.86111328 7.96132812 -13.86111328 7.96132812 -12.69921875 7.921875 C-11.20841797 7.83679688 -11.20841797 7.83679688 -9.6875 7.75 C-8.70136719 7.70359375 -7.71523438 7.6571875 -6.69921875 7.609375 C-3.90019411 7.23718168 -3.90019411 7.23718168 -2.20703125 5.140625 C-0.87065296 2.92946953 -0.87065296 2.92946953 0 0 Z " fill="#F8F7F5" transform="translate(444,224)"/>
</svg>
