<?xml version="1.0" encoding="UTF-8"?>
<svg version="1.1" xmlns="http://www.w3.org/2000/svg" width="512" height="512">
<path d="M0 0 C12.20800574 10.60382785 24.07152763 24.6096545 29.4453125 40.0625 C29.4453125 41.0525 29.4453125 42.0425 29.4453125 43.0625 C30.4971875 42.381875 31.5490625 41.70125 32.6328125 41 C35.19162632 39.5444804 36.24351314 39.0625 39.2578125 39.0625 C41.96173444 40.2985786 42.26811184 41.42045688 43.4453125 44.0625 C43.99960937 43.49660156 44.55390625 42.93070312 45.125 42.34765625 C45.84945313 41.61417969 46.57390625 40.88070312 47.3203125 40.125 C48.03960937 39.39410156 48.75890625 38.66320312 49.5 37.91015625 C52.79537053 34.78021597 55.00281296 34.96592392 59.4453125 35.0625 C60.1053125 37.3725 60.7653125 39.6825 61.4453125 42.0625 C62.3734375 41.423125 63.3015625 40.78375 64.2578125 40.125 C68.84817594 37.15476483 72.03072833 36.76715905 77.4453125 37.0625 C78.1053125 37.7225 78.7653125 38.3825 79.4453125 39.0625 C79.13747392 42.96178865 77.82322568 45.05004934 75.4453125 48.0625 C76.19296875 48.08828125 76.940625 48.1140625 77.7109375 48.140625 C85.73967147 48.60301282 85.73967147 48.60301282 89.1328125 50.8125 C90.78984745 53.65313135 91.23170139 54.83830554 90.4453125 58.0625 C87.5703125 60.75 87.5703125 60.75 84.4453125 63.0625 C83.7853125 63.7225 83.1253125 64.3825 82.4453125 65.0625 C83.5590625 65.495625 84.6728125 65.92875 85.8203125 66.375 C89.4453125 68.0625 89.4453125 68.0625 91.4453125 71.0625 C91.8828125 73.9375 91.8828125 73.9375 91.4453125 77.0625 C88.89506885 80.16414769 87.26832003 81.78816416 83.4453125 83.0625 C81.55060434 83.1310495 79.6536291 83.14730372 77.7578125 83.125 C76.76394531 83.11597656 75.77007812 83.10695313 74.74609375 83.09765625 C73.98683594 83.08605469 73.22757812 83.07445312 72.4453125 83.0625 C73.1053125 84.0525 73.7653125 85.0425 74.4453125 86.0625 C75.0980152 92.15439189 75.0980152 92.15439189 73.0078125 95.0625 C68.98881879 96.63088779 65.56428445 96.19319818 61.4453125 95.0625 C58.21424009 93.45780632 55.0135244 91.6307119 52.4453125 89.0625 C52.105 90.485625 52.105 90.485625 51.7578125 91.9375 C50.4453125 95.0625 50.4453125 95.0625 47.8203125 96.4375 C47.0365625 96.64375 46.2528125 96.85 45.4453125 97.0625 C46.98962996 98.60681746 48.61658936 98.29031281 50.7578125 98.4375 C53.5236305 98.73698348 55.44169232 99.06091065 58.0078125 100.1875 C60.19900699 103.04557977 59.7078558 105.58380134 59.4453125 109.0625 C60.10917969 108.85753906 60.77304687 108.65257812 61.45703125 108.44140625 C62.34003906 108.17199219 63.22304688 107.90257812 64.1328125 107.625 C65.00292969 107.35816406 65.87304688 107.09132813 66.76953125 106.81640625 C73.38043436 104.95377223 79.67802959 104.27764939 86.4453125 105.6875 C88.4453125 107.0625 88.4453125 107.0625 89.5078125 109.8125 C89.42793508 113.96612603 87.97190617 115.84683533 85.4453125 119.0625 C86.28320312 118.90394531 87.12109375 118.74539063 87.984375 118.58203125 C97.42698606 117.16457383 106.29335562 116.68220846 114.4453125 122.0625 C115.4453125 123.0625 115.4453125 123.0625 115.8203125 125.375 C115.4453125 128.0625 115.4453125 128.0625 113.3828125 130.1875 C110.13549283 132.26025724 107.02694242 133.65793925 103.4453125 135.0625 C104.30253906 135.28164063 105.15976562 135.50078125 106.04296875 135.7265625 C113.29606574 137.73813168 118.21552039 139.59499006 123.4453125 145.0625 C124.84466263 147.86120027 124.69796655 149.96748792 124.4453125 153.0625 C122.59188475 155.62199546 121.50774857 156.04168798 118.4453125 157.0625 C116.05276674 157.28810676 113.65603127 157.47098595 111.2578125 157.625 C109.98550781 157.70878906 108.71320313 157.79257812 107.40234375 157.87890625 C106.42652344 157.93949219 105.45070313 158.00007812 104.4453125 158.0625 C104.99960937 158.53300781 105.55390625 159.00351562 106.125 159.48828125 C106.84945313 160.11089844 107.57390625 160.73351562 108.3203125 161.375 C109.03960937 161.98988281 109.75890625 162.60476563 110.5 163.23828125 C112.4453125 165.0625 112.4453125 165.0625 114.4453125 168.0625 C114.4453125 169.0525 114.4453125 170.0425 114.4453125 171.0625 C115.1053125 171.0625 115.7653125 171.0625 116.4453125 171.0625 C116.1397705 174.423462 115.85167525 176.54190625 113.75 179.234375 C110.13731995 182.1000263 107.06878675 181.60806475 102.609375 181.4453125 C94.19637926 180.42744388 87.83596973 176.41779936 81.4453125 171.0625 C81.64060547 172.27486328 81.64060547 172.27486328 81.83984375 173.51171875 C82.97783395 182.32848395 82.97783395 182.32848395 80.1328125 186.25 C75.84052832 189.14479631 73.79256738 189.20329302 68.75390625 188.56640625 C63.08547881 187.32913529 58.74739081 182.74999569 54.4453125 179.0625 C54.11660156 179.59617187 53.78789062 180.12984375 53.44921875 180.6796875 C49.37485544 187.06175252 44.62299843 192.55114098 39.4453125 198.0625 C39.90421875 199.08085937 40.363125 200.09921875 40.8359375 201.1484375 C51.08009801 224.50143791 52.61451698 248.08816441 52.6328125 273.3125 C52.63390015 274.10296722 52.63498779 274.89343445 52.6361084 275.70785522 C52.63390884 289.85489125 52.01131582 303.91241696 51.4453125 318.0625 C-31.7146875 318.0625 -114.8746875 318.0625 -200.5546875 318.0625 C-201.0496875 313.1125 -201.0496875 313.1125 -201.5546875 308.0625 C-202.06209473 306.94375488 -202.56950195 305.82500977 -203.09228516 304.67236328 C-205.1733161 299.53544783 -204.98402412 294.79576275 -204.953125 289.3046875 C-204.95599518 288.16581085 -204.95886536 287.0269342 -204.96182251 285.85354614 C-204.96386045 283.44125878 -204.95834953 281.0289548 -204.94580078 278.61669922 C-204.92995236 274.99797549 -204.94555069 271.38040467 -204.96484375 267.76171875 C-204.98065283 249.971306 -204.17995671 232.09788974 -198.5546875 215.0625 C-199.48410156 214.41023437 -200.41351563 213.75796875 -201.37109375 213.0859375 C-218.72919369 200.84405721 -218.72919369 200.84405721 -222.5546875 194.0625 C-224.18305488 192.3583946 -225.84238502 190.68224559 -227.5546875 189.0625 C-228.5446875 189.3925 -229.5346875 189.7225 -230.5546875 190.0625 C-231.21573623 191.9715207 -231.21573623 191.9715207 -231.4921875 194.25 C-232.63684053 200.11285699 -234.80173578 203.64521988 -239.4921875 207.4375 C-244.18367686 209.9268617 -244.18367686 209.9268617 -247.5546875 209.0625 C-249.51592188 207.19824974 -250.94690361 205.26746077 -252.5546875 203.0625 C-252.895 203.99191406 -253.2353125 204.92132813 -253.5859375 205.87890625 C-256.45562872 213.34393371 -259.14537787 220.0629115 -266.5546875 224.0625 C-271.10055124 225.00302353 -272.85778512 224.43676239 -276.9296875 222.25 C-279.82695304 219.59931025 -280.07462551 217.07677927 -280.4296875 213.25 C-280.49818071 211.52168806 -280.54862915 209.79215799 -280.5546875 208.0625 C-280.95558594 208.44921875 -281.35648438 208.8359375 -281.76953125 209.234375 C-286.74530099 213.79267653 -292.04442623 217.76567703 -298.98828125 218.22265625 C-302.70222564 217.97262058 -304.97894117 217.46552243 -308.0546875 215.3125 C-309.77089936 212.7381822 -310.25010648 211.13518497 -310.5546875 208.0625 C-309.6640625 205.4921875 -309.6640625 205.4921875 -308.3046875 202.9375 C-307.64726562 201.66519531 -307.64726562 201.66519531 -306.9765625 200.3671875 C-305.67283928 198.25400975 -304.39117632 196.71533994 -302.5546875 195.0625 C-303.43511719 195.03671875 -304.31554687 195.0109375 -305.22265625 194.984375 C-306.38410156 194.92765625 -307.54554688 194.8709375 -308.7421875 194.8125 C-309.89074219 194.76609375 -311.03929687 194.7196875 -312.22265625 194.671875 C-316.09537619 193.96361672 -317.81741252 192.85532853 -320.5546875 190.0625 C-321.27836711 186.57568004 -321.26029747 184.37487963 -319.55078125 181.1953125 C-315.60938672 175.96257788 -310.66722213 174.00739738 -304.5546875 172.0625 C-305.16957031 171.79695312 -305.78445313 171.53140625 -306.41796875 171.2578125 C-307.22621094 170.90460938 -308.03445313 170.55140625 -308.8671875 170.1875 C-310.06794922 169.66542969 -310.06794922 169.66542969 -311.29296875 169.1328125 C-313.5546875 168.0625 -313.5546875 168.0625 -316.5546875 166.0625 C-317.1171875 163.1875 -317.1171875 163.1875 -316.5546875 160.0625 C-311.91204325 155.5420306 -306.75845691 155.10055994 -300.5546875 155.0625 C-297.8359488 155.25544275 -295.2480916 155.61359932 -292.5546875 156.0625 C-293.575625 154.7321875 -293.575625 154.7321875 -294.6171875 153.375 C-296.5546875 150.0625 -296.5546875 150.0625 -296.4296875 147.3125 C-295.5546875 145.0625 -295.5546875 145.0625 -293.5546875 143.0625 C-285.18956756 141.90776434 -278.16973074 143.70468566 -270.5546875 147.0625 C-270.8846875 146.4025 -271.2146875 145.7425 -271.5546875 145.0625 C-271.59491141 142.7295134 -271.59788997 140.39543334 -271.5546875 138.0625 C-270.5646875 137.7325 -269.5746875 137.4025 -268.5546875 137.0625 C-269.0290625 136.485 -269.5034375 135.9075 -269.9921875 135.3125 C-271.52203994 133.10951249 -271.99807702 131.63479698 -272.5546875 129.0625 C-273.12316406 129.48402344 -273.69164062 129.90554688 -274.27734375 130.33984375 C-278.98846364 133.68245803 -282.58030316 136.0625 -288.5546875 136.0625 C-291.4296875 135.25 -291.4296875 135.25 -293.5546875 134.0625 C-294.94018947 131.29149606 -294.7424342 129.1290294 -294.5546875 126.0625 C-293.8946875 125.0725 -293.2346875 124.0825 -292.5546875 123.0625 C-293.1115625 123.09730469 -293.6684375 123.13210938 -294.2421875 123.16796875 C-300.09955005 123.37574681 -304.24026107 122.57985989 -309.5546875 120.0625 C-311.88218095 116.57125983 -312.05768066 115.17027749 -311.5546875 111.0625 C-309.05577301 107.73061401 -306.46489186 106.36590145 -302.5546875 105.0625 C-303.3178125 104.464375 -304.0809375 103.86625 -304.8671875 103.25 C-305.7540625 102.528125 -306.6409375 101.80625 -307.5546875 101.0625 C-308.1734375 100.629375 -308.7921875 100.19625 -309.4296875 99.75 C-310.5546875 98.0625 -310.5546875 98.0625 -310.4296875 94.5 C-309.5546875 91.0625 -309.5546875 91.0625 -306.5546875 89.0625 C-303.85546875 88.6484375 -303.85546875 88.6484375 -300.8671875 88.4375 C-299.37638672 88.32535156 -299.37638672 88.32535156 -297.85546875 88.2109375 C-297.09621094 88.16195312 -296.33695313 88.11296875 -295.5546875 88.0625 C-296.2353125 87.155 -296.9159375 86.2475 -297.6171875 85.3125 C-299.5546875 82.0625 -299.5546875 82.0625 -299.3671875 79.75 C-298.5546875 78.0625 -298.5546875 78.0625 -297.5546875 77.0625 C-290.66686005 76.33746553 -287.04927927 77.97078272 -281.5546875 82.0625 C-280.8946875 79.7525 -280.2346875 77.4425 -279.5546875 75.0625 C-275.09543127 74.39361157 -272.81909586 75.27767265 -269.3046875 77.875 C-266.76538789 79.86805492 -265.37927781 81.32561453 -263.5546875 84.0625 C-262.8946875 82.4125 -262.2346875 80.7625 -261.5546875 79.0625 C-258.30187222 78.57457771 -256.20755666 78.66235439 -253.375 80.3984375 C-251.3878966 81.90467602 -249.4517761 83.44467825 -247.5546875 85.0625 C-246.8946875 82.7525 -246.2346875 80.4425 -245.5546875 78.0625 C-246.4828125 78.289375 -247.4109375 78.51625 -248.3671875 78.75 C-251.5546875 79.0625 -251.5546875 79.0625 -253.3671875 77.75 C-254.5546875 76.0625 -254.5546875 76.0625 -255.5546875 74.0625 C-258.8546875 74.0625 -262.1546875 74.0625 -265.5546875 74.0625 C-266.5546875 67.3125 -266.5546875 67.3125 -266.5546875 65.0625 C-267.5240625 64.588125 -268.4934375 64.11375 -269.4921875 63.625 C-272.5546875 62.0625 -272.5546875 62.0625 -273.5546875 61.0625 C-273.59532582 59.39632885 -273.5974085 57.72861905 -273.5546875 56.0625 C-271.5746875 55.0725 -269.5946875 54.0825 -267.5546875 53.0625 C-268.5446875 52.0725 -268.5446875 52.0725 -269.5546875 51.0625 C-269.1796875 47.4375 -269.1796875 47.4375 -268.5546875 44.0625 C-265.9146875 44.3925 -263.2746875 44.7225 -260.5546875 45.0625 C-260.5546875 43.4125 -260.5546875 41.7625 -260.5546875 40.0625 C-256.95172156 39.65073246 -255.77066683 39.9089147 -252.7421875 42.0625 C-252.0203125 42.7225 -251.2984375 43.3825 -250.5546875 44.0625 C-250.2246875 43.4025 -249.8946875 42.7425 -249.5546875 42.0625 C-247.3046875 42.25 -247.3046875 42.25 -244.5546875 43.0625 C-243.5646875 44.3309375 -243.5646875 44.3309375 -242.5546875 45.625 C-241.8946875 46.429375 -241.2346875 47.23375 -240.5546875 48.0625 C-237.97104433 48.26587765 -237.97104433 48.26587765 -235.5546875 48.0625 C-235.09320313 47.20269531 -234.63171875 46.34289062 -234.15625 45.45703125 C-227.75152743 33.75978345 -220.35502116 23.1992694 -210.5546875 14.0625 C-209.7915625 13.27875 -209.0284375 12.495 -208.2421875 11.6875 C-153.3656208 -41.91286747 -59.59648047 -49.94752649 0 0 Z M-254.9921875 129.3125 C-255.8378125 130.22 -256.6834375 131.1275 -257.5546875 132.0625 C-259.2046875 133.3825 -260.8546875 134.7025 -262.5546875 136.0625 C-257.6046875 137.0525 -252.6546875 138.0425 -247.5546875 139.0625 C-247.8846875 135.1025 -248.2146875 131.1425 -248.5546875 127.0625 C-252.61768747 126.61031326 -252.61768747 126.61031326 -254.9921875 129.3125 Z " fill="#FE7999" transform="translate(376.5546875,155.9375)"/>
<path d="M0 0 C2.78635982 2.34123595 4.85700968 4.54332702 6.8828125 7.58203125 C5.61718857 11.37890303 4.50786611 11.63622121 1.0546875 13.515625 C0.03842285 14.07564209 -0.9778418 14.63565918 -2.02490234 15.21264648 C-3.12785645 15.80891846 -4.23081055 16.40519043 -5.3671875 17.01953125 C-7.67755981 18.28949814 -9.98744897 19.56034437 -12.296875 20.83203125 C-13.45413086 21.46625 -14.61138672 22.10046875 -15.80371094 22.75390625 C-20.39793738 25.28865187 -24.94639848 27.89924916 -29.4921875 30.51953125 C-65.92171113 51.41401699 -102.83129109 72.25450957 -141.1171875 89.58203125 C-141.76880859 89.87996582 -142.42042969 90.17790039 -143.09179688 90.48486328 C-154.67553322 95.69630308 -164.18288677 95.88875717 -176.1171875 91.58203125 C-183.94491637 88.41145264 -192.11099258 84.17956128 -195.6171875 76.14453125 C-195.7821875 75.29890625 -195.9471875 74.45328125 -196.1171875 73.58203125 C-197.1071875 73.58203125 -198.0971875 73.58203125 -199.1171875 73.58203125 C-195.46487473 84.10928571 -188.29076078 88.38353625 -178.6171875 93.1015625 C-167.80664458 97.67432563 -157.27846818 98.56264084 -146.33755493 94.20452881 C-145.53393524 93.86762024 -144.73031555 93.53071167 -143.90234375 93.18359375 C-142.6072438 92.65212738 -142.6072438 92.65212738 -141.28598022 92.10992432 C-131.38221721 87.97164883 -121.80816222 83.18904071 -112.2421875 78.33203125 C-110.39588308 77.40167657 -108.54944638 76.47158437 -106.70288086 75.54174805 C-85.95473572 65.36163912 -85.95473572 65.36163912 -66.1171875 53.58203125 C-61.72213305 53.88830552 -58.65715377 55.13627916 -54.9140625 57.390625 C-53.94291504 57.96796387 -52.97176758 58.54530273 -51.97119141 59.14013672 C-50.94687012 59.76033691 -49.92254883 60.38053711 -48.8671875 61.01953125 C-46.70384214 62.3032926 -44.53977364 63.58583609 -42.375 64.8671875 C-41.31055664 65.50027832 -40.24611328 66.13336914 -39.14941406 66.78564453 C-12.83632483 83.0782174 -12.83632483 83.0782174 16.8828125 87.58203125 C24.95794393 85.28199381 29.63242525 79.30110523 33.96484375 72.44921875 C35.10341037 70.48009885 35.10341037 70.48009885 34.8828125 67.58203125 C34.2228125 67.25203125 33.5628125 66.92203125 32.8828125 66.58203125 C32.6353125 67.44828125 32.3878125 68.31453125 32.1328125 69.20703125 C29.50803032 76.29394314 25.29022252 80.74008813 18.8828125 84.58203125 C7.45466099 88.30760864 -2.05261418 83.62721866 -12.1171875 78.58203125 C-13.03870605 78.12602539 -13.96022461 77.67001953 -14.90966797 77.20019531 C-30.47787897 69.45301752 -45.40291378 60.84052129 -60.1171875 51.58203125 C-55.37623037 47.3385193 -49.8926025 44.65285123 -44.3046875 41.70703125 C-31.71681008 34.98202718 -19.40417385 27.83829585 -7.1171875 20.58203125 C-5.3557823 19.54634156 -3.59407735 18.51116143 -1.83203125 17.4765625 C2.07509365 15.18206385 5.97980795 12.88353122 9.8828125 10.58203125 C9.5528125 8.27203125 9.2228125 5.96203125 8.8828125 3.58203125 C10.96294835 1.9527919 13.04669224 0.32857655 15.1328125 -1.29296875 C16.01259766 -1.98326172 16.01259766 -1.98326172 16.91015625 -2.6875 C19.79210327 -4.92181847 22.50852417 -6.96468615 25.8828125 -8.41796875 C36.74206842 8.78637567 38.06175729 29.00513641 37.98046875 48.78125 C37.97834633 50.75554741 37.97834633 50.75554741 37.97618103 52.76972961 C37.97240464 56.23019389 37.96261745 59.69061466 37.95147705 63.15106201 C37.94115664 66.69770723 37.93666088 70.24435964 37.93164062 73.79101562 C37.92098962 80.72137178 37.9039736 87.65169941 37.8828125 94.58203125 C39.2028125 94.25203125 40.5228125 93.92203125 41.8828125 93.58203125 C41.8828125 98.20203125 41.8828125 102.82203125 41.8828125 107.58203125 C-41.2771875 107.58203125 -124.4371875 107.58203125 -210.1171875 107.58203125 C-210.4471875 103.62203125 -210.7771875 99.66203125 -211.1171875 95.58203125 C-210.6221875 95.08703125 -210.6221875 95.08703125 -210.1171875 94.58203125 C-210.03939535 93.00469396 -210.03135826 91.42385546 -210.05126953 89.84472656 C-210.06102814 88.83146301 -210.07078674 87.81819946 -210.08084106 86.77423096 C-210.09541351 85.6640863 -210.10998596 84.55394165 -210.125 83.41015625 C-210.14255984 81.0481817 -210.15946375 78.68620221 -210.17578125 76.32421875 C-210.2063672 72.61020996 -210.24136864 68.89645376 -210.28857422 65.18261719 C-210.93298076 11.67515254 -210.93298076 11.67515254 -197.6796875 -1.91796875 C-191.18751385 -4.65151555 -184.47972847 -4.57209504 -177.828125 -2.2890625 C-175.19098338 -1.09314944 -172.64172144 0.1654591 -170.1171875 1.58203125 C-170.79742481 4.91364805 -172.05450938 7.63274174 -173.6171875 10.64453125 C-176.78069895 16.76004031 -178.01553408 21.69130466 -177.1171875 28.58203125 C-174.88450844 34.23109422 -171.4625117 37.67696375 -166.1171875 40.58203125 C-156.80441299 43.68628942 -145.93270579 42.05780138 -137.15234375 38.1953125 C-129.50953407 34.13291817 -123.10561678 29.33284343 -117.9453125 22.34375 C-115.88039018 20.35383554 -113.81380887 19.50807495 -111.16992188 18.46459961 C-108.84237098 17.46387453 -106.69885204 16.27413123 -104.5 15.015625 C-90.83205087 7.20686371 -76.9470965 0.86767801 -62.1171875 -4.41796875 C-61.37839355 -4.68641602 -60.63959961 -4.95486328 -59.87841797 -5.23144531 C-41.38794763 -11.70288239 -16.26575839 -11.85419661 0 0 Z " fill="#FDAEC2" transform="translate(386.1171875,366.41796875)"/>
<path d="M0 0 C0.99 0 1.98 0 3 0 C3.66333649 8.12587197 1.6738256 17.65234881 -2 25 C14.82098355 27.01723608 14.82098355 27.01723608 31 23 C35.01084916 19.72583742 36.70937304 17.47929916 37.31640625 12.30078125 C37.39761719 11.31464844 37.47882813 10.32851563 37.5625 9.3125 C37.64628906 8.31863281 37.73007812 7.32476562 37.81640625 6.30078125 C37.87699219 5.54152344 37.93757813 4.78226562 38 4 C38.66 4.33 39.32 4.66 40 5 C40.58243451 15.91525424 40.58243451 15.91525424 37 21 C32.72726121 25.70227338 28.41962624 28.36839161 22 29 C13.61473628 29.37470381 5.3329958 28.95234238 -3 28 C-4.58621057 30.96641977 -5.70825096 33.62925663 -6 37 C-3.56499657 41.61245842 0.16571175 45.03756615 5 47 C8.5 47.5 8.5 47.5 12 47 C14.25065102 45.08333079 14.25065102 45.08333079 16 43 C16.99 43 17.98 43 19 43 C18.10219178 46.01990039 17.2874281 47.73870172 14.9375 49.875 C10.73108883 51.48596598 7.32086164 51.12618202 3 50 C-1.43984964 47.56243549 -5.16492716 44.28720529 -9 41 C-9.32871094 41.53367187 -9.65742188 42.06734375 -9.99609375 42.6171875 C-14.07045706 48.99925252 -18.82231407 54.48864098 -24 60 C-23.54109375 61.01835937 -23.0821875 62.03671875 -22.609375 63.0859375 C-12.2368171 86.73163777 -10.83027238 110.59349815 -10.8125 136.125 C-10.81141235 136.9752475 -10.81032471 137.825495 -10.8092041 138.70150757 C-10.81052799 147.84659917 -10.89301574 156.90718795 -12 166 C-13.32 166.33 -14.64 166.66 -16 167 C-16.00808685 166.2816246 -16.01617371 165.56324921 -16.02450562 164.82310486 C-16.10311452 157.98463595 -16.19059205 151.14632887 -16.28752708 144.30809689 C-16.33703857 140.7942222 -16.38336385 137.28037125 -16.421875 133.76635742 C-16.46650937 129.70734537 -16.5259594 125.64865832 -16.5859375 121.58984375 C-16.60326431 119.73733253 -16.60326431 119.73733253 -16.62094116 117.84739685 C-16.92249492 99.63380999 -19.55613218 81.33403938 -28 65 C-31.48672455 66.5487544 -34.18554031 68.64512345 -37.125 71.0625 C-41.80555556 74.90277778 -41.80555556 74.90277778 -44 76 C-43.67 78.31 -43.34 80.62 -43 83 C-49.69235776 87.64431984 -56.61991297 91.69387689 -63.75 95.625 C-65.97047441 96.85861513 -68.19051953 98.09300326 -70.41015625 99.328125 C-71.51504395 99.94236328 -72.61993164 100.55660156 -73.75830078 101.18945312 C-81.10083783 105.29039112 -88.38854442 109.48788742 -95.68310547 113.67333984 C-97.91233721 114.94980405 -100.14481772 116.22034027 -102.37890625 117.48828125 C-103.03930908 117.86355957 -103.69971191 118.23883789 -104.38012695 118.62548828 C-106.11228923 119.60928589 -107.84517604 120.59180754 -109.578125 121.57421875 C-111.87190927 122.78836892 -111.87190927 122.78836892 -113 124 C-99.65654755 131.86866102 -86.24593774 139.54294612 -72.5 146.6875 C-71.39873779 147.26258301 -70.29747559 147.83766602 -69.1628418 148.43017578 C-52.94086915 157.00645966 -52.94086915 157.00645966 -35.1875 155.8125 C-27.43778698 151.40580044 -24.54716332 147.08313765 -21 139 C-20.01 139.33 -19.02 139.66 -18 140 C-18.94841254 146.72292436 -22.87568832 152.4811308 -28.13671875 156.72265625 C-35.53689738 161.41445157 -42.32853245 161.777629 -51 161 C-55.27030626 159.82084446 -59.05480096 157.99701288 -63 156 C-64.1653125 155.44183594 -65.330625 154.88367188 -66.53125 154.30859375 C-79.8041144 147.89620874 -93.05488053 140.99868966 -105.5625 133.1953125 C-106.24562256 132.76984131 -106.92874512 132.34437012 -107.63256836 131.90600586 C-108.87936194 131.11881462 -110.11792257 130.31835879 -111.34594727 129.50219727 C-114.61403741 127.42590003 -114.61403741 127.42590003 -118.3840332 127.26123047 C-121.10945349 128.03091052 -123.35221983 129.04299426 -125.8515625 130.37109375 C-127.23661987 131.10090454 -127.23661987 131.10090454 -128.6496582 131.84545898 C-129.631521 132.37083252 -130.61338379 132.89620605 -131.625 133.4375 C-132.65262451 133.98027588 -133.68024902 134.52305176 -134.73901367 135.08227539 C-137.82924707 136.71549662 -140.91514693 138.3566433 -144 140 C-208.5237686 174.29901513 -208.5237686 174.29901513 -228.3125 168.375 C-238.36119919 164.52569991 -246.96645438 159.05031843 -253 150 C-253 148.68 -253 147.36 -253 146 C-252.01 146 -251.02 146 -250 146 C-248.96484375 147.50390625 -248.96484375 147.50390625 -247.9375 149.5625 C-243.28662373 157.48725594 -234.5402404 162.02417211 -225.95703125 164.6171875 C-215.59872161 167.29384804 -207.00474789 166.33401402 -197.3125 162 C-196.3013916 161.56284668 -195.2902832 161.12569336 -194.24853516 160.67529297 C-173.20027154 151.40091169 -152.77504835 140.64245662 -132.67919922 129.47851562 C-128.83736625 127.35840077 -124.97237596 125.28203878 -121.10839844 123.20263672 C-108.3053997 116.30855644 -95.6292187 109.20667939 -83 102 C-82.41597412 101.66685791 -81.83194824 101.33371582 -81.23022461 100.99047852 C-73.42753723 96.53959902 -65.62847563 92.08241157 -57.83203125 87.62060547 C-54.555503 85.74564042 -51.27796911 83.87244456 -48 82 C-49.39704633 76.72226944 -52.6552683 73.99836047 -57 71 C-72.35983883 62.54933598 -92.9451919 62.46489367 -109.625 66.875 C-126.57823365 71.81724891 -142.68123266 79.38536376 -157.95825195 88.15258789 C-158.8112085 88.63977295 -159.66416504 89.12695801 -160.54296875 89.62890625 C-161.28571045 90.06275635 -162.02845215 90.49660645 -162.79370117 90.94360352 C-165 92 -165 92 -167.70751953 92.53198242 C-168.84229736 92.76365112 -168.84229736 92.76365112 -170 93 C-171.20152211 94.85073318 -171.20152211 94.85073318 -172 97 C-178.57208515 105.4931562 -190.29926178 113.33003631 -201 115 C-218.44904972 116.40660707 -218.44904972 116.40660707 -225 111 C-228.53428609 107.5844367 -231.58933544 103.72184652 -232.3359375 98.7734375 C-232.49034188 89.29300878 -228.84235273 81.95529378 -224 74 C-224.62648437 73.79503906 -225.25296875 73.59007812 -225.8984375 73.37890625 C-226.71570313 73.10949219 -227.53296875 72.84007812 -228.375 72.5625 C-229.18710938 72.29566406 -229.99921875 72.02882813 -230.8359375 71.75390625 C-233 71 -233 71 -235 70 C-237.10053716 69.85098509 -239.20687825 69.77861547 -241.3125 69.75 C-242.44300781 69.72421875 -243.57351562 69.6984375 -244.73828125 69.671875 C-248.37555119 70.03778 -250.1341895 70.7621758 -253 73 C-258.17480093 79.96818432 -259.55267579 88.64960958 -261 97 C-261.18522217 98.06782715 -261.37044434 99.1356543 -261.5612793 100.23583984 C-263.55988349 113.77612167 -263.21995968 127.34372254 -263.125 141 C-263.11494769 143.52864228 -263.10582583 146.05728844 -263.09765625 148.5859375 C-263.07582689 154.72404426 -263.04252854 160.86200355 -263 167 C-264.32 167 -265.64 167 -267 167 C-267.89904757 163.91227506 -268.13641521 161.1333841 -268.16113281 157.92211914 C-268.17074036 156.90908218 -268.1803479 155.89604523 -268.19024658 154.85231018 C-268.19449646 153.75764938 -268.19874634 152.66298859 -268.203125 151.53515625 C-268.20882507 150.39203476 -268.21452515 149.24891327 -268.22039795 148.07115173 C-268.22985258 145.64094974 -268.23638376 143.21073491 -268.24023438 140.78051758 C-268.24980869 137.13533539 -268.28077161 133.49074977 -268.3125 129.84570312 C-268.39330123 111.97474569 -267.65214073 94.1167666 -262 77 C-262.92941406 76.34773438 -263.85882813 75.69546875 -264.81640625 75.0234375 C-278.92360276 65.07639724 -278.92360276 65.07639724 -283 61 C-283 59.68 -283 58.36 -283 57 C-278.22199973 57.44711562 -275.514272 59.72314196 -272.0625 62.8125 C-268.20673787 66.2005955 -264.32251876 69.23642243 -260 72 C-256.55835531 70.47038014 -253.90848242 68.37270934 -251 66 C-245.4410709 63.22053545 -237.2358918 64.3064479 -231.51171875 66.08203125 C-228.62496632 67.30511195 -225.81330969 68.61826175 -223 70 C-222.01 70.33 -221.02 70.66 -220 71 C-218.37527894 69.82418464 -218.37527894 69.82418464 -216.75 68.0625 C-199.20953571 51.99980376 -175.67938849 50.00535922 -153 51 C-140.46983381 51.93613092 -128.92301328 56.6607466 -117.33325195 61.19970703 C-111.89182366 63.0660879 -108.37499838 62.8434966 -102.75 61.5625 C-85.95571616 58.12355011 -69.0653137 59.0724067 -54 68 C-52.63875 69.1446875 -52.63875 69.1446875 -51.25 70.3125 C-49.21338688 72.24065032 -49.21338688 72.24065032 -47.1171875 71.79296875 C-42.81559471 70.18185558 -39.49500835 66.90701167 -36 64 C-35.20078125 63.34902344 -34.4015625 62.69804687 -33.578125 62.02734375 C-15.03301038 46.2285598 -4.38970303 24.97222415 -1 1 C-0.67 0.67 -0.34 0.34 0 0 Z " fill="#340A59" transform="translate(440,294)"/>
<path d="M0 0 C4.77903287 2.52543388 7.93265 5.48774448 9.84765625 10.66796875 C11.6916521 17.78998863 10.21888573 22.93722854 7 29.375 C7.56203125 29.63023437 8.1240625 29.88546875 8.703125 30.1484375 C11.29386482 31.53192781 13.45107845 33.17438583 15.75 35 C16.54921875 35.63164062 17.3484375 36.26328125 18.171875 36.9140625 C18.77515625 37.39617187 19.3784375 37.87828125 20 38.375 C18.71188239 41.81896776 17.21630775 44.8448179 15.25 47.94921875 C14.46109375 49.19735352 14.46109375 49.19735352 13.65625 50.47070312 C13.1096875 51.32599609 12.563125 52.18128906 12 53.0625 C11.4534375 53.92939453 10.906875 54.79628906 10.34375 55.68945312 C6.26932303 62.10567697 6.26932303 62.10567697 4 64.375 C1.38419521 64.0480244 -0.64078137 63.55460932 -3 62.375 C-3.12955078 63.35339844 -3.12955078 63.35339844 -3.26171875 64.3515625 C-4.25516225 70.53096332 -5.38654126 74.07609526 -10 78.375 C-15.18105466 81.78978603 -21.08947099 83.14745018 -27.21484375 81.9375 C-31.77561547 80.44272193 -34.42162963 78.56485186 -37 74.375 C-37 73.715 -37 73.055 -37 72.375 C-37.54527344 72.72433594 -38.09054688 73.07367188 -38.65234375 73.43359375 C-44.70912684 77.08837056 -50.03673656 79.31399579 -57.16796875 77.96484375 C-62.37080421 76.33468705 -64.89940011 73.7910059 -68 69.375 C-69.73704155 65.9009169 -69.46041616 62.17343331 -69 58.375 C-66.78125592 53.93751184 -64.48679087 51.50032199 -60 49.375 C-59.34 49.375 -58.68 49.375 -58 49.375 C-58 48.715 -58 48.055 -58 47.375 C-58.556875 47.148125 -59.11375 46.92125 -59.6875 46.6875 C-63.43247381 44.56197432 -66.14250002 41.84499997 -68.3125 38.125 C-69.65062968 32.77248127 -69.99448113 27.62384315 -67.375 22.625 C-64.35192513 18.00462671 -60.12711903 14.46826622 -55 12.375 C-47.26978442 11.4252878 -41.59400308 12.26929997 -35 16.375 C-34.67 16.705 -34.34 17.035 -34 17.375 C-33.7525 16.17875 -33.505 14.9825 -33.25 13.75 C-31.9363738 8.71739153 -30.30666073 5.05944011 -25.97265625 1.89453125 C-17.86183876 -2.7984377 -8.75803594 -3.45366808 0 0 Z " fill="#C4F8FC" transform="translate(80,139.625)"/>
<path d="M0 0 C3.691298 2.93209487 5.82729165 6.28615582 7.125 10.8125 C7.97554678 19.11140644 7.97554678 19.11140644 6.125 22.8125 C6.65609375 22.65394531 7.1871875 22.49539062 7.734375 22.33203125 C15.02777029 20.74702868 23.03930847 20.68558867 29.5390625 24.62109375 C33.46022237 27.56679267 34.88835817 29.85015657 36.0625 34.625 C36.4563508 39.98743016 35.13981725 44.40016475 31.6796875 48.54296875 C24.32671135 55.46844629 16.42023578 56.15293523 6.65234375 55.91796875 C5.40130859 55.86576172 5.40130859 55.86576172 4.125 55.8125 C5.115 57.42125 5.115 57.42125 6.125 59.0625 C8.00795807 62.12230686 8.125 62.9460864 8.125 66.8125 C7.44397217 67.19583496 6.76294434 67.57916992 6.0612793 67.97412109 C2.97767067 69.71070594 -0.10492473 71.44908158 -3.1875 73.1875 C-4.25935547 73.79078125 -5.33121094 74.3940625 -6.43554688 75.015625 C-7.46357422 75.59570312 -8.49160156 76.17578125 -9.55078125 76.7734375 C-10.49864502 77.30759277 -11.44650879 77.84174805 -12.4230957 78.39208984 C-14.27944072 79.46748717 -16.08996679 80.62247786 -17.875 81.8125 C-19.95605469 81.66235352 -19.95605469 81.66235352 -21.875 80.8125 C-23.16001632 78.09805039 -24.17829 75.57805462 -25.125 72.75 C-25.393125 71.99138672 -25.66125 71.23277344 -25.9375 70.45117188 C-26.59771967 68.57661958 -27.23825109 66.69515428 -27.875 64.8125 C-30.19175312 64.62490301 -30.19175312 64.62490301 -32.8125 66.8125 C-37.60251736 69.61420827 -42.47939297 69.75880646 -47.875 68.8125 C-51.125 66.75 -51.125 66.75 -52.875 63.8125 C-52.75855009 60.37722756 -52.41245581 57.88741161 -50.875 54.8125 C-51.46667969 54.59335938 -52.05835937 54.37421875 -52.66796875 54.1484375 C-58.9605367 51.62319816 -62.76502062 49.03245876 -65.875 42.8125 C-66.63750806 35.97492772 -66.04494994 31.33486613 -61.875 25.8125 C-58.02625088 22.60520907 -53.78659254 21.84802689 -48.875 21.8125 C-46.86951072 22.11103622 -44.86776303 22.43832543 -42.875 22.8125 C-42.90980469 21.94367188 -42.94460937 21.07484375 -42.98046875 20.1796875 C-43.27742929 7.53765294 -43.27742929 7.53765294 -38.43359375 2.234375 C-27.91038978 -7.82492903 -11.97357378 -7.55688238 0 0 Z " fill="#C4F8FD" transform="translate(175.875,43.1875)"/>
<path d="M0 0 C4.20966195 2.86131585 6.89211747 6.49403168 8.09765625 11.42578125 C8.40541874 18.01417833 7.1042066 22.60457516 2.85546875 27.6640625 C0.1382622 30.38730729 -2.62162844 32.40687952 -5.90234375 34.42578125 C-6.56234375 34.42578125 -7.22234375 34.42578125 -7.90234375 34.42578125 C-6.72671875 35.97265625 -6.72671875 35.97265625 -5.52734375 37.55078125 C-1.54046781 43.22528366 -0.29944122 47.99058276 -1.1640625 54.88671875 C-2.46531426 59.3619232 -5.30980506 62.54043521 -8.90234375 65.42578125 C-14.64729042 68.28424252 -21.01228695 68.47822812 -27.18359375 66.80859375 C-34.03161669 63.83233763 -37.77338008 57.97613511 -40.90234375 51.42578125 C-46.22470805 58.57295617 -51.21221998 65.84830004 -55.90234375 73.42578125 C-60.20526611 72.92809384 -62.85389004 70.179536 -65.96484375 67.42578125 C-67.11775786 66.42623871 -68.2714171 65.42755505 -69.42578125 64.4296875 C-70.00424805 63.92711426 -70.58271484 63.42454102 -71.17871094 62.90673828 C-74.64309421 59.93011662 -78.20820162 57.07711448 -81.7578125 54.203125 C-83.90234375 52.42578125 -83.90234375 52.42578125 -85.90234375 50.42578125 C-85.90234375 49.43578125 -85.90234375 48.44578125 -85.90234375 47.42578125 C-82.00816582 45.4641434 -78.11171966 43.50705324 -74.21484375 41.55078125 C-72.5606543 40.71740234 -72.5606543 40.71740234 -70.87304688 39.8671875 C-69.80634766 39.33222656 -68.73964844 38.79726562 -67.640625 38.24609375 C-66.66134033 37.75383301 -65.68205566 37.26157227 -64.6730957 36.75439453 C-62.11647648 35.52846081 -59.54774813 34.44340688 -56.90234375 33.42578125 C-57.49402344 32.96429688 -58.08570313 32.5028125 -58.6953125 32.02734375 C-64.96496987 26.85206376 -70.18574827 21.43340361 -71.1875 13.03515625 C-70.96676712 7.84351892 -69.09243611 4.64791038 -65.66796875 0.8359375 C-61.08884333 -2.82128435 -56.32941551 -3.00813427 -50.68359375 -2.88671875 C-43.30466979 -2.05762617 -38.73501415 2.10984381 -33.90234375 7.42578125 C-33.40605469 6.88308594 -32.90976562 6.34039062 -32.3984375 5.78125 C-22.9043242 -4.21729436 -12.37439112 -6.96182068 0 0 Z " fill="#C3F7FC" transform="translate(460.90234375,68.57421875)"/>
<path d="M0 0 C12.20800574 10.60382785 24.07152763 24.6096545 29.4453125 40.0625 C29.4453125 41.0525 29.4453125 42.0425 29.4453125 43.0625 C30.4971875 42.381875 31.5490625 41.70125 32.6328125 41 C35.19162632 39.5444804 36.24351314 39.0625 39.2578125 39.0625 C41.96173444 40.2985786 42.26811184 41.42045688 43.4453125 44.0625 C43.99960937 43.49660156 44.55390625 42.93070312 45.125 42.34765625 C45.84945313 41.61417969 46.57390625 40.88070312 47.3203125 40.125 C48.03960937 39.39410156 48.75890625 38.66320312 49.5 37.91015625 C52.79537053 34.78021597 55.00281296 34.96592392 59.4453125 35.0625 C60.1053125 37.3725 60.7653125 39.6825 61.4453125 42.0625 C62.3734375 41.423125 63.3015625 40.78375 64.2578125 40.125 C68.84817594 37.15476483 72.03072833 36.76715905 77.4453125 37.0625 C78.1053125 37.7225 78.7653125 38.3825 79.4453125 39.0625 C79.13747392 42.96178865 77.82322568 45.05004934 75.4453125 48.0625 C76.19296875 48.08828125 76.940625 48.1140625 77.7109375 48.140625 C85.73967147 48.60301282 85.73967147 48.60301282 89.1328125 50.8125 C90.78984745 53.65313135 91.23170139 54.83830554 90.4453125 58.0625 C87.5703125 60.75 87.5703125 60.75 84.4453125 63.0625 C83.7853125 63.7225 83.1253125 64.3825 82.4453125 65.0625 C83.5590625 65.495625 84.6728125 65.92875 85.8203125 66.375 C89.4453125 68.0625 89.4453125 68.0625 91.4453125 71.0625 C91.8828125 73.9375 91.8828125 73.9375 91.4453125 77.0625 C88.89506885 80.16414769 87.26832003 81.78816416 83.4453125 83.0625 C81.55060434 83.1310495 79.6536291 83.14730372 77.7578125 83.125 C76.76394531 83.11597656 75.77007812 83.10695313 74.74609375 83.09765625 C73.98683594 83.08605469 73.22757812 83.07445312 72.4453125 83.0625 C73.1053125 84.0525 73.7653125 85.0425 74.4453125 86.0625 C75.0980152 92.15439189 75.0980152 92.15439189 73.0078125 95.0625 C68.98881879 96.63088779 65.56428445 96.19319818 61.4453125 95.0625 C58.21424009 93.45780632 55.0135244 91.6307119 52.4453125 89.0625 C52.105 90.485625 52.105 90.485625 51.7578125 91.9375 C50.4453125 95.0625 50.4453125 95.0625 47.8203125 96.4375 C47.0365625 96.64375 46.2528125 96.85 45.4453125 97.0625 C46.651875 98.17625 46.651875 98.17625 47.8828125 99.3125 C50.21519841 101.81554829 51.08065644 102.7805955 51.4453125 106.0625 C45.53178971 105.23091086 42.38020736 102.40445294 38.4453125 98.0625 C32.26849721 89.42448582 31.09821012 78.35406466 29.99609375 68.0390625 C27.04372346 40.46554918 13.85310014 18.03068478 -7.48876953 0.47119141 C-31.08829251 -18.06514031 -58.97578767 -27.35096976 -88.81640625 -27.19824219 C-91.2867115 -27.1875776 -93.75628003 -27.19816357 -96.2265625 -27.2109375 C-110.22855407 -27.22509514 -123.82912962 -26.15403088 -137.3671875 -22.3125 C-138.29096191 -22.05380127 -139.21473633 -21.79510254 -140.16650391 -21.52856445 C-178.18546131 -10.47684459 -209.84615597 13.34191353 -229.4921875 47.875 C-230.03746094 48.87144531 -230.58273438 49.86789063 -231.14453125 50.89453125 C-231.60988281 51.60996094 -232.07523438 52.32539063 -232.5546875 53.0625 C-233.2146875 53.0625 -233.8746875 53.0625 -234.5546875 53.0625 C-235.69441947 49.68738213 -235.65707981 48.30602764 -234.25390625 44.96875 C-227.55678433 33.62915716 -220.23769081 23.08988329 -210.5546875 14.0625 C-209.7915625 13.27875 -209.0284375 12.495 -208.2421875 11.6875 C-153.3656208 -41.91286747 -59.59648047 -49.94752649 0 0 Z " fill="#2E0454" transform="translate(376.5546875,155.9375)"/>
<path d="M0 0 C0.99 0.33 1.98 0.66 3 1 C2.57379685 3.87687128 1.94316881 5.06571107 0 7.3125 C-2.51996184 10.69869872 -3 12.7893454 -3 17 C-0.64110181 23.08347427 4.11448017 25.09176501 9.859375 27.7421875 C20.68779283 32.0789419 32.84162419 32.37060379 44.09765625 29.45703125 C46.81950155 28.8031177 49.22546312 28.66164184 52 29 C54.1519437 32.22791555 54.20086443 33.28400809 54 37 C52.68 37 51.36 37 50 37 C50 35.68 50 34.36 50 33 C43.66461548 34.90061535 41.49625874 36.21308898 38 42 C36.35 42.99 34.7 43.98 33 45 C37.62 46.32 42.24 47.64 47 49 C44.07960918 51.92039082 40.39536934 52.68993132 36.5625 54 C20.84774468 59.61949791 2.45169145 66.93826917 -6.625 81.875 C-7.68664345 84.28782603 -8.58484794 86.40529965 -9 89 C-8.34 89 -7.68 89 -7 89 C-6.84144531 89.79664063 -6.68289062 90.59328125 -6.51953125 91.4140625 C-5.09174663 97.89825564 -3.98655918 102.48835122 1 107 C9.53544361 111.27516984 20.24765931 109.690596 29.0625 106.9375 C43.46646501 102.09324204 56.21566317 94.78433683 67 84 C69.9375 83.625 69.9375 83.625 73 84 C74.9375 85.75 74.9375 85.75 76 88 C75.6875 90.25 75.6875 90.25 75 92 C73.515 91.505 73.515 91.505 72 91 C71.67 90.34 71.34 89.68 71 89 C69.515 89.495 69.515 89.495 68 90 C67.30580103 92.07883627 67.30580103 92.07883627 67 94.5 C66.625 96.96875 66.625 96.96875 66 99 C64.515 99.495 64.515 99.495 63 100 C62.33895127 101.9090207 62.33895127 101.9090207 62.0625 104.1875 C60.91784697 110.05035699 58.75295172 113.58271988 54.0625 117.375 C49.37101064 119.8643617 49.37101064 119.8643617 46 119 C44.03876562 117.13574974 42.60778389 115.20496077 41 113 C40.6596875 113.92941406 40.319375 114.85882813 39.96875 115.81640625 C37.09905878 123.28143371 34.40930963 130.0004115 27 134 C22.45413626 134.94052353 20.69690238 134.37426239 16.625 132.1875 C13.72773446 129.53681025 13.48006199 127.01427927 13.125 123.1875 C13.05650679 121.45918806 13.00605835 119.72965799 13 118 C12.59910156 118.38671875 12.19820312 118.7734375 11.78515625 119.171875 C6.80938651 123.73017653 1.51026127 127.70317703 -5.43359375 128.16015625 C-9.14753814 127.91012058 -11.42425367 127.40302243 -14.5 125.25 C-16.21621186 122.6756822 -16.69541898 121.07268497 -17 118 C-16.109375 115.4296875 -16.109375 115.4296875 -14.75 112.875 C-14.09257813 111.60269531 -14.09257813 111.60269531 -13.421875 110.3046875 C-12.11815178 108.19150975 -10.83648882 106.65283994 -9 105 C-9.88042969 104.97421875 -10.76085937 104.9484375 -11.66796875 104.921875 C-12.82941406 104.86515625 -13.99085937 104.8084375 -15.1875 104.75 C-16.91033203 104.68039062 -16.91033203 104.68039062 -18.66796875 104.609375 C-22.54068869 103.90111672 -24.26272502 102.79282853 -27 100 C-27.72367961 96.51318004 -27.70560997 94.31237963 -25.99609375 91.1328125 C-22.05469922 85.90007788 -17.11253463 83.94489738 -11 82 C-11.92232422 81.60167969 -11.92232422 81.60167969 -12.86328125 81.1953125 C-13.67152344 80.84210938 -14.47976562 80.48890625 -15.3125 80.125 C-16.11300781 79.77695312 -16.91351563 79.42890625 -17.73828125 79.0703125 C-20 78 -20 78 -23 76 C-23.5625 73.125 -23.5625 73.125 -23 70 C-18.35735575 65.4795306 -13.20376941 65.03805994 -7 65 C-4.2812613 65.19294275 -1.6934041 65.55109932 1 66 C-0.0209375 64.6696875 -0.0209375 64.6696875 -1.0625 63.3125 C-3 60 -3 60 -2.875 57.25 C-2 55 -2 55 0 53 C8.36511994 51.84526434 15.38495676 53.64218566 23 57 C22.67 56.34 22.34 55.68 22 55 C21.95977609 52.6670134 21.95679753 50.33293334 22 48 C22.99 47.67 23.98 47.34 25 47 C24.525625 46.4225 24.05125 45.845 23.5625 45.25 C22.03264756 43.04701249 21.55661048 41.57229698 21 39 C20.43152344 39.42152344 19.86304688 39.84304688 19.27734375 40.27734375 C14.56622386 43.61995803 10.97438434 46 5 46 C2.125 45.1875 2.125 45.1875 0 44 C-1.38550197 41.22899606 -1.1877467 39.0665294 -1 36 C-0.34 35.01 0.32 34.02 1 33 C0.1646875 33.05220703 0.1646875 33.05220703 -0.6875 33.10546875 C-6.54486255 33.31324681 -10.68557357 32.51735989 -16 30 C-18.32749345 26.50875983 -18.50299316 25.10777749 -18 21 C-16.01250471 18.35000628 -14.64092028 17.2056907 -11.48046875 16.19140625 C-8.84078375 15.22302647 -8.84078375 15.22302647 -7.8125 12.79296875 C-7.544375 11.93316406 -7.27625 11.07335937 -7 10.1875 C-5.37169057 5.57618108 -3.73563281 3.11302734 0 0 Z " fill="#FE295C" transform="translate(83,246)"/>
<path d="M0 0 C0.78020508 0.26369385 1.56041016 0.5273877 2.36425781 0.79907227 C4.296875 1.62109375 4.296875 1.62109375 6.296875 3.62109375 C5.64952393 3.86641846 5.00217285 4.11174316 4.33520508 4.36450195 C-7.43694744 8.86015424 -19.04139809 13.49687656 -30.203125 19.37109375 C-31.03094482 19.80591064 -31.85876465 20.24072754 -32.71166992 20.6887207 C-40.21515506 24.73117461 -47.40733033 29.06035845 -53.515625 35.05859375 C-63.92091363 44.63986107 -75.39837097 50.35058773 -89.609375 49.96875 C-95.48533058 49.30844691 -99.02214204 47.26005214 -103.203125 43.18359375 C-105.84334426 36.913073 -105.89421344 30.28052292 -103.78515625 23.80078125 C-97.0779091 9.60486011 -84.17651718 0.89833923 -69.703125 -4.37890625 C-45.5802405 -12.13458774 -23.43330644 -7.94220466 0 0 Z " fill="#FCAEC1" transform="translate(316.703125,356.37890625)"/>
<path d="M0 0 C1.0625 2.75 1.0625 2.75 1 6 C-0.9375 9.375 -0.9375 9.375 -3 12 C-2.16210938 11.84144531 -1.32421875 11.68289063 -0.4609375 11.51953125 C8.98167356 10.10207383 17.84804312 9.61970846 26 15 C27 16 27 16 27.375 18.3125 C27 21 27 21 24.9375 23.125 C21.69018033 25.19775724 18.58162992 26.59543925 15 28 C15.85722656 28.21914063 16.71445312 28.43828125 17.59765625 28.6640625 C24.85075324 30.67563168 29.77020789 32.53249006 35 38 C36.39935013 40.79870027 36.25265405 42.90498792 36 46 C34.14657225 48.55949546 33.06243607 48.97918798 30 50 C27.60745424 50.22560676 25.21071877 50.40848595 22.8125 50.5625 C21.54019531 50.64628906 20.26789063 50.73007812 18.95703125 50.81640625 C17.98121094 50.87699219 17.00539063 50.93757813 16 51 C16.55429687 51.47050781 17.10859375 51.94101562 17.6796875 52.42578125 C18.76636719 53.35970703 18.76636719 53.35970703 19.875 54.3125 C20.59429687 54.92738281 21.31359375 55.54226563 22.0546875 56.17578125 C24 58 24 58 26 61 C26 61.99 26 62.98 26 64 C26.66 64 27.32 64 28 64 C27.694458 67.360962 27.40636275 69.47940625 25.3046875 72.171875 C21.69200745 75.0375263 18.62347425 74.54556475 14.1640625 74.3828125 C5.66208818 73.35417857 -0.48137277 69.31147404 -7 64 C-6.67 67.3 -6.34 70.6 -6 74 C-7.485 74.495 -7.485 74.495 -9 75 C-9.5775 75.680625 -10.155 76.36125 -10.75 77.0625 C-13 79 -13 79 -16.375 79.5 C-22.6325526 78.6368893 -27.09725055 74.77208332 -31.0625 70.01171875 C-32.32308779 67.30670746 -31.92410691 65.94766015 -31.0625 63.125 C-30.16015625 60.8203125 -30.16015625 60.8203125 -29 59 C-25.61387158 57.87129053 -23.27268649 58.30494465 -19.7890625 58.73046875 C-10.91677276 59.5878749 -1.11940043 60.27572096 7 56 C10.95101513 52.58225071 13.66128158 49.12620446 14.23828125 43.80078125 C14.4647846 36.20695837 13.09919277 31.49352346 8.03515625 25.78515625 C-2.27406016 15.75039486 -15.86000817 10.34508142 -29 5 C-29 4.34 -29 3.68 -29 3 C-27.43979133 2.34865075 -25.87671421 1.70417036 -24.3125 1.0625 C-23.44238281 0.70285156 -22.57226562 0.34320313 -21.67578125 -0.02734375 C-15.35017244 -2.32672564 -5.89874097 -4.05538442 0 0 Z " fill="#E0325C" transform="translate(465,263)"/>
<path d="M0 0 C0.66 2.31 1.32 4.62 2 7 C2.928125 6.360625 3.85625 5.72125 4.8125 5.0625 C9.40286344 2.09226483 12.58541583 1.70465905 18 2 C18.66 2.66 19.32 3.32 20 4 C19.69216142 7.89928865 18.37791318 9.98754934 16 13 C16.74765625 13.02578125 17.4953125 13.0515625 18.265625 13.078125 C26.29435897 13.54051282 26.29435897 13.54051282 29.6875 15.75 C31.34453495 18.59063135 31.78638889 19.77580554 31 23 C28.08883306 25.84647434 25.87472029 27.70842657 22 29 C21.66226563 28.30132812 21.32453125 27.60265625 20.9765625 26.8828125 C20.53054688 25.97273438 20.08453125 25.06265625 19.625 24.125 C19.18414062 23.22007812 18.74328125 22.31515625 18.2890625 21.3828125 C17.09497301 18.90465528 17.09497301 18.90465528 15 17 C14.01 17 13.02 17 12 17 C13.17727455 19.55076153 14.44130312 21.59705716 16.125 23.875 C18.28242761 27.47071269 18.83697244 28.89883506 18 33 C13.71565793 40.8054815 5.69443313 43.38872782 -2.2890625 46.12890625 C-6.61671929 47.14476674 -10.51774083 47.22346936 -14.9375 47.125 C-15.71673828 47.11597656 -16.49597656 47.10695312 -17.29882812 47.09765625 C-19.19935447 47.07433691 -21.09972008 47.03847586 -23 47 C-24.87805357 41.12193622 -25.77511782 35.29908547 -26.5625 29.1875 C-26.75102539 27.78661133 -26.75102539 27.78661133 -26.94335938 26.35742188 C-27.75300565 20.2490434 -28.42484253 14.13473477 -29 8 C-23.78787879 4 -23.78787879 4 -20.25 4 C-17.48233945 5.23007136 -17.19288452 6.31058762 -16 9 C-15.44570313 8.43410156 -14.89140625 7.86820313 -14.3203125 7.28515625 C-13.59585937 6.55167969 -12.87140625 5.81820312 -12.125 5.0625 C-11.40570313 4.33160156 -10.68640625 3.60070312 -9.9453125 2.84765625 C-6.64994197 -0.28228403 -4.44249954 -0.09657608 0 0 Z " fill="#FC7898" transform="translate(436,191)"/>
<path d="M0 0 C3.0625 0.375 3.0625 0.375 5 2.125 C6.0625 4.375 6.0625 4.375 5.75 6.625 C5.523125 7.2025 5.29625 7.78 5.0625 8.375 C4.0725 8.045 3.0825 7.715 2.0625 7.375 C1.5675 6.385 1.5675 6.385 1.0625 5.375 C0.0725 5.705 -0.9175 6.035 -1.9375 6.375 C-2.63169897 8.45383627 -2.63169897 8.45383627 -2.9375 10.875 C-3.3125 13.34375 -3.3125 13.34375 -3.9375 15.375 C-4.9275 15.705 -5.9175 16.035 -6.9375 16.375 C-7.59854873 18.2840207 -7.59854873 18.2840207 -7.875 20.5625 C-9.01965303 26.42535699 -11.18454828 29.95771988 -15.875 33.75 C-20.56648936 36.2393617 -20.56648936 36.2393617 -23.9375 35.375 C-25.89873438 33.51074974 -27.32971611 31.57996077 -28.9375 29.375 C-29.2778125 30.30441406 -29.618125 31.23382813 -29.96875 32.19140625 C-32.83844122 39.65643371 -35.52819037 46.3754115 -42.9375 50.375 C-47.48336374 51.31552353 -49.24059762 50.74926239 -53.3125 48.5625 C-56.20976554 45.91181025 -56.45743801 43.38927927 -56.8125 39.5625 C-56.88099321 37.83418806 -56.93144165 36.10465799 -56.9375 34.375 C-57.53884766 34.95507812 -57.53884766 34.95507812 -58.15234375 35.546875 C-63.12811349 40.10517653 -68.42723873 44.07817703 -75.37109375 44.53515625 C-79.08503814 44.28512058 -81.36175367 43.77802243 -84.4375 41.625 C-86.15371186 39.0506822 -86.63291898 37.44768497 -86.9375 34.375 C-86.046875 31.8046875 -86.046875 31.8046875 -84.6875 29.25 C-84.24921875 28.40179688 -83.8109375 27.55359375 -83.359375 26.6796875 C-81.9375 24.375 -81.9375 24.375 -80.21484375 22.83984375 C-79.58255859 22.11474609 -79.58255859 22.11474609 -78.9375 21.375 C-79.01261187 19.26075493 -79.01261187 19.26075493 -79.75 17.0625 C-80.72862387 13.38815761 -81.13386113 10.204042 -80.9375 6.375 C-79.6175 6.045 -78.2975 5.715 -76.9375 5.375 C-76.77894531 6.17164063 -76.62039062 6.96828125 -76.45703125 7.7890625 C-75.02924663 14.27325564 -73.92405918 18.86335122 -68.9375 23.375 C-60.40205639 27.65016984 -49.68984069 26.065596 -40.875 23.3125 C-28.02593198 18.99117597 -11.59382814 1.48006317 0 0 Z " fill="#350656" transform="translate(152.9375,329.625)"/>
<path d="M0 0 C3.691298 2.93209487 5.82729165 6.28615582 7.125 10.8125 C7.97554678 19.11140644 7.97554678 19.11140644 6.125 22.8125 C6.65609375 22.65394531 7.1871875 22.49539062 7.734375 22.33203125 C15.02777029 20.74702868 23.03930847 20.68558867 29.5390625 24.62109375 C33.46022237 27.56679267 34.88835817 29.85015657 36.0625 34.625 C36.4563508 39.98743016 35.13981725 44.40016475 31.6796875 48.54296875 C24.32671135 55.46844629 16.42023578 56.15293523 6.65234375 55.91796875 C5.40130859 55.86576172 5.40130859 55.86576172 4.125 55.8125 C5.115 57.42125 5.115 57.42125 6.125 59.0625 C8.00795807 62.12230686 8.125 62.9460864 8.125 66.8125 C7.44397217 67.19583496 6.76294434 67.57916992 6.0612793 67.97412109 C2.97767067 69.71070594 -0.10492473 71.44908158 -3.1875 73.1875 C-4.25935547 73.79078125 -5.33121094 74.3940625 -6.43554688 75.015625 C-7.46357422 75.59570312 -8.49160156 76.17578125 -9.55078125 76.7734375 C-10.49864502 77.30759277 -11.44650879 77.84174805 -12.4230957 78.39208984 C-14.27944072 79.46748717 -16.08996679 80.62247786 -17.875 81.8125 C-19.95605469 81.66235352 -19.95605469 81.66235352 -21.875 80.8125 C-23.16001632 78.09805039 -24.17829 75.57805462 -25.125 72.75 C-25.393125 71.99138672 -25.66125 71.23277344 -25.9375 70.45117188 C-26.59771967 68.57661958 -27.23825109 66.69515428 -27.875 64.8125 C-30.19175312 64.62490301 -30.19175312 64.62490301 -32.8125 66.8125 C-37.60251736 69.61420827 -42.47939297 69.75880646 -47.875 68.8125 C-51.125 66.75 -51.125 66.75 -52.875 63.8125 C-52.75855009 60.37722756 -52.41245581 57.88741161 -50.875 54.8125 C-51.46667969 54.59335938 -52.05835937 54.37421875 -52.66796875 54.1484375 C-58.9605367 51.62319816 -62.76502062 49.03245876 -65.875 42.8125 C-66.63750806 35.97492772 -66.04494994 31.33486613 -61.875 25.8125 C-58.02625088 22.60520907 -53.78659254 21.84802689 -48.875 21.8125 C-46.86951072 22.11103622 -44.86776303 22.43832543 -42.875 22.8125 C-42.90980469 21.94367188 -42.94460937 21.07484375 -42.98046875 20.1796875 C-43.27742929 7.53765294 -43.27742929 7.53765294 -38.43359375 2.234375 C-27.91038978 -7.82492903 -11.97357378 -7.55688238 0 0 Z M-36.75 5.875 C-40.04253336 10.42644317 -40.27827796 14.3541797 -39.875 19.8125 C-39.33465619 22.84782262 -38.64858478 25.82867299 -37.875 28.8125 C-38.82375 28.3175 -39.7725 27.8225 -40.75 27.3125 C-45.40823914 25.33770897 -49.8891504 25.06503326 -54.875 25.8125 C-58.0888627 27.41943135 -60.04478419 28.75586169 -62.25 31.5625 C-63.2273507 35.08096253 -63.65633965 38.2501209 -62.875 41.8125 C-60.79999561 45.13505304 -58.40931872 48.04534064 -54.875 49.8125 C-53.0854531 49.90907872 -51.29214466 49.94230468 -49.5 49.9375 C-48.54351562 49.94007812 -47.58703125 49.94265625 -46.6015625 49.9453125 C-44.19359146 49.82801878 -42.17509932 49.49925951 -39.875 48.8125 C-39.875 49.8025 -39.875 50.7925 -39.875 51.8125 C-40.98875 52.1528125 -40.98875 52.1528125 -42.125 52.5 C-45.4835043 54.10292251 -46.90331528 55.67240952 -48.875 58.8125 C-49.37635199 61.44028044 -49.37635199 61.44028044 -48.875 63.8125 C-46.91269787 66.1863267 -46.91269787 66.1863267 -43.25 66.25 C-36.61508592 66.10523824 -31.95020808 61.64136274 -26.875 57.8125 C-26.67865967 58.35253662 -26.48231934 58.89257324 -26.2800293 59.44897461 C-25.38602779 61.88718443 -24.47454712 64.31848606 -23.5625 66.75 C-23.25376953 67.60013672 -22.94503906 68.45027344 -22.62695312 69.32617188 C-22.16772461 70.53950195 -22.16772461 70.53950195 -21.69921875 71.77734375 C-21.42166748 72.5262085 -21.14411621 73.27507324 -20.8581543 74.04663086 C-19.93818775 76.16646505 -19.93818775 76.16646505 -16.875 76.8125 C-14.49806283 75.83128548 -14.49806283 75.83128548 -11.98828125 74.28515625 C-11.05048828 73.74052734 -10.11269531 73.19589844 -9.14648438 72.63476562 C-8.17001953 72.05404297 -7.19355469 71.47332031 -6.1875 70.875 C-4.70540039 70.0097168 -4.70540039 70.0097168 -3.19335938 69.12695312 C-0.74843573 67.69779486 1.69054274 66.25939143 4.125 64.8125 C2.81178815 61.51022919 1.45237697 58.2436419 0 55 C-0.35320312 54.20980469 -0.70640625 53.41960937 -1.0703125 52.60546875 C-1.33585937 52.01378906 -1.60140625 51.42210937 -1.875 50.8125 C-0.885 51.1425 0.105 51.4725 1.125 51.8125 C4.18213646 52.11367693 7.24225017 52.13597788 10.3125 52.1875 C11.13814453 52.22488281 11.96378906 52.26226562 12.81445312 52.30078125 C19.13913884 52.3904931 23.23167266 50.83364878 28.125 46.8125 C31.02743307 43.5472628 32.36559696 41.0625755 32.625 36.75 C32.05593851 32.26864073 31.50300412 30.76825361 28.125 27.8125 C21.82280552 24.28440918 15.28011203 23.80132588 8.33203125 25.4921875 C5.90647462 26.21061753 3.51188431 26.97534642 1.125 27.8125 C1.455 27.07 1.785 26.3275 2.125 25.5625 C3.71202932 19.61114005 4.54129041 12.81451434 1.8515625 7.11328125 C0.0998943 4.77904467 -1.31754868 3.53744243 -3.8125 2.0625 C-4.48152344 1.65515625 -5.15054688 1.2478125 -5.83984375 0.828125 C-16.06654331 -4.27541029 -29.25597872 -2.56629925 -36.75 5.875 Z " fill="#2B0959" transform="translate(175.875,43.1875)"/>
<path d="M0 0 C4.20966195 2.86131585 6.89211747 6.49403168 8.09765625 11.42578125 C8.40541874 18.01417833 7.1042066 22.60457516 2.85546875 27.6640625 C0.1382622 30.38730729 -2.62162844 32.40687952 -5.90234375 34.42578125 C-6.56234375 34.42578125 -7.22234375 34.42578125 -7.90234375 34.42578125 C-6.72671875 35.97265625 -6.72671875 35.97265625 -5.52734375 37.55078125 C-1.54046781 43.22528366 -0.29944122 47.99058276 -1.1640625 54.88671875 C-2.46531426 59.3619232 -5.30980506 62.54043521 -8.90234375 65.42578125 C-14.64729042 68.28424252 -21.01228695 68.47822812 -27.18359375 66.80859375 C-34.03161669 63.83233763 -37.77338008 57.97613511 -40.90234375 51.42578125 C-46.22470805 58.57295617 -51.21221998 65.84830004 -55.90234375 73.42578125 C-60.20526611 72.92809384 -62.85389004 70.179536 -65.96484375 67.42578125 C-67.11775786 66.42623871 -68.2714171 65.42755505 -69.42578125 64.4296875 C-70.00424805 63.92711426 -70.58271484 63.42454102 -71.17871094 62.90673828 C-74.64309421 59.93011662 -78.20820162 57.07711448 -81.7578125 54.203125 C-83.90234375 52.42578125 -83.90234375 52.42578125 -85.90234375 50.42578125 C-85.90234375 49.43578125 -85.90234375 48.44578125 -85.90234375 47.42578125 C-82.00816582 45.4641434 -78.11171966 43.50705324 -74.21484375 41.55078125 C-72.5606543 40.71740234 -72.5606543 40.71740234 -70.87304688 39.8671875 C-69.80634766 39.33222656 -68.73964844 38.79726562 -67.640625 38.24609375 C-66.66134033 37.75383301 -65.68205566 37.26157227 -64.6730957 36.75439453 C-62.11647648 35.52846081 -59.54774813 34.44340688 -56.90234375 33.42578125 C-57.49402344 32.96429688 -58.08570313 32.5028125 -58.6953125 32.02734375 C-64.96496987 26.85206376 -70.18574827 21.43340361 -71.1875 13.03515625 C-70.96676712 7.84351892 -69.09243611 4.64791038 -65.66796875 0.8359375 C-61.08884333 -2.82128435 -56.32941551 -3.00813427 -50.68359375 -2.88671875 C-43.30466979 -2.05762617 -38.73501415 2.10984381 -33.90234375 7.42578125 C-33.40605469 6.88308594 -32.90976562 6.34039062 -32.3984375 5.78125 C-22.9043242 -4.21729436 -12.37439112 -6.96182068 0 0 Z M-30.87109375 9.77734375 C-32.16752377 11.5255952 -32.16752377 11.5255952 -31.90234375 14.42578125 C-34.90234375 13.42578125 -34.90234375 13.42578125 -36.71484375 10.67578125 C-39.85611328 6.00875223 -43.66126003 2.64391781 -48.90234375 0.42578125 C-53.62088976 -0.31202776 -57.04619739 -0.03400105 -61.27734375 2.23828125 C-65.21872811 5.1957806 -65.21872811 5.1957806 -67.40625 9.37109375 C-67.5882498 16.14148638 -65.3798505 20.41210247 -60.90234375 25.42578125 C-57.80239183 28.16407212 -54.60723946 30.5733334 -50.90234375 32.42578125 C-50.90234375 33.08578125 -50.90234375 33.74578125 -50.90234375 34.42578125 C-51.56242432 34.73805664 -52.22250488 35.05033203 -52.90258789 35.37207031 C-55.92470434 36.80378043 -58.94478111 38.2397442 -61.96484375 39.67578125 C-63.52235352 40.41248047 -63.52235352 40.41248047 -65.11132812 41.1640625 C-70.5037737 43.73189372 -75.770497 46.36851084 -80.90234375 49.42578125 C-74.17024169 56.38228671 -67.05278761 63.16195292 -58.90234375 68.42578125 C-58.24234375 68.42578125 -57.58234375 68.42578125 -56.90234375 68.42578125 C-55.54765495 66.81374411 -55.54765495 66.81374411 -54.22265625 64.69921875 C-53.70574219 63.91417969 -53.18882812 63.12914062 -52.65625 62.3203125 C-52.11871094 61.48886719 -51.58117187 60.65742188 -51.02734375 59.80078125 C-50.23263672 58.58841797 -50.23263672 58.58841797 -49.421875 57.3515625 C-46.54130714 52.95598455 -46.54130714 52.95598455 -43.69824219 48.53613281 C-41.11625531 44.53273703 -41.11625531 44.53273703 -38.90234375 43.42578125 C-38.77859375 44.14894531 -38.65484375 44.87210938 -38.52734375 45.6171875 C-37.03493015 52.32372113 -34.21424394 57.96119148 -28.58984375 62.05078125 C-24.04811863 64.71395229 -21.10156274 65.19287913 -15.90234375 64.42578125 C-11.71321003 62.81457597 -8.79841741 60.85816485 -5.90234375 57.42578125 C-4.534233 53.32144899 -4.1400972 49.70822095 -4.90234375 45.42578125 C-6.2469982 43.13101168 -7.72945834 41.23775842 -9.4921875 39.25 C-11.00575785 37.29200179 -11.48111547 35.84117883 -11.90234375 33.42578125 C-11.1546875 32.97847656 -10.40703125 32.53117187 -9.63671875 32.0703125 C-8.651875 31.46574219 -7.66703125 30.86117187 -6.65234375 30.23828125 C-5.6778125 29.64660156 -4.70328125 29.05492188 -3.69921875 28.4453125 C0.16893197 25.65224836 2.58351543 22.9682037 4.09765625 18.42578125 C4.47671668 13.80124396 4.55441933 11.37584845 2.53515625 7.17578125 C-1.82538056 2.25620126 -7.01001509 -0.28008363 -13.58984375 -0.94921875 C-21.15749975 -0.82424828 -26.21813685 4.30764442 -30.87109375 9.77734375 Z " fill="#2A0858" transform="translate(460.90234375,68.57421875)"/>
<path d="M0 0 C5.2747 2.67270322 9.41990771 5.3457491 12.4765625 10.4765625 C12.5390625 13.1640625 12.5390625 13.1640625 11.4765625 15.4765625 C6.13949186 20.45782843 -0.35464167 19.79699461 -7.1875 19.69140625 C-22.59761929 19.14274875 -38.22347288 13.97896528 -49.0859375 2.8515625 C-50.5234375 0.4765625 -50.5234375 0.4765625 -50.4609375 -1.6484375 C-42.92134906 -16.72761439 -11.28997618 -4.88147529 0 0 Z " fill="#FFF999" transform="translate(193.5234375,292.5234375)"/>
<path d="M0 0 C0 0.66 0 1.32 0 2 C0.66 2 1.32 2 2 2 C2.5242343 4.99562457 2.43229055 7.17610508 1.00390625 9.8984375 C-5.94388313 19.02981783 -19.15834261 24.15593603 -30 27 C-30.66386719 27.20238281 -31.32773437 27.40476562 -32.01171875 27.61328125 C-39.02096602 29.51782718 -46.81344338 29.95929149 -54 29 C-56.953125 26.9765625 -56.953125 26.9765625 -59 25 C-59.08079434 21.76822629 -58.51254059 19.64532313 -56.4921875 17.1015625 C-42.24570695 3.39677323 -19.42852591 -4.09021598 0 0 Z " fill="#FEF998" transform="translate(436,266)"/>
<path d="M0 0 C3.41894742 0.60565942 6.49254802 1.47312525 9.71875 2.75 C11.0958313 3.28536377 11.0958313 3.28536377 12.50073242 3.83154297 C13.49049072 4.21713379 14.48024902 4.60272461 15.5 5 C24.96706057 8.61775123 34.51208472 11.87021264 44.1875 14.875 C45.36699219 15.24367188 46.54648438 15.61234375 47.76171875 15.9921875 C58.69238736 19.34032023 69.29529331 22.57371759 80.8125 22.1875 C81.61236328 22.17396484 82.41222656 22.16042969 83.23632812 22.14648438 C85.15786245 22.11196579 87.07903744 22.05821099 89 22 C88.625 23.9375 88.625 23.9375 88 26 C84.79424578 27.60287711 81.27255237 27.23254576 77.7265625 27.328125 C74.0605097 28.23150764 73.21882863 30.01967989 71 33 C62.60149967 39.07803556 54.14749943 40.31962997 44 39 C40.63280433 38.11389588 37.93956692 36.84805779 35 35 C33.93845703 34.38125 33.93845703 34.38125 32.85546875 33.75 C26.55273015 29.63392581 23.06536449 23.92929837 21.4765625 16.578125 C21.23379394 14.7278349 21.10351529 12.86327524 21 11 C19.14375 10.6596875 19.14375 10.6596875 17.25 10.3125 C11.19074171 8.98854723 5.65108692 6.50521958 0 4 C0 2.68 0 1.36 0 0 Z " fill="#340B5A" transform="translate(182,252)"/>
<path d="M0 0 C4.77903287 2.52543388 7.93265 5.48774448 9.84765625 10.66796875 C11.6916521 17.78998863 10.21888573 22.93722854 7 29.375 C7.56203125 29.63023437 8.1240625 29.88546875 8.703125 30.1484375 C11.29386482 31.53192781 13.45107845 33.17438583 15.75 35 C16.54921875 35.63164062 17.3484375 36.26328125 18.171875 36.9140625 C18.77515625 37.39617187 19.3784375 37.87828125 20 38.375 C18.71188239 41.81896776 17.21630775 44.8448179 15.25 47.94921875 C14.46109375 49.19735352 14.46109375 49.19735352 13.65625 50.47070312 C13.1096875 51.32599609 12.563125 52.18128906 12 53.0625 C11.4534375 53.92939453 10.906875 54.79628906 10.34375 55.68945312 C6.26932303 62.10567697 6.26932303 62.10567697 4 64.375 C1.38419521 64.0480244 -0.64078137 63.55460932 -3 62.375 C-3.12955078 63.35339844 -3.12955078 63.35339844 -3.26171875 64.3515625 C-4.25516225 70.53096332 -5.38654126 74.07609526 -10 78.375 C-15.18105466 81.78978603 -21.08947099 83.14745018 -27.21484375 81.9375 C-31.77561547 80.44272193 -34.42162963 78.56485186 -37 74.375 C-37 73.715 -37 73.055 -37 72.375 C-37.54527344 72.72433594 -38.09054688 73.07367188 -38.65234375 73.43359375 C-44.70912684 77.08837056 -50.03673656 79.31399579 -57.16796875 77.96484375 C-62.37080421 76.33468705 -64.89940011 73.7910059 -68 69.375 C-69.73704155 65.9009169 -69.46041616 62.17343331 -69 58.375 C-66.78125592 53.93751184 -64.48679087 51.50032199 -60 49.375 C-59.34 49.375 -58.68 49.375 -58 49.375 C-58 48.715 -58 48.055 -58 47.375 C-58.556875 47.148125 -59.11375 46.92125 -59.6875 46.6875 C-63.43247381 44.56197432 -66.14250002 41.84499997 -68.3125 38.125 C-69.65062968 32.77248127 -69.99448113 27.62384315 -67.375 22.625 C-64.35192513 18.00462671 -60.12711903 14.46826622 -55 12.375 C-47.26978442 11.4252878 -41.59400308 12.26929997 -35 16.375 C-34.67 16.705 -34.34 17.035 -34 17.375 C-33.7525 16.17875 -33.505 14.9825 -33.25 13.75 C-31.9363738 8.71739153 -30.30666073 5.05944011 -25.97265625 1.89453125 C-17.86183876 -2.7984377 -8.75803594 -3.45366808 0 0 Z M-26.60546875 7 C-30.85218404 12.7098693 -30.51487887 18.50994835 -30 25.375 C-30.66386719 24.82070312 -31.32773437 24.26640625 -32.01171875 23.6953125 C-32.89472656 22.97085938 -33.77773438 22.24640625 -34.6875 21.5 C-35.55761719 20.78070313 -36.42773438 20.06140625 -37.32421875 19.3203125 C-42.30872643 15.69653903 -46.8689886 14.62525107 -53 15.375 C-58.37703601 17.20319224 -62.11159024 20.53294092 -65 25.375 C-66.56935186 30.07475212 -66.34423852 33.40785367 -64.6875 38.0625 C-61.21044059 43.31481861 -54.83166133 46.43111289 -49 48.375 C-48.67 49.035 -48.34 49.695 -48 50.375 C-49.7325 50.4678125 -49.7325 50.4678125 -51.5 50.5625 C-56.38281044 51.17067924 -60.293721 53.1472312 -64 56.375 C-65.81859606 59.2525254 -66.00313809 60.28870247 -65.875 63.8125 C-64.91522262 67.72016506 -63.82531228 69.54968772 -61 72.375 C-56.72311902 74.90548791 -52.86051542 75.15795384 -48 74.375 C-43.66924089 72.54039496 -39.90050031 69.97533354 -36 67.375 C-35.63648438 68.18904297 -35.63648438 68.18904297 -35.265625 69.01953125 C-34.93046875 69.73496094 -34.5953125 70.45039063 -34.25 71.1875 C-33.92515625 71.89519531 -33.6003125 72.60289062 -33.265625 73.33203125 C-31.75770056 75.76611916 -30.48179537 76.94421406 -28 78.375 C-22.75100133 79.25511911 -18.26711853 79.00855927 -13.5 76.625 C-9.32073958 72.9093089 -9.32073958 72.9093089 -7.63671875 67.75390625 C-7.65347656 66.82449219 -7.67023438 65.89507812 -7.6875 64.9375 C-7.69330078 63.54724609 -7.69330078 63.54724609 -7.69921875 62.12890625 C-8.01559817 59.23218556 -8.7968486 57.01618097 -10 54.375 C-9.22914062 54.808125 -8.45828125 55.24125 -7.6640625 55.6875 C-6.66117188 56.244375 -5.65828125 56.80125 -4.625 57.375 C-3.62726563 57.931875 -2.62953125 58.48875 -1.6015625 59.0625 C0.81195509 60.52514268 0.81195509 60.52514268 3 60.375 C4.51953385 58.46835841 4.51953385 58.46835841 6.0390625 56 C6.61914062 55.09765625 7.19921875 54.1953125 7.796875 53.265625 C8.40015625 52.31171875 9.0034375 51.3578125 9.625 50.375 C10.23601562 49.42109375 10.84703125 48.4671875 11.4765625 47.484375 C12.99070649 45.11852502 14.49815081 42.74866665 16 40.375 C13.20513866 37.50290588 10.49486894 34.832263 7.1875 32.5625 C6.135625 31.840625 5.08375 31.11875 4 30.375 C4.41733289 27.87100263 4.79758208 25.75080691 6.0078125 23.50390625 C7.84166255 19.56907051 7.72809665 15.60056091 7 11.375 C4.82706531 7.077063 1.63041516 4.36060909 -2.75 2.4375 C-11.34100645 -0.18570808 -20.08506813 0.40027577 -26.60546875 7 Z " fill="#290657" transform="translate(80,139.625)"/>
<path d="M0 0 C0.99 0 1.98 0 3 0 C3.66333649 8.12587197 1.6738256 17.65234881 -2 25 C14.82098355 27.01723608 14.82098355 27.01723608 31 23 C35.01084916 19.72583742 36.70937304 17.47929916 37.31640625 12.30078125 C37.43822266 10.82158203 37.43822266 10.82158203 37.5625 9.3125 C37.68818359 7.82169922 37.68818359 7.82169922 37.81640625 6.30078125 C37.87699219 5.54152344 37.93757813 4.78226562 38 4 C38.99 4.495 38.99 4.495 40 5 C40.58243451 15.91525424 40.58243451 15.91525424 37 21 C32.72726121 25.70227338 28.41962624 28.36839161 22 29 C13.61473628 29.37470381 5.3329958 28.95234238 -3 28 C-4.58621057 30.96641977 -5.70825096 33.62925663 -6 37 C-3.56499657 41.61245842 0.16571175 45.03756615 5 47 C8.5 47.5 8.5 47.5 12 47 C14.25065102 45.08333079 14.25065102 45.08333079 16 43 C16.99 43 17.98 43 19 43 C18.10219178 46.01990039 17.2874281 47.73870172 14.9375 49.875 C10.73108883 51.48596598 7.32086164 51.12618202 3 50 C-1.43984964 47.56243549 -5.16492716 44.28720529 -9 41 C-9.32871094 41.53367187 -9.65742188 42.06734375 -9.99609375 42.6171875 C-14.07045706 48.99925252 -18.82231407 54.48864098 -24 60 C-23.54109375 61.01835937 -23.0821875 62.03671875 -22.609375 63.0859375 C-12.2368171 86.73163777 -10.83027238 110.59349815 -10.8125 136.125 C-10.81141235 136.9752475 -10.81032471 137.825495 -10.8092041 138.70150757 C-10.81052799 147.84659917 -10.89301574 156.90718795 -12 166 C-13.32 166.33 -14.64 166.66 -16 167 C-16.01213028 165.9224369 -16.01213028 165.9224369 -16.02450562 164.82310486 C-16.10311452 157.98463595 -16.19059205 151.14632887 -16.28752708 144.30809689 C-16.33703857 140.7942222 -16.38336385 137.28037125 -16.421875 133.76635742 C-16.46650937 129.70734537 -16.5259594 125.64865832 -16.5859375 121.58984375 C-16.59748871 120.35483627 -16.60903992 119.1198288 -16.62094116 117.84739685 C-16.90492406 100.69507473 -19.08046759 82.92237989 -26.8515625 67.4296875 C-28.15014797 64.68234001 -29.0852817 61.8952093 -30 59 C-29.35933594 58.33355469 -28.71867187 57.66710937 -28.05859375 56.98046875 C-22.19144552 50.72858949 -17.25486009 44.49316494 -13 37 C-12.47664063 36.08863281 -11.95328125 35.17726563 -11.4140625 34.23828125 C-5.83295604 23.85515679 -2.62352335 12.6327682 -1 1 C-0.67 0.67 -0.34 0.34 0 0 Z " fill="#0C0809" transform="translate(440,294)"/>
<path d="M0 0 C0.99 0.33 1.98 0.66 3 1 C2.57379685 3.87687128 1.94316881 5.06571107 0 7.3125 C-2.51996184 10.69869872 -3 12.7893454 -3 17 C-0.64110181 23.08347427 4.11448017 25.09176501 9.859375 27.7421875 C20.68779283 32.0789419 32.84162419 32.37060379 44.09765625 29.45703125 C46.81950155 28.8031177 49.22546312 28.66164184 52 29 C54.1519437 32.22791555 54.20086443 33.28400809 54 37 C52.68 37 51.36 37 50 37 C50 35.68 50 34.36 50 33 C43.58671268 34.9239862 41.63283666 36.2577743 38 42 C34.85576239 44.53868074 31.78562331 45.89424302 27.75 46.4375 C25 46 25 46 23.1875 44.75 C21.8865605 42.832826 21.50475603 41.24130199 21 39 C20.43152344 39.42152344 19.86304688 39.84304688 19.27734375 40.27734375 C14.56622386 43.61995803 10.97438434 46 5 46 C2.125 45.1875 2.125 45.1875 0 44 C-1.38550197 41.22899606 -1.1877467 39.0665294 -1 36 C-0.34 35.01 0.32 34.02 1 33 C0.1646875 33.05220703 0.1646875 33.05220703 -0.6875 33.10546875 C-6.54486255 33.31324681 -10.68557357 32.51735989 -16 30 C-18.32749345 26.50875983 -18.50299316 25.10777749 -18 21 C-16.01250471 18.35000628 -14.64092028 17.2056907 -11.48046875 16.19140625 C-8.84078375 15.22302647 -8.84078375 15.22302647 -7.8125 12.79296875 C-7.544375 11.93316406 -7.27625 11.07335937 -7 10.1875 C-5.37169057 5.57618108 -3.73563281 3.11302734 0 0 Z " fill="#330455" transform="translate(83,246)"/>
<path d="M0 0 C5.06192823 3.5420937 9.40084269 6.93868503 13 12 C13 12.99 13 13.98 13 15 C13.66 15 14.32 15 15 15 C14.694458 18.360962 14.40636275 20.47940625 12.3046875 23.171875 C8.69200745 26.0375263 5.62347425 25.54556475 1.1640625 25.3828125 C-7.33791182 24.35417857 -13.48137277 20.31147404 -20 15 C-19.67 18.3 -19.34 21.6 -19 25 C-19.99 25.33 -20.98 25.66 -22 26 C-22.86625 27.0209375 -22.86625 27.0209375 -23.75 28.0625 C-26 30 -26 30 -29.375 30.5 C-35.6325526 29.6368893 -40.09725055 25.77208332 -44.0625 21.01171875 C-45.32308779 18.30670746 -44.92410691 16.94766015 -44.0625 14.125 C-43.16015625 11.8203125 -43.16015625 11.8203125 -42 10 C-38.61387158 8.87129053 -36.27268649 9.30494465 -32.7890625 9.73046875 C-23.93807463 10.58581632 -14.09157637 11.29772371 -6 7 C-3.64928815 4.87586279 -1.76831022 2.62371232 0 0 Z " fill="#DA315C" transform="translate(478,312)"/>
<path d="M0 0 C-0.33 2.97 -0.66 5.94 -1 9 C-1.99 9.33 -2.98 9.66 -4 10 C-4.66104873 11.9090207 -4.66104873 11.9090207 -4.9375 14.1875 C-6.08215303 20.05035699 -8.24704828 23.58271988 -12.9375 27.375 C-17.62898936 29.8643617 -17.62898936 29.8643617 -21 29 C-22.96123438 27.13574974 -24.39221611 25.20496077 -26 23 C-26.3403125 23.92941406 -26.680625 24.85882813 -27.03125 25.81640625 C-29.90094122 33.28143371 -32.59069037 40.0004115 -40 44 C-44.50081111 44.9312023 -46.33329945 44.32728936 -50.4375 42.3125 C-52.75182295 40.1951407 -52.99835383 39.01278949 -53.40625 35.84375 C-53.48478261 26.96956522 -53.48478261 26.96956522 -52 24 C-49.83984375 23.578125 -49.83984375 23.578125 -46.9375 23.25 C-30.51745684 20.7013914 -14.35251446 12.70012744 -2.3203125 1.21484375 C-1 0 -1 0 0 0 Z " fill="#FA285B" transform="translate(150,336)"/>
<path d="M0 0 C-0.63164109 4.67414404 -0.63164109 4.67414404 -2.625 6.4375 C-3.07875 6.953125 -3.5325 7.46875 -4 8 C-3.75455166 10.01267638 -3.39764263 12.01178687 -3 14 C-2.14152028 21.64707323 -3.31669455 27.75917324 -8 34 C-13.49738813 38.67277991 -18.34130955 41.35114047 -25.54296875 41.29296875 C-30.41446135 40.71210715 -34.55859114 38.44140886 -38 35 C-40.29089796 34.46146802 -42.58034054 34.11274024 -44.90625 33.7578125 C-47 33 -47 33 -48.28125 30.9296875 C-48.5184375 30.29289062 -48.755625 29.65609375 -49 29 C-46 28 -46 28 -42.9375 28.75 C-33.73862669 29.33405545 -26.90582292 22.59181169 -20.33837891 16.88500977 C-15.62247608 12.68500945 -11.13959557 8.26331974 -6.81884766 3.65795898 C-3.31619386 0 -3.31619386 0 0 0 Z " fill="#350B59" transform="translate(404,235)"/>
<path d="M0 0 C5.54653236 0.32874584 9.31047198 2.67428605 13.875 5.5625 C14.56335938 5.98724609 15.25171875 6.41199219 15.9609375 6.84960938 C17.64600952 7.8910775 19.32377031 8.94435916 21 10 C17.5326271 18.45427098 13.74147241 25.31938004 5 29 C-1.58050735 30.11744464 -6.58250352 27.49930143 -12 24 C-16.23368932 20.5656786 -20.14780958 16.85219042 -24 13 C-23.30849854 12.64172119 -22.61699707 12.28344238 -21.90454102 11.91430664 C-18.7895148 10.29898162 -15.67599157 8.68078087 -12.5625 7.0625 C-11.47388672 6.49853516 -10.38527344 5.93457031 -9.26367188 5.35351562 C-8.22919922 4.81533203 -7.19472656 4.27714844 -6.12890625 3.72265625 C-4.69140015 2.97640991 -4.69140015 2.97640991 -3.22485352 2.21508789 C-1.09189487 1.1857807 -1.09189487 1.1857807 0 0 Z " fill="#F47D9A" transform="translate(320,420)"/>
<path d="M0 0 C4.45925623 -0.66888843 6.73559164 0.21517265 10.25 2.8125 C12.78929961 4.80555492 14.17540969 6.26311453 16 9 C16.66 7.35 17.32 5.7 18 4 C22.42296645 3.33655503 24.7390338 4.20006469 28.25 6.75 C31.06390052 8.90950505 32.60650058 10.72954217 34 14 C33.06542969 13.855625 32.13085938 13.71125 31.16796875 13.5625 C16.48077498 11.42776653 -0.2399827 9.18330431 -14 16 C-18.30827455 19.24993754 -20.13416678 24.08991257 -22 29 C-29.47508306 25.51162791 -29.47508306 25.51162791 -31 23 C-30.875 19.4375 -30.875 19.4375 -30 16 C-26.71508627 13.81005752 -25.16904361 13.64722661 -21.3125 13.375 C-20.31863281 13.30023438 -19.32476562 13.22546875 -18.30078125 13.1484375 C-17.54152344 13.09945312 -16.78226563 13.05046875 -16 13 C-16.680625 12.0925 -17.36125 11.185 -18.0625 10.25 C-20 7 -20 7 -19.8125 4.6875 C-19 3 -19 3 -18 2 C-11.11217255 1.27496553 -7.49459177 2.90828272 -2 7 C-1.34 4.69 -0.68 2.38 0 0 Z " fill="#FE295B" transform="translate(97,231)"/>
<path d="M0 0 C0.66 2.31 1.32 4.62 2 7 C2.928125 6.360625 3.85625 5.72125 4.8125 5.0625 C9.40286344 2.09226483 12.58541583 1.70465905 18 2 C18.66 2.66 19.32 3.32 20 4 C19.69216142 7.89928865 18.37791318 9.98754934 16 13 C16.74765625 13.02578125 17.4953125 13.0515625 18.265625 13.078125 C26.29435897 13.54051282 26.29435897 13.54051282 29.6875 15.75 C31.34453495 18.59063135 31.78638889 19.77580554 31 23 C28.08883306 25.84647434 25.87472029 27.70842657 22 29 C21.69707031 28.31292969 21.39414062 27.62585938 21.08203125 26.91796875 C20.66308594 26.01691406 20.24414062 25.11585938 19.8125 24.1875 C19.40644531 23.29417969 19.00039063 22.40085938 18.58203125 21.48046875 C15.30057514 16.33546966 9.2391088 14.59740309 3.6484375 12.7890625 C-6.85092914 10.51832153 -18.4238013 11.69544686 -29 13 C-29.16796875 10.6484375 -29.16796875 10.6484375 -29 8 C-26.05829959 5.40035778 -24.23389726 4 -20.25 4 C-17.48233945 5.23007136 -17.19288452 6.31058762 -16 9 C-15.44570313 8.43410156 -14.89140625 7.86820313 -14.3203125 7.28515625 C-13.59585937 6.55167969 -12.87140625 5.81820312 -12.125 5.0625 C-11.40570313 4.33160156 -10.68640625 3.60070312 -9.9453125 2.84765625 C-6.64994197 -0.28228403 -4.44249954 -0.09657608 0 0 Z " fill="#FE285C" transform="translate(436,191)"/>
<path d="M0 0 C6.89645244 1.42611825 13.53527054 3.32537077 20.25 5.4375 C28.44483718 7.97882472 36.58302097 10.30367985 45 12 C41.42490006 16.69669992 38.71668423 19.38385468 33 21 C23.73315032 22.1157411 15.63287739 21.70050337 8 16 C3.79714713 12.38323304 0.799481 9.12694954 0.0625 3.5 C0.041875 2.345 0.02125 1.19 0 0 Z " fill="#EEEFF0" transform="translate(208,266)"/>
<path d="M0 0 C0.99 0 1.98 0 3 0 C3.66333649 8.12587197 1.6738256 17.65234881 -2 25 C14.82098355 27.01723608 14.82098355 27.01723608 31 23 C35.01084916 19.72583742 36.70937304 17.47929916 37.31640625 12.30078125 C37.43822266 10.82158203 37.43822266 10.82158203 37.5625 9.3125 C37.68818359 7.82169922 37.68818359 7.82169922 37.81640625 6.30078125 C37.87699219 5.54152344 37.93757813 4.78226562 38 4 C38.99 4.495 38.99 4.495 40 5 C40.58243451 15.91525424 40.58243451 15.91525424 37 21 C32.72726121 25.70227338 28.41962624 28.36839161 22 29 C13.61473628 29.37470381 5.3329958 28.95234238 -3 28 C-4.58621057 30.96641977 -5.70825096 33.62925663 -6 37 C-3.56499657 41.61245842 0.16571175 45.03756615 5 47 C8.5 47.5 8.5 47.5 12 47 C14.25065102 45.08333079 14.25065102 45.08333079 16 43 C16.99 43 17.98 43 19 43 C18.10219178 46.01990039 17.2874281 47.73870172 14.9375 49.875 C10.73108883 51.48596598 7.32086164 51.12618202 3 50 C-1.43984964 47.56243549 -5.16492716 44.28720529 -9 41 C-9.32871094 41.53367187 -9.65742188 42.06734375 -9.99609375 42.6171875 C-14.07045706 48.99925252 -18.82231407 54.48864098 -24 60 C-25.32 59.34 -26.64 58.68 -28 58 C-27.6596875 57.55011719 -27.319375 57.10023438 -26.96875 56.63671875 C-25.92141373 55.24676981 -24.87897035 53.8531284 -23.83984375 52.45703125 C-22.59700546 50.7972748 -21.33870558 49.14900092 -20.06640625 47.51171875 C-9.48126627 33.58390299 -3.42111934 18.23396765 -1 1 C-0.67 0.67 -0.34 0.34 0 0 Z " fill="#300455" transform="translate(440,294)"/>
<path d="M0 0 C2.47894956 1.10175536 4.3245446 2.266293 6.4375 4 C11.58663484 8.01883695 16.67141982 8.47606526 23 9 C21.0490686 15.02920822 17.13459359 17.60313451 12 21 C7.02846819 23.48576591 2.31191607 23.39362057 -3 22 C-5.76470774 20.06470458 -6.72306757 18.87498862 -7.734375 15.6796875 C-8.06440243 12.35029314 -7.31035538 10.80739201 -5.75 7.875 C-5.31171875 7.02679688 -4.8734375 6.17859375 -4.421875 5.3046875 C-3.11815178 3.19150975 -1.83648882 1.65283994 0 0 Z " fill="#FB285B" transform="translate(74,351)"/>
<path d="M0 0 C2.81537443 0.17781312 5.5754238 0.42978704 8.375 0.75 C9.15617187 0.82476562 9.93734375 0.89953125 10.7421875 0.9765625 C11.495 1.06164062 12.2478125 1.14671875 13.0234375 1.234375 C13.71356934 1.30881836 14.40370117 1.38326172 15.11474609 1.45996094 C17.50520112 2.14471703 18.46102123 3.06479796 20 5 C21.34886913 8.90462116 22 11.85229852 22 16 C21.01 16.33 20.02 16.66 19 17 C18.13375 18.0209375 18.13375 18.0209375 17.25 19.0625 C15 21 15 21 11.625 21.5 C5.36027496 20.6359 0.90969356 16.76504206 -3.0703125 12.01171875 C-4.33057637 9.28467719 -3.86060219 7.94359844 -2.9375 5.125 C-1.34017595 1.34017595 -1.34017595 1.34017595 0 0 Z " fill="#DD315B" transform="translate(437,321)"/>
<path d="M0 0 C1.32 0.33 2.64 0.66 4 1 C3.67 1.33 3.34 1.66 3 2 C2.66656449 4.45792029 2.66656449 4.45792029 3 7 C3.99 7.66 4.98 8.32 6 9 C6.35919668 10.66128463 6.68911632 12.32900023 7 14 C9.61302174 20.14828645 15.13101522 22.82898581 21.0625 25.25 C24.0978875 26.09357196 24.0978875 26.09357196 27.6875 26.4375 C31 27 31 27 32.9375 28.3125 C34 30 34 30 34 34 C33.01 34 32.02 34 31 34 C30.67 33.34 30.34 32.68 30 32 C28.23966377 30.9751247 28.23966377 30.9751247 26 31 C25.21625 31.66 24.4325 32.32 23.625 33 C21 35 21 35 17.8125 35 C15 34 15 34 13 30 C9.7 30 6.4 30 3 30 C2 23.25 2 23.25 2 21 C1.030625 20.525625 0.06125 20.05125 -0.9375 19.5625 C-4 18 -4 18 -5 17 C-5.04063832 15.33382885 -5.042721 13.66611905 -5 12 C-3.02 11.01 -1.04 10.02 1 9 C0.34 8.34 -0.32 7.68 -1 7 C-0.625 3.375 -0.625 3.375 0 0 Z " fill="#410856" transform="translate(108,200)"/>
<path d="M0 0 C1.26660973 1.8999146 2.48265955 3.83537229 3.625 5.8125 C10.13974305 14.55597093 18.95136746 17.04298053 29 20 C25.51269116 23.58124308 22.76452624 26.28477055 18 28 C14.125 27.6875 14.125 27.6875 11 27 C8.875 20.25 8.875 20.25 10 18 C9.1646875 18.05220703 9.1646875 18.05220703 8.3125 18.10546875 C2.45513745 18.31324681 -1.68557357 17.51735989 -7 15 C-9.32749345 11.50875983 -9.50299316 10.10777749 -9 6 C-6.50108551 2.66811401 -3.91020436 1.30340145 0 0 Z " fill="#F1265A" transform="translate(74,261)"/>
<path d="M0 0 C1.40134082 0.73965843 2.79954101 1.48552597 4.1875 2.25 C4.1875 3.24 4.1875 4.23 4.1875 5.25 C-0.32434915 4.65114219 -4.16355332 3.46043407 -8.375 1.75 C-19.05128834 -2.57584592 -27.01154072 -2.96871484 -37.7265625 1.48266602 C-48.30769763 6.08960617 -58.83380007 11.40709109 -68.1484375 18.25390625 C-69.8125 19.25 -69.8125 19.25 -72.8125 19.25 C-72.8125 17.93 -72.8125 16.61 -72.8125 15.25 C-70.87915039 13.62182617 -70.87915039 13.62182617 -68.16015625 12.04296875 C-67.16330811 11.45926514 -66.16645996 10.87556152 -65.1394043 10.27416992 C-64.06215088 9.66806885 -62.98489746 9.06196777 -61.875 8.4375 C-60.78936768 7.81528564 -59.70373535 7.19307129 -58.58520508 6.55200195 C-38.05693837 -5.00526844 -22.30604935 -11.07414897 0 0 Z " fill="#350857" transform="translate(357.8125,294.75)"/>
<path d="M0 0 C1.87582885 3.7516577 1.52557153 7.91487584 1 12 C-1.22886816 17.64902793 -4.65682202 21.09609892 -10 24 C-14.12423032 25.37474344 -17.9216303 25.92416827 -22.01171875 24.10546875 C-23.71039398 23.13036715 -25.36007781 22.07096959 -27 21 C-23.6720191 18.28853355 -20.27013565 15.76733144 -16.75 13.3125 C-11.92095912 9.8426479 -7.83136624 6.02743005 -3.77734375 1.6875 C-2 0 -2 0 0 0 Z " fill="#EBEAED" transform="translate(396,247)"/>
<path d="M0 0 C3.60296594 -0.41176754 4.78402067 -0.1535853 7.8125 2 C8.534375 2.66 9.25625 3.32 10 4 C10.33 3.34 10.66 2.68 11 2 C13.25 2.1875 13.25 2.1875 16 3 C17.33333333 4.66666667 18.66666667 6.33333333 20 8 C22.63460948 8.87943404 22.63460948 8.87943404 25 9 C25.33 10.32 25.66 11.64 26 13 C26.66 13 27.32 13 28 13 C28 13.99 28 14.98 28 16 C25.36352728 14.97042853 22.77423223 13.89594502 20.203125 12.7109375 C14.16954253 9.98145971 8.69135241 7.61607423 2 9 C-0.26454073 10.46771271 -0.26454073 10.46771271 -2 12 C-4.25 11.6875 -4.25 11.6875 -6 11 C-6 9.35 -6 7.7 -6 6 C-1.125 5 -1.125 5 0 5 C0 3.35 0 1.7 0 0 Z " fill="#FC2A5D" transform="translate(116,196)"/>
<path d="M0 0 C7.73568382 -0.47120917 14.4141567 -0.49730948 21 4 C23.85344046 7.13182489 24.84328546 9.09453821 25.5625 13.25 C24.78689102 18.42072652 22.54672877 22.47955643 20 27 C19.01 27 18.02 27 17 27 C17.42202732 23.97547086 17.86403146 21.31992598 19.0625 18.5 C20.21933457 15.41510782 20.41750699 13.27047141 20 10 C17.60374319 6.83351779 15.82082303 5.71967557 12 5 C9.75292759 4.7801777 7.50228762 4.59516013 5.25 4.4375 C4.07953125 4.35371094 2.9090625 4.26992187 1.703125 4.18359375 C0.81109375 4.12300781 -0.0809375 4.06242188 -1 4 C-0.67 2.68 -0.34 1.36 0 0 Z " fill="#390B59" transform="translate(199,193)"/>
<path d="M0 0 C0.99 0 1.98 0 3 0 C3.49918744 6.76676302 3.3659879 12.50443964 -1 18 C-6.73422712 22.49615535 -12.89485533 23.85617549 -20 23 C-23.14139218 21.91496409 -26.06510021 20.55417861 -29 19 C-29 18.01 -29 17.02 -29 16 C-28.07380859 16.2165625 -28.07380859 16.2165625 -27.12890625 16.4375 C-20.08267889 17.9818786 -13.59247132 19.19749044 -6.625 16.875 C-3.30988197 14.50705855 -2.35214889 12.84294948 -1 9 C-0.5010355 6.00621301 -0.19513239 3.02791637 0 0 Z " fill="#360858" transform="translate(232,165)"/>
<path d="M0 0 C0.99 0 1.98 0 3 0 C2.36789223 3.22592933 1.18469547 5.48236274 -0.5625 8.25 C-3.18177972 12.89292149 -3.88173818 15.70957094 -3 21 C0.62259219 26.3131352 6.14749674 27.96582896 12 30 C11.67 30.99 11.34 31.98 11 33 C4.07697402 32.56731088 -1.22141702 30.0474781 -5.9375 24.875 C-8.20776213 20.86865507 -8.3713106 17.52998934 -8 13 C-6.22689645 8.15841674 -3.59290236 3.70880244 0 0 Z " fill="#360958" transform="translate(251,169)"/>
<path d="M0 0 C1.4375 2.25 1.4375 2.25 2 5 C0.74193548 9.25806452 0.74193548 9.25806452 -1 11 C-7.1034645 11.61034645 -10.1092178 10.38592614 -15 7 C-16.03767178 5.69577033 -17.0465437 4.36700361 -18 3 C-15.94237091 2.29805625 -13.87863969 1.61398303 -11.8125 0.9375 C-10.66394531 0.55464844 -9.51539063 0.17179688 -8.33203125 -0.22265625 C-5.00223571 -0.99947842 -3.19930584 -1.12610946 0 0 Z " fill="#F5275B" transform="translate(448,238)"/>
<path d="M0 0 C0.64066406 0.19335938 1.28132813 0.38671875 1.94140625 0.5859375 C6.95110985 2.0940748 11.96539857 3.57717786 17 5 C13.63284522 8.66425668 10.7187525 11.3012491 6 13 C2.125 12.6875 2.125 12.6875 -1 12 C-2.1875 8.8125 -2.1875 8.8125 -3 5 C-1.625 2.0625 -1.625 2.0625 0 0 Z " fill="#F7275B" transform="translate(86,276)"/>
<path d="M0 0 C5.01926323 1.81930315 5.01926323 1.81930315 7.2265625 3.23828125 C8.0078125 5.37890625 8.0078125 5.37890625 8.2265625 7.23828125 C5.2520756 6.82323657 2.65506784 6.43516208 -0.0859375 5.17578125 C-4.00997162 3.80693214 -7.67892362 3.37183917 -11.7734375 4.23828125 C-15.40390602 8.05492764 -16.57330175 12.23771562 -17.7734375 17.23828125 C-18.7634375 17.23828125 -19.7534375 17.23828125 -20.7734375 17.23828125 C-20.45381723 10.04682522 -19.00132757 5.82482577 -14.0859375 0.36328125 C-9.46783754 -1.88336198 -4.85306295 -1.33288349 0 0 Z " fill="#360958" transform="translate(250.7734375,205.76171875)"/>
<path d="M0 0 C2.9375 0.9375 2.9375 0.9375 6 3 C7.09195165 6.00706685 7.56113731 8.83930823 7 12 C4.61604475 14.7133963 3.16438535 14.98605328 -0.453125 15.29296875 C-1.70609375 15.25816406 -2.9590625 15.22335938 -4.25 15.1875 C-5.51328125 15.16042969 -6.7765625 15.13335937 -8.078125 15.10546875 C-9.04234375 15.07066406 -10.0065625 15.03585938 -11 15 C-10.22011719 14.38898438 -9.44023437 13.77796875 -8.63671875 13.1484375 C-3.96321195 9.34039492 -1.62110105 5.80894544 0 0 Z " fill="#F6275B" transform="translate(458,221)"/>
<path d="M0 0 C0.66 0 1.32 0 2 0 C1.53510354 8.36813634 -1.21077189 15.73843983 -7.375 21.625 C-9.98438613 23.61175603 -11.20468789 24.03950117 -14.5625 24.6875 C-19.1233135 23.7753373 -20.80373695 22.35217832 -24 19 C-24 18.01 -24 17.02 -24 16 C-21.53199953 17.15173355 -19.95216435 18.04783565 -18 20 C-13.86354143 20.54632472 -11.77498311 20.54068589 -8.3125 18.125 C-5.27719644 14.02323843 -3.70770693 9.77263073 -2 5 C-1.33933281 3.33094605 -0.67434235 1.66357585 0 0 Z " fill="#330252" transform="translate(121,356)"/>
<path d="M0 0 C3.31656348 0.5828614 5.98194318 1.98404211 8.92431641 3.57861328 C17.01201208 7.95681101 17.01201208 7.95681101 26 8 C28.81266973 6.55760527 29.72684695 5.7966964 30.75 2.8125 C30.8325 2.214375 30.915 1.61625 31 1 C31.99 1 32.98 1 34 1 C33.694458 4.360962 33.40636275 6.47940625 31.3046875 9.171875 C27.69329352 12.03650616 24.62578194 11.54418109 20.16796875 11.38671875 C12.38910697 10.4371413 5.97832946 6.93861999 0 2 C0 1.34 0 0.68 0 0 Z " fill="#300253" transform="translate(459,326)"/>
<path d="M0 0 C-2.43717465 5.74476881 -7.47986676 8.76674331 -12.9375 11.4375 C-17.13499651 12.20846875 -20.86490902 12.08487178 -25 11 C-27.97964239 8.91425032 -28.79654283 7.74600961 -29.75 4.25 C-29.8325 3.5075 -29.915 2.765 -30 2 C-29.01 2 -28.02 2 -27 2 C-26.566875 3.2065625 -26.566875 3.2065625 -26.125 4.4375 C-25.26737432 7.1326468 -25.26737432 7.1326468 -23 8 C-16.37465287 8.82816839 -11.59249835 6.47086873 -6 3 C-5.46890625 2.44957031 -4.9378125 1.89914062 -4.390625 1.33203125 C-3 0 -3 0 0 0 Z " fill="#330252" transform="translate(96,362)"/>
<path d="M0 0 C4.95 0 9.9 0 15 0 C12.89517921 4.20964159 12.10869472 5.0889792 8 7 C4.72468174 7.47931487 3.48226337 7.31281949 0.6875 5.5 C0.130625 5.005 -0.42625 4.51 -1 4 C-0.67 2.68 -0.34 1.36 0 0 Z " fill="#F9275B" transform="translate(106,282)"/>
<path d="M0 0 C1.32 0.33 2.64 0.66 4 1 C3.67 1.33 3.34 1.66 3 2 C2.66656449 4.45792029 2.66656449 4.45792029 3 7 C3.99 7.66 4.98 8.32 6 9 C6 9.66 6 10.32 6 11 C5.34 11 4.68 11 4 11 C4 13.31 4 15.62 4 18 C0.32579134 17.69381595 -0.78135513 17.24228216 -3.3125 14.4375 C-3.869375 13.633125 -4.42625 12.82875 -5 12 C-3.02 11.01 -1.04 10.02 1 9 C0.34 8.34 -0.32 7.68 -1 7 C-0.625 3.375 -0.625 3.375 0 0 Z " fill="#F7265A" transform="translate(108,200)"/>
<path d="M0 0 C4.29 0 8.58 0 13 0 C14 4 14 4 13 5.75 C9.86109305 7.71181684 7.61035323 7.50671624 4 7 C1.5625 4.625 1.5625 4.625 0 2 C0 1.34 0 0.68 0 0 Z " fill="#FA285B" transform="translate(414,242)"/>
<path d="M0 0 C0.66 0.33 1.32 0.66 2 1 C2.58243451 11.91525424 2.58243451 11.91525424 -1 17 C-5.99535278 22.4975311 -10.9090313 24.7563297 -18.28515625 25.109375 C-20.19040561 25.12281591 -22.09591718 25.06800296 -24 25 C-20.64024223 23.13529337 -17.26129112 22.19237389 -13.5625 21.1875 C-8.3195761 19.61050381 -5.20089051 18.45838321 -2 14 C-0.99740493 10.99221479 -0.69685358 8.46179353 -0.4375 5.3125 C-0.35371094 4.31863281 -0.26992188 3.32476562 -0.18359375 2.30078125 C-0.09271484 1.16189453 -0.09271484 1.16189453 0 0 Z " fill="#370958" transform="translate(478,298)"/>
<path d="M0 0 C7.90069513 -0.45580933 7.90069513 -0.45580933 11.5625 1.0625 C13.7214109 3.97233643 13.26484554 6.4907966 13 10 C9 10 9 10 7.40234375 8.57421875 C6.91894531 7.95160156 6.43554688 7.32898438 5.9375 6.6875 C4.06091143 4.31314258 2.18032762 2.10268985 0 0 Z " fill="#DC315B" transform="translate(423,255)"/>
<path d="M0 0 C0.66 0 1.32 0 2 0 C1.96519531 0.62648438 1.93039063 1.25296875 1.89453125 1.8984375 C1.86746094 2.71570313 1.84039062 3.53296875 1.8125 4.375 C1.77769531 5.18710937 1.74289063 5.99921875 1.70703125 6.8359375 C1.80371094 7.55007813 1.90039062 8.26421875 2 9 C5.63719605 11.42479736 7.85703482 11.38662577 12.1875 11.625 C13.45980469 11.69976562 14.73210937 11.77453125 16.04296875 11.8515625 C17.01878906 11.90054687 17.99460937 11.94953125 19 12 C18.67 12.66 18.34 13.32 18 14 C11.33686661 15.72747903 6.08305761 15.04152881 0 12 C-2.31332486 8.53001271 -2.33957563 7.07490752 -2 3 C-1.34 2.01 -0.68 1.02 0 0 Z " fill="#2C0152" transform="translate(67,264)"/>
<path d="M0 0 C0.99 0.33 1.98 0.66 3 1 C1.83192467 8.77692261 0.42835527 14.22813829 -5.9375 19.375 C-9.02303514 21.01222273 -10.58279506 21.40202411 -14 21 C-14 20.34 -14 19.68 -14 19 C-13.45730469 18.75765625 -12.91460937 18.5153125 -12.35546875 18.265625 C-11.64003906 17.93046875 -10.92460937 17.5953125 -10.1875 17.25 C-9.12595703 16.76273437 -9.12595703 16.76273437 -8.04296875 16.265625 C-3.69395036 13.57139563 -2.51536298 10.0614519 -1.3125 5.25 C-1.06113281 4.26515625 -0.80976563 3.2803125 -0.55078125 2.265625 C-0.36902344 1.51796875 -0.18726563 0.7703125 0 0 Z " fill="#320253" transform="translate(143,344)"/>
<path d="M0 0 C0 3 0 3 -2.25 5.5625 C-5.69348416 8.61467914 -7.48693838 9.84560596 -12.0625 10.3125 C-15 10 -15 10 -16.875 8.6875 C-18 7 -18 7 -18 4 C-17.484375 4.350625 -16.96875 4.70125 -16.4375 5.0625 C-12.87465917 6.43282339 -10.68376045 5.93654927 -7 5 C-4.46849219 3.50276581 -2.3119812 1.8401483 0 0 Z " fill="#300251" transform="translate(123,282)"/>
<path d="M0 0 C3.98264458 0.44251606 6.7971409 2.74344018 10 5 C6.77208445 7.1519437 5.71599191 7.20086443 2 7 C1.87625 6.195625 1.7525 5.39125 1.625 4.5625 C1.315625 3.2940625 1.315625 3.2940625 1 2 C0.34 1.67 -0.32 1.34 -1 1 C-0.67 0.67 -0.34 0.34 0 0 Z " fill="#EB255B" transform="translate(112,221)"/>
<path d="M0 0 C0.99 0 1.98 0 3 0 C2.70770032 3.21529643 2.25083694 5.56673619 0.625 8.375 C-3.62006964 11.00290025 -8.13627638 10.30188629 -13 10 C-13 9.67 -13 9.34 -13 9 C-9.7 9 -6.4 9 -3 9 C-2.67 7.68 -2.34 6.36 -2 5 C-1.3530635 3.3255761 -0.69040574 1.65697379 0 0 Z " fill="#4A0A54" transform="translate(490,327)"/>
<path d="M0 0 C1.98 0.495 1.98 0.495 4 1 C3.67 1.33 3.34 1.66 3 2 C2.66656449 4.45792029 2.66656449 4.45792029 3 7 C3.99 7.66 4.98 8.32 6 9 C6 9.66 6 10.32 6 11 C3.75547595 10.6130131 2.12945819 10.08035336 0.1875 8.875 C-1.70700885 5.88367023 -0.69092577 3.32900597 0 0 Z " fill="#430654" transform="translate(108,200)"/>
<path d="M0 0 C-3.88309282 3.64775386 -6.71201818 4.58525633 -12 5 C-12 4.34 -12 3.68 -12 3 C-10.75823305 2.29773859 -9.50614401 1.61370891 -8.25 0.9375 C-7.20585937 0.36322266 -7.20585937 0.36322266 -6.140625 -0.22265625 C-3.63859372 -1.1312406 -2.4667645 -0.88336837 0 0 Z " fill="#3F0554" transform="translate(141,360)"/>
<path d="M0 0 C-5.14086661 3.42724441 -10.00797796 3.1015597 -16 3 C-11.08294543 0.13171817 -5.53605896 -1.7423757 0 0 Z " fill="#400E5B" transform="translate(470,320)"/>
<path d="M0 0 C3.49734228 0.38859359 6.65788261 0.88596087 10 2 C8.375 3.5625 8.375 3.5625 6 5 C2.75 4.6875 2.75 4.6875 0 4 C-0.33 3.01 -0.66 2.02 -1 1 C-0.67 0.67 -0.34 0.34 0 0 Z " fill="#380451" transform="translate(123,230)"/>
<path d="M0 0 C2.64 0.33 5.28 0.66 8 1 C7.67 1.99 7.34 2.98 7 4 C3.95613276 4.08226668 1.92824652 3.97608217 -1 3 C-0.67 2.01 -0.34 1.02 0 0 Z " fill="#EC255B" transform="translate(123,228)"/>
<path d="M0 0 C-1.49097658 3.7952131 -3.75700849 5.61042731 -7 8 C-7.66 7.67 -8.32 7.34 -9 7 C-8.07347299 5.82460004 -7.13336613 4.65989423 -6.1875 3.5 C-5.66542969 2.8503125 -5.14335938 2.200625 -4.60546875 1.53125 C-3 0 -3 0 0 0 Z " fill="#290153" transform="translate(96,362)"/>
<path d="M0 0 C0.99 0.33 1.98 0.66 3 1 C2.8125 3.375 2.8125 3.375 2 6 C-0.5625 7.3125 -0.5625 7.3125 -3 8 C-1.125 2.25 -1.125 2.25 0 0 Z " fill="#491C65" transform="translate(419,433)"/>
<path d="M0 0 C0.99 0 1.98 0 3 0 C3.66 2.31 4.32 4.62 5 7 C3.68 7 2.36 7 1 7 C0.67 4.69 0.34 2.38 0 0 Z " fill="#6A0B51" transform="translate(110,223)"/>
<path d="M0 0 C0 0.66 0 1.32 0 2 C-2.76250036 3.38125018 -4.94731099 3.19079306 -8 3 C-8.66 2.34 -9.32 1.68 -10 1 C-6.56484998 0.37542727 -3.50935186 0 0 0 Z " fill="#2B0053" transform="translate(123,227)"/>
<path d="M0 0 C0 3 0 3 -2.5 5.6875 C-3.325 6.450625 -4.15 7.21375 -5 8 C-5.66 7.67 -6.32 7.34 -7 7 C-4.66666667 4.66666667 -2.33333333 2.33333333 0 0 Z " fill="#220049" transform="translate(123,282)"/>
</svg>
