<?xml version="1.0" encoding="UTF-8"?>
<svg version="1.1" xmlns="http://www.w3.org/2000/svg" width="512" height="512">
<path d="M0 0 C20.96715641 18.9084477 37.95335112 42.57405571 41.5859375 71.33203125 C41.65171752 73.78957266 41.67162912 76.24871903 41.6484375 78.70703125 C41.63941406 79.95226562 41.63039063 81.1975 41.62109375 82.48046875 C41.60369141 83.89199219 41.60369141 83.89199219 41.5859375 85.33203125 C42.2459375 85.00203125 42.9059375 84.67203125 43.5859375 84.33203125 C47.1484375 84.20703125 47.1484375 84.20703125 50.5859375 84.33203125 C51.5859375 85.33203125 51.5859375 85.33203125 51.6484375 87.89453125 C51.6278125 88.69890625 51.6071875 89.50328125 51.5859375 90.33203125 C52.31039063 90.02007812 53.03484375 89.708125 53.78125 89.38671875 C61.77633201 86.16736573 61.77633201 86.16736573 66.2734375 87.08203125 C67.0365625 87.49453125 67.7996875 87.90703125 68.5859375 88.33203125 C68.2559375 90.31203125 67.9259375 92.29203125 67.5859375 94.33203125 C68.94138672 94.27982422 68.94138672 94.27982422 70.32421875 94.2265625 C71.50371094 94.19949219 72.68320312 94.17242187 73.8984375 94.14453125 C75.07019531 94.10972656 76.24195313 94.07492188 77.44921875 94.0390625 C80.5859375 94.33203125 80.5859375 94.33203125 82.50390625 95.71875 C83.5859375 97.33203125 83.5859375 97.33203125 83.5859375 99.33203125 C82.19880858 102.10628909 80.2932794 102.94365079 77.5859375 104.33203125 C78.22402344 104.61175781 78.86210937 104.89148438 79.51953125 105.1796875 C82.06555558 106.41496607 84.3330152 107.61470934 86.5859375 109.33203125 C87.6484375 113.14453125 87.6484375 113.14453125 87.5859375 116.33203125 C85.03524905 118.6865129 83.87576392 119.31531049 80.3359375 119.51953125 C79.4284375 119.45765625 78.5209375 119.39578125 77.5859375 119.33203125 C79.45160238 122.95997123 79.45160238 122.95997123 82.5859375 125.33203125 C82.94965673 131.75773772 82.94965673 131.75773772 81.3984375 134.20703125 C78.91655662 135.74750904 77.55100373 136.20311533 74.5859375 136.33203125 C70.77848682 135.35542345 67.10349813 134.09081157 63.5859375 132.33203125 C63.6684375 133.42515625 63.7509375 134.51828125 63.8359375 135.64453125 C63.5859375 139.33203125 63.5859375 139.33203125 61.9609375 141.33203125 C58.68670007 142.71065754 56.96667404 142.3669506 53.5859375 141.33203125 C48.96654024 138.47240438 47.02692686 135.03319594 44.5859375 130.33203125 C44.2765625 131.29109375 44.2765625 131.29109375 43.9609375 132.26953125 C42.5859375 134.33203125 42.5859375 134.33203125 39.4609375 135.08203125 C38.5121875 135.16453125 37.5634375 135.24703125 36.5859375 135.33203125 C37.14023437 135.59757813 37.69453125 135.863125 38.265625 136.13671875 C38.99007813 136.48992187 39.71453125 136.843125 40.4609375 137.20703125 C41.18023437 137.55507812 41.89953125 137.903125 42.640625 138.26171875 C44.5859375 139.33203125 44.5859375 139.33203125 46.5859375 141.33203125 C46.91927083 146.66536458 46.91927083 146.66536458 45.5859375 149.33203125 C47.19662109 149.47898438 47.19662109 149.47898438 48.83984375 149.62890625 C50.27612995 149.77910611 51.71232333 149.93019539 53.1484375 150.08203125 C53.85291016 150.14390625 54.55738281 150.20578125 55.28320312 150.26953125 C60.59841947 150.85738928 64.17083325 152.27542062 68.5859375 155.33203125 C69.7734375 158.33203125 69.7734375 158.33203125 69.5859375 161.33203125 C67.74451831 163.68142814 66.2459481 165.00202595 63.5859375 166.33203125 C64.4315625 166.47898438 65.2771875 166.6259375 66.1484375 166.77734375 C73.5279782 168.23648021 79.20492955 169.90865315 84.5859375 175.33203125 C86.5859375 178.33203125 86.5859375 178.33203125 86.2734375 180.95703125 C85.5859375 183.33203125 85.5859375 183.33203125 84.5859375 184.33203125 C82.73701804 184.56567006 80.88105719 184.7450676 79.0234375 184.89453125 C78.01152344 184.97832031 76.99960937 185.06210937 75.95703125 185.1484375 C75.17457031 185.20902344 74.39210938 185.26960937 73.5859375 185.33203125 C74.28460938 185.94691406 74.98328125 186.56179688 75.703125 187.1953125 C76.61320312 188.00355469 77.52328125 188.81179688 78.4609375 189.64453125 C79.36585938 190.44503906 80.27078125 191.24554688 81.203125 192.0703125 C85.43504494 196.08716766 85.43504494 196.08716766 85.8515625 199.5234375 C85.84640625 200.30589844 85.84125 201.08835937 85.8359375 201.89453125 C85.84109375 202.67957031 85.84625 203.46460938 85.8515625 204.2734375 C85.5859375 206.33203125 85.5859375 206.33203125 83.5859375 208.33203125 C77.28191027 208.88501609 72.44209997 207.60942777 66.5859375 205.33203125 C67.0190625 206.16734375 67.0190625 206.16734375 67.4609375 207.01953125 C70.08593718 212.41536392 71.40021923 216.32670352 70.5859375 222.33203125 C69.0859375 224.83203125 69.0859375 224.83203125 66.5859375 226.33203125 C60.79313034 227.20095232 57.34273652 226.27656753 52.546875 222.96875 C48.66625759 219.72974861 44.86255858 215.88527342 42.5859375 211.33203125 C42.34359375 211.88632812 42.10125 212.440625 41.8515625 213.01171875 C41.34882812 214.09839844 41.34882812 214.09839844 40.8359375 215.20703125 C40.34867187 216.28597656 40.34867187 216.28597656 39.8515625 217.38671875 C38.33215459 219.72210498 37.17488989 220.36972253 34.5859375 221.33203125 C31.22344233 221.76791025 28.75067931 222.0634993 25.80078125 220.2109375 C24.33482459 218.98757414 22.95262128 217.66538128 21.5859375 216.33203125 C21.5389289 220.58160845 22.06095234 224.48618353 24.84375 227.85449219 C27.54098698 230.56729015 30.43325448 233.02025013 33.359375 235.48046875 C36.0643873 237.76814507 37.93844293 240.11583626 39.8984375 243.08203125 C42.32679061 246.05340805 43.36351633 246.30922485 47.28125 246.7109375 C50.11520108 246.71524744 52.93569896 246.5822429 55.765625 246.44140625 C62.36853824 246.25236579 66.45913005 248.04145648 71.3359375 252.51953125 C78.9393072 260.86595754 81.5859375 272.18534193 81.5859375 283.33203125 C96.04488411 284.85402563 104.78822186 283.4904322 116.7109375 275.14453125 C122.52076532 271.48181371 128.84481607 270.33551765 135.5859375 271.33203125 C138.63111609 272.30958281 141.63201226 273.37154904 144.63232422 274.47827148 C150.57333299 276.56378681 156.07926175 276.92873366 162.34375 276.99609375 C167.03641356 277.48232154 169.55548353 279.30157728 172.8359375 282.58203125 C175.9022729 287.4005583 175.83646504 291.78064708 174.9609375 297.26953125 C172.82184654 306.60503419 167.29370687 312.70615332 159.34765625 317.75390625 C158.58066406 318.2334375 157.81367188 318.71296875 157.0234375 319.20703125 C151.64027062 322.71977574 148.45746516 327.13687243 145.23828125 332.6328125 C141.22698014 339.28106921 136.14074555 343.4880171 128.6796875 345.96484375 C125.86109461 346.45914922 123.06827894 346.56716139 120.2109375 346.70703125 C115.22423478 347.08380434 111.83756007 347.55923392 107.5859375 350.33203125 C105.75539072 351.52382228 103.92174227 352.71085552 102.0859375 353.89453125 C101.18875 354.49394531 100.2915625 355.09335937 99.3671875 355.7109375 C91.93125262 360.04508493 84.27350268 360.4571567 75.8359375 360.20703125 C64.68678694 360.10473373 56.57141388 362.93010569 47.06225586 368.46289062 C37.65709438 373.8394548 26.58875939 375.23941599 16.01074219 372.71826172 C12.36613483 371.69071589 8.75414426 370.60517421 5.17114258 369.37890625 C-1.70359798 367.12891914 -7.47155953 367.0633487 -14.4855957 368.86376953 C-25.38424956 371.51013212 -37.5156949 369.27395559 -47.09375 363.80078125 C-48.77830913 362.75625218 -50.4606885 361.70819762 -52.140625 360.65625 C-57.3527693 357.62031028 -62.22268538 357.30934715 -68.12036133 357.05151367 C-80.15580782 356.51161361 -89.62101861 353.94124844 -98.4140625 345.33203125 C-100.08581379 343.30550316 -101.72811301 341.27095153 -103.3515625 339.20703125 C-107.69235019 333.71543007 -111.90799697 330.83276776 -118.4140625 328.33203125 C-129.7546933 323.47699545 -138.81059071 317.86265511 -144.25390625 306.3984375 C-145.41519604 303.32903518 -146.22772014 300.29864584 -147.02905273 297.12255859 C-149.10755498 289.03368376 -151.54743101 284.22046089 -157.609375 278.23046875 C-179.38332937 256.51797932 -192.0631492 222.96392996 -192.6015625 192.64453125 C-192.54610795 184.13225845 -191.64373348 175.56775288 -189.4140625 167.33203125 C-190.4040625 167.00203125 -191.3940625 166.67203125 -192.4140625 166.33203125 C-194.96064203 163.86650995 -197.13825781 161.04680202 -199.4140625 158.33203125 C-200.20554687 157.43871094 -200.99703125 156.54539063 -201.8125 155.625 C-211.34227351 144.67309106 -218.08088508 133.962998 -220.4140625 119.33203125 C-221.7340625 119.33203125 -223.0540625 119.33203125 -224.4140625 119.33203125 C-224.5996875 120.03328125 -224.7853125 120.73453125 -224.9765625 121.45703125 C-227.17970694 125.86332013 -231.00407739 129.1270387 -235.4140625 131.33203125 C-238.0864246 131.46618597 -240.73656738 131.37521666 -243.4140625 131.33203125 C-244.7340625 128.69203125 -246.0540625 126.05203125 -247.4140625 123.33203125 C-248.0740625 124.38390625 -248.7340625 125.43578125 -249.4140625 126.51953125 C-252.87124877 131.29744036 -256.91155048 134.62346385 -262.7890625 135.8125 C-265.17251853 135.95754584 -267.09659182 135.90683697 -269.4140625 135.33203125 C-272.39692985 132.64745063 -273.81860455 130.27234557 -274.4140625 126.33203125 C-273.85546875 124.19140625 -273.85546875 124.19140625 -272.9765625 122.08203125 C-272.68910156 121.375625 -272.40164063 120.66921875 -272.10546875 119.94140625 C-271.76322266 119.14476562 -271.76322266 119.14476562 -271.4140625 118.33203125 C-272.10371094 118.56019531 -272.79335938 118.78835937 -273.50390625 119.0234375 C-279.62603517 120.8961875 -285.16011227 122.3623718 -291.4140625 120.33203125 C-295.09710434 117.7764512 -296.17903654 116.30829292 -297.2265625 111.95703125 C-296.02586208 106.60006015 -292.64079973 104.548765 -288.4140625 101.33203125 C-287.4240625 100.34203125 -287.4240625 100.34203125 -286.4140625 99.33203125 C-287.11273438 99.00589844 -287.81140625 98.67976562 -288.53125 98.34375 C-289.44132812 97.90675781 -290.35140625 97.46976563 -291.2890625 97.01953125 C-292.19398438 96.59027344 -293.09890625 96.16101563 -294.03125 95.71875 C-296.4140625 94.33203125 -296.4140625 94.33203125 -298.4140625 91.33203125 C-298.22213207 88.26114443 -297.97051807 86.11106905 -296.1640625 83.58203125 C-291.33831113 80.13506599 -286.1590237 79.80764895 -280.4140625 79.33203125 C-281.4040625 78.46578125 -282.3940625 77.59953125 -283.4140625 76.70703125 C-285.94820884 74.20857712 -286.37723436 73.66348454 -286.7890625 69.95703125 C-286.6653125 69.09078125 -286.5415625 68.22453125 -286.4140625 67.33203125 C-282.69953928 64.95473639 -279.7574454 64.84164931 -275.4140625 65.33203125 C-272.6686242 66.49762414 -270.07285896 67.81365251 -267.453125 69.23828125 C-265.65283856 70.41081289 -265.65283856 70.41081289 -264.4140625 70.33203125 C-264.6203125 69.42453125 -264.8265625 68.51703125 -265.0390625 67.58203125 C-265.43892427 64.11656262 -265.06881545 63.23732269 -263.4140625 60.33203125 C-254.71792912 60.33203125 -250.0144533 63.91600964 -243.4140625 69.33203125 C-243.1459375 68.36265625 -242.8778125 67.39328125 -242.6015625 66.39453125 C-242.2096875 65.38390625 -241.8178125 64.37328125 -241.4140625 63.33203125 C-240.4240625 63.00203125 -239.4340625 62.67203125 -238.4140625 62.33203125 C-238.4140625 60.35203125 -238.4140625 58.37203125 -238.4140625 56.33203125 C-237.7540625 56.33203125 -237.0940625 56.33203125 -236.4140625 56.33203125 C-236.4140625 55.67203125 -236.4140625 55.01203125 -236.4140625 54.33203125 C-237.11402344 54.65429688 -237.81398437 54.9765625 -238.53515625 55.30859375 C-241.67345693 56.42424474 -244.15383195 56.66502454 -247.4765625 56.70703125 C-248.49878906 56.73539062 -249.52101562 56.76375 -250.57421875 56.79296875 C-254.10425639 56.22000528 -255.24230214 55.11555509 -257.4140625 52.33203125 C-257.9765625 49.83203125 -257.9765625 49.83203125 -257.4140625 47.33203125 C-254.9140625 45.01953125 -254.9140625 45.01953125 -252.4140625 43.33203125 C-253.00574219 43.18507813 -253.59742188 43.038125 -254.20703125 42.88671875 C-260.11133417 41.21078285 -263.14583825 39.60336069 -266.4140625 34.33203125 C-266.9765625 31.70703125 -266.9765625 31.70703125 -266.4140625 29.33203125 C-264.9140625 27.01953125 -264.9140625 27.01953125 -262.4140625 25.33203125 C-259.65552346 25.00037484 -257.20981964 25.14564744 -254.4140625 25.33203125 C-254.5584375 24.65140625 -254.7028125 23.97078125 -254.8515625 23.26953125 C-255.48751949 19.94842251 -256.09623234 16.70103093 -256.4140625 13.33203125 C-254.4140625 11.33203125 -254.4140625 11.33203125 -250.6015625 11.01953125 C-246.81104819 11.09547962 -244.48903826 12.02579943 -241.4140625 14.33203125 C-241.4140625 11.36203125 -241.4140625 8.39203125 -241.4140625 5.33203125 C-238.37930006 4.37824877 -236.85312212 4.16069091 -233.8515625 5.33203125 C-230.63116374 7.97440972 -229.30016361 10.62968464 -227.4140625 14.33203125 C-226.4240625 12.68203125 -225.4340625 11.03203125 -224.4140625 9.33203125 C-222.2265625 9.33203125 -222.2265625 9.33203125 -219.4140625 10.33203125 C-216.12782566 14.21334341 -214.4140625 17.19881599 -214.4140625 22.33203125 C-213.4240625 21.67203125 -212.4340625 21.01203125 -211.4140625 20.33203125 C-208.9765625 19.83203125 -208.9765625 19.83203125 -206.4140625 20.33203125 C-204.1015625 23.33203125 -204.1015625 23.33203125 -202.4140625 26.33203125 C-201.0940625 24.68203125 -199.7740625 23.03203125 -198.4140625 21.33203125 C-199.5896875 21.39390625 -199.5896875 21.39390625 -200.7890625 21.45703125 C-203.4140625 21.33203125 -203.4140625 21.33203125 -205.4140625 19.33203125 C-205.1640625 17.26953125 -205.1640625 17.26953125 -204.4140625 15.33203125 C-203.7540625 15.00203125 -203.0940625 14.67203125 -202.4140625 14.33203125 C-203.6515625 14.41453125 -204.8890625 14.49703125 -206.1640625 14.58203125 C-209.51912948 14.60582605 -210.16854154 14.52844802 -212.9140625 12.33203125 C-213.4090625 11.67203125 -213.9040625 11.01203125 -214.4140625 10.33203125 C-212.5390625 5.45703125 -212.5390625 5.45703125 -211.4140625 4.33203125 C-212.6825 3.21828125 -212.6825 3.21828125 -213.9765625 2.08203125 C-214.7809375 1.17453125 -215.5853125 0.26703125 -216.4140625 -0.66796875 C-216.2265625 -2.98046875 -216.2265625 -2.98046875 -215.4140625 -4.66796875 C-214.7953125 -4.81234375 -214.1765625 -4.95671875 -213.5390625 -5.10546875 C-211.38147928 -5.599491 -211.38147928 -5.599491 -209.4140625 -6.66796875 C-209.4553125 -7.45171875 -209.4965625 -8.23546875 -209.5390625 -9.04296875 C-209.4140625 -11.66796875 -209.4140625 -11.66796875 -207.4140625 -13.66796875 C-205.28515625 -13.49609375 -205.28515625 -13.49609375 -202.8515625 -12.91796875 C-202.04589844 -12.7375 -201.24023438 -12.55703125 -200.41015625 -12.37109375 C-198.4140625 -11.66796875 -198.4140625 -11.66796875 -197.4140625 -9.66796875 C-196.4240625 -12.14296875 -196.4240625 -12.14296875 -195.4140625 -14.66796875 C-192.82122921 -13.59507221 -191.55702763 -12.87050269 -189.9140625 -10.54296875 C-189.4190625 -9.92421875 -188.9240625 -9.30546875 -188.4140625 -8.66796875 C-187.0940625 -8.66796875 -185.7740625 -8.66796875 -184.4140625 -8.66796875 C-183.05966582 -5.9591754 -183.34904799 -3.65863607 -183.4140625 -0.66796875 C-179.04480861 -1.92539938 -175.98200424 -3.49436444 -172.4140625 -6.29296875 C-123.74866918 -42.46496136 -46.4318127 -39.10453328 0 0 Z M-227.1640625 62.76953125 C-227.96328125 63.05699219 -228.7625 63.34445313 -229.5859375 63.640625 C-230.18921875 63.86878906 -230.7925 64.09695312 -231.4140625 64.33203125 C-227.95725347 67.09747847 -224.27064648 69.18124403 -220.4140625 71.33203125 C-219.7540625 68.36203125 -219.0940625 65.39203125 -218.4140625 62.33203125 C-222.53821007 61.30099436 -223.3981767 61.38501441 -227.1640625 62.76953125 Z M-271.4140625 116.33203125 C-271.0840625 116.99203125 -270.7540625 117.65203125 -270.4140625 118.33203125 C-270.0840625 117.67203125 -269.7540625 117.01203125 -269.4140625 116.33203125 C-270.0740625 116.33203125 -270.7340625 116.33203125 -271.4140625 116.33203125 Z M16.5859375 205.33203125 C15.5959375 206.81703125 15.5959375 206.81703125 14.5859375 208.33203125 C16.2359375 209.98203125 17.8859375 211.63203125 19.5859375 213.33203125 C19.03870067 209.9574041 18.5310375 208.24968125 16.5859375 205.33203125 Z " fill="#FDAFC2" transform="translate(317.4140625,84.66796875)"/>
<path d="M0 0 C9.05807103 -0.37800296 16.96215682 -0.47851077 24.625 4.8125 C26 7 26 7 26.0625 10.0625 C24.74491406 13.70523761 23.31410779 14.20729643 20 16 C20.845625 16.14695313 21.69125 16.29390625 22.5625 16.4453125 C29.9420407 17.90444896 35.61899205 19.5766219 41 25 C43 28 43 28 42.6875 30.625 C42 33 42 33 41 34 C39.15108054 34.23363881 37.29511969 34.41303635 35.4375 34.5625 C34.42558594 34.64628906 33.41367187 34.73007812 32.37109375 34.81640625 C31.58863281 34.87699219 30.80617188 34.93757813 30 35 C30.69867188 35.61488281 31.39734375 36.22976563 32.1171875 36.86328125 C33.02726562 37.67152344 33.93734375 38.47976563 34.875 39.3125 C35.77992188 40.11300781 36.68484375 40.91351563 37.6171875 41.73828125 C41.84910744 45.75513641 41.84910744 45.75513641 42.265625 49.19140625 C42.26046875 49.97386719 42.2553125 50.75632812 42.25 51.5625 C42.25515625 52.34753906 42.2603125 53.13257813 42.265625 53.94140625 C42 56 42 56 40 58 C33.69597277 58.55298484 28.85616247 57.27739652 23 55 C23.433125 55.8353125 23.433125 55.8353125 23.875 56.6875 C26.49999968 62.08333267 27.81428173 65.99467227 27 72 C25.5 74.5 25.5 74.5 23 76 C17.20719284 76.86892107 13.75679902 75.94453628 8.9609375 72.63671875 C5.08032009 69.39771736 1.27662108 65.55324217 -1 61 C-1.36351562 61.83144531 -1.36351562 61.83144531 -1.734375 62.6796875 C-2.06953125 63.40414062 -2.4046875 64.12859375 -2.75 64.875 C-3.07484375 65.59429687 -3.3996875 66.31359375 -3.734375 67.0546875 C-5.25378291 69.39007373 -6.41104761 70.03769128 -9 71 C-12.36249517 71.435879 -14.83525819 71.73146805 -17.78515625 69.87890625 C-19.25111291 68.65554289 -20.63331622 67.33335003 -22 66 C-22.0470086 70.2495772 -21.52498516 74.15415228 -18.7421875 77.52246094 C-16.04495052 80.2352589 -13.15268302 82.68821888 -10.2265625 85.1484375 C-7.5215502 87.43611382 -5.64749457 89.78380501 -3.6875 92.75 C-1.25914689 95.7213768 -0.22242117 95.9771936 3.6953125 96.37890625 C6.52926358 96.38321619 9.34976146 96.25021165 12.1796875 96.109375 C18.78260074 95.92033454 22.87319255 97.70942523 27.75 102.1875 C35.3533697 110.53392629 38 121.85331068 38 133 C52.45894661 134.52199438 61.20228436 133.15840095 73.125 124.8125 C78.93482782 121.14978246 85.25887857 120.0034864 92 121 C95.04517859 121.97755156 98.04607476 123.03951779 101.04638672 124.14624023 C106.98739549 126.23175556 112.49332425 126.59670241 118.7578125 126.6640625 C123.45047606 127.15029029 125.96954603 128.96954603 129.25 132.25 C132.3163354 137.06852705 132.25052754 141.44861583 131.375 146.9375 C129.23590904 156.27300294 123.70776937 162.37412207 115.76171875 167.421875 C114.99472656 167.90140625 114.22773438 168.3809375 113.4375 168.875 C108.05433312 172.38774449 104.87152766 176.80484118 101.65234375 182.30078125 C97.64104264 188.94903796 92.55480805 193.15598585 85.09375 195.6328125 C82.27515711 196.12711797 79.48234144 196.23513014 76.625 196.375 C71.63829728 196.75177309 68.25162257 197.22720267 64 200 C62.16945322 201.19179103 60.33580477 202.37882427 58.5 203.5625 C57.6028125 204.16191406 56.705625 204.76132812 55.78125 205.37890625 C48.34531512 209.71305368 40.68756518 210.12512545 32.25 209.875 C21.10084944 209.77270248 12.98547638 212.59807444 3.47631836 218.13085938 C-5.92884312 223.50742355 -16.99717811 224.90738474 -27.57519531 222.38623047 C-31.21980267 221.35868464 -34.83179324 220.27314296 -38.41479492 219.046875 C-45.28953548 216.79688789 -51.05749703 216.73131745 -58.0715332 218.53173828 C-68.97018706 221.17810087 -81.1016324 218.94192434 -90.6796875 213.46875 C-92.36424663 212.42422093 -94.046626 211.37616637 -95.7265625 210.32421875 C-100.9387068 207.28827903 -105.80862288 206.9773159 -111.70629883 206.71948242 C-123.74174532 206.17958236 -133.20695611 203.60921719 -142 195 C-143.67175129 192.97347191 -145.31405051 190.93892028 -146.9375 188.875 C-151.27828769 183.38339882 -155.49393447 180.50073651 -162 178 C-173.3406308 173.1449642 -182.39652821 167.53062386 -187.83984375 156.06640625 C-189.00113354 152.99700393 -189.81365764 149.96661459 -190.61499023 146.79052734 C-192.69349248 138.70165251 -195.13336851 133.88842964 -201.1953125 127.8984375 C-222.96926687 106.18594807 -235.6490867 72.63189871 -236.1875 42.3125 C-236.13456794 34.19625135 -235.58076713 25.7423014 -233 18 C-232.01 18.33 -231.02 18.66 -230 19 C-229.87466472 26.52011659 -229.87466472 26.52011659 -230.4934082 28.88916016 C-236.49419304 53.8929123 -224.81572656 84.07828714 -212 105 C-203.83462262 117.80804413 -193.96087281 129.49237884 -182.97119141 139.95556641 C-180.81407019 142.03515122 -179.03339142 143.94350485 -177.50390625 146.53125 C-170.22405946 158.48154395 -149.2055002 172.74152291 -136.15234375 177.421875 C-131.98335656 178.92438852 -128.35544337 180.98247951 -124.5625 183.25 C-116.34778547 188.00819147 -107.87596907 191.66495328 -99 195 C-97.97519531 195.38929688 -96.95039063 195.77859375 -95.89453125 196.1796875 C-90.06774526 198.25321962 -84.14851293 199.75558652 -78.125 201.125 C-77.43027588 201.28379639 -76.73555176 201.44259277 -76.01977539 201.60620117 C-63.84208724 204.25098412 -51.92402467 205.32916086 -39.49682617 205.26074219 C-37.20008664 205.25005855 -34.90413736 205.2606875 -32.60742188 205.2734375 C-21.09069762 205.28388839 -9.19362239 204.94935694 2 202 C3.35479692 202.00536553 4.70981746 202.04914864 6.0625 202.125 C16.3346119 202.17462373 26.31525647 197.61836644 35.91503906 194.33764648 C36.80030273 194.03673096 37.68556641 193.73581543 38.59765625 193.42578125 C39.39695557 193.15161377 40.19625488 192.87744629 41.01977539 192.5949707 C43 192 43 192 45 192 C45.33 191.01 45.66 190.02 46 189 C48.29052734 187.65649414 48.29052734 187.65649414 51.3359375 186.28515625 C52.45419922 185.76985352 53.57246094 185.25455078 54.72460938 184.72363281 C55.32039795 184.4531311 55.91618652 184.18262939 56.5300293 183.90393066 C73.39687561 176.21151491 89.01681247 167.26595398 103 155 C103.67289062 154.45859375 104.34578125 153.9171875 105.0390625 153.359375 C109.1955496 149.99881096 112.16596799 146.55162717 115 142 C115 141.01 115 140.02 115 139 C107.33779634 135.16889817 95.79398435 138.75551082 87.95654297 140.55566406 C86.07100387 140.98387484 84.17811517 141.37931987 82.28515625 141.7734375 C71.3101004 144.12304654 60.65486068 147.49427813 49.97607422 150.91455078 C48.77354004 151.29724121 47.57100586 151.67993164 46.33203125 152.07421875 C45.25671143 152.42057373 44.1813916 152.76692871 43.07348633 153.1237793 C40.05687451 153.98378564 37.10157607 154.54786249 34 155 C33.74476563 155.99580078 33.74476563 155.99580078 33.484375 157.01171875 C30.47925083 167.96124033 30.47925083 167.96124033 24.66015625 171.37109375 C16.65608874 175.52004504 10.06565819 176.87058177 1 176 C-3.11449854 174.61977871 -6.40926988 172.39382008 -10 170 C-10.165 170.804375 -10.33 171.60875 -10.5 172.4375 C-13.02755232 178.44043675 -17.55694795 184.20918342 -23.5625 187.0625 C-27.19878572 188.05421429 -30.24832791 188.22969421 -34 188 C-33.67 187.01 -33.34 186.02 -33 185 C-30.70703125 184.078125 -30.70703125 184.078125 -27.8125 183.25 C-22.11587751 181.26760485 -18.99844813 179.26108077 -16 174 C-8.70950082 158.7673369 -5.61064763 138.71379029 -10.625 122.25 C-13.93149435 113.9954067 -19.35997561 106.64240774 -27.54296875 102.80859375 C-33.20337383 100.56785409 -37.93020045 99.17697633 -44 100 C-46.65683189 101.49748707 -48.84652751 102.84652751 -51 105 C-51.08256205 106.97843131 -51.13988122 108.95791939 -51.1875 110.9375 C-51.74048413 120.1761486 -54.80366451 128.37869142 -58 137 C-61.04822989 136.67804045 -62.58517168 136.43440449 -64.73828125 134.1796875 C-65.51751953 133.03886719 -65.51751953 133.03886719 -66.3125 131.875 C-73.70670223 121.83545818 -82.8667041 115.95838686 -95 113 C-109.55933987 111.60567569 -120.79056066 115.29456969 -133.22265625 122.609375 C-136 124 -136 124 -140 124 C-138.53549777 119.48529314 -135.03944448 117.97160291 -131.0625 115.9375 C-130.38082764 115.58751953 -129.69915527 115.23753906 -128.99682617 114.87695312 C-116.2087766 108.48518532 -102.24105797 106.74278722 -88.171875 109.84375 C-76.65439405 113.88305611 -68.64956 121.76924604 -61 131 C-60.52014033 129.72942818 -60.0411407 128.45853152 -59.5625 127.1875 C-59.29566406 126.47980469 -59.02882813 125.77210938 -58.75390625 125.04296875 C-57.23170728 120.91804616 -56.85132764 117.58276156 -56.6875 113.1875 C-56.19741966 105.97737861 -54.70925593 102.70925593 -49.625 97.625 C-42.87608764 94.59962549 -35.70194543 94.79818359 -28.703125 97.0703125 C-21.42241231 100.45196332 -14.12600519 105.17876887 -10.7890625 112.74609375 C-10.52867187 113.48988281 -10.26828125 114.23367188 -10 115 C-9.46890625 114.59007812 -8.9378125 114.18015625 -8.390625 113.7578125 C-7.68421875 113.21898437 -6.9778125 112.68015625 -6.25 112.125 C-5.55390625 111.59132813 -4.8578125 111.05765625 -4.140625 110.5078125 C0.92959946 106.93645002 4.86937636 106.21653372 11 107 C15.64621414 108.30628385 19.06137608 110.10716261 22.5625 113.4375 C25.5366295 120.80816875 24.76091833 128.66700092 22 136 C21.01 136 20.02 136 19 136 C19.02094727 135.44538086 19.04189453 134.89076172 19.06347656 134.31933594 C19.14683548 131.79640977 19.19871868 129.27377351 19.25 126.75 C19.30027344 125.44095703 19.30027344 125.44095703 19.3515625 124.10546875 C19.48902675 118.93644989 19.48902675 118.93644989 17.171875 114.453125 C12.49778908 111.32585888 7.43744177 111.3742291 2 112 C-1.85544798 113.99657127 -3.59805092 115.39707638 -6 119 C-5.801551 120.6046629 -5.58859534 122.20875394 -5.30615234 123.80078125 C-4.65224848 128.49804285 -4.81143467 133.26601038 -4.8125 138 C-4.80609497 139.66035278 -4.80609497 139.66035278 -4.79956055 141.35424805 C-4.82857384 148.85445875 -5.4582145 155.88459473 -7.05078125 163.20703125 C-7.31087674 166.19649315 -7.31087674 166.19649315 -4.79296875 168.32421875 C1.54767929 172.12860757 8.78736909 171.68088503 16 171 C21.15319846 169.44896699 24.77992778 167.08627092 27.375 162.3125 C27.93340644 160.88141954 28.47296099 159.4429272 29 158 C29.26385498 157.28924316 29.52770996 156.57848633 29.79956055 155.84619141 C32.14126145 148.87201127 32.48439071 142.38171387 32.4375 135.0625 C32.45748047 133.95970703 32.47746094 132.85691406 32.49804688 131.72070312 C32.49232014 122.01389106 30.61107368 112.60292663 23.69140625 105.37109375 C18.14570838 100.87562042 11.88665278 100.45890585 5 101 C2.64372929 101.2598828 0.33869095 101.60192495 -2 102 C-2.31710937 101.53851563 -2.63421875 101.07703125 -2.9609375 100.6015625 C-10.9009574 89.44036594 -10.9009574 89.44036594 -22 82 C-22.99 82 -23.98 82 -25 82 C-25.03867187 80.948125 -25.03867187 80.948125 -25.078125 79.875 C-25.64902855 70.32534055 -28.06053658 64.0100576 -35.17578125 57.4765625 C-41.33220845 52.49341586 -47.37070174 52.35806218 -55.12890625 52.51953125 C-62.50264501 53.43473798 -69.27415427 56.56675679 -74.1875 62.25 C-76.41586216 65.63096328 -77.17034952 67.37920075 -77.25 71.375 C-77.27578125 72.14585937 -77.3015625 72.91671875 -77.328125 73.7109375 C-76.89439871 76.73669475 -76.2943446 77.95394119 -74 80 C-71.35510619 80.38922539 -69.19781628 80.52081436 -66.5625 80.4375 C-65.85254883 80.4279126 -65.14259766 80.4183252 -64.41113281 80.40844727 C-58.84972301 80.24285473 -53.77076123 79.22963866 -48.453125 77.55859375 C-45.86176203 76.96852225 -44.47703303 77.12609349 -42 78 C-42.33 78.99 -42.66 79.98 -43 81 C-45.51171875 81.9140625 -45.51171875 81.9140625 -48.6875 82.625 C-49.72261719 82.86476563 -50.75773438 83.10453125 -51.82421875 83.3515625 C-56.93911682 84.39593283 -61.83361324 85.16903659 -67.0625 85.25 C-68.56490234 85.28867187 -68.56490234 85.28867187 -70.09765625 85.328125 C-74.35030787 84.8473407 -76.96884918 83.13782159 -79.8125 80 C-81 78 -81 78 -81 75 C-90.24 75 -99.48 75 -109 75 C-109 77.31 -109 79.62 -109 82 C-110.74816893 86.35028214 -113.41227871 88.68514931 -117.5 90.875 C-135.67757131 96.71779078 -154.07727734 91.04677969 -171.5625 85.5 C-172.94731567 85.07352173 -172.94731567 85.07352173 -174.36010742 84.63842773 C-175.63785034 84.21412476 -175.63785034 84.21412476 -176.94140625 83.78125 C-177.70138916 83.53439453 -178.46137207 83.28753906 -179.24438477 83.03320312 C-181 82 -181 82 -181.75366211 79.88867188 C-181.83495361 79.26541016 -181.91624512 78.64214844 -182 78 C-176.75708039 78.68897341 -171.99471997 80.22012895 -167 81.875 C-155.29475264 85.61147755 -144.40691701 88.24338527 -132.0625 88.4375 C-131.17385254 88.45989746 -130.28520508 88.48229492 -129.36962891 88.50537109 C-123.41413303 88.48399297 -119.8532886 87.50870996 -115 84 C-112.52148623 79.36625686 -112.30123696 74.15337742 -113 69 C-115.31105051 61.6729194 -119.88841053 57.93740476 -126.3125 53.9375 C-133.0438933 50.7158604 -140.73475381 49.5147378 -148 48 C-149.06637695 47.73654785 -149.06637695 47.73654785 -150.15429688 47.46777344 C-154.24907142 46.79467906 -158.31332825 46.76310022 -162.45703125 46.68359375 C-163.81147591 46.6524221 -163.81147591 46.6524221 -165.19328308 46.62062073 C-168.06628097 46.5554472 -170.93936714 46.49639045 -173.8125 46.4375 C-175.76498294 46.39428414 -177.71745708 46.35066888 -179.66992188 46.30664062 C-184.44652503 46.19979893 -189.22321664 46.09844143 -194 46 C-194 45.01 -194 44.02 -194 43 C-186.86886144 41.85901783 -179.75572887 41.77982029 -172.54858398 41.75976562 C-170.46621605 41.75013284 -168.38486882 41.71906617 -166.30273438 41.6875 C-150.47532931 41.56225853 -130.08370277 43.7667068 -117.64453125 54.3359375 C-112.33779388 59.70570026 -110.12632522 63.55786174 -108 71 C-95.13 71.495 -95.13 71.495 -82 72 C-81.67 69.69 -81.34 67.38 -81 65 C-77.21069755 57.2995961 -69.86105183 52.57727034 -62.25 49.125 C-55.07626556 46.73375519 -46.88174261 46.78959103 -40 49.9375 C-39.01 50.47697266 -39.01 50.47697266 -38 51.02734375 C-35.46499902 52.26018602 -33.85222634 52.94936876 -31 53 C-28.62994522 51.34525968 -26.78626962 49.81580462 -24.75 47.8125 C-24.18369873 47.27238281 -23.61739746 46.73226562 -23.03393555 46.17578125 C-16.73136125 40.01144085 -10.70723503 33.06085976 -7 25 C-6.01 25 -5.02 25 -4 25 C-4.43791223 30.32660517 -6.23100416 33.07396288 -9.5625 37.1875 C-13.07690147 41.11675752 -13.07690147 41.11675752 -14 46 C-0.86470361 53.72310418 -0.86470361 53.72310418 14 54 C18.06005965 52.11160016 19.68809667 50.46375295 21.3125 46.3125 C21.63863281 45.50425781 21.96476562 44.69601562 22.30078125 43.86328125 C22.53152344 43.24839844 22.76226562 42.63351562 23 42 C23.66 42 24.32 42 25 42 C26.03176646 33.30368273 22.9749106 27.0507132 18 20 C14.62049006 15.72826893 10.84205638 11.85330691 7 8 C5.88044922 6.87658203 5.88044922 6.87658203 4.73828125 5.73046875 C4.10277344 5.09753906 3.46726562 4.46460938 2.8125 3.8125 C1.4203125 2.4203125 1.4203125 2.4203125 0 1 C0 0.67 0 0.34 0 0 Z M-27 55 C-27.99 56.485 -27.99 56.485 -29 58 C-27.35 59.65 -25.7 61.3 -24 63 C-24.54723683 59.62537285 -25.0549 57.91765 -27 55 Z " fill="#9CFC01" transform="translate(361,235)"/>
<path d="M0 0 C9.05807103 -0.37800296 16.96215682 -0.47851077 24.625 4.8125 C26 7 26 7 26.0625 10.0625 C24.74491406 13.70523761 23.31410779 14.20729643 20 16 C20.845625 16.14695313 21.69125 16.29390625 22.5625 16.4453125 C29.9420407 17.90444896 35.61899205 19.5766219 41 25 C43 28 43 28 42.6875 30.625 C42 33 42 33 41 34 C39.15108054 34.23363881 37.29511969 34.41303635 35.4375 34.5625 C34.42558594 34.64628906 33.41367187 34.73007812 32.37109375 34.81640625 C31.58863281 34.87699219 30.80617188 34.93757813 30 35 C30.69867188 35.61488281 31.39734375 36.22976563 32.1171875 36.86328125 C33.02726563 37.67152344 33.93734375 38.47976563 34.875 39.3125 C35.77992188 40.11300781 36.68484375 40.91351563 37.6171875 41.73828125 C41.84910744 45.75513641 41.84910744 45.75513641 42.265625 49.19140625 C42.26046875 49.97386719 42.2553125 50.75632812 42.25 51.5625 C42.25773437 52.74005859 42.25773437 52.74005859 42.265625 53.94140625 C42 56 42 56 40 58 C33.69597277 58.55298484 28.85616247 57.27739652 23 55 C23.433125 55.8353125 23.433125 55.8353125 23.875 56.6875 C26.49999968 62.08333267 27.81428173 65.99467227 27 72 C25.5 74.5 25.5 74.5 23 76 C17.20719284 76.86892107 13.75679902 75.94453628 8.9609375 72.63671875 C5.08032009 69.39771736 1.27662108 65.55324217 -1 61 C-1.36351562 61.83144531 -1.36351562 61.83144531 -1.734375 62.6796875 C-2.06953125 63.40414062 -2.4046875 64.12859375 -2.75 64.875 C-3.07484375 65.59429687 -3.3996875 66.31359375 -3.734375 67.0546875 C-5.25378291 69.39007373 -6.41104761 70.03769128 -9 71 C-12.36249517 71.435879 -14.83525819 71.73146805 -17.78515625 69.87890625 C-19.25111291 68.65554289 -20.63331622 67.33335003 -22 66 C-22.0470086 70.2495772 -21.52498516 74.15415228 -18.7421875 77.52246094 C-16.04495052 80.2352589 -13.15268302 82.68821888 -10.2265625 85.1484375 C-7.5215502 87.43611382 -5.64749457 89.78380501 -3.6875 92.75 C-1.25914689 95.7213768 -0.22242117 95.9771936 3.6953125 96.37890625 C6.52926358 96.38321619 9.34976146 96.25021165 12.1796875 96.109375 C18.78260074 95.92033454 22.87319255 97.70942523 27.75 102.1875 C35.11594784 110.27330183 38.2038604 120.94959437 37.92822266 131.83447266 C37.52596675 138.24885151 36.82701932 144.62749738 36 151 C36.74644775 150.73372803 37.49289551 150.46745605 38.26196289 150.19311523 C100.4693575 128.211687 100.4693575 128.211687 116.8671875 135.2265625 C119 137 119 137 120.01953125 139.359375 C119.97313223 145.63252214 113.92597451 150.95930138 109.8359375 155.29296875 C94.41019026 169.84406022 75.4902699 179.99798288 56.5625 189.1875 C55.75119629 189.58670654 54.93989258 189.98591309 54.10400391 190.3972168 C53.34909668 190.75468994 52.59418945 191.11216309 51.81640625 191.48046875 C50.81782593 191.95842896 50.81782593 191.95842896 49.79907227 192.44604492 C48 193 48 193 45 192 C46 189 46 189 48.29052734 187.65649414 C49.2955127 187.20395264 50.30049805 186.75141113 51.3359375 186.28515625 C52.45419922 185.76985352 53.57246094 185.25455078 54.72460938 184.72363281 C55.61829224 184.31788025 55.61829224 184.31788025 56.5300293 183.90393066 C73.39687561 176.21151491 89.01681247 167.26595398 103 155 C103.67289062 154.45859375 104.34578125 153.9171875 105.0390625 153.359375 C109.1955496 149.99881096 112.16596799 146.55162717 115 142 C115 141.01 115 140.02 115 139 C107.33779634 135.16889817 95.79398435 138.75551082 87.95654297 140.55566406 C86.07100387 140.98387484 84.17811517 141.37931987 82.28515625 141.7734375 C71.3101004 144.12304654 60.65486068 147.49427813 49.97607422 150.91455078 C48.77354004 151.29724121 47.57100586 151.67993164 46.33203125 152.07421875 C45.25671143 152.42057373 44.1813916 152.76692871 43.07348633 153.1237793 C40.05687451 153.98378564 37.10157607 154.54786249 34 155 C33.82984375 155.66386719 33.6596875 156.32773437 33.484375 157.01171875 C30.47925083 167.96124033 30.47925083 167.96124033 24.66015625 171.37109375 C16.65608874 175.52004504 10.06565819 176.87058177 1 176 C-3.11449854 174.61977871 -6.40926988 172.39382008 -10 170 C-10.165 170.804375 -10.33 171.60875 -10.5 172.4375 C-13.02755232 178.44043675 -17.55694795 184.20918342 -23.5625 187.0625 C-27.19878572 188.05421429 -30.24832791 188.22969421 -34 188 C-33.67 187.01 -33.34 186.02 -33 185 C-30.70703125 184.078125 -30.70703125 184.078125 -27.8125 183.25 C-22.11587751 181.26760485 -18.99844813 179.26108077 -16 174 C-8.70950082 158.7673369 -5.61064763 138.71379029 -10.625 122.25 C-13.93149435 113.9954067 -19.35997561 106.64240774 -27.54296875 102.80859375 C-33.20337383 100.56785409 -37.93020045 99.17697633 -44 100 C-46.65683189 101.49748707 -48.84652751 102.84652751 -51 105 C-51.08256205 106.97843131 -51.13988122 108.95791939 -51.1875 110.9375 C-51.74048413 120.1761486 -54.80366451 128.37869142 -58 137 C-61.04822989 136.67804045 -62.58517168 136.43440449 -64.73828125 134.1796875 C-65.51751953 133.03886719 -65.51751953 133.03886719 -66.3125 131.875 C-73.70670223 121.83545818 -82.8667041 115.95838686 -95 113 C-109.55933987 111.60567569 -120.79056066 115.29456969 -133.22265625 122.609375 C-136 124 -136 124 -140 124 C-138.53549777 119.48529314 -135.03944448 117.97160291 -131.0625 115.9375 C-130.38082764 115.58751953 -129.69915527 115.23753906 -128.99682617 114.87695312 C-116.2087766 108.48518532 -102.24105797 106.74278722 -88.171875 109.84375 C-76.65439405 113.88305611 -68.64956 121.76924604 -61 131 C-60.52014033 129.72942818 -60.0411407 128.45853152 -59.5625 127.1875 C-59.29566406 126.47980469 -59.02882813 125.77210938 -58.75390625 125.04296875 C-57.23170728 120.91804616 -56.85132764 117.58276156 -56.6875 113.1875 C-56.19741966 105.97737861 -54.70925593 102.70925593 -49.625 97.625 C-42.87608764 94.59962549 -35.70194543 94.79818359 -28.703125 97.0703125 C-21.42241231 100.45196332 -14.12600519 105.17876887 -10.7890625 112.74609375 C-10.52867187 113.48988281 -10.26828125 114.23367188 -10 115 C-9.46890625 114.59007812 -8.9378125 114.18015625 -8.390625 113.7578125 C-7.68421875 113.21898437 -6.9778125 112.68015625 -6.25 112.125 C-5.55390625 111.59132813 -4.8578125 111.05765625 -4.140625 110.5078125 C0.92959946 106.93645002 4.86937636 106.21653372 11 107 C15.64621414 108.30628385 19.06137608 110.10716261 22.5625 113.4375 C25.5366295 120.80816875 24.76091833 128.66700092 22 136 C21.01 136 20.02 136 19 136 C19.02094727 135.44538086 19.04189453 134.89076172 19.06347656 134.31933594 C19.14683548 131.79640977 19.19871868 129.27377351 19.25 126.75 C19.30027344 125.44095703 19.30027344 125.44095703 19.3515625 124.10546875 C19.48902675 118.93644989 19.48902675 118.93644989 17.171875 114.453125 C12.49778908 111.32585888 7.43744177 111.3742291 2 112 C-1.85544798 113.99657127 -3.59805092 115.39707638 -6 119 C-5.801551 120.6046629 -5.58859534 122.20875394 -5.30615234 123.80078125 C-4.65224848 128.49804285 -4.81143467 133.26601038 -4.8125 138 C-4.80609497 139.66035278 -4.80609497 139.66035278 -4.79956055 141.35424805 C-4.82857384 148.85445875 -5.4582145 155.88459473 -7.05078125 163.20703125 C-7.31087674 166.19649315 -7.31087674 166.19649315 -4.79296875 168.32421875 C1.54767929 172.12860757 8.78736909 171.68088503 16 171 C21.15319846 169.44896699 24.77992778 167.08627092 27.375 162.3125 C27.93340644 160.88141954 28.47296099 159.4429272 29 158 C29.26385498 157.28924316 29.52770996 156.57848633 29.79956055 155.84619141 C32.14126145 148.87201127 32.48439071 142.38171387 32.4375 135.0625 C32.45748047 133.95970703 32.47746094 132.85691406 32.49804688 131.72070312 C32.49232014 122.01389106 30.61107368 112.60292663 23.69140625 105.37109375 C18.14570838 100.87562042 11.88665278 100.45890585 5 101 C2.64372929 101.2598828 0.33869095 101.60192495 -2 102 C-2.31710937 101.53851563 -2.63421875 101.07703125 -2.9609375 100.6015625 C-10.9009574 89.44036594 -10.9009574 89.44036594 -22 82 C-22.99 82 -23.98 82 -25 82 C-25.03867187 80.948125 -25.03867187 80.948125 -25.078125 79.875 C-25.64902855 70.32534055 -28.06053658 64.0100576 -35.17578125 57.4765625 C-41.33220845 52.49341586 -47.37070174 52.35806218 -55.12890625 52.51953125 C-62.50264501 53.43473798 -69.27415427 56.56675679 -74.1875 62.25 C-76.41586216 65.63096328 -77.17034952 67.37920075 -77.25 71.375 C-77.27578125 72.14585937 -77.3015625 72.91671875 -77.328125 73.7109375 C-76.89439871 76.73669475 -76.2943446 77.95394119 -74 80 C-71.35510619 80.38922539 -69.19781628 80.52081436 -66.5625 80.4375 C-65.85254883 80.4279126 -65.14259766 80.4183252 -64.41113281 80.40844727 C-58.84972301 80.24285473 -53.77076123 79.22963866 -48.453125 77.55859375 C-45.86176203 76.96852225 -44.47703303 77.12609349 -42 78 C-42.33 78.99 -42.66 79.98 -43 81 C-45.51171875 81.9140625 -45.51171875 81.9140625 -48.6875 82.625 C-49.72261719 82.86476563 -50.75773438 83.10453125 -51.82421875 83.3515625 C-56.93911682 84.39593283 -61.83361324 85.16903659 -67.0625 85.25 C-68.06410156 85.27578125 -69.06570313 85.3015625 -70.09765625 85.328125 C-74.35030787 84.8473407 -76.96884918 83.13782159 -79.8125 80 C-81 78 -81 78 -81 75 C-90.24 75 -99.48 75 -109 75 C-109 77.31 -109 79.62 -109 82 C-110.74816893 86.35028214 -113.41227871 88.68514931 -117.5 90.875 C-135.67757131 96.71779078 -154.07727734 91.04677969 -171.5625 85.5 C-172.94731567 85.07352173 -172.94731567 85.07352173 -174.36010742 84.63842773 C-175.63785034 84.21412476 -175.63785034 84.21412476 -176.94140625 83.78125 C-177.70138916 83.53439453 -178.46137207 83.28753906 -179.24438477 83.03320312 C-181 82 -181 82 -181.75366211 79.88867188 C-181.83495361 79.26541016 -181.91624512 78.64214844 -182 78 C-176.75708039 78.68897341 -171.99471997 80.22012895 -167 81.875 C-155.29475264 85.61147755 -144.40691701 88.24338527 -132.0625 88.4375 C-131.17385254 88.45989746 -130.28520508 88.48229492 -129.36962891 88.50537109 C-123.41413303 88.48399297 -119.8532886 87.50870996 -115 84 C-112.52148623 79.36625686 -112.30123696 74.15337742 -113 69 C-115.31105051 61.6729194 -119.88841053 57.93740476 -126.3125 53.9375 C-133.0438933 50.7158604 -140.73475381 49.5147378 -148 48 C-148.71091797 47.82436523 -149.42183594 47.64873047 -150.15429688 47.46777344 C-154.24907142 46.79467906 -158.31332825 46.76310022 -162.45703125 46.68359375 C-163.81147591 46.6524221 -163.81147591 46.6524221 -165.19328308 46.62062073 C-168.06628097 46.5554472 -170.93936714 46.49639045 -173.8125 46.4375 C-175.76498294 46.39428414 -177.71745708 46.35066888 -179.66992188 46.30664062 C-184.44652503 46.19979893 -189.22321664 46.09844143 -194 46 C-194 45.01 -194 44.02 -194 43 C-186.86886144 41.85901783 -179.75572887 41.77982029 -172.54858398 41.75976562 C-170.46621605 41.75013284 -168.38486882 41.71906617 -166.30273438 41.6875 C-150.47532931 41.56225853 -130.08370277 43.7667068 -117.64453125 54.3359375 C-112.33779388 59.70570026 -110.12632522 63.55786174 -108 71 C-95.13 71.495 -95.13 71.495 -82 72 C-81.67 69.69 -81.34 67.38 -81 65 C-77.21069755 57.2995961 -69.86105183 52.57727034 -62.25 49.125 C-55.07626556 46.73375519 -46.88174261 46.78959103 -40 49.9375 C-39.01 50.47697266 -39.01 50.47697266 -38 51.02734375 C-35.46499902 52.26018602 -33.85222634 52.94936876 -31 53 C-28.62994522 51.34525968 -26.78626962 49.81580462 -24.75 47.8125 C-24.18369873 47.27238281 -23.61739746 46.73226562 -23.03393555 46.17578125 C-16.73136125 40.01144085 -10.70723503 33.06085976 -7 25 C-6.01 25 -5.02 25 -4 25 C-4.43791223 30.32660517 -6.23100416 33.07396288 -9.5625 37.1875 C-13.07690147 41.11675752 -13.07690147 41.11675752 -14 46 C-0.86470361 53.72310418 -0.86470361 53.72310418 14 54 C18.06005965 52.11160016 19.68809667 50.46375295 21.3125 46.3125 C21.63863281 45.50425781 21.96476563 44.69601562 22.30078125 43.86328125 C22.53152344 43.24839844 22.76226562 42.63351562 23 42 C23.66 42 24.32 42 25 42 C26.03176646 33.30368273 22.9749106 27.0507132 18 20 C14.62049006 15.72826893 10.84205638 11.85330691 7 8 C5.88044922 6.87658203 5.88044922 6.87658203 4.73828125 5.73046875 C4.10277344 5.09753906 3.46726562 4.46460938 2.8125 3.8125 C1.4203125 2.4203125 1.4203125 2.4203125 0 1 C0 0.67 0 0.34 0 0 Z M-27 55 C-27.99 56.485 -27.99 56.485 -29 58 C-27.35 59.65 -25.7 61.3 -24 63 C-24.54723683 59.62537285 -25.0549 57.91765 -27 55 Z " fill="#330B58" transform="translate(361,235)"/>
<path d="M0 0 C20.96715641 18.9084477 37.95335112 42.57405571 41.5859375 71.33203125 C41.65171752 73.78957266 41.67162912 76.24871903 41.6484375 78.70703125 C41.63941406 79.95226562 41.63039063 81.1975 41.62109375 82.48046875 C41.60369141 83.89199219 41.60369141 83.89199219 41.5859375 85.33203125 C42.2459375 85.00203125 42.9059375 84.67203125 43.5859375 84.33203125 C47.1484375 84.20703125 47.1484375 84.20703125 50.5859375 84.33203125 C51.5859375 85.33203125 51.5859375 85.33203125 51.6484375 87.89453125 C51.6278125 88.69890625 51.6071875 89.50328125 51.5859375 90.33203125 C52.31039063 90.02007812 53.03484375 89.708125 53.78125 89.38671875 C61.77633201 86.16736573 61.77633201 86.16736573 66.2734375 87.08203125 C67.0365625 87.49453125 67.7996875 87.90703125 68.5859375 88.33203125 C68.2559375 90.31203125 67.9259375 92.29203125 67.5859375 94.33203125 C68.94138672 94.27982422 68.94138672 94.27982422 70.32421875 94.2265625 C71.50371094 94.19949219 72.68320312 94.17242187 73.8984375 94.14453125 C75.07019531 94.10972656 76.24195313 94.07492188 77.44921875 94.0390625 C80.5859375 94.33203125 80.5859375 94.33203125 82.50390625 95.71875 C83.5859375 97.33203125 83.5859375 97.33203125 83.5859375 99.33203125 C82.19880858 102.10628909 80.2932794 102.94365079 77.5859375 104.33203125 C78.22402344 104.61175781 78.86210937 104.89148438 79.51953125 105.1796875 C82.06555558 106.41496607 84.3330152 107.61470934 86.5859375 109.33203125 C87.6484375 113.14453125 87.6484375 113.14453125 87.5859375 116.33203125 C85.03524905 118.6865129 83.87576392 119.31531049 80.3359375 119.51953125 C79.4284375 119.45765625 78.5209375 119.39578125 77.5859375 119.33203125 C79.45160238 122.95997123 79.45160238 122.95997123 82.5859375 125.33203125 C82.94965673 131.75773772 82.94965673 131.75773772 81.3984375 134.20703125 C78.91655662 135.74750904 77.55100373 136.20311533 74.5859375 136.33203125 C70.77848682 135.35542345 67.10349813 134.09081157 63.5859375 132.33203125 C63.6684375 133.42515625 63.7509375 134.51828125 63.8359375 135.64453125 C63.5859375 139.33203125 63.5859375 139.33203125 61.9609375 141.33203125 C58.68670007 142.71065754 56.96667404 142.3669506 53.5859375 141.33203125 C48.96654024 138.47240438 47.02692686 135.03319594 44.5859375 130.33203125 C44.2765625 131.29109375 44.2765625 131.29109375 43.9609375 132.26953125 C42.5859375 134.33203125 42.5859375 134.33203125 39.4609375 135.08203125 C38.5121875 135.16453125 37.5634375 135.24703125 36.5859375 135.33203125 C37.0809375 136.28078125 37.5759375 137.22953125 38.0859375 138.20703125 C39.5859375 141.33203125 39.5859375 141.33203125 39.5859375 143.33203125 C37.8359375 143.20703125 37.8359375 143.20703125 35.5859375 142.33203125 C29.95383042 135.37472251 28.86232461 127.99520545 29.5859375 119.33203125 C30.54159085 114.77179506 31.82177481 110.31500778 33.0859375 105.83203125 C36.0220171 94.72794331 37.86890715 84.77254278 36.5859375 73.33203125 C36.51584473 72.66349121 36.44575195 71.99495117 36.37353516 71.30615234 C33.98032013 50.84293024 23.80673576 31.2089859 9.59375 16.4453125 C7.5859375 14.33203125 7.5859375 14.33203125 5.7265625 11.89453125 C-12.69468271 -10.15717835 -48.61945535 -22.81115932 -76.41113281 -25.45703125 C-112.69950317 -28.006068 -143.96158078 -21.20984461 -173.4140625 0.33203125 C-174.4040625 0.99203125 -175.3940625 1.65203125 -176.4140625 2.33203125 C-177.14749678 5.39759723 -177.14749678 5.39759723 -177.4140625 8.33203125 C-178.0946875 7.65140625 -178.7753125 6.97078125 -179.4765625 6.26953125 C-180.1571875 5.59277344 -180.1571875 5.59277344 -180.8515625 4.90234375 C-181.96603622 3.78229766 -183.06901445 2.65076426 -184.1640625 1.51171875 C-184.7621875 0.89554688 -185.3603125 0.279375 -185.9765625 -0.35546875 C-186.53472656 -0.93683594 -187.09289062 -1.51820312 -187.66796875 -2.1171875 C-190.72438977 -4.83172698 -193.39262577 -5.95686218 -197.4765625 -5.98046875 C-201.20896377 -5.94695743 -201.20896377 -5.94695743 -203.4140625 -4.60546875 C-205.03378581 -1.46725484 -204.82632959 0.85720866 -204.4140625 4.33203125 C-201.18322748 10.7937013 -195.34080593 15.38086896 -189.4140625 19.33203125 C-189.2265625 22.45703125 -189.2265625 22.45703125 -189.4140625 25.33203125 C-190.8990625 24.83703125 -190.8990625 24.83703125 -192.4140625 24.33203125 C-192.7440625 23.34203125 -193.0740625 22.35203125 -193.4140625 21.33203125 C-194.11273438 21.35523438 -194.81140625 21.3784375 -195.53125 21.40234375 C-196.44132812 21.42039063 -197.35140625 21.4384375 -198.2890625 21.45703125 C-199.64644531 21.49183594 -199.64644531 21.49183594 -201.03125 21.52734375 C-203.4140625 21.33203125 -203.4140625 21.33203125 -205.4140625 19.33203125 C-205.1640625 17.26953125 -205.1640625 17.26953125 -204.4140625 15.33203125 C-203.4240625 14.83703125 -203.4240625 14.83703125 -202.4140625 14.33203125 C-203.6515625 14.41453125 -204.8890625 14.49703125 -206.1640625 14.58203125 C-209.51912948 14.60582605 -210.16854154 14.52844802 -212.9140625 12.33203125 C-213.4090625 11.67203125 -213.9040625 11.01203125 -214.4140625 10.33203125 C-212.5390625 5.45703125 -212.5390625 5.45703125 -211.4140625 4.33203125 C-212.2596875 3.58953125 -213.1053125 2.84703125 -213.9765625 2.08203125 C-214.7809375 1.17453125 -215.5853125 0.26703125 -216.4140625 -0.66796875 C-216.2265625 -2.98046875 -216.2265625 -2.98046875 -215.4140625 -4.66796875 C-214.7953125 -4.81234375 -214.1765625 -4.95671875 -213.5390625 -5.10546875 C-211.38147928 -5.599491 -211.38147928 -5.599491 -209.4140625 -6.66796875 C-209.4553125 -7.45171875 -209.4965625 -8.23546875 -209.5390625 -9.04296875 C-209.4140625 -11.66796875 -209.4140625 -11.66796875 -207.4140625 -13.66796875 C-205.28515625 -13.49609375 -205.28515625 -13.49609375 -202.8515625 -12.91796875 C-202.04589844 -12.7375 -201.24023438 -12.55703125 -200.41015625 -12.37109375 C-198.4140625 -11.66796875 -198.4140625 -11.66796875 -197.4140625 -9.66796875 C-196.7540625 -11.31796875 -196.0940625 -12.96796875 -195.4140625 -14.66796875 C-192.82122921 -13.59507221 -191.55702763 -12.87050269 -189.9140625 -10.54296875 C-189.4190625 -9.92421875 -188.9240625 -9.30546875 -188.4140625 -8.66796875 C-187.0940625 -8.66796875 -185.7740625 -8.66796875 -184.4140625 -8.66796875 C-183.05966582 -5.9591754 -183.34904799 -3.65863607 -183.4140625 -0.66796875 C-179.04480861 -1.92539938 -175.98200424 -3.49436444 -172.4140625 -6.29296875 C-123.74866918 -42.46496136 -46.4318127 -39.10453328 0 0 Z " fill="#2F0656" transform="translate(317.4140625,84.66796875)"/>
<path d="M0 0 C3.94395572 0.17927071 5.69476113 0.74332186 8.75 3.3125 C10.61098336 5.53534124 11.91575081 7.33866108 13 10 C13.99 8.35 14.98 6.7 16 5 C18.1875 5 18.1875 5 21 6 C24.28623684 9.88131216 26 12.86678474 26 18 C26.99 17.34 27.98 16.68 29 16 C31.4375 15.5 31.4375 15.5 34 16 C37.32806987 19.88274818 38.30349226 23.02693472 39 28 C38.15179688 27.48050781 37.30359375 26.96101563 36.4296875 26.42578125 C24.58460866 19.32146244 12.81460295 14.69519853 -1 13 C-1.33 13.99 -1.66 14.98 -2 16 C-3.99145391 17.01691264 -5.99187074 18.01642648 -8 19 C-10.54942138 22.82413206 -10.59616601 24.45423416 -10 29 C-4.36415803 39.38920334 5.21288097 45.01525002 16 49 C19.72538575 50.02801547 23.49507028 50.76617467 27.296875 51.45703125 C30 52 30 52 31 53 C31.04080783 54.99958364 31.04254356 57.00045254 31 59 C29.68 59 28.36 59 27 59 C27 58.01 27 57.02 27 56 C26.484375 56.309375 25.96875 56.61875 25.4375 56.9375 C22.33661797 58.28916653 19.34231074 58.53090376 16 59 C14.32132533 59.63582512 12.65181499 60.29734114 11 61 C11.6496875 61.42152344 12.299375 61.84304687 12.96875 62.27734375 C13.8040625 62.82519531 14.639375 63.37304688 15.5 63.9375 C16.3353125 64.48277344 17.170625 65.02804688 18.03125 65.58984375 C18.6809375 66.05519531 19.330625 66.52054687 20 67 C20 67.33 20 67.66 20 68 C19.09870361 68.01458252 18.19740723 68.02916504 17.26879883 68.04418945 C13.85955671 68.10598511 10.45102552 68.18026194 7.04223633 68.26245117 C5.57912094 68.29529237 4.11589122 68.3234448 2.65258789 68.34643555 C-11.3045304 68.57147313 -27.13473854 69.3176516 -37.6875 79.625 C-38.3371875 80.800625 -38.3371875 80.800625 -39 82 C-38.67 82.99 -38.34 83.98 -38 85 C-38.33 85.99 -38.66 86.98 -39 88 C-39.3642972 93.55553237 -39.33594763 97.30882365 -36 102 C-27.73600294 109.29054377 -16.32059254 110.53943238 -5.72265625 110.29296875 C3.50461789 109.56679293 12.46222626 107.73301054 21.16796875 104.5703125 C23.8591799 103.73253675 26.21796018 103.66072685 29 104 C31 106 31 106 31.125 108.625 C31.08375 109.40875 31.0425 110.1925 31 111 C29.68 111.33 28.36 111.66 27 112 C27 110.68 27 109.36 27 108 C25.68 108 24.36 108 23 108 C22.87625 108.598125 22.7525 109.19625 22.625 109.8125 C22 112 22 112 20 115 C18.68 115 17.36 115 16 115 C15.7215625 116.051875 15.7215625 116.051875 15.4375 117.125 C13.23435556 121.53128888 9.40998511 124.79500745 5 127 C2.3276379 127.13415472 -0.32250488 127.04318541 -3 127 C-4.32 124.36 -5.64 121.72 -7 119 C-7.99 120.5778125 -7.99 120.5778125 -9 122.1875 C-12.45718627 126.96540911 -16.49748798 130.2914326 -22.375 131.48046875 C-24.75845603 131.62551459 -26.68252932 131.57480572 -29 131 C-31.98286735 128.31541938 -33.40454205 125.94031432 -34 122 C-33.44140625 119.859375 -33.44140625 119.859375 -32.5625 117.75 C-32.13130859 116.69039062 -32.13130859 116.69039062 -31.69140625 115.609375 C-31.34916016 114.81273437 -31.34916016 114.81273437 -31 114 C-32.03447266 114.34224609 -32.03447266 114.34224609 -33.08984375 114.69140625 C-39.21197267 116.56415625 -44.74604977 118.03034055 -51 116 C-54.68304184 113.44441995 -55.76497404 111.97626167 -56.8125 107.625 C-55.61179958 102.2680289 -52.22673723 100.21673375 -48 97 C-47.01 96.01 -47.01 96.01 -46 95 C-46.69867188 94.67386719 -47.39734375 94.34773438 -48.1171875 94.01171875 C-49.02726562 93.57472656 -49.93734375 93.13773437 -50.875 92.6875 C-51.77992187 92.25824219 -52.68484375 91.82898438 -53.6171875 91.38671875 C-56 90 -56 90 -58 87 C-57.80806957 83.92911318 -57.55645557 81.7790378 -55.75 79.25 C-50.92424863 75.80303474 -45.7449612 75.4756177 -40 75 C-40.99 74.13375 -41.98 73.2675 -43 72.375 C-45.53414634 69.87654587 -45.96317186 69.33145329 -46.375 65.625 C-46.25125 64.75875 -46.1275 63.8925 -46 63 C-42.28547678 60.62270514 -39.3433829 60.50961806 -35 61 C-32.2545617 62.16559289 -29.65879646 63.48162126 -27.0390625 64.90625 C-25.23877606 66.07878164 -25.23877606 66.07878164 -24 66 C-24.20625 65.0925 -24.4125 64.185 -24.625 63.25 C-25.02486177 59.78453137 -24.65475295 58.90529144 -23 56 C-14.30386662 56 -9.6003908 59.58397839 -3 65 C-2.731875 64.030625 -2.46375 63.06125 -2.1875 62.0625 C-1.5996875 60.5465625 -1.5996875 60.5465625 -1 59 C-0.01 58.67 0.98 58.34 2 58 C2 56.02 2 54.04 2 52 C2.66 52 3.32 52 4 52 C4 51.34 4 50.68 4 50 C3.30003906 50.32226562 2.60007813 50.64453125 1.87890625 50.9765625 C-1.25939443 52.09221349 -3.73976945 52.33299329 -7.0625 52.375 C-8.08472656 52.40335938 -9.10695312 52.43171875 -10.16015625 52.4609375 C-13.69019389 51.88797403 -14.82823964 50.78352384 -17 48 C-17.5625 45.5 -17.5625 45.5 -17 43 C-14.5 40.6875 -14.5 40.6875 -12 39 C-12.59167969 38.85304687 -13.18335938 38.70609375 -13.79296875 38.5546875 C-19.69727167 36.8787516 -22.73177575 35.27132944 -26 30 C-26.5625 27.375 -26.5625 27.375 -26 25 C-24.5 22.6875 -24.5 22.6875 -22 21 C-19.24146096 20.66834359 -16.79575714 20.81361619 -14 21 C-14.144375 20.319375 -14.28875 19.63875 -14.4375 18.9375 C-15.07345699 15.61639126 -15.68216984 12.36899968 -16 9 C-14 7 -14 7 -10.1875 6.6875 C-6.39698569 6.76344837 -4.07497576 7.69376818 -1 10 C-1.01160156 9.36191406 -1.02320313 8.72382812 -1.03515625 8.06640625 C-1.04417969 7.24011719 -1.05320313 6.41382812 -1.0625 5.5625 C-1.07410156 4.73878906 -1.08570313 3.91507812 -1.09765625 3.06640625 C-1 1 -1 1 0 0 Z M-31 112 C-30.67 112.66 -30.34 113.32 -30 114 C-29.67 113.34 -29.34 112.68 -29 112 C-29.66 112 -30.32 112 -31 112 Z " fill="#340656" transform="translate(77,89)"/>
<path d="M0 0 C0.99 0 1.98 0 3 0 C4.17578125 1.609375 4.17578125 1.609375 5.3125 3.75 C8.19504874 8.67036265 11.56305733 11.18768578 17 13 C23.17433627 13.60532709 26.80173469 11.93675195 32 9 C33.33006776 8.3268418 34.66254076 7.65835022 36 7 C36.268125 7.51949219 36.53625 8.03898438 36.8125 8.57421875 C39.8572101 13.99260086 43.02991611 17.84636236 49 20 C52.72360999 20.47803101 56.28623941 20.59395161 60 20 C60.66 19.34 61.32 18.68 62 18 C62.99 18 63.98 18 65 18 C64.8125 19.8125 64.8125 19.8125 64 22 C60.33874929 24.92900057 57.6175429 25.32215416 53 25 C52.89042969 25.99386719 52.78085937 26.98773438 52.66796875 28.01171875 C52.07006289 32.16366886 50.80746887 35.90560383 49.3125 39.8125 C48.91538818 40.85917847 48.91538818 40.85917847 48.51025391 41.92700195 C45.20769808 50.36480776 40.83454748 59.08009664 33.6875 64.875 C29.91053303 66.45605594 27.92397581 66.15013084 24 65 C17.35793404 61.26738601 14.25211184 55.05999105 12 48 C9.94158834 39.37957895 9.6961702 30.99273236 9.87304688 22.16601562 C9.90460377 16.74329048 9.90460377 16.74329048 7.45849609 12.10791016 C5.62501512 10.53670444 5.62501512 10.53670444 3.69799805 9.30981445 C1.63324406 7.71708905 0.90449652 6.43483299 0 4 C0 2.68 0 1.36 0 0 Z " fill="#2B0455" transform="translate(219,200)"/>
<path d="M0 0 C8.18289786 2.00712589 8.18289786 2.00712589 10 5 C10.25265405 8.09501208 10.39935013 10.20129973 9 13 C8.34 13 7.68 13 7 13 C10.65790241 17.31656008 14.39677 21.41337578 18.5 25.3125 C23.27767982 30.02495552 26.64612377 35.21933528 30 41 C30.639375 41.969375 31.27875 42.93875 31.9375 43.9375 C33.64526785 48.85988968 33.22536241 53.84170487 33 59 C32.67 58.01 32.34 57.02 32 56 C31.34 56 30.68 56 30 56 C29.9071875 57.299375 29.9071875 57.299375 29.8125 58.625 C28.75109107 63.0339294 27.15610732 64.76874726 24 68 C16.40331488 70.53222837 9.67002262 69.66933024 2.5378418 66.28295898 C-6.54491422 61.68262867 -6.54491422 61.68262867 -9 58 C-8.45730469 57.33613281 -7.91460937 56.67226563 -7.35546875 55.98828125 C-6.64003906 55.10527344 -5.92460937 54.22226562 -5.1875 53.3125 C-4.47980469 52.44238281 -3.77210938 51.57226562 -3.04296875 50.67578125 C-0.22554569 46.98565735 2.14546923 43.61446618 3 39 C2.34 38.67 1.68 38.34 1 38 C1.99 38 2.98 38 4 38 C3.95875 37.05125 3.9175 36.1025 3.875 35.125 C4 32 4 32 6 30 C6.81697532 22.50929126 6.43332132 15.73948259 3 9 C2.01 8.34 1.02 7.68 0 7 C0.99 7 1.98 7 3 7 C2.505 6.21625 2.01 5.4325 1.5 4.625 C0 2 0 2 0 0 Z " fill="#FB8FAA" transform="translate(354,221)"/>
<path d="M0 0 C0.99 0.33 1.98 0.66 3 1 C2.835 1.66 2.67 2.32 2.5 3 C1.4308056 9.41516639 1.13023432 14.55814201 5 20 C13.26399706 27.29054377 24.67940746 28.53943238 35.27734375 28.29296875 C44.50461789 27.56679293 53.46222626 25.73301054 62.16796875 22.5703125 C64.8591799 21.73253675 67.21796018 21.66072685 70 22 C72 24 72 24 72.125 26.625 C72.08375 27.40875 72.0425 28.1925 72 29 C70.68 29.33 69.36 29.66 68 30 C68 28.68 68 27.36 68 26 C66.68 26 65.36 26 64 26 C63.814375 26.8971875 63.814375 26.8971875 63.625 27.8125 C63 30 63 30 61 33 C59.68 33 58.36 33 57 33 C56.7215625 34.051875 56.7215625 34.051875 56.4375 35.125 C54.23435556 39.53128888 50.40998511 42.79500745 46 45 C43.3276379 45.13415472 40.67749512 45.04318541 38 45 C36.68 42.36 35.36 39.72 34 37 C33.34 38.051875 32.68 39.10375 32 40.1875 C28.54281373 44.96540911 24.50251202 48.2914326 18.625 49.48046875 C16.24154397 49.62551459 14.31747068 49.57480572 12 49 C9.01713265 46.31541938 7.59545795 43.94031432 7 40 C7.55859375 37.859375 7.55859375 37.859375 8.4375 35.75 C8.86869141 34.69039062 8.86869141 34.69039062 9.30859375 33.609375 C9.53675781 33.07828125 9.76492187 32.5471875 10 32 C8.96552734 32.34224609 8.96552734 32.34224609 7.91015625 32.69140625 C1.78802733 34.56415625 -3.74604977 36.03034055 -10 34 C-13.68304184 31.44441995 -14.76497404 29.97626167 -15.8125 25.625 C-14.63665523 20.37892335 -11.43268512 17.86344987 -7 15 C-4.734375 14.3046875 -4.734375 14.3046875 -3 14 C-3.061875 12.80375 -3.12375 11.6075 -3.1875 10.375 C-3.20943937 6.26502405 -2.13130434 3.5521739 0 0 Z M10 30 C10.33 30.66 10.66 31.32 11 32 C11.33 31.34 11.66 30.68 12 30 C11.34 30 10.68 30 10 30 Z " fill="#360858" transform="translate(36,171)"/>
<path d="M0 0 C9.05807103 -0.37800296 16.96215682 -0.47851077 24.625 4.8125 C26 7 26 7 26.0625 10.0625 C24.74491406 13.70523761 23.31410779 14.20729643 20 16 C21.2684375 16.22042969 21.2684375 16.22042969 22.5625 16.4453125 C29.9420407 17.90444896 35.61899205 19.5766219 41 25 C43 28 43 28 42.6875 30.625 C42 33 42 33 41 34 C39.15108054 34.23363881 37.29511969 34.41303635 35.4375 34.5625 C34.42558594 34.64628906 33.41367187 34.73007812 32.37109375 34.81640625 C31.58863281 34.87699219 30.80617188 34.93757813 30 35 C31.04800781 35.92232422 31.04800781 35.92232422 32.1171875 36.86328125 C33.48230469 38.07564453 33.48230469 38.07564453 34.875 39.3125 C36.23238281 40.51326172 36.23238281 40.51326172 37.6171875 41.73828125 C41.84910744 45.75513641 41.84910744 45.75513641 42.265625 49.19140625 C42.26046875 49.97386719 42.2553125 50.75632812 42.25 51.5625 C42.25773437 52.74005859 42.25773437 52.74005859 42.265625 53.94140625 C42 56 42 56 40 58 C33.69597277 58.55298484 28.85616247 57.27739652 23 55 C23.28875 55.556875 23.5775 56.11375 23.875 56.6875 C26.49999968 62.08333267 27.81428173 65.99467227 27 72 C25.5 74.5 25.5 74.5 23 76 C17.21152761 76.86827086 13.73693985 75.9585014 8.9609375 72.6171875 C4.25223091 68.73391155 0.44049613 65.39410893 -0.69140625 59.2421875 C-0.79324219 58.17226563 -0.89507812 57.10234375 -1 56 C0.01320313 56.03480469 1.02640625 56.06960938 2.0703125 56.10546875 C3.4218583 56.13362595 4.77342219 56.16092403 6.125 56.1875 C6.79015625 56.21263672 7.4553125 56.23777344 8.140625 56.26367188 C12.87004791 56.33322221 16.04582177 55.60510566 20 53 C21.52280858 51.0260679 21.52280858 51.0260679 22.375 48.8125 C22.69210937 48.09707031 23.00921875 47.38164062 23.3359375 46.64453125 C23.55507813 46.10183594 23.77421875 45.55914062 24 45 C24.66 45 25.32 45 26 45 C26.18195453 30.57360498 19.35687042 20.64405719 9.66796875 10.67578125 C8.78753906 9.79277344 7.90710938 8.90976563 7 8 C6.25363281 7.25105469 5.50726563 6.50210938 4.73828125 5.73046875 C4.10277344 5.09753906 3.46726562 4.46460938 2.8125 3.8125 C1.884375 2.884375 0.95625 1.95625 0 1 C0 0.67 0 0.34 0 0 Z " fill="#E0325C" transform="translate(361,235)"/>
<path d="M0 0 C10.41782906 0.18603266 23.31483451 5.0039176 30.87109375 12.40234375 C32.97595744 15.38119928 33.60577762 18.42332788 34 22 C34.12375 23.051875 34.2475 24.10375 34.375 25.1875 C33.88519738 28.86101968 32.59773739 30.40226261 30 33 C26.22019729 35.6020381 22.05378684 35.42266009 17.625 35.4375 C16.43801514 35.44330078 16.43801514 35.44330078 15.22705078 35.44921875 C7.43764676 35.29897105 1.07289411 33.18393947 -6 30 C-6.19238745 24.95944869 -5.6189222 20.93390283 -4.125 16.125 C-2.5124691 10.77276979 -1.13218846 5.47224423 0 0 Z " fill="#FCADC1" transform="translate(358,175)"/>
<path d="M0 0 C4.78527809 3.34241416 4.78527809 3.34241416 6 7.0625 C6 10 6 10 4.9375 11.75 C-4.51288125 17.84702016 -18.69270319 15.54117935 -29.25244141 13.48510742 C-37.86541836 11.56552788 -45.89209952 8.44703247 -51 1 C-51 -1.125 -51 -1.125 -50 -3 C-38.1955256 -13.62402696 -12.46732675 -5.91503576 0 0 Z " fill="#FFFA99" transform="translate(347,231)"/>
<path d="M0 0 C15.73084919 0.25814727 29.91107178 6.40519749 41.9375 16.4375 C44.06311301 18.70970701 44.84977907 19.923706 45.375 23 C44.9375 25.4375 44.9375 25.4375 43.3046875 27.05859375 C37.4197406 30.48662388 29.41119661 29.02219193 23.0703125 27.5234375 C11.01401207 23.90193987 -1.86633279 18.23175081 -9.0625 7.4375 C-8.43807599 1.03715385 -6.11011208 0.11925592 0 0 Z " fill="#FFFA99" transform="translate(121.0625,172.5625)"/>
<path d="M0 0 C8.69613338 0 13.3996092 3.58397839 20 9 C20.2475 8.030625 20.495 7.06125 20.75 6.0625 C22 3 22 3 23.796875 2.09765625 C26.3395304 1.98494989 28.72178894 2.13810659 31.25 2.4375 C32.14203125 2.53933594 33.0340625 2.64117187 33.953125 2.74609375 C34.62859375 2.82988281 35.3040625 2.91367188 36 3 C35.34 3.66 34.68 4.32 34 5 C34.6496875 5.42152344 35.299375 5.84304687 35.96875 6.27734375 C36.8040625 6.82519531 37.639375 7.37304688 38.5 7.9375 C39.75296875 8.75541016 39.75296875 8.75541016 41.03125 9.58984375 C42.00578125 10.28787109 42.00578125 10.28787109 43 11 C43 11.33 43 11.66 43 12 C41.64805542 12.02187378 41.64805542 12.02187378 40.26879883 12.04418945 C36.85955671 12.10598511 33.45102552 12.18026194 30.04223633 12.26245117 C28.57912094 12.29529237 27.11589122 12.3234448 25.65258789 12.34643555 C10.98662745 12.58290215 -5.13453425 13.59846499 -16 24.6875 C-19.53510813 29.03776248 -20.44900764 33.51256585 -21 39 C-26.75583528 37.45758662 -31.43750491 36.10624297 -35 31 C-35 27.74893924 -34.64290677 25.90006948 -32.75 23.25 C-27.92424863 19.80303474 -22.7449612 19.4756177 -17 19 C-17.99 18.13375 -18.98 17.2675 -20 16.375 C-22.53414634 13.87654587 -22.96317186 13.33145329 -23.375 9.625 C-23.25125 8.75875 -23.1275 7.8925 -23 7 C-19.28547678 4.62270514 -16.3433829 4.50961806 -12 5 C-9.2545617 6.16559289 -6.65879646 7.48162126 -4.0390625 8.90625 C-2.23877606 10.07878164 -2.23877606 10.07878164 -1 10 C-1.20625 9.0925 -1.4125 8.185 -1.625 7.25 C-2.02486177 3.78453137 -1.65475295 2.90529144 0 0 Z " fill="#FE295C" transform="translate(54,145)"/>
<path d="M0 0 C-1 2 -2 4 -3 6 C-4.32 6 -5.64 6 -7 6 C-7.2784375 7.051875 -7.2784375 7.051875 -7.5625 8.125 C-9.76564444 12.53128888 -13.59001489 15.79500745 -18 18 C-20.6723621 18.13415472 -23.32250488 18.04318541 -26 18 C-27.32 15.36 -28.64 12.72 -30 10 C-30.66 11.051875 -31.32 12.10375 -32 13.1875 C-35.45718627 17.96540911 -39.49748798 21.2914326 -45.375 22.48046875 C-47.75845603 22.62551459 -49.68252932 22.57480572 -52 22 C-54.97415461 19.32326085 -56.43420337 16.93881501 -57 13 C-56.15447023 9.73318044 -54.82337692 6.8382754 -53 4 C-50.34060182 2.80327082 -49.08043164 2.70443364 -46.30078125 3.46484375 C-32.79740583 6.60569678 -17.93128059 5.04441952 -4.953125 0.5859375 C-3 0 -3 0 0 0 Z " fill="#F7285C" transform="translate(100,198)"/>
<path d="M0 0 C0.99 0.33 1.98 0.66 3 1 C3.12533528 8.52011659 3.12533528 8.52011659 2.5065918 10.88916016 C-3.49419304 35.8929123 8.18427344 66.07828714 21 87 C29.21977606 99.89337279 39.15260961 111.6760688 50.29248047 122.13134766 C51.58217523 123.36703725 52.79820938 124.67865953 54 126 C54 126.99 54 127.98 54 129 C50.05915769 128.4573558 48.36692506 126.65373758 45.6875 123.8125 C43.10605459 121.09201803 40.50970453 118.57276447 37.609375 116.203125 C33.67071351 112.86780134 30.6400223 109.06144537 27.5625 104.9375 C26.99829346 104.18726563 26.43408691 103.43703125 25.8527832 102.6640625 C5.71883695 75.5765359 -6.66518132 43.4141843 -2.0625 9.3125 C-1.56418332 6.05313978 -1.04263407 3.12790221 0 0 Z " fill="#2B0555" transform="translate(128,253)"/>
<path d="M0 0 C11.2358004 5.85197937 18.77931095 13.89177892 23 26 C23.78174856 30.80569639 23.65346351 34.00990378 20.9375 38.125 C18 40 18 40 14.5 40.125 C10.22356788 38.75043253 8.71005607 37.58899317 6 34 C0.38569335 22.82986906 -0.29158048 12.29497706 0 0 Z " fill="#FAF697" transform="translate(232,223)"/>
<path d="M0 0 C5.12196488 0.54446083 8.90362421 3.07055926 13.25 5.625 C21.89533218 10.56392673 30.68171667 14.51873807 40 18 C41.02222656 18.38800781 42.04445313 18.77601563 43.09765625 19.17578125 C48.92654072 21.25237145 54.8486157 22.75493373 60.875 24.125 C61.56972412 24.28379639 62.26444824 24.44259277 62.98022461 24.60620117 C75.15791276 27.25098412 87.07597533 28.32916086 99.50317383 28.26074219 C101.79991336 28.25005855 104.09586264 28.2606875 106.39257812 28.2734375 C117.26807641 28.2833065 128.63626989 28.0952597 139.24145508 25.43847656 C142.13524251 24.716938 145.03591112 24.94299829 148 25 C148 25.99 148 26.98 148 28 C99.36595356 39.31598631 50.63293485 32.5113702 7.25 7.625 C6.51604004 7.20822998 5.78208008 6.79145996 5.02587891 6.36206055 C3.015625 5.1640625 3.015625 5.1640625 0 3 C0 2.01 0 1.02 0 0 Z " fill="#331253" transform="translate(222,412)"/>
<path d="M0 0 C5.4019468 2.2312389 8.74382775 6.70060455 11 12 C11.4450401 15.42456486 11.37994255 18.86172836 11.375 22.3125 C11.37584595 23.7807019 11.37584595 23.7807019 11.37670898 25.27856445 C11.25003019 33.72589434 9.76740648 41.03120301 7 49 C6.67 49.99 6.34 50.98 6 52 C4.35 51.67 2.7 51.34 1 51 C1.433125 49.1128125 1.433125 49.1128125 1.875 47.1875 C2.25086497 45.45852114 2.62581464 43.72934314 3 42 C3.19078125 41.18015625 3.3815625 40.3603125 3.578125 39.515625 C5.76604461 29.20114685 7.07381184 17.55350052 2 8 C-1.75047482 5.49968346 -3.55856266 5.46396446 -8 6 C-17.33019603 12.66442574 -19.41491364 25.5580573 -22 36 C-22.64712235 38.33950895 -23.32088729 40.66947666 -24 43 C-25.98 43.495 -25.98 43.495 -28 44 C-28.97593743 30.09289155 -23.69207846 14.91751022 -15.34375 3.79296875 C-10.87902486 -0.70334643 -6.08472913 -1.03481788 0 0 Z " fill="#320959" transform="translate(191,140)"/>
<path d="M0 0 C2.59283329 1.07289654 3.85703487 1.79746606 5.5 4.125 C5.995 4.74375 6.49 5.3625 7 6 C8.32 6 9.64 6 11 6 C12.35439668 8.70879335 12.06501451 11.00933268 12 14 C13.32 14 14.64 14 16 14 C17.85776765 17.13498292 18.20140476 19.37471432 18 23 C17.319375 22.319375 16.63875 21.63875 15.9375 20.9375 C15.256875 20.26074219 15.256875 20.26074219 14.5625 19.5703125 C13.44802628 18.45026641 12.34504805 17.31873301 11.25 16.1796875 C10.651875 15.56351563 10.05375 14.94734375 9.4375 14.3125 C8.87933594 13.73113281 8.32117188 13.14976563 7.74609375 12.55078125 C4.68967273 9.83624177 2.02143673 8.71110657 -2.0625 8.6875 C-5.79490127 8.72101132 -5.79490127 8.72101132 -8 10.0625 C-9.61972331 13.20071391 -9.41226709 15.52517741 -9 19 C-5.76916498 25.46167005 0.07325657 30.04883771 6 34 C6.1875 37.125 6.1875 37.125 6 40 C4.515 39.505 4.515 39.505 3 39 C2.67 38.01 2.34 37.02 2 36 C1.30132812 36.02320313 0.60265625 36.04640625 -0.1171875 36.0703125 C-1.02726562 36.08835938 -1.93734375 36.10640625 -2.875 36.125 C-4.23238281 36.15980469 -4.23238281 36.15980469 -5.6171875 36.1953125 C-8 36 -8 36 -10 34 C-9.75 31.9375 -9.75 31.9375 -9 30 C-8.34 29.67 -7.68 29.34 -7 29 C-8.2375 29.0825 -9.475 29.165 -10.75 29.25 C-14.10506698 29.2737948 -14.75447904 29.19641677 -17.5 27 C-17.995 26.34 -18.49 25.68 -19 25 C-17.125 20.125 -17.125 20.125 -16 19 C-16.845625 18.2575 -17.69125 17.515 -18.5625 16.75 C-19.7690625 15.38875 -19.7690625 15.38875 -21 14 C-20.8125 11.6875 -20.8125 11.6875 -20 10 C-19.38125 9.855625 -18.7625 9.71125 -18.125 9.5625 C-15.96741678 9.06847775 -15.96741678 9.06847775 -14 8 C-14.04125 7.21625 -14.0825 6.4325 -14.125 5.625 C-14 3 -14 3 -12 1 C-9.87109375 1.171875 -9.87109375 1.171875 -7.4375 1.75 C-6.22900391 2.02070312 -6.22900391 2.02070312 -4.99609375 2.296875 C-3 3 -3 3 -2 5 C-1.34 3.35 -0.68 1.7 0 0 Z " fill="#4D0B57" transform="translate(122,70)"/>
<path d="M0 0 C5.15579297 2.85461984 8.83971208 6.54994392 10.82421875 12.1484375 C12.60152663 22.62289949 9.11196818 32.34389902 5.82421875 42.1484375 C3.34921875 42.6434375 3.34921875 42.6434375 0.82421875 43.1484375 C1.24226681 38.63351847 1.91447668 34.69016202 3.38671875 30.3984375 C5.57365624 23.38291525 6.28600482 16.28857055 3.13671875 9.5234375 C-0.16706284 6.13036451 -2.54170385 5.35269718 -7.17578125 4.7734375 C-11.00782578 5.25244307 -12.35548958 6.54813738 -15.17578125 9.1484375 C-20.63969405 17.33787857 -22.97938267 26.6910036 -25.17578125 36.1484375 C-26.49578125 35.8184375 -27.81578125 35.4884375 -29.17578125 35.1484375 C-30.2081568 24.82468197 -25.81896927 14.24814814 -19.765625 5.9921875 C-14.2778406 -0.37202439 -8.24162284 -3.22562617 0 0 Z " fill="#300858" transform="translate(321.17578125,177.8515625)"/>
<path d="M0 0 C1 1 1 1 1.0625 3.5625 C1.041875 4.366875 1.02125 5.17125 1 6 C1.72445313 5.68804687 2.44890625 5.37609375 3.1953125 5.0546875 C11.19039451 1.83533448 11.19039451 1.83533448 15.6875 2.75 C16.450625 3.1625 17.21375 3.575 18 4 C17.67 5.98 17.34 7.96 17 10 C17.90363281 9.96519531 18.80726563 9.93039063 19.73828125 9.89453125 C20.91777344 9.86746094 22.09726562 9.84039062 23.3125 9.8125 C25.07013672 9.76029297 25.07013672 9.76029297 26.86328125 9.70703125 C30 10 30 10 31.91796875 11.38671875 C33 13 33 13 33 15 C31.61287108 17.77425784 29.7073419 18.61161954 27 20 C27.63808594 20.27972656 28.27617187 20.55945313 28.93359375 20.84765625 C31.47961808 22.08293482 33.7470777 23.28267809 36 25 C37.0625 28.8125 37.0625 28.8125 37 32 C34.44931155 34.35448165 33.28982642 34.98327924 29.75 35.1875 C28.38875 35.0946875 28.38875 35.0946875 27 35 C26.94392578 34.09507812 26.94392578 34.09507812 26.88671875 33.171875 C26.43614444 26.9865074 26.43614444 26.9865074 23 22 C22.278125 21.21367187 21.55625 20.42734375 20.8125 19.6171875 C12.93995307 12.29134521 0.57413151 7.70550508 -10 6 C-9.625 3.5625 -9.625 3.5625 -9 1 C-6.01787087 -0.49106457 -3.28390342 -0.11941467 0 0 Z " fill="#FD295C" transform="translate(368,169)"/>
<path d="M0 0 C3.94395572 0.17927071 5.69476113 0.74332186 8.75 3.3125 C10.61098336 5.53534124 11.91575081 7.33866108 13 10 C13.99 8.35 14.98 6.7 16 5 C18.1875 5 18.1875 5 21 6 C24.28623684 9.88131216 26 12.86678474 26 18 C26.99 17.34 27.98 16.68 29 16 C31.4375 15.5 31.4375 15.5 34 16 C37.32806987 19.88274818 38.30349226 23.02693472 39 28 C37.72769531 27.22076172 37.72769531 27.22076172 36.4296875 26.42578125 C23.909052 18.91628406 7.9785692 10.46224402 -7 14 C-8.7074998 15.28062485 -10.38263741 16.6072711 -12 18 C-12.66 18 -13.32 18 -14 18 C-15.84651134 14.88401212 -16.38079379 12.61754103 -16 9 C-14 7 -14 7 -10.1875 6.6875 C-6.39698569 6.76344837 -4.07497576 7.69376818 -1 10 C-1.01160156 9.36191406 -1.02320312 8.72382812 -1.03515625 8.06640625 C-1.04417969 7.24011719 -1.05320312 6.41382812 -1.0625 5.5625 C-1.07410156 4.73878906 -1.08570312 3.91507812 -1.09765625 3.06640625 C-1 1 -1 1 0 0 Z " fill="#FE2A5C" transform="translate(77,89)"/>
<path d="M0 0 C4.17851873 3.60217132 6.47018184 7.58490705 7.32421875 13.08984375 C7.50409204 16.42060086 7.22193394 18.6301101 5.5 21.5 C1.95909184 23.6245449 -1.04739259 23.81356036 -5 23 C-11.08798572 20.48363257 -16.62797015 15.64937175 -20 10 C-20.69140625 6.2421875 -20.69140625 6.2421875 -21 3 C-19.98679687 3.03480469 -18.97359375 3.06960938 -17.9296875 3.10546875 C-16.5781417 3.13362595 -15.22657781 3.16092403 -13.875 3.1875 C-13.20984375 3.21263672 -12.5446875 3.23777344 -11.859375 3.26367188 C-7.13097708 3.33320714 -4.04878521 2.40278375 0 0 Z " fill="#DC315B" transform="translate(381,288)"/>
<path d="M0 0 C0.32871094 0.77923828 0.32871094 0.77923828 0.6640625 1.57421875 C3.62094512 8.07695655 7.25031054 12.14436215 14 15 C13.01 15.495 13.01 15.495 12 16 C12 16.66 12 17.32 12 18 C5.30716442 20.21426523 -1.06478825 22.25151163 -8 20 C-11.68304184 17.44441995 -12.76497404 15.97626167 -13.8125 11.625 C-12.6252079 6.32785062 -9.30897326 4.06300509 -5 1 C-3 0 -3 0 0 0 Z " fill="#FA285B" transform="translate(34,185)"/>
<path d="M0 0 C3.93481392 0.28105814 7.36064665 2.68159512 10.75 4.5625 C11.35199219 4.89185547 11.95398438 5.22121094 12.57421875 5.56054688 C14.05170503 6.3696465 15.52616036 7.18427662 17 8 C17.304 17.12 17.304 17.12 15 20 C13.375 20.75 13.375 20.75 11 21 C9.700625 21.144375 8.40125 21.28875 7.0625 21.4375 C3.5433172 21.36554645 3.07096696 21.05992765 0.1875 18.625 C-2.70444444 14.56064566 -3.83580677 9.7892827 -5 5 C-2.75 2.4375 -2.75 2.4375 0 0 Z " fill="#DD315B" transform="translate(342,282)"/>
<path d="M0 0 C1.42965088 0.14139404 1.42965088 0.14139404 2.88818359 0.28564453 C4.43505859 0.43066406 4.43505859 0.43066406 6.01318359 0.57861328 C7.09341797 0.69076172 8.17365234 0.80291016 9.28662109 0.91845703 C10.91857422 1.07507813 10.91857422 1.07507813 12.58349609 1.23486328 C15.27729457 1.4947912 17.96971424 1.76472237 20.66162109 2.04345703 C20.66162109 2.70345703 20.66162109 3.36345703 20.66162109 4.04345703 C19.67162109 4.04345703 18.68162109 4.04345703 17.66162109 4.04345703 C17.47599609 4.74470703 17.29037109 5.44595703 17.09912109 6.16845703 C14.56785671 11.23098581 9.87256692 14.87733837 4.66162109 17.04345703 C1.16162109 17.10595703 1.16162109 17.10595703 -2.33837891 16.04345703 C-4.45429019 13.96271324 -5.58636353 11.91016228 -6.33837891 9.04345703 C-4.87068399 0.09051804 -4.87068399 0.09051804 0 0 Z " fill="#F9285B" transform="translate(50.33837890625,200.95654296875)"/>
<path d="M0 0 C2.59283329 1.07289654 3.85703487 1.79746606 5.5 4.125 C5.995 4.74375 6.49 5.3625 7 6 C8.32 6 9.64 6 11 6 C12.35439668 8.70879335 12.06501451 11.00933268 12 14 C13.32 14 14.64 14 16 14 C17.85776765 17.13498292 18.20140476 19.37471432 18 23 C17.319375 22.319375 16.63875 21.63875 15.9375 20.9375 C15.256875 20.26074219 15.256875 20.26074219 14.5625 19.5703125 C13.44802628 18.45026641 12.34504805 17.31873301 11.25 16.1796875 C10.651875 15.56351563 10.05375 14.94734375 9.4375 14.3125 C8.87933594 13.73113281 8.32117188 13.14976563 7.74609375 12.55078125 C4.67192405 9.8204784 2.04448752 8.71834692 -2.0625 8.75 C-6.05258513 8.67332231 -6.05258513 8.67332231 -9 11 C-10.42944945 8.64561267 -11.08661261 7.51967567 -10.625 4.75 C-10.41875 4.1725 -10.2125 3.595 -10 3 C-7.6875 2.3125 -7.6875 2.3125 -5 2 C-3.1875 3.4375 -3.1875 3.4375 -2 5 C-1.34 3.35 -0.68 1.7 0 0 Z " fill="#FE2C5D" transform="translate(122,70)"/>
<path d="M0 0 C3.2826932 1.49076434 5.93077441 3.38620321 8.75 5.625 C9.94882813 6.57246094 9.94882813 6.57246094 11.171875 7.5390625 C11.77515625 8.02117187 12.3784375 8.50328125 13 9 C9.54547866 11.30301423 7.07448608 12.14891585 3 12.1875 C2.319375 12.20167969 1.63875 12.21585938 0.9375 12.23046875 C-1 12 -1 12 -4 10 C-4.4375 6.5625 -4.4375 6.5625 -4 3 C-2 1.0625 -2 1.0625 0 0 Z " fill="#F4275B" transform="translate(67,127)"/>
<path d="M0 0 C2.31284456 0.14026283 4.62527591 0.28735558 6.9375 0.4375 C8.86916016 0.55931641 8.86916016 0.55931641 10.83984375 0.68359375 C14 1 14 1 15 2 C15.26293056 6.03160191 15.29404844 7.55892734 13 11 C10.3125 11.6875 10.3125 11.6875 7 11 C4.26238336 8.62995914 1.96617581 6.04233713 0 3 C0 2.01 0 1.02 0 0 Z " fill="#F8275B" transform="translate(365,213)"/>
<path d="M0 0 C1.32 0 2.64 0 4 0 C4.51949219 1.01320312 5.03898437 2.02640625 5.57421875 3.0703125 C6.27826177 4.4220751 6.98271059 5.77362641 7.6875 7.125 C8.19700195 8.12273437 8.19700195 8.12273437 8.71679688 9.140625 C10.47911507 12.50055876 12.26288149 15.44524999 14.76953125 18.3046875 C17 21 17 21 17 24 C16.01 24.33 15.02 24.66 14 25 C9.8281726 20.61958123 6.64617265 16.02388771 3.625 10.8125 C3.08842773 9.90346924 3.08842773 9.90346924 2.54101562 8.97607422 C0.64041363 5.62038171 0 3.95757012 0 0 Z " fill="#2E0756" transform="translate(100,213)"/>
<path d="M0 0 C2 1.0625 2 1.0625 4 3 C4.375 6.5625 4.375 6.5625 4 10 C2 12 2 12 -1.8125 12.3125 C-5.59482092 12.22293685 -8.00343551 11.43470865 -11 9 C-11 8.34 -11 7.68 -11 7 C-10.18595703 6.61908203 -10.18595703 6.61908203 -9.35546875 6.23046875 C-8.64003906 5.88628906 -7.92460937 5.54210937 -7.1875 5.1875 C-6.47980469 4.85105469 -5.77210938 4.51460937 -5.04296875 4.16796875 C-2.98870965 2.99354529 -1.58383722 1.74371984 0 0 Z " fill="#F3265B" transform="translate(394,206)"/>
<path d="M0 0 C1.65 0 3.3 0 5 0 C4.938125 1.03125 4.87625 2.0625 4.8125 3.125 C5.01247326 7.25778071 6.01089955 9.43619502 8 13 C8 13.66 8 14.32 8 15 C3.66680191 14.49613976 0.36067267 13.88057657 -3 11 C-3.8125 7.3125 -3.8125 7.3125 -4 4 C-3.01 3.67 -2.02 3.34 -1 3 C-0.67 2.01 -0.34 1.02 0 0 Z " fill="#F7275B" transform="translate(58,110)"/>
<path d="M0 0 C0.33 0 0.66 0 1 0 C1.25523437 1.28583984 1.25523437 1.28583984 1.515625 2.59765625 C2.90510596 9.15334565 4.37300859 14.37190987 8 20 C8 20.66 8 21.32 8 22 C12.1205746 23.99785435 15.45194365 24.17835515 20 24 C20 24.99 20 25.98 20 27 C15.80228268 28.00745216 13.72370911 28.36894974 9.8125 26.375 C3.31181877 20.88553585 -0.6811385 13.92817442 -1.75 5.4375 C-1.8325 4.303125 -1.915 3.16875 -2 2 C-1.34 2 -0.68 2 0 2 C0 1.34 0 0.68 0 0 Z " fill="#3F195D" transform="translate(232,238)"/>
<path d="M0 0 C0.66 0 1.32 0 2 0 C1.52301595 5.00833254 0.20153104 8.10624603 -3 12 C-8.36112398 16.02084299 -14.58735456 15.73587735 -21 15 C-27.13284965 13.30367988 -32.5908134 10.29254836 -38 7 C-37.67 6.34 -37.34 5.68 -37 5 C-34.42965798 5.98399498 -31.96952765 7.01588606 -29.52734375 8.2890625 C-22.74743375 11.78639164 -16.6259584 13.31105302 -9 12 C-4.9270564 10.13690747 -3.31036367 8.45981827 -1.6875 4.3125 C-1.36136719 3.50425781 -1.03523438 2.69601562 -0.69921875 1.86328125 C-0.46847656 1.24839844 -0.23773438 0.63351562 0 0 Z " fill="#4C115B" transform="translate(384,277)"/>
<path d="M0 0 C0.66 0 1.32 0 2 0 C3.26171875 1.5390625 3.26171875 1.5390625 4.6875 3.625 C8.62343673 9.00347665 12.20306161 13.20753412 18.75 15.0625 C21.95874426 15.33662342 21.95874426 15.33662342 23.75 13.5625 C24.1625 13.046875 24.575 12.53125 25 12 C25.99 12 26.98 12 28 12 C26.84826645 14.46800047 25.95216435 16.04783565 24 18 C18.20112443 18.69986429 14.75470539 17.95979505 9.9609375 14.625 C4.9550695 10.47671098 0.90725519 6.6149239 0 0 Z " fill="#2F0254" transform="translate(360,293)"/>
<path d="M0 0 C0.99 0 1.98 0 3 0 C0.76799973 6.51000079 -2.90661329 10.58637044 -8.77734375 14.04296875 C-12.53439929 15.66068159 -16.02229401 15.98659637 -20 15 C-22.95569436 12.33987508 -24.41621688 9.94053603 -25 6 C-24.01 6 -23.02 6 -22 6 C-21.34 7.98 -20.68 9.96 -20 12 C-14.52447457 12.57036723 -11.42227116 11.65210419 -6.85546875 8.578125 C-4.9155137 6.92814218 -3.61155653 5.29151145 -2.1875 3.1875 C-1.1046875 1.6096875 -1.1046875 1.6096875 0 0 Z " fill="#2D0150" transform="translate(68,205)"/>
<path d="M0 0 C8.18289786 2.00712589 8.18289786 2.00712589 10 5 C10.375 8 10.375 8 10 11 C8.5 12.875 8.5 12.875 7 14 C5.29159719 12.36587557 4.06546953 11.13093906 3 9 C2.01 8.34 1.02 7.68 0 7 C0.99 7 1.98 7 3 7 C2.505 6.21625 2.01 5.4325 1.5 4.625 C0 2 0 2 0 0 Z " fill="#DC335D" transform="translate(354,221)"/>
<path d="M0 0 C0.66 0 1.32 0 2 0 C2.28875 1.11375 2.5775 2.2275 2.875 3.375 C3.69241329 7.00291092 3.69241329 7.00291092 6 9 C12.58088641 9.6790596 18.78852503 9.25871817 25 7 C25 7.99 25 8.98 25 10 C18.30716442 12.21426523 11.93521175 14.25151163 5 12 C1.9375 9.875 1.9375 9.875 0 7 C-0.3125 3.1875 -0.3125 3.1875 0 0 Z " fill="#320252" transform="translate(21,193)"/>
<path d="M0 0 C0.99 0 1.98 0 3 0 C2.814375 0.886875 2.62875 1.77375 2.4375 2.6875 C1.83514918 5.87519639 1.83514918 5.87519639 2.5 8.5 C3.11284573 11.56422867 2.63530488 13.96465446 2 17 C1.67 17 1.34 17 1 17 C1 15.02 1 13.04 1 11 C0.01 11.495 0.01 11.495 -1 12 C-1.33 12.99 -1.66 13.98 -2 15 C-2.99 14.67 -3.98 14.34 -5 14 C-5.6875 11.9375 -5.6875 11.9375 -6 10 C-5.34 9.608125 -4.68 9.21625 -4 8.8125 C-3.34 8.214375 -2.68 7.61625 -2 7 C-1.83328148 4.4582293 -1.83328148 4.4582293 -2 2 C-1.34 1.34 -0.68 0.68 0 0 Z " fill="#ED275C" transform="translate(110,71)"/>
<path d="M0 0 C4 1.33333333 8 2.66666667 12 4 C11.67 4.99 11.34 5.98 11 7 C7.47940432 8.17353189 4.693507 8.20146402 1 8 C-1 6 -1 6 -1.1875 3.4375 C-1 1 -1 1 0 0 Z " fill="#F4275B" transform="translate(82,138)"/>
<path d="M0 0 C0 0.99 0 1.98 0 3 C-0.99 3.495 -0.99 3.495 -2 4 C-2.38483922 7.34378592 -2.38483922 7.34378592 -1 11 C2.4771566 13.18132184 6.14314679 14.62119086 10 16 C10 16.33 10 16.66 10 17 C5.39598762 16.88745748 1.29286622 16.69652243 -2.5 13.875 C-5.50337036 10.42112409 -6.16583598 8.56048958 -6 4 C-3.02564103 0 -3.02564103 0 0 0 Z " fill="#2D0153" transform="translate(57,110)"/>
<path d="M0 0 C0.66 0 1.32 0 2 0 C2.66 1.32 3.32 2.64 4 4 C9.08303686 4.11320856 9.08303686 4.11320856 14 3 C14.66 2.34 15.32 1.68 16 1 C16 1.99 16 2.98 16 4 C16.66 3.67 17.32 3.34 18 3 C20.3329866 2.95977609 22.66706666 2.95679753 25 3 C19.43872562 8.11637243 11.69118178 7.1495312 4.57421875 7.328125 C3.72472656 7.21984375 2.87523438 7.1115625 2 7 C0 4 0 4 0 0 Z " fill="#4D0755" transform="translate(79,141)"/>
<path d="M0 0 C0.69921875 1.7421875 0.69921875 1.7421875 1 4 C-0.29296875 6.0703125 -0.29296875 6.0703125 -2.1875 8.125 C-2.79980469 8.80820313 -3.41210938 9.49140625 -4.04296875 10.1953125 C-7.30370685 13.20222069 -9.8229209 14.2725693 -14.25 14.125 C-16.10625 14.063125 -16.10625 14.063125 -18 14 C-18 13.01 -18 12.02 -18 11 C-17.33613281 10.91363281 -16.67226562 10.82726562 -15.98828125 10.73828125 C-8.712074 9.58046141 -5.74919779 7.50759718 -1.1875 1.6875 C-0.795625 1.130625 -0.40375 0.57375 0 0 Z " fill="#360254" transform="translate(92,202)"/>
<path d="M0 0 C4.95 1.98 4.95 1.98 10 4 C10 5.32 10 6.64 10 8 C3.59903382 9.32850242 3.59903382 9.32850242 1.0625 7.9375 C-0.41793945 5.23787512 -0.20161999 3.02429981 0 0 Z " fill="#F4275B" transform="translate(351,208)"/>
<path d="M0 0 C0.33 0 0.66 0 1 0 C1.185625 1.7015625 1.185625 1.7015625 1.375 3.4375 C1.684375 5.2009375 1.684375 5.2009375 2 7 C4.43387753 8.21693876 6.41838846 8.31959896 9.125 8.5625 C10.03507812 8.64628906 10.94515625 8.73007813 11.8828125 8.81640625 C12.93082031 8.90728516 12.93082031 8.90728516 14 9 C14 9.66 14 10.32 14 11 C12.08458862 11.10841951 10.16740227 11.18578079 8.25 11.25 C6.64898437 11.31960937 6.64898437 11.31960937 5.015625 11.390625 C2 11 2 11 -0.3671875 9.1484375 C-2 7 -2 7 -2.375 4.375 C-2 2 -2 2 0 0 Z " fill="#290151" transform="translate(62,130)"/>
<path d="M0 0 C0.66 0 1.32 0 2 0 C1.52301595 5.00833254 0.20153104 8.10624603 -3 12 C-7.76462025 15.24860472 -11.43426871 15.28788265 -17 15 C-17 14.67 -17 14.34 -17 14 C-15.1746875 13.5978125 -15.1746875 13.5978125 -13.3125 13.1875 C-9.70405511 12.24561315 -6.87812052 11.47838156 -4 9 C-2.41939866 6.08754769 -1.16339193 3.10021203 0 0 Z " fill="#3D0E5B" transform="translate(384,277)"/>
<path d="M0 0 C0.66 0 1.32 0 2 0 C2 1.65 2 3.3 2 5 C3.98 5.99 5.96 6.98 8 8 C8 8.33 8 8.66 8 9 C5.25 9.25 5.25 9.25 2 9 C-0.375 7 -0.375 7 -2 5 C-1.34 3.35 -0.68 1.7 0 0 Z " fill="#260052" transform="translate(105,90)"/>
<path d="M0 0 C0.99 0 1.98 0 3 0 C2.814375 0.9075 2.62875 1.815 2.4375 2.75 C2.04265379 5.68314324 2.05308428 7.2644657 3 10 C2.01 10 1.02 10 0 10 C-2.14915785 6.77626323 -2.38286803 5.73296326 -2 2 C-1.34 1.34 -0.68 0.68 0 0 Z " fill="#2D0150" transform="translate(110,71)"/>
<path d="M0 0 C0.33 0 0.66 0 1 0 C1.66 3.96 2.32 7.92 3 12 C2.01 12 1.02 12 0 12 C-0.66 8.7 -1.32 5.4 -2 2 C-1.34 2 -0.68 2 0 2 C0 1.34 0 0.68 0 0 Z " fill="#451E60" transform="translate(232,238)"/>
<path d="M0 0 C3.3 0 6.6 0 10 0 C10 0.66 10 1.32 10 2 C6.78548731 3.60725635 3.56387464 3.05748185 0 3 C0 2.01 0 1.02 0 0 Z " fill="#560756" transform="translate(74,213)"/>
<path d="M0 0 C2.52588702 2.36292656 3.88820837 3.66462511 5 7 C3.35 7 1.7 7 0 7 C-0.66 5.68 -1.32 4.36 -2 3 C-1.34 2.01 -0.68 1.02 0 0 Z " fill="#F0265B" transform="translate(108,90)"/>
<path d="M0 0 C0.66 0 1.32 0 2 0 C3.85776765 3.13498292 4.20140476 5.37471432 4 9 C1.5 6.6875 1.5 6.6875 -1 4 C-1 1 -1 1 0 0 Z " fill="#FC3868" transform="translate(136,84)"/>
<path d="M0 0 C0.391875 0.474375 0.78375 0.94875 1.1875 1.4375 C3.40808374 3.35179633 5.13375709 3.61266988 8 4 C7.67 4.66 7.34 5.32 7 6 C4.125 6.125 4.125 6.125 1 6 C0.34 5.34 -0.32 4.68 -1 4 C-0.625 1.875 -0.625 1.875 0 0 Z " fill="#270053" transform="translate(113,100)"/>
<path d="M0 0 C0.33 1.32 0.66 2.64 1 4 C-0.75 5.5625 -0.75 5.5625 -3 7 C-5.25 6.6875 -5.25 6.6875 -7 6 C-6.21625 5.566875 -5.4325 5.13375 -4.625 4.6875 C-1.78301625 3.10779753 -1.78301625 3.10779753 0 0 Z " fill="#270052" transform="translate(380,220)"/>
<path d="M0 0 C0.99 0.33 1.98 0.66 3 1 C3.33 2.98 3.66 4.96 4 7 C3.34 7 2.68 7 2 7 C0.5393715 4.35261084 0 3.10551666 0 0 Z " fill="#371259" transform="translate(233,250)"/>
<path d="M0 0 C1.670625 0.061875 1.670625 0.061875 3.375 0.125 C1.6875 1.6875 1.6875 1.6875 -0.625 3.125 C-3.375 2.8125 -3.375 2.8125 -5.625 2.125 C-3.625 0.125 -3.625 0.125 0 0 Z " fill="#F92858" transform="translate(100.625,143.875)"/>
</svg>
