<?xml version="1.0" encoding="UTF-8"?>
<svg version="1.1" xmlns="http://www.w3.org/2000/svg" width="512" height="512">
<path d="M0 0 C2.57562959 0.00315284 5.15009774 -0.02037072 7.72558594 -0.0456543 C46.62145282 -0.19468416 82.04047556 15.32842703 109.84277344 42.31567383 C121.05205786 53.49025459 128.6985637 65.81051986 134.84277344 80.31567383 C135.77992188 79.81422852 136.71707031 79.3127832 137.68261719 78.79614258 C140.84277344 77.31567383 140.84277344 77.31567383 143.40527344 77.62817383 C144.20964844 77.52504883 145.01402344 77.42192383 145.84277344 77.31567383 C147.0529922 75.61036775 147.0529922 75.61036775 148.15527344 73.50317383 C150.46219802 69.36535672 152.51461113 68.07930412 156.97558594 66.69067383 C158.84277344 66.31567383 158.84277344 66.31567383 161.84277344 66.31567383 C161.85695313 65.74461914 161.87113281 65.17356445 161.88574219 64.58520508 C162.51793083 53.83799817 166.0294219 43.99397219 173.58886719 36.19067383 C181.70651412 29.43769197 190.06261423 27.88636897 200.35058594 27.97192383 C206.71959455 28.59885085 210.13397499 31.28358918 214.15527344 36.06567383 C232.26539426 70.94442504 214.29362682 125.67999561 205.84277344 161.31567383 C207.06609375 161.29118164 208.28941406 161.26668945 209.54980469 161.24145508 C215.72326318 161.24825254 221.41535281 162.53861998 225.90527344 167.00317383 C226.54464844 167.76629883 227.18402344 168.52942383 227.84277344 169.31567383 C227.20981021 172.16400837 226.53931178 173.8718751 224.03417969 175.46801758 C222.64055016 176.14565395 221.23423224 176.79793024 219.81542969 177.42114258 C217.59585905 178.36360161 217.59585905 178.36360161 214.84277344 180.31567383 C216.03773438 180.67918945 216.03773438 180.67918945 217.25683594 181.05004883 C225.32157142 183.6009384 232.17553696 185.77629182 236.84277344 193.31567383 C237.34277344 196.37817383 237.34277344 196.37817383 236.84277344 199.31567383 C234.44651663 202.48215604 232.66359647 203.59599826 228.84277344 204.31567383 C226.59570103 204.53549613 224.34506106 204.72051369 222.09277344 204.87817383 C220.92230469 204.96196289 219.75183594 205.04575195 218.54589844 205.13208008 C217.65386719 205.19266602 216.76183594 205.25325195 215.84277344 205.31567383 C216.45765625 205.89575195 217.07253906 206.47583008 217.70605469 207.07348633 C226.31015978 215.38941566 226.31015978 215.38941566 227.84277344 220.31567383 C227.76822745 224.04297303 227.32045987 225.72652723 224.96777344 228.62817383 C220.97766035 231.79679305 216.73211473 231.87199311 211.84277344 231.31567383 C204.29453009 229.52091488 196.57352494 226.74252184 190.84277344 221.31567383 C190.84277344 220.32567383 190.84277344 219.33567383 190.84277344 218.31567383 C190.18277344 218.31567383 189.52277344 218.31567383 188.84277344 218.31567383 C189.17277344 218.93442383 189.50277344 219.55317383 189.84277344 220.19067383 C191.2572415 224.61088652 191.58960465 228.7215303 190.84277344 233.31567383 C188.15613692 236.97248464 186.19937495 238.412703 181.84277344 239.31567383 C181.71249756 239.86755371 181.58222168 240.41943359 181.44799805 240.98803711 C178.83161993 251.29594845 175.05152286 261.2139958 171.40527344 271.19067383 C171.05194946 272.16122711 170.69862549 273.1317804 170.33459473 274.13174438 C164.99327805 288.78356187 159.38215813 303.28092967 153.29589844 317.63989258 C152.87985352 318.62594482 152.46380859 319.61199707 152.03515625 320.62792969 C150.84277344 323.31567383 150.84277344 323.31567383 149.67382812 325.48974609 C145.82068807 332.83316274 145.93638576 340.77196534 145.59277344 348.87817383 C145.51625336 350.37890756 145.43814103 351.879561 145.35839844 353.38012695 C145.16815858 357.02456652 144.99948334 360.66962044 144.84277344 364.31567383 C142.90527344 364.87817383 142.90527344 364.87817383 140.84277344 365.31567383 C140.51277344 364.98567383 140.18277344 364.65567383 139.84277344 364.31567383 C137.35801293 364.21573677 134.90098731 364.18125845 132.41567993 364.18869019 C131.6288166 364.18713019 130.84195327 364.1855702 130.03124559 364.18396294 C127.37416464 364.17994969 124.71714005 364.18314386 122.06005859 364.1862793 C120.16332465 364.18492538 118.26659097 364.1831455 116.36985779 364.18096924 C111.20251848 364.17639317 106.03519904 364.17818534 100.86785936 364.18134832 C95.47069271 364.18387177 90.0735278 364.18153436 84.67636108 364.17996216 C75.60878187 364.17814011 66.54121079 364.18054738 57.47363281 364.18530273 C46.98031322 364.19074215 36.48701307 364.18898517 25.99369395 364.18347633 C16.99837058 364.17894231 8.00305307 364.17829617 -0.99227107 364.180915 C-6.37078013 364.1824766 -11.74928006 364.18267479 -17.12778854 364.17937851 C-22.18544108 364.17649573 -27.2430685 364.17848304 -32.30071831 364.18427277 C-34.16034974 364.18559831 -36.01998327 364.18520972 -37.87961388 364.1830101 C-40.41182665 364.18029049 -42.94395821 364.1836898 -45.47616577 364.18869019 C-46.21769815 364.18645946 -46.95923053 364.18422874 -47.72323358 364.18193042 C-50.81257015 364.19381884 -53.20200677 364.33060056 -56.15722656 365.31567383 C-56.81722656 364.98567383 -57.47722656 364.65567383 -58.15722656 364.31567383 C-59.86195973 364.2200433 -61.57041928 364.18772012 -63.27783203 364.1862793 C-64.34589081 364.18312714 -65.41394958 364.17997498 -66.51437378 364.17672729 C-68.25184372 364.17976364 -68.25184372 364.17976364 -70.02441406 364.18286133 C-71.2106839 364.1819046 -72.39695374 364.18094788 -73.61917114 364.17996216 C-76.13267062 364.17928057 -78.64617185 364.18113335 -81.15966797 364.18530273 C-85.00915488 364.19064183 -88.8585246 364.18536185 -92.70800781 364.17895508 C-95.14681015 364.17961605 -97.58561242 364.1808976 -100.02441406 364.18286133 C-101.17867889 364.1808371 -102.33294373 364.17881287 -103.52218628 364.17672729 C-104.59654938 364.17987946 -105.67091248 364.18303162 -106.77783203 364.1862793 C-107.72222137 364.18707489 -108.66661072 364.18787048 -109.63961792 364.18869019 C-112.13993333 364.2330933 -112.13993333 364.2330933 -114.43093872 364.88626099 C-115.00061371 365.02796722 -115.5702887 365.16967346 -116.15722656 365.31567383 C-119.85669494 361.61620545 -118.33940322 350.1460743 -118.36035156 345.22192383 C-118.36605164 344.15816528 -118.37175171 343.09440674 -118.37762451 341.99841309 C-118.38704237 339.74594097 -118.39359566 337.49345528 -118.39746094 335.2409668 C-118.40703892 331.88149005 -118.43803944 328.52266022 -118.46972656 325.16333008 C-118.56562689 305.62806557 -117.60991395 285.92037654 -111.15722656 267.31567383 C-111.96804687 266.78200195 -112.77886719 266.24833008 -113.61425781 265.69848633 C-124.66377179 258.31199871 -134.41597429 250.2538255 -142.15722656 239.31567383 C-143.47722656 239.64567383 -144.79722656 239.97567383 -146.15722656 240.31567383 C-146.36347656 241.61504883 -146.56972656 242.91442383 -146.78222656 244.25317383 C-148.30166842 251.02646042 -151.50895615 256.51484995 -157.28222656 260.44067383 C-160.16611306 261.31837841 -161.4163839 261.47526111 -164.15722656 260.31567383 C-164.15722656 259.65567383 -164.15722656 258.99567383 -164.15722656 258.31567383 C-164.77597656 258.04754883 -165.39472656 257.77942383 -166.03222656 257.50317383 C-168.15722656 256.31567383 -168.15722656 256.31567383 -170.15722656 253.31567383 C-170.52074219 254.51063477 -170.52074219 254.51063477 -170.89160156 255.72973633 C-173.65263839 264.45886045 -176.36034428 270.96487226 -184.15722656 276.31567383 C-187.65722656 277.37817383 -187.65722656 277.37817383 -191.15722656 277.31567383 C-194.30834382 275.59147759 -196.62728975 273.84561064 -199.15722656 271.31567383 C-199.35253906 268.05786133 -199.35253906 268.05786133 -199.28222656 264.19067383 C-199.26417969 262.9093457 -199.24613281 261.62801758 -199.22753906 260.30786133 C-199.20433594 259.32043945 -199.18113281 258.33301758 -199.15722656 257.31567383 C-199.56972656 257.84676758 -199.98222656 258.37786133 -200.40722656 258.92504883 C-205.30650878 264.91792082 -209.87751029 267.88910174 -217.15722656 270.31567383 C-222.14480953 270.68512442 -225.20682002 270.49794576 -229.15722656 267.31567383 C-231.17837487 264.75555264 -232.18360633 263.2917252 -232.09472656 260.00317383 C-230.00585304 254.01506974 -227.20705745 249.20603566 -223.15722656 244.31567383 C-224.18203125 244.36208008 -225.20683594 244.40848633 -226.26269531 244.45629883 C-227.62334312 244.49383394 -228.98402262 244.53023224 -230.34472656 244.56567383 C-231.01826172 244.59918945 -231.69179687 244.63270508 -232.38574219 244.66723633 C-235.97461459 244.73726311 -238.00841699 244.40515667 -241.10644531 242.54223633 C-243.15722656 240.31567383 -243.15722656 240.31567383 -243.78222656 236.44067383 C-243.51068454 232.87088962 -242.51651803 230.37149908 -240.00097656 227.70239258 C-236.14174712 224.79979416 -231.62137726 223.0825706 -227.15722656 221.31567383 C-228.79266831 220.22537933 -230.4460455 219.15553103 -232.16503906 218.20239258 C-237.82517831 214.99637275 -237.82517831 214.99637275 -239.40722656 211.75317383 C-239.15722656 209.31567383 -239.15722656 209.31567383 -237.46972656 207.12817383 C-233.93887729 204.36075143 -231.34676268 203.05582331 -226.82910156 203.12036133 C-226.02988281 203.12680664 -225.23066406 203.13325195 -224.40722656 203.13989258 C-223.58222656 203.15665039 -222.75722656 203.1734082 -221.90722656 203.19067383 C-221.06675781 203.19969727 -220.22628906 203.2087207 -219.36035156 203.21801758 C-217.29252052 203.24151566 -215.22483662 203.27738475 -213.15722656 203.31567383 C-214.12982422 201.91381836 -214.12982422 201.91381836 -215.12207031 200.48364258 C-217.15722656 197.31567383 -217.15722656 197.31567383 -217.71972656 194.62817383 C-217.15722656 192.31567383 -217.15722656 192.31567383 -215.28222656 190.50317383 C-206.30986323 187.09367576 -197.8303622 190.27056037 -189.15722656 193.31567383 C-189.48722656 192.98567383 -189.81722656 192.65567383 -190.15722656 192.31567383 C-190.52808749 186.47461423 -190.52808749 186.47461423 -190.15722656 184.31567383 C-189.16722656 183.65567383 -188.17722656 182.99567383 -187.15722656 182.31567383 C-187.63160156 181.73817383 -188.10597656 181.16067383 -188.59472656 180.56567383 C-190.124579 178.36268632 -190.60061608 176.88797081 -191.15722656 174.31567383 C-191.78371094 174.73719727 -192.41019531 175.1587207 -193.05566406 175.59301758 C-193.87292969 176.14086914 -194.69019531 176.6887207 -195.53222656 177.25317383 C-196.34433594 177.79844727 -197.15644531 178.3437207 -197.99316406 178.90551758 C-202.34105769 181.7387118 -206.03736403 181.96134033 -211.15722656 181.31567383 C-213.71972656 179.69067383 -213.71972656 179.69067383 -215.15722656 177.31567383 C-215.66766722 173.23214854 -215.07266951 170.87073594 -213.15722656 167.31567383 C-214.02605469 167.35047852 -214.89488281 167.3852832 -215.79003906 167.42114258 C-227.47722656 167.69567383 -227.47722656 167.69567383 -232.15722656 164.31567383 C-233.68569317 161.2587406 -233.38965101 158.68582836 -233.15722656 155.31567383 C-231.55826905 152.02892783 -230.50403376 151.44052442 -227.03222656 150.19067383 C-225.60910156 149.75754883 -225.60910156 149.75754883 -224.15722656 149.31567383 C-223.82722656 148.65567383 -223.49722656 147.99567383 -223.15722656 147.31567383 C-223.89972656 147.04754883 -224.64222656 146.77942383 -225.40722656 146.50317383 C-228.79335027 145.04098404 -231.40259957 143.82492781 -233.09472656 140.44067383 C-233.18699978 137.30338459 -232.03459871 135.77567871 -230.15722656 133.31567383 C-227.01520089 131.30807756 -224.59565997 131.09360979 -220.90722656 131.19067383 C-220.01519531 131.2087207 -219.12316406 131.22676758 -218.20410156 131.24536133 C-217.52863281 131.26856445 -216.85316406 131.29176758 -216.15722656 131.31567383 C-217.14722656 129.98536133 -217.14722656 129.98536133 -218.15722656 128.62817383 C-220.1414278 125.34184053 -220.68777897 124.02954071 -220.15722656 120.31567383 C-218.52613289 118.68458016 -216.71535434 119.066951 -214.46972656 119.00317383 C-208.52413874 119.04570307 -205.31803713 121.15486326 -201.15722656 125.31567383 C-201.01285156 124.01629883 -200.86847656 122.71692383 -200.71972656 121.37817383 C-200.28222656 117.44067383 -200.28222656 117.44067383 -199.15722656 116.31567383 C-192.73086527 116.44682406 -188.82699377 119.00016482 -184.15722656 123.31567383 C-183.16722656 124.80067383 -183.16722656 124.80067383 -182.15722656 126.31567383 C-181.78597656 125.49067383 -181.41472656 124.66567383 -181.03222656 123.81567383 C-179.15722656 121.31567383 -179.15722656 121.31567383 -176.46972656 120.62817383 C-171.47650768 121.66450227 -167.7375853 124.73531509 -164.15722656 128.31567383 C-163.49722656 125.67567383 -162.83722656 123.03567383 -162.15722656 120.31567383 C-163.08535156 120.54254883 -164.01347656 120.76942383 -164.96972656 121.00317383 C-168.15722656 121.31567383 -168.15722656 121.31567383 -170.03222656 120.12817383 C-171.15722656 118.31567383 -171.15722656 118.31567383 -171.15722656 114.31567383 C-172.20910156 114.81067383 -172.20910156 114.81067383 -173.28222656 115.31567383 C-176.52282799 116.44283954 -178.75296305 116.7597082 -182.15722656 116.31567383 C-184.09472656 114.69067383 -184.09472656 114.69067383 -185.15722656 112.31567383 C-184.84472656 109.06567383 -184.84472656 109.06567383 -184.15722656 106.31567383 C-185.29160156 105.96504883 -186.42597656 105.61442383 -187.59472656 105.25317383 C-189.53222656 104.44848633 -189.53222656 104.44848633 -191.15722656 103.31567383 C-192.09472656 99.62817383 -192.09472656 99.62817383 -192.15722656 96.31567383 C-188.19722656 95.32567383 -188.19722656 95.32567383 -184.15722656 94.31567383 C-184.81722656 93.77942383 -185.47722656 93.24317383 -186.15722656 92.69067383 C-188.15722656 90.31567383 -188.15722656 90.31567383 -188.53222656 87.19067383 C-188.15722656 84.31567383 -188.15722656 84.31567383 -186.15722656 82.31567383 C-185.16722656 82.31567383 -184.17722656 82.31567383 -183.15722656 82.31567383 C-183.15722656 82.97567383 -183.15722656 83.63567383 -183.15722656 84.31567383 C-181.50722656 84.64567383 -179.85722656 84.97567383 -178.15722656 85.31567383 C-177.82722656 83.33567383 -177.49722656 81.35567383 -177.15722656 79.31567383 C-171.66570114 79.92584332 -171.66570114 79.92584332 -169.28222656 81.75317383 C-168.15722656 83.31567383 -168.15722656 83.31567383 -168.15722656 85.31567383 C-167.49722656 85.31567383 -166.83722656 85.31567383 -166.15722656 85.31567383 C-166.15722656 84.32567383 -166.15722656 83.33567383 -166.15722656 82.31567383 C-163.90722656 81.94067383 -163.90722656 81.94067383 -161.15722656 82.31567383 C-160.51785156 83.30567383 -159.87847656 84.29567383 -159.21972656 85.31567383 C-158.53910156 86.30567383 -157.85847656 87.29567383 -157.15722656 88.31567383 C-153.98796092 88.81736798 -153.98796092 88.81736798 -151.15722656 88.31567383 C-150.92261719 87.47520508 -150.68800781 86.63473633 -150.44628906 85.76879883 C-148.9496546 81.75963257 -146.93989847 78.57755856 -144.53222656 75.06567383 C-144.08419678 74.405271 -143.63616699 73.74486816 -143.17456055 73.06445312 C-133.61380796 59.11694228 -122.65371956 46.54249154 -109.15722656 36.31567383 C-107.67416016 35.1497168 -107.67416016 35.1497168 -106.16113281 33.96020508 C-76.06642104 10.90313957 -37.56252009 -0.09571424 0 0 Z M150.84277344 139.31567383 C151.50277344 139.97567383 152.16277344 140.63567383 152.84277344 141.31567383 C152.84277344 140.65567383 152.84277344 139.99567383 152.84277344 139.31567383 C152.18277344 139.31567383 151.52277344 139.31567383 150.84277344 139.31567383 Z M-174.65722656 177.37817383 C-177.10826456 179.27772827 -179.24091987 180.31579725 -182.15722656 181.31567383 C-182.15722656 181.64567383 -182.15722656 181.97567383 -182.15722656 182.31567383 C-181.27679688 182.44844727 -180.39636719 182.5812207 -179.48925781 182.71801758 C-178.3278125 182.89461914 -177.16636719 183.0712207 -175.96972656 183.25317383 C-174.24689453 183.51420898 -174.24689453 183.51420898 -172.48925781 183.78051758 C-169.70090052 184.22835456 -166.92647639 184.76182386 -164.15722656 185.31567383 C-164.65222656 178.88067383 -164.65222656 178.88067383 -165.15722656 172.31567383 C-168.96000109 172.31567383 -171.82587686 175.04231032 -174.65722656 177.37817383 Z " fill="#FEAFC2" transform="translate(259.1572265625,122.684326171875)"/>
<path d="M0 0 C4.889711 2.67840276 8.05775224 5.380926 9.90234375 10.7109375 C10.8973859 15.79560291 9.88936034 20.34747397 7.23046875 24.76953125 C5.34276891 26.7482623 3.47610789 28.1726323 1.23046875 29.76953125 C2.09929687 30.07246094 2.968125 30.37539063 3.86328125 30.6875 C18.34507039 35.95213252 18.34507039 35.95213252 21.15893555 41.64941406 C24.08100499 49.02427452 26.49104097 56.54588855 28.8046875 64.12866211 C29.48142849 66.33516047 30.17607853 68.53552816 30.87109375 70.73632812 C35.10475775 84.40052397 35.10475775 84.40052397 34.23046875 91.76953125 C32.14551272 95.57395301 29.32012701 98.29346254 25.23046875 99.76953125 C22.35818155 99.93632746 19.59788501 100.0032799 16.73046875 99.95703125 C15.59158203 99.95606445 15.59158203 99.95606445 14.4296875 99.95507812 C10.86805734 99.92700924 7.65626034 99.72670964 4.23046875 98.76953125 C4.21628906 99.36121094 4.20210938 99.95289063 4.1875 100.5625 C3.92434303 104.9223708 3.68801742 107.18832078 0.91796875 110.70703125 C-5.82533165 115.88212226 -12.5843046 115.32095705 -20.76953125 114.76953125 C-26.38513598 113.68373457 -30.1723361 111.21869367 -33.76953125 106.76953125 C-35.87483128 103.49350352 -37.8539868 100.15958414 -39.76953125 96.76953125 C-43.36201953 98.59966679 -46.12442038 100.08647268 -48.89453125 103.01953125 C-50.21289578 107.16296263 -48.64611417 110.07604472 -46.76953125 113.76953125 C-45.88000343 115.29406123 -44.98406049 116.8148646 -44.08203125 118.33203125 C-41.80355853 122.33828841 -41.06405847 125.09577405 -41.76953125 129.76953125 C-43.50158944 134.41874008 -45.52796116 137.1667496 -49.76953125 139.76953125 C-57.25631427 141.79720165 -66.2084407 141.2900854 -73.30078125 138.26171875 C-77.74295322 135.50376806 -80.09124334 131.46593181 -82.76953125 127.08203125 C-83.31714111 126.2120752 -83.86475098 125.34211914 -84.42895508 124.44580078 C-86.23018752 121.56616056 -88.00249227 118.67026698 -89.76953125 115.76953125 C-90.39520996 114.74875488 -91.02088867 113.72797852 -91.66552734 112.67626953 C-99.3240507 100.15383719 -106.75103033 87.51934979 -113.74731445 74.61450195 C-114.78749558 72.73710793 -115.88236295 70.89864862 -116.98046875 69.0546875 C-119.59799609 64.24826721 -120.37273676 60.00016077 -119.36328125 54.59375 C-117.42748986 48.47526651 -113.97616035 45.54161575 -108.39453125 42.45703125 C-101.4180273 40.62985164 -95.95875612 41.97013272 -89.58203125 44.83203125 C-88.89689453 45.10724609 -88.21175781 45.38246094 -87.50585938 45.66601562 C-79.06335536 49.36316608 -76.0850682 56.67302912 -72.45703125 64.70703125 C-72.09802734 65.48626953 -71.73902344 66.26550781 -71.36914062 67.06835938 C-70.49609882 68.96577023 -69.63187689 70.86723528 -68.76953125 72.76953125 C-67.45582925 72.12614645 -66.14360227 71.4797491 -64.83203125 70.83203125 C-64.10113281 70.47238281 -63.37023437 70.11273438 -62.6171875 69.7421875 C-60.80704098 68.90581298 -60.80704098 68.90581298 -59.76953125 67.76953125 C-59.97640498 61.03264339 -63.03310988 56.31708711 -66.33203125 50.58203125 C-74.06675321 36.47329147 -74.06675321 36.47329147 -71.76953125 27.76953125 C-69.9496252 22.39834906 -66.69266396 19.49296636 -61.76953125 16.76953125 C-53.31876804 13.95261018 -46.80230361 16.59576686 -39.00390625 19.87109375 C-31.13643839 24.48895532 -28.50637326 32.09809236 -24.95703125 40.14453125 C-24.45494141 41.26214844 -23.95285156 42.37976563 -23.43554688 43.53125 C-22.2049804 46.2736553 -20.98330761 49.01966375 -19.76953125 51.76953125 C-19.79273438 50.69960937 -19.8159375 49.6296875 -19.83984375 48.52734375 C-19.74380731 43.39472931 -18.82850354 39.04263665 -15.3046875 35.15234375 C-11.39629679 31.76953125 -11.39629679 31.76953125 -8.76953125 31.76953125 C-8.76953125 31.10953125 -8.76953125 30.44953125 -8.76953125 29.76953125 C-9.55457031 29.8159375 -10.33960938 29.86234375 -11.1484375 29.91015625 C-17.98075922 30.14488632 -22.37811143 30.15005986 -27.76953125 25.76953125 C-31.96479063 20.60613509 -32.39904653 16.16508931 -32.15234375 9.578125 C-31.6233538 5.69706609 -30.46033435 3.60195556 -27.76953125 0.76953125 C-18.12110544 -6.51601477 -10.40928954 -4.95093251 0 0 Z M-25.76953125 5.76953125 C-28.10480067 9.54488348 -27.97303894 12.28480904 -27.37890625 16.578125 C-26.42003352 20.02637885 -24.58700705 21.67280507 -21.76953125 23.76953125 C-19.59606557 24.63072259 -19.59606557 24.63072259 -17.76953125 24.76953125 C-18.09953125 24.13015625 -18.42953125 23.49078125 -18.76953125 22.83203125 C-20.50834547 17.50691271 -20.49940234 12.70368963 -18.51953125 7.45703125 C-16.82300417 4.85165037 -15.07958953 2.84061798 -12.76953125 0.76953125 C-19.21067516 0.12541686 -21.41981263 1.31865638 -25.76953125 5.76953125 Z M-60.83203125 21.76953125 C-64.42861634 23.62583323 -65.96695327 25.85438485 -67.5078125 29.53125 C-69.79736101 38.7069215 -62.42175033 48.08661079 -58.0859375 55.7421875 C-55.96808527 59.62391666 -54.37269836 62.6469326 -54.64453125 67.14453125 C-55.9509002 71.35394231 -57.09352587 72.46134183 -60.76953125 74.76953125 C-61.53265625 75.34703125 -62.29578125 75.92453125 -63.08203125 76.51953125 C-63.63890625 76.93203125 -64.19578125 77.34453125 -64.76953125 77.76953125 C-58.31830599 78.45583181 -54.03556776 76.49869873 -48.76953125 72.76953125 C-47.17722057 69.58490989 -47.44195009 67.32065043 -47.76953125 63.76953125 C-49.11659581 60.38161324 -50.85511444 57.25417923 -52.64453125 54.08203125 C-53.10472656 53.24091797 -53.56492187 52.39980469 -54.0390625 51.53320312 C-54.89408082 49.97062616 -55.75518909 48.41135381 -56.62451172 46.85668945 C-59.7013456 41.24819205 -60.58251041 37.21387823 -59.76953125 30.76953125 C-58.20301327 26.42527004 -55.74945349 23.18591261 -51.76953125 20.76953125 C-55.6077908 19.4901114 -57.20358887 20.27546674 -60.83203125 21.76953125 Z M-11.76953125 38.76953125 C-14.6834347 42.26621539 -15.07184141 45.04222199 -14.99935913 49.54629517 C-14.5957845 53.45026744 -13.15979632 56.86681467 -11.6640625 60.46875 C-11.34298019 61.26682571 -11.02189789 62.06490143 -10.69108582 62.88716125 C-10.01269194 64.56304177 -9.32737684 66.23613565 -8.63549805 67.90649414 C-7.58380234 70.45274329 -6.56114331 73.00932427 -5.54101562 75.56835938 C-4.87540414 77.20251892 -4.20814146 78.83600709 -3.5390625 80.46875 C-3.23676224 81.22717697 -2.93446198 81.98560394 -2.6230011 82.76701355 C-0.70686634 87.33205624 1.28918797 90.58487591 5.23046875 93.76953125 C6.22046875 93.76953125 7.21046875 93.76953125 8.23046875 93.76953125 C6.79985344 89.26210135 5.07232301 84.93888364 3.19140625 80.60546875 C2.60428321 79.22185664 2.01838467 77.8377244 1.43359375 76.453125 C0.52478297 74.30276143 -0.38954642 72.15592627 -1.32519531 70.01708984 C-5.11674404 61.32628117 -8.36950423 53.4791324 -6.76953125 43.76953125 C-4.76885943 39.69673505 -2.57597847 37.21653303 1.23046875 34.76953125 C-4.47542597 34.31305967 -7.37051133 35.07035541 -11.76953125 38.76953125 Z M-110.76953125 49.76953125 C-113.72561003 53.28486817 -115.30307184 55.99347811 -115.16918945 60.65429688 C-114.27399425 65.39221454 -111.56325533 69.49842791 -109.20703125 73.64453125 C-108.62493896 74.6910083 -108.04284668 75.73748535 -107.44311523 76.81567383 C-98.49952715 92.76964715 -89.10420375 108.44720772 -79.01953125 123.70703125 C-78.43502197 124.59543701 -77.8505127 125.48384277 -77.24829102 126.39916992 C-76.70358154 127.2110376 -76.15887207 128.02290527 -75.59765625 128.859375 C-74.88464355 129.92466431 -74.88464355 129.92466431 -74.15722656 131.01147461 C-72.70780859 133.03415437 -72.70780859 133.03415437 -69.76953125 134.76953125 C-68.77953125 134.43953125 -67.78953125 134.10953125 -66.76953125 133.76953125 C-67.59130859 132.58037109 -67.59130859 132.58037109 -68.4296875 131.3671875 C-80.18022336 114.15417193 -90.77210227 96.11362941 -100.66333008 77.7746582 C-101.46184023 76.32725941 -102.28822791 74.89511969 -103.1315918 73.47338867 C-106.70890043 67.3690545 -107.98175086 62.87754623 -106.76953125 55.76953125 C-104.9121447 52.18285378 -102.7638252 49.46439581 -99.76953125 46.76953125 C-104.44212344 46.44353645 -107.06230208 46.84277138 -110.76953125 49.76953125 Z M-35.76953125 93.76953125 C-30.96413516 103.37103906 -30.96413516 103.37103906 -22.76953125 109.76953125 C-22.76953125 105.93256913 -24.06140278 104.39974447 -26.14453125 101.20703125 C-26.77101563 100.23636719 -27.3975 99.26570313 -28.04296875 98.265625 C-29.68001808 95.73952052 -29.68001808 95.73952052 -31.76953125 93.76953125 C-33.08953125 93.76953125 -34.40953125 93.76953125 -35.76953125 93.76953125 Z " fill="#280457" transform="translate(163.76953125,28.23046875)"/>
<path d="M0 0 C2.57562959 0.00315284 5.15009774 -0.02037072 7.72558594 -0.0456543 C46.62145282 -0.19468416 82.04047556 15.32842703 109.84277344 42.31567383 C121.05205786 53.49025459 128.6985637 65.81051986 134.84277344 80.31567383 C135.77992188 79.81422852 136.71707031 79.3127832 137.68261719 78.79614258 C140.84277344 77.31567383 140.84277344 77.31567383 143.40527344 77.62817383 C144.20964844 77.52504883 145.01402344 77.42192383 145.84277344 77.31567383 C147.0529922 75.61036775 147.0529922 75.61036775 148.15527344 73.50317383 C150.46219802 69.36535672 152.51461113 68.07930412 156.97558594 66.69067383 C158.84277344 66.31567383 158.84277344 66.31567383 161.84277344 66.31567383 C161.85695313 65.74461914 161.87113281 65.17356445 161.88574219 64.58520508 C162.51793083 53.83799817 166.0294219 43.99397219 173.58886719 36.19067383 C181.70651412 29.43769197 190.06261423 27.88636897 200.35058594 27.97192383 C206.71959455 28.59885085 210.13397499 31.28358918 214.15527344 36.06567383 C232.26539426 70.94442504 214.29362682 125.67999561 205.84277344 161.31567383 C207.06609375 161.29118164 208.28941406 161.26668945 209.54980469 161.24145508 C215.72326318 161.24825254 221.41535281 162.53861998 225.90527344 167.00317383 C226.54464844 167.76629883 227.18402344 168.52942383 227.84277344 169.31567383 C227.20981021 172.16400837 226.53931178 173.8718751 224.03417969 175.46801758 C222.64055016 176.14565395 221.23423224 176.79793024 219.81542969 177.42114258 C217.59585905 178.36360161 217.59585905 178.36360161 214.84277344 180.31567383 C216.03773438 180.67918945 216.03773438 180.67918945 217.25683594 181.05004883 C225.32157142 183.6009384 232.17553696 185.77629182 236.84277344 193.31567383 C237.34277344 196.37817383 237.34277344 196.37817383 236.84277344 199.31567383 C234.44651663 202.48215604 232.66359647 203.59599826 228.84277344 204.31567383 C226.59570103 204.53549613 224.34506106 204.72051369 222.09277344 204.87817383 C220.92230469 204.96196289 219.75183594 205.04575195 218.54589844 205.13208008 C217.65386719 205.19266602 216.76183594 205.25325195 215.84277344 205.31567383 C216.45765625 205.89575195 217.07253906 206.47583008 217.70605469 207.07348633 C226.31015978 215.38941566 226.31015978 215.38941566 227.84277344 220.31567383 C227.76822745 224.04297303 227.32045987 225.72652723 224.96777344 228.62817383 C220.97766035 231.79679305 216.73211473 231.87199311 211.84277344 231.31567383 C204.29453009 229.52091488 196.57352494 226.74252184 190.84277344 221.31567383 C190.84277344 220.32567383 190.84277344 219.33567383 190.84277344 218.31567383 C190.18277344 218.31567383 189.52277344 218.31567383 188.84277344 218.31567383 C189.17277344 218.93442383 189.50277344 219.55317383 189.84277344 220.19067383 C191.2572415 224.61088652 191.58960465 228.7215303 190.84277344 233.31567383 C188.15613692 236.97248464 186.19937495 238.412703 181.84277344 239.31567383 C181.71249756 239.86755371 181.58222168 240.41943359 181.44799805 240.98803711 C178.83161993 251.29594845 175.05152286 261.2139958 171.40527344 271.19067383 C171.05194946 272.16122711 170.69862549 273.1317804 170.33459473 274.13174438 C164.99327805 288.78356187 159.38215813 303.28092967 153.29589844 317.63989258 C152.87985352 318.62594482 152.46380859 319.61199707 152.03515625 320.62792969 C150.84277344 323.31567383 150.84277344 323.31567383 149.67382812 325.48974609 C145.82068807 332.83316274 145.93638576 340.77196534 145.59277344 348.87817383 C145.51625336 350.37890756 145.43814103 351.879561 145.35839844 353.38012695 C145.16815858 357.02456652 144.99948334 360.66962044 144.84277344 364.31567383 C143.52277344 364.64567383 142.20277344 364.97567383 140.84277344 365.31567383 C139.92088883 362.55002 139.72492122 360.93283681 139.74511719 358.08520508 C139.74833984 357.28276367 139.7515625 356.48032227 139.75488281 355.65356445 C139.76326172 354.82018555 139.77164062 353.98680664 139.78027344 353.12817383 C139.78478516 352.28319336 139.78929687 351.43821289 139.79394531 350.56762695 C139.80571941 348.48361228 139.82365454 346.39963406 139.84277344 344.31567383 C139.18277344 345.63567383 138.52277344 346.95567383 137.84277344 348.31567383 C136.52277344 347.98567383 135.20277344 347.65567383 133.84277344 347.31567383 C135.24911565 343.59943275 136.91470766 340.06287486 138.65795898 336.49804688 C164.07927413 284.23421188 182.71426808 226.3122405 197.28027344 170.12817383 C198.5235028 165.3410651 199.76797634 160.55645332 201.09667969 155.79223633 C205.99959659 138.0561168 209.15536804 119.96750707 212.09277344 101.81567383 C212.25592041 100.80811035 212.41906738 99.80054688 212.5871582 98.76245117 C214.20863749 88.45712618 215.04174263 78.37647397 215.09277344 67.94067383 C215.11339844 66.89395508 215.13402344 65.84723633 215.15527344 64.76879883 C215.20281006 55.14263224 214.26765846 44.90871976 207.84277344 37.31567383 C203.41038843 33.42054761 199.32707985 32.97199306 193.60839844 33.03051758 C187.03793454 33.70798066 180.46076356 36.56574113 175.84277344 41.31567383 C169.62026997 49.51891413 167.5927321 57.74502473 167.05371094 67.90942383 C166.84277344 70.31567383 166.84277344 70.31567383 165.84277344 71.31567383 C164.40842758 71.47278271 162.969801 71.59172103 161.53027344 71.69067383 C158.84932147 71.98950605 156.80609594 72.329987 154.28027344 73.31567383 C152.22092155 76.18085907 152.29106424 78.56641163 152.45996094 82.03442383 C153.29999532 87.04034301 155.98137266 89.66522835 159.90527344 92.62817383 C162.76413459 94.3996606 162.76413459 94.3996606 165.84277344 95.31567383 C166.01480496 101.69275922 165.4875106 107.390402 164.15136719 113.61645508 C163.97254501 114.47757401 163.79372284 115.33869293 163.60948181 116.22590637 C161.78655433 124.85903979 159.70818585 133.42754035 157.54321289 141.98046875 C156.9030673 144.5118979 156.27184851 147.04543602 155.64160156 149.5793457 C153.46885448 158.25784849 151.14809932 166.86992734 148.58291626 175.44078064 C146.83640119 181.28184529 145.27566858 187.15628112 143.78027344 193.06567383 C141.93767418 200.23742854 140.00074688 207.33549832 137.76074219 214.39379883 C136.43464272 218.61474522 135.24469159 222.87180112 134.03808594 227.12817383 C131.92828213 234.54758897 129.75099468 241.9476862 127.58496094 249.35083008 C126.49838229 253.06459641 125.41935225 256.78033786 124.35058594 260.49926758 C124.12556396 261.2774585 123.90054199 262.05564941 123.66870117 262.85742188 C123.25632279 264.28379375 122.8467769 265.71098897 122.44067383 267.13916016 C121.50175963 270.37228001 120.48658459 273.37020226 118.84277344 276.31567383 C117.85277344 275.98567383 116.86277344 275.65567383 115.84277344 275.31567383 C115.84277344 273.99567383 115.84277344 272.67567383 115.84277344 271.31567383 C115.30088379 271.58718262 114.75899414 271.85869141 114.20068359 272.13842773 C96.13880818 281.12562748 75.53766142 291.36795627 54.84277344 290.31567383 C55.17277344 288.99567383 55.50277344 287.67567383 55.84277344 286.31567383 C56.803125 286.19192383 57.76347656 286.06817383 58.75292969 285.94067383 C78.40786983 283.10073155 97.73206304 276.02186423 114.64746094 265.58520508 C116.84277344 264.31567383 116.84277344 264.31567383 118.84277344 264.31567383 C119.0503125 263.42750977 119.25785156 262.5393457 119.47167969 261.62426758 C121.41809597 253.5535624 123.62384167 245.61728066 126.09277344 237.69067383 C128.94134903 228.51874152 131.51773788 219.28830356 133.96777344 210.00317383 C134.138685 209.35561127 134.30959656 208.70804871 134.48568726 208.04086304 C135.31281702 204.90484067 136.13873876 201.76850109 136.96435547 198.63208008 C138.08161029 194.41396181 139.23198879 190.20600657 140.40527344 186.00317383 C140.59130127 185.33342529 140.7773291 184.66367676 140.96899414 183.97363281 C142.18835214 179.60241756 143.44120213 175.24147846 144.70214844 170.88208008 C145.02497803 169.75519775 145.34780762 168.62831543 145.68041992 167.46728516 C146.31650538 165.24775632 146.95895695 163.03003917 147.60864258 160.81445312 C147.89860107 159.79907471 148.18855957 158.78369629 148.48730469 157.73754883 C148.74874268 156.83617187 149.01018066 155.93479492 149.27954102 155.00610352 C149.90514018 152.01776247 150.0290799 149.36073748 149.84277344 146.31567383 C148.53346427 144.5061175 148.53346427 144.5061175 146.65527344 143.12817383 C137.19136575 134.43057446 136.16272629 121.55897176 134.90527344 109.50317383 C132.14602902 83.26875305 122.52772186 62.74200704 103.84277344 44.31567383 C103.06675781 43.5293457 102.29074219 42.74301758 101.49121094 41.93286133 C72.55543084 14.19030928 34.08474123 4.61397635 -4.88769531 5.03833008 C-48.59568041 6.21111142 -91.44965751 24.12051838 -122.15722656 55.31567383 C-130.24849936 63.86843657 -136.93467705 73.34510412 -143.15722656 83.31567383 C-143.54410645 83.89478516 -143.93098633 84.47389648 -144.32958984 85.07055664 C-147.01775572 89.30509613 -147.56280894 92.34728968 -147.15722656 97.31567383 C-148.27742188 96.82196289 -149.39761719 96.32825195 -150.55175781 95.81958008 C-152.02438352 95.17237515 -153.49704145 94.52524356 -154.96972656 93.87817383 C-155.70771484 93.55268555 -156.44570312 93.22719727 -157.20605469 92.8918457 C-157.91826172 92.57924805 -158.63046875 92.26665039 -159.36425781 91.94458008 C-160.01885986 91.65655518 -160.67346191 91.36853027 -161.34790039 91.07177734 C-164.75892688 89.64633556 -167.48702961 89.15548184 -171.15722656 89.12817383 C-172.45660156 89.1069043 -172.45660156 89.1069043 -173.78222656 89.08520508 C-176.42444194 89.15311445 -176.42444194 89.15311445 -179.15722656 91.31567383 C-180.43472495 94.60066968 -180.25622075 96.04618964 -179.03222656 99.37817383 C-175.23080078 105.33374089 -169.66329821 108.03086442 -163.15722656 110.31567383 C-160.54992916 110.88543057 -157.96358868 111.35255283 -155.32128906 111.72583008 C-152.7855089 112.41699037 -151.73174337 113.23008435 -150.15722656 115.31567383 C-150.46972656 117.50317383 -150.46972656 117.50317383 -151.15722656 119.31567383 C-152.14722656 118.98567383 -153.13722656 118.65567383 -154.15722656 118.31567383 C-154.48722656 117.65567383 -154.81722656 116.99567383 -155.15722656 116.31567383 C-157.68455891 115.66012264 -157.68455891 115.66012264 -160.15722656 115.31567383 C-160.23972656 115.93442383 -160.32222656 116.55317383 -160.40722656 117.19067383 C-161.15722656 119.31567383 -161.15722656 119.31567383 -162.90722656 120.62817383 C-165.67042685 121.47248503 -167.40527793 121.080104 -170.15722656 120.31567383 C-170.48722656 118.33567383 -170.81722656 116.35567383 -171.15722656 114.31567383 C-171.85847656 114.64567383 -172.55972656 114.97567383 -173.28222656 115.31567383 C-176.52282799 116.44283954 -178.75296305 116.7597082 -182.15722656 116.31567383 C-184.09472656 114.69067383 -184.09472656 114.69067383 -185.15722656 112.31567383 C-184.84472656 109.06567383 -184.84472656 109.06567383 -184.15722656 106.31567383 C-185.29160156 105.96504883 -186.42597656 105.61442383 -187.59472656 105.25317383 C-189.53222656 104.44848633 -189.53222656 104.44848633 -191.15722656 103.31567383 C-192.09472656 99.62817383 -192.09472656 99.62817383 -192.15722656 96.31567383 C-188.19722656 95.32567383 -188.19722656 95.32567383 -184.15722656 94.31567383 C-184.81722656 93.77942383 -185.47722656 93.24317383 -186.15722656 92.69067383 C-188.15722656 90.31567383 -188.15722656 90.31567383 -188.53222656 87.19067383 C-188.15722656 84.31567383 -188.15722656 84.31567383 -186.15722656 82.31567383 C-185.16722656 82.31567383 -184.17722656 82.31567383 -183.15722656 82.31567383 C-183.15722656 82.97567383 -183.15722656 83.63567383 -183.15722656 84.31567383 C-181.50722656 84.64567383 -179.85722656 84.97567383 -178.15722656 85.31567383 C-177.82722656 83.33567383 -177.49722656 81.35567383 -177.15722656 79.31567383 C-171.66570114 79.92584332 -171.66570114 79.92584332 -169.28222656 81.75317383 C-168.15722656 83.31567383 -168.15722656 83.31567383 -168.15722656 85.31567383 C-167.49722656 85.31567383 -166.83722656 85.31567383 -166.15722656 85.31567383 C-166.15722656 84.32567383 -166.15722656 83.33567383 -166.15722656 82.31567383 C-163.90722656 81.94067383 -163.90722656 81.94067383 -161.15722656 82.31567383 C-160.51785156 83.30567383 -159.87847656 84.29567383 -159.21972656 85.31567383 C-158.53910156 86.30567383 -157.85847656 87.29567383 -157.15722656 88.31567383 C-153.98796092 88.81736798 -153.98796092 88.81736798 -151.15722656 88.31567383 C-150.92261719 87.47520508 -150.68800781 86.63473633 -150.44628906 85.76879883 C-148.9496546 81.75963257 -146.93989847 78.57755856 -144.53222656 75.06567383 C-144.08419678 74.405271 -143.63616699 73.74486816 -143.17456055 73.06445312 C-133.61380796 59.11694228 -122.65371956 46.54249154 -109.15722656 36.31567383 C-107.67416016 35.1497168 -107.67416016 35.1497168 -106.16113281 33.96020508 C-76.06642104 10.90313957 -37.56252009 -0.09571424 0 0 Z M150.84277344 139.31567383 C151.50277344 139.97567383 152.16277344 140.63567383 152.84277344 141.31567383 C152.84277344 140.65567383 152.84277344 139.99567383 152.84277344 139.31567383 C152.18277344 139.31567383 151.52277344 139.31567383 150.84277344 139.31567383 Z " fill="#2E0657" transform="translate(259.1572265625,122.684326171875)"/>
<path d="M0 0 C5.06703457 5.11830305 7.56103118 11.09500681 10.4375 17.625 C11.48982834 19.95738451 12.54595982 22.28805606 13.60546875 24.6171875 C14.01540573 25.51890686 14.01540573 25.51890686 14.43362427 26.43884277 C17.55974622 33.28145164 20.88425202 40.02270767 24.25 46.75 C24.54649445 47.34463043 24.84298889 47.93926086 25.14846802 48.5519104 C29.030745 56.32352863 33.06780446 63.91377729 37.7421875 71.23828125 C39.31553497 74.69280505 39.3094094 77.24288589 39 81 C37.73001681 83.85746217 36.7161997 85.48137263 34.1875 87.3125 C31.2074456 88.24908853 29.10624431 88.45299396 26 88 C23.67929452 85.75415598 22.14266959 83.22329368 20.41015625 80.51171875 C16.95576876 75.00643583 16.95576876 75.00643583 11.6875 71.5 C10.800625 71.335 9.91375 71.17 9 71 C8.34 70.34 7.68 69.68 7 69 C0.45571272 67.96122424 -2.60612596 68.99309847 -8 72.875 C-11.54317254 75.48660125 -11.54317254 75.48660125 -14 79 C-14.49378509 84.65109601 -13.43397074 87.7031907 -10.5 92.5 C-7.56487989 97.29868844 -6.4929038 100.34756773 -7 106 C-8.79132507 110.14833175 -10.89033531 112.14086598 -15 114 C-17.359375 114.5078125 -17.359375 114.5078125 -20 114 C-21.91506644 111.7025523 -23.35969859 109.61100066 -24.875 107.0625 C-25.33769287 106.31540771 -25.80038574 105.56831543 -26.27709961 104.79858398 C-27.87085645 102.21045636 -29.43519075 99.60572164 -31 97 C-32.23237107 94.97873858 -33.46547276 92.95792248 -34.69921875 90.9375 C-41.68802055 79.43650201 -48.5045977 67.85111593 -54.89379883 56.00512695 C-55.69230898 54.55772816 -56.51869666 53.12558844 -57.36206055 51.70385742 C-60.94246231 45.59424512 -62.20201073 41.11281581 -61 34 C-59.0651178 30.1302356 -56.90299874 27.01063571 -53 25 C-49.547884 25 -48.22009115 25.81104369 -45.59765625 28.0625 C-42.57036415 31.48584385 -40.79401445 34.88890976 -38.875 39 C-38.20756701 40.39671305 -37.5383342 41.79256765 -36.8671875 43.1875 C-36.55362305 43.84363281 -36.24005859 44.49976563 -35.91699219 45.17578125 C-35.10865043 46.78385622 -34.1905652 48.33574891 -33.2578125 49.875 C-32 52 -32 52 -32 54 C-28.08611124 55.30462959 -24.33127024 55.26328854 -20.25 55.3125 C-19.46367188 55.34150391 -18.67734375 55.37050781 -17.8671875 55.40039062 C-12.02911967 55.46342624 -8.87857655 54.17107476 -4 51 C-3.34 51 -2.68 51 -2 51 C-1.39619798 43.29765373 -3.06181643 38.81067421 -6.875 32.1875 C-7.33519531 31.35541016 -7.79539063 30.52332031 -8.26953125 29.66601562 C-9.1226138 28.12428529 -9.98348232 26.58681577 -10.85498047 25.05541992 C-13.96425028 19.47398228 -14.80075704 15.4258281 -14 9 C-12.68617063 5.17924215 -10.70608371 2.57935074 -7.5625 0 C-4.37068222 -1.24558743 -3.16240131 -1.34402056 0 0 Z " fill="#7C7CD8" transform="translate(117,50)"/>
<path d="M0 0 C1.32 0 2.64 0 4 0 C5.87944585 3.7588917 5.518153 7.90717352 5 12 C3.36143725 16.50774731 1.78827293 20.16460243 -2.67578125 22.25 C-3.44277344 22.4975 -4.20976562 22.745 -5 23 C-4.79503906 23.99 -4.59007812 24.98 -4.37890625 26 C-4.10661239 27.33330098 -3.83448598 28.66663618 -3.5625 30 C-3.42779297 30.64839844 -3.29308594 31.29679687 -3.15429688 31.96484375 C-1.29977079 41.10177714 -0.81359287 49.93271906 -0.81469727 59.24389648 C-0.81251585 61.2975759 -0.79432107 63.35071236 -0.77539062 65.40429688 C-0.7233703 77.24919974 -0.99642393 90.51460543 -9.58984375 99.69921875 C-14.41870279 103.81968771 -17.83979333 104.47962688 -24.05078125 104.3984375 C-30.86720128 103.47754367 -35.42708468 98.99309193 -39.6875 93.875 C-43.5046913 88.61752588 -46.37122234 82.92708315 -49 77 C-49.46188721 75.9776123 -49.46188721 75.9776123 -49.93310547 74.93457031 C-52.88658842 68.04358685 -54.64574562 60.94012458 -56.29248047 53.64794922 C-56.75442808 51.60542099 -57.22981624 49.56635334 -57.70703125 47.52734375 C-60 37.57872977 -60 37.57872977 -60 33 C-61.4540625 33.1546875 -61.4540625 33.1546875 -62.9375 33.3125 C-69.12875246 33.3125 -74.20332936 29.75175387 -78.5 25.5625 C-80.1938978 22.66875793 -80.69112356 20.32042173 -81 17 C-79.68 17 -78.36 17 -77 17 C-76.608125 17.9075 -76.21625 18.815 -75.8125 19.75 C-73.35995786 24.14766177 -70.77292642 26.40902453 -66 28 C-54.96597447 28.90830813 -54.96597447 28.90830813 -44.71875 25.48828125 C-41.23406319 22.47085926 -38.59004416 18.78793959 -36 15 C-32.17509132 15.59635673 -29.29220382 16.77229322 -25.875 18.5625 C-20.16148065 21.21493003 -15.2388144 22.07462832 -9 21 C-4.43042572 18.7968124 -2.22096103 16.5059267 0 12 C0.36012333 8.87646211 0.36012333 8.87646211 0.1875 5.6875 C0.16042969 4.61886719 0.13335937 3.55023438 0.10546875 2.44921875 C0.05326172 1.23685547 0.05326172 1.23685547 0 0 Z " fill="#2A0455" transform="translate(302,249)"/>
<path d="M0 0 C0.66 0.66 1.32 1.32 2 2 C1.47680176 2.28609131 0.95360352 2.57218262 0.41455078 2.86694336 C-19.84464453 13.3606272 -19.84464453 13.3606272 -32.75 31.3125 C-33.1625 32.529375 -33.575 33.74625 -34 35 C-32.515 35.495 -32.515 35.495 -31 36 C-30.2265625 38.765625 -30.2265625 38.765625 -29.625 42.25 C-28.07700821 49.68850793 -26.23470699 51.84352867 -20 56 C-3.16576903 60.34978451 13.48509212 53.68960868 27.96875 45.4765625 C35.0583178 41.25061076 41.4216656 36.08966318 47.66015625 30.703125 C50 29 50 29 53.1875 29.0625 C56 30 56 30 58 33 C57.625 35.6875 57.625 35.6875 57 38 C56.01 38 55.02 38 54 38 C53.67 37.01 53.34 36.02 53 35 C51.68 35.33 50.36 35.66 49 36 C48.01 40.95 48.01 40.95 47 46 C45.515 46.495 45.515 46.495 44 47 C43.41212753 48.81082574 43.41212753 48.81082574 43.1875 51 C41.87126539 57.80961049 38.63234697 63.21000406 32.875 67.125 C29.9911135 68.00270459 28.74084267 68.15958728 26 67 C26 66.34 26 65.68 26 65 C25.38125 64.731875 24.7625 64.46375 24.125 64.1875 C22 63 22 63 20 60 C19.75765625 60.79664063 19.5153125 61.59328125 19.265625 62.4140625 C16.50458817 71.14318662 13.79688228 77.64919843 6 83 C2.5 84.0625 2.5 84.0625 -1 84 C-4.15111726 82.27580377 -6.47006319 80.52993681 -9 78 C-9.1953125 74.7421875 -9.1953125 74.7421875 -9.125 70.875 C-9.10695312 69.59367187 -9.08890625 68.31234375 -9.0703125 66.9921875 C-9.04710937 66.00476563 -9.02390625 65.01734375 -9 64 C-9.61875 64.79664063 -9.61875 64.79664063 -10.25 65.609375 C-15.14928222 71.602247 -19.72028373 74.57342791 -27 77 C-31.98758297 77.36945059 -35.04959346 77.18227193 -39 74 C-41.02114831 71.43987881 -42.02637977 69.97605138 -41.9375 66.6875 C-39.84862648 60.69939591 -37.04983089 55.89036183 -33 51 C-34.02480469 51.04640625 -35.04960938 51.0928125 -36.10546875 51.140625 C-37.46611656 51.17816011 -38.82679605 51.21455841 -40.1875 51.25 C-40.86103516 51.28351563 -41.53457031 51.31703125 -42.22851562 51.3515625 C-45.81738802 51.42158928 -47.85119042 51.08948284 -50.94921875 49.2265625 C-53 47 -53 47 -53.625 43.125 C-53.35345797 39.55521579 -52.35929147 37.05582525 -49.84375 34.38671875 C-45.98452056 31.48412033 -41.4641507 29.76689677 -37 28 C-38.63544175 26.9097055 -40.28881893 25.83985721 -42.0078125 24.88671875 C-47.66795175 21.68069892 -47.66795175 21.68069892 -49.25 18.4375 C-49 16 -49 16 -47.3125 13.8125 C-43.78165073 11.0450776 -41.18953612 9.74014948 -36.671875 9.8046875 C-35.87265625 9.81113281 -35.0734375 9.81757813 -34.25 9.82421875 C-33.425 9.84097656 -32.6 9.85773438 -31.75 9.875 C-30.90953125 9.88402344 -30.0690625 9.89304687 -29.203125 9.90234375 C-27.13529396 9.92584183 -25.06761005 9.96171092 -23 10 C-23.97259766 8.59814453 -23.97259766 8.59814453 -24.96484375 7.16796875 C-27 4 -27 4 -27.5625 1.3125 C-27 -1 -27 -1 -25.125 -2.8125 C-16.5693308 -6.0636543 -8.12232019 -3.52138565 0 0 Z " fill="#320656" transform="translate(69,316)"/>
<path d="M0 0 C6.69078182 4.90657334 10.01136715 13.17632589 13.1875 20.625 C13.97020524 22.40732837 14.75539127 24.18856922 15.54296875 25.96875 C15.92759277 26.83886719 16.3122168 27.70898438 16.70849609 28.60546875 C22.23713202 40.90980133 28.752377 52.78637935 34.97729492 64.74829102 C35.55842041 65.86518311 36.1395459 66.9820752 36.73828125 68.1328125 C37.51812378 69.62965576 37.51812378 69.62965576 38.3137207 71.15673828 C38.80831787 72.11563965 39.30291504 73.07454102 39.8125 74.0625 C40.36647461 75.13097168 40.92044922 76.19944336 41.49121094 77.30029297 C43.38092979 81.25082495 43.01277119 83.94376118 41.8125 88.0625 C39.31725039 92.96058256 36.93931813 95.11430911 31.8125 97.0625 C26.4462696 98.69570056 22.63440212 97.61880986 17.8125 95.0625 C12.76342103 91.09536652 9.92764247 85.57555282 6.8125 80.0625 C3.22001172 81.89263554 0.45761087 83.37944143 -2.3125 86.3125 C-3.63086453 90.45593138 -2.06408292 93.36901347 -0.1875 97.0625 C0.70202782 98.58702998 1.59797076 100.10783335 2.5 101.625 C4.77847272 105.63125716 5.51797278 108.3887428 4.8125 113.0625 C3.08044181 117.71170883 1.05407009 120.45971835 -3.1875 123.0625 C-10.67428302 125.0901704 -19.62640945 124.58305415 -26.71875 121.5546875 C-31.16092197 118.79673681 -33.50921209 114.75890056 -36.1875 110.375 C-36.73510986 109.50504395 -37.28271973 108.63508789 -37.84692383 107.73876953 C-39.64815627 104.85912931 -41.42046102 101.96323573 -43.1875 99.0625 C-43.81317871 98.04172363 -44.43885742 97.02094727 -45.08349609 95.96923828 C-52.74201945 83.44680594 -60.16899908 70.81231854 -67.1652832 57.9074707 C-68.20546433 56.03007668 -69.3003317 54.19161737 -70.3984375 52.34765625 C-73.01596484 47.54123596 -73.79070551 43.29312952 -72.78125 37.88671875 C-70.84545861 31.76823526 -67.3941291 28.8345845 -61.8125 25.75 C-54.83599605 23.92282039 -49.37672487 25.26310147 -43 28.125 C-42.31486328 28.40021484 -41.62972656 28.67542969 -40.92382812 28.95898438 C-32.48132411 32.65613483 -29.50303695 39.96599787 -25.875 48 C-25.51599609 48.77923828 -25.15699219 49.55847656 -24.78710938 50.36132812 C-23.91406757 52.25873898 -23.04984564 54.16020403 -22.1875 56.0625 C-20.873798 55.4191152 -19.56157102 54.77271785 -18.25 54.125 C-17.51910156 53.76535156 -16.78820312 53.40570313 -16.03515625 53.03515625 C-14.22500973 52.19878173 -14.22500973 52.19878173 -13.1875 51.0625 C-13.39437373 44.32561214 -16.45107863 39.61005586 -19.75 33.875 C-27.48472196 19.76626022 -27.48472196 19.76626022 -25.1875 11.0625 C-23.36759395 5.69131781 -20.11063271 2.78593511 -15.1875 0.0625 C-10.07219052 -1.64260316 -5.15996758 -1.51763752 0 0 Z M-18.625 8.1875 C-20.89792926 12.36968984 -21.90874522 15.27605444 -21.1875 20.0625 C-18.71559663 26.70551673 -14.98738282 32.88451665 -11.50390625 39.03515625 C-9.38605402 42.91688541 -7.79066711 45.93990135 -8.0625 50.4375 C-9.58100502 55.33046062 -11.78022288 56.62123323 -16.0078125 59.15234375 C-18.71438363 60.28250696 -20.82520479 60.29377245 -23.75 60.25 C-24.70003906 60.24355469 -25.65007812 60.23710938 -26.62890625 60.23046875 C-29.1875 60.0625 -29.1875 60.0625 -32.1875 59.0625 C-33.1328125 57.03125 -33.1328125 57.03125 -34.1875 54.0625 C-35.43342216 51.20804737 -36.75026779 48.38697006 -38.0625 45.5625 C-38.40152344 44.81613281 -38.74054688 44.06976563 -39.08984375 43.30078125 C-41.62402113 37.85663592 -44.07443144 33.47121237 -49.1875 30.0625 C-53.66284388 29.4784297 -57.84672448 29.53784871 -62.0625 31.1875 C-65.67856003 34.37814121 -67.91497804 37.24412071 -68.640625 42.0859375 C-68.48100278 47.64283147 -65.30170315 52.22746925 -62.625 56.9375 C-62.04290771 57.98397705 -61.46081543 59.0304541 -60.86108398 60.10864258 C-51.94504946 76.01346464 -42.556504 91.64567199 -32.625 106.9375 C-32.06562744 107.81752686 -31.50625488 108.69755371 -30.92993164 109.60424805 C-27.90138539 114.18149827 -25.62325087 117.3001567 -20.1875 119.0625 C-16.19217089 119.45350196 -12.96838165 118.66317819 -9.75 116.1875 C-6.86799862 112.26797812 -6.82893223 108.80356279 -7.1875 104.0625 C-8.66978846 100.72622169 -8.66978846 100.72622169 -10.6875 97.5625 C-13.60652935 92.79011868 -14.78866816 89.69591848 -14.1875 84.0625 C-12.125 81.4375 -12.125 81.4375 -9.1875 79.0625 C-8.66800781 78.59457031 -8.14851563 78.12664062 -7.61328125 77.64453125 C-3.73203003 74.41467883 -0.40192583 73.13394978 4.68359375 73.4609375 C9.65126307 74.86464589 11.85428516 79.59454987 14.5234375 83.68359375 C17.91248833 89.00922189 17.91248833 89.00922189 22.875 92.6875 C28.85796653 93.47215588 28.85796653 93.47215588 34.5625 91.8125 C37.98448289 89.15095776 38.64072039 87.35679985 39.20703125 83.08984375 C39.13147768 77.51902749 35.90108586 73.06452793 33.1875 68.375 C31.98957229 66.2352613 30.79572184 64.09323603 29.60546875 61.94921875 C28.9820459 60.82821777 28.35862305 59.7072168 27.71630859 58.55224609 C24.50556574 52.66684493 21.4923867 46.68613743 18.5 40.6875 C17.91009277 39.50961914 17.32018555 38.33173828 16.71240234 37.11816406 C13.02416645 29.68762172 9.49744888 22.20502329 6.47143555 14.47705078 C4.40930047 9.4856834 2.12863325 7.10884734 -2.1875 4.0625 C-8.38784707 1.90585754 -13.84314639 4.01870455 -18.625 8.1875 Z " fill="#270356" transform="translate(117.1875,44.9375)"/>
<path d="M0 0 C6.42636129 0.13115023 10.33023279 2.68449099 15 7 C15.66 7.99 16.32 8.98 17 10 C17.37125 9.175 17.7425 8.35 18.125 7.5 C20 5 20 5 22.6875 4.3125 C27.35816632 5.28188358 30.61629103 7.67725876 34 11 C34.69416775 12.31922453 35.3649578 13.65131782 36 15 C35.22180908 14.92998779 34.44361816 14.85997559 33.6418457 14.7878418 C25.4776209 14.10024494 17.37892559 13.81712009 9.1875 13.8125 C8.02541016 13.80025391 6.86332031 13.78800781 5.66601562 13.77539062 C-0.58841964 13.76472359 -6.01858816 14.13862584 -12 16 C-12.0928125 17.0209375 -12.0928125 17.0209375 -12.1875 18.0625 C-12.98961846 20.96246674 -13.73650694 22.08992959 -15.5625 24.375 C-17.50393267 26.99763712 -18.03099846 28.15781033 -18.6875 31.5 C-17.73490265 36.34958649 -15.76560991 38.86323946 -12 42 C-2.71047722 47.9572405 6.71653779 49.34424442 17.5625 49.25 C18.90344727 49.26160156 18.90344727 49.26160156 20.27148438 49.2734375 C25.87381533 49.25704443 30.60441597 48.46722022 36 47 C39.4375 47.25 39.4375 47.25 42 48 C43.35439668 50.70879335 43.06501451 53.00933268 43 56 C41.68 56 40.36 56 39 56 C39 54.68 39 53.36 39 52 C37.68 52 36.36 52 35 52 C34.95875 52.598125 34.9175 53.19625 34.875 53.8125 C33.55630622 57.10923446 31.15249123 57.51297583 28 59 C25.91820029 60.58216778 23.98071943 62.28937867 22 64 C21.01 64.495 21.01 64.495 20 65 C25.28 66.32 30.56 67.64 36 69 C32.8513641 72.1486359 28.81370752 73.15666167 24.6875 74.6875 C23.83220703 75.02072266 22.97691406 75.35394531 22.09570312 75.69726562 C21.26361328 76.00728516 20.43152344 76.31730469 19.57421875 76.63671875 C18.43859497 77.06537231 18.43859497 77.06537231 17.2800293 77.50268555 C14.54103769 78.10010774 12.67868373 77.76209629 10 77 C8.10871658 75.10871658 8.7633148 72.42932274 8.671875 69.91015625 C8.78015625 69.27980469 8.8884375 68.64945312 9 68 C9.99 67.34 10.98 66.68 12 66 C11.525625 65.4225 11.05125 64.845 10.5625 64.25 C9.03264756 62.04701249 8.55661048 60.57229698 8 58 C7.37351563 58.42152344 6.74703125 58.84304688 6.1015625 59.27734375 C5.28429687 59.82519531 4.46703125 60.37304688 3.625 60.9375 C2.81289063 61.48277344 2.00078125 62.02804687 1.1640625 62.58984375 C-3.18383113 65.42303797 -6.88013747 65.6456665 -12 65 C-14.5625 63.375 -14.5625 63.375 -16 61 C-16.51044066 56.91647472 -15.91544295 54.55506211 -14 51 C-14.86882813 51.03480469 -15.73765625 51.06960938 -16.6328125 51.10546875 C-28.32 51.38 -28.32 51.38 -33 48 C-34.52846661 44.94306678 -34.23242445 42.37015453 -34 39 C-32.40104249 35.713254 -31.3468072 35.12485059 -27.875 33.875 C-26.92625 33.58625 -25.9775 33.2975 -25 33 C-24.67 32.34 -24.34 31.68 -24 31 C-24.7425 30.731875 -25.485 30.46375 -26.25 30.1875 C-29.63612371 28.72531022 -32.24537301 27.50925398 -33.9375 24.125 C-34.02977321 20.98771076 -32.87737215 19.46000488 -31 17 C-27.85797433 14.99240373 -25.4384334 14.77793596 -21.75 14.875 C-20.85796875 14.89304688 -19.9659375 14.91109375 -19.046875 14.9296875 C-18.03367187 14.96449219 -18.03367187 14.96449219 -17 15 C-17.66 14.113125 -18.32 13.22625 -19 12.3125 C-20.98420124 9.0261667 -21.53055241 7.71386688 -21 4 C-19.36890633 2.36890633 -17.55812778 2.75127717 -15.3125 2.6875 C-9.36691218 2.73002924 -6.16081057 4.83918943 -2 9 C-1.855625 7.700625 -1.71125 6.40125 -1.5625 5.0625 C-1.125 1.125 -1.125 1.125 0 0 Z " fill="#3B0756" transform="translate(60,239)"/>
<path d="M0 0 C4.17256387 1.50154548 6.48377066 3.43627466 9.3125 6.8125 C8.67953677 9.66083454 8.00903834 11.36870127 5.50390625 12.96484375 C4.11027672 13.64248013 2.70395881 14.29475641 1.28515625 14.91796875 C-0.93441439 15.86042778 -0.93441439 15.86042778 -3.6875 17.8125 C-2.89085937 18.05484375 -2.09421875 18.2971875 -1.2734375 18.546875 C6.79129798 21.09776457 13.64526352 23.27311799 18.3125 30.8125 C18.8125 33.875 18.8125 33.875 18.3125 36.8125 C15.91624319 39.97898221 14.13332303 41.09282443 10.3125 41.8125 C8.06542759 42.0323223 5.81478762 42.21733987 3.5625 42.375 C2.39203125 42.45878906 1.2215625 42.54257812 0.015625 42.62890625 C-0.87640625 42.68949219 -1.7684375 42.75007813 -2.6875 42.8125 C-1.76517578 43.68261719 -1.76517578 43.68261719 -0.82421875 44.5703125 C7.77988635 52.88624183 7.77988635 52.88624183 9.3125 57.8125 C9.23795402 61.5397992 8.79018643 63.2233534 6.4375 66.125 C2.44738691 69.29361922 -1.79815871 69.36881928 -6.6875 68.8125 C-14.23574335 67.01774105 -21.9567485 64.23934801 -27.6875 58.8125 C-27.6875 57.8225 -27.6875 56.8325 -27.6875 55.8125 C-28.3475 55.8125 -29.0075 55.8125 -29.6875 55.8125 C-29.6875 55.1525 -29.6875 54.4925 -29.6875 53.8125 C-28.89085937 53.63074219 -28.09421875 53.44898438 -27.2734375 53.26171875 C-18.4212889 51.16175649 -12.01633588 49.49229288 -6.6875 41.8125 C-6.6875 40.4925 -6.6875 39.1725 -6.6875 37.8125 C-7.05875 38.699375 -7.43 39.58625 -7.8125 40.5 C-10.48859231 45.22776308 -13.67307329 47.912437 -18.625 50.125 C-22.06193135 50.89655602 -25.17590856 50.95296366 -28.6875 50.8125 C-27.45594386 44.79410745 -25.87251351 39.01409704 -23.9375 33.1875 C-21.13265673 24.58959001 -18.82343084 15.90287533 -16.69238281 7.11474609 C-16.45874023 6.17711426 -16.22509766 5.23948242 -15.984375 4.2734375 C-15.78166992 3.43603027 -15.57896484 2.59862305 -15.37011719 1.73583984 C-13.41194775 -3.78149163 -4.36175403 -1.29102084 0 0 Z " fill="#DF315C" transform="translate(477.6875,285.1875)"/>
<path d="M0 0 C8.18852472 5.01625274 11.04318781 12.45797946 14.1171875 21.1640625 C15.25916577 26.12610969 15.29130179 30.80176383 15.25 35.875 C15.26160156 37.28845703 15.26160156 37.28845703 15.2734375 38.73046875 C15.2400179 50.81165272 15.2400179 50.81165272 13 56 C10.35546875 58.234375 10.35546875 58.234375 7.1875 59.75 C2.13713206 62.27192824 2.13713206 62.27192824 -2 66 C-2.99 66.99 -2.99 66.99 -4 68 C-8.47257634 67.59755959 -10.50582323 64.85799409 -13.25390625 61.58984375 C-21.7899342 48.92902377 -22.74969242 32.47632902 -20.50390625 17.74609375 C-18.61995277 10.94470238 -15.40058736 5.13965395 -10.125 0.4375 C-6.01860448 -1.45144194 -4.30382406 -1.4098734 0 0 Z " fill="#280254" transform="translate(359,224)"/>
<path d="M0 0 C7.98497658 3.06609984 12.40268847 12.29133499 15.8125 19.625 C18.47536687 27.19314794 19.38882954 34.43310549 19.375 42.4375 C19.37367065 43.81965698 19.37367065 43.81965698 19.37231445 45.22973633 C19.26109304 51.59984417 18.80688229 57.63980787 15 63 C14.01 63.66 13.02 64.32 12 65 C11.34 64.401875 10.68 63.80375 10 63.1875 C5.84267705 60.15611869 1.61561303 58.21132239 -3.5625 57.79296875 C-6.38356284 57.54528615 -8.43898636 57.22752033 -11 56 C-13.60606752 52.28945625 -14.77814306 48.33610205 -16 44 C-16.31710938 42.94683594 -16.63421875 41.89367187 -16.9609375 40.80859375 C-20.15165805 28.87998251 -20.64255046 17.22752388 -15 6 C-10.83194017 -0.12949975 -7.17556915 -0.98117338 0 0 Z " fill="#280254" transform="translate(163,244)"/>
<path d="M0 0 C11.53767989 0.01496873 20.72411491 2.04931752 30.0625 9.25 C34.76679384 14.28827007 37.4485302 18.71502005 37.34375 25.80078125 C36.45674949 33.5250774 33.80555213 40.9271712 28.0625 46.25 C24.3722863 48.33165901 21.2559937 48.82557757 17.0625 48.25 C5.29652066 42.96827781 -0.25374289 31.73504023 -4.71728516 20.2421875 C-6.98192985 14.04767422 -9.17365766 7.83079553 -9.9375 1.25 C-7.77770095 -0.90979905 -2.98710269 0.00953182 0 0 Z " fill="#FCF898" transform="translate(259.9375,301.75)"/>
<path d="M0 0 C-0.64453125 0.25523437 -1.2890625 0.51046875 -1.953125 0.7734375 C-2.62859375 1.17820312 -3.3040625 1.58296875 -4 2 C-4.4154006 4.00776958 -4.82130812 6.01783132 -5.1875 8.03515625 C-7.79023471 17.5326353 -13.75460098 30.53716867 -21.90234375 36.359375 C-26.28926366 38.81807099 -29.94543284 39.78432939 -35 39 C-48.98125179 34.07935639 -60.07989619 21.12765896 -68 9 C-68 8.34 -68 7.68 -68 7 C-67.42258057 6.95512451 -66.84516113 6.91024902 -66.25024414 6.86401367 C-56.42292219 6.08246078 -46.68054617 5.28705255 -37 3.375 C-30.70191759 2.13344784 -24.78511144 1.91217849 -18.375 2.09765625 C-13.56810145 1.95856775 -9.16806734 0.82660384 -4.546875 -0.44140625 C-2 -1 -2 -1 0 0 Z " fill="#F57E9B" transform="translate(338,410)"/>
<path d="M0 0 C1.31419922 -0.00322266 2.62839844 -0.00644531 3.98242188 -0.00976562 C12.55187332 0.03777041 19.73847032 0.71171912 27.625 4.25 C28.35332031 4.56839844 29.08164063 4.88679688 29.83203125 5.21484375 C31.93786919 6.3819847 33.32444869 7.41861652 34.8125 9.3125 C34.9375 12.75 34.9375 12.75 33.8125 16.3125 C31.35598712 18.11728497 29.55541535 19.17182921 26.8125 20.3125 C26.17699219 20.59996094 25.54148438 20.88742187 24.88671875 21.18359375 C11.0040061 26.99819685 -10.21625428 26.48552684 -24.1875 21.3125 C-28.00131115 19.41157219 -31.17560174 17.32439826 -34.1875 14.3125 C-34.25 11.5 -34.25 11.5 -33.1875 8.3125 C-24.02167123 -0.25555733 -11.90337504 -0.1472461 0 0 Z " fill="#FEFA99" transform="translate(141.1875,299.6875)"/>
<path d="M0 0 C-2.72532247 20.06356448 -2.72532247 20.06356448 -7.1015625 23.7890625 C-9.73721411 24.88515888 -12.19327374 25.49150608 -15 26 C-15.79019531 26.21527344 -16.58039063 26.43054688 -17.39453125 26.65234375 C-23.62155476 28.15271319 -29.938637 28.23183278 -36.3125 28.3125 C-37.17278809 28.33022461 -38.03307617 28.34794922 -38.91943359 28.36621094 C-45.02495719 28.35907415 -49.50918787 27.49081213 -54 23 C-54.625 20.3125 -54.625 20.3125 -54 17 C-42.13044403 1.5104035 -17.88985793 -0.79707288 0 0 Z " fill="#FEFA99" transform="translate(409,274)"/>
<path d="M0 0 C6.84376811 4.21154961 8.24392674 11.23778173 10.4375 18.5 C10.78490234 19.62470703 11.13230469 20.74941406 11.49023438 21.90820312 C12.17322051 24.12118071 12.85238882 26.33534095 13.52734375 28.55078125 C14.26858132 30.95264547 15.03737598 33.33825665 15.84375 35.71875 C19.72119705 47.35109114 19.72119705 47.35109114 18.4375 53.5 C16.39180419 56.93384654 14.32167125 59.32297841 10.4375 60.5 C8.0078125 60.3828125 8.0078125 60.3828125 5.4375 59.5 C2.37050368 55.30532588 0.50175686 50.25749615 -1.5625 45.5 C-1.98853516 44.53674805 -2.41457031 43.57349609 -2.85351562 42.58105469 C-4.26588713 39.3577712 -5.63807833 36.11989708 -7 32.875 C-7.44947998 31.83923828 -7.89895996 30.80347656 -8.36206055 29.73632812 C-11.27182807 22.59986514 -12.55098491 16.21418966 -11.5625 8.5 C-9.27318693 3.66700574 -5.87761071 -1.14685087 0 0 Z " fill="#7B7CD7" transform="translate(167.5625,63.5)"/>
<path d="M0 0 C0.66 0.66 1.32 1.32 2 2 C1.47680176 2.28609131 0.95360352 2.57218262 0.41455078 2.86694336 C-20.40785314 13.86887618 -20.40785314 13.86887618 -33.46875 32.68359375 C-34.86006874 38.75015267 -34.34590284 44.97599937 -33 51 C-35.39706123 51.10854617 -37.78915838 51.18753157 -40.1875 51.25 C-40.86103516 51.28351563 -41.53457031 51.31703125 -42.22851562 51.3515625 C-45.81738802 51.42158928 -47.85119042 51.08948284 -50.94921875 49.2265625 C-53 47 -53 47 -53.625 43.125 C-53.35345797 39.55521579 -52.35929147 37.05582525 -49.84375 34.38671875 C-45.98452056 31.48412033 -41.4641507 29.76689677 -37 28 C-38.63544175 26.9097055 -40.28881893 25.83985721 -42.0078125 24.88671875 C-47.66795175 21.68069892 -47.66795175 21.68069892 -49.25 18.4375 C-49 16 -49 16 -47.3125 13.8125 C-43.78165073 11.0450776 -41.18953612 9.74014948 -36.671875 9.8046875 C-35.87265625 9.81113281 -35.0734375 9.81757813 -34.25 9.82421875 C-33.425 9.84097656 -32.6 9.85773438 -31.75 9.875 C-30.90953125 9.88402344 -30.0690625 9.89304687 -29.203125 9.90234375 C-27.13529396 9.92584183 -25.06761005 9.96171092 -23 10 C-23.97259766 8.59814453 -23.97259766 8.59814453 -24.96484375 7.16796875 C-27 4 -27 4 -27.5625 1.3125 C-27 -1 -27 -1 -25.125 -2.8125 C-16.5693308 -6.0636543 -8.12232019 -3.52138565 0 0 Z " fill="#FE295C" transform="translate(69,316)"/>
<path d="M0 0 C4.39574467 0.46831178 7.05083385 3.42447645 10.1875 6.25 C15.13412701 10.58766061 20.0023327 14.19488945 26 17 C26.53625 16.236875 27.0725 15.47375 27.625 14.6875 C31.05689444 10.8040405 34.30524887 9.23057839 39.4453125 8.53125 C56.36334838 8.38757241 69.17508864 16.24964221 81.1796875 27.76733398 C81.71851563 28.29786377 82.25734375 28.82839355 82.8125 29.375 C83.33457031 29.88683838 83.85664063 30.39867676 84.39453125 30.92602539 C88 34.61905902 88 34.61905902 88 38 C83.27944504 37.54883192 81.4601024 35.81915337 78.3125 32.375 C68.60039835 22.2732598 56.72197588 14.24023106 42.375 13.6875 C38.2494278 13.80821382 35.4461713 14.59569444 32 17 C20.77260758 30.47287091 20.83809456 53.2063247 20.90234375 69.78125 C20.90421197 71.20471141 20.90563397 72.62817346 20.90663147 74.05163574 C20.91042482 77.77353737 20.92022743 81.49539913 20.93133545 85.21728516 C20.94161848 89.02505962 20.94614377 92.83284061 20.95117188 96.640625 C20.96185298 104.09376805 20.97889054 111.54687841 21 119 C19.0625 119.5625 19.0625 119.5625 17 120 C13.30053163 116.30053163 14.81782334 104.83040047 14.796875 99.90625 C14.79117493 98.84249146 14.78547485 97.77873291 14.77960205 96.68273926 C14.77018419 94.43026715 14.7636309 92.17778145 14.75976562 89.92529297 C14.75018764 86.56581622 14.71918712 83.20698639 14.6875 79.84765625 C14.59159968 60.31239174 15.54731262 40.60470271 22 22 C21.18917969 21.46632813 20.37835938 20.93265625 19.54296875 20.3828125 C11.73083073 15.15535514 4.78449726 9.51257352 -2 3 C-1.34 2.01 -0.68 1.02 0 0 Z " fill="#2D0657" transform="translate(126,368)"/>
<path d="M0 0 C0.30292969 0.80824219 0.60585938 1.61648437 0.91796875 2.44921875 C4.37559746 11.26883167 8.04702952 16.00627435 16 21 C15.4187243 29.51869561 13.74479814 37.65531324 12 46 C6.72 46 1.44 46 -4 46 C-5.28664553 41.49674066 -6.26811545 37.95354093 -6.78125 33.453125 C-6.90113281 32.4425 -7.02101563 31.431875 -7.14453125 30.390625 C-7.26183594 29.35421875 -7.37914062 28.3178125 -7.5 27.25 C-8.39784769 19.4357652 -9.49597136 11.72246177 -11 4 C-7.07818304 1.08143854 -4.87951664 -0.26600431 0 0 Z " fill="#FCACC0" transform="translate(405,200)"/>
<path d="M0 0 C3.98501451 2.77218401 6.77000224 5.58746173 8.875 10 C9.77085359 15.14205396 9.38705554 19.51773397 7.6875 24.4375 C4.83399038 28.47177222 1.39577539 31.06959591 -3.125 33 C-7.92733424 33.69179354 -12.60820978 33.64762337 -17 31.4375 C-21.66123414 27.80173737 -23.75120692 24.87088497 -24.50390625 19.08984375 C-24.68764902 14.30660461 -24.53200801 10.87663263 -22.5 6.5 C-16.11521615 -0.2208251 -8.93235743 -2.85835438 0 0 Z M-18.125 9 C-20.46026942 12.77535223 -20.32850769 15.51527779 -19.734375 19.80859375 C-18.77550227 23.2568476 -16.9424758 24.90327382 -14.125 27 C-11.95153432 27.86119134 -11.95153432 27.86119134 -10.125 28 C-10.455 27.360625 -10.785 26.72125 -11.125 26.0625 C-12.86381422 20.73738146 -12.85487109 15.93415838 -10.875 10.6875 C-9.17847292 8.08211912 -7.43505828 6.07108673 -5.125 4 C-11.56614391 3.35588561 -13.77528138 4.54912513 -18.125 9 Z " fill="#270256" transform="translate(156.125,25)"/>
<path d="M0 0 C5.49152542 0.61016949 5.49152542 0.61016949 7.875 2.4375 C9 4 9 4 9 6 C9.66 6 10.32 6 11 6 C11 5.01 11 4.02 11 3 C13.25 2.625 13.25 2.625 16 3 C17.33333333 5 18.66666667 7 20 9 C22.5 9.16666667 22.5 9.16666667 25 9 C28.55761815 11.66821361 29.29124662 13.72621712 30 18 C28.87980469 17.50628906 27.75960937 17.01257813 26.60546875 16.50390625 C25.13284305 15.85670132 23.66018511 15.20956973 22.1875 14.5625 C21.44951172 14.23701172 20.71152344 13.91152344 19.95117188 13.57617188 C19.23896484 13.26357422 18.52675781 12.95097656 17.79296875 12.62890625 C17.1383667 12.34088135 16.48376465 12.05285645 15.80932617 11.75610352 C12.39829969 10.33066174 9.67019695 9.83980801 6 9.8125 C5.13375 9.79832031 4.2675 9.78414062 3.375 9.76953125 C0.73278463 9.83744062 0.73278463 9.83744062 -2 12 C-3.27749839 15.28499585 -3.09899419 16.73051581 -1.875 20.0625 C1.92642579 26.01806707 7.49392836 28.71519059 14 31 C16.60729741 31.56975674 19.19363788 32.036879 21.8359375 32.41015625 C24.37171766 33.10131655 25.42548319 33.91441052 27 36 C26.6875 38.1875 26.6875 38.1875 26 40 C25.01 39.67 24.02 39.34 23 39 C22.67 38.34 22.34 37.68 22 37 C19.47266765 36.34444881 19.47266765 36.34444881 17 36 C16.9175 36.61875 16.835 37.2375 16.75 37.875 C16 40 16 40 14.25 41.3125 C11.48679971 42.1568112 9.75194864 41.76443018 7 41 C6.67 39.02 6.34 37.04 6 35 C5.29875 35.33 4.5975 35.66 3.875 36 C0.63439857 37.12716572 -1.59573648 37.44403437 -5 37 C-6.9375 35.375 -6.9375 35.375 -8 33 C-7.6875 29.75 -7.6875 29.75 -7 27 C-8.7015625 26.4740625 -8.7015625 26.4740625 -10.4375 25.9375 C-12.375 25.1328125 -12.375 25.1328125 -14 24 C-14.9375 20.3125 -14.9375 20.3125 -15 17 C-12.36 16.34 -9.72 15.68 -7 15 C-7.66 14.46375 -8.32 13.9275 -9 13.375 C-11 11 -11 11 -11.375 7.875 C-11 5 -11 5 -9 3 C-8.01 3 -7.02 3 -6 3 C-6 3.66 -6 4.32 -6 5 C-4.35 5.33 -2.7 5.66 -1 6 C-0.67 4.02 -0.34 2.04 0 0 Z " fill="#500A56" transform="translate(82,202)"/>
<path d="M0 0 C6.42636129 0.13115023 10.33023279 2.68449099 15 7 C15.66 7.99 16.32 8.98 17 10 C17.37125 9.175 17.7425 8.35 18.125 7.5 C20 5 20 5 22.6875 4.3125 C27.35816632 5.28188358 30.61629103 7.67725876 34 11 C34.69416775 12.31922453 35.3649578 13.65131782 36 15 C35.22035889 14.93071289 34.44071777 14.86142578 33.63745117 14.79003906 C25.51975758 14.11130012 17.45728211 13.78704278 9.3125 13.75 C7.59450195 13.7190625 7.59450195 13.7190625 5.84179688 13.6875 C-2.39818482 13.64980998 -9.56772263 14.5911536 -16.875 18.5625 C-20.06220698 22.21841389 -21.44593004 26.45065555 -23 31 C-27.397017 30.26962301 -29.75721661 29.15270608 -33 26 C-34 24.0625 -34 24.0625 -34 22 C-32.29758774 18.2367729 -30.82565023 16.48437928 -27 15 C-24.421875 14.8046875 -24.421875 14.8046875 -21.75 14.875 C-20.85796875 14.89304688 -19.9659375 14.91109375 -19.046875 14.9296875 C-18.03367187 14.96449219 -18.03367187 14.96449219 -17 15 C-17.66 14.113125 -18.32 13.22625 -19 12.3125 C-20.98420124 9.0261667 -21.53055241 7.71386688 -21 4 C-19.36890633 2.36890633 -17.55812778 2.75127717 -15.3125 2.6875 C-9.36691218 2.73002924 -6.16081057 4.83918943 -2 9 C-1.855625 7.700625 -1.71125 6.40125 -1.5625 5.0625 C-1.125 1.125 -1.125 1.125 0 0 Z " fill="#FE2A5D" transform="translate(60,239)"/>
<path d="M0 0 C4.24748325 0.30339166 7.14088042 1.24959072 10.37158203 4.07006836 C14.17298157 8.57532524 16.25411073 14.33424236 18.625 19.6875 C19.23208489 21.02833867 19.84066661 22.36850056 20.45068359 23.70800781 C21.69818508 26.45177329 22.93785015 29.19887895 24.171875 31.94873047 C25.89670468 35.78375575 27.6610685 39.59874435 29.4375 43.41015625 C29.97552246 44.56491455 30.51354492 45.71967285 31.06787109 46.90942383 C32.07593078 49.072058 33.084064 51.2346579 34.09228516 53.3972168 C36.60313239 58.82675789 38.9430015 64.2551013 40.99047852 69.87768555 C42.11397629 72.23961207 43.45329731 73.73909924 45.3125 75.5625 C47.16319571 77.54941443 47.93239144 78.54639373 48.3359375 81.25390625 C48.07255167 85.46114835 47.3307874 87.5798106 44.6875 90.9375 C39.46387822 94.94632602 36.51884957 95.21729499 30 95 C29.505 94.01 29.505 94.01 29 93 C30.093125 92.484375 31.18625 91.96875 32.3125 91.4375 C36.42303668 89.06956406 37.74440063 86.63002267 39 82 C39.13824554 74.94947723 35.22915936 69.04980122 32 63 C31.21922292 61.52127084 30.43932802 60.04207566 29.66015625 58.5625 C29.24765625 57.7794751 28.83515625 56.9964502 28.41015625 56.18969727 C27.98605469 55.38459717 27.56195313 54.57949707 27.125 53.75 C26.691875 52.92878662 26.25875 52.10757324 25.8125 51.26147461 C19.02737234 38.38112499 12.70649444 25.3674185 6.76782227 12.0715332 C6.32237061 11.0837085 5.87691895 10.09588379 5.41796875 9.078125 C5.02375732 8.19543945 4.6295459 7.31275391 4.22338867 6.40332031 C3.02063565 4.04053829 1.65526639 2.06481374 0 0 Z " fill="#7A7AD6" transform="translate(120,48)"/>
<path d="M0 0 C6.78802681 2.31786281 11.17255009 7.2311365 15.0625 13.125 C16.20482561 16.62813188 16.14060926 18.50213159 15 22 C12.72158051 24.81005071 11.45303547 25.84898818 8 27 C-2.18136568 27.9255787 -11.1038546 24.04582769 -19.453125 18.46484375 C-19.96359375 17.98144531 -20.4740625 17.49804688 -21 17 C-21 16.01 -21 15.02 -21 14 C-21.66 14 -22.32 14 -23 14 C-23 13.34 -23 12.68 -23 12 C-22.20335937 11.81824219 -21.40671875 11.63648438 -20.5859375 11.44921875 C-11.54554273 9.30459955 -5.67989533 7.51750852 0 0 Z " fill="#DD315B" transform="translate(471,327)"/>
<path d="M0 0 C5.9370044 2.56311203 10.01523804 7.6023187 12.4375 13.5 C12.623125 14.325 12.80875 15.15 13 16 C12.34 16 11.68 16 11 16 C11.05220703 17.08667969 11.05220703 17.08667969 11.10546875 18.1953125 C11.38722094 28.25789069 11.38722094 28.25789069 8 33 C3.05511628 37.83499742 -0.96359186 39.90205135 -7.875 40.125 C-8.90625 40.08375 -9.9375 40.0425 -11 40 C-9.72746572 33.75073195 -8.05294919 27.74297738 -6.0625 21.6875 C-3.74534926 14.51137573 -1.67402696 7.35690794 0 0 Z " fill="#F88DA8" transform="translate(460,296)"/>
<path d="M0 0 C0.7923223 8.24015195 -1.59776372 15.82905761 -6.8671875 22.2890625 C-10.00340464 25.25443513 -12.4989927 26.83587692 -16.625 28.1875 C-21.70278304 27.90540094 -24.49636309 25.50363691 -28 22 C-28.265625 19.06640625 -28.265625 19.06640625 -28.25 15.5625 C-28.25515625 14.40878906 -28.2603125 13.25507813 -28.265625 12.06640625 C-28 9 -28 9 -26 6 C-23.40610371 5.3654795 -20.94360843 4.88434587 -18.3125 4.5 C-14.03643867 3.85799635 -10.13453212 3.1835374 -6.16796875 1.40625 C-3 0 -3 0 0 0 Z " fill="#FB285B" transform="translate(88,372)"/>
<path d="M0 0 C5.0579919 0.99176312 7.48144583 1.88477 10.80639648 6.11767578 C13.06813088 9.68445267 14.20437799 13.61114895 15.4375 17.625 C15.72826416 18.53926758 16.01902832 19.45353516 16.31860352 20.39550781 C16.92215936 22.30423066 17.51901462 24.21508438 18.109375 26.12792969 C18.97792144 28.92880147 19.87648716 31.71846071 20.78125 34.5078125 C21.33485011 36.25472839 21.88699176 38.0021073 22.4375 39.75 C22.82603149 40.94423584 22.82603149 40.94423584 23.22241211 42.16259766 C24.81999425 47.37818507 25.85445143 52.54134138 25 58 C22.94168979 61.84828005 20.04226561 64.38755214 16 66 C13.640625 66.1953125 13.640625 66.1953125 11.25 66.125 C10.45078125 66.10695313 9.6515625 66.08890625 8.828125 66.0703125 C8.22484375 66.04710937 7.6215625 66.02390625 7 66 C7 65.34 7 64.68 7 64 C7.928125 63.401875 8.85625 62.80375 9.8125 62.1875 C13.14191698 59.90260599 14.48628864 58.70018333 16 55 C16.38915545 48.78446306 15.37689472 43.8036078 13.515625 37.8984375 C13.25875916 37.05834137 13.00189331 36.21824524 12.73724365 35.35269165 C12.19456394 33.58792641 11.64631569 31.82486482 11.09277344 30.06347656 C10.25165673 27.38028502 9.43329329 24.69089033 8.6171875 22 C8.08467934 20.27822896 7.55086875 18.55686009 7.015625 16.8359375 C6.77378479 16.03892426 6.53194458 15.24191101 6.28277588 14.42074585 C4.76924127 9.66130013 2.87027645 6.07641149 0 2 C0 1.34 0 0.68 0 0 Z " fill="#7B7BD7" transform="translate(173,62)"/>
<path d="M0 0 C0.495 0.7425 0.99 1.485 1.5 2.25 C6.75773338 8.03350671 14.46027905 9.44150215 22 10 C20.63681983 15.6231182 16.52429819 18.76835844 12 22 C7.1230143 24.63745906 2.56680003 25.63020378 -3 25 C-7.11963238 23.22106784 -9.22812621 21.13437218 -11 17 C-10.848011 11.37640696 -7.43939847 5.69340996 -3.875 1.5 C-2 0 -2 0 0 0 Z " fill="#FB285B" transform="translate(38,368)"/>
<path d="M0 0 C0.1959375 0.58007812 0.391875 1.16015625 0.59375 1.7578125 C3.05550664 8.18809061 5.79786124 11.89893062 12 15 C17.89669143 17.30969534 23.93954786 19.17409455 30 21 C22.26536816 28.82427161 22.26536816 28.82427161 17.68359375 29.1796875 C15.44687908 29.18668817 13.23252451 29.13132497 11 29 C10.46770674 27.73392393 9.94955456 26.46189588 9.4375 25.1875 C9.14746094 24.47980469 8.85742188 23.77210938 8.55859375 23.04296875 C8 21 8 21 9 18 C8.13117187 18.03480469 7.26234375 18.06960938 6.3671875 18.10546875 C-5.32 18.38 -5.32 18.38 -10 15 C-11.52846661 11.94306678 -11.23242445 9.37015453 -11 6 C-9.42462526 2.7617297 -8.29889394 2.12199752 -4.9375 0.75 C-2 0 -2 0 0 0 Z " fill="#F9275B" transform="translate(37,272)"/>
<path d="M0 0 C2.65075774 1.88343313 3.71738192 3.34644568 5 6.3125 C5 10.424217 3.55900084 12.929199 1 16 C-6.11909277 22.66190332 -14.04127824 28.39129451 -22 34 C-23.26566355 30.45858091 -22.74942691 28.63008863 -21.26953125 25.2265625 C-20.68268555 23.8653125 -20.68268555 23.8653125 -20.08398438 22.4765625 C-19.66439453 21.53554687 -19.24480469 20.59453125 -18.8125 19.625 C-18.41224609 18.69171875 -18.01199219 17.7584375 -17.59960938 16.796875 C-15.4376454 11.84923621 -13.17304052 7.36988914 -10 3 C-9.3503125 2.071875 -9.3503125 2.071875 -8.6875 1.125 C-5.79198239 -0.80534507 -3.35668319 -0.41222425 0 0 Z " fill="#250053" transform="translate(394,98)"/>
<path d="M0 0 C2.97819304 0.09205324 4.02122686 0.31014179 6.625 1.9375 C8.79663977 5.46641463 8.79790625 7.27027186 8.125 11.375 C4.87615833 18.08842673 -0.49584339 23.44433809 -5.53125 28.84375 C-7.40878832 30.87149138 -9.19761193 32.9179868 -10.9375 35.0625 C-11.576875 35.825625 -12.21625 36.58875 -12.875 37.375 C-13.205 37.375 -13.535 37.375 -13.875 37.375 C-14.08861348 31.68372647 -13.32455803 26.55692223 -12.125 21 C-11.94598145 20.16090088 -11.76696289 19.32180176 -11.58251953 18.45727539 C-7.63278359 0.73865648 -7.63278359 0.73865648 0 0 Z " fill="#250052" transform="translate(355.875,81.625)"/>
<path d="M0 0 C2.875 1.5 2.875 1.5 5 4 C6.0269825 8.89791652 6.0269825 8.89791652 5 12 C-0.19641305 17.72133944 -7.62279134 20.07235623 -14.75 22.4375 C-15.77738281 22.80037109 -16.80476563 23.16324219 -17.86328125 23.53710938 C-26.13693117 26.35791701 -26.13693117 26.35791701 -30 25 C-8.15975811 -0.97917097 -8.15975811 -0.97917097 0 0 Z " fill="#250052" transform="translate(421,122)"/>
<path d="M0 0 C1.91015625 0.43359375 1.91015625 0.43359375 4.47265625 2.30859375 C7.24040726 8.32544377 5.29127615 14.81612791 3.16796875 20.86328125 C2.4697638 22.68332112 1.75868618 24.49847229 1.03515625 26.30859375 C0.68324219 27.2315625 0.33132813 28.15453125 -0.03125 29.10546875 C-1.68083133 33.33673684 -3.22616136 36.87001315 -6.08984375 40.43359375 C-8.43461149 30.75958345 -10.14234011 21.63496576 -10.40234375 11.68359375 C-10.43972656 10.41 -10.47710937 9.13640625 -10.515625 7.82421875 C-10.08984375 4.43359375 -10.08984375 4.43359375 -8.3203125 2.015625 C-5.33897568 -0.09898343 -3.5597643 -0.21957425 0 0 Z " fill="#250052" transform="translate(316.08984375,71.56640625)"/>
<path d="M0 0 C0.66 0.99 1.32 1.98 2 3 C1.36191406 3.45890625 0.72382812 3.9178125 0.06640625 4.390625 C-0.75988281 5.00421875 -1.58617188 5.6178125 -2.4375 6.25 C-3.26121094 6.85328125 -4.08492187 7.4565625 -4.93359375 8.078125 C-7.21023162 10.19552733 -7.61752911 10.98734378 -8 14 C-7.42207907 15.86518584 -7.42207907 15.86518584 -6.34765625 17.64453125 C-5.80141602 18.66063477 -5.80141602 18.66063477 -5.24414062 19.69726562 C-4.46229792 21.09682869 -3.67847277 22.49528631 -2.89257812 23.89257812 C-0.44397161 28.45726435 0.54697432 31.68653517 0 37 C-1.73205819 41.64920883 -3.75842991 44.39721835 -8 47 C-11.62133081 47.88944967 -13.92669389 48.41281004 -17.4375 47.0625 C-18.2109375 46.5365625 -18.2109375 46.5365625 -19 46 C-18.071875 45.443125 -17.14375 44.88625 -16.1875 44.3125 C-12.18496204 41.40869795 -10.46401302 39.5778501 -9.578125 34.65625 C-9.02512763 27.25459288 -11.3584239 22.77787592 -15.46875 16.7265625 C-17.13175065 13.76540318 -17.59353703 12.32824505 -17 9 C-15.64453125 7.3046875 -15.64453125 7.3046875 -13.8125 5.875 C-13.17183594 5.37484375 -12.53117187 4.8746875 -11.87109375 4.359375 C-4.79942857 -0.77828571 -4.79942857 -0.77828571 0 0 Z " fill="#7979D5" transform="translate(122,121)"/>
<path d="M0 0 C-0.33 2.97 -0.66 5.94 -1 9 C-1.99 9.33 -2.98 9.66 -4 10 C-4.58787247 11.81082574 -4.58787247 11.81082574 -4.8125 14 C-6.12873461 20.80961049 -9.36765303 26.21000406 -15.125 30.125 C-18.0088865 31.00270459 -19.25915733 31.15958728 -22 30 C-22 29.34 -22 28.68 -22 28 C-22.61875 27.731875 -23.2375 27.46375 -23.875 27.1875 C-26 26 -26 26 -28 23 C-28.6171875 20.61328125 -28.6171875 20.61328125 -28 18 C-25.60610135 15.98993663 -22.88566903 14.6318885 -20.125 13.1875 C-13.78939837 9.69367968 -8.19727339 6.10780462 -2.6875 1.3984375 C-1 0 -1 0 0 0 Z " fill="#FA285C" transform="translate(117,353)"/>
<path d="M0 0 C3.51666199 1.49458135 5.19538738 2.98968318 7.5 6.0625 C8.83431594 10.48038753 8.84574875 13.98457742 7.4375 18.375 C5.09883373 21.61895644 3.06297927 23.2460792 -0.5 25.0625 C-3.8161783 25.51766173 -5.57023818 25.7357758 -8.3125 23.75 C-11.21541493 19.62480509 -10.95456556 14.88915981 -10.5 10.0625 C-8.69883405 5.03819498 -5.84340521 0.14608513 0 0 Z " fill="#7B7BD6" transform="translate(153.5,28.9375)"/>
<path d="M0 0 C5.48215261 0.98678747 8.4014245 2.56940491 11.83203125 7.01171875 C14.18665727 11.02009548 14.49560554 14.63402223 13.55078125 19.14453125 C12.06948164 23.75967859 10.2433126 26.4342761 6 29 C1.29737794 31.1468492 -1.96640479 31.00671904 -7 30 C-6.443125 29.5875 -5.88625 29.175 -5.3125 28.75 C-4.549375 28.1725 -3.78625 27.595 -3 27 C-2.13375 26.38125 -1.2675 25.7625 -0.375 25.125 C2.83798114 22.2502274 3.79656574 19.6038189 4.3359375 15.3515625 C4.42747249 8.96241986 3.72074331 5.23229529 0 0 Z " fill="#7A7AD6" transform="translate(160,28)"/>
<path d="M0 0 C5.49152542 0.61016949 5.49152542 0.61016949 7.875 2.4375 C9 4 9 4 9 6 C9.66 6 10.32 6 11 6 C11 5.01 11 4.02 11 3 C13.25 2.625 13.25 2.625 16 3 C17.33333333 5 18.66666667 7 20 9 C22.5 9.16666667 22.5 9.16666667 25 9 C28.55761815 11.66821361 29.29124662 13.72621712 30 18 C28.87980469 17.50628906 27.75960937 17.01257813 26.60546875 16.50390625 C25.13284305 15.85670132 23.66018511 15.20956973 22.1875 14.5625 C21.44951172 14.23701172 20.71152344 13.91152344 19.95117188 13.57617188 C18.88286133 13.10727539 18.88286133 13.10727539 17.79296875 12.62890625 C17.1383667 12.34088135 16.48376465 12.05285645 15.80932617 11.75610352 C12.39829969 10.33066174 9.67019695 9.83980801 6 9.8125 C5.13375 9.79832031 4.2675 9.78414062 3.375 9.76953125 C0.73278463 9.83744062 0.73278463 9.83744062 -2 12 C-2.99 13.485 -2.99 13.485 -4 15 C-8 10.5 -8 10.5 -8 6 C-4.98968256 5.06576355 -4.13349732 4.95550089 -1 6 C-0.67 4.02 -0.34 2.04 0 0 Z " fill="#FD2A5E" transform="translate(82,202)"/>
<path d="M0 0 C3.45053241 0.74154299 6.71039132 1.72660309 10 3 C6.8513641 6.1486359 2.81370752 7.15666167 -1.3125 8.6875 C-2.16779297 9.02072266 -3.02308594 9.35394531 -3.90429688 9.69726562 C-5.15243164 10.16229492 -5.15243164 10.16229492 -6.42578125 10.63671875 C-7.18286377 10.92248779 -7.93994629 11.20825684 -8.7199707 11.50268555 C-11.45896231 12.10010774 -13.32131627 11.76209629 -16 11 C-17.89128342 9.10871658 -17.2366852 6.42932274 -17.328125 3.91015625 C-17.16570312 2.96462891 -17.16570312 2.96462891 -17 2 C-11.91161695 -1.39225536 -5.94613326 -0.43600765 0 0 Z " fill="#FF295C" transform="translate(86,305)"/>
<path d="M0 0 C4.58464331 0.5393698 7.39547932 2.14013948 11 5 C12.70648555 7.49085041 13.94531404 10.12858479 15.1875 12.875 C15.51685547 13.56980469 15.84621094 14.26460937 16.18554688 14.98046875 C16.8306985 16.34259802 17.46880035 17.7080931 18.09912109 19.07714844 C18.93714362 20.86583826 19.83549124 22.62592228 20.73828125 24.3828125 C22 27 22 27 22 29 C19.75 29.25 19.75 29.25 17 29 C13.8465756 26.32624384 12.06449203 23.59896949 10.2734375 19.90234375 C9.7990625 18.93619141 9.3246875 17.97003906 8.8359375 16.97460938 C8.35382813 15.97236328 7.87171875 14.97011719 7.375 13.9375 C6.40530832 11.94580432 5.43402306 9.95488349 4.4609375 7.96484375 C4.03603027 7.0843335 3.61112305 6.20382324 3.17333984 5.29663086 C1.96503211 2.82251166 1.96503211 2.82251166 0 0 Z " fill="#7979D6" transform="translate(73,74)"/>
<path d="M0 0 C6.27 1.98 12.54 3.96 19 6 C10.83330063 14.16669937 10.83330063 14.16669937 4.1875 14.1875 C2.79108728 14.13966204 1.39482079 14.08204828 0 14 C-2.63671875 8.3359375 -2.63671875 8.3359375 -3 6 C-2.01 4.02 -1.02 2.04 0 0 Z " fill="#FA275B" transform="translate(48,287)"/>
<path d="M0 0 C0.66 0 1.32 0 2 0 C1.57414794 8.80094267 -0.80231755 16.37470436 -7.375 22.5625 C-10.81602425 25.18245556 -13.5967711 26.16011741 -18 26 C-21.15111726 24.27580377 -23.47006319 22.52993681 -26 20 C-26 19.01 -26 18.02 -26 17 C-25.01 17 -24.02 17 -23 17 C-22.2575 17.845625 -21.515 18.69125 -20.75 19.5625 C-18.18097489 22.33659833 -18.18097489 22.33659833 -14.5625 22.25 C-9.73367938 20.55567698 -7.51420337 18.43255507 -5 14 C-3.74240203 10.59567428 -2.70736303 7.19858542 -1.76171875 3.6953125 C-1 1 -1 1 0 0 Z " fill="#2F0153" transform="translate(86,374)"/>
<path d="M0 0 C0.33 0 0.66 0 1 0 C1.12288464 10.3905794 0.83360594 20.63946908 0 31 C-1.32 31.33 -2.64 31.66 -4 32 C-5.46951367 27.59145898 -4.99876535 23.41862114 -4.8125 18.8125 C-4.79380859 17.89146484 -4.77511719 16.97042969 -4.75585938 16.02148438 C-4.4991638 9.67614997 -3.21563714 5.48398237 0 0 Z " fill="#000001" transform="translate(404,456)"/>
<path d="M0 0 C3.47767764 0.65055863 5.95767996 2.05961649 8.9375 3.9375 C15.59719666 8.12683005 21.07500781 10.11110532 29 9 C32.09799981 6.80873184 32.80352112 5.58943664 34 2 C34.99 2 35.98 2 37 2 C36.68031467 5.51653861 36.37757864 7.53431968 34.125 10.3125 C30.13488691 13.48111922 25.88934129 13.55631928 21 13 C13.45175665 11.20524105 5.7307515 8.42684801 0 3 C0 2.01 0 1.02 0 0 Z " fill="#2F0253" transform="translate(450,341)"/>
<path d="M0 0 C0.99 0 1.98 0 3 0 C3 9.9 3 19.8 3 30 C2.01 30.33 1.02 30.66 0 31 C-2 29 -2 29 -2.15112305 26.21850586 C-2.10511963 25.06229736 -2.05911621 23.90608887 -2.01171875 22.71484375 C-1.96466797 21.46251953 -1.91761719 20.21019531 -1.86914062 18.91992188 C-1.80919922 17.60572266 -1.74925781 16.29152344 -1.6875 14.9375 C-1.63916016 13.61943359 -1.59082031 12.30136719 -1.54101562 10.94335938 C-1.14209771 1.14209771 -1.14209771 1.14209771 0 0 Z " fill="#370E5C" transform="translate(203,457)"/>
<path d="M0 0 C0.99 0 1.98 0 3 0 C0.42816527 5.78038583 -4.18808099 9.48917332 -10 11.875 C-14.82068636 13.44148996 -19.0044201 13.86172768 -23.75 11.8125 C-26.3011345 9.75741943 -27.59810341 7.95136124 -29 5 C-29 4.01 -29 3.02 -29 2 C-26 3 -26 3 -24.3125 6.0625 C-22.23180015 9.36707663 -22.23180015 9.36707663 -18.375 9.6875 C-11.16561542 9.13397047 -4.8148766 5.20006673 0 0 Z " fill="#2E0153" transform="translate(56,380)"/>
<path d="M0 0 C5.61 0 11.22 0 17 0 C14.77157859 4.45684283 13.35879881 5.73677754 9 8 C5.69327354 7.93516223 3.8329863 7.58309041 1.125 5.6875 C0 4 0 4 0 0 Z " fill="#F6275B" transform="translate(69,294)"/>
<path d="M0 0 C-0.33 3.3 -0.66 6.6 -1 10 C2.60178588 12.40119059 5.50866369 12.43771322 9.6875 12.625 C10.7403418 12.68300781 10.7403418 12.68300781 11.81445312 12.7421875 C13.54254655 12.8362334 15.27123675 12.9191968 17 13 C17 13.66 17 14.32 17 15 C12.6113267 17.19433665 6.7899006 16.3371532 2 16 C-3.51020408 13.97959184 -3.51020408 13.97959184 -5 11 C-5.45833333 4.8125 -5.45833333 4.8125 -3.625 1.5625 C-2 0 -2 0 0 0 Z " fill="#6E0C54" transform="translate(31,274)"/>
<path d="M0 0 C1.25664978 2.90600261 2 4.79604584 2 8 C-2.0527516 8.98248524 -5.83861737 9.08159574 -10 9 C-10.33 7.35 -10.66 5.7 -11 4 C-7.20307814 1.17438373 -4.81430721 -0.56638908 0 0 Z " fill="#FD295C" transform="translate(405,200)"/>
<path d="M0 0 C0.99 0 1.98 0 3 0 C3 0.99 3 1.98 3 3 C2.34 3 1.68 3 1 3 C2.07401108 5.91517292 2.77810176 7.77810176 5 10 C5 11.32 5 12.64 5 14 C4.34 14 3.68 14 3 14 C3.33 15.98 3.66 17.96 4 20 C-1.75 19.25 -1.75 19.25 -4 17 C-3.625 14.875 -3.625 14.875 -3 13 C-1.35 12.67 0.3 12.34 2 12 C1.34 11.46375 0.68 10.9275 0 10.375 C-2 8 -2 8 -2.375 4.875 C-2 2 -2 2 0 0 Z " fill="#E0255C" transform="translate(73,205)"/>
<path d="M0 0 C0.99 0.33 1.98 0.66 3 1 C2.09183886 8.50015835 0.07440186 14.28829174 -5 20 C-9.6692607 23.17509728 -9.6692607 23.17509728 -13.375 22.6875 C-13.91125 22.460625 -14.4475 22.23375 -15 22 C-15 21.34 -15 20.68 -15 20 C-13.30729167 19.34895833 -11.61458333 18.69791667 -9.921875 18.046875 C-6.12409772 15.97816705 -4.31185103 13.79695264 -2.734375 9.765625 C-2.40953125 8.60546875 -2.0846875 7.4453125 -1.75 6.25 C-1.24726562 4.49429687 -1.24726562 4.49429687 -0.734375 2.703125 C-0.49203125 1.81109375 -0.2496875 0.9190625 0 0 Z " fill="#3C0453" transform="translate(110,361)"/>
<path d="M0 0 C4.29 0 8.58 0 13 0 C12.125 6.875 12.125 6.875 11 8 C7.6875 7.9375 7.6875 7.9375 4 7 C0 2.07692308 0 2.07692308 0 0 Z " fill="#F8275B" transform="translate(402,251)"/>
<path d="M0 0 C2.64570942 2.64570942 2.94636836 4.64469037 3.5 8.3125 C2.94322591 12.41870892 2.50252591 12.88293159 -0.5 15.4375 C-1.65123833 16.31234976 -2.81346106 17.17366038 -4 18 C-4.66 17.67 -5.32 17.34 -6 17 C-4.02 11.39 -2.04 5.78 0 0 Z " fill="#CF2D5B" transform="translate(447,341)"/>
<path d="M0 0 C0.33 0.99 0.66 1.98 1 3 C-3.31945031 7.175031 -6.85457987 10.08956739 -13 11 C-15.875 10.4375 -15.875 10.4375 -18 9 C-18.8125 6.375 -18.8125 6.375 -19 4 C-18.01 4.33 -17.02 4.66 -16 5 C-16 5.66 -16 6.32 -16 7 C-10.97306969 7.41276847 -8.62149099 6.52437156 -4.625 3.5 C-3.75101563 2.8503125 -2.87703125 2.200625 -1.9765625 1.53125 C-1.32429688 1.0259375 -0.67203125 0.520625 0 0 Z " fill="#2F0253" transform="translate(88,294)"/>
<path d="M0 0 C7.64137034 2.29119238 13.29643364 4.29643364 19 10 C16.04335481 11.4783226 13.25770263 11.06032783 10 11 C10.020625 10.2575 10.04125 9.515 10.0625 8.75 C9.27865926 5.87605673 9.27865926 5.87605673 6.9296875 4.77734375 C4.6411023 3.77653611 2.34873985 2.84934229 0 2 C0 1.34 0 0.68 0 0 Z " fill="#EF2559" transform="translate(68,224)"/>
<path d="M0 0 C0.99 0 1.98 0 3 0 C3 0.99 3 1.98 3 3 C2.34 3 1.68 3 1 3 C2.19899698 6.0831351 3.47700477 9.06279492 5 12 C2.08482708 10.92598892 0.22189824 10.22189824 -2 8 C-2.25 5 -2.25 5 -2 2 C-1.34 1.34 -0.68 0.68 0 0 Z " fill="#270052" transform="translate(73,205)"/>
<path d="M0 0 C3.06261493 1.02087164 4.05779403 1.52810149 6 4 C6.33 5.65 6.66 7.3 7 9 C4.03 7.35 1.06 5.7 -2 4 C-1.34 2.68 -0.68 1.36 0 0 Z " fill="#F93263" transform="translate(105,211)"/>
<path d="M0 0 C-0.0721875 0.68707031 -0.144375 1.37414062 -0.21875 2.08203125 C-0.3115625 2.98308594 -0.404375 3.88414062 -0.5 4.8125 C-0.5928125 5.70582031 -0.685625 6.59914063 -0.78125 7.51953125 C-1.04392401 10.08305099 -1.04392401 10.08305099 -1 13 C-3.36089842 11.15234037 -4.00382455 9.98716045 -4.875 7.0625 C-5 4 -5 4 -3.6875 1.625 C-2 0 -2 0 0 0 Z " fill="#380354" transform="translate(31,274)"/>
<path d="M0 0 C2.76276177 0.52268466 5.3260876 1.10869587 8 2 C8 2.66 8 3.32 8 4 C5.1875 4.625 5.1875 4.625 2 5 C1.01 4.34 0.02 3.68 -1 3 C-0.67 2.01 -0.34 1.02 0 0 Z " fill="#EC255C" transform="translate(89,235)"/>
<path d="M0 0 C0.66 0 1.32 0 2 0 C2.309375 0.8971875 2.309375 0.8971875 2.625 1.8125 C4.50926082 4.81018767 6.81132084 5.61361776 10 7 C8.375 7.6875 8.375 7.6875 6 8 C2.75 6.5625 2.75 6.5625 0 5 C0 3.35 0 1.7 0 0 Z " fill="#2D0153" transform="translate(67,219)"/>
<path d="M0 0 C0.66 0 1.32 0 2 0 C2.2475 0.78375 2.495 1.5675 2.75 2.375 C4.15389099 5.32317108 5.00675737 5.9024777 8 7 C2.375 7.25 2.375 7.25 -1 5 C-0.67 3.35 -0.34 1.7 0 0 Z " fill="#2D0153" transform="translate(75,230)"/>
<path d="M0 0 C0 0.66 0 1.32 0 2 C-2.22890995 3.11445498 -3.53055106 3.16480286 -6 3.1875 C-7.051875 3.20876953 -7.051875 3.20876953 -8.125 3.23046875 C-10 3 -10 3 -12 1 C-7.915021 0.45533613 -4.1274515 0 0 0 Z " fill="#2A0052" transform="translate(48,287)"/>
<path d="M0 0 C-2.6855594 2.6855594 -5.37621328 3.06049974 -9 4 C-9 3.01 -9 2.02 -9 1 C-3.375 -1.125 -3.375 -1.125 0 0 Z " fill="#440E59" transform="translate(465,334)"/>
<path d="M0 0 C2.31 0.66 4.62 1.32 7 2 C7 2.66 7 3.32 7 4 C5.02 4 3.04 4 1 4 C0.67 2.68 0.34 1.36 0 0 Z " fill="#380353" transform="translate(88,238)"/>
<path d="M0 0 C0 0.99 0 1.98 0 3 C-1.65 3.33 -3.3 3.66 -5 4 C-5.33 3.01 -5.66 2.02 -6 1 C-3.92446352 0.4465236 -2.15634036 0 0 0 Z " fill="#320252" transform="translate(101,380)"/>
<path d="M0 0 C4 4.625 4 4.625 4 8 C2.68 7.34 1.36 6.68 0 6 C0 4.02 0 2.04 0 0 Z " fill="#410553" transform="translate(73,209)"/>
</svg>
