<?xml version="1.0" encoding="UTF-8"?>
<svg version="1.1" xmlns="http://www.w3.org/2000/svg" width="512" height="512">
<path d="M0 0 C0.67240723 0.20898926 1.34481445 0.41797852 2.03759766 0.63330078 C24.1430216 7.68148348 43.59210592 20.90390843 57 40 C57.8353125 39.01 57.8353125 39.01 58.6875 38 C61 36 61 36 63.625 35.625 C66 36 66 36 68 38 C68.5775 37.0925 69.155 36.185 69.75 35.25 C73.41176471 29.96078431 73.41176471 29.96078431 76 28 C78.625 28 78.625 28 81 29 C82.1484375 31.0625 82.1484375 31.0625 83 33 C83.43570312 32.57847656 83.87140625 32.15695313 84.3203125 31.72265625 C88.07249638 28.27097195 90.6694858 26.126917 96 26 C97 27 97 27 97.0625 30.4375 C97.041875 31.613125 97.02125 32.78875 97 34 C97 34.66 97 35.32 97 36 C98.485 35.505 98.485 35.505 100 35 C106.17037037 34.55925926 106.17037037 34.55925926 109 36.0625 C110.65795299 39.27478392 109.88310098 41.58534286 109 45 C106.9375 47.9375 106.9375 47.9375 105 50 C105.928125 49.95875 106.85625 49.9175 107.8125 49.875 C111 50 111 50 114 52 C115 55.3125 115 55.3125 115 59 C111.39258073 64.47332578 106.05161062 65.55466387 100 67 C100.680625 67.53625 101.36125 68.0725 102.0625 68.625 C104 71 104 71 103.9375 74.125 C103 77 103 77 100 79 C93.97809337 79.89861785 89.34260484 78.72813864 84 76 C84.0928125 77.3921875 84.0928125 77.3921875 84.1875 78.8125 C84 82 84 82 82.48828125 83.69921875 C81.99714844 84.12847656 81.50601562 84.55773437 81 85 C81.77085937 84.97679687 82.54171875 84.95359375 83.3359375 84.9296875 C84.84027344 84.90261719 84.84027344 84.90261719 86.375 84.875 C87.37273437 84.85179687 88.37046875 84.82859375 89.3984375 84.8046875 C92 85 92 85 94 87 C94.625 89.625 94.625 89.625 95 92 C95.99580078 91.38511719 95.99580078 91.38511719 97.01171875 90.7578125 C97.89472656 90.21898437 98.77773438 89.68015625 99.6875 89.125 C100.55761719 88.59132813 101.42773438 88.05765625 102.32421875 87.5078125 C107.8651293 84.38548918 111.71366522 83.58778133 118 84 C118.66 84.66 119.32 85.32 120 86 C119.9765625 88.1640625 119.9765625 88.1640625 119.625 90.625 C119.51414062 91.44226563 119.40328125 92.25953125 119.2890625 93.1015625 C119.19367188 93.72804688 119.09828125 94.35453125 119 95 C119.57105469 94.71125 120.14210938 94.4225 120.73046875 94.125 C127.7755848 90.89925529 134.28626128 90.06959112 142 91 C142.99 91.66 143.98 92.32 145 93 C144.8794926 99.14587738 144.8794926 99.14587738 142.375 101.578125 C140.62212283 102.80796624 138.86259544 103.94469135 137 105 C137.85722656 105.09796875 138.71445312 105.1959375 139.59765625 105.296875 C152.17373264 106.9415479 152.17373264 106.9415479 157 111 C158.1875 114.5 158.1875 114.5 158 118 C155.11511666 122.8081389 149.04191973 124.19106697 144 126 C144.61488281 126.39832031 145.22976563 126.79664063 145.86328125 127.20703125 C146.67152344 127.73683594 147.47976563 128.26664063 148.3125 128.8125 C149.11300781 129.33457031 149.91351563 129.85664063 150.73828125 130.39453125 C155.82729375 134.00693909 155.82729375 134.00693909 156.5 137.875 C155.83358029 142.04012318 154.25631919 143.4097461 151 146 C143.94825737 149.161126 135.83999697 146.3447947 129 144 C128.01 143.67 127.02 143.34 126 143 C126.804375 144.794375 126.804375 144.794375 127.625 146.625 C128.8321926 149.82717757 129.03497203 150.83149841 128.3125 154.3125 C127 157 127 157 125 160 C125.3609375 160.55429687 125.721875 161.10859375 126.09375 161.6796875 C126.5578125 162.40414062 127.021875 163.12859375 127.5 163.875 C127.9640625 164.59429687 128.428125 165.31359375 128.90625 166.0546875 C130 168 130 168 130 170 C131.11375 169.34 132.2275 168.68 133.375 168 C136.75 166 136.75 166 139 166 C138.2265625 164.6696875 138.2265625 164.6696875 137.4375 163.3125 C135.9131063 159.79976669 135.85052105 158.55293493 137 155 C140.16115776 156.36983503 140.9927092 156.9890638 143 160 C143.66 160 144.32 160 145 160 C151.46366323 153.29952152 156.48899459 145.42026224 161.578125 137.671875 C163.77471433 134.3298464 166.01072277 131.02094659 168.3125 127.75 C168.90675781 126.89921875 169.50101562 126.0484375 170.11328125 125.171875 C173.31385986 121.48756505 175.97745104 120.11734168 180.8125 119.5625 C186.69516121 119.80714754 191.26157412 122.26157412 195.375 126.375 C199.96910527 133.79624698 200.01960089 141.75357261 198.3828125 150.17578125 C192.70677219 170.74514856 177.70578879 188.52828403 160 200 C160.30744141 201.55847656 160.30744141 201.55847656 160.62109375 203.1484375 C162.09708252 210.74809307 163.46070349 218.26388458 164 226 C170.5037029 225.58040626 176.55764668 224.44812846 182.875 222.9375 C199.88554195 218.98475524 199.88554195 218.98475524 207.0625 222.5 C210.64837003 227.12692907 212.33769769 231.59853844 212.0625 237.5 C211.22010188 242.76272376 208.56359558 246.16729995 205 250 C204.52949219 250.52335938 204.05898438 251.04671875 203.57421875 251.5859375 C193.92898751 261.00686104 175.27537942 267.56190243 161.9765625 268.12890625 C160.99816406 268.06509766 160.99816406 268.06509766 160 268 C159.67 270.64 159.34 273.28 159 276 C157.35 275.67 155.7 275.34 154 275 C154 273.35 154 271.7 154 270 C150.7 270.33 147.4 270.66 144 271 C143.67 273.64 143.34 276.28 143 279 C141.35 278.67 139.7 278.34 138 278 C138 276.02 138 274.04 138 272 C135.36 272.33 132.72 272.66 130 273 C129.34 275.97 128.68 278.94 128 282 C126.68 282.33 125.36 282.66 124 283 C123.67 282.67 123.34 282.34 123 282 C123.08937803 280.47480724 123.24537146 278.95318071 123.4375 277.4375 C123.53933594 276.61121094 123.64117187 275.78492188 123.74609375 274.93359375 C123.82988281 274.29550781 123.91367187 273.65742188 124 273 C122.78828125 272.96261719 121.5765625 272.92523438 120.328125 272.88671875 C99.33666878 272.11850637 79.94496662 268.64832221 60 262 C60.48412354 263.35194458 60.48412354 263.35194458 60.97802734 264.73120117 C62.19372686 268.13595588 63.39387851 271.54603243 64.58984375 274.95776367 C65.10559666 276.42243138 65.6253336 277.88570345 66.14941406 279.34741211 C66.91010663 281.47137652 67.65542466 283.60026398 68.3984375 285.73046875 C68.6287265 286.36333298 68.8590155 286.9961972 69.09628296 287.64823914 C71.34228263 294.17652039 71.89888007 299.84272043 73 307 C9.64 307 -53.72 307 -119 307 C-119 301.65312192 -118.96669337 296.66566555 -118.54296875 291.39453125 C-117.8798159 281.85679796 -117.52732026 272.32380192 -117.37524414 262.7644043 C-117.33322218 260.70369294 -117.27151371 258.64329409 -117.19067383 256.58374023 C-116.21226291 244.49435592 -116.21226291 244.49435592 -120.09912109 233.46337891 C-123.97325565 229.49722557 -128.23138206 226.77771593 -133 224 C-133.09796875 224.79664063 -133.1959375 225.59328125 -133.296875 226.4140625 C-134.86240867 237.50775798 -134.86240867 237.50775798 -139 242 C-141.75 243.375 -141.75 243.375 -144 244 C-144 243.34 -144 242.68 -144 242 C-144.61875 241.87625 -145.2375 241.7525 -145.875 241.625 C-148 241 -148 241 -150 239 C-150.09796875 239.92941406 -150.1959375 240.85882813 -150.296875 241.81640625 C-152.10660487 256.77787989 -152.10660487 256.77787989 -157.8125 261.5 C-161.08711837 262.2484842 -163.74560417 261.71005 -167 261 C-170.3566285 258.76224766 -170.57996014 258.06679952 -171.6875 254.375 C-171.93886719 253.55773437 -172.19023437 252.74046875 -172.44921875 251.8984375 C-172.63097656 251.27195312 -172.81273437 250.64546875 -173 250 C-173.515625 250.86625 -174.03125 251.7325 -174.5625 252.625 C-177.49673114 256.95942565 -181.01784575 261.2009289 -186.23046875 262.59765625 C-188.4375 262.875 -188.4375 262.875 -192 263 C-192 263.99 -192 264.98 -192 266 C-191.175 266.5775 -190.35 267.155 -189.5 267.75 C-187 270 -187 270 -186.5625 273.5625 C-187 277 -187 277 -189 280 C-189.66 280 -190.32 280 -191 280 C-190.7525 280.7734375 -190.7525 280.7734375 -190.5 281.5625 C-189.59000209 285.99873982 -189.58890048 289.74100771 -191 294.0625 C-196.00331214 301.41111471 -202.26380954 303.87248559 -210.82421875 305.53125 C-218.30686004 306.6356989 -225.1575205 306.63989041 -232 303 C-237.29562325 298.62092692 -239.53838756 293.66648212 -240.21484375 286.828125 C-241.2837892 260.66034044 -224.70825023 228.03490863 -209 208 C-207.86691406 206.48599609 -207.86691406 206.48599609 -206.7109375 204.94140625 C-199.97219877 196.32591781 -191.17789266 187.4622288 -181 183 C-181.33 181.68 -181.66 180.36 -182 179 C-183.0828125 180.3921875 -183.0828125 180.3921875 -184.1875 181.8125 C-187.38544686 185.61230764 -190.06506972 187.76780837 -195.125 188.375 C-198 188 -198 188 -199.9375 187 C-201.71298137 183.65791742 -200.65852695 180.65183129 -200 177 C-200.639375 177.33 -201.27875 177.66 -201.9375 178 C-206.84292717 179.60177214 -211.73956039 179.93725545 -216.5625 177.9375 C-218.8195184 174.89543172 -218.51501365 172.66947222 -218 169 C-216.125 166.5625 -216.125 166.5625 -214 165 C-213.34 165 -212.68 165 -212 165 C-213.61628121 161.76743757 -216.76993715 161.32663296 -220 160 C-220.33 159.67 -220.66 159.34 -221 159 C-220.875 155.625 -220.875 155.625 -220 152 C-216.63932733 149.11942343 -213.33319809 148.50386024 -209 148 C-209.825 147.443125 -210.65 146.88625 -211.5 146.3125 C-214 144 -214 144 -214.3125 141.25 C-214.209375 140.5075 -214.10625 139.765 -214 139 C-211.20731171 137.0218458 -209.22222879 136.9132512 -205.9375 137.3125 C-202 138 -202 138 -199 139 C-199.020625 138.030625 -199.04125 137.06125 -199.0625 136.0625 C-199 133 -199 133 -198 132 C-192.00336667 132.30491356 -188.73163008 133.33298669 -184 137 C-182.515 134.525 -182.515 134.525 -181 132 C-176.94393835 132.46800711 -173.53411321 132.87953208 -170 135 C-170 133.02 -170 131.04 -170 129 C-170.33 129.33 -170.66 129.66 -171 130 C-173.375 130.25 -173.375 130.25 -176 130 C-177.8125 128.5 -177.8125 128.5 -179 127 C-180.093125 127.37125 -181.18625 127.7425 -182.3125 128.125 C-184.1378125 128.558125 -184.1378125 128.558125 -186 129 C-186.99 128.34 -187.98 127.68 -189 127 C-189.1875 124.375 -189.1875 124.375 -189 122 C-190.670625 121.62875 -190.670625 121.62875 -192.375 121.25 C-196 120 -196 120 -197.4375 117.875 C-197.7159375 116.946875 -197.7159375 116.946875 -198 116 C-196.68 114.35 -195.36 112.7 -194 111 C-194.99 110.01 -194.99 110.01 -196 109 C-196.125 105.875 -196.125 105.875 -196 103 C-190.25 101.875 -190.25 101.875 -188 103 C-188.33 101.02 -188.66 99.04 -189 97 C-182.125 97.875 -182.125 97.875 -181 99 C-180.67 98.34 -180.34 97.68 -180 97 C-175.77638438 96.64803203 -174.27796999 97.46221678 -171 100 C-169.68 100 -168.36 100 -167 100 C-166.86464844 99.33097656 -166.72929687 98.66195312 -166.58984375 97.97265625 C-162.24399186 78.58547267 -153.00806883 60.96681279 -140 46 C-139.29101562 45.16984375 -138.58203125 44.3396875 -137.8515625 43.484375 C-105.48268784 6.45892539 -48.16984479 -15.44891803 0 0 Z M105 154 C104.72027344 154.70382812 104.44054687 155.40765625 104.15234375 156.1328125 C100.83198846 164.31092232 97.0269457 172.15499916 93 180 C95.81403301 179.71949194 98.62567253 179.42618696 101.4375 179.125 C102.23994141 179.04636719 103.04238281 178.96773437 103.86914062 178.88671875 C105.92170994 178.66154237 107.96293009 178.33777413 110 178 C110.33 177.34 110.66 176.68 111 176 C109.77037887 173.61770155 109.77037887 173.61770155 108.0625 171.0625 C105 166.32574032 105 166.32574032 105 163 C106.765625 163.12109375 106.765625 163.12109375 109 164 C110.921875 166.72265625 110.921875 166.72265625 112.75 170.0625 C113.36359375 171.16722656 113.9771875 172.27195312 114.609375 173.41015625 C115.06828125 174.26480469 115.5271875 175.11945313 116 176 C117.48117801 175.71872579 118.95993249 175.42466268 120.4375 175.125 C121.67306641 174.88136719 121.67306641 174.88136719 122.93359375 174.6328125 C123.61550781 174.42398438 124.29742187 174.21515625 125 174 C126.33023256 171.92751647 126.33023256 171.92751647 125.1015625 169.28515625 C122.49575484 163.12813493 122.49575484 163.12813493 117.8046875 158.6484375 C115.54797198 157.95229814 113.31270984 157.46996243 111 157 C108.97918076 156.04276983 106.96879323 155.06011943 105 154 Z M-163 172 C-164.32 173.32 -165.64 174.64 -167 176 C-166.01 176.33 -165.02 176.66 -164 177 C-163.01 176.34 -162.02 175.68 -161 175 C-161.66 174.01 -162.32 173.02 -163 172 Z M148.875 205.5 C148.15054687 205.9640625 147.42609375 206.428125 146.6796875 206.90625 C146.12539063 207.2671875 145.57109375 207.628125 145 208 C145.6258645 215.00435592 146.28674095 222.00399099 147 229 C148.85625 229.0309375 148.85625 229.0309375 150.75 229.0625 C151.79414063 229.07990234 151.79414063 229.07990234 152.859375 229.09765625 C155.03645901 228.99833672 156.89974195 228.55583752 159 228 C158.71599915 225.14488509 158.42304348 222.2911551 158.125 219.4375 C158.04636719 218.63763672 157.96773438 217.83777344 157.88671875 217.01367188 C157.36862582 212.13164237 156.49454158 207.67829193 155 203 C152.32449708 203 151.10955359 204.05835252 148.875 205.5 Z M139 210 C136.03 211.32 133.06 212.64 130 214 C130.14183696 215.75032844 130.28863429 217.50025534 130.4375 219.25 C130.51871094 220.22453125 130.59992188 221.1990625 130.68359375 222.203125 C130.96346926 225.22771622 130.96346926 225.22771622 132 229 C135.63 229 139.26 229 143 229 C142.71815415 226.39442509 142.42497289 223.79099602 142.125 221.1875 C142.04636719 220.44951172 141.96773438 219.71152344 141.88671875 218.95117188 C141.45539714 215.28493819 141.0803217 213.12048255 139 210 Z M124 215 C122.906875 215.26554688 121.81375 215.53109375 120.6875 215.8046875 C107.52833782 218.85683999 94.46690103 220.14934968 81 221 C81.33 221.66 81.66 222.32 82 223 C84.46344954 223.73911384 84.46344954 223.73911384 87.46875 224.25390625 C88.59796875 224.46853516 89.7271875 224.68316406 90.890625 224.90429688 C92.08171875 225.12150391 93.2728125 225.33871094 94.5 225.5625 C95.66015625 225.78357422 96.8203125 226.00464844 98.015625 226.23242188 C106.16922317 227.75891565 114.24346612 229.17966949 122.5625 229.0625 C123.40941406 229.05347656 124.25632812 229.04445313 125.12890625 229.03515625 C125.74636719 229.02355469 126.36382812 229.01195312 127 229 C126.88512252 227.41590006 126.75765492 225.83271037 126.625 224.25 C126.52058594 222.92742187 126.52058594 222.92742187 126.4140625 221.578125 C126.00149945 219.00933618 125.28839043 217.24158985 124 215 Z " fill="#FEAFC2" transform="translate(253,171)"/>
<path d="M0 0 C1.91015625 1.8984375 1.91015625 1.8984375 3 4 C3 4.66 3 5.32 3 6 C3.63359436 6.25089386 4.26718872 6.50178772 4.91998291 6.76028442 C7 8 7 8 7.82269287 9.73214722 C7.97369446 10.42623688 8.12469604 11.12032654 8.28027344 11.83544922 C8.5501004 13.01710159 8.5501004 13.01710159 8.82537842 14.22262573 C9.00159729 15.07470612 9.17781616 15.9267865 9.359375 16.8046875 C9.55347961 17.68021271 9.74758423 18.55573792 9.9475708 19.45779419 C10.35522804 21.31048354 10.75482561 23.1649619 11.14697266 25.02099609 C11.74689119 27.86028663 12.36912469 30.69391642 12.99609375 33.52734375 C13.38933187 35.32783916 13.78130128 37.12861223 14.171875 38.9296875 C14.3561908 39.77771942 14.54050659 40.62575134 14.73040771 41.4994812 C14.89768372 42.29355377 15.06495972 43.08762634 15.23730469 43.90576172 C15.3851239 44.60144257 15.53294312 45.29712341 15.6852417 46.0138855 C16 48 16 48 16 52 C17.84464844 51.45859375 17.84464844 51.45859375 19.7265625 50.90625 C21.35925587 50.43708524 22.9920751 49.9683583 24.625 49.5 C25.43324219 49.26152344 26.24148438 49.02304688 27.07421875 48.77734375 C35.69736436 46.32360313 35.69736436 46.32360313 40 47 C42.30078125 48.828125 42.30078125 48.828125 44.3125 51.25 C44.98925781 52.03890625 45.66601562 52.8278125 46.36328125 53.640625 C47.90457564 55.86244316 48.58224199 57.36025371 49 60 C49.57363281 59.7834375 50.14726562 59.566875 50.73828125 59.34375 C64.1436045 54.94989594 80.06296473 55.30338184 93 61 C106.49748971 68.33829038 116.4437432 79.62367123 122 94 C123.54854484 99.32218325 124.29242594 104.44390717 124 110 C125.093125 109.938125 126.18625 109.87625 127.3125 109.8125 C131 110 131 110 132.9375 111.3125 C134 113 134 113 134 116 C134.62824173 116.08568741 135.25648346 116.17137482 135.90376282 116.25965881 C138 117 138 117 138.92985535 118.66331482 C139.23177544 119.74347618 139.23177544 119.74347618 139.53979492 120.84545898 C139.77651413 121.6597789 140.01323334 122.47409882 140.25712585 123.31309509 C140.49582901 124.19848465 140.73453217 125.08387421 140.98046875 125.99609375 C141.23878983 126.8999733 141.4971109 127.80385284 141.76325989 128.73512268 C142.58747616 131.63163453 143.38794211 134.53409493 144.1875 137.4375 C145.00290815 140.33568941 145.82300578 143.23251897 146.64387512 146.12916565 C147.15347215 147.93421656 147.65886563 149.74046036 148.15971375 151.54795837 C148.38697647 152.36543045 148.6142392 153.18290253 148.84838867 154.02514648 C149.04728195 154.74604965 149.24617523 155.46695282 149.45109558 156.20970154 C149.96967148 158.07716297 149.96967148 158.07716297 151 160 C152.01320313 159.65066406 153.02640625 159.30132812 154.0703125 158.94140625 C155.42179229 158.48152771 156.77335947 158.02190591 158.125 157.5625 C159.12273437 157.21735352 159.12273437 157.21735352 160.140625 156.86523438 C170.39320232 153.39745087 170.39320232 153.39745087 174.5 154.9375 C183.86999085 162.66774245 188.88520958 175.28473244 191 187 C191.20679793 190.35372298 191.19639702 193.64670275 191 197 C182.03095493 201.37676137 172.8101772 204.42081568 163.25 207.25 C162.10233154 207.59095703 160.95466309 207.93191406 159.7722168 208.28320312 C134.14996943 215.72699227 134.14996943 215.72699227 123.625 211.75 C114.70530753 206.15510002 111.9665868 191.63885502 108.95751953 182.06274414 C108.24668212 179.80194758 107.5210505 177.54631111 106.79296875 175.29101562 C104.5387188 168.25475087 102.41455928 161.26195259 101 154 C99.17708333 154.9765625 97.35416667 155.953125 95.53125 156.9296875 C89.3902251 159.52635544 83.41338055 160.3903491 76.8125 160.375 C76.07636475 160.37338867 75.34022949 160.37177734 74.58178711 160.37011719 C67.58587121 160.21551131 61.51838774 158.51510555 55 156 C53.66001953 155.54947266 53.66001953 155.54947266 52.29296875 155.08984375 C40.65511467 150.96028262 31.0131413 142.0388438 25.1875 131.1875 C20.65345977 121.26162815 19.52816567 111.83471419 20 101 C18.58460938 101.2165625 18.58460938 101.2165625 17.140625 101.4375 C-6.03957419 104.7888541 -6.03957419 104.7888541 -13.95776367 100.54125977 C-20.29568777 95.75807808 -22.33120112 85.51861209 -24.3125 78.1875 C-24.59955811 77.14577637 -24.88661621 76.10405273 -25.18237305 75.03076172 C-39.62663313 21.1153264 -39.62663313 21.1153264 -38 10 C-34.22184034 4.16102599 -25.68514561 2.25790541 -19.25 0.75 C-12.98678796 -0.3453153 -6.29678755 -0.96621707 0 0 Z M-33 12 C-34.27084888 20.83893017 -30.28883603 31.88950043 -28.375 40.5625 C-28.11055084 41.77498413 -28.11055084 41.77498413 -27.84075928 43.01196289 C-22.81551356 67.4257142 -22.81551356 67.4257142 -15 91 C-13.86316896 87.58950687 -14.14846124 86.73711783 -15.15234375 83.390625 C-15.43070068 82.42697021 -15.70905762 81.46331543 -15.99584961 80.47045898 C-16.30659424 79.40770752 -16.61733887 78.34495605 -16.9375 77.25 C-20.26245656 65.40746596 -22.94767571 53.48060595 -25.4375 41.4375 C-25.61634735 40.58893433 -25.7951947 39.74036865 -25.97946167 38.86608887 C-26.49511006 36.41137809 -26.99770649 33.95436081 -27.49609375 31.49609375 C-27.64888794 30.77189743 -27.80168213 30.04770111 -27.95910645 29.30155945 C-28.98160323 24.12948467 -29.12485556 19.27214775 -29 14 C-23.05730015 10.72601258 -17.6477978 8.99582386 -11 7.75 C-10.12988281 7.57726563 -9.25976562 7.40453125 -8.36328125 7.2265625 C-6.2441998 6.80740353 -4.12236145 6.40222173 -2 6 C-2 5.67 -2 5.34 -2 5 C-11.69830302 4.34983443 -25.52903205 4.86834444 -33 12 Z M25.75 54 C24.63238281 54.28617188 24.63238281 54.28617188 23.4921875 54.578125 C21.66036095 55.04782412 19.830028 55.52334154 18 56 C18 56.66 18 57.32 18 58 C25.30696249 57.54034292 31.99757448 56.11670277 39 54 C38.67 53.34 38.34 52.68 38 52 C33.66069204 52 29.90801824 52.91274435 25.75 54 Z M52 65 C52 65.99 52 66.98 52 68 C52.67546875 67.79503906 53.3509375 67.59007813 54.046875 67.37890625 C55.38492188 66.97478516 55.38492188 66.97478516 56.75 66.5625 C58.07257813 66.16224609 58.07257813 66.16224609 59.421875 65.75390625 C60.27265625 65.50511719 61.1234375 65.25632812 62 65 C62.61875 64.814375 63.2375 64.62875 63.875 64.4375 C66.98380596 63.79745171 70.08486967 63.64264734 73.25 63.4375 C74.51328125 63.35371094 75.7765625 63.26992187 77.078125 63.18359375 C78.04234375 63.12300781 79.0065625 63.06242187 80 63 C80 62.67 80 62.34 80 62 C76.83351345 61.91179073 73.66734908 61.8592095 70.5 61.8125 C69.1696875 61.77479492 69.1696875 61.77479492 67.8125 61.73632812 C61.81673298 61.67019834 57.48495762 62.55868125 52 65 Z M-14 91 C-13 93 -13 93 -13 93 Z M26 98 C23.73538305 100.26461695 24.75350365 106.10231675 24.74023438 109.26538086 C24.80548852 115.22923305 25.71076674 120.4540599 28 126 C28.33 126 28.66 126 29 126 C29 116.76 29 107.52 29 98 C28.01 98 27.02 98 26 98 Z M64.625 106.875 C63.67073215 110.1195107 64.26379006 112.74840612 65 116 C68.13871188 117.56935594 70.53855822 117.35201103 74 117 C76.63016161 114.8272578 78.47336894 113.05326212 80 110 C80.28362182 106.73834906 80.28618906 104.60417691 78.875 101.625 C77.03686866 99.75963156 77.03686866 99.75963156 74.125 99.4375 C69.3479413 100.29737057 67.39817651 103.09339567 64.625 106.875 Z M84 104 C83.96261719 104.59167969 83.92523438 105.18335938 83.88671875 105.79296875 C83.16877686 114.4223487 83.16877686 114.4223487 80 118 C77.41896965 119.55065855 74.76915946 120.82261391 72 122 C72 122.33 72 122.66 72 123 C78.20544629 123.56890395 78.20544629 123.56890395 83.4375 120.625 C86.60769331 117.3774849 87.16335103 115.95993515 87.25 111.5625 C87.27578125 110.78003906 87.3015625 109.99757813 87.328125 109.19140625 C86.92823089 106.52068491 86.05300878 105.68022561 84 104 Z M124 115 C124 115.66 124 116.32 124 117 C125.65 116.67 127.3 116.34 129 116 C129 115.67 129 115.34 129 115 C127.35 115 125.7 115 124 115 Z M29 126 C30 128 30 128 30 128 Z M105 150 C107.78066099 161.85870127 111.22440556 173.4215104 115 185 C116.41469742 181.19835982 115.55380761 178.64651848 114.3828125 174.84375 C114.02316406 173.65652344 113.66351563 172.46929687 113.29296875 171.24609375 C112.90753906 170.00988281 112.52210938 168.77367187 112.125 167.5 C111.37713971 165.05222519 110.62972463 162.6043143 109.8828125 160.15625 C109.54652832 159.07150391 109.21024414 157.98675781 108.86376953 156.86914062 C108.17692709 154.58769 107.5485743 152.3176038 107 150 C106.34 150 105.68 150 105 150 Z M165.8671875 160.3125 C165.06152344 160.58320313 164.25585938 160.85390625 163.42578125 161.1328125 C162.58402344 161.41898438 161.74226562 161.70515625 160.875 162 C160.02550781 162.28617188 159.17601562 162.57234375 158.30078125 162.8671875 C156.19960128 163.57545041 154.09940403 164.2864936 152 165 C152 165.66 152 166.32 152 167 C159.08703739 166.45484328 165.32796106 164.39081395 172 162 C172 161.01 172 160.02 172 159 C169.68144945 159 168.06455433 159.56972811 165.8671875 160.3125 Z M116 185 C117 188 117 188 117 188 Z M117 188 C118 191 118 191 118 191 Z M118 191 C118.33 192.65 118.66 194.3 119 196 C119.33 195.01 119.66 194.02 120 193 C119.34 192.34 118.68 191.68 118 191 Z M120 196 C121 199 121 199 121 199 Z M121 199 C122 201 122 201 122 201 Z " fill="#240959" transform="translate(295,34)"/>
<path d="M0 0 C0.99 0.99 0.99 0.99 2 2 C1.9765625 4.1640625 1.9765625 4.1640625 1.625 6.625 C1.51414062 7.44226563 1.40328125 8.25953125 1.2890625 9.1015625 C1.19367188 9.72804688 1.09828125 10.35453125 1 11 C1.57105469 10.71125 2.14210938 10.4225 2.73046875 10.125 C9.7755848 6.89925529 16.28626128 6.06959112 24 7 C24.99 7.66 25.98 8.32 27 9 C26.8794926 15.14587738 26.8794926 15.14587738 24.375 17.578125 C22.62212283 18.80796624 20.86259544 19.94469135 19 21 C20.28583984 21.14695312 20.28583984 21.14695312 21.59765625 21.296875 C34.17373264 22.9415479 34.17373264 22.9415479 39 27 C40.1875 30.5 40.1875 30.5 40 34 C37.11511666 38.8081389 31.04191973 40.19106697 26 42 C26.61488281 42.39832031 27.22976563 42.79664063 27.86328125 43.20703125 C28.67152344 43.73683594 29.47976563 44.26664062 30.3125 44.8125 C31.11300781 45.33457031 31.91351563 45.85664063 32.73828125 46.39453125 C37.82729375 50.00693909 37.82729375 50.00693909 38.5 53.875 C37.83358029 58.04012318 36.25631919 59.4097461 33 62 C25.94825737 65.161126 17.83999697 62.3447947 11 60 C9.515 59.505 9.515 59.505 8 59 C8.53625 60.19625 9.0725 61.3925 9.625 62.625 C10.8321926 65.82717757 11.03497203 66.83149841 10.3125 70.3125 C9 73 9 73 7 76 C7.3609375 76.55429687 7.721875 77.10859375 8.09375 77.6796875 C8.78984375 78.76636719 8.78984375 78.76636719 9.5 79.875 C10.19609375 80.95394531 10.19609375 80.95394531 10.90625 82.0546875 C12 84 12 84 12 86 C13.670625 85.01 13.670625 85.01 15.375 84 C18.75 82 18.75 82 21 82 C20.2265625 80.6696875 20.2265625 80.6696875 19.4375 79.3125 C17.9131063 75.79976669 17.85052105 74.55293493 19 71 C22.16115776 72.36983503 22.9927092 72.9890638 25 76 C25.66 76 26.32 76 27 76 C33.46366323 69.29952152 38.48899459 61.42026224 43.578125 53.671875 C45.77471433 50.3298464 48.01072277 47.02094659 50.3125 43.75 C50.90675781 42.89921875 51.50101562 42.0484375 52.11328125 41.171875 C55.31385986 37.48756505 57.97745104 36.11734168 62.8125 35.5625 C68.69516121 35.80714754 73.26157412 38.26157412 77.375 42.375 C81.96910527 49.79624698 82.01960089 57.75357261 80.3828125 66.17578125 C74.70677219 86.74514856 59.70578879 104.52828403 42 116 C42.20496094 117.03898437 42.40992188 118.07796875 42.62109375 119.1484375 C44.09708252 126.74809307 45.46070349 134.26388458 46 142 C52.5037029 141.58040626 58.55764668 140.44812846 64.875 138.9375 C81.88554195 134.98475524 81.88554195 134.98475524 89.0625 138.5 C92.64837003 143.12692907 94.33769769 147.59853844 94.0625 153.5 C93.22010188 158.76272376 90.56359558 162.16729995 87 166 C86.52949219 166.52335938 86.05898438 167.04671875 85.57421875 167.5859375 C75.92898751 177.00686104 57.27537942 183.56190243 43.9765625 184.12890625 C43.32429688 184.08636719 42.67203125 184.04382813 42 184 C41.505 187.96 41.505 187.96 41 192 C39.35 191.67 37.7 191.34 36 191 C36 189.35 36 187.7 36 186 C32.7 186.33 29.4 186.66 26 187 C25.505 190.96 25.505 190.96 25 195 C23.35 194.67 21.7 194.34 20 194 C20 192.02 20 190.04 20 188 C17.36 188.33 14.72 188.66 12 189 C11.34 191.97 10.68 194.94 10 198 C8.68 198.33 7.36 198.66 6 199 C5.67 198.67 5.34 198.34 5 198 C5.08937803 196.47480724 5.24537146 194.95318071 5.4375 193.4375 C5.53933594 192.61121094 5.64117187 191.78492188 5.74609375 190.93359375 C5.87177734 189.97646484 5.87177734 189.97646484 6 189 C4.78828125 188.96261719 3.5765625 188.92523438 2.328125 188.88671875 C-18.66333122 188.11850637 -38.05503338 184.64832221 -58 178 C-57.66677734 178.94319092 -57.33355469 179.88638184 -56.99023438 180.8581543 C-55.75238994 184.36844632 -54.52482846 187.88226226 -53.30029297 191.3972168 C-52.76955109 192.91609709 -52.23605002 194.43401624 -51.69970703 195.95092773 C-50.92788567 198.13536833 -50.16615393 200.3231083 -49.40625 202.51171875 C-49.16563843 203.18587326 -48.92502686 203.86002777 -48.67712402 204.55461121 C-47.44017659 208.15088257 -46.71814223 211.19171716 -47 215 C-48.89703369 214.72312927 -48.89703369 214.72312927 -51 214 C-52.29328164 211.19744258 -53.29447566 208.58188068 -54.234375 205.66015625 C-54.65870819 204.40421913 -54.65870819 204.40421913 -55.09161377 203.12290955 C-55.99315299 200.44097869 -56.87133536 197.7520008 -57.75 195.0625 C-58.35663919 193.25277398 -58.96469484 191.4435221 -59.57421875 189.63476562 C-64 176.40323821 -64 176.40323821 -64 174 C-65.32 173.34 -66.64 172.68 -68 172 C-68 171.34 -68 170.68 -68 170 C-63.31903772 170.60030661 -59.27436481 171.97683457 -54.9375 173.75 C-48.44356692 176.29120496 -41.9065909 178.1957929 -35.125 179.8125 C-34.270271 180.01907227 -33.41554199 180.22564453 -32.53491211 180.43847656 C-22.72317316 182.69448455 -12.90846136 183.17278737 -2.875 183.5625 C2.508125 183.7790625 2.508125 183.7790625 8 184 C8.66 172.45 9.32 160.9 10 149 C6.37 149 2.74 149 -1 149 C-4.34707305 148.719966 -7.61668676 148.3919304 -10.9375 147.9375 C-11.8555542 147.81246094 -12.7736084 147.68742188 -13.71948242 147.55859375 C-29.38846571 145.23052659 -45.04474482 141.21288385 -60 136 C-60 135.01 -60 134.02 -60 133 C-58.73615479 133.03927612 -58.73615479 133.03927612 -57.44677734 133.0793457 C-25.47090467 134.66630299 -25.47090467 134.66630299 5 127 C4.4643071 120.55680489 2.82498079 115.13820334 0.5 109.125 C0.17902344 108.27164063 -0.14195312 107.41828125 -0.47265625 106.5390625 C-2.09131384 102.20683882 -2.09131384 102.20683882 -4 98 C-12.77665385 98.61209056 -21.42594127 99.69938234 -30.125 101 C-37.38194927 102.07799677 -44.60571134 103.14780741 -51.921875 103.72949219 C-56.72507697 104.35472102 -60.10407407 105.95878878 -63.3125 109.6875 C-63.869375 110.450625 -64.42625 111.21375 -65 112 C-65.66 112 -66.32 112 -67 112 C-66.74220026 108.21893711 -66.47578037 106.47578037 -63.75 103.75 C-59.36235804 100.95786421 -55.69131497 99.78593704 -50.5078125 99.5 C-39.27530477 99.05541149 -39.27530477 99.05541149 -29.078125 95.07421875 C-27.20134516 92.44414424 -26.10961712 90.03374044 -25 87 C-24.47148437 85.87207031 -23.94296875 84.74414062 -23.3984375 83.58203125 C-17.34378677 70.4253613 -14.98251503 58.45625767 -14.4375 44.0625 C-14.37272461 42.46438477 -14.37272461 42.46438477 -14.30664062 40.83398438 C-14.20125511 38.22276557 -14.09912912 35.61146254 -14 33 C-12.68 33 -11.36 33 -10 33 C-10 40.26 -10 47.52 -10 55 C-7.195 54.5875 -4.39 54.175 -1.5 53.75 C-0.63310547 53.62979492 0.23378906 53.50958984 1.12695312 53.38574219 C6.96620872 52.46723734 13.30632065 51.04135857 17.37890625 46.44311523 C20.55080697 41.47596844 20.55937863 37.39792762 19.6328125 31.76953125 C18.48308555 27.06825048 16.92841313 24.47972898 12.9375 21.6875 C1.57142844 15.0618673 -10.96727387 12.10446832 -24 11 C-22.75268984 7.25806952 -21.59866379 6.87437506 -18.25 4.9375 C-17.38890625 4.43089844 -16.5278125 3.92429687 -15.640625 3.40234375 C-10.06394761 0.44076508 -6.26149813 -0.41059004 0 0 Z M-13 70 C-13.27972656 70.70382812 -13.55945313 71.40765625 -13.84765625 72.1328125 C-17.16801154 80.31092232 -20.9730543 88.15499916 -25 96 C-22.18596699 95.71949194 -19.37432747 95.42618696 -16.5625 95.125 C-15.76005859 95.04636719 -14.95761719 94.96773437 -14.13085938 94.88671875 C-12.07829006 94.66154237 -10.03706991 94.33777413 -8 94 C-7.67 93.34 -7.34 92.68 -7 92 C-8.22962113 89.61770155 -8.22962113 89.61770155 -9.9375 87.0625 C-13 82.32574032 -13 82.32574032 -13 79 C-11.234375 79.12109375 -11.234375 79.12109375 -9 80 C-7.078125 82.72265625 -7.078125 82.72265625 -5.25 86.0625 C-4.63640625 87.16722656 -4.0228125 88.27195312 -3.390625 89.41015625 C-2.93171875 90.26480469 -2.4728125 91.11945313 -2 92 C-0.51882199 91.71872579 0.95993249 91.42466268 2.4375 91.125 C3.67306641 90.88136719 3.67306641 90.88136719 4.93359375 90.6328125 C5.61550781 90.42398438 6.29742187 90.21515625 7 90 C8.33023256 87.92751647 8.33023256 87.92751647 7.1015625 85.28515625 C4.49575484 79.12813493 4.49575484 79.12813493 -0.1953125 74.6484375 C-2.45202802 73.95229814 -4.68729016 73.46996243 -7 73 C-9.02081924 72.04276983 -11.03120677 71.06011943 -13 70 Z M30.875 121.5 C30.15054688 121.9640625 29.42609375 122.428125 28.6796875 122.90625 C28.12539063 123.2671875 27.57109375 123.628125 27 124 C27.6258645 131.00435592 28.28674095 138.00399099 29 145 C30.85625 145.0309375 30.85625 145.0309375 32.75 145.0625 C33.79414063 145.07990234 33.79414063 145.07990234 34.859375 145.09765625 C37.03645901 144.99833672 38.89974195 144.55583752 41 144 C40.71599915 141.14488509 40.42304348 138.2911551 40.125 135.4375 C40.04636719 134.63763672 39.96773437 133.83777344 39.88671875 133.01367188 C39.36862582 128.13164237 38.49454158 123.67829193 37 119 C34.32449708 119 33.10955359 120.05835252 30.875 121.5 Z M21 126 C18.03 127.32 15.06 128.64 12 130 C12.14183696 131.75032844 12.28863429 133.50025534 12.4375 135.25 C12.51871094 136.22453125 12.59992188 137.1990625 12.68359375 138.203125 C12.96346926 141.22771622 12.96346926 141.22771622 14 145 C17.63 145 21.26 145 25 145 C24.71815415 142.39442509 24.42497289 139.79099602 24.125 137.1875 C24.04636719 136.44951172 23.96773437 135.71152344 23.88671875 134.95117188 C23.45539714 131.28493819 23.0803217 129.12048255 21 126 Z M6 131 C4.906875 131.26554688 3.81375 131.53109375 2.6875 131.8046875 C-10.47166218 134.85683999 -23.53309897 136.14934968 -37 137 C-36.67 137.66 -36.34 138.32 -36 139 C-33.53655046 139.73911384 -33.53655046 139.73911384 -30.53125 140.25390625 C-29.40203125 140.46853516 -28.2728125 140.68316406 -27.109375 140.90429688 C-25.91828125 141.12150391 -24.7271875 141.33871094 -23.5 141.5625 C-22.33984375 141.78357422 -21.1796875 142.00464844 -19.984375 142.23242188 C-11.83077683 143.75891565 -3.75653388 145.17966949 4.5625 145.0625 C5.40941406 145.05347656 6.25632812 145.04445313 7.12890625 145.03515625 C7.74636719 145.02355469 8.36382812 145.01195312 9 145 C8.88512252 143.41590006 8.75765492 141.83271037 8.625 140.25 C8.52058594 138.92742187 8.52058594 138.92742187 8.4140625 137.578125 C8.00149945 135.00933618 7.28839043 133.24158985 6 131 Z " fill="#2D0656" transform="translate(371,255)"/>
<path d="M0 0 C9.02550032 6.53003914 15.73652321 16.08154709 18.2421875 27.02734375 C18.92474713 32.47031923 18.68524563 37.98370412 18.546875 43.45703125 C18.01320313 43.61558594 17.47953125 43.77414063 16.9296875 43.9375 C7.01749905 46.88054646 7.01749905 46.88054646 -1.453125 52.45703125 C-1.99499556 60.449622 -0.30529532 67.70658045 1.546875 75.45703125 C0.22116569 76.40528166 -1.11422865 77.33999341 -2.453125 78.26953125 C-3.195625 78.79160156 -3.938125 79.31367188 -4.703125 79.8515625 C-12.05732185 84.14499276 -18.31344815 85.01138458 -26.703125 84.95703125 C-27.72293457 84.95131104 -28.74274414 84.94559082 -29.79345703 84.93969727 C-41.73602094 84.65653093 -50.80141141 80.74825677 -59.453125 72.45703125 C-67.48565925 63.52612146 -69.63188964 54.66002627 -69.578125 42.89453125 C-69.58199219 42.04439453 -69.58585937 41.19425781 -69.58984375 40.31835938 C-69.58791016 39.08569336 -69.58791016 39.08569336 -69.5859375 37.828125 C-69.58480957 37.0848999 -69.58368164 36.3416748 -69.58251953 35.57592773 C-69.45112651 33.42430504 -69.04232079 31.52623771 -68.453125 29.45703125 C-70.433125 29.95203125 -70.433125 29.95203125 -72.453125 30.45703125 C-72.123125 28.80703125 -71.793125 27.15703125 -71.453125 25.45703125 C-69.473125 25.12703125 -67.493125 24.79703125 -65.453125 24.45703125 C-65.123125 23.13703125 -64.793125 21.81703125 -64.453125 20.45703125 C-66.103125 20.78703125 -67.753125 21.11703125 -69.453125 21.45703125 C-66.89863995 12.60756517 -61.0427542 4.69748951 -53.453125 -0.54296875 C-52.793125 -0.54296875 -52.133125 -0.54296875 -51.453125 -0.54296875 C-51.123125 0.77703125 -50.793125 2.09703125 -50.453125 3.45703125 C-49.793125 1.14703125 -49.133125 -1.16296875 -48.453125 -3.54296875 C-47.463125 -3.54296875 -46.473125 -3.54296875 -45.453125 -3.54296875 C-45.453125 -2.55296875 -45.453125 -1.56296875 -45.453125 -0.54296875 C-44.77765625 -0.82011719 -44.1021875 -1.09726563 -43.40625 -1.3828125 C-42.51421875 -1.74503906 -41.6221875 -2.10726562 -40.703125 -2.48046875 C-39.82140625 -2.84011719 -38.9396875 -3.19976562 -38.03125 -3.5703125 C-25.93813781 -8.13271392 -10.87075253 -6.83749562 0 0 Z M-32.828125 38.33203125 C-33.78239285 41.57654195 -33.18933494 44.20543737 -32.453125 47.45703125 C-29.31441312 49.02638719 -26.91456678 48.80904228 -23.453125 48.45703125 C-20.82296339 46.28428905 -18.97975606 44.51029337 -17.453125 41.45703125 C-17.16950318 38.19538031 -17.16693594 36.06120816 -18.578125 33.08203125 C-20.41625634 31.21666281 -20.41625634 31.21666281 -23.328125 30.89453125 C-28.1051837 31.75440182 -30.05494849 34.55042692 -32.828125 38.33203125 Z M-13.453125 35.45703125 C-13.49050781 36.04871094 -13.52789062 36.64039063 -13.56640625 37.25 C-14.28434814 45.87937995 -14.28434814 45.87937995 -17.453125 49.45703125 C-20.03415535 51.0076898 -22.68396554 52.27964516 -25.453125 53.45703125 C-25.453125 53.78703125 -25.453125 54.11703125 -25.453125 54.45703125 C-19.24767871 55.0259352 -19.24767871 55.0259352 -14.015625 52.08203125 C-10.84543169 48.83451615 -10.28977397 47.4169664 -10.203125 43.01953125 C-10.17734375 42.23707031 -10.1515625 41.45460938 -10.125 40.6484375 C-10.52489411 37.97771616 -11.40011622 37.13725686 -13.453125 35.45703125 Z " fill="#00F6F9" transform="translate(392.453125,102.54296875)"/>
<path d="M0 0 C5.99663333 0.30491356 9.26836992 1.33298669 14 5 C14.99 3.35 15.98 1.7 17 0 C22.62541841 0.45003347 25.61487125 1.68441485 30 5 C26.34092418 7.26469654 22.62003161 7.4895019 18.4375 7.875 C9.63052865 8.82908022 1.39023396 10.88176364 -6 16 C-9.13070333 20.81893243 -9.65046743 26.42456485 -9 32 C-6.36054792 35.90638907 -2.39250181 37.58308138 2 39 C4.7434403 39.42565346 7.41477583 39.47648103 10.1875 39.4375 C11.29798706 39.42940308 11.29798706 39.42940308 12.4309082 39.42114258 C20.4784108 39.20086581 27.33941107 36.93012871 34.4375 33.1875 C37.47289389 31.78085405 38.87541156 31.92871254 42 33 C43 34 43 34 43.0625 36.5625 C43.041875 37.366875 43.02125 38.17125 43 39 C42.01 39 41.02 39 40 39 C40 38.01 40 37.02 40 36 C36.91202978 36.6469565 36.91202978 36.6469565 36 38.875 C35.67 39.57625 35.34 40.2775 35 41 C34.02224158 42.02175754 33.02474767 43.02537586 32 44 C32.69480469 43.855625 33.38960938 43.71125 34.10546875 43.5625 C54.19927008 39.89519025 78.11804571 39.99050778 95.63671875 51.7734375 C98.97621597 54.32242572 102.0706049 56.98847233 105 60 C104.67 60.99 104.34 61.98 104 63 C101.14950342 61.67812137 98.86391257 60.17369949 96.4375 58.1875 C80.86408665 46.42856911 60.4276744 44.9851585 41.61132812 47.29296875 C22.22744004 50.50920709 5.50706596 62.71345961 -6.3515625 78.0390625 C-14.87277331 90.07417467 -21.6292699 102.6068166 -27.04785156 116.28857422 C-27.88458983 118.3991897 -28.73797852 120.50250758 -29.59375 122.60546875 C-33.36782979 131.98562471 -36.35828441 140.44254751 -36.3125 150.625 C-36.32861328 151.34945312 -36.34472656 152.07390625 -36.36132812 152.8203125 C-36.3656659 157.60921583 -35.58449071 160.83085805 -33 165 C-28.79141696 168.81402838 -24.92882447 169.23204525 -19.46484375 169.15234375 C-12.53783998 168.72420881 -5.80459643 166.91149064 0 163 C2.85100302 158.72349548 1.96472591 155.13988147 1.6796875 150.12890625 C2.06920096 146.32402475 3.17431043 145.43307908 6 143 C6.23901711 140.87092681 6.23901711 140.87092681 5 139 C2.52066803 137.22851628 2.52066803 137.22851628 0 136 C2.07746523 121.02493815 14.65320984 104.28548872 26 95 C37.0275993 87.30122881 46.36555632 83.81174681 60 85 C71.68607421 87.59690538 79.80578764 96.05040513 86.50390625 105.484375 C87.84502166 107.73940979 88.56286063 109.43704588 89 112 C88.01 112.33 87.02 112.66 86 113 C86.01047363 113.58265625 86.02094727 114.1653125 86.03173828 114.765625 C86.22226485 127.03650058 85.94680711 138.86721998 84 151 C82.68 151 81.36 151 80 151 C80.03330917 150.16887192 80.03330917 150.16887192 80.06729126 149.32095337 C80.28986524 143.5132959 80.43987565 137.70686233 80.54931641 131.89599609 C80.59936948 129.73273459 80.66743831 127.5698074 80.75439453 125.40771484 C81.81331993 112.8725466 81.81331993 112.8725466 77.90527344 101.39746094 C74.03411542 97.44586327 69.75240167 94.77660003 65 92 C64.90203125 92.79664063 64.8040625 93.59328125 64.703125 94.4140625 C63.13759133 105.50775798 63.13759133 105.50775798 59 110 C56.25 111.375 56.25 111.375 54 112 C54 111.34 54 110.68 54 110 C53.38125 109.87625 52.7625 109.7525 52.125 109.625 C50 109 50 109 48 107 C47.90203125 107.92941406 47.8040625 108.85882813 47.703125 109.81640625 C45.89339513 124.77787989 45.89339513 124.77787989 40.1875 129.5 C36.91288163 130.2484842 34.25439583 129.71005 31 129 C27.6433715 126.76224766 27.42003986 126.06679952 26.3125 122.375 C26.06113281 121.55773437 25.80976562 120.74046875 25.55078125 119.8984375 C25.36902344 119.27195312 25.18726562 118.64546875 25 118 C24.484375 118.86625 23.96875 119.7325 23.4375 120.625 C20.50326886 124.95942565 16.98215425 129.2009289 11.76953125 130.59765625 C9.5625 130.875 9.5625 130.875 6 131 C6 131.99 6 132.98 6 134 C6.825 134.5775 7.65 135.155 8.5 135.75 C11 138 11 138 11.4375 141.5625 C11 145 11 145 9 148 C8.34 148 7.68 148 7 148 C7.2475 148.7734375 7.2475 148.7734375 7.5 149.5625 C8.40999791 153.99873982 8.41109952 157.74100771 7 162.0625 C1.99668786 169.41111471 -4.26380954 171.87248559 -12.82421875 173.53125 C-20.30686004 174.6356989 -27.1575205 174.63989041 -34 171 C-39.29562325 166.62092692 -41.53838756 161.66648212 -42.21484375 154.828125 C-43.2837892 128.66034044 -26.70825023 96.03490863 -11 76 C-9.86691406 74.48599609 -9.86691406 74.48599609 -8.7109375 72.94140625 C-1.97219877 64.32591781 6.82210734 55.4622288 17 51 C16.505 49.02 16.505 49.02 16 47 C15.278125 47.928125 14.55625 48.85625 13.8125 49.8125 C10.61455314 53.61230764 7.93493028 55.76780837 2.875 56.375 C0 56 0 56 -1.9375 55 C-3.71298137 51.65791742 -2.65852695 48.65183129 -2 45 C-2.9590625 45.495 -2.9590625 45.495 -3.9375 46 C-8.84292717 47.60177214 -13.73956039 47.93725545 -18.5625 45.9375 C-20.8195184 42.89543172 -20.51501365 40.66947222 -20 37 C-18.125 34.5625 -18.125 34.5625 -16 33 C-15.34 33 -14.68 33 -14 33 C-15.61628121 29.76743757 -18.76993715 29.32663296 -22 28 C-22.33 27.67 -22.66 27.34 -23 27 C-22.875 23.625 -22.875 23.625 -22 20 C-18.63932733 17.11942343 -15.33319809 16.50386024 -11 16 C-11.825 15.443125 -12.65 14.88625 -13.5 14.3125 C-16 12 -16 12 -16.3125 9.25 C-16.209375 8.5075 -16.10625 7.765 -16 7 C-13.20731171 5.0218458 -11.22222879 4.9132512 -7.9375 5.3125 C-4 6 -4 6 -1 7 C-1.020625 6.030625 -1.04125 5.06125 -1.0625 4.0625 C-1 1 -1 1 0 0 Z " fill="#300757" transform="translate(55,303)"/>
<path d="M0 0 C1.32 0.66 2.64 1.32 4 2 C4.26785714 10.03571429 4.26785714 10.03571429 2 14 C2.556875 14.7528125 3.11375 15.505625 3.6875 16.28125 C12.55262762 28.62054925 19.10929494 41.24539384 23 56 C23.44666016 57.44052734 23.44666016 57.44052734 23.90234375 58.91015625 C26.9873179 69.472994 28.13007584 81.82035168 23.265625 92.01171875 C20.07002103 97.03197313 15.82160339 99.69310944 10 101 C3.29129882 101.90309439 -1.50612093 99.62152567 -7 96 C-22.09136498 83.92234179 -31.50915352 62.93277208 -34 44 C-34.42357181 37.00427313 -34.26544239 29.99951152 -34 23 C-34.94101563 22.86980469 -35.88203125 22.73960937 -36.8515625 22.60546875 C-40.59580011 21.88542306 -41.81928503 21.10332514 -44 18 C-44.25 14.75 -44.25 14.75 -44 12 C-42.68 12.33 -41.36 12.66 -40 13 C-39.87625 13.639375 -39.7525 14.27875 -39.625 14.9375 C-39.41875 15.618125 -39.2125 16.29875 -39 17 C-35.27641348 18.86179326 -31.23324868 18.34416242 -27.3125 17.25 C-22.74280178 14.77989286 -20.62917535 11.88752604 -19 7 C-16.37685298 7.50445135 -14.60394745 8.22502986 -12.25 9.5625 C-8.15099695 11.37552058 -5.44131917 11.22972341 -1 11 C-1.01160156 10.28972656 -1.02320313 9.57945312 -1.03515625 8.84765625 C-1.04417969 7.92855469 -1.05320312 7.00945312 -1.0625 6.0625 C-1.07410156 5.14597656 -1.08570313 4.22945312 -1.09765625 3.28515625 C-1 1 -1 1 0 0 Z " fill="#2C0655" transform="translate(275,235)"/>
<path d="M0 0 C0.67240723 0.20898926 1.34481445 0.41797852 2.03759766 0.63330078 C24.1430216 7.68148348 43.59210592 20.90390843 57 40 C57.8353125 39.01 57.8353125 39.01 58.6875 38 C61 36 61 36 63.625 35.625 C66 36 66 36 68 38 C68.5775 37.0925 69.155 36.185 69.75 35.25 C73.41176471 29.96078431 73.41176471 29.96078431 76 28 C78.625 28 78.625 28 81 29 C82.1484375 31.0625 82.1484375 31.0625 83 33 C83.43570312 32.57847656 83.87140625 32.15695313 84.3203125 31.72265625 C88.07249638 28.27097195 90.6694858 26.126917 96 26 C97 27 97 27 97.0625 30.4375 C97.041875 31.613125 97.02125 32.78875 97 34 C97 34.66 97 35.32 97 36 C98.485 35.505 98.485 35.505 100 35 C106.17037037 34.55925926 106.17037037 34.55925926 109 36.0625 C110.65795299 39.27478392 109.88310098 41.58534286 109 45 C106.9375 47.9375 106.9375 47.9375 105 50 C105.928125 49.95875 106.85625 49.9175 107.8125 49.875 C111 50 111 50 114 52 C115 55.3125 115 55.3125 115 59 C111.39258073 64.47332578 106.05161062 65.55466387 100 67 C100.680625 67.53625 101.36125 68.0725 102.0625 68.625 C104 71 104 71 103.9375 74.125 C103 77 103 77 100 79 C93.97809337 79.89861785 89.34260484 78.72813864 84 76 C84.0928125 77.3921875 84.0928125 77.3921875 84.1875 78.8125 C84 82 84 82 82.48828125 83.69921875 C81.99714844 84.12847656 81.50601562 84.55773437 81 85 C81.77085937 84.97679687 82.54171875 84.95359375 83.3359375 84.9296875 C84.84027344 84.90261719 84.84027344 84.90261719 86.375 84.875 C87.37273437 84.85179687 88.37046875 84.82859375 89.3984375 84.8046875 C92 85 92 85 94 87 C94.125 90.125 94.125 90.125 94 93 C84.33097177 92.14511641 78.1642571 90.60342092 71.53295898 83.40820312 C66.60389712 77.29183654 64.17593115 70.44332467 61.5 63.125 C52.76651696 39.3910677 38.56600774 22.41424319 15.4765625 11.3046875 C0.02266682 4.51589006 -13.9110033 0.6404279 -30.8125 0.75 C-31.99392578 0.74226562 -33.17535156 0.73453125 -34.39257812 0.7265625 C-68.83628413 0.80205555 -100.56421395 15.40049697 -126 38 C-126.85980469 38.75796875 -127.71960938 39.5159375 -128.60546875 40.296875 C-144.77711778 55.52398524 -161.39223478 81.29640623 -163 104 C-162.67 104.66 -162.34 105.32 -162 106 C-162.58265625 105.855625 -163.1653125 105.71125 -163.765625 105.5625 C-174.97714094 102.86493453 -174.97714094 102.86493453 -185.90625 104.98046875 C-187.89452859 106.77544248 -188.95611056 108.29776891 -189.125 111 C-186.78949077 115.15201641 -183.45269804 118.3200171 -179 120 C-175.54536183 120.31084679 -172.13207679 120.46217645 -168.66796875 120.56640625 C-163.20117942 120.79882058 -163.20117942 120.79882058 -161 123 C-161 123.99 -161 124.98 -161 126 C-162.093125 125.9175 -163.18625 125.835 -164.3125 125.75 C-165.529375 125.8325 -166.74625 125.915 -168 126 C-169.63676257 127.9600281 -169.63676257 127.9600281 -171 130 C-173.5 130.4375 -173.5 130.4375 -176 130 C-177.8125 128.5 -177.8125 128.5 -179 127 C-180.093125 127.37125 -181.18625 127.7425 -182.3125 128.125 C-184.1378125 128.558125 -184.1378125 128.558125 -186 129 C-186.99 128.34 -187.98 127.68 -189 127 C-189.1875 124.375 -189.1875 124.375 -189 122 C-190.670625 121.62875 -190.670625 121.62875 -192.375 121.25 C-196 120 -196 120 -197.4375 117.875 C-197.623125 117.25625 -197.80875 116.6375 -198 116 C-196.68 114.35 -195.36 112.7 -194 111 C-194.66 110.34 -195.32 109.68 -196 109 C-196.125 105.875 -196.125 105.875 -196 103 C-190.25 101.875 -190.25 101.875 -188 103 C-188.495 100.03 -188.495 100.03 -189 97 C-182.125 97.875 -182.125 97.875 -181 99 C-180.67 98.34 -180.34 97.68 -180 97 C-175.77638438 96.64803203 -174.27796999 97.46221678 -171 100 C-169.68 100 -168.36 100 -167 100 C-166.86464844 99.33097656 -166.72929687 98.66195312 -166.58984375 97.97265625 C-162.24399186 78.58547267 -153.00806883 60.96681279 -140 46 C-139.29101562 45.16984375 -138.58203125 44.3396875 -137.8515625 43.484375 C-105.48268784 6.45892539 -48.16984479 -15.44891803 0 0 Z " fill="#2F0656" transform="translate(253,171)"/>
<path d="M0 0 C1.65 0 3.3 0 5 0 C5 0.66 5 1.32 5 2 C6.98 1.67 8.96 1.34 11 1 C13.98214736 7.2896199 15.64258345 13.77426121 17.375 20.5 C19.90752332 30.14018869 22.63937426 39.61502673 26 49 C28.31 49.33 30.62 49.66 33 50 C33 50.66 33 51.32 33 52 C34.16917969 51.65066406 35.33835937 51.30132812 36.54296875 50.94140625 C38.09111138 50.4816548 39.63929039 50.02202583 41.1875 49.5625 C41.95642578 49.33240234 42.72535156 49.10230469 43.51757812 48.86523438 C47.32525141 47.73764014 51.08151762 46.6831823 55 46 C57.86748334 49.36216614 59.17988567 52.78390451 60.625 56.9375 C61.05039062 58.14277344 61.47578125 59.34804687 61.9140625 60.58984375 C63.61024095 65.91633219 64.10977541 70.40145434 64 76 C50.24922363 82.17788503 35.83195806 87.117718 21.125 90.4375 C20.40683105 90.6012915 19.68866211 90.76508301 18.94873047 90.93383789 C14.52165051 91.87083862 10.49176871 92.1465982 6 92 C2.37431575 85.2748079 -0.06678756 78.37745828 -2.4375 71.125 C-2.82929443 69.93640381 -3.22108887 68.74780762 -3.62475586 67.52319336 C-5.89504417 60.57140427 -8.08427123 53.6033007 -10.0625 46.5625 C-10.26609131 45.84271973 -10.46968262 45.12293945 -10.67944336 44.38134766 C-11.57281076 41.08813445 -12 38.4477974 -12 35 C-12.99 35 -13.98 35 -15 35 C-16.26264601 30.70700357 -15.62950412 28.12168689 -14 24 C-15.32 24.33 -16.64 24.66 -18 25 C-18.53181175 22.75256955 -19.05007126 20.50192898 -19.5625 18.25 C-19.99755859 16.37054688 -19.99755859 16.37054688 -20.44140625 14.453125 C-21.23505514 9.54693188 -21.23505514 9.54693188 -20 7 C-15.57664311 3.60156726 -10.44639678 2.4538664 -5 2 C-5 2.99 -5 3.98 -5 5 C-3.00016466 4.20882096 -3.00016466 4.20882096 -1 3 C-0.67 2.01 -0.34 1.02 0 0 Z " fill="#00F6F9" transform="translate(414,149)"/>
<path d="M0 0 C2.47855741 9.73987595 4.76862496 19.5200285 7.02319336 29.3137207 C7.47354101 31.26810024 7.92620049 33.22194659 8.37890625 35.17578125 C8.6426001 36.31958252 8.90629395 37.46338379 9.17797852 38.6418457 C10.03104219 42.12681478 10.99321196 45.55679037 12 49 C14.31 49.33 16.62 49.66 19 50 C19 50.66 19 51.32 19 52 C20.24136719 51.69964844 21.48273438 51.39929688 22.76171875 51.08984375 C24.40352033 50.70519309 26.04545452 50.32110816 27.6875 49.9375 C28.50412109 49.73833984 29.32074219 49.53917969 30.16210938 49.33398438 C38.15162037 47.49025107 38.15162037 47.49025107 42 49 C44.36101949 52.66365093 45 54.59781468 45 59 C43.49609375 60.38671875 43.49609375 60.38671875 41.4375 61.6875 C35.86054728 65.63169408 31.09494849 70.46144696 29.0390625 77.10546875 C27.79596831 80.94223691 26.84642576 83.09733786 24 86 C13.50979483 90.17088436 0.19985963 90.86708591 -11 90 C-16.78790599 74.35357281 -20.45520312 58.2801179 -24 42 C-24.39396973 40.19305664 -24.39396973 40.19305664 -24.79589844 38.34960938 C-25.52514218 34.96524267 -26.23635156 31.57778899 -26.9375 28.1875 C-27.14898682 27.18710693 -27.36047363 26.18671387 -27.57836914 25.15600586 C-30.09010951 12.62721843 -30.09010951 12.62721843 -29 8 C-25.02576069 4.15596198 -20.31534332 2.96257689 -15.0625 1.75 C-14.04639648 1.49089844 -14.04639648 1.49089844 -13.00976562 1.2265625 C-8.56848985 0.15350258 -4.56562235 -0.166672 0 0 Z " fill="#00F7FA" transform="translate(294,40)"/>
<path d="M0 0 C4.66655282 0.78808956 7.36447744 3.46122515 10.1875 7.06640625 C13.71356812 13.24990775 13.3518532 20.62150393 11.49902344 27.39257812 C5.24584887 45.6011228 -7.91412016 61.79215548 -23.94140625 72.34765625 C-24.60140625 72.34765625 -25.26140625 72.34765625 -25.94140625 72.34765625 C-26.22113281 71.42726563 -26.50085938 70.506875 -26.7890625 69.55859375 C-29.38880281 61.27667411 -32.52690864 53.84738814 -36.78125 46.2734375 C-37.94140625 43.34765625 -37.94140625 43.34765625 -37.3828125 41.22265625 C-35.68795659 39.01796563 -33.87549055 37.03486127 -31.94140625 35.03515625 C-27.08343235 29.74830824 -23.26888203 24.05122619 -19.37109375 18.0546875 C-7.42960641 -0.31354302 -7.42960641 -0.31354302 0 0 Z " fill="#FCAEC1" transform="translate(435.94140625,294.65234375)"/>
<path d="M0 0 C17.96713618 -1.05862013 31.51778755 5.42510467 45.1875 16.625 C45.75275391 17.08011963 46.31800781 17.53523926 46.90039062 18.00415039 C49.21776309 19.98029048 50.82819168 21.50843731 51.84375 24.4140625 C51.8953125 25.26742188 51.946875 26.12078125 52 27 C52.07863281 28.06734375 52.15726562 29.1346875 52.23828125 30.234375 C52.39307471 37.56669675 52.34334487 43.84354543 48 50 C44.77595023 53.07409396 42.11789978 54.26293423 37.75 54.625 C29.74350753 54.19512121 23.75914655 49.10391544 18.375 43.5625 C8.05601383 31.36567713 1.93217158 15.78279098 0 0 Z " fill="#FCF998" transform="translate(245,278)"/>
<path d="M0 0 C0.66 0.66 1.32 1.32 2 2 C1.9765625 4.1640625 1.9765625 4.1640625 1.625 6.625 C1.45871094 7.85089844 1.45871094 7.85089844 1.2890625 9.1015625 C1.14597656 10.04128906 1.14597656 10.04128906 1 11 C1.57105469 10.71125 2.14210938 10.4225 2.73046875 10.125 C9.7755848 6.89925529 16.28626128 6.06959112 24 7 C24.99 7.66 25.98 8.32 27 9 C26.8794926 15.14587738 26.8794926 15.14587738 24.375 17.578125 C22.62212283 18.80796624 20.86259544 19.94469135 19 21 C20.28583984 21.14695312 20.28583984 21.14695312 21.59765625 21.296875 C34.17373264 22.9415479 34.17373264 22.9415479 39 27 C40.1875 30.5 40.1875 30.5 40 34 C37.11511666 38.8081389 31.04191973 40.19106697 26 42 C26.61488281 42.39832031 27.22976563 42.79664063 27.86328125 43.20703125 C28.67152344 43.73683594 29.47976563 44.26664062 30.3125 44.8125 C31.11300781 45.33457031 31.91351563 45.85664063 32.73828125 46.39453125 C37.82729375 50.00693909 37.82729375 50.00693909 38.5 53.875 C37.83358029 58.04012318 36.25631919 59.4097461 33 62 C25.94825737 65.161126 17.83999697 62.3447947 11 60 C10.01 59.67 9.02 59.34 8 59 C8.350625 59.556875 8.70125 60.11375 9.0625 60.6875 C10.50738789 64.2515568 9.50983091 66.72542271 8.125 70.1875 C7 72 7 72 4 74 C-1.18999569 74.84488302 -4.08547331 73.05962816 -8.265625 70.2890625 C-10 69 -10 69 -12 67 C-11.9765625 64.6171875 -11.9765625 64.6171875 -11.625 61.875 C-11.51414062 60.96492188 -11.40328125 60.05484375 -11.2890625 59.1171875 C-11.19367188 58.41851562 -11.09828125 57.71984375 -11 57 C-9.92621094 56.89042969 -8.85242188 56.78085937 -7.74609375 56.66796875 C-6.3098322 56.50838413 -4.87363767 56.34819558 -3.4375 56.1875 C-2.73302734 56.11724609 -2.02855469 56.04699219 -1.30273438 55.97460938 C6.06817008 55.12542683 12.06912731 52.58294708 18 48 C21.14359674 43.8800391 21.33078637 40.79804736 21.1875 35.6875 C21.16042969 34.43324219 21.13335937 33.17898438 21.10546875 31.88671875 C21.07066406 30.93410156 21.03585937 29.98148437 21 29 C20.34 29 19.68 29 19 29 C18.55011719 28.236875 18.10023438 27.47375 17.63671875 26.6875 C12.61724634 18.44550234 0.92206991 15.82657194 -7.92773438 13.48876953 C-13.2192735 12.24069445 -18.59674187 11.56565358 -24 11 C-22.75268984 7.25806952 -21.59866379 6.87437506 -18.25 4.9375 C-17.38890625 4.43089844 -16.5278125 3.92429687 -15.640625 3.40234375 C-10.06394761 0.44076508 -6.26149813 -0.41059004 0 0 Z " fill="#E0325C" transform="translate(371,255)"/>
<path d="M0 0 C0.66 0.33 1.32 0.66 2 1 C-7.53068309 36.51377442 -7.53068309 36.51377442 -20 44 C-24.53745444 45.3899317 -28.22307676 44.15353192 -32.375 42.125 C-43.36304772 35.33992765 -50.43385841 24.82714837 -57 14 C-57 13.67 -57 13.34 -57 13 C-56.35562988 12.98018066 -55.71125977 12.96036133 -55.04736328 12.93994141 C-52.07289417 12.84354411 -49.09902043 12.73433899 -46.125 12.625 C-45.11179688 12.5940625 -44.09859375 12.563125 -43.0546875 12.53125 C-28.64524818 11.9770408 -13.92649886 8.63895356 -1.63671875 0.8203125 C-0.82654297 0.41425781 -0.82654297 0.41425781 0 0 Z " fill="#F67E9B" transform="translate(279,388)"/>
<path d="M0 0 C2.33878285 2.5415675 3.04262953 4.9276522 3.6015625 8.28125 C2.55870282 15.00190128 0.21459054 19.26889438 -5.0859375 23.59375 C-12.80097107 29.09382232 -20.80430274 32.32956385 -29.7734375 35.21875 C-30.59827637 35.4856665 -31.42311523 35.75258301 -32.27294922 36.02758789 C-33.45848389 36.39484985 -33.45848389 36.39484985 -34.66796875 36.76953125 C-35.3741333 36.98907471 -36.08029785 37.20861816 -36.80786133 37.43481445 C-38.9609375 37.90625 -38.9609375 37.90625 -43.9609375 37.90625 C-43.3009375 27.01625 -42.6409375 16.12625 -41.9609375 4.90625 C-30.7109375 2.46875 -30.7109375 2.46875 -27.18261719 1.70532227 C-26.25868164 1.50479248 -25.33474609 1.3042627 -24.3828125 1.09765625 C-22.96887207 0.79130249 -22.96887207 0.79130249 -21.52636719 0.47875977 C-19.94976087 0.12691909 -18.37721241 -0.24464131 -16.81323242 -0.64892578 C-11.68419116 -1.88065284 -4.71922008 -2.63223431 0 0 Z " fill="#FBADC1" transform="translate(457.9609375,397.09375)"/>
<path d="M0 0 C5.99663333 0.30491356 9.26836992 1.33298669 14 5 C14.99 3.35 15.98 1.7 17 0 C22.62541841 0.45003347 25.61487125 1.68441485 30 5 C26.34092418 7.26469654 22.62003161 7.4895019 18.4375 7.875 C9.63052865 8.82908022 1.39023396 10.88176364 -6 16 C-9.13070333 20.81893243 -9.65046743 26.42456485 -9 32 C-6.36054792 35.90638907 -2.39250181 37.58308138 2 39 C4.7434403 39.42565346 7.41477583 39.47648103 10.1875 39.4375 C11.29798706 39.42940308 11.29798706 39.42940308 12.4309082 39.42114258 C20.4784108 39.20086581 27.33941107 36.93012871 34.4375 33.1875 C37.47289389 31.78085405 38.87541156 31.92871254 42 33 C43 34 43 34 43.0625 36.5625 C43.041875 37.366875 43.02125 38.17125 43 39 C42.01 39 41.02 39 40 39 C40 38.01 40 37.02 40 36 C36.91202978 36.6469565 36.91202978 36.6469565 36 38.875 C35.67 39.57625 35.34 40.2775 35 41 C33.5 42.75 33.5 42.75 32 44 C31.34 44 30.68 44 30 44 C29.505 44.99 29.505 44.99 29 46 C26.26554101 48.05084424 24.83439251 49.07946595 21.375 48.75 C19.57822473 48.18259728 17.78754371 47.5958479 16 47 C15.278125 47.928125 14.55625 48.85625 13.8125 49.8125 C10.61455314 53.61230764 7.93493028 55.76780837 2.875 56.375 C0 56 0 56 -1.9375 55 C-3.71298137 51.65791742 -2.65852695 48.65183129 -2 45 C-2.639375 45.33 -3.27875 45.66 -3.9375 46 C-8.84292717 47.60177214 -13.73956039 47.93725545 -18.5625 45.9375 C-20.8195184 42.89543172 -20.51501365 40.66947222 -20 37 C-18.125 34.5625 -18.125 34.5625 -16 33 C-15.34 33 -14.68 33 -14 33 C-15.61628121 29.76743757 -18.76993715 29.32663296 -22 28 C-22.33 27.67 -22.66 27.34 -23 27 C-22.875 23.625 -22.875 23.625 -22 20 C-18.63932733 17.11942343 -15.33319809 16.50386024 -11 16 C-12.2375 15.1646875 -12.2375 15.1646875 -13.5 14.3125 C-16 12 -16 12 -16.3125 9.25 C-16.209375 8.5075 -16.10625 7.765 -16 7 C-13.20731171 5.0218458 -11.22222879 4.9132512 -7.9375 5.3125 C-4 6 -4 6 -1 7 C-1.020625 6.030625 -1.04125 5.06125 -1.0625 4.0625 C-1 1 -1 1 0 0 Z " fill="#3C0655" transform="translate(55,303)"/>
<path d="M0 0 C13.73253275 -0.38061344 29.66523131 3.86194641 40.3125 12.98046875 C43.6029227 16.91831258 43.8515214 21.58945329 44.375 26.5625 C43.9050748 30.87014767 42.77577014 33.67736171 40 37 C32.08008354 42.93993734 22.65888697 44 13 44 C13 36.74 13 29.48 13 22 C12.01 22 11.02 22 10 22 C10 20.35 10 18.7 10 17 C9.01 16.67 8.02 16.34 7 16 C7.0825 15.13375 7.165 14.2675 7.25 13.375 C6.94305419 9.23123155 5.40923908 7.31270374 3 4 C3 3.34 3 2.68 3 2 C2.01 1.67 1.02 1.34 0 1 C0 0.67 0 0.34 0 0 Z " fill="#FD90AA" transform="translate(348,266)"/>
<path d="M0 0 C1.72089844 -0.00386719 1.72089844 -0.00386719 3.4765625 -0.0078125 C6.375 0.125 6.375 0.125 8.375 1.125 C8.375 2.115 8.375 3.105 8.375 4.125 C8.9525 4.351875 9.53 4.57875 10.125 4.8125 C13.11259691 6.55526486 14.59101425 8.15169042 16.375 11.125 C16.64741717 15.9377034 15.27950865 18.63651011 12.3125 22.25 C5.22332116 29.66857503 -2.72619931 32.70108027 -12.625 35.125 C-13.615 35.125 -14.605 35.125 -15.625 35.125 C-17.33074463 31.04905075 -19.01137865 26.96321032 -20.6875 22.875 C-21.17283203 21.71613281 -21.65816406 20.55726563 -22.15820312 19.36328125 C-22.61259766 18.24824219 -23.06699219 17.13320312 -23.53515625 15.984375 C-23.95933838 14.95795898 -24.38352051 13.93154297 -24.82055664 12.87402344 C-25.64974789 10.04042906 -25.88566749 8.77818667 -24.625 6.125 C-21.60546875 4.67578125 -21.60546875 4.67578125 -17.8125 3.4375 C-16.56855469 3.02113281 -15.32460938 2.60476562 -14.04296875 2.17578125 C-12.91503906 1.82902344 -11.78710938 1.48226562 -10.625 1.125 C-9.95339844 0.91488281 -9.28179687 0.70476562 -8.58984375 0.48828125 C-5.71686878 -0.04290498 -2.9182484 -0.00658747 0 0 Z " fill="#FDADC1" transform="translate(337.625,208.875)"/>
<path d="M0 0 C1.35448242 0.00193359 1.35448242 0.00193359 2.73632812 0.00390625 C13.96839683 0.15030541 25.93629014 3.00712475 34.34375 10.859375 C35.5625 12.375 35.5625 12.375 36.1875 15.0625 C35.43819902 17.83491361 34.91474085 18.7284314 32.5625 20.375 C20.68807062 25.39236453 5.33543295 23.33231622 -6.375 18.8125 C-15.3175 14.615 -15.3175 14.615 -17.4375 10.375 C-17.477492 8.37539988 -17.48096799 6.37452758 -17.4375 4.375 C-11.52693984 0.27247127 -7.09908688 -0.19173085 0 0 Z " fill="#FFFA99" transform="translate(139.4375,265.625)"/>
<path d="M0 0 C2.3125 0.1875 2.3125 0.1875 5 1 C5.4125 1.763125 5.825 2.52625 6.25 3.3125 C8.92595059 7.42199555 12.40087623 8.58838775 17 10 C21.31465158 10.85711934 25.63192242 11.48690279 30 12 C29.97265625 13.8515625 29.97265625 13.8515625 29 16 C26.44168764 16.98234373 24.07733977 17.71018633 21.4375 18.375 C11.46220091 21.21251617 5.86682537 24.97187172 0.20703125 33.8125 C-1.1685967 36.14004869 -1.1685967 36.14004869 -2.125 39.5 C-4 42 -4 42 -6.63671875 42.48046875 C-8.77008311 42.61954416 -10.90613176 42.72188262 -13.04296875 42.7890625 C-16.58183223 43.04150454 -18.98494163 44.17509625 -22 46 C-22.66 46 -23.32 46 -24 46 C-26.15512745 50.05048508 -27.5300633 54.30155388 -29 58.63671875 C-30 61 -30 61 -32 62 C-34.08211198 61.4205031 -36.14239336 60.7614605 -38.1875 60.0625 C-47.3743984 57.1809264 -52.84556829 58.09182045 -61.88671875 61.04296875 C-65.3004369 62.09235513 -68.45576031 62.67030328 -72 63 C-71.58315135 60.49890807 -71.19940269 58.37388004 -70 56.125 C-68.88513069 53.75590271 -68.60432647 51.84903331 -68.375 49.25 C-68.30023438 48.45078125 -68.22546875 47.6515625 -68.1484375 46.828125 C-68.09945313 46.22484375 -68.05046875 45.6215625 -68 45 C-66.68 45 -65.36 45 -64 45 C-63 52.75 -63 52.75 -63 55 C-61.1128125 54.505 -61.1128125 54.505 -59.1875 54 C-49.88698721 51.97371273 -41.90709474 52.75403055 -33 56 C-32.9175 55.13375 -32.835 54.2675 -32.75 53.375 C-31.41946978 47.38761402 -28.10738954 43.29142881 -23 40 C-17.24429805 37.430884 -12.26613996 36.65821055 -6 37 C-5.88527344 36.26523437 -5.77054687 35.53046875 -5.65234375 34.7734375 C-3.73650161 26.6282404 2.08822967 21.72406785 8.828125 17.3125 C11 16 11 16 13 15 C12.48050781 14.70867187 11.96101563 14.41734375 11.42578125 14.1171875 C6.60201233 11.28177435 3.16490656 8.64845651 0 4 C0 2.68 0 1.36 0 0 Z " fill="#250052" transform="translate(469,406)"/>
<path d="M0 0 C0.33 0 0.66 0 1 0 C1 2.31 1 4.62 1 7 C2.0209375 7.0928125 2.0209375 7.0928125 3.0625 7.1875 C8.1321062 8.5897315 12.55229192 12.04227593 16 16 C16.5 18.875 16.5 18.875 16 22 C13.93203311 24.58495862 12.23261714 26.44744749 9.1875 27.8125 C1.69191538 28.45497868 -3.9080758 27.43115696 -11 25 C-11.99 24.67 -12.98 24.34 -14 24 C-13.4740625 24.8353125 -13.4740625 24.8353125 -12.9375 25.6875 C-11.49261211 29.2515568 -12.49016909 31.72542271 -13.875 35.1875 C-15 37 -15 37 -18 39 C-23.18999569 39.84488302 -26.08547331 38.05962816 -30.265625 35.2890625 C-32 34 -32 34 -34 32 C-33.9765625 29.6171875 -33.9765625 29.6171875 -33.625 26.875 C-33.51414062 25.96492188 -33.40328125 25.05484375 -33.2890625 24.1171875 C-33.19367188 23.41851562 -33.09828125 22.71984375 -33 22 C-31.38931641 21.83564453 -31.38931641 21.83564453 -29.74609375 21.66796875 C-28.3098322 21.50838413 -26.87363767 21.34819558 -25.4375 21.1875 C-24.73302734 21.11724609 -24.02855469 21.04699219 -23.30273438 20.97460938 C-15.3261691 20.05565024 -7.37717209 17.19235156 -2.1875 10.75 C-0.62127085 7.12294303 -0.33334115 3.93342562 0 0 Z " fill="#D92F5B" transform="translate(393,290)"/>
<path d="M0 0 C0.573973 11.94714163 0.573973 11.94714163 -3 17 C-5.4375 19.4375 -5.4375 19.4375 -8 21 C-11.05191378 20.82560493 -11.81258515 20.18741485 -14 18 C-14.09796875 18.92941406 -14.1959375 19.85882813 -14.296875 20.81640625 C-16.10660487 35.77787989 -16.10660487 35.77787989 -21.8125 40.5 C-25.08711837 41.2484842 -27.74560417 40.71005 -31 40 C-34.90288685 37.39807543 -34.99523245 35.48280907 -36 31 C-36 29.68 -36 28.36 -36 27 C-39.46534923 28.15511641 -39.88952125 28.9450773 -41.875 31.875 C-44.25875076 35.15927883 -46.15216958 37.4214029 -50 39 C-51.66620414 39.03926254 -53.33392364 39.04435478 -55 39 C-54.02325896 37.01963514 -53.04354018 35.04073867 -52.0625 33.0625 C-51.51722656 31.96035156 -50.97195312 30.85820312 -50.41015625 29.72265625 C-49 27 -49 27 -48 26 C-46.0251719 25.69915892 -44.04472118 25.43498853 -42.0625 25.1875 C-26.74780587 22.86607963 -16.34392605 14.89050136 -5.88330078 3.86132812 C-2.19466397 0 -2.19466397 0 0 0 Z " fill="#F6275B" transform="translate(117,392)"/>
<path d="M0 0 C6.875 0.875 6.875 0.875 8 2 C8.33 1.34 8.66 0.68 9 0 C13.22796038 -0.35233003 14.72725781 0.44317016 18 3 C18.825 3.12375 19.65 3.2475 20.5 3.375 C23.95882344 4.23970586 25.02121963 6.14176168 27 9 C26.12601563 8.7834375 26.12601563 8.7834375 25.234375 8.5625 C14.02285906 5.86493453 14.02285906 5.86493453 3.09375 7.98046875 C1.10547141 9.77544248 0.04388944 11.29776891 -0.125 14 C2.21050923 18.15201641 5.54730196 21.3200171 10 23 C13.45463817 23.31084679 16.86792321 23.46217645 20.33203125 23.56640625 C25.79882058 23.79882058 25.79882058 23.79882058 28 26 C28 26.99 28 27.98 28 29 C26.906875 28.9175 25.81375 28.835 24.6875 28.75 C23.470625 28.8325 22.25375 28.915 21 29 C19.36323743 30.9600281 19.36323743 30.9600281 18 33 C15.5 33.4375 15.5 33.4375 13 33 C11.1875 31.5 11.1875 31.5 10 30 C8.3603125 30.556875 8.3603125 30.556875 6.6875 31.125 C5.470625 31.41375 4.25375 31.7025 3 32 C2.01 31.34 1.02 30.68 0 30 C-0.1875 27.375 -0.1875 27.375 0 25 C-1.11375 24.7525 -2.2275 24.505 -3.375 24.25 C-7 23 -7 23 -8.4375 20.875 C-8.623125 20.25625 -8.80875 19.6375 -9 19 C-7.68 17.35 -6.36 15.7 -5 14 C-5.66 13.34 -6.32 12.68 -7 12 C-7.125 8.875 -7.125 8.875 -7 6 C-1.25 4.875 -1.25 4.875 1 6 C0.67 4.02 0.34 2.04 0 0 Z " fill="#360958" transform="translate(64,268)"/>
<path d="M0 0 C0 3 0 6 0 9 C0.99 8.67 1.98 8.34 3 8 C9.17037037 7.55925926 9.17037037 7.55925926 12 9.0625 C13.63529445 12.23088299 12.8403752 14.63849919 12 18 C10.4375 19.9375 10.4375 19.9375 9 21 C5.16670403 19.72223468 4.11732555 17.77102204 1.79296875 14.59375 C-2.43475173 10.83577624 -9.87726692 11.61580445 -15.26953125 11.640625 C-23.34069298 12.418161 -31.87715232 15.12140101 -39 19 C-39.75 16.25 -39.75 16.25 -40 13 C-38.375 10.625 -38.375 10.625 -36 9 C-33.375 8.625 -33.375 8.625 -31 9 C-30.34 9.66 -29.68 10.32 -29 11 C-28.13375 9.63875 -28.13375 9.63875 -27.25 8.25 C-23.58823529 2.96078431 -23.58823529 2.96078431 -21 1 C-18.375 1 -18.375 1 -16 2 C-14.8515625 4.0625 -14.8515625 4.0625 -14 6 C-13.52949219 5.57847656 -13.05898438 5.15695313 -12.57421875 4.72265625 C-11.95160156 4.17480469 -11.32898438 3.62695312 -10.6875 3.0625 C-10.07261719 2.51722656 -9.45773437 1.97195312 -8.82421875 1.41015625 C-5.67111581 -1.02725309 -3.66326916 -1.13687664 0 0 Z " fill="#FD295B" transform="translate(350,198)"/>
<path d="M0 0 C4.30742759 2.23654894 7.64038378 4.73453991 10 9 C10.79562414 14.30957333 10.64704364 18.60636754 8.375 23.5 C5.17748874 26.86580132 2.58292174 28.93154801 -2.2109375 29.05859375 C-6.75716595 28.70365565 -10.45819274 28.03583479 -14 25 C-17.77109363 19.80200607 -18.81155954 16.39103136 -18 10 C-14.26645869 2.53291738 -8.35924786 -1.65513108 0 0 Z M-9.375 13.875 C-10.32926785 17.1195107 -9.73620994 19.74840612 -9 23 C-5.86128812 24.56935594 -3.46144178 24.35201103 0 24 C2.63016161 21.8272578 4.47336894 20.05326212 6 17 C6.28362182 13.73834906 6.28618906 11.60417691 4.875 8.625 C3.03686866 6.75963156 3.03686866 6.75963156 0.125 6.4375 C-4.6520587 7.29737057 -6.60182349 10.09339567 -9.375 13.875 Z " fill="#240A59" transform="translate(369,127)"/>
<path d="M0 0 C0.21365718 11.13391303 0.35188131 22.04744323 -2 33 C-4.86744176 35.86744176 -9.96147875 34.6328617 -14 35 C-13.34 23.78 -12.68 12.56 -12 1 C-7.76358987 0.15271797 -4.27587998 -0.08384078 0 0 Z " fill="#F9ABBF" transform="translate(412,403)"/>
<path d="M0 0 C2.60853614 2.60853614 3.57148371 3.82079457 4.97265625 7.01953125 C5.31490234 7.79490234 5.65714844 8.57027344 6.00976562 9.36914062 C6.35716797 10.17544922 6.70457031 10.98175781 7.0625 11.8125 C7.5894043 13.00456055 7.5894043 13.00456055 8.12695312 14.22070312 C13 25.35778001 13 25.35778001 13 31 C11.54462432 31.83848804 10.08559627 32.67063934 8.625 33.5 C7.81289063 33.9640625 7.00078125 34.428125 6.1640625 34.90625 C4 36 4 36 2 36 C1.80889648 35.44650879 1.61779297 34.89301758 1.42089844 34.32275391 C-3.4981167 20.05252622 -3.4981167 20.05252622 -9 6 C-6.03 4.02 -3.06 2.04 0 0 Z " fill="#F8AABF" transform="translate(394,339)"/>
<path d="M0 0 C3.63 0 7.26 0 11 0 C11.05452096 3.77103303 11.09392444 7.54125847 11.125 11.3125 C11.14175781 12.36501953 11.15851563 13.41753906 11.17578125 14.50195312 C11.2194464 21.59753923 10.46405769 28.05437197 9 35 C5.37 35 1.74 35 -2 35 C-1.34 23.45 -0.68 11.9 0 0 Z " fill="#F9ABC0" transform="translate(385,404)"/>
<path d="M0 0 C4.80310293 3.27270249 8.05402043 9.25363237 9.78515625 14.703125 C10.31069967 17.67516367 10.1828583 20.61636836 10.125 23.625 C8.3125 23.5625 8.3125 23.5625 6.125 22.625 C5.10970459 20.29828135 4.11011802 17.9646553 3.125 15.625 C0.4714751 13.35055008 -0.89806903 13.62621416 -4.4375 13.8125 C-7.96468498 14.64619827 -8.69953615 14.94844616 -10.875 17.625 C-11.86128417 19.65577684 -11.86128417 19.65577684 -12.5625 21.8125 C-12.81386719 22.52792969 -13.06523437 23.24335938 -13.32421875 23.98046875 C-13.50597656 24.52316406 -13.68773437 25.06585938 -13.875 25.625 C-14.865 25.295 -15.855 24.965 -16.875 24.625 C-16.5386509 18.1222508 -15.5582792 15.19936573 -10.875 10.625 C-7.74019132 8.63547633 -5.76951694 8.46404163 -2.125 9 C-1.32578125 9.11085937 -0.5265625 9.22171875 0.296875 9.3359375 C0.90015625 9.43132812 1.5034375 9.52671875 2.125 9.625 C-0.42104597 6.10118313 -0.42104597 6.10118313 -3.875 3.625 C-9.13050671 3.10116682 -13.53966186 3.00502158 -18.375 5.25 C-23.98065238 10.57536976 -24.45279963 16.25833152 -24.875 23.625 C-26.195 23.295 -27.515 22.965 -28.875 22.625 C-29.48007582 15.12205988 -28.29136876 9.82303342 -23.875 3.625 C-17.78476114 -2.64808668 -7.86577258 -3.64511412 0 0 Z " fill="#370E5C" transform="translate(205.875,231.375)"/>
<path d="M0 0 C7.54273902 6.9021667 11.55730329 18.82061416 12.1796875 28.9140625 C12.18636731 31.28539464 12.13862278 33.63314442 12 36 C3.03095493 40.37676137 -6.1898228 43.42081568 -15.75 46.25 C-17.47150269 46.76143555 -17.47150269 46.76143555 -19.2277832 47.28320312 C-36.61496222 52.33453576 -36.61496222 52.33453576 -45.625 52.125 C-47.16027344 52.09792969 -47.16027344 52.09792969 -48.7265625 52.0703125 C-49.47679687 52.04710937 -50.22703125 52.02390625 -51 52 C-51.495 50.515 -51.495 50.515 -52 49 C-51.30261719 48.9484375 -50.60523438 48.896875 -49.88671875 48.84375 C-34.35008803 47.17436843 -4.42268202 42.42268202 7 31 C7.44536805 25.10205455 6.5400263 20.48354527 4.625 14.9375 C4.17889788 13.5927096 3.73357877 12.24765918 3.2890625 10.90234375 C2.96470215 9.93530518 2.96470215 9.93530518 2.63378906 8.94873047 C1.67100142 5.98841808 0.83450907 2.99877325 0 0 Z " fill="#01EFF5" transform="translate(474,195)"/>
<path d="M0 0 C10.61046512 23.69186047 10.61046512 23.69186047 10 30 C8.5437455 30.67119549 7.08492133 31.33681807 5.625 32 C4.81289063 32.37125 4.00078125 32.7425 3.1640625 33.125 C1 34 1 34 -1 34 C-1.30292969 32.98421875 -1.60585938 31.9684375 -1.91796875 30.921875 C-4.2645351 23.17301245 -6.79803469 15.67459243 -10.08203125 8.2578125 C-11 6 -11 6 -11 4 C-9.5437455 3.32880451 -8.08492133 2.66318193 -6.625 2 C-5.81289063 1.62875 -5.00078125 1.2575 -4.1640625 0.875 C-2 0 -2 0 0 0 Z " fill="#F8AABF" transform="translate(382,347)"/>
<path d="M0 0 C-8.98517897 11.11324767 -20.47144208 22.22417759 -35.375 23.9375 C-37.169375 23.9684375 -37.169375 23.9684375 -39 24 C-34.09378684 13.46675564 -23.30657858 5.42245924 -12.75 0.9375 C-8.3803775 -0.15490563 -4.47263301 -0.27953956 0 0 Z " fill="#F5A8BE" transform="translate(111,391)"/>
<path d="M0 0 C5.99663333 0.30491356 9.26836992 1.33298669 14 5 C14.99 3.35 15.98 1.7 17 0 C22.62541841 0.45003347 25.61487125 1.68441485 30 5 C26.34092418 7.26469654 22.62003161 7.4895019 18.4375 7.875 C8.99146088 8.89831196 -1.04161502 11.04161502 -8 18 C-9.34709162 17.12499183 -10.67738986 16.22409067 -12 15.3125 C-12.7425 14.81363281 -13.485 14.31476563 -14.25 13.80078125 C-16 12 -16 12 -16.25 9.29296875 C-16.1675 8.53628906 -16.085 7.77960938 -16 7 C-13.20731171 5.0218458 -11.22222879 4.9132512 -7.9375 5.3125 C-4 6 -4 6 -1 7 C-1.020625 6.030625 -1.04125 5.06125 -1.0625 4.0625 C-1 1 -1 1 0 0 Z " fill="#FE2A5D" transform="translate(55,303)"/>
<path d="M0 0 C4.06175772 4.70308789 4.06175772 4.70308789 3.875 8.625 C1.69767442 14.53488372 1.69767442 14.53488372 -2 17 C-7.18999569 17.84488302 -10.08547331 16.05962816 -14.265625 13.2890625 C-16 12 -16 12 -18 10 C-17.9765625 7.6171875 -17.9765625 7.6171875 -17.625 4.875 C-17.51414062 3.96492188 -17.40328125 3.05484375 -17.2890625 2.1171875 C-17.19367188 1.41851562 -17.09828125 0.71984375 -17 0 C-15.10507254 -0.19644384 -13.20899097 -0.38177288 -11.3125 -0.5625 C-9.72888672 -0.71912109 -9.72888672 -0.71912109 -8.11328125 -0.87890625 C-5.1315775 -0.99488218 -2.84426593 -0.88236326 0 0 Z " fill="#DC315B" transform="translate(377,312)"/>
<path d="M0 0 C6.625 -0.25 6.625 -0.25 10 2 C11 5.3125 11 5.3125 11 9 C7.39258073 14.47332578 2.05161062 15.55466387 -4 17 C-3.67 17.33 -3.34 17.66 -3 18 C-2.8125 21.4375 -2.8125 21.4375 -3 25 C-5 27 -5 27 -8.1875 27.3125 C-12.52241809 26.95717884 -15.12906883 25.89596629 -19 24 C-19 23.34 -19 22.68 -19 22 C-16.8828125 20.4921875 -16.8828125 20.4921875 -14.125 18.875 C-13.22007812 18.33617187 -12.31515625 17.79734375 -11.3828125 17.2421875 C-9 16 -9 16 -7 16 C-6.62875 15.195625 -6.62875 15.195625 -6.25 14.375 C-5 12 -5 12 -2.9375 9.125 C-0.95454582 5.92668681 -0.35304682 3.70699162 0 0 Z " fill="#F0265B" transform="translate(357,221)"/>
<path d="M0 0 C0.474375 0.721875 0.94875 1.44375 1.4375 2.1875 C8.73484019 10.19677582 17.68601782 11.08954307 28 12 C25.74542314 15.91789581 23.88498216 18.5605926 20 21 C16.6875 21.25 16.6875 21.25 14 21 C12.23537317 17.91190305 12 16.76687864 12 13 C11.360625 13.33 10.72125 13.66 10.0625 14 C5.15707283 15.60177214 0.26043961 15.93725545 -4.5625 13.9375 C-6.8195184 10.89543172 -6.51501365 8.66947222 -6 5 C-4.13291495 2.63502561 -2.67938569 1.33969285 0 0 Z " fill="#F2265A" transform="translate(41,335)"/>
<path d="M0 0 C0.573973 11.94714163 0.573973 11.94714163 -3 17 C-5.4375 19.4375 -5.4375 19.4375 -8 21 C-11.05191378 20.82560493 -11.81258515 20.18741485 -14 18 C-14.09796875 18.92941406 -14.1959375 19.85882813 -14.296875 20.81640625 C-16.10660487 35.77787989 -16.10660487 35.77787989 -21.8125 40.5 C-25.08711837 41.2484842 -27.74560417 40.71005 -31 40 C-31.99 39.34 -32.98 38.68 -34 38 C-34 37.34 -34 36.68 -34 36 C-33.484375 36.165 -32.96875 36.33 -32.4375 36.5 C-29.16039147 37.17222739 -26.33610088 37.3032819 -23 37 C-18.60418746 33.21050643 -18.02949221 26.87818274 -17.5625 21.375 C-17.52253906 20.66085937 -17.48257813 19.94671875 -17.44140625 19.2109375 C-16.29311683 13.45932857 -11.95352131 9.64580603 -7.9375 5.6875 C-7.39544922 5.13771484 -6.85339844 4.58792969 -6.29492188 4.02148438 C-2.25345497 0 -2.25345497 0 0 0 Z " fill="#F3265B" transform="translate(117,392)"/>
<path d="M0 0 C0.66 0.33 1.32 0.66 2 1 C1.67 2.32 1.34 3.64 1 5 C-1.31 4.67 -3.62 4.34 -6 4 C-8.29013653 7.4352048 -8.17842973 8.985331 -8 13 C-7.46375 12.195625 -6.9275 11.39125 -6.375 10.5625 C-4 8 -4 8 -1 7 C2 7 2 7 4.375 8.25 C6 10 6 10 6 13 C3.69 12.67 1.38 12.34 -1 12 C-5.45683174 17.31944433 -5.75759721 22.18848171 -6 29 C-7.32 29 -8.64 29 -10 29 C-12.84736886 21.33922189 -15.07581312 12.69143129 -12.16796875 4.71875 C-8.80387971 -1.4298472 -6.54417808 -1.16860323 0 0 Z " fill="#340B5A" transform="translate(299,209)"/>
<path d="M0 0 C3.75658589 1.48949222 3.75658589 1.48949222 4.82269287 3.72541809 C4.97369446 4.41649155 5.12469604 5.107565 5.28027344 5.81958008 C5.46015808 6.60412064 5.64004272 7.38866119 5.82537842 8.19697571 C6.00159729 9.04591904 6.17781616 9.89486237 6.359375 10.76953125 C6.55347961 11.64268478 6.74758423 12.51583832 6.9475708 13.41545105 C7.35526644 15.26393188 7.75486166 17.11421509 8.14697266 18.96606445 C8.74619878 21.79455732 9.36878783 24.61706928 9.99609375 27.43945312 C10.38940274 29.2366773 10.78137394 31.03419488 11.171875 32.83203125 C11.3561908 33.67490189 11.54050659 34.51777252 11.73040771 35.38618469 C12.55890038 39.31873162 13.23986212 42.95463311 13 47 C12.01 47 11.02 47 10 47 C7.68870142 38.8474571 5.71205279 30.64635327 3.875 22.375 C3.61074219 21.21226563 3.34648437 20.04953125 3.07421875 18.8515625 C1.67321166 12.56480988 0.56103683 6.41771396 0 0 Z " fill="#01ECF3" transform="translate(298,40)"/>
<path d="M0 0 C6.875 0.875 6.875 0.875 8 2 C8.33 1.34 8.66 0.68 9 0 C13.22796038 -0.35233003 14.72725781 0.44317016 18 3 C18.825 3.12375 19.65 3.2475 20.5 3.375 C23.95882344 4.23970586 25.02121963 6.14176168 27 9 C26.12601563 8.7834375 26.12601563 8.7834375 25.234375 8.5625 C18.56749232 7.05301713 11.818041 5.97276192 5 7 C1.84777425 9.22990529 1.84777425 9.22990529 0 12 C-0.99 12.495 -0.99 12.495 -2 13 C-2.99 12.34 -3.98 11.68 -5 11 C-4.67 9.35 -4.34 7.7 -4 6 C-3.01 5.67 -2.02 5.34 -1 5 C-0.34 5.33 0.32 5.66 1 6 C0.67 4.02 0.34 2.04 0 0 Z " fill="#FD2A5C" transform="translate(64,268)"/>
<path d="M0 0 C0.66 0.33 1.32 0.66 2 1 C2 2.65 2 4.3 2 6 C0.2675 6.928125 0.2675 6.928125 -1.5 7.875 C-2.1496875 8.22304687 -2.799375 8.57109375 -3.46875 8.9296875 C-9.68482171 11.55808819 -15.63921967 12.36166426 -22.3125 12.3125 C-23.41356079 12.31056641 -23.41356079 12.31056641 -24.53686523 12.30859375 C-30.66894721 12.20111942 -36.22098015 11.09692297 -42 9 C-39.18068105 8.18652218 -36.8014061 7.91439856 -33.875 8.04296875 C-20.8259619 8.44555117 -11.36222522 6.6691322 0 0 Z " fill="#01ECF3" transform="translate(394,182)"/>
<path d="M0 0 C1.902771 0.26065063 1.902771 0.26065063 4 1 C4.93658447 2.65658569 4.93658447 2.65658569 5.55566406 4.82958984 C5.79561096 5.64068207 6.03555786 6.45177429 6.28277588 7.28744507 C6.64553619 8.61082382 6.64553619 8.61082382 7.015625 9.9609375 C7.27631775 10.86244537 7.5370105 11.76395325 7.80560303 12.69277954 C8.6364275 15.58254538 9.44286804 18.47853834 10.25 21.375 C10.80842055 23.32073651 11.36829849 25.26605538 11.9296875 27.2109375 C12.45964034 29.06473103 12.98832864 30.91888661 13.515625 32.7734375 C13.76556213 33.65164154 14.01549927 34.52984558 14.27301025 35.43466187 C14.50034851 36.25205841 14.72768677 37.06945496 14.96191406 37.91162109 C15.16302795 38.63030365 15.36414185 39.34898621 15.5713501 40.08944702 C16 42 16 42 16 45 C15.01 45 14.02 45 13 45 C10.98618994 38.39987677 8.97671871 31.79844564 6.97119141 25.19580078 C6.34146249 23.12361589 5.71097518 21.05166126 5.07958984 18.97998047 C4.23784146 16.21663676 3.39969168 13.45222708 2.5625 10.6875 C2.30388184 9.8409082 2.04526367 8.99431641 1.77880859 8.12207031 C0 2.22847145 0 2.22847145 0 0 Z " fill="#00F3F7" transform="translate(429,150)"/>
<path d="M0 0 C1.9765625 1.27734375 1.9765625 1.27734375 4 3 C4.375 6.5625 4.375 6.5625 4 10 C2 12 2 12 -1.1875 12.3125 C-5.52241809 11.95717884 -8.12906883 10.89596629 -12 9 C-12 8.34 -12 7.68 -12 7 C-10.04775792 5.71593601 -8.03659238 4.52058322 -6 3.375 C-4.88625 2.74335938 -3.7725 2.11171875 -2.625 1.4609375 C-1.75875 0.97882813 -0.8925 0.49671875 0 0 Z " fill="#F7275B" transform="translate(350,236)"/>
<path d="M0 0 C-0.433125 0.9590625 -0.433125 0.9590625 -0.875 1.9375 C-2.3247725 5.88410292 -3.15778062 9.8874607 -4 14 C-10.75 12.25 -10.75 12.25 -13 10 C-12.9375 6.5625 -12.9375 6.5625 -12 3 C-8.27250784 -0.3985958 -4.88647857 -0.28743992 0 0 Z " fill="#FD285C" transform="translate(45,320)"/>
<path d="M0 0 C4.95 0.33 9.9 0.66 15 1 C12.37932271 5.36779548 11.14956556 7.39445883 7 10 C3.6875 10.25 3.6875 10.25 1 10 C-1.59150321 6.0365245 -0.89057679 5.34346075 0 0 Z " fill="#FA285B" transform="translate(54,346)"/>
<path d="M0 0 C2.4375 1 2.4375 1 4 2 C4 2.33 4 2.66 4 3 C2.9275 3.2475 1.855 3.495 0.75 3.75 C-3.1331085 5.0443695 -4.7131506 5.65768165 -7 9 C-7.57988724 11.68131347 -7.77838988 14.25203454 -8 17 C-8.33 17.66 -8.66 18.32 -9 19 C-11.85807336 16.14192664 -13.31732129 14.01893158 -13.5 10 C-13.30170354 5.96542976 -11.92149301 3.83556675 -9 1 C-5.97562661 -0.5121867 -3.33758466 -0.17263369 0 0 Z " fill="#01EEF4" transform="translate(368,131)"/>
<path d="M0 0 C-0.33 1.65 -0.66 3.3 -1 5 C-24.83629893 10.08185053 -24.83629893 10.08185053 -31 7 C-31 6.34 -31 5.68 -31 5 C-30.3915625 4.96261719 -29.783125 4.92523438 -29.15625 4.88671875 C-23.17136292 4.43785222 -17.33074619 3.60431881 -11.4375 2.5 C-10.38369141 2.30410278 -10.38369141 2.30410278 -9.30859375 2.10424805 C-6.1833543 1.5018612 -3.08799272 0 0 0 Z " fill="#02EAF1" transform="translate(317,129)"/>
<path d="M0 0 C0.66 0 1.32 0 2 0 C3.58210274 5.52460071 4.02768891 11.51191106 1.8125 16.875 C-3.48149786 23.08175611 -9.97201867 26.69896435 -18 28 C-22.20959064 28.30559642 -25.87510315 28.03122421 -30 27 C-30 19.41 -30 11.82 -30 4 C-29.67 4 -29.34 4 -29 4 C-29 11.26 -29 18.52 -29 26 C-26.195 25.5875 -23.39 25.175 -20.5 24.75 C-19.63310547 24.62979492 -18.76621094 24.50958984 -17.87304688 24.38574219 C-12.03379128 23.46723734 -5.69367935 22.04135857 -1.62109375 17.44311523 C1.64966455 12.32115901 1.48394838 7.84319675 0.5 2.0625 C0.2525 1.0415625 0.2525 1.0415625 0 0 Z " fill="#541A61" transform="translate(390,284)"/>
<path d="M0 0 C7.28222965 6.27080886 9.80175823 14.65985902 11 24 C11.12672052 26.36544975 11.10305353 28.62976879 11 31 C9.35 31 7.7 31 6 31 C5.97421875 29.97261719 5.9484375 28.94523437 5.921875 27.88671875 C5.63693546 20.13711304 4.99511977 13.47373946 1.9375 6.234375 C1.06858167 4.16345299 0.48197992 2.18899212 0 0 Z " fill="#02E9F0" transform="translate(408,114)"/>
<path d="M0 0 C0.66 0 1.32 0 2 0 C2.3125 2.6875 2.3125 2.6875 2 6 C-0.06796689 8.58495862 -1.76738286 10.44744749 -4.8125 11.8125 C-12.77400228 12.49491448 -19.76004005 11.61997997 -27 8 C-27 7.34 -27 6.68 -27 6 C-26.12601562 6.2165625 -26.12601562 6.2165625 -25.234375 6.4375 C-13.72578392 9.17270388 -13.72578392 9.17270388 -2.6953125 6.6484375 C-0.53715261 4.54995023 -0.31808514 2.94228759 0 0 Z " fill="#2B0153" transform="translate(407,306)"/>
<path d="M0 0 C0.33 0 0.66 0 1 0 C1.38408163 8.53514734 1.39507927 15.27113959 -3.75 22.4375 C-6.88008632 24.61117106 -9.20978355 24.93350497 -13 25 C-15.9375 23.6875 -15.9375 23.6875 -18 22 C-18 21.34 -18 20.68 -18 20 C-17.484375 20.165 -16.96875 20.33 -16.4375 20.5 C-13.16039147 21.17222739 -10.33610088 21.3032819 -7 21 C-2.01421801 16.70191208 -1.75952656 9.00246269 -1.24609375 2.8203125 C-1 1 -1 1 0 0 Z " fill="#280054" transform="translate(101,408)"/>
<path d="M0 0 C-3.91233342 6.63019336 -3.91233342 6.63019336 -8.125 8.0625 C-11 8 -11 8 -14 6 C-14 4.68 -14 3.36 -14 2 C-12.23225581 1.46877637 -10.46065917 0.95035927 -8.6875 0.4375 C-7.70136719 0.14746094 -6.71523437 -0.14257812 -5.69921875 -0.44140625 C-3 -1 -3 -1 0 0 Z " fill="#F2265B" transform="translate(86,344)"/>
<path d="M0 0 C1.9375 0.5625 1.9375 0.5625 4 2 C5.0625 5.3125 5.0625 5.3125 5 9 C2.21794204 12.68213553 -0.53364456 14.83024024 -5 16 C-7.3320802 16.07646165 -9.66845878 16.09143299 -12 16 C-11 14 -11 14 -8.78515625 13.21875 C-7.88667969 12.9815625 -6.98820312 12.744375 -6.0625 12.5 C-2.11648443 11.50524763 -2.11648443 11.50524763 1 9 C1.25288404 5.79680216 0.91026797 3.07215439 0 0 Z " fill="#580955" transform="translate(363,221)"/>
<path d="M0 0 C-0.75 5.75 -0.75 5.75 -3 8 C-8.45454545 7.54545455 -8.45454545 7.54545455 -11 5 C-11 4.01 -11 3.02 -11 2 C-7.12315913 0.80712589 -4.08378077 0 0 0 Z " fill="#F0265B" transform="translate(336,245)"/>
<path d="M0 0 C0 3.99711412 -1.32141544 5.1042329 -4 8 C-7.69824806 10.8223472 -10.35969429 11.60525727 -15 11 C-16.875 9.8125 -16.875 9.8125 -18 8 C-18.1875 5.3125 -18.1875 5.3125 -18 3 C-17.01 3.495 -17.01 3.495 -16 4 C-15.67 4.99 -15.34 5.98 -15 7 C-11.55045695 7.61914875 -9.54607484 7.3542827 -6.59765625 5.44140625 C-4.35032577 3.67691455 -2.15431299 1.87664598 0 0 Z " fill="#3B0354" transform="translate(70,348)"/>
<path d="M0 0 C0.99 0 1.98 0 3 0 C3 1.65 3 3.3 3 5 C4.32 5.66 5.64 6.32 7 7 C6.814375 7.763125 6.62875 8.52625 6.4375 9.3125 C5.77180827 12.08967375 5.77180827 12.08967375 7 15 C4.6875 15.25 4.6875 15.25 2 15 C0.1875 13 0.1875 13 -1 11 C-0.01 10.01 0.98 9.02 2 8 C1.34 7.34 0.68 6.68 0 6 C-0.125 2.875 -0.125 2.875 0 0 Z " fill="#F7275B" transform="translate(57,274)"/>
<path d="M0 0 C1.45792884 -0.05399736 2.91642712 -0.09279177 4.375 -0.125 C5.18710937 -0.14820313 5.99921875 -0.17140625 6.8359375 -0.1953125 C9 0 9 0 11 2 C11.125 5.125 11.125 5.125 11 8 C7.20081162 7.48659616 5.56865214 6.7920132 3 4 C0.90010348 2.82425289 0.90010348 2.82425289 -1 2 C-0.67 1.34 -0.34 0.68 0 0 Z " fill="#DC325D" transform="translate(336,256)"/>
<path d="M0 0 C0.66 0.33 1.32 0.66 2 1 C1.95875 1.94875 1.9175 2.8975 1.875 3.875 C1.65026182 7.10244856 1.65026182 7.10244856 4 9 C7.36423199 9.02106594 7.36423199 9.02106594 11.125 8.625 C12.40632813 8.51414062 13.68765625 8.40328125 15.0078125 8.2890625 C15.99523437 8.19367188 16.98265625 8.09828125 18 8 C15.51388221 10.72289091 13.64543604 11.84242601 9.87890625 12.203125 C6.39652838 12.2735947 3.68297449 12.28318454 0.4375 10.9375 C-1.74689424 7.99331646 -1.32315721 5.5547293 -1 2 C-0.67 1.34 -0.34 0.68 0 0 Z " fill="#360253" transform="translate(36,338)"/>
<path d="M0 0 C4.29 0 8.58 0 13 0 C11.02 0.99 11.02 0.99 9 2 C8.2884375 3.051875 8.2884375 3.051875 7.5625 4.125 C6 6 6 6 3.4375 6.4375 C2.633125 6.293125 1.82875 6.14875 1 6 C0.34 5.01 -0.32 4.02 -1 3 C-0.67 2.01 -0.34 1.02 0 0 Z " fill="#C8255F" transform="translate(76,295)"/>
<path d="M0 0 C0.66 0 1.32 0 2 0 C3.58210274 5.52460071 4.02768891 11.51191106 1.8125 16.875 C-1.1767588 20.37964825 -4.63039282 23.3978107 -9 25 C-9.99 24.67 -10.98 24.34 -12 24 C-11.31292969 23.63648438 -10.62585938 23.27296875 -9.91796875 22.8984375 C-2.72154055 19.01567497 -2.72154055 19.01567497 1 12 C1.29409129 7.80919907 0.98846448 4.07741597 0 0 Z " fill="#380B59" transform="translate(390,284)"/>
<path d="M0 0 C0.66 0.33 1.32 0.66 2 1 C1.49785005 5.39381209 0.07786311 7.83419795 -3 11 C-5.25 11.8125 -5.25 11.8125 -7 12 C-7 11.01 -7 10.02 -7 9 C-6.21625 8.38125 -5.4325 7.7625 -4.625 7.125 C-1.81916294 4.85360809 -1.03665668 3.39269458 0 0 Z " fill="#410553" transform="translate(116,403)"/>
<path d="M0 0 C3.73487777 0.4979837 5.81237635 0.87491756 9 3 C5.77208445 5.1519437 4.71599191 5.20086443 1 5 C0.67 3.35 0.34 1.7 0 0 Z " fill="#F1265B" transform="translate(65,292)"/>
<path d="M0 0 C0.99 0 1.98 0 3 0 C3 1.65 3 3.3 3 5 C4.32 5.66 5.64 6.32 7 7 C7 7.66 7 8.32 7 9 C2.25 8.25 2.25 8.25 0 6 C-0.125 2.875 -0.125 2.875 0 0 Z " fill="#340451" transform="translate(57,274)"/>
<path d="M0 0 C0.99 0.495 0.99 0.495 2 1 C2.33 1.99 2.66 2.98 3 4 C5.50447516 5.21869929 5.50447516 5.21869929 8 6 C8 6.66 8 7.32 8 8 C3.55063291 8.36075949 3.55063291 8.36075949 1.1875 6.8125 C-0.36678206 4.44017475 -0.22537188 2.77958655 0 0 Z " fill="#24004C" transform="translate(52,351)"/>
<path d="M0 0 C3.36720387 1.39332574 4.9859524 2.9789286 7 6 C3.65626525 5.44271087 0.96687001 4.64826111 -2 3 C-1.34 2.01 -0.68 1.02 0 0 Z " fill="#F93263" transform="translate(84,271)"/>
<path d="M0 0 C0.33 0.99 0.66 1.98 1 3 C-1 5 -1 5 -3.5 5.3125 C-4.325 5.209375 -5.15 5.10625 -6 5 C-6.66 4.01 -7.32 3.02 -8 2 C-7.05125 2.04125 -6.1025 2.0825 -5.125 2.125 C-1.89755144 2.34973818 -1.89755144 2.34973818 0 0 Z " fill="#260053" transform="translate(83,296)"/>
<path d="M0 0 C0 0.66 0 1.32 0 2 C-3.47325181 3.1577506 -6.36067448 3.06866652 -10 3 C-9 1 -9 1 -7.25 0.375 C-4.79549443 -0.03408426 -2.4840589 -0.06900164 0 0 Z " fill="#2C0154" transform="translate(361,234)"/>
<path d="M0 0 C1.485 0.99 1.485 0.99 3 2 C4.9896995 2.39013716 6.99019869 2.73202649 9 3 C9 3.33 9 3.66 9 4 C7.35 4 5.7 4 4 4 C3.67 4.66 3.34 5.32 3 6 C1.68 4.68 0.36 3.36 -1 2 C-0.67 1.34 -0.34 0.68 0 0 Z " fill="#4D0753" transform="translate(56,286)"/>
<path d="M0 0 C4.875 4.625 4.875 4.625 6 8 C5.01 8.33 4.02 8.66 3 9 C2.01 6.03 1.02 3.06 0 0 Z " fill="#02E6EF" transform="translate(339,87)"/>
<path d="M0 0 C3.63 0.33 7.26 0.66 11 1 C11 1.33 11 1.66 11 2 C9.02 2 7.04 2 5 2 C4.67 2.66 4.34 3.32 4 4 C2.68 3.67 1.36 3.34 0 3 C0 2.01 0 1.02 0 0 Z " fill="#4B0955" transform="translate(388,314)"/>
<path d="M0 0 C1.9375 0.625 1.9375 0.625 4 2 C4.75 5.125 4.75 5.125 5 8 C4.34 8 3.68 8 3 8 C0.95830515 5.09451118 0 3.59857954 0 0 Z " fill="#28004E" transform="translate(363,221)"/>
<path d="M0 0 C4.455 0.99 4.455 0.99 9 2 C8.01 2.33 7.02 2.66 6 3 C5.67 3.66 5.34 4.32 5 5 C2.5 3.625 2.5 3.625 0 2 C0 1.34 0 0.68 0 0 Z " fill="#380354" transform="translate(83,428)"/>
<path d="M0 0 C0.66 0.33 1.32 0.66 2 1 C2 3.31 2 5.62 2 8 C1.01 8.33 0.02 8.66 -1 9 C-1.125 2.25 -1.125 2.25 0 0 Z " fill="#29014E" transform="translate(36,338)"/>
<path d="M0 0 C-2.91708924 1.98362069 -4.12380904 1.9876191 -7.75 1.625 C-8.8225 1.41875 -9.895 1.2125 -11 1 C-11 0.67 -11 0.34 -11 0 C-6.98195309 -0.84098656 -3.98196457 -1.05404945 0 0 Z " fill="#5C1E63" transform="translate(380,309)"/>
<path d="M0 0 C1.32 0.33 2.64 0.66 4 1 C3.67 2.32 3.34 3.64 3 5 C2.01 4.67 1.02 4.34 0 4 C0 2.68 0 1.36 0 0 Z " fill="#380D5B" transform="translate(355,278)"/>
</svg>
