<?xml version="1.0" encoding="UTF-8"?>
<svg version="1.1" xmlns="http://www.w3.org/2000/svg" width="512" height="512">
<path d="M0 0 C1.175625 1.11181641 1.175625 1.11181641 2.375 2.24609375 C3.15875 2.97699219 3.9425 3.70789063 4.75 4.4609375 C10.09644721 9.59966801 14.36726828 15.01720951 18.375 21.24609375 C19.16197266 22.41591797 19.16197266 22.41591797 19.96484375 23.609375 C28.64677262 37.10723388 31.3830315 52.5817955 33.44433594 68.22631836 C35.18484758 84.45846998 35.18484758 84.45846998 44.375 97.24609375 C44.705 97.57609375 45.035 97.90609375 45.375 98.24609375 C48.17875271 98.74113837 50.99038811 99.14660573 53.80859375 99.55078125 C56.375 100.24609375 56.375 100.24609375 58.375 103.24609375 C58.45405064 105.57808763 58.46298769 107.91441997 58.375 110.24609375 C59.11105469 109.96894531 59.84710938 109.69179688 60.60546875 109.40625 C61.58128906 109.04402344 62.55710937 108.68179688 63.5625 108.30859375 C64.52542969 107.94894531 65.48835938 107.58929688 66.48046875 107.21875 C73.06885472 105.00483893 79.48413579 103.85228422 85.875 106.93359375 C89.63835876 108.34485329 89.98284915 108.34954173 93.4375 106.93359375 C94.09878906 106.63195312 94.76007813 106.3303125 95.44140625 106.01953125 C98.11927507 104.94838372 100.53073077 105.03277356 103.375 105.24609375 C103.48972656 104.37597656 103.60445313 103.50585938 103.72265625 102.609375 C105.76985276 92.05466727 111.8560516 84.47656688 120.375 78.24609375 C128.51420884 73.03284138 136.87666111 71.18912864 146.375 73.24609375 C152.52071694 75.25107942 156.91313228 78.7837696 160.375 84.24609375 C162.14805547 89.34362822 161.2669398 94.28763485 159.375 99.24609375 C157.31355202 102.79911827 155.10099914 106.16648623 152.375 109.24609375 C151.715 109.24609375 151.055 109.24609375 150.375 109.24609375 C150.705 110.89609375 151.035 112.54609375 151.375 114.24609375 C150.75085205 114.31991272 150.1267041 114.39373169 149.48364258 114.4697876 C147.21097425 115.0426089 147.21097425 115.0426089 146.3347168 117.17034912 C144.58590695 123.42560155 144.00541659 129.03464636 144.1875 135.51171875 C144.19885986 136.46641052 144.21021973 137.42110229 144.22192383 138.40472412 C144.27012969 142.43114313 144.35358446 146.45659039 144.43652344 150.48242188 C144.95270747 177.99412497 143.34451134 211.15208565 123.375 232.24609375 C119.26179195 236.40259872 116.01437629 238.50057252 110.375 240.24609375 C110.045 241.23609375 109.715 242.22609375 109.375 243.24609375 C87.33782082 252.24761912 62.6648181 247.01783266 41.50878906 238.23925781 C37.0094162 236.1450417 32.69852047 233.67788889 28.375 231.24609375 C28.40529297 231.860896 28.43558594 232.47569824 28.46679688 233.10913086 C29.19558273 248.40382327 29.47623661 263.6408568 29.33789062 278.94897461 C29.29857377 284.54234396 29.26451006 290.03473151 30 295.58984375 C30.375 300.24609375 30.375 300.24609375 28.375 310.24609375 C-31.355 310.24609375 -91.085 310.24609375 -152.625 310.24609375 C-152.625 310.90609375 -152.625 311.56609375 -152.625 312.24609375 C-153.945 312.24609375 -155.265 312.24609375 -156.625 312.24609375 C-156.625 311.58609375 -156.625 310.92609375 -156.625 310.24609375 C-163.95747511 310.3637126 -171.28980192 310.48854382 -178.62207031 310.6184082 C-181.11683361 310.66174035 -183.61162623 310.70341666 -186.10644531 310.7434082 C-189.69084516 310.80115211 -193.2750976 310.8648351 -196.859375 310.9296875 C-197.97616638 310.94639999 -199.09295776 310.96311249 -200.24359131 310.98033142 C-201.28436829 311.00027664 -202.32514526 311.02022186 -203.39746094 311.04077148 C-204.31235291 311.05631577 -205.22724487 311.07186005 -206.16986084 311.08787537 C-208.61614636 311.17015298 -208.61614636 311.17015298 -210.88922119 311.82142639 C-211.7484317 312.03163673 -211.7484317 312.03163673 -212.625 312.24609375 C-216.70844993 308.16264382 -214.78667136 294.38066758 -214.79296875 288.796875 C-214.79796135 287.21243843 -214.79796135 287.21243843 -214.80305481 285.59599304 C-214.80808375 283.37495352 -214.81046439 281.15390654 -214.81030273 278.93286133 C-214.81248302 275.5846676 -214.83066556 272.23680729 -214.84960938 268.88867188 C-214.8942079 252.29547911 -214.15652528 237.02650568 -208.625 221.24609375 C-208.295 220.25609375 -207.965 219.26609375 -207.625 218.24609375 C-208.27984375 217.86839844 -208.9346875 217.49070312 -209.609375 217.1015625 C-219.58049007 211.08790977 -229.1249965 203.68999391 -235.24609375 193.609375 C-236.61903621 191.95851597 -236.61903621 191.95851597 -239.28515625 192.0390625 C-240.05730469 192.10738281 -240.82945312 192.17570313 -241.625 192.24609375 C-241.7178125 193.97859375 -241.7178125 193.97859375 -241.8125 195.74609375 C-242.63373006 202.17906256 -245.70506703 206.64614961 -250.625 210.74609375 C-255.31991525 213.09355138 -255.31991525 213.09355138 -258.625 212.24609375 C-260.58623438 210.38184349 -262.01721611 208.45105452 -263.625 206.24609375 C-265.02725285 208.97064644 -266.22542966 211.71996174 -267.375 214.55859375 C-269.55424671 219.51515112 -272.63441375 224.75080062 -277.625 227.24609375 C-282.20482154 227.87593168 -285.58343953 227.85367069 -289.625 225.49609375 C-292.60229548 220.6579886 -292.52699298 215.83249378 -292.625 210.24609375 C-293.285 210.96796875 -293.945 211.68984375 -294.625 212.43359375 C-299.59981802 217.42262554 -305.38419248 220.9273258 -312.4375 221.62109375 C-315.66496678 221.5794106 -317.4994278 221.03352136 -320.0625 219.05859375 C-322.76283228 216.09481442 -323.32630571 215.12337534 -323.625 211.24609375 C-321.72610337 205.6968068 -318.54033709 200.5964683 -314.625 196.24609375 C-315.58599609 196.38917969 -315.58599609 196.38917969 -316.56640625 196.53515625 C-322.20965378 197.25843388 -326.30874624 197.3504442 -331.625 195.24609375 C-334.0952708 192.77582295 -334.39371663 191.71534423 -334.625 188.24609375 C-333.33682482 183.43690642 -332.00036341 181.15329815 -327.8125 178.43359375 C-324.53394434 176.5913 -321.26168298 175.24618157 -317.625 174.24609375 C-318.31207031 173.94316406 -318.99914062 173.64023437 -319.70703125 173.328125 C-327.08004087 169.9000447 -327.08004087 169.9000447 -329.8125 166.62109375 C-330.625 164.24609375 -330.625 164.24609375 -329.625 161.24609375 C-323.17123838 155.86795907 -315.6278454 156.67312008 -307.625 157.24609375 C-306.635 157.57609375 -305.645 157.90609375 -304.625 158.24609375 C-305.285 157.37984375 -305.945 156.51359375 -306.625 155.62109375 C-308.75880371 152.02029999 -309.2763089 150.34003538 -308.625 146.24609375 C-303.73479241 142.98595536 -298.34732383 143.79944178 -292.625 144.24609375 C-289.184776 145.00137135 -285.91668444 145.99778001 -282.625 147.24609375 C-282.955 146.58609375 -283.285 145.92609375 -283.625 145.24609375 C-283.875 142.24609375 -283.875 142.24609375 -283.625 139.24609375 C-278.14266885 135.59120632 -270.27914894 136.63266209 -263.92578125 137.69921875 C-262.14067969 138.14789778 -260.37805571 138.68511592 -258.625 139.24609375 C-258.955 135.61609375 -259.285 131.98609375 -259.625 128.24609375 C-261.275 128.24609375 -262.925 128.24609375 -264.625 128.24609375 C-264.83125 128.82359375 -265.0375 129.40109375 -265.25 129.99609375 C-267.22671756 133.23072249 -269.26714101 134.50498168 -272.625 136.24609375 C-275.60072416 136.80861249 -277.53059037 136.65191796 -280.625 136.24609375 C-282.625 134.43359375 -282.625 134.43359375 -283.625 132.24609375 C-283.625 131.25609375 -283.625 130.26609375 -283.625 129.24609375 C-284.23988281 129.66761719 -284.85476563 130.08914063 -285.48828125 130.5234375 C-286.29652344 131.07128906 -287.10476563 131.61914062 -287.9375 132.18359375 C-288.73800781 132.72886719 -289.53851563 133.27414062 -290.36328125 133.8359375 C-294.54817861 136.44517402 -298.78936974 136.94662771 -303.625 136.24609375 C-306.125 134.55859375 -306.125 134.55859375 -307.625 132.24609375 C-308.0625 129.74609375 -308.0625 129.74609375 -307.625 127.24609375 C-306.66163777 125.88605295 -305.6651487 124.54834889 -304.625 123.24609375 C-305.33785156 123.28089844 -306.05070312 123.31570313 -306.78515625 123.3515625 C-312.90569694 123.52455221 -317.27352104 123.32034762 -322.625 120.24609375 C-324.93832486 116.77610646 -324.96457563 115.32100127 -324.625 111.24609375 C-322.11280847 107.47780645 -319.72818974 106.9619731 -315.625 105.24609375 C-315.295 104.58609375 -314.965 103.92609375 -314.625 103.24609375 C-315.73875 102.87484375 -315.73875 102.87484375 -316.875 102.49609375 C-319.95723096 101.09507968 -321.63869297 99.99636502 -323.625 97.24609375 C-323.6875 94.18359375 -323.6875 94.18359375 -322.625 91.24609375 C-319.43966439 88.1635109 -316.55789393 88.07663367 -312.3125 88.05859375 C-310.74948483 88.106511 -309.18660485 88.1642232 -307.625 88.24609375 C-308.615 86.91578125 -308.615 86.91578125 -309.625 85.55859375 C-311.61360067 82.26497389 -312.06235074 80.96357502 -311.625 77.24609375 C-308.55305092 75.71011921 -306.02255707 76.01958995 -302.625 76.24609375 C-299.32521641 77.64215604 -296.604397 79.25982909 -293.625 81.24609375 C-292.965 78.93609375 -292.305 76.62609375 -291.625 74.24609375 C-288.76348362 73.68623185 -287.40105065 73.49963373 -284.625 74.24609375 C-280.99215528 76.95095492 -277.80190726 80.02444132 -274.625 83.24609375 C-273.635 81.59609375 -272.645 79.94609375 -271.625 78.24609375 C-265.9152045 78.66388366 -263.01542858 80.82155946 -258.625 84.24609375 C-257.965 81.93609375 -257.305 79.62609375 -256.625 77.24609375 C-258.935 77.24609375 -261.245 77.24609375 -263.625 77.24609375 C-264.285 75.92609375 -264.945 74.60609375 -265.625 73.24609375 C-266.65560547 73.29830078 -266.65560547 73.29830078 -267.70703125 73.3515625 C-268.60808594 73.37863281 -269.50914062 73.40570313 -270.4375 73.43359375 C-271.77748047 73.48580078 -271.77748047 73.48580078 -273.14453125 73.5390625 C-275.625 73.24609375 -275.625 73.24609375 -277.4609375 71.8984375 C-278.625 70.24609375 -278.625 70.24609375 -278.4375 67.62109375 C-277.625 65.24609375 -277.625 65.24609375 -275.625 64.24609375 C-276.45644531 63.95605469 -276.45644531 63.95605469 -277.3046875 63.66015625 C-278.02914062 63.39976562 -278.75359375 63.139375 -279.5 62.87109375 C-280.21929687 62.61585938 -280.93859375 62.360625 -281.6796875 62.09765625 C-283.625 61.24609375 -283.625 61.24609375 -285.625 59.24609375 C-285.625 57.92609375 -285.625 56.60609375 -285.625 55.24609375 C-282.625 52.99609375 -282.625 52.99609375 -279.625 51.24609375 C-280.285 50.25609375 -280.945 49.26609375 -281.625 48.24609375 C-281.25 45.05859375 -281.25 45.05859375 -280.625 42.24609375 C-277.83676345 41.21341355 -276.7572726 41.20100082 -273.875 42.18359375 C-273.1325 42.53421875 -272.39 42.88484375 -271.625 43.24609375 C-271.295 41.26609375 -270.965 39.28609375 -270.625 37.24609375 C-265.09691011 37.87428578 -265.09691011 37.87428578 -262.5625 39.87109375 C-260.64225856 41.55776887 -260.64225856 41.55776887 -257.875 40.93359375 C-257.1325 40.70671875 -256.39 40.47984375 -255.625 40.24609375 C-254.903125 41.23609375 -254.18125 42.22609375 -253.4375 43.24609375 C-251.25216848 45.93827884 -251.25216848 45.93827884 -247.8125 46.62109375 C-247.090625 46.49734375 -246.36875 46.37359375 -245.625 46.24609375 C-245.25761719 45.21548828 -245.25761719 45.21548828 -244.8828125 44.1640625 C-243.4058634 40.73772407 -241.52717586 37.67640393 -239.5 34.55859375 C-239.10039062 33.94209961 -238.70078125 33.32560547 -238.2890625 32.69042969 C-234.72225724 27.26403213 -230.84474837 22.18409717 -226.625 17.24609375 C-225.92761719 16.41464844 -225.23023438 15.58320313 -224.51171875 14.7265625 C-219.09348504 8.46142902 -213.16736758 3.30480966 -206.625 -1.75390625 C-205.72265625 -2.48351562 -204.8203125 -3.213125 -203.890625 -3.96484375 C-145.80265059 -49.6970888 -54.79911683 -50.67161925 0 0 Z M52.375 181.24609375 C52.375 181.90609375 52.375 182.56609375 52.375 183.24609375 C53.365 183.57609375 54.355 183.90609375 55.375 184.24609375 C55.045 183.25609375 54.715 182.26609375 54.375 181.24609375 C53.715 181.24609375 53.055 181.24609375 52.375 181.24609375 Z " fill="#FEAFC2" transform="translate(342.625,186.75390625)"/>
<path d="M0 0 C15.76369724 11.15903831 23.98051379 24.63866872 27.3125 43.4375 C27.76473691 46.12442679 28.20045324 48.81255215 28.61450195 51.50561523 C29.0527293 54.34118763 29.52435052 57.17048883 30 60 C30.27674561 59.28457031 30.55349121 58.56914063 30.83862305 57.83203125 C32.11317592 54.55135073 33.40022352 51.2757078 34.6875 48 C35.12255859 46.87464844 35.55761719 45.74929687 36.00585938 44.58984375 C42.44492828 28.27753586 42.44492828 28.27753586 47 26 C59.21940995 24.59626364 70.78978879 28.6242919 81.625 33.875 C82.28781982 34.19017578 82.95063965 34.50535156 83.63354492 34.83007812 C88.23809208 37.18515209 91.04794656 39.72906337 94 44 C94.25 47.6875 94.25 47.6875 94 51 C94.33 51.99 94.66 52.98 95 54 C95.58265625 53.855625 96.1653125 53.71125 96.765625 53.5625 C103.43787264 52.05180242 110.18082753 50.90569 117 52 C119.75814021 54.15854451 120.47643677 55.0356759 122 58 C122.75023437 59.36318359 122.75023437 59.36318359 123.515625 60.75390625 C128.30953907 69.86467012 131.40506045 78.83842637 133 89 C133.15597656 89.71414062 133.31195313 90.42828125 133.47265625 91.1640625 C133.75 93.1875 133.75 93.1875 133 97 C126.31712377 104.22516213 114.9471735 108.22295856 106 112 C105.34 112 104.68 112 104 112 C104.37511719 112.556875 104.75023437 113.11375 105.13671875 113.6875 C106.20798147 115.28494969 107.27268418 116.88681118 108.33203125 118.4921875 C109.37049508 120.05353125 110.42738099 121.60297163 111.51171875 123.1328125 C114.57773677 127.61323997 115.45630667 130.41024324 115 136 C115.33 136.33 115.66 136.66 116 137 C116.78937151 141.03456549 116.55908138 143.0226967 114.49609375 146.62890625 C107.19254517 156.90532784 98.93475704 165.90719948 86.75 170.125 C82.14280035 169.91558183 79.52945775 167.60876297 76.41796875 164.3359375 C75.26365855 163.02213245 74.12526602 161.69423391 73 160.35546875 C69.85063116 156.64634881 66.52840351 153.09609077 63.234375 149.515625 C61.36265914 147.40830854 59.64480338 145.28563587 58 143 C57.5875 143.6496875 57.175 144.299375 56.75 144.96875 C56.1725 145.8040625 55.595 146.639375 55 147.5 C54.443125 148.3353125 53.88625 149.170625 53.3125 150.03125 C50.54583204 152.38665651 48.71111247 152.50174937 45.13183594 152.28808594 C41.67149924 151.82047287 38.43866508 150.96260776 35.125 149.875 C34.43317627 149.65054199 33.74135254 149.42608398 33.02856445 149.19482422 C19.25898425 144.52526608 19.25898425 144.52526608 15.87109375 139.23828125 C15.16139354 137.5253399 14.57671058 135.76217121 14 134 C13.3090625 133.2265625 12.618125 132.453125 11.90625 131.65625 C10 129 10 129 9.8359375 126.22265625 C11.76097262 114.93748661 14.82600427 103.9910426 18 93 C17.33355469 93.78503906 16.66710937 94.57007812 15.98046875 95.37890625 C7.47835079 105.16327509 -1.52768963 111.91778 -14 116 C-14.680625 116.22558594 -15.36125 116.45117188 -16.0625 116.68359375 C-30.43219997 120.62981817 -45.60824819 117.96328102 -58.6875 111.3125 C-69.79684028 104.75456345 -77.23543722 96.86933528 -84 86 C-84.65097656 85.00742188 -85.30195313 84.01484375 -85.97265625 82.9921875 C-95.3808385 68.01100558 -97.9946229 51.09120751 -94.09765625 33.94921875 C-91.22966285 22.80321574 -85.16634633 13.9244859 -77 6 C-76.36320312 5.35417969 -75.72640625 4.70835938 -75.0703125 4.04296875 C-54.44253465 -15.60049605 -22.83792744 -14.89174135 0 0 Z M-78 14 C-86.9328408 25.76682183 -91.55926631 38.17944284 -91 53 C-88.84446875 49.76670313 -88.27860837 47.38299741 -87.375 43.625 C-83.38948504 29.41195033 -74.49630172 17.01311181 -61.5625 9.625 C-46.90996923 2.27792136 -31.09405344 -1.04246917 -15 3.625 C-7.0517977 6.4839197 0.67525546 10.32953938 7 16 C7.99 15.505 7.99 15.505 9 15 C-1.39078454 3.19657104 -15.70524761 -4.98212052 -31.5 -6.19140625 C-49.84263476 -6.9475521 -65.69820433 0.7224787 -78 14 Z M47.43188477 32.09741211 C44.86703884 35.15869644 43.54400264 37.73352636 42.08984375 41.44140625 C41.84081802 42.06900345 41.5917923 42.69660065 41.33522034 43.34321594 C40.52103713 45.41082997 39.72823428 47.48581514 38.9375 49.5625 C38.37109782 51.02555496 37.80469149 52.48860832 37.23828125 53.95166016 C29.51901733 74.05905165 22.32536272 94.56003177 16.75 115.375 C16.46092773 116.45177002 16.46092773 116.45177002 16.16601562 117.55029297 C15.19220061 121.43881715 14.82646816 124.99637244 15 129 C15.66 129 16.32 129 17 129 C17.18473877 128.34966797 17.36947754 127.69933594 17.55981445 127.02929688 C24.67268559 102.1482964 32.66085519 77.63224768 42.5 53.6875 C42.75543579 53.0609552 43.01087158 52.4344104 43.27404785 51.78887939 C43.99627635 50.02597094 44.73220385 48.26869342 45.46875 46.51171875 C45.88576172 45.51615967 46.30277344 44.52060059 46.73242188 43.49487305 C47.95257176 41.09334923 48.85459847 39.61004808 51 38 C62.55149969 36.65232504 74.32292132 41.39434532 84.70703125 46.046875 C86.89393847 47.12794445 86.89393847 47.12794445 89 47 C89 46.01 89 45.02 89 44 C80.99902488 37.5213343 56.6392643 24.57762909 47.43188477 32.09741211 Z M-42.3125 50.4375 C-43.83211962 52.74507054 -44.59986624 54.29909712 -45 57 C-39.96835596 61.10476224 -37.64516785 62.55376399 -31 62 C-26.64920085 59.74093121 -23.98303271 57.51690784 -22 53 C-21.74803871 50.29046449 -21.74803871 50.29046449 -22 48 C-29.7059038 43.5966264 -35.985384 43.76837773 -42.3125 50.4375 Z M-18 55 C-18.36351562 55.54269531 -18.72703125 56.08539063 -19.1015625 56.64453125 C-22.233893 61.10207851 -24.61906912 64.31186482 -30 66 C-34.76616665 66.4394338 -39.35210798 66.199456 -44 65 C-41.99519993 69.51080017 -39.48012441 71.37021867 -35.1171875 73.3359375 C-31.7221593 74.40079874 -29.37668626 74.00049963 -26 73 C-21.65106323 70.65826482 -19.04560419 68.5218619 -17 64 C-16.10169161 60.94727535 -16.10169161 60.94727535 -16 58 C-16.66 57.01 -17.32 56.02 -18 55 Z M101.8125 57.125 C100.60207031 57.33382812 99.39164063 57.54265625 98.14453125 57.7578125 C94.7675957 58.75054799 94.7675957 58.75054799 93.01171875 61.9296875 C91.66467522 64.98943438 91.66467522 64.98943438 93 68 C94.12277344 67.72285156 95.24554688 67.44570312 96.40234375 67.16015625 C103.92185053 65.33083756 111.25916162 63.56297006 119 63 C117.02 59.535 117.02 59.535 115 56 C110.46149696 55.87489578 106.27542123 56.29268672 101.8125 57.125 Z " fill="#7AFD9D" transform="translate(327,24)"/>
<path d="M0 0 C23.7017119 4.88831293 23.7017119 4.88831293 28.44140625 10.796875 C29.24024181 13.94752715 28.33111994 15.77017428 27.125 18.75 C26.73570312 19.73484375 26.34640625 20.7196875 25.9453125 21.734375 C25.63335937 22.48203125 25.32140625 23.2296875 25 24 C27.97 23.34 30.94 22.68 34 22 C33.67 24.64 33.34 27.28 33 30 C34.12277344 29.71125 35.24554688 29.4225 36.40234375 29.125 C53.33557037 24.86711407 53.33557037 24.86711407 59 26 C61.39295486 28.35651393 62.66782074 30.94382405 64 34 C64.31839844 34.68191406 64.63679688 35.36382812 64.96484375 36.06640625 C66.81094609 40.4136795 67.73184467 44.24300966 67 49 C63.43550156 52.33217545 59.35773348 54.62242349 55.0625 56.875 C54.41659912 57.21724609 53.77069824 57.55949219 53.10522461 57.91210938 C46.56167454 61.32406363 39.83350561 64.2202689 33 67 C34.38138996 71.02905406 36.27144272 73.7507639 39 77 C40.36458564 78.84651223 41.71867553 80.70082409 43.0625 82.5625 C45.79893083 86.37789164 45.79893083 86.37789164 48.74609375 90.02734375 C50.38213585 92.60117945 50.45940888 93.99760052 50 97 C48.64453125 99.24609375 48.64453125 99.24609375 46.8125 101.4375 C46.16539062 102.21738281 45.51828125 102.99726563 44.8515625 103.80078125 C44.24054688 104.52652344 43.62953125 105.25226563 43 106 C41.8553125 107.546875 41.8553125 107.546875 40.6875 109.125 C36.93653357 113.13766176 32.57233221 115.99311034 28 119 C27.01 119.66 26.02 120.32 25 121 C22.640625 121.42578125 22.640625 121.42578125 20 121 C17.421875 118.98046875 17.421875 118.98046875 14.75 116.1875 C14.27618896 115.69628662 13.80237793 115.20507324 13.31420898 114.69897461 C9.29309119 110.4678838 5.58468512 105.99439476 1.97265625 101.41015625 C0.04032518 98.95640693 0.04032518 98.95640693 -2.25390625 96.80859375 C-4 95 -4 95 -4 93 C-8.33164574 94.75857412 -9.7379561 97.41184135 -12.046875 101.3203125 C-14.56867172 103.48905768 -16.56496797 103.47482042 -19.81982422 103.31054688 C-23.4878065 102.78807504 -26.7662918 101.5723527 -30.1875 100.1875 C-31.21520508 99.79594727 -31.21520508 99.79594727 -32.26367188 99.39648438 C-36.07942765 97.90911085 -39.54668923 96.23291745 -43 94 C-42.44479998 86.75238891 -40.81579682 80.29251965 -38.625 73.375 C-38.2741333 72.25544922 -37.9232666 71.13589844 -37.56176758 69.98242188 C-31.46280282 50.77616022 -24.76464591 31.78620257 -17 13.1875 C-16.54326904 12.0840625 -16.08653809 10.980625 -15.6159668 9.84375 C-15.18582275 8.83699219 -14.75567871 7.83023438 -14.3125 6.79296875 C-13.93738281 5.9114917 -13.56226563 5.03001465 -13.17578125 4.12182617 C-10.25162349 -1.15513709 -5.29182526 -0.58798058 0 0 Z " fill="#7AFE9D" transform="translate(387,61)"/>
<path d="M0 0 C15.76369724 11.15903831 23.98051379 24.63866872 27.3125 43.4375 C27.76473691 46.12442679 28.20045324 48.81255215 28.61450195 51.50561523 C29.0527293 54.34118763 29.52435052 57.17048883 30 60 C30.27674561 59.28457031 30.55349121 58.56914063 30.83862305 57.83203125 C32.11317592 54.55135073 33.40022352 51.2757078 34.6875 48 C35.12255859 46.87464844 35.55761719 45.74929687 36.00585938 44.58984375 C42.44492828 28.27753586 42.44492828 28.27753586 47 26 C59.21940995 24.59626364 70.78978879 28.6242919 81.625 33.875 C82.28781982 34.19017578 82.95063965 34.50535156 83.63354492 34.83007812 C88.23809208 37.18515209 91.04794656 39.72906337 94 44 C94.25 47.6875 94.25 47.6875 94 51 C94.33 51.99 94.66 52.98 95 54 C95.58265625 53.855625 96.1653125 53.71125 96.765625 53.5625 C103.43787264 52.05180242 110.18082753 50.90569 117 52 C119.75814021 54.15854451 120.47643677 55.0356759 122 58 C122.75023437 59.36318359 122.75023437 59.36318359 123.515625 60.75390625 C128.30953907 69.86467012 131.40506045 78.83842637 133 89 C133.15597656 89.71414062 133.31195313 90.42828125 133.47265625 91.1640625 C133.75 93.1875 133.75 93.1875 133 97 C126.31712377 104.22516213 114.9471735 108.22295856 106 112 C105.34 112 104.68 112 104 112 C104.37511719 112.556875 104.75023437 113.11375 105.13671875 113.6875 C106.20798147 115.28494969 107.27268418 116.88681118 108.33203125 118.4921875 C109.37049508 120.05353125 110.42738099 121.60297163 111.51171875 123.1328125 C114.57773677 127.61323997 115.45630667 130.41024324 115 136 C115.33 136.33 115.66 136.66 116 137 C116.78937151 141.03456549 116.55908138 143.0226967 114.49609375 146.62890625 C107.19254517 156.90532784 98.93475704 165.90719948 86.75 170.125 C82.14280035 169.91558183 79.52945775 167.60876297 76.41796875 164.3359375 C75.26365855 163.02213245 74.12526602 161.69423391 73 160.35546875 C69.85063116 156.64634881 66.52840351 153.09609077 63.234375 149.515625 C61.36265914 147.40830854 59.64480338 145.28563587 58 143 C57.5875 143.6496875 57.175 144.299375 56.75 144.96875 C56.1725 145.8040625 55.595 146.639375 55 147.5 C54.443125 148.3353125 53.88625 149.170625 53.3125 150.03125 C50.54583204 152.38665651 48.71111247 152.50174937 45.13183594 152.28808594 C41.67149924 151.82047287 38.43866508 150.96260776 35.125 149.875 C34.43317627 149.65054199 33.74135254 149.42608398 33.02856445 149.19482422 C19.25898425 144.52526608 19.25898425 144.52526608 15.87109375 139.23828125 C15.16139354 137.5253399 14.57671058 135.76217121 14 134 C13.3090625 133.2265625 12.618125 132.453125 11.90625 131.65625 C10 129 10 129 9.8359375 126.22265625 C11.76097262 114.93748661 14.82600427 103.9910426 18 93 C17.33355469 93.78503906 16.66710937 94.57007812 15.98046875 95.37890625 C7.47835079 105.16327509 -1.52768963 111.91778 -14 116 C-14.680625 116.22558594 -15.36125 116.45117188 -16.0625 116.68359375 C-30.43219997 120.62981817 -45.60824819 117.96328102 -58.6875 111.3125 C-69.79684028 104.75456345 -77.23543722 96.86933528 -84 86 C-84.65097656 85.00742188 -85.30195313 84.01484375 -85.97265625 82.9921875 C-95.3808385 68.01100558 -97.9946229 51.09120751 -94.09765625 33.94921875 C-91.22966285 22.80321574 -85.16634633 13.9244859 -77 6 C-76.36320312 5.35417969 -75.72640625 4.70835938 -75.0703125 4.04296875 C-54.44253465 -15.60049605 -22.83792744 -14.89174135 0 0 Z M-78 14 C-88.4910351 27.81935978 -92.3330304 41.85950605 -90.2890625 59.03955078 C-88.41008882 71.78292799 -82.17607437 83.9237505 -72 92 C-57.54097008 102.35047781 -43.94870608 107.61057937 -26 106 C-21.43979942 105.11196094 -17.29131915 103.76530585 -13 102 C-12.11957031 101.649375 -11.23914063 101.29875 -10.33203125 100.9375 C5.09928635 94.04723726 14.51308058 80.00757574 21 65 C25.26976133 53.36206646 23.75889905 40.20324151 19 29 C11.36328464 13.74732122 -2.10363604 2.57807925 -17.9375 -3.4375 C-40.13490579 -10.67717114 -62.45897711 -2.77367012 -78 14 Z M47.43188477 32.09741211 C44.86703884 35.15869644 43.54400264 37.73352636 42.08984375 41.44140625 C41.84081802 42.06900345 41.5917923 42.69660065 41.33522034 43.34321594 C40.52103713 45.41082997 39.72823428 47.48581514 38.9375 49.5625 C38.37109782 51.02555496 37.80469149 52.48860832 37.23828125 53.95166016 C29.51901733 74.05905165 22.32536272 94.56003177 16.75 115.375 C16.46092773 116.45177002 16.46092773 116.45177002 16.16601562 117.55029297 C15.19220061 121.43881715 14.82646816 124.99637244 15 129 C15.66 129 16.32 129 17 129 C17.33 129.99 17.66 130.98 18 132 C25.8100585 136.57446283 36.82991922 141.77485435 46 140 C48.13229658 137.83351831 49.78557008 135.60337463 51.45703125 133.06640625 C53 131 53 131 56 130 C56.23332031 130.55171875 56.46664062 131.1034375 56.70703125 131.671875 C58.34019284 134.61255267 60.39339207 136.79077251 62.6875 139.25 C65.77637589 142.58812235 68.84082701 145.93204848 71.8125 149.375 C72.87451624 150.58375853 73.93696868 151.79213407 75 153 C75.86625 153.99 76.7325 154.98 77.625 156 C79.78855371 158.18256929 79.78855371 158.18256929 82.33984375 158.32421875 C87.39884819 157.70762937 91.04904967 154.0175543 95 151 C96.010625 150.278125 97.02125 149.55625 98.0625 148.8125 C102.90965241 144.63584706 109.0819702 137.83959761 110.578125 131.58203125 C109.6842768 127.58991191 107.36111445 124.87387202 104.875 121.6875 C104.37379639 121.02468018 103.87259277 120.36186035 103.35620117 119.67895508 C101.91543443 117.77697509 100.46058409 115.88678389 99 114 C93 106.19659735 93 106.19659735 93 104 C94.01984985 103.54729736 94.01984985 103.54729736 95.06030273 103.08544922 C98.18989212 101.69044319 101.31365789 100.2828261 104.4375 98.875 C105.50677734 98.400625 106.57605469 97.92625 107.67773438 97.4375 C118.04164608 92.8420042 118.04164608 92.8420042 127 86 C127.3856744 80.66705404 126.52608947 76.98977156 124.375 72.125 C124.10864746 71.52220215 123.84229492 70.9194043 123.56787109 70.29833984 C121.22669442 65.15927189 118.3709064 60.518449 115 56 C104.69890383 56.40396456 94.983172 58.61513113 85 61 C85.28875 60.27554688 85.5775 59.55109375 85.875 58.8046875 C89.13041968 51.5192657 89.13041968 51.5192657 89 44 C81.1120095 37.43231692 56.56832674 24.63556469 47.43188477 32.09741211 Z " fill="#270755" transform="translate(327,24)"/>
<path d="M0 0 C2.0625 0.4375 2.0625 0.4375 4 1 C4.35892928 7.60695756 3.91053347 12.06251172 1 18 C-0.66977909 23.04728679 0.61520182 27.82775489 1.4375 32.9375 C2.82720248 42.53332528 3.33713326 51.99421488 3.375 61.6875 C3.39518188 63.54652954 3.39518188 63.54652954 3.41577148 65.44311523 C3.36004128 77.11741583 1.93506771 88.85044566 -6.515625 97.5625 C-11.36407821 101.87223618 -15.96809024 102.48597156 -22.27734375 102.40234375 C-29.62326043 101.31679222 -35.78108548 96.13732713 -40.296875 90.4609375 C-51.5648076 74.17929177 -58.92744968 53.29648309 -60.9765625 33.625 C-61.81168547 30.62371718 -61.81168547 30.62371718 -65.3828125 29.2734375 C-67.17332031 28.64308594 -67.17332031 28.64308594 -69 28 C-72.96760067 25.45876817 -76.06039278 22.3355926 -78 18 C-77.505 16.515 -77.505 16.515 -77 15 C-75.25 15.125 -75.25 15.125 -73 16 C-71.65668346 17.99330842 -70.32405988 19.99384866 -69 22 C-62.60478882 26.6365281 -55.67621623 26.69962946 -48 26 C-40.6764372 23.90241655 -37.10178655 19.15267982 -33 13 C-30.65891748 13.87790594 -28.40357142 14.76555274 -26.23828125 16.0234375 C-20.81790499 19.1239367 -16.20111731 19.8606902 -10 19 C-5.75442392 17.50558121 -5.75442392 17.50558121 -2.87890625 14.24609375 C-1.82389159 11.54994517 -1.61856226 9.197939 -1.4375 6.3125 C-1.09915014 1.09915014 -1.09915014 1.09915014 0 0 Z " fill="#2B0555" transform="translate(293,261)"/>
<path d="M0 0 C3.21222329 0.742934 5.94123691 1.73430493 9 3 C6.42684706 4.71543529 4.50214725 5.64483267 1.640625 6.6640625 C-27.01019139 16.72960419 -27.01019139 16.72960419 -47.09765625 38.28515625 C-47.80950199 40.16244246 -48.41679512 42.07885452 -49 44 C-47.515 44.495 -47.515 44.495 -46 45 C-45.91363281 45.72445312 -45.82726562 46.44890625 -45.73828125 47.1953125 C-44.79905272 53.65789412 -43.9423014 57.6068432 -39 62 C-31.33735822 66.69141333 -22.49209541 65.7602283 -14 63.8125 C2.37445902 59.22850431 15.82425588 50.80770601 28.5859375 39.76171875 C31 38 31 38 34.1875 38 C37 39 37 39 38.4375 40.8125 C39.07366994 43.28649422 38.85039667 44.61888932 38 47 C36.515 46.505 36.515 46.505 35 46 C34.67 45.34 34.34 44.68 34 44 C33.01 44 32.02 44 31 44 C30.01 48.95 30.01 48.95 29 54 C27.68 54.33 26.36 54.66 25 55 C24.9071875 56.7325 24.9071875 56.7325 24.8125 58.5 C23.99126994 64.93296881 20.91993297 69.40005586 16 73.5 C11.30508475 75.84745763 11.30508475 75.84745763 8 75 C6.03876562 73.13574974 4.60778389 71.20496077 3 69 C1.59774715 71.72455269 0.39957034 74.47386799 -0.75 77.3125 C-2.92924671 82.26905737 -6.00941375 87.50470687 -11 90 C-15.57982154 90.62983793 -18.95843953 90.60757694 -23 88.25 C-25.97729548 83.41189485 -25.90199298 78.58640003 -26 73 C-26.66 73.721875 -27.32 74.44375 -28 75.1875 C-32.97481802 80.17653179 -38.75919248 83.68123205 -45.8125 84.375 C-49.03996678 84.33331685 -50.8744278 83.78742761 -53.4375 81.8125 C-56.13783228 78.84872067 -56.70130571 77.87728159 -57 74 C-55.10110337 68.45071305 -51.91533709 63.35037455 -48 59 C-48.64066406 59.09539062 -49.28132813 59.19078125 -49.94140625 59.2890625 C-55.58465378 60.01234013 -59.68374624 60.10435045 -65 58 C-67.4702708 55.5297292 -67.76871663 54.46925048 -68 51 C-66.71182482 46.19081267 -65.37536341 43.9072044 -61.1875 41.1875 C-57.90894434 39.34520625 -54.63668298 38.00008782 -51 37 C-51.68707031 36.69707031 -52.37414063 36.39414062 -53.08203125 36.08203125 C-60.45504087 32.65395095 -60.45504087 32.65395095 -63.1875 29.375 C-64 27 -64 27 -63 24 C-56.54623838 18.62186532 -49.0028454 19.42702633 -41 20 C-40.01 20.33 -39.02 20.66 -38 21 C-38.99 19.700625 -38.99 19.700625 -40 18.375 C-42.13380371 14.77420624 -42.6513089 13.09394163 -42 9 C-37.10979241 5.73986161 -31.72232383 6.55334803 -26 7 C-22.559776 7.7552776 -19.29168444 8.75168626 -16 10 C-16.495 9.01 -16.495 9.01 -17 8 C-17.25 5 -17.25 5 -17 2 C-11.91697682 -1.38868212 -5.94029031 -0.44359311 0 0 Z " fill="#FA285B" transform="translate(76,324)"/>
<path d="M0 0 C1.175625 1.11181641 1.175625 1.11181641 2.375 2.24609375 C3.15875 2.97699219 3.9425 3.70789063 4.75 4.4609375 C10.09644721 9.59966801 14.36726828 15.01720951 18.375 21.24609375 C19.16197266 22.41591797 19.16197266 22.41591797 19.96484375 23.609375 C28.64677262 37.10723388 31.3830315 52.5817955 33.44433594 68.22631836 C35.18484758 84.45846998 35.18484758 84.45846998 44.375 97.24609375 C44.705 97.57609375 45.035 97.90609375 45.375 98.24609375 C48.17875271 98.74113837 50.99038811 99.14660573 53.80859375 99.55078125 C56.375 100.24609375 56.375 100.24609375 58.375 103.24609375 C58.5 106.43359375 58.5 106.43359375 58.375 109.24609375 C57.055 109.24609375 55.735 109.24609375 54.375 109.24609375 C53.694375 108.53453125 53.694375 108.53453125 53 107.80859375 C51.41037973 105.96931542 51.41037973 105.96931542 48.58984375 105.890625 C44.80213063 105.13124145 43.17964613 103.92471677 40.3125 101.37109375 C39.08853516 100.32308594 39.08853516 100.32308594 37.83984375 99.25390625 C30.54503237 90.35215544 29.19104698 79.9732384 27.8125 68.93359375 C25.08179806 47.65454421 19.79779361 29.62685743 5.375 13.24609375 C4.37919922 12.03566406 4.37919922 12.03566406 3.36328125 10.80078125 C-12.33108502 -7.70754718 -35.1666822 -20.39486984 -58.25 -27.12890625 C-59.05953125 -27.36754395 -59.8690625 -27.60618164 -60.703125 -27.85205078 C-73.46567544 -31.3541554 -86.51220466 -32.1653575 -99.6875 -32.12890625 C-100.7595871 -32.12858902 -100.7595871 -32.12858902 -101.85333252 -32.12826538 C-114.46743095 -32.09127749 -126.36156972 -30.73584324 -138.625 -27.75390625 C-140.25642812 -27.38765404 -141.88793805 -27.02176607 -143.51953125 -26.65625 C-182.7559454 -17.46573858 -215.56019246 7.06108391 -237.25 40.68359375 C-237.68803955 41.34544678 -238.1260791 42.0072998 -238.57739258 42.68920898 C-241.09466075 46.6946224 -242.15286911 49.36707499 -241.625 54.24609375 C-244.30329671 53.1866566 -246.9616656 52.10048478 -249.60546875 50.95703125 C-256.13527624 48.23694092 -262.4789023 45.66684564 -269.625 47.24609375 C-272.0747282 48.66322047 -273.33519354 49.58708181 -274.48046875 52.19140625 C-274.71830969 55.57260454 -273.37799932 57.46523921 -271.53125 60.21484375 C-265.9096809 66.20504033 -257.52723656 68.74481888 -249.5859375 69.82421875 C-247.625 70.24609375 -247.625 70.24609375 -245.625 72.24609375 C-245.5 74.87109375 -245.5 74.87109375 -245.625 77.24609375 C-246.615 76.91609375 -247.605 76.58609375 -248.625 76.24609375 C-248.955 75.58609375 -249.285 74.92609375 -249.625 74.24609375 C-252.15233235 73.59054256 -252.15233235 73.59054256 -254.625 73.24609375 C-255.285 74.56609375 -255.945 75.88609375 -256.625 77.24609375 C-258.935 77.24609375 -261.245 77.24609375 -263.625 77.24609375 C-264.285 75.92609375 -264.945 74.60609375 -265.625 73.24609375 C-266.65560547 73.29830078 -266.65560547 73.29830078 -267.70703125 73.3515625 C-268.60808594 73.37863281 -269.50914062 73.40570313 -270.4375 73.43359375 C-271.77748047 73.48580078 -271.77748047 73.48580078 -273.14453125 73.5390625 C-275.625 73.24609375 -275.625 73.24609375 -277.4609375 71.8984375 C-278.625 70.24609375 -278.625 70.24609375 -278.4375 67.62109375 C-277.625 65.24609375 -277.625 65.24609375 -275.625 64.24609375 C-276.17929687 64.05273438 -276.73359375 63.859375 -277.3046875 63.66015625 C-278.02914062 63.39976562 -278.75359375 63.139375 -279.5 62.87109375 C-280.21929687 62.61585938 -280.93859375 62.360625 -281.6796875 62.09765625 C-283.625 61.24609375 -283.625 61.24609375 -285.625 59.24609375 C-285.625 57.92609375 -285.625 56.60609375 -285.625 55.24609375 C-282.625 52.99609375 -282.625 52.99609375 -279.625 51.24609375 C-280.285 50.25609375 -280.945 49.26609375 -281.625 48.24609375 C-281.25 45.05859375 -281.25 45.05859375 -280.625 42.24609375 C-277.83676345 41.21341355 -276.7572726 41.20100082 -273.875 42.18359375 C-273.1325 42.53421875 -272.39 42.88484375 -271.625 43.24609375 C-271.295 41.26609375 -270.965 39.28609375 -270.625 37.24609375 C-265.09691011 37.87428578 -265.09691011 37.87428578 -262.5625 39.87109375 C-260.64225856 41.55776887 -260.64225856 41.55776887 -257.875 40.93359375 C-257.1325 40.70671875 -256.39 40.47984375 -255.625 40.24609375 C-254.903125 41.23609375 -254.18125 42.22609375 -253.4375 43.24609375 C-251.25216848 45.93827884 -251.25216848 45.93827884 -247.8125 46.62109375 C-247.090625 46.49734375 -246.36875 46.37359375 -245.625 46.24609375 C-245.38007813 45.55902344 -245.13515625 44.87195313 -244.8828125 44.1640625 C-243.4058634 40.73772407 -241.52717586 37.67640393 -239.5 34.55859375 C-239.10039062 33.94209961 -238.70078125 33.32560547 -238.2890625 32.69042969 C-234.72225724 27.26403213 -230.84474837 22.18409717 -226.625 17.24609375 C-225.92761719 16.41464844 -225.23023438 15.58320313 -224.51171875 14.7265625 C-219.09348504 8.46142902 -213.16736758 3.30480966 -206.625 -1.75390625 C-205.72265625 -2.48351562 -204.8203125 -3.213125 -203.890625 -3.96484375 C-145.80265059 -49.6970888 -54.79911683 -50.67161925 0 0 Z " fill="#2B0456" transform="translate(342.625,186.75390625)"/>
<path d="M0 0 C3.27638788 2.94089718 5.54662268 5.69654021 7 9.875 C7 19.08607841 3.60598151 24.82014667 -2 32 C-2.99 31.67 -3.98 31.34 -5 31 C-4.4375653 27.30861821 -3.44600165 24.81755813 -1.4375 21.6875 C1.19840561 17.06890154 1.87991278 14.27947668 1 9 C-2.49647894 4.37230729 -6.63677388 1.54597827 -12.40625 0.609375 C-20.37185947 0.10580199 -26.45752722 2.55622839 -33 7 C-38.46605231 11.84187015 -42.25690581 17.25656013 -45 24 C-45 25.32 -45 26.64 -45 28 C-44.48050781 28.24234375 -43.96101562 28.4846875 -43.42578125 28.734375 C-35.96082655 32.32196876 -30.16549052 36.67102699 -26 44 C-26 45.32 -26 46.64 -26 48 C-28.78260303 47.6415424 -29.8164825 47.20656194 -31.7109375 45.07421875 C-32.26007813 44.28660156 -32.80921875 43.49898438 -33.375 42.6875 C-37.00414039 37.78893926 -40.12684544 34.95771819 -46 33 C-52.77551899 32.17006695 -58.16805392 33.48500924 -64 37 C-68.5418019 40.97407666 -70.03278796 43.22249443 -70.5625 49.125 C-70.64628906 50.03507812 -70.73007812 50.94515625 -70.81640625 51.8828125 C-70.87699219 52.58148438 -70.93757812 53.28015625 -71 54 C-70.32195312 53.94199219 -69.64390625 53.88398438 -68.9453125 53.82421875 C-61.76755239 53.47626639 -55.79566528 54.46840987 -50 59 C-49.2265625 61.171875 -49.2265625 61.171875 -49 63 C-52.14125696 62.5091786 -54.841435 61.67073156 -57.75 60.4375 C-62.20181207 58.74077163 -66.27950889 58.22199313 -71 59 C-74.57444856 60.72103079 -76.46966849 62.31056903 -78.875 65.4375 C-80.57876568 70.83275798 -81.61593537 78.76812926 -79 84 C-78.154375 83.96519531 -77.30875 83.93039062 -76.4375 83.89453125 C-67.9829735 83.6927755 -62.15708112 84.22861258 -55 89 C-55.33 90.32 -55.66 91.64 -56 93 C-61 91 -61 91 -63.25 89.875 C-68.70058743 88.14072218 -73.31861454 88.14402195 -78.4375 90.75 C-81.59593926 93.52326374 -82.81366015 95.3979613 -83.30078125 99.5859375 C-83.32773459 106.00083179 -83.07578428 110.51051374 -78.6640625 115.515625 C-74.23220185 119.79615382 -69.23877198 121.7105041 -63.4765625 123.7265625 C-61 125 -61 125 -60.1484375 127.1484375 C-60.09945312 127.75945312 -60.05046875 128.37046875 -60 129 C-68.36881794 128.73003813 -74.70776059 126.15257869 -80.80078125 120.2578125 C-81.89387675 119.08384359 -82.98501862 117.90805266 -84.07421875 116.73046875 C-87.17657831 113.94275012 -90.81384768 112.26619393 -94.546875 110.45703125 C-97.12694446 108.92460146 -98.39196924 107.50316788 -100 105 C-104.14378409 106.51970214 -106.08861251 109.48170616 -108.5625 112.9375 C-125.85006226 136.07954381 -150.63616987 150.62359709 -178 159 C-178.63550781 159.20206055 -179.27101563 159.40412109 -179.92578125 159.61230469 C-187.26013984 161.93940708 -194.29848293 163.64509138 -202 164 C-202.5625 162.0625 -202.5625 162.0625 -203 160 C-201.09120242 158.09120242 -197.67637763 158.22930922 -195.125 157.8125 C-173.90218772 154.01233146 -153.35189165 145.91063367 -136 133 C-135.154375 132.37609375 -134.30875 131.7521875 -133.4375 131.109375 C-110.84955458 113.74489196 -96.80708788 90.25259953 -93 62 C-91.68 61.67 -90.36 61.34 -89 61 C-88.64611093 67.13407723 -89.67437475 72.22237819 -91.265625 78.14453125 C-92.11140276 81.43316713 -92.61711354 84.63059913 -93 88 C-91.54182203 88.16802051 -90.0834516 88.33437143 -88.625 88.5 C-87.81289063 88.5928125 -87.00078125 88.685625 -86.1640625 88.78125 C-84.03087175 89.03352351 -84.03087175 89.03352351 -82 89 C-82.72896484 87.74316406 -82.72896484 87.74316406 -83.47265625 86.4609375 C-86.30949623 80.03270164 -86.15046024 72.13794569 -84.2734375 65.38671875 C-82.71698102 62.02705048 -81.48025778 60.33381146 -78.38671875 58.18359375 C-75.72648958 56.19306422 -75.72648958 56.19306422 -75.46875 53.046875 C-75.48421875 51.41492188 -75.48421875 51.41492188 -75.5 49.75 C-75.22144956 43.53136134 -74.33770824 39.55511128 -70 35 C-64.14434757 29.73337769 -58.81357404 28.03262453 -51 28 C-50.88527344 27.12988281 -50.77054688 26.25976562 -50.65234375 25.36328125 C-48.60514724 14.80857352 -42.5189484 7.23047313 -34 1 C-23.51646124 -5.71482136 -10.61560543 -7.54685439 0 0 Z " fill="#310958" transform="translate(497,264)"/>
<path d="M0 0 C-0.46696289 0.41717285 -0.93392578 0.8343457 -1.41503906 1.26416016 C-3.1209095 3.13241937 -3.6583773 4.3684125 -4.359375 6.7734375 C-4.58423584 7.50973389 -4.80909668 8.24603027 -5.04077148 9.00463867 C-5.27481689 9.78685791 -5.5088623 10.56907715 -5.75 11.375 C-9.58009096 23.428486 -14.28429188 35.34656771 -25.3125 42.5 C-32.94432581 43.91987457 -39.09813436 42.14138932 -45.5 37.91015625 C-55.35261811 30.38214022 -65.87114374 18.96021948 -70 7 C-69.11199707 6.93268677 -69.11199707 6.93268677 -68.20605469 6.86401367 C-57.34199374 6.02356657 -46.52736032 5.06973503 -35.75 3.4375 C-34.91178711 3.31076904 -34.07357422 3.18403809 -33.20996094 3.0534668 C-30.03827121 2.55439015 -27.05140806 2.01713602 -24 1 C-23.505 1.99 -23.505 1.99 -23 3 C-20.62388845 2.71583399 -18.24939504 2.42291099 -15.875 2.125 C-14.87726563 2.00705078 -14.87726563 2.00705078 -13.859375 1.88671875 C-10.63043513 1.4751872 -7.72343625 0.90695651 -4.6328125 -0.1328125 C-2 -1 -2 -1 0 0 Z " fill="#F57E9B" transform="translate(318,424)"/>
<path d="M0 0 C13.34777168 0.18330768 22.50600638 4.58718898 32.02319336 14.03735352 C35.39393353 18.03893053 36.00210497 21.52970379 35.71850586 26.69750977 C34.75435645 33.90767057 33.15972049 40.73725726 28.35913086 46.38500977 C24.5207516 49.03531925 21.24372839 50.89447478 16.48022461 50.77563477 C9.54906788 49.49917865 4.3505763 44.87365985 0.17163086 39.44750977 C-7.00704161 28.78826883 -14.62129526 14.2996122 -15.64086914 1.38500977 C-12.73935303 -1.51650635 -3.90543746 0.01174525 0 0 Z " fill="#FCF998" transform="translate(255.640869140625,308.614990234375)"/>
<path d="M0 0 C13.20982465 9.35116534 23.84682251 22.20672771 26.75390625 38.5703125 C28.63692821 57.16141819 23.36150525 73.68513506 12.125 88.5 C2.79906562 99.269019 -11.42113652 108.72284336 -26 110 C-45.30373037 111.03783497 -61.12164959 106.5342655 -75.76171875 93.55078125 C-77.94083074 91.42640363 -80.06797162 89.3516103 -82 87 C-82 86.34 -82 85.68 -82 85 C-82.89525391 84.67322266 -82.89525391 84.67322266 -83.80859375 84.33984375 C-90.2987015 80.37173866 -92.76537943 69.48685388 -94.4765625 62.4609375 C-98.00115331 45.8901001 -94.97395321 30.33749585 -86 16 C-83.240476 12.38338866 -80.26217055 9.16555575 -77 6 C-76.36320312 5.35417969 -75.72640625 4.70835938 -75.0703125 4.04296875 C-54.44253465 -15.60049605 -22.83792744 -14.89174135 0 0 Z M-78 14 C-88.4910351 27.81935978 -92.3330304 41.85950605 -90.2890625 59.03955078 C-88.41008882 71.78292799 -82.17607437 83.9237505 -72 92 C-57.54097008 102.35047781 -43.94870608 107.61057937 -26 106 C-21.43979942 105.11196094 -17.29131915 103.76530585 -13 102 C-12.11957031 101.649375 -11.23914063 101.29875 -10.33203125 100.9375 C5.09928635 94.04723726 14.51308058 80.00757574 21 65 C25.26976133 53.36206646 23.75889905 40.20324151 19 29 C11.36328464 13.74732122 -2.10363604 2.57807925 -17.9375 -3.4375 C-40.13490579 -10.67717114 -62.45897711 -2.77367012 -78 14 Z " fill="#270654" transform="translate(327,24)"/>
<path d="M0 0 C2.86151638 -0.5598619 4.22394935 -0.74646002 7 0 C10.63284472 2.70486117 13.82309274 5.77834757 17 9 C17.99 7.35 18.98 5.7 20 4 C25.87039235 4.29351962 29.85599229 7.02412626 34 11 C34.495 12.485 34.495 12.485 35 14 C28.375 14.125 28.375 14.125 25 13 C20.62938627 12.73685413 16.25267255 12.76847119 11.875 12.75 C10.67617188 12.729375 9.47734375 12.70875 8.2421875 12.6875 C-1.73934619 12.62868456 -1.73934619 12.62868456 -11 16 C-12.8687666 18.25421441 -13.78437997 20.27701113 -15 23 C-15.66 23.99 -16.32 24.98 -17 26 C-17.55098772 30.80146443 -17.58887305 32.96439568 -15.1875 37.1875 C-8.84638745 43.79883041 2.15924381 46.93010077 11.11328125 47.265625 C12.51300917 47.27335739 13.91286485 47.26787385 15.3125 47.25 C16.05016602 47.24685791 16.78783203 47.24371582 17.54785156 47.24047852 C22.74400791 47.162797 27.64101401 46.57312875 32.703125 45.33984375 C35.39302008 44.94184907 37.38938933 45.28433259 40 46 C41 47 41 47 41.0625 50.5625 C41.041875 51.696875 41.02125 52.83125 41 54 C39.02 53.505 39.02 53.505 37 53 C37 51.68 37 50.36 37 49 C35.68 49.33 34.36 49.66 33 50 C32.67 51.32 32.34 52.64 32 54 C30.35 54 28.7 54 27 54 C26.79375 54.5775 26.5875 55.155 26.375 55.75 C24.39828244 58.98462874 22.35785899 60.25888793 19 62 C16.02427584 62.56251874 14.09440963 62.40582421 11 62 C9 60.1875 9 60.1875 8 58 C8 57.01 8 56.02 8 55 C7.07767578 55.63228516 7.07767578 55.63228516 6.13671875 56.27734375 C5.32847656 56.82519531 4.52023438 57.37304688 3.6875 57.9375 C2.48673828 58.75541016 2.48673828 58.75541016 1.26171875 59.58984375 C-2.92317861 62.19908027 -7.16436974 62.70053396 -12 62 C-14.5 60.3125 -14.5 60.3125 -16 58 C-16.4375 55.5 -16.4375 55.5 -16 53 C-15.03663777 51.6399592 -14.0401487 50.30225514 -13 49 C-13.71285156 49.03480469 -14.42570312 49.06960938 -15.16015625 49.10546875 C-21.28069694 49.27845846 -25.64852104 49.07425387 -31 46 C-33.31332486 42.53001271 -33.33957563 41.07490752 -33 37 C-30.48780847 33.2317127 -28.10318974 32.71587935 -24 31 C-23.67 30.34 -23.34 29.68 -23 29 C-23.7425 28.7525 -24.485 28.505 -25.25 28.25 C-28.33223096 26.84898593 -30.01369297 25.75027127 -32 23 C-32.0625 19.9375 -32.0625 19.9375 -31 17 C-27.81466439 13.91741715 -24.93289393 13.83053992 -20.6875 13.8125 C-19.12448483 13.86041725 -17.56160485 13.91812945 -16 14 C-16.66 13.113125 -17.32 12.22625 -18 11.3125 C-19.98860067 8.01888014 -20.43735074 6.71748127 -20 3 C-16.92805092 1.46402546 -14.39755707 1.7734962 -11 2 C-7.70021641 3.39606229 -4.979397 5.01373534 -2 7 C-1.34 4.69 -0.68 2.38 0 0 Z " fill="#380655" transform="translate(51,261)"/>
<path d="M0 0 C8.83267733 7.03238641 12.41693587 18.23281427 14 29 C14.29667584 32.50569219 14.38145685 35.98262923 14.375 39.5 C14.37338867 40.41837646 14.37177734 41.33675293 14.37011719 42.28295898 C14.22500927 50.27883211 12.68652217 55.97021674 8.25 62.625 C5.54385547 64.27875499 3.25426633 64.75677054 0.08203125 64.55078125 C-4.24417212 63.40632595 -6.54349045 60.6070995 -9 57 C-16.44582094 42.8443818 -20.01677126 26.10240514 -15.8125 10.3125 C-12.98217101 2.41453433 -8.71966588 -2.43007082 0 0 Z " fill="#290254" transform="translate(157,264)"/>
<path d="M0 0 C7.57778994 4.51058925 10.74611645 12.87193244 13 21 C13.20625 21.65097656 13.4125 22.30195313 13.625 22.97265625 C16.82749052 34.51496584 16.34756097 48.23497529 11 59 C8.6875 62.25 8.6875 62.25 6 64 C1.99447535 64.64374503 -0.0938806 64.51778252 -3.625 62.5 C-14.82715157 50.70826151 -16.42912531 34.95649156 -16.21875 19.40625 C-15.96519667 11.93910439 -14.42081499 5.42081499 -9 0 C-5.81229009 -1.59385496 -3.40972958 -0.75129635 0 0 Z " fill="#290254" transform="translate(345,237)"/>
<path d="M0 0 C2 2 2 2 2.125 5.25 C0.53703207 10.54322644 -2.39499562 12.22891842 -7 15 C-7.91652344 15.55494141 -7.91652344 15.55494141 -8.8515625 16.12109375 C-20.09752966 22.2704843 -32.38002463 24.18696974 -45 24.3125 C-45.97195313 24.34150391 -46.94390625 24.37050781 -47.9453125 24.40039062 C-53.95501858 24.45361009 -57.45236408 24.05640192 -62 20 C-63.1875 17.625 -63.1875 17.625 -63 15 C-59.62260965 10.24994628 -56.1370353 7.43597065 -50.875 4.875 C-50.18486816 4.53662109 -49.49473633 4.19824219 -48.78369141 3.84960938 C-34.87468665 -2.58853865 -14.33189714 -7.29989153 0 0 Z " fill="#FFFA99" transform="translate(391,302)"/>
<path d="M0 0 C1.55424683 -0.0151062 1.55424683 -0.0151062 3.13989258 -0.03051758 C13.28645415 0.0826411 23.88788218 1.68028026 32.25 7.8125 C33.375 9.4375 33.375 9.4375 33.9375 11.8125 C33.26625983 14.9449541 32.06608568 16.34685017 29.51098633 18.24633789 C20.43865347 23.3056489 10.54014664 24.0721377 0.375 23.9375 C-0.79289062 23.95296875 -1.96078125 23.9684375 -3.1640625 23.984375 C-12.48892705 23.94302305 -22.72381358 22.73443559 -30.4375 17 C-32.625 14.4375 -32.625 14.4375 -33.375 11.9375 C-32.20226612 8.02838707 -30.06505399 6.34657501 -26.625 4.4375 C-17.95964952 0.48353267 -9.38187375 0.0590317 0 0 Z " fill="#FFFA99" transform="translate(141.625,328.5625)"/>
<path d="M0 0 C3.21222329 0.742934 5.94123691 1.73430493 9 3 C6.42684706 4.71543529 4.50214725 5.64483267 1.640625 6.6640625 C-26.59365084 16.84639544 -26.59365084 16.84639544 -47.09765625 37.8984375 C-49.96898028 44.44238529 -49.97439039 52.18516865 -48 59 C-54.22499605 59.92686058 -59.08644538 60.34078204 -65 58 C-67.4702708 55.5297292 -67.76871663 54.46925048 -68 51 C-66.71182482 46.19081267 -65.37536341 43.9072044 -61.1875 41.1875 C-57.90894434 39.34520625 -54.63668298 38.00008782 -51 37 C-51.68707031 36.69707031 -52.37414063 36.39414062 -53.08203125 36.08203125 C-60.45504087 32.65395095 -60.45504087 32.65395095 -63.1875 29.375 C-64 27 -64 27 -63 24 C-56.54623838 18.62186532 -49.0028454 19.42702633 -41 20 C-40.01 20.33 -39.02 20.66 -38 21 C-38.99 19.700625 -38.99 19.700625 -40 18.375 C-42.13380371 14.77420624 -42.6513089 13.09394163 -42 9 C-37.10979241 5.73986161 -31.72232383 6.55334803 -26 7 C-22.559776 7.7552776 -19.29168444 8.75168626 -16 10 C-16.495 9.01 -16.495 9.01 -17 8 C-17.25 5 -17.25 5 -17 2 C-11.91697682 -1.38868212 -5.94029031 -0.44359311 0 0 Z " fill="#FE295C" transform="translate(76,324)"/>
<path d="M0 0 C0.33 0 0.66 0 1 0 C3.74093891 15.76039872 0.12154227 32.25521692 -8.78125 45.6875 C-19.11318516 59.13541561 -32.94113227 68.65858678 -50 71 C-68.8723347 72.54691268 -84.81954706 66.85747772 -99.33984375 54.65625 C-104.01105387 49.99189922 -107.50966512 44.57591769 -111 39 C-110.01 38.505 -110.01 38.505 -109 38 C-108.59910156 38.49628906 -108.19820312 38.99257812 -107.78515625 39.50390625 C-98.18545764 50.97565493 -84.6906329 60.26306085 -69.45703125 61.8359375 C-51.55082229 63.03158261 -34.90385231 58.89493451 -20.9375 47.125 C-8.10423629 34.56011253 -1.69565758 17.63483883 0 0 Z " fill="#78F99C" transform="translate(354,71)"/>
<path d="M0 0 C0.99 0 1.98 0 3 0 C3.35388907 6.13407723 2.32562525 11.22237819 0.734375 17.14453125 C-0.11140276 20.43316713 -0.61711354 23.63059913 -1 27 C-0.030625 27.2475 0.93875 27.495 1.9375 27.75 C5 29 5 29 6 30.8125 C6 33 6 33 5.0625 35.3125 C3.02449172 40.46746212 3.96152451 45.67781313 5 51 C1.24665834 51 0.3691612 50.94838335 -2.625 49.1875 C-3.21539062 48.85105469 -3.80578125 48.51460938 -4.4140625 48.16796875 C-6 47 -6 47 -8 44 C-12.14378409 45.51970214 -14.08861251 48.48170616 -16.5625 51.9375 C-33.85006226 75.07954381 -58.63616987 89.62359709 -86 98 C-86.63550781 98.20206055 -87.27101563 98.40412109 -87.92578125 98.61230469 C-95.26013984 100.93940708 -102.29848293 102.64509138 -110 103 C-110.5625 101.0625 -110.5625 101.0625 -111 99 C-109.09120242 97.09120242 -105.67637763 97.22930922 -103.125 96.8125 C-81.90218772 93.01233146 -61.35189165 84.91063367 -44 72 C-43.154375 71.37609375 -42.30875 70.7521875 -41.4375 70.109375 C-19.75628218 53.4419388 -5.17712305 30.55665303 -1.39453125 3.30078125 C-1 1 -1 1 0 0 Z " fill="#340A59" transform="translate(405,325)"/>
<path d="M0 0 C3.86639554 1.32484882 6.30508995 2.93597484 9.25 5.75 C16.2510999 12.69864357 16.2510999 12.69864357 25 16 C26.68816933 14.35511706 28.35353315 12.68662458 30 11 C35.60461629 7.26358914 43.48949476 7.9822627 50 9 C63.1652455 12.77130984 76.02998636 23.04310742 84 34 C83.67 34.99 83.34 35.98 83 37 C79.41192384 36.44322956 78.17278813 35.35178442 76 32.5 C68.33308144 23.37505633 57.23872754 14.93678932 45.15234375 13.5625 C37.96551678 13.17107695 37.96551678 13.17107695 31.3046875 15.53515625 C25.9624614 21.24862179 24.24322543 27.97812705 22.8125 35.5 C22.64814453 36.30308594 22.48378906 37.10617187 22.31445312 37.93359375 C20.34666483 47.76456849 19.86234482 57.10443007 19.90234375 67.125 C19.9042122 68.48120064 19.90563408 69.83740196 19.90663147 71.19360352 C19.91042304 74.73795483 19.92022405 78.28226421 19.93133545 81.82659912 C19.94162238 85.45340406 19.94614459 89.08021588 19.95117188 92.70703125 C19.96184982 99.8047045 19.97888516 106.90234949 20 114 C18.0625 114.5625 18.0625 114.5625 16 115 C11.91655007 110.91655007 13.83832864 97.13457383 13.83203125 91.55078125 C13.82870285 90.4944902 13.82537445 89.43819916 13.82194519 88.34989929 C13.81691625 86.12885977 13.81453561 83.90781279 13.81469727 81.68676758 C13.81251698 78.33857385 13.79433444 74.99071354 13.77539062 71.64257812 C13.7307921 55.04938536 14.46847472 39.78041193 20 24 C20.33 23.01 20.66 22.02 21 21 C20.34515625 20.62230469 19.6903125 20.24460937 19.015625 19.85546875 C11.09251001 15.07697991 4.62011091 9.38904247 -2 3 C-1.34 2.01 -0.68 1.02 0 0 Z " fill="#39105D" transform="translate(114,384)"/>
<path d="M0 0 C2.51525025 1.7816356 2.99147479 2.96279909 3.6875 6 C3.32822671 14.09220324 -5.31747118 21.90903739 -10.859375 27.2109375 C-15.84114794 31.37453605 -22.24902326 36.30686258 -29 36 C-33.69754238 33.70120266 -36.69556982 30.28685555 -40 26.35546875 C-43.14936884 22.64634881 -46.47159649 19.09609077 -49.765625 15.515625 C-51.63734086 13.40830854 -53.35519662 11.28563587 -55 9 C-55.61875 9.97453125 -55.61875 9.97453125 -56.25 10.96875 C-56.8275 11.8040625 -57.405 12.639375 -58 13.5 C-58.556875 14.3353125 -59.11375 15.170625 -59.6875 16.03125 C-62.45416796 18.38665651 -64.28888753 18.50174937 -67.86816406 18.28808594 C-71.32885662 17.82042478 -74.56049235 16.96070981 -77.875 15.875 C-78.56537354 15.65489258 -79.25574707 15.43478516 -79.96704102 15.20800781 C-85.98607533 13.19299784 -92.4382388 10.5617612 -97 6 C-97.04063832 4.33382885 -97.042721 2.66611905 -97 1 C-93.27943493 2.17491529 -89.67106349 3.52351906 -86.0625 5 C-76.3052535 9.21797895 -76.3052535 9.21797895 -66 9 C-63.25479103 6.61873919 -61.10771878 3.95080629 -59 1 C-55.33852819 3.74610386 -52.55912981 6.58245008 -49.75 10.1875 C-42.01815048 20.74084502 -42.01815048 20.74084502 -31 26.4375 C-23.54813415 26.34415721 -16.11398537 19.89163818 -11 15 C-6.8971473 10.24352585 -3.14224615 5.44785711 0 0 Z " fill="#78FA9D" transform="translate(440,158)"/>
<path d="M0 0 C-1.45546502 3.39608504 -3.40860299 5.40860299 -6 8 C-8.78159536 12.3247419 -8.28891309 16.91786278 -8.36328125 21.90625 C-9.18580319 25.90279834 -10.71660598 26.72726029 -14 29 C-18.78495584 34.66242625 -18.40891324 41.33541571 -18.3359375 48.4140625 C-18.00870531 51.90707592 -17.25505456 54.73685815 -16 58 C-20.71599818 58.92470553 -23.67265609 59.22923777 -28 57 C-27.49444958 52.55115633 -26.60026093 48.38994516 -25.4375 44.0625 C-23.53550177 36.56638931 -23.56902136 30.65193015 -25.66015625 23.17578125 C-26 21 -26 21 -25.375 18.65625 C-24.83494814 14.83088265 -26.24408692 12.6088856 -27.9375 9.1875 C-28.50339844 8.02605469 -29.06929688 6.86460937 -29.65234375 5.66796875 C-30.09707031 4.78753906 -30.54179687 3.90710938 -31 3 C-20.90516199 -1.8137422 -10.46174548 -6.27704729 0 0 Z " fill="#F189A6" transform="translate(431,295)"/>
<path d="M0 0 C3.21653887 0.75323727 5.87173819 1.82865143 8.82421875 3.328125 C30.653617 14.21565215 51.33084452 21.90169327 75.87890625 15.65625 C79.01373686 14.99711165 81.80713202 14.88476867 85 15 C85 16.32 85 17.64 85 19 C61.18608633 26.54500235 37.4813595 23.4638639 15 13 C11.29915443 11.05993094 7.64186332 9.04839218 4 7 C4.03029297 7.6305127 4.06058594 8.26102539 4.09179688 8.91064453 C4.93333474 26.95515839 5.12239831 44.94154149 5 63 C3.68 63 2.36 63 1 63 C-0.10838246 49.49447849 -0.11705036 36.04289788 -0.0625 22.5 C-0.05747161 20.30859478 -0.05291109 18.11718844 -0.04882812 15.92578125 C-0.03793636 10.61716247 -0.02130585 5.30858668 0 0 Z " fill="#2A0355" transform="translate(367,411)"/>
<path d="M0 0 C5.43548477 2.27039718 9.65181804 5.52090877 12 11 C12.87356635 16.44025872 13.31551669 21.60046817 10.6015625 26.55078125 C6.95228427 30.9091987 3.65985231 33.63878553 -2.09765625 34.20703125 C-7.15156873 34.43483699 -10.70114934 33.89922486 -15 31 C-20.14962186 25.42124298 -21.484032 21.1801146 -21.3046875 13.6875 C-20.77161673 8.98554242 -18.80223042 6.52965833 -15.26953125 3.53125 C-10.38526585 0.02159821 -5.94435342 -1.28638713 0 0 Z M-12.3125 17.4375 C-13.83211962 19.74507054 -14.59986624 21.29909712 -15 24 C-9.96835596 28.10476224 -7.64516785 29.55376399 -1 29 C3.35079915 26.74093121 6.01696729 24.51690784 8 20 C8.25196129 17.29046449 8.25196129 17.29046449 8 15 C0.2940962 10.5966264 -5.985384 10.76837773 -12.3125 17.4375 Z " fill="#280955" transform="translate(297,57)"/>
<path d="M0 0 C5.52808989 0.62819203 5.52808989 0.62819203 8.0625 2.625 C9.98274144 4.31167512 9.98274144 4.31167512 12.75 3.6875 C13.4925 3.460625 14.235 3.23375 15 3 C15.721875 3.969375 16.44375 4.93875 17.1875 5.9375 C19.13237593 8.29913506 19.7882535 8.93412331 22.8125 9.875 C23.534375 9.91625 24.25625 9.9575 25 10 C25.495 11.485 25.495 11.485 26 13 C26.66 13 27.32 13 28 13 C28.495 14.98 28.495 14.98 29 17 C26.32170329 15.94056285 23.6633344 14.85439103 21.01953125 13.7109375 C14.48972376 10.99084717 8.1460977 8.42075189 1 10 C-1.4497282 11.41712672 -2.71019354 12.34098806 -3.85546875 14.9453125 C-4.09330969 18.32651079 -2.75299932 20.21914546 -0.90625 22.96875 C4.7153191 28.95894658 13.09776344 31.49872513 21.0390625 32.578125 C23 33 23 33 25 35 C25.125 37.625 25.125 37.625 25 40 C24.01 39.67 23.02 39.34 22 39 C21.67 38.34 21.34 37.68 21 37 C18.47266765 36.34444881 18.47266765 36.34444881 16 36 C15.34 37.32 14.68 38.64 14 40 C11.69 40 9.38 40 7 40 C6.34 38.68 5.68 37.36 5 36 C3.96939453 36.05220703 3.96939453 36.05220703 2.91796875 36.10546875 C2.01691406 36.13253906 1.11585937 36.15960938 0.1875 36.1875 C-1.15248047 36.23970703 -1.15248047 36.23970703 -2.51953125 36.29296875 C-5 36 -5 36 -6.8359375 34.65234375 C-8 33 -8 33 -7.8125 30.375 C-7 28 -7 28 -5 27 C-5.55429688 26.80664062 -6.10859375 26.61328125 -6.6796875 26.4140625 C-7.40414062 26.15367187 -8.12859375 25.89328125 -8.875 25.625 C-9.59429687 25.36976563 -10.31359375 25.11453125 -11.0546875 24.8515625 C-13 24 -13 24 -15 22 C-15 20.68 -15 19.36 -15 18 C-12 15.75 -12 15.75 -9 14 C-9.66 13.01 -10.32 12.02 -11 11 C-10.625 7.8125 -10.625 7.8125 -10 5 C-7.21176345 3.9673198 -6.1322726 3.95490707 -3.25 4.9375 C-2.5075 5.288125 -1.765 5.63875 -1 6 C-0.67 4.02 -0.34 2.04 0 0 Z " fill="#320555" transform="translate(72,224)"/>
<path d="M0 0 C2.8125 1 2.8125 1 4.25 2.8125 C4.88616994 5.28649422 4.66289667 6.61888932 3.8125 9 C2.8225 8.67 1.8325 8.34 0.8125 8 C0.3175 7.01 0.3175 7.01 -0.1875 6 C-3.57907791 6.58629027 -5.18398252 7.67584816 -7.625 10.0625 C-22.90723515 23.92180823 -43.37669714 32.49008005 -63.96484375 32.27734375 C-70.27390746 31.7343819 -75.01801511 29.34832488 -79.625 25.0625 C-83.44001386 20.5030932 -84.45482478 17.09397834 -84.3125 11.1875 C-84.29445313 10.21167969 -84.27640625 9.23585938 -84.2578125 8.23046875 C-84.23460938 7.49441406 -84.21140625 6.75835937 -84.1875 6 C-82.8675 6.33 -81.5475 6.66 -80.1875 7 C-80.10113281 7.72445313 -80.01476562 8.44890625 -79.92578125 9.1953125 C-78.98655272 15.65789412 -78.1298014 19.6068432 -73.1875 24 C-65.52485822 28.69141333 -56.67959541 27.7602283 -48.1875 25.8125 C-31.81304098 21.22850431 -18.36324412 12.80770601 -5.6015625 1.76171875 C-3.1875 0 -3.1875 0 0 0 Z " fill="#340857" transform="translate(110.1875,362)"/>
<path d="M0 0 C2.86151638 -0.5598619 4.22394935 -0.74646002 7 0 C10.63284472 2.70486117 13.82309274 5.77834757 17 9 C17.99 7.35 18.98 5.7 20 4 C25.87039235 4.29351962 29.85599229 7.02412626 34 11 C34.495 12.485 34.495 12.485 35 14 C28.375 14.125 28.375 14.125 25 13 C20.67114398 12.73624031 16.33601335 12.76843151 12 12.75 C10.22689453 12.7190625 10.22689453 12.7190625 8.41796875 12.6875 C0.80149985 12.65391028 -5.77850201 13.55721777 -13 16 C-19.94230769 9.24038462 -19.94230769 9.24038462 -20.125 5.3125 C-20.08375 4.549375 -20.0425 3.78625 -20 3 C-16.92805092 1.46402546 -14.39755707 1.7734962 -11 2 C-7.70021641 3.39606229 -4.979397 5.01373534 -2 7 C-1.34 4.69 -0.68 2.38 0 0 Z " fill="#FE295C" transform="translate(51,261)"/>
<path d="M0 0 C0.66 0 1.32 0 2 0 C3.28416858 3.85250575 4.16853108 7.06351092 3 11 C-2.06140048 16.70672904 -10.17975231 19.71270579 -16.9375 23 C-17.77837158 23.41048584 -18.61924316 23.82097168 -19.4855957 24.24389648 C-20.68188599 24.80379272 -20.68188599 24.80379272 -21.90234375 25.375 C-22.61898193 25.71273437 -23.33562012 26.05046875 -24.07397461 26.3984375 C-26 27 -26 27 -29 26 C-33 21.54285714 -33 21.54285714 -33 19 C-32.38592285 18.73372803 -31.7718457 18.46745605 -31.13916016 18.19311523 C-13.41616176 11.91764528 -13.41616176 11.91764528 0 0 Z " fill="#78F99C" transform="translate(457,110)"/>
<path d="M0 0 C-1.45798275 3.40195976 -3.40354539 5.40354539 -6 8 C-7.04349839 9.63978318 -8.05607981 11.30094366 -9 13 C-13.71437718 11.48728707 -18.28958585 9.73227046 -22.875 7.875 C-23.56335938 7.59785156 -24.25171875 7.32070313 -24.9609375 7.03515625 C-26.64126501 6.35835767 -28.32072342 5.67940197 -30 5 C-30 4.01 -30 3.02 -30 2 C-28.27255984 1.34956281 -26.5429631 0.70485156 -24.8125 0.0625 C-23.84957031 -0.29714844 -22.88664062 -0.65679687 -21.89453125 -1.02734375 C-14.05915008 -3.6602856 -7.24584257 -4.34750554 0 0 Z " fill="#DF335D" transform="translate(431,295)"/>
<path d="M0 0 C2.53149646 1.26574823 2.62100714 2.18269593 3.6875 4.75 C5.89275155 9.4120527 8.65562667 11.32653949 13 14 C12.67 14.99 12.34 15.98 12 17 C7.80606115 18.84533309 2.36270132 18.66782006 -2.00390625 17.43359375 C-5.4455566 16.06124465 -6.9110171 15.13347436 -9 12 C-9.33957563 7.92509248 -9.31332486 6.46998729 -7 3 C-3.5 1.25 -3.5 1.25 0 0 Z " fill="#F5265B" transform="translate(27,292)"/>
<path d="M0 0 C5.52808989 0.62819203 5.52808989 0.62819203 8.0625 2.625 C9.98274144 4.31167512 9.98274144 4.31167512 12.75 3.6875 C13.4925 3.460625 14.235 3.23375 15 3 C15.721875 3.969375 16.44375 4.93875 17.1875 5.9375 C19.13237593 8.29913506 19.7882535 8.93412331 22.8125 9.875 C23.534375 9.91625 24.25625 9.9575 25 10 C25.495 11.485 25.495 11.485 26 13 C26.66 13 27.32 13 28 13 C28.495 14.98 28.495 14.98 29 17 C26.32170329 15.94056285 23.6633344 14.85439103 21.01953125 13.7109375 C14.37437677 10.94279763 8.25240909 8.52338337 1 10 C-1.38089007 11.11171821 -2.96756965 12.2884797 -5 14 C-6.5625 12.8125 -6.5625 12.8125 -8 11 C-7.6875 8.3125 -7.6875 8.3125 -7 6 C-3.25 4.875 -3.25 4.875 -1 6 C-0.67 4.02 -0.34 2.04 0 0 Z " fill="#FD2A5D" transform="translate(72,224)"/>
<path d="M0 0 C2.58648225 2.77573705 3.34993957 4.03019245 3.5625 7.75 C2.758125 7.399375 1.95375 7.04875 1.125 6.6875 C-3.35344356 5.50896222 -6.95872558 5.60753998 -11.4375 6.75 C-15.32929919 9.11892125 -17.32466676 11.74673702 -19.4375 15.75 C-20.0975 15.42 -20.7575 15.09 -21.4375 14.75 C-22.58524858 9.91305954 -23.03968465 7.88984951 -20.6875 3.4375 C-19.945 2.550625 -19.2025 1.66375 -18.4375 0.75 C-17.9425 0.151875 -17.4475 -0.44625 -16.9375 -1.0625 C-12.00844145 -4.96467135 -4.7191833 -3.61614528 0 0 Z " fill="#77F79C" transform="translate(301.4375,64.25)"/>
<path d="M0 0 C3.3 0.33 6.6 0.66 10 1 C9.67 2.010625 9.34 3.02125 9 4.0625 C7.36609397 9.81014107 7.8654607 15.18548608 9 21 C2.78049113 18.01463574 -0.10872477 14.69454912 -4 9 C-2.68 6.03 -1.36 3.06 0 0 Z " fill="#DA305B" transform="translate(401,355)"/>
<path d="M0 0 C0.66 0.66 1.32 1.32 2 2 C1.57847656 2.60328125 1.15695313 3.2065625 0.72265625 3.828125 C-0.09912109 5.02695312 -0.09912109 5.02695312 -0.9375 6.25 C-1.48277344 7.03890625 -2.02804688 7.8278125 -2.58984375 8.640625 C-3.89622441 10.82636993 -4.54980511 12.5153801 -5 15 C-8.48619623 14.70118318 -10.04636125 13.96472514 -12.875 11.8125 C-15 9 -15 9 -15.125 5.875 C-14 3 -14 3 -12 1.125 C-8.0146005 -0.36952481 -4.21690376 -0.63792061 0 0 Z " fill="#FC275C" transform="translate(34,275)"/>
<path d="M0 0 C5.81266619 0.78549543 11.36877624 2.40682459 17 4 C17 4.66 17 5.32 17 6 C15.57421875 7.25390625 15.57421875 7.25390625 13.6875 8.5625 C13.07261719 8.99691406 12.45773438 9.43132812 11.82421875 9.87890625 C7.93758398 12.26748051 4.45854781 12.24319352 0 12 C-2.63033454 9.36966546 -2.77962372 7.67293796 -3 4 C-1.5625 1.625 -1.5625 1.625 0 0 Z " fill="#FB285B" transform="translate(40,308)"/>
<path d="M0 0 C0.99 0.33 1.98 0.66 3 1 C3 12.22 3 23.44 3 35 C1.68 35 0.36 35 -1 35 C-1.0246519 30.17619198 -1.04283693 25.35242033 -1.05493164 20.52856445 C-1.05997174 18.88630536 -1.06680378 17.24405077 -1.07543945 15.60180664 C-1.08751926 13.24624521 -1.09323139 10.89074291 -1.09765625 8.53515625 C-1.10281754 7.79660904 -1.10797882 7.05806183 -1.11329651 6.2971344 C-1.1134925 4.53101912 -1.06194719 2.76502854 -1 1 C-0.67 0.67 -0.34 0.34 0 0 Z " fill="#260152" transform="translate(187,464)"/>
<path d="M0 0 C5.77428437 0 9.96451046 3.12824154 14 7 C14.33 7.99 14.66 8.98 15 10 C8.375 10.125 8.375 10.125 5 9 C3.30132812 8.85222064 1.59822511 8.75252934 -0.10546875 8.68359375 C-1.08837891 8.64169922 -2.07128906 8.59980469 -3.08398438 8.55664062 C-4.10814453 8.51732422 -5.13230469 8.47800781 -6.1875 8.4375 C-7.22326172 8.39431641 -8.25902344 8.35113281 -9.32617188 8.30664062 C-11.8839819 8.20055634 -14.44188845 8.09849854 -17 8 C-17 7.67 -17 7.34 -17 7 C-12.05 7 -7.1 7 -2 7 C-2 5.35 -2 3.7 -2 2 C-1.34 1.34 -0.68 0.68 0 0 Z " fill="#FF3364" transform="translate(71,265)"/>
<path d="M0 0 C0.99 0 1.98 0 3 0 C1.58286901 9.0994727 -0.48143804 17.02104814 -8.00390625 22.92578125 C-11.63127598 24.87788825 -15.04162974 25.00623992 -19 24 C-22.0625 21.6875 -22.0625 21.6875 -24 19 C-24 18.01 -24 17.02 -24 16 C-21.73374997 17.01590518 -20.23066768 17.70342727 -18.6875 19.6875 C-16.91215699 21.3388037 -16.91215699 21.3388037 -13.625 21.0625 C-9.19337314 19.76357489 -7.30371475 17.83421036 -5 14 C-2.65617294 9.50963773 -0.65363269 5.06565332 0 0 Z " fill="#300153" transform="translate(75,390)"/>
<path d="M0 0 C0.99 0.33 1.98 0.66 3 1 C-2.44341807 6.95373851 -8.60608045 11.56781119 -16.8125 12.375 C-20.03996678 12.33331685 -21.8744278 11.78742761 -24.4375 9.8125 C-26.99909564 7.00099259 -27.78698668 5.72773314 -28 2 C-27.01 2 -26.02 2 -25 2 C-23.375 4.4375 -23.375 4.4375 -22 7 C-20.81334379 8.40086029 -20.81334379 8.40086029 -17.4375 8.3125 C-11.31688122 8.23571804 -6.82058734 5.49692737 -2.1875 1.6875 C-1.1046875 0.8521875 -1.1046875 0.8521875 0 0 Z " fill="#2F0153" transform="translate(47,396)"/>
<path d="M0 0 C5.28 0 10.56 0 16 0 C13.78141921 4.43716159 12.31619748 5.71495428 8 8 C5.00387142 7.93032259 3.59835396 7.4332908 1.1875 5.6875 C0 4 0 4 0 0 Z " fill="#F7275B" transform="translate(60,313)"/>
<path d="M0 0 C0.99 0 1.98 0 3 0 C2.773125 1.093125 2.54625 2.18625 2.3125 3.3125 C2.1578125 5.1378125 2.1578125 5.1378125 2 7 C2.5053125 7.474375 3.010625 7.94875 3.53125 8.4375 C4.0159375 8.953125 4.500625 9.46875 5 10 C4.85546875 12.26171875 4.85546875 12.26171875 4.1875 14.6875 C3.86845703 15.89986328 3.86845703 15.89986328 3.54296875 17.13671875 C3.36378906 17.75160156 3.18460937 18.36648437 3 19 C0.625 18.8125 0.625 18.8125 -2 18 C-3.3125 15.4375 -3.3125 15.4375 -4 13 C-2.68 12.01 -1.36 11.02 0 10 C-0.66 9.01 -1.32 8.02 -2 7 C-1.44444444 1.44444444 -1.44444444 1.44444444 0 0 Z " fill="#F5275B" transform="translate(63,228)"/>
<path d="M0 0 C0.99 0 1.98 0 3 0 C2.67 2.97 2.34 5.94 2 9 C5.63719605 11.42479736 7.85703482 11.38662577 12.1875 11.625 C13.45980469 11.69976562 14.73210938 11.77453125 16.04296875 11.8515625 C17.01878906 11.90054687 17.99460937 11.94953125 19 12 C19 12.66 19 13.32 19 14 C13.73225461 15.75591513 8.25493033 15.73304633 3.125 13.6875 C0 12 0 12 -2 9 C-2.33957563 4.92509248 -2.31332486 3.46998729 0 0 Z " fill="#310251" transform="translate(20,295)"/>
<path d="M0 0 C0.66 0.33 1.32 0.66 2 1 C1.82669706 7.80607919 0.43117059 12.73724244 -4 18 C-7.09132395 20.57610329 -8.86163748 21.90101195 -12.875 22.25 C-13.57625 22.1675 -14.2775 22.085 -15 22 C-15 21.34 -15 20.68 -15 20 C-13.783125 19.505 -12.56625 19.01 -11.3125 18.5 C-6.4938555 16.08213406 -4.09396583 12.91944811 -2 8 C-1.43192764 5.62772983 -1.19942259 3.44292678 -1 1 C-0.67 0.67 -0.34 0.34 0 0 Z " fill="#370353" transform="translate(99,377)"/>
<path d="M0 0 C8.81415929 -0.29380531 8.81415929 -0.29380531 12 2 C13.35439668 4.70879335 13.06501451 7.00933268 13 10 C9 10 9 10 7.40234375 8.57421875 C6.91894531 7.95160156 6.43554688 7.32898438 5.9375 6.6875 C4.06091143 4.31314258 2.18032762 2.10268985 0 0 Z " fill="#DD315C" transform="translate(388,286)"/>
<path d="M0 0 C4.455 0.99 4.455 0.99 9 2 C8 6 8 6 7 7 C4.66702567 7.04092937 2.33294775 7.04241723 0 7 C-0.66 5.68 -1.32 4.36 -2 3 C-1.34 2.01 -0.68 1.02 0 0 Z " fill="#DE225A" transform="translate(79,257)"/>
<path d="M0 0 C0.99 0 1.98 0 3 0 C3.19477739 1.62414378 3.38059458 3.24936423 3.5625 4.875 C3.66691406 5.77992188 3.77132813 6.68484375 3.87890625 7.6171875 C4 10 4 10 3 12 C1.68 11.67 0.36 11.34 -1 11 C-1.02688151 9.35425434 -1.04634123 7.70838587 -1.0625 6.0625 C-1.07410156 5.14597656 -1.08570313 4.22945313 -1.09765625 3.28515625 C-1 1 -1 1 0 0 Z " fill="#2B0454" transform="translate(369,477)"/>
<path d="M0 0 C2.64 1.65 5.28 3.3 8 5 C7.67 5.66 7.34 6.32 7 7 C4.66705225 7.04241723 2.33297433 7.04092937 0 7 C-1 6 -1 6 -1.125 3.5 C-1 1 -1 1 0 0 Z " fill="#F4275B" transform="translate(68,250)"/>
<path d="M0 0 C1.65 0.33 3.3 0.66 5 1 C5.33 1.99 5.66 2.98 6 4 C6.66 4 7.32 4 8 4 C8.33 5.32 8.66 6.64 9 8 C4.96479403 6.41037341 0.98188718 4.71767682 -3 3 C-2.01 2.67 -1.02 2.34 0 2 C0 1.34 0 0.68 0 0 Z " fill="#F93364" transform="translate(92,233)"/>
<path d="M0 0 C0.99 0 1.98 0 3 0 C2.773125 1.093125 2.54625 2.18625 2.3125 3.3125 C1.5841746 6.90092967 1.5841746 6.90092967 3.4375 8.8125 C3.953125 9.204375 4.46875 9.59625 5 10 C5 10.66 5 11.32 5 12 C1.34683329 10.75023244 0.21934164 10.32901247 -2 7 C-1.44444444 1.44444444 -1.44444444 1.44444444 0 0 Z " fill="#290151" transform="translate(63,228)"/>
<path d="M0 0 C0.66 0.33 1.32 0.66 2 1 C2.268125 1.804375 2.53625 2.60875 2.8125 3.4375 C3.78464531 6.23329232 3.78464531 6.23329232 6.625 7.3125 C7.800625 7.6528125 7.800625 7.6528125 9 8 C6 10 6 10 3.4375 9.8125 C1 9 1 9 -1 6 C-1.1875 3.375 -1.1875 3.375 -1 1 C-0.67 0.67 -0.34 0.34 0 0 Z " fill="#29014C" transform="translate(36,313)"/>
<path d="M0 0 C2 1 2 1 3.1875 3.4375 C5.63464486 6.89725653 7.95302598 7.160062 12 8 C12 8.33 12 8.66 12 9 C9.20524462 9.55895108 6.82115366 10.03236505 4 10 C1.04178248 8.02785498 0.2113079 6.69894151 -0.8125 3.3125 C-0.9053125 2.1678125 -0.9053125 2.1678125 -1 1 C-0.67 0.67 -0.34 0.34 0 0 Z " fill="#3A0353" transform="translate(20,397)"/>
<path d="M0 0 C0.99 0 1.98 0 3 0 C3 0.66 3 1.32 3 2 C5.64 1.34 8.28 0.68 11 0 C10.34 1.32 9.68 2.64 9 4 C6.69 4 4.38 4 2 4 C1.34 2.68 0.68 1.36 0 0 Z " fill="#2E0153" transform="translate(77,260)"/>
<path d="M0 0 C0 0.66 0 1.32 0 2 C-3.67410785 3.17571451 -7.16929183 3.07366746 -11 3 C-10 1 -10 1 -8.3125 0.375 C-5.51555886 -0.07855802 -2.82858003 -0.06428591 0 0 Z " fill="#260053" transform="translate(39,307)"/>
<path d="M0 0 C0.66 0 1.32 0 2 0 C2.66 2.31 3.32 4.62 4 7 C3.01 7 2.02 7 1 7 C0.34 6.34 -0.32 5.68 -1 5 C-0.625 2.375 -0.625 2.375 0 0 Z " fill="#260153" transform="translate(65,252)"/>
<path d="M0 0 C1.32 1.32 2.64 2.64 4 4 C1.8614515 6.1385485 0.86724686 6.42655063 -2 7 C-1.125 1.125 -1.125 1.125 0 0 Z " fill="#6EE69A" transform="translate(419,74)"/>
<path d="M0 0 C1.98 0.495 1.98 0.495 4 1 C3.67 2.32 3.34 3.64 3 5 C1.68 4.67 0.36 4.34 -1 4 C-0.67 2.68 -0.34 1.36 0 0 Z " fill="#330B59" transform="translate(490,297)"/>
<path d="M0 0 C0.33 0.66 0.66 1.32 1 2 C-0.65 3.65 -2.3 5.3 -4 7 C-4 5.68 -4 4.36 -4 3 C-2 1.25 -2 1.25 0 0 Z " fill="#270051" transform="translate(78,313)"/>
<path d="M0 0 C0.66 0.33 1.32 0.66 2 1 C-0.57784846 3.64752004 -2.91648098 5.94432065 -6 8 C-4.55746343 4.63408134 -2.66735273 2.48952921 0 0 Z " fill="#220058" transform="translate(48,396)"/>
</svg>
