<?xml version="1.0" encoding="UTF-8"?>
<svg version="1.1" xmlns="http://www.w3.org/2000/svg" width="512" height="512">
<path d="M0 0 C5.12748314 2.3581305 7.82727828 2.4937156 13.2890625 1.15625 C13.93359375 1.00945801 14.578125 0.86266602 15.2421875 0.71142578 C17.26657796 0.24468025 19.27615005 -0.26745635 21.2890625 -0.78125 C45.83802486 -6.66448995 78.23356862 -9.16367559 102.4921875 -0.40234375 C108.2163563 1.61815527 112.83566381 3.14382411 118.64453125 0.4296875 C121.74588171 -1.25513384 124.71313261 -3.12151005 127.6875 -5.01953125 C139.69779483 -12.67294914 157.05189951 -19.47231028 171.453125 -16.37890625 C176.3599554 -14.8259955 179.70770006 -12.38146118 182.2890625 -7.84375 C184.62655029 -2.17864139 185.92395009 3.51507098 186.5390625 9.59375 C186.6213208 10.39087402 186.7035791 11.18799805 186.78833008 12.00927734 C187.90758581 24.89967834 187.14695087 38.14144805 185.81640625 50.99609375 C184.82736199 60.956219 186.43664897 68.64104779 189.62353516 78.03125 C190.71595844 81.51931026 191.41269389 85.08252738 192.1640625 88.65625 C193.97818784 96.85466483 196.98097584 104.32388211 200.34375 111.99609375 C201.96521842 115.7013501 203.53743684 119.42650735 205.1015625 123.15625 C205.39135986 123.82591797 205.68115723 124.49558594 205.97973633 125.18554688 C212.39333897 140.43461919 212.38955967 157.81894992 206.2890625 173.15625 C197.88051583 193.10965014 179.45610656 204.8573693 160.2890625 213.15625 C149.96793574 217.15625 149.96793574 217.15625 145.2890625 217.15625 C145.70478516 218.27773438 145.70478516 218.27773438 146.12890625 219.421875 C146.49113281 220.40671875 146.85335938 221.3915625 147.2265625 222.40625 C147.58621094 223.38078125 147.94585937 224.3553125 148.31640625 225.359375 C154.16532131 242.17794201 150.74822112 262.99350856 143.4140625 278.78125 C141.58931514 282.25851091 139.97045528 284.65007747 136.9140625 287.09375 C134.79792203 288.98822128 134.31831953 289.89295987 133.99920654 292.76472473 C134.02106018 293.79860825 134.04291382 294.83249176 134.06542969 295.89770508 C134.08955933 297.06282623 134.11368896 298.22794739 134.1385498 299.42837524 C134.3936353 305.74629264 134.77884799 312.04973457 135.2421875 318.35546875 C135.29235771 319.04713449 135.34252792 319.73880024 135.39421844 320.45142555 C135.65894619 324.09167882 135.92976302 327.73141949 136.20556641 331.37084961 C136.4886019 335.12345847 136.74898893 338.87730403 137.00477982 342.63185406 C137.20663095 345.53326152 137.42530059 348.43322301 137.64864349 351.33304787 C137.75230605 352.71809457 137.8495272 354.10363909 137.94016266 355.48959923 C138.06753919 357.41449992 138.22111505 359.3376134 138.37597656 361.26049805 C138.45591858 362.35379929 138.5358606 363.44710052 138.6182251 364.5735321 C139.00857388 367.28497813 139.00857388 367.28497813 141.20941162 368.37239075 C142.23883881 368.76040108 142.23883881 368.76040108 143.2890625 369.15625 C146.64917356 372.90037376 148.10385846 375.4894136 148.6640625 380.53125 C148.2890625 384.15625 148.2890625 384.15625 146.4140625 386.90625 C134.8842028 395.20774899 117.96621386 393.36290938 104.36694336 393.39648438 C101.96239091 393.4063079 99.55865453 393.43750873 97.15429688 393.46875 C95.59896329 393.47527245 94.04362375 393.48052589 92.48828125 393.484375 C91.78289719 393.4967218 91.07751312 393.5090686 90.35075378 393.52178955 C85.07293896 393.49843413 81.11442993 392.32473627 76.2890625 390.15625 C72.59094994 386.36331404 71.16432277 383.25421688 71.15625 378 C71.15431641 377.15453613 71.15238281 376.30907227 71.15039062 375.43798828 C71.15490234 374.52001465 71.15941406 373.60204102 71.1640625 372.65625 C71.16599609 371.7060498 71.16792969 370.75584961 71.16992188 369.77685547 C71.2406781 357.56158025 71.76900094 345.35912312 72.2890625 333.15625 C67.9990625 333.15625 63.7090625 333.15625 59.2890625 333.15625 C58.86415527 334.60547852 58.43924805 336.05470703 58.00146484 337.54785156 C55.61228443 345.50456168 52.76017965 353.2903627 49.92871094 361.09814453 C49.25040047 362.97541281 48.57757347 364.85467118 47.91015625 366.73583984 C46.93659701 369.47946341 45.94674823 372.21671342 44.953125 374.953125 C44.6602359 375.78761169 44.3673468 376.62209839 44.06558228 377.48187256 C42.04985855 382.95519087 39.78993348 388.31964058 34.35498047 391.17089844 C27.07337702 392.45899967 19.7915606 392.46521324 12.4140625 392.40625 C11.72953003 392.40314819 11.04499756 392.40004639 10.33972168 392.39685059 C-24.19523949 392.21335777 -24.19523949 392.21335777 -33.7109375 386.15625 C-36.55428571 382.3233665 -37.1960877 379.68598584 -36.49609375 374.890625 C-35.12398716 370.11214435 -32.7459837 365.84774513 -30.40234375 361.48828125 C-28.84152095 358.41349637 -27.70589387 355.45110551 -26.7109375 352.15625 C-27.66613281 352.75953125 -28.62132812 353.3628125 -29.60546875 353.984375 C-44.86328759 363.47372839 -59.59013605 369.07003418 -77.8359375 365.03125 C-90.18893818 361.52743055 -99.64105027 354.91921386 -106.0234375 343.71875 C-109.80521489 336.25824092 -112.54216034 329.60701558 -111.7109375 321.15625 C-109.75707829 315.80884586 -106.79857463 312.70006857 -101.7109375 310.15625 C-96.6998217 309.60646931 -92.81397257 309.59470487 -88.2734375 311.90625 C-84.25167749 315.43755147 -82.33067041 318.67001501 -80.5859375 323.71875 C-80.25335938 324.66878906 -79.92078125 325.61882812 -79.578125 326.59765625 C-78.9507057 328.44882581 -78.32903812 330.30194815 -77.7109375 332.15625 C-72.56291579 334.89360071 -66.470119 336.13653621 -60.7109375 335.15625 C-49.57951899 331.69954333 -40.35201497 324.23124846 -32.12597656 316.24414062 C-28.08095124 312.33772987 -28.08095124 312.33772987 -25.45703125 311.05078125 C-23.13255275 309.85994103 -22.81944676 308.4775988 -21.7109375 306.15625 C-20.42345194 305.00270668 -19.1081329 303.8798261 -17.7734375 302.78125 C-14.21078239 299.28715921 -13.0217273 296.66040569 -12.09619141 291.77783203 C-11.85805725 290.53567932 -11.6199231 289.29352661 -11.37457275 288.01373291 C-10.31977156 281.88253728 -9.36294978 275.74479685 -8.484375 269.5859375 C-8.28974376 268.24782618 -8.09463479 266.90978428 -7.89907837 265.57180786 C-7.39246191 262.09871259 -6.89103589 258.62489102 -6.39117432 255.15081787 C-5.58571097 249.5576714 -4.77309174 243.96556534 -3.95863724 238.37372208 C-3.67689609 236.43302393 -3.39815883 234.49189046 -3.11947632 232.55075073 C-2.94904816 231.37497467 -2.77862 230.19919861 -2.60302734 228.98779297 C-2.45441254 227.95524384 -2.30579773 226.9226947 -2.15267944 225.8588562 C-1.77978936 223.5774902 -1.31636276 221.38518149 -0.7109375 219.15625 C-1.319375 219.00929688 -1.9278125 218.86234375 -2.5546875 218.7109375 C-21.93874075 213.75090035 -39.15434636 205.76285052 -54.7109375 193.15625 C-55.42636719 192.60582031 -56.14179687 192.05539062 -56.87890625 191.48828125 C-74.22941132 177.46242386 -82.92564435 155.75917494 -85.7109375 134.15625 C-86.00977421 130.13030086 -86.09073303 126.12998811 -86.0859375 122.09375 C-86.08795166 121.01536865 -86.08996582 119.9369873 -86.09204102 118.82592773 C-85.99582549 111.12470053 -85.08163659 103.94998479 -83.04638672 96.52124023 C-80.69139279 87.6132645 -82.68347874 79.54034897 -85.0859375 70.84375 C-91.22692183 47.1266151 -97.10639034 15.10100862 -84.9609375 -7.46875 C-68.88865156 -31.87778276 -19.19492454 -9.56772831 0 0 Z " fill="#FE9723" transform="translate(167.7109375,87.84375)"/>
<path d="M0 0 C5.12748314 2.3581305 7.82727828 2.4937156 13.2890625 1.15625 C13.93359375 1.00945801 14.578125 0.86266602 15.2421875 0.71142578 C17.26657796 0.24468025 19.27615005 -0.26745635 21.2890625 -0.78125 C45.83802486 -6.66448995 78.23356862 -9.16367559 102.4921875 -0.40234375 C108.2163563 1.61815527 112.83566381 3.14382411 118.64453125 0.4296875 C121.74588171 -1.25513384 124.71313261 -3.12151005 127.6875 -5.01953125 C139.69779483 -12.67294914 157.05189951 -19.47231028 171.453125 -16.37890625 C176.3599554 -14.8259955 179.70770006 -12.38146118 182.2890625 -7.84375 C184.62655029 -2.17864139 185.92395009 3.51507098 186.5390625 9.59375 C186.6213208 10.39087402 186.7035791 11.18799805 186.78833008 12.00927734 C187.90758581 24.89967834 187.14695087 38.14144805 185.81640625 50.99609375 C184.82736199 60.956219 186.43664897 68.64104779 189.62353516 78.03125 C190.71595844 81.51931026 191.41269389 85.08252738 192.1640625 88.65625 C193.97818784 96.85466483 196.98097584 104.32388211 200.34375 111.99609375 C201.96521842 115.7013501 203.53743684 119.42650735 205.1015625 123.15625 C205.39135986 123.82591797 205.68115723 124.49558594 205.97973633 125.18554688 C212.39333897 140.43461919 212.38955967 157.81894992 206.2890625 173.15625 C197.88051583 193.10965014 179.45610656 204.8573693 160.2890625 213.15625 C149.96793574 217.15625 149.96793574 217.15625 145.2890625 217.15625 C145.70478516 218.27773438 145.70478516 218.27773438 146.12890625 219.421875 C146.49113281 220.40671875 146.85335938 221.3915625 147.2265625 222.40625 C147.58621094 223.38078125 147.94585937 224.3553125 148.31640625 225.359375 C154.16532131 242.17794201 150.74822112 262.99350856 143.4140625 278.78125 C141.58931514 282.25851091 139.97045528 284.65007747 136.9140625 287.09375 C134.79792203 288.98822128 134.31831953 289.89295987 133.99920654 292.76472473 C134.02106018 293.79860825 134.04291382 294.83249176 134.06542969 295.89770508 C134.08955933 297.06282623 134.11368896 298.22794739 134.1385498 299.42837524 C134.3936353 305.74629264 134.77884799 312.04973457 135.2421875 318.35546875 C135.29235771 319.04713449 135.34252792 319.73880024 135.39421844 320.45142555 C135.65894619 324.09167882 135.92976302 327.73141949 136.20556641 331.37084961 C136.4886019 335.12345847 136.74898893 338.87730403 137.00477982 342.63185406 C137.20663095 345.53326152 137.42530059 348.43322301 137.64864349 351.33304787 C137.75230605 352.71809457 137.8495272 354.10363909 137.94016266 355.48959923 C138.06753919 357.41449992 138.22111505 359.3376134 138.37597656 361.26049805 C138.45591858 362.35379929 138.5358606 363.44710052 138.6182251 364.5735321 C139.00857388 367.28497813 139.00857388 367.28497813 141.20941162 368.37239075 C142.23883881 368.76040108 142.23883881 368.76040108 143.2890625 369.15625 C146.64917356 372.90037376 148.10385846 375.4894136 148.6640625 380.53125 C148.2890625 384.15625 148.2890625 384.15625 146.4140625 386.90625 C134.8842028 395.20774899 117.96621386 393.36290938 104.36694336 393.39648438 C101.96239091 393.4063079 99.55865453 393.43750873 97.15429688 393.46875 C95.59896329 393.47527245 94.04362375 393.48052589 92.48828125 393.484375 C91.78289719 393.4967218 91.07751312 393.5090686 90.35075378 393.52178955 C85.07293896 393.49843413 81.11442993 392.32473627 76.2890625 390.15625 C72.59094994 386.36331404 71.16432277 383.25421688 71.15625 378 C71.15431641 377.15453613 71.15238281 376.30907227 71.15039062 375.43798828 C71.15490234 374.52001465 71.15941406 373.60204102 71.1640625 372.65625 C71.16599609 371.7060498 71.16792969 370.75584961 71.16992188 369.77685547 C71.2406781 357.56158025 71.76900094 345.35912312 72.2890625 333.15625 C67.9990625 333.15625 63.7090625 333.15625 59.2890625 333.15625 C58.86415527 334.60547852 58.43924805 336.05470703 58.00146484 337.54785156 C55.61228443 345.50456168 52.76017965 353.2903627 49.92871094 361.09814453 C49.25040047 362.97541281 48.57757347 364.85467118 47.91015625 366.73583984 C46.93659701 369.47946341 45.94674823 372.21671342 44.953125 374.953125 C44.6602359 375.78761169 44.3673468 376.62209839 44.06558228 377.48187256 C42.04985855 382.95519087 39.78993348 388.31964058 34.35498047 391.17089844 C27.07337702 392.45899967 19.7915606 392.46521324 12.4140625 392.40625 C11.72953003 392.40314819 11.04499756 392.40004639 10.33972168 392.39685059 C-24.19523949 392.21335777 -24.19523949 392.21335777 -33.7109375 386.15625 C-36.55428571 382.3233665 -37.1960877 379.68598584 -36.49609375 374.890625 C-35.12398716 370.11214435 -32.7459837 365.84774513 -30.40234375 361.48828125 C-28.84152095 358.41349637 -27.70589387 355.45110551 -26.7109375 352.15625 C-27.66613281 352.75953125 -28.62132812 353.3628125 -29.60546875 353.984375 C-44.86328759 363.47372839 -59.59013605 369.07003418 -77.8359375 365.03125 C-90.18893818 361.52743055 -99.64105027 354.91921386 -106.0234375 343.71875 C-109.80521489 336.25824092 -112.54216034 329.60701558 -111.7109375 321.15625 C-109.75707829 315.80884586 -106.79857463 312.70006857 -101.7109375 310.15625 C-96.6998217 309.60646931 -92.81397257 309.59470487 -88.2734375 311.90625 C-84.25167749 315.43755147 -82.33067041 318.67001501 -80.5859375 323.71875 C-80.25335938 324.66878906 -79.92078125 325.61882812 -79.578125 326.59765625 C-78.9507057 328.44882581 -78.32903812 330.30194815 -77.7109375 332.15625 C-72.56291579 334.89360071 -66.470119 336.13653621 -60.7109375 335.15625 C-49.57951899 331.69954333 -40.35201497 324.23124846 -32.12597656 316.24414062 C-28.08095124 312.33772987 -28.08095124 312.33772987 -25.45703125 311.05078125 C-23.13255275 309.85994103 -22.81944676 308.4775988 -21.7109375 306.15625 C-20.42345194 305.00270668 -19.1081329 303.8798261 -17.7734375 302.78125 C-14.21078239 299.28715921 -13.0217273 296.66040569 -12.09619141 291.77783203 C-11.85805725 290.53567932 -11.6199231 289.29352661 -11.37457275 288.01373291 C-10.31977156 281.88253728 -9.36294978 275.74479685 -8.484375 269.5859375 C-8.28974376 268.24782618 -8.09463479 266.90978428 -7.89907837 265.57180786 C-7.39246191 262.09871259 -6.89103589 258.62489102 -6.39117432 255.15081787 C-5.58571097 249.5576714 -4.77309174 243.96556534 -3.95863724 238.37372208 C-3.67689609 236.43302393 -3.39815883 234.49189046 -3.11947632 232.55075073 C-2.94904816 231.37497467 -2.77862 230.19919861 -2.60302734 228.98779297 C-2.45441254 227.95524384 -2.30579773 226.9226947 -2.15267944 225.8588562 C-1.77978936 223.5774902 -1.31636276 221.38518149 -0.7109375 219.15625 C-1.319375 219.00929688 -1.9278125 218.86234375 -2.5546875 218.7109375 C-21.93874075 213.75090035 -39.15434636 205.76285052 -54.7109375 193.15625 C-55.42636719 192.60582031 -56.14179687 192.05539062 -56.87890625 191.48828125 C-74.22941132 177.46242386 -82.92564435 155.75917494 -85.7109375 134.15625 C-86.00977421 130.13030086 -86.09073303 126.12998811 -86.0859375 122.09375 C-86.08795166 121.01536865 -86.08996582 119.9369873 -86.09204102 118.82592773 C-85.99582549 111.12470053 -85.08163659 103.94998479 -83.04638672 96.52124023 C-80.69139279 87.6132645 -82.68347874 79.54034897 -85.0859375 70.84375 C-91.22692183 47.1266151 -97.10639034 15.10100862 -84.9609375 -7.46875 C-68.88865156 -31.87778276 -19.19492454 -9.56772831 0 0 Z M-52.640625 46.2734375 C-66.93409768 62.1926152 -76.00613528 81.38935416 -80.7109375 102.15625 C-80.90816406 102.919375 -81.10539062 103.6825 -81.30859375 104.46875 C-81.93142192 108.62900028 -81.81414732 112.76937553 -81.7734375 116.96875 C-81.76892578 117.85240234 -81.76441406 118.73605469 -81.75976562 119.64648438 C-81.74803616 121.81643559 -81.73010245 123.98635172 -81.7109375 126.15625 C-76.24809487 125.1140825 -70.88836392 123.94359736 -65.5234375 122.46875 C-60.75810069 121.26210302 -57.43888587 120.74792495 -52.7109375 122.15625 C-50.8359375 123.28125 -50.8359375 123.28125 -49.7109375 125.15625 C-48.31965566 131.04244242 -48.31965566 131.04244242 -49.44921875 134.2578125 C-54.22744806 141.44734639 -70.69986561 143.02694549 -78.7109375 145.15625 C-78.20477742 150.82399317 -77.12090837 155.21707312 -74.7734375 160.46875 C-74.24878906 161.66113281 -73.72414063 162.85351562 -73.18359375 164.08203125 C-71.76646245 167.22549416 -71.76646245 167.22549416 -69.7109375 170.15625 C-63.73991815 168.29545896 -59.07414296 164.12112182 -54.21289062 160.32421875 C-49.13034459 156.55903218 -46.05313392 155.28615231 -39.7109375 156.15625 C-36.3030885 158.57014304 -34.95796415 159.99522476 -34.0859375 164.09375 C-35.25072624 169.80121482 -39.26782898 173.02927792 -43.91796875 176.1484375 C-45.44673926 177.11950203 -46.9820595 178.08032443 -48.5234375 179.03125 C-49.31169922 179.52882813 -50.09996094 180.02640625 -50.91210938 180.5390625 C-52.83956994 181.75394674 -54.77232374 182.95927503 -56.7109375 184.15625 C-50.25697143 197.94329379 -27.16650141 206.61142532 -13.73828125 211.68359375 C7.00701927 219.1802342 29.7121146 223.47455878 51.75390625 223.45703125 C52.98911514 223.46131638 54.22432404 223.4656015 55.4969635 223.47001648 C58.09440504 223.47571767 60.69186252 223.47629146 63.28930664 223.47192383 C67.18599947 223.4687827 71.08191723 223.49221317 74.97851562 223.51757812 C116.43307646 223.62346861 162.80071718 216.70982123 193.51171875 186.33203125 C195.39276303 184.02930232 196.34158053 181.95942205 197.2890625 179.15625 C196.13277344 178.55876953 196.13277344 178.55876953 194.953125 177.94921875 C193.95023437 177.41941406 192.94734375 176.88960937 191.9140625 176.34375 C190.41746094 175.56064453 190.41746094 175.56064453 188.890625 174.76171875 C186.2890625 173.15625 186.2890625 173.15625 184.2890625 170.15625 C183.71845232 165.75440002 183.78150188 163.85787792 186.4140625 160.21875 C189.85775412 157.74827558 191.13980255 157.49236841 195.2890625 158.15625 C196.4853125 158.671875 197.6815625 159.1875 198.9140625 159.71875 C202.32814619 161.57381703 202.32814619 161.57381703 206.2890625 160.15625 C206.2890625 153.55625 206.2890625 146.95625 206.2890625 140.15625 C200.83500551 138.71440075 200.83500551 138.71440075 195.36987305 137.31567383 C191.67142637 136.28359992 189.74825174 135.72421805 187.27734375 132.66796875 C186.02768313 129.4919538 185.72511454 127.53993778 186.2890625 124.15625 C188.98603644 120.47855826 190.44294468 119.30250366 194.97265625 118.51953125 C196.06707031 118.39964844 197.16148437 118.27976562 198.2890625 118.15625 C198.0624292 117.57770264 197.8357959 116.99915527 197.60229492 116.40307617 C188.7489103 93.72008641 188.7489103 93.72008641 186.6640625 82.91796875 C183.03574492 64.38468748 175.39912623 49.84601043 162.2890625 36.15625 C161.27585937 35.03089844 161.27585937 35.03089844 160.2421875 33.8828125 C141.96539783 14.30053786 112.51535988 3.07392558 86.2890625 0.15625 C85.2990625 0.48625 84.3090625 0.81625 83.2890625 1.15625 C84.1758313 3.75437067 84.1758313 3.75437067 86.2890625 6.15625 C89.14138275 7.02759952 92.00896993 7.13251052 94.9765625 7.28125 C101.84489141 7.70234059 108.87044112 8.16495629 114.2890625 12.90625 C115.75069509 16.19492332 115.73321782 18.60300747 115.2890625 22.15625 C113.15361914 25.4021239 111.75437579 26.04211655 107.9765625 26.96875 C104.24718241 27.1583795 100.95482171 26.82955271 97.2890625 26.15625 C98.3572472 31.26990014 99.52013726 36.22852969 101.2890625 41.15625 C102.46662109 41.33800781 102.46662109 41.33800781 103.66796875 41.5234375 C118.90936848 43.95458102 118.90936848 43.95458102 122.2265625 46.84375 C123.77377502 50.21121254 123.80316438 52.49327407 123.2890625 56.15625 C121.6640625 59.15625 121.6640625 59.15625 118.2890625 61.15625 C113.55810353 61.26876431 108.97257151 60.79635069 104.2890625 60.15625 C104.15951172 61.29513672 104.15951172 61.29513672 104.02734375 62.45703125 C102.88400634 70.54430776 102.88400634 70.54430776 100.1015625 73.40625 C96.43839944 74.38309348 93.94788961 74.10483481 90.2890625 73.15625 C87.66152666 71.14180585 86.45595078 69.29768343 85.97265625 65.9921875 C85.85083984 64.77402344 85.85083984 64.77402344 85.7265625 63.53125 C85.64277344 62.71398437 85.55898437 61.89671875 85.47265625 61.0546875 C85.41207031 60.42820313 85.35148438 59.80171875 85.2890625 59.15625 C77.29594199 60.35595522 77.29594199 60.35595522 69.4765625 62.34375 C65.60839376 63.3297538 63.12941065 63.24314099 59.2890625 62.15625 C56.40524671 59.56821019 55.4399446 57.96095451 54.7265625 54.15625 C55.49487866 50.05856383 57.11340812 48.81533127 60.2890625 46.15625 C63.84765625 44.828125 63.84765625 44.828125 67.7265625 43.90625 C69.00402344 43.59171875 70.28148437 43.2771875 71.59765625 42.953125 C74.82069433 42.25735805 78.0311589 41.65978997 81.2890625 41.15625 C80.68270017 35.39580788 78.53247971 30.43610631 76.2890625 25.15625 C71.81861837 25.54948351 67.49803125 26.02053511 63.1640625 27.21875 C58.45771826 28.35738167 54.50282811 29.03010485 49.9140625 27.21875 C47.69901953 24.40734931 47.44917996 21.90161776 46.9765625 18.41015625 C47.43172838 15.12727236 48.68279727 14.15298546 51.2890625 12.15625 C54.5234375 10.890625 54.5234375 10.890625 58.0390625 9.90625 C59.20953125 9.57109375 60.38 9.2359375 61.5859375 8.890625 C62.92398438 8.52710938 62.92398438 8.52710938 64.2890625 8.15625 C62.42559237 4.28023213 60.82886753 1.75692308 57.2890625 -0.84375 C16.88737058 -5.31924774 -25.99264376 17.54945504 -52.640625 46.2734375 Z " fill="#542C02" transform="translate(167.7109375,87.84375)"/>
<path d="M0 0 C1.93939453 0.39832031 1.93939453 0.39832031 3.91796875 0.8046875 C5.6743844 1.16192458 7.43090182 1.51866151 9.1875 1.875 C10.55068359 2.1534375 10.55068359 2.1534375 11.94140625 2.4375 C18.10353183 3.67690769 24.2155045 4.65426363 30.46875 5.3125 C33.65095806 6.17680342 34.98812649 7.41872833 37 10 C37 10.99 37 11.98 37 13 C36.48050781 13.21914063 35.96101563 13.43828125 35.42578125 13.6640625 C30.38830501 15.95467092 26.8652262 18.07539248 24 23 C23.10751578 28.29961866 23.32032387 32.56222357 25.625 37.4375 C29.48396485 41.60111996 32.20790271 43.77243209 37.9375 44.5 C44.46029598 44.10542633 48.66517235 40.29731627 53.4375 36.25 C68.3434559 24.07074335 87.84100958 17.32004912 107 19 C112.71558814 20.87409081 117.16704409 24.42518166 121 29 C121 29.66 121 30.32 121 31 C119.23244474 31.84026396 117.46082737 32.67198722 115.6875 33.5 C114.70136719 33.9640625 113.71523438 34.428125 112.69921875 34.90625 C110 36 110 36 107 36 C105.60546875 34.28515625 105.60546875 34.28515625 104.1875 32.0625 C101.72636044 28.56820918 101.72636044 28.56820918 97.75 26.9375 C95.03746987 26.80344194 95.03746987 26.80344194 93 28 C92.57688267 31.4554582 92.28312649 33.99719404 94.37109375 36.91796875 C95.47728368 38.11612828 96.61494523 39.28615999 97.78515625 40.421875 C98.18605469 40.94265625 98.58695313 41.4634375 99 42 C97.91900524 45.24298429 97.34373384 45.81612526 94.6875 47.75 C94.09324219 48.19859375 93.49898437 48.6471875 92.88671875 49.109375 C91 50 91 50 88.984375 49.89453125 C85.67619326 48.4032446 84.02639975 45.54993378 81.87890625 42.71484375 C80.09668146 40.76513818 80.09668146 40.76513818 77.40234375 40.62890625 C74.82059782 40.78548822 74.82059782 40.78548822 73 43 C72.53369027 46.1750977 72.6468618 47.51916844 74.56640625 50.1328125 C75.22511719 50.79023438 75.88382812 51.44765625 76.5625 52.125 C78.56640625 54.1328125 78.56640625 54.1328125 80 56 C78.68297095 59.95108714 76.27780263 61.02459932 72.875 63.0625 C71.20050781 64.10083984 71.20050781 64.10083984 69.4921875 65.16015625 C65.93184054 67.03590951 62.88182024 68.0468304 59 69 C58.67 64.38 58.34 59.76 58 55 C54.59679066 54.32326553 54.59679066 54.32326553 51 54 C48.14206684 56.85793316 48.59200059 59.14665584 48.375 63.125 C48.30023438 64.40632813 48.22546875 65.68765625 48.1484375 67.0078125 C48.07496094 68.48894531 48.07496094 68.48894531 48 70 C46.56163249 69.88541307 45.12429034 69.75790884 43.6875 69.625 C42.88699219 69.55539062 42.08648437 69.48578125 41.26171875 69.4140625 C39 69 39 69 36 67 C35.55859375 63.8125 35.55859375 63.8125 35.4375 60 C35.57656712 54.9404232 35.57656712 54.9404232 33 51 C30 50.58333333 30 50.58333333 27 51 C25.0549 53.91765 24.54723683 55.62537285 24 59 C16.0546896 55.48322326 9.2794615 48.62181842 3.4375 42.3125 C1.91856078 40.74722111 1.91856078 40.74722111 -1 40 C10.5893276 54.16033884 27.43363199 69.18959852 46 73 C57.65925245 74.110405 67.33130104 68.88664914 76.7578125 62.453125 C79 61 79 61 82 60 C84.56133471 61.1485939 86.9744815 62.35600683 89.4375 63.6875 C102.08141544 70.20274862 112.86076536 72.66494705 127 73 C128.67901457 83.43387625 129.24965165 93.445283 129 104 C128.43490723 104.17128418 127.86981445 104.34256836 127.28759766 104.51904297 C124.73136161 105.29785095 122.17819924 106.08629621 119.625 106.875 C118.73554688 107.14441406 117.84609375 107.41382813 116.9296875 107.69140625 C116.07890625 107.95566406 115.228125 108.21992188 114.3515625 108.4921875 C113.56604004 108.73308105 112.78051758 108.97397461 111.97119141 109.22216797 C109.81123939 109.92329277 109.81123939 109.92329277 108 112 C107.66666667 114.5 107.66666667 114.5 108 117 C108.66 117.66 109.32 118.32 110 119 C115.36053834 118.7178664 119.9115429 117.50447398 124.921875 115.62109375 C127 115 127 115 131 115 C131 119.29 131 123.58 131 128 C127.94010417 128.9765625 124.88020833 129.953125 121.8203125 130.9296875 C118.91477277 131.81175231 118.91477277 131.81175231 117 134 C117.18757062 137.82564665 117.18757062 137.82564665 119 141 C123.70310404 140.52171823 128.34297349 139.81497964 133 139 C132.99097656 139.65226563 132.98195313 140.30453125 132.97265625 140.9765625 C133.07208889 146.31646832 133.07208889 146.31646832 135.5546875 150.859375 C137.39831568 152.38488449 137.39831568 152.38488449 139.30859375 153.6484375 C142.05459801 155.84270419 142.89393462 158.13026389 143.3125 161.5625 C143 164 143 164 141.8125 165.6875 C134.78623586 170.77548438 125.92695083 170.17990316 117.65234375 170.23828125 C116.56288956 170.246353 115.47343536 170.25442474 114.35096741 170.26274109 C112.05389986 170.27653454 109.75681222 170.28727775 107.4597168 170.29516602 C105.10972087 170.30673112 102.75975213 170.32725343 100.40991211 170.35668945 C97.01137474 170.39924546 93.61361402 170.4155143 90.21484375 170.42578125 C89.16578354 170.44328934 88.11672333 170.46079742 87.03587341 170.47883606 C82.65165051 170.46576521 79.80158826 170.44669824 75.92407227 168.28588867 C72.23554206 163.90374068 71.74891119 160.30901973 71.84765625 154.671875 C71.86586426 153.43630859 71.88407227 152.20074219 71.90283203 150.92773438 C71.93489746 149.63158203 71.96696289 148.33542969 72 147 C72.02819824 145.71931641 72.05639648 144.43863281 72.08544922 143.11914062 C72.18462446 139.16199925 72.30769168 135.20624755 72.4375 131.25 C72.47732801 129.9049513 72.51704183 128.55989922 72.55664062 127.21484375 C72.78518573 120.1053328 73.14885914 113.06394698 74 106 C73.01 106 72.02 106 71 106 C71 107.32 71 108.64 71 110 C66.71 110 62.42 110 58 110 C58.495 108.02 58.495 108.02 59 106 C58.01 106 57.02 106 56 106 C55.74252235 106.88995918 55.74252235 106.88995918 55.47984314 107.79789734 C53.56663574 114.30440083 51.41369222 120.69747308 49.12890625 127.08203125 C48.76530502 128.09923752 48.4017038 129.11644379 48.02708435 130.16447449 C47.26302372 132.29697656 46.49738265 134.42891298 45.73022461 136.56030273 C44.56063054 139.81770658 43.40436216 143.07965969 42.24804688 146.34179688 C41.50082017 148.42216977 40.75280082 150.50225817 40.00390625 152.58203125 C39.66210831 153.55292191 39.32031036 154.52381256 38.96815491 155.52412415 C34.97077784 166.51461108 34.97077784 166.51461108 30 169 C28.56301699 169.10453346 27.12139016 169.14865342 25.68066406 169.16113281 C24.78502747 169.17074036 23.88939087 169.1803479 22.96661377 169.19024658 C21.50587433 169.1966214 21.50587433 169.1966214 20.015625 169.203125 C18.50485382 169.21167511 18.50485382 169.21167511 16.96356201 169.22039795 C14.8215846 169.22986384 12.67959253 169.23638821 10.53759766 169.24023438 C7.30474092 169.2498374 4.07254834 169.28080196 0.83984375 169.3125 C-28.30107431 169.46483394 -28.30107431 169.46483394 -35 163 C-36.13783352 155.79372103 -33.39384873 151.20850771 -30 145 C-28.01398031 140.76927739 -26.45671779 136.43834017 -25 132 C-24.46109131 132.18699463 -23.92218262 132.37398926 -23.36694336 132.56665039 C-20.89553303 133.41430147 -18.41688291 134.23847517 -15.9375 135.0625 C-15.08994141 135.35705078 -14.24238281 135.65160156 -13.36914062 135.95507812 C-8.08170533 137.69033681 -4.4400782 138.29174177 1 137 C1.76956136 134.65466049 1.76956136 134.65466049 2 132 C-0.16495601 129.13693226 -2.53153188 128.25350794 -5.88671875 127.17578125 C-6.82451172 126.86962891 -7.76230469 126.56347656 -8.72851562 126.24804688 C-9.70498047 125.93931641 -10.68144531 125.63058594 -11.6875 125.3125 C-12.67556641 124.99216797 -13.66363281 124.67183594 -14.68164062 124.34179688 C-17.11859142 123.55302536 -19.55794494 122.77279421 -22 122 C-20.9375 113.21428571 -20.9375 113.21428571 -20 110 C-13.96713967 110.68430098 -8.59856057 112.30520105 -2.87304688 114.27148438 C1.20606011 115.6155129 4.70324058 116.45329854 9 116 C11.21896136 114.17528109 11.21896136 114.17528109 11.375 111.5625 C11.25401587 108.9553828 11.25401587 108.9553828 9.5 107.5 C6.04833083 105.4289985 2.49066453 104.49026259 -1.375 103.4375 C-2.86225155 103.02050152 -4.34923608 102.60254936 -5.8359375 102.18359375 C-6.54202148 101.98620605 -7.24810547 101.78881836 -7.97558594 101.58544922 C-10.67820599 100.80386662 -13.34035335 99.91610051 -16 99 C-15.85541885 93.15103512 -15.00806032 87.7224538 -13.36360168 82.10134888 C-9.41465201 68.51263387 -7.69653059 54.61830063 -5.8125 40.625 C-5.4678808 38.12354835 -5.12218342 35.62224499 -4.77539062 33.12109375 C-4.28573575 29.58909718 -3.79740065 26.05700315 -3.31806946 22.52359009 C-2.29604102 15.00200734 -1.17656806 7.4989411 0 0 Z " fill="#FD9723" transform="translate(170,307)"/>
<path d="M0 0 C-2.15961237 2.15961237 -3.92596612 3.02893448 -6.68359375 4.3125 C-7.61107422 4.74820313 -8.53855469 5.18390625 -9.49414062 5.6328125 C-10.46544922 6.08398438 -11.43675781 6.53515625 -12.4375 7 C-14.35385863 7.89370489 -16.26926602 8.78945313 -18.18359375 9.6875 C-19.03493896 10.08324219 -19.88628418 10.47898437 -20.76342773 10.88671875 C-23.19150854 12.03680778 -23.19150854 12.03680778 -26 14 C-31.9810633 13.65158855 -36.9919885 11.53339884 -42.39453125 9.171875 C-49.09691247 6.3410556 -55.22561675 5.8688154 -62.4375 5.9375 C-64.29181641 5.95103516 -64.29181641 5.95103516 -66.18359375 5.96484375 C-67.57771484 5.98224609 -67.57771484 5.98224609 -69 6 C-68.67 6.66 -68.34 7.32 -68 8 C-67.09121094 7.94199219 -66.18242188 7.88398437 -65.24609375 7.82421875 C-52.82835557 7.37845379 -43.10652801 10.23542458 -32 16 C-32 16.66 -32 17.32 -32 18 C-33.84522647 19.48353756 -35.70433688 20.87016454 -37.625 22.25 C-56.69920859 36.50348699 -68.48512243 53.922911 -79 75 C-79.66 75 -80.32 75 -81 75 C-86.79446729 57.21591688 -89.37580178 39.47595021 -89.4375 20.8125 C-89.44358276 20.1139389 -89.44966553 19.41537781 -89.45593262 18.69564819 C-89.51813159 7.80201072 -89.39715651 -4.29746293 -82 -13 C-62.12313392 -31.34787638 -19.71844718 -9.29639389 0 0 Z " fill="#FC9622" transform="translate(170,93)"/>
<path d="M0 0 C1.0209375 0.680625 1.0209375 0.680625 2.0625 1.375 C4.87668071 2.28280023 6.46700542 0.96831259 9.015625 -0.24609375 C14.1074064 -2.18056975 19.2752292 -1.61239852 24.1875 0.5625 C29.23413371 3.38861488 33.16419864 7.49259592 35 13 C35.71177422 20.43295654 35.80138408 26.35015682 31.2890625 32.51171875 C30.24276366 33.71971833 29.13004519 34.86995481 28 36 C27.95942657 38.20835369 28.01635073 40.41894752 28.125 42.625 C28.2067463 49.89298948 27.37829545 54.429574 22.3515625 59.7421875 C17.03048645 64.59854075 12.48597049 66.44169523 5.2734375 66.25 C-0.95081314 65.56554632 -5.0196377 62.64375602 -9 58 C-12 53.55172414 -12 53.55172414 -12 51 C-12.61488281 51.37253906 -13.22976563 51.74507812 -13.86328125 52.12890625 C-14.67152344 52.60199219 -15.47976563 53.07507813 -16.3125 53.5625 C-17.51326172 54.27599609 -17.51326172 54.27599609 -18.73828125 55.00390625 C-21 56 -21 56 -24 55 C-26.07105372 52.11004688 -27.60800995 48.89946679 -29.25 45.75 C-29.72179687 44.89019531 -30.19359375 44.03039062 -30.6796875 43.14453125 C-31.12054688 42.30792969 -31.56140625 41.47132813 -32.015625 40.609375 C-32.42071289 39.84592773 -32.82580078 39.08248047 -33.24316406 38.29589844 C-34.1792594 35.45620794 -33.87843919 33.83026214 -33 31 C-31.4375 29.1875 -31.4375 29.1875 -30 28 C-30.33 27.154375 -30.66 26.30875 -31 25.4375 C-32.94901741 18.73775265 -32.04179401 13.66195641 -29.33203125 7.37109375 C-26.63396391 2.56837564 -22.93870004 -0.11142915 -18 -2.375 C-11.21989799 -3.78752125 -6.16948321 -2.82654737 0 0 Z " fill="#E8FCFB" transform="translate(396,111)"/>
<path d="M0 0 C2.386108 2.2328717 3.08904021 3.32263637 4.25 6.5 C5.76771245 9.4954098 5.76771245 9.4954098 8.625 9.82421875 C10.171875 10.00404297 10.171875 10.00404297 11.75 10.1875 C18.32189147 10.98312851 21.90227042 13.13051948 26.0625 18.25 C29.16154017 23.47963028 29.93917527 28.30255529 29.0625 34.25 C27.24002381 40.81308389 23.95987511 45.72144502 18.0625 49.25 C16.845625 49.518125 15.62875 49.78625 14.375 50.0625 C11.01741765 50.87346206 11.01741765 50.87346206 9.91015625 53.15234375 C9.25445346 54.73498383 8.62333678 56.32800646 8.015625 57.9296875 C6.17105159 62.4201654 3.41682223 65.33661989 -0.625 68.0625 C-8.20695961 70.78056099 -14.34287515 70.92921637 -21.73828125 67.55078125 C-26.02270753 65.01665345 -28.13799512 61.96322474 -30.25 57.4375 C-31.14820967 53.27307337 -31.06651869 49.50761674 -30.9375 45.25 C-34.5675 44.92 -38.1975 44.59 -41.9375 44.25 C-41.9375 35.67 -41.9375 27.09 -41.9375 18.25 C-39.9575 17.92 -37.9775 17.59 -35.9375 17.25 C-35.72996094 16.46496094 -35.52242188 15.67992187 -35.30859375 14.87109375 C-33.21211362 7.72200879 -31.03404244 2.71895871 -24.9375 -1.75 C-22.375 -3.125 -22.375 -3.125 -19.9375 -3.75 C-19.050625 -3.9975 -18.16375 -4.245 -17.25 -4.5 C-10.8781707 -4.98089278 -5.06488887 -4.08839546 0 0 Z " fill="#E8FDFB" transform="translate(426.9375,212.75)"/>
<path d="M0 0 C24.5684286 -0.29840197 24.5684286 -0.29840197 28.6875 3.4375 C30 6 30 6 30 8 C30.81082031 7.96519531 31.62164062 7.93039063 32.45703125 7.89453125 C41.31635387 7.67794711 49.55407294 8.06568814 57.125 13.0625 C59.63852693 15.65981117 59.96122344 16.65747369 60.375 20.3125 C60 24 60 24 57.9375 26.875 C54.39831026 29.43526492 52.35261677 29.92495488 48 30 C45.55434979 29.51373037 43.36663 28.82107572 41 28 C41.20496094 28.59167969 41.40992188 29.18335937 41.62109375 29.79296875 C41.89050781 30.58316406 42.15992188 31.37335938 42.4375 32.1875 C42.70433594 32.96480469 42.97117187 33.74210937 43.24609375 34.54296875 C44.00401911 37.01309856 44.53529778 39.45992864 45 42 C45.78503906 42.12117188 46.57007813 42.24234375 47.37890625 42.3671875 C62.66979322 44.80622469 62.66979322 44.80622469 66.4375 48.1875 C68.44611341 51.80300414 68.58323624 53.91734632 68 58 C66.20437595 60.75329021 64.94745078 62.52627461 62 64 C60.37139517 63.93757961 58.74506544 63.80287069 57.125 63.625 C56.26132812 63.53476563 55.39765625 63.44453125 54.5078125 63.3515625 C52.27639355 63.03874676 50.17057242 62.59564546 48 62 C48.061875 63.216875 48.12375 64.43375 48.1875 65.6875 C48.18057781 69.5985386 47.54740018 71.90672835 45 75 C42.3259797 77.10101595 40.95715315 76.99846976 37.5 76.875 C33.70263089 75.92565772 32.38528498 75.02747709 30 72 C28.79727181 69.59454362 28.89928528 68.05003047 28.9375 65.375 C28.94652344 64.55773437 28.95554688 63.74046875 28.96484375 62.8984375 C28.97644531 62.27195313 28.98804688 61.64546875 29 61 C27.85402344 61.27714844 26.70804688 61.55429688 25.52734375 61.83984375 C23.9974356 62.20589539 22.46748543 62.57177147 20.9375 62.9375 C19.80924805 63.21110352 19.80924805 63.21110352 18.65820312 63.49023438 C6.04503014 66.4933708 6.04503014 66.4933708 3.0390625 65.07421875 C-1.85876679 60.27109886 -1.85876679 60.27109886 -2.3125 56.1875 C-1.90906095 52.0724217 -1.06973437 50.77024809 2 48 C4.92099994 46.66862085 7.90080352 45.81692164 11 45 C11.71027344 44.79375 12.42054688 44.5875 13.15234375 44.375 C17.21299053 43.25267152 20.81049416 42.92296524 25 43 C24.6390625 42.01257813 24.278125 41.02515625 23.90625 40.0078125 C23.43733319 38.71360209 22.96859231 37.41932794 22.5 36.125 C22.26152344 35.47402344 22.02304688 34.82304688 21.77734375 34.15234375 C20 29.2265625 20 29.2265625 20 27 C18.85402344 27.28875 17.70804688 27.5775 16.52734375 27.875 C14.99749932 28.25042195 13.46754549 28.62539829 11.9375 29 C11.18533203 29.19078125 10.43316406 29.3815625 9.65820312 29.578125 C-1.45535714 32.27232143 -1.45535714 32.27232143 -6.875 29.5625 C-9.48053713 26.42052875 -10.04096272 24.21342602 -10.24609375 20.18359375 C-10 18 -10 18 -8.1875 15.125 C-3.30330162 11.86886775 2.09755174 10 8 10 C7.50628906 9.44570312 7.01257813 8.89140625 6.50390625 8.3203125 C5.86324219 7.59585938 5.22257813 6.87140625 4.5625 6.125 C3.60537109 5.04605469 3.60537109 5.04605469 2.62890625 3.9453125 C1 2 1 2 0 0 Z " fill="#8C5E3B" transform="translate(224,86)"/>
<path d="M0 0 C7.63882231 7.4266328 7.98387189 18.10327439 8.16796875 28.15234375 C8.18256559 30.41402477 8.18877808 32.67577224 8.1875 34.9375 C8.18814453 36.11868408 8.18878906 37.29986816 8.18945312 38.5168457 C8.13200691 48.12276603 7.39062373 57.50154329 6 67 C3.30440618 63.6855502 0.77269618 60.30422498 -1.6875 56.8125 C-10.71201748 44.40170332 -21.10208841 35.22475522 -34 27 C-32 25 -32 25 -30.12060547 24.77294922 C-29.37697754 24.78342285 -28.63334961 24.79389648 -27.8671875 24.8046875 C-27.06152344 24.81113281 -26.25585938 24.81757812 -25.42578125 24.82421875 C-24.16314453 24.84935547 -24.16314453 24.84935547 -22.875 24.875 C-21.60076172 24.88853516 -21.60076172 24.88853516 -20.30078125 24.90234375 C-18.20040116 24.92594353 -16.10016556 24.96181517 -14 25 C-14.495 24.01 -14.495 24.01 -15 23 C-17.66673742 22.97272655 -20.33318869 22.95303052 -23 22.9375 C-24.11568359 22.92493164 -24.11568359 22.92493164 -25.25390625 22.91210938 C-28.98011479 22.89590847 -32.46638452 23.03947893 -36.140625 23.6796875 C-40.63456167 24.05266605 -42.77035921 23.22016342 -46.75 21.1875 C-47.83796875 20.64480469 -48.9259375 20.10210937 -50.046875 19.54296875 C-51.02140625 19.03378906 -51.9959375 18.52460937 -53 18 C-54.33246131 17.33159212 -55.66537343 16.6640739 -57 16 C-54.2436649 13.01218048 -51.72110265 11.11641986 -48.0703125 9.34375 C-47.11656738 8.88009033 -46.16282227 8.41643066 -45.18017578 7.9387207 C-44.17196777 7.46394287 -43.16375977 6.98916504 -42.125 6.5 C-41.0922998 6.01168701 -40.05959961 5.52337402 -38.99560547 5.02026367 C-12.64494591 -7.19026336 -12.64494591 -7.19026336 0 0 Z " fill="#FC9622" transform="translate(343,77)"/>
<path d="M0 0 C4.65000317 7.59500519 6.32813266 14.18783913 6.1875 23.0625 C6.18685547 23.83916016 6.18621094 24.61582031 6.18554688 25.41601562 C6.1527911 29.71430163 5.84627427 33.76862866 5 38 C2.98177083 37.96744792 0.96354167 37.93489583 -1.0546875 37.90234375 C-3.08185404 37.87350758 -3.08185404 37.87350758 -5 39 C-5 41.64 -5 44.28 -5 47 C-2.69 47.66 -0.38 48.32 2 49 C-1.09990301 59.09117362 -1.09990301 59.09117362 -4 63 C-4.66 63 -5.32 63 -6 63 C-6.78020873 61.71718489 -7.50012762 60.3973631 -8.1875 59.0625 C-10.25757025 55.58157831 -10.59320952 55.12410557 -14.6875 53.875 C-18.08040952 53.62711648 -18.08040952 53.62711648 -20 56 C-19.77129668 61.03147306 -17.8496887 63.95528056 -15 68 C-15 68.66 -15 69.32 -15 70 C-17.08326131 70.02709444 -19.16662441 70.04643873 -21.25 70.0625 C-22.99023438 70.07990234 -22.99023438 70.07990234 -24.765625 70.09765625 C-27.40977128 70.01782092 -29.49826091 69.78643778 -32 69 C-31.855625 68.01 -31.71125 67.02 -31.5625 66 C-30.99074821 62.00590535 -30.49180166 58.00467063 -30 54 C-32.74744375 51.76123619 -32.74744375 51.76123619 -35.51171875 52.02734375 C-38.22192105 52.8032872 -38.22192105 52.8032872 -39.58203125 55.50390625 C-39.98808594 56.51324219 -40.39414062 57.52257812 -40.8125 58.5625 C-41.23144531 59.57441406 -41.65039062 60.58632813 -42.08203125 61.62890625 C-42.38496094 62.41136719 -42.68789063 63.19382812 -43 64 C-47.23429756 62.68938409 -51.07407404 61.05643741 -55 59 C-45.3300624 48.65495382 -31.53583742 37.59578264 -18 33 C-16.68 33 -15.36 33 -14 33 C-16.49455097 26.60771314 -21.05846794 22.10412614 -27.078125 18.890625 C-28.69216356 18.19514497 -30.34333086 17.58673699 -32 17 C-31.50088513 12.00885127 -31.02789259 8.05901276 -28 4 C-24.29595099 2.63528883 -20.52537338 2.14728587 -16.625 1.625 C-15.5834375 1.46128906 -14.541875 1.29757812 -13.46875 1.12890625 C-8.93574729 0.43910149 -4.59169413 -0.08816219 0 0 Z " fill="#FC9622" transform="translate(309,307)"/>
<path d="M0 0 C4.49597089 1.37188236 8.46933373 3.18730442 12.625 5.375 C18.88838902 8.60768976 25.22982442 11.00366617 32 13 C26.0847847 23.61421811 16.8714949 28.18995767 5.64453125 31.74609375 C-9.16118206 35.44115129 -30.75775877 34.69746042 -44 27 C-51.15074152 21.77082338 -57.55401156 15.57267471 -59.515625 6.65625 C-59.76658585 4.78064784 -59.8969359 2.88950856 -60 1 C-59.33355469 1.37511719 -58.66710937 1.75023437 -57.98046875 2.13671875 C-40.95182095 12.13029891 -40.95182095 12.13029891 -21.91015625 12.12890625 C-14.33321261 9.38102538 -5.80247521 5.80247521 0 0 Z " fill="#F9FCBA" transform="translate(250,367)"/>
<path d="M0 0 C4.79812926 1.45125129 7.18042775 4.45172647 10.51953125 8.0703125 C11.85485934 9.44191077 13.19471141 10.8091193 14.5390625 12.171875 C15.51480225 13.1623584 15.51480225 13.1623584 16.51025391 14.17285156 C22.66618374 20.37332981 27.14033231 24.32698085 36.05517578 24.43969727 C38.31274196 24.38480132 40.55217979 24.25022427 42.8046875 24.09375 C43.96871094 24.06539062 45.13273437 24.03703125 46.33203125 24.0078125 C48.33203125 26.0078125 48.33203125 26.0078125 48.70703125 28.9453125 C48.33203125 32.0078125 48.33203125 32.0078125 46.51953125 33.8203125 C42.34071234 36.08881419 38.96182943 36.14251736 34.26953125 36.1328125 C33.02042969 36.13539063 31.77132812 36.13796875 30.484375 36.140625 C27.33203125 36.0078125 27.33203125 36.0078125 25.33203125 35.0078125 C25.3784375 36.03519531 25.42484375 37.06257813 25.47265625 38.12109375 C25.79442423 48.31164589 25.0719127 57.05764229 19.01953125 65.6953125 C16.33203125 68.0078125 16.33203125 68.0078125 12.83203125 68.6953125 C8.33257307 67.81149036 7.04139678 66.69556002 4.33203125 63.0078125 C-0.28436266 54.09020016 0.17736421 43.80330087 3.14453125 34.4453125 C4.43480575 30.8018937 5.87682135 27.99768129 8.33203125 25.0078125 C6.48647863 20.12527455 2.29220547 16.9984947 -1.5 13.60546875 C-4.24465122 11.00702171 -5.59506144 9.55136255 -6.10546875 5.74609375 C-5.66796875 3.0078125 -5.66796875 3.0078125 -4.54296875 1.0703125 C-2.66796875 0.0078125 -2.66796875 0.0078125 0 0 Z " fill="#512A00" transform="translate(176.66796875,150.9921875)"/>
<path d="M0 0 C1.33340243 4.0002073 0.28218783 7.02486638 -0.6953125 10.9921875 C-0.88463348 11.77514191 -1.07395447 12.55809631 -1.26901245 13.36477661 C-1.67330432 15.02177307 -2.08212726 16.67766954 -2.49511719 18.33251953 C-3.11985242 20.85422213 -3.71670562 23.38148257 -4.3125 25.91015625 C-4.70923763 27.52125288 -5.10762274 29.13194489 -5.5078125 30.7421875 C-5.68200714 31.49442596 -5.85620178 32.24666443 -6.03567505 33.021698 C-8.16790527 41.30061709 -13.95087673 44.96209777 -20.9609375 49.2890625 C-28.32550623 53.43518217 -35.51666409 56.51057677 -44 57 C-44.33 53.7 -44.66 50.4 -45 47 C-48.74691447 45.60229416 -48.74691447 45.60229416 -51 47 C-51.68931344 49.34907875 -51.68931344 49.34907875 -52.125 52.0625 C-52.29257813 52.98160156 -52.46015625 53.90070313 -52.6328125 54.84765625 C-52.81457031 55.91306641 -52.81457031 55.91306641 -53 57 C-60.75 57.125 -60.75 57.125 -63 56 C-61.19587629 50.32989691 -61.19587629 50.32989691 -59.8125 48 C-58.6462727 45.12928665 -59.32771015 42.95807533 -60 40 C-61.98 39.67 -63.96 39.34 -66 39 C-66.32613281 39.53109375 -66.65226562 40.0621875 -66.98828125 40.609375 C-67.42527344 41.31578125 -67.86226562 42.0221875 -68.3125 42.75 C-68.74175781 43.44609375 -69.17101562 44.1421875 -69.61328125 44.859375 C-70.98875419 46.98264026 -72.45949734 48.99418422 -74 51 C-79.43375571 46.58679739 -84.33900577 42.03232004 -88 36 C-88 35.34 -88 34.68 -88 34 C-87.29875 33.97421875 -86.5975 33.9484375 -85.875 33.921875 C-77.86290985 33.44289135 -71.61256535 31.98901791 -66 26 C-65.52949219 26.42152344 -65.05898437 26.84304688 -64.57421875 27.27734375 C-63.95160156 27.82519531 -63.32898438 28.37304688 -62.6875 28.9375 C-61.76517578 29.75541016 -61.76517578 29.75541016 -60.82421875 30.58984375 C-55.69364015 34.55587989 -47.78804214 33.36617741 -41.65625 32.7734375 C-40.09884096 32.55003866 -38.54797164 32.28144939 -37 32 C-36.62488281 32.5775 -36.24976563 33.155 -35.86328125 33.75 C-35.35152344 34.4925 -34.83976562 35.235 -34.3125 36 C-33.81363281 36.7425 -33.31476563 37.485 -32.80078125 38.25 C-31.09732957 40.26019708 -31.09732957 40.26019708 -28.35546875 40.3125 C-26.0463721 40.24902802 -26.0463721 40.24902802 -25 39 C-25.35731472 34.2655799 -26.10288679 31.68723499 -29 28 C-28.505 26.515 -28.505 26.515 -28 25 C-27.01 24.67 -26.02 24.34 -25 24 C-24.63648438 24.6496875 -24.27296875 25.299375 -23.8984375 25.96875 C-22.38742604 28.47935365 -20.91893745 30.78284929 -19 33 C-15.7412565 33.7555432 -15.7412565 33.7555432 -13 33 C-12.11338401 30.02537712 -11.74468101 28.55459399 -13.06640625 25.68359375 C-14.065804 24.18319243 -15.06580657 22.68319379 -16.06640625 21.18359375 C-17 19 -17 19 -16.27563477 17.09301758 C-14.89810164 14.83280868 -13.40982814 13.18254292 -11.5234375 11.328125 C-10.853125 10.66425781 -10.1828125 10.00039063 -9.4921875 9.31640625 C-8.44417969 8.29353516 -8.44417969 8.29353516 -7.375 7.25 C-6.31539062 6.20392578 -6.31539062 6.20392578 -5.234375 5.13671875 C-3.49401297 3.41987512 -1.74915019 1.70788168 0 0 Z " fill="#FA9522" transform="translate(152,393)"/>
<path d="M0 0 C5.45454545 0.45454545 5.45454545 0.45454545 8 3 C8.4453125 5.1953125 8.4453125 5.1953125 8 8 C6.36675623 10.45858404 4.75785383 12.62697011 2.875 14.875 C2.37379639 15.49197754 1.87259277 16.10895508 1.35620117 16.74462891 C-0.08245867 18.50808733 -1.53697583 20.2567331 -3 22 C-3.68191406 22.8146875 -4.36382812 23.629375 -5.06640625 24.46875 C-6.36216248 25.99243444 -7.67784001 27.49916975 -9 29 C-8.731875 29.639375 -8.46375 30.27875 -8.1875 30.9375 C-7.5996875 32.4534375 -7.5996875 32.4534375 -7 34 C-6.73574219 34.56203125 -6.47148437 35.1240625 -6.19921875 35.703125 C-2.64755771 44.25404353 -2.30457534 55.48499793 -5.01953125 64.31640625 C-6.94270816 68.30801513 -8.27336377 70.51557584 -12 73 C-14.375 73.4375 -14.375 73.4375 -17 73 C-22.30477239 68.85968984 -24.91502788 63.25491637 -27 57 C-27.07973476 55.66474283 -27.10771338 54.32587917 -27.09765625 52.98828125 C-27.09443359 52.23095703 -27.09121094 51.47363281 -27.08789062 50.69335938 C-27.07951172 49.90767578 -27.07113281 49.12199219 -27.0625 48.3125 C-27.05798828 47.51521484 -27.05347656 46.71792969 -27.04882812 45.89648438 C-27.0370585 43.93095743 -27.01912348 41.96546915 -27 40 C-28.35544922 40.05220703 -28.35544922 40.05220703 -29.73828125 40.10546875 C-30.91777344 40.13253906 -32.09726562 40.15960938 -33.3125 40.1875 C-34.48425781 40.22230469 -35.65601563 40.25710937 -36.86328125 40.29296875 C-40 40 -40 40 -41.8984375 38.6796875 C-43.59173815 36.09770424 -43.31931621 34.00157241 -43 31 C-40.1932268 28.1932268 -38.29031291 28.80030381 -34.375 28.75 C-27.37795953 28.3149139 -23.82391757 27.00671865 -19 22 C-18.27425781 21.25105469 -17.54851562 20.50210938 -16.80078125 19.73046875 C-12.14599062 14.71214608 -7.84797156 9.41801621 -3.62890625 4.03125 C-2 2 -2 2 0 0 Z " fill="#502900" transform="translate(328,147)"/>
<path d="M0 0 C2.7443361 2.48705459 2.96052254 3.72859244 3.5 7.4375 C3 11 3 11 1.125 13.6875 C-8.70585661 20.96233389 -20.1626295 22.00516311 -32 21 C-38.77080618 19.60601049 -45.81076221 16.76878646 -50 11 C-50.75 7.4375 -50.75 7.4375 -50 4 C-45.85512942 -1.74933661 -39.4154883 -4.22668189 -32.6875 -5.75 C-21.00250949 -6.54220275 -10.16389957 -6.4657671 0 0 Z " fill="#FAFDBA" transform="translate(359,224)"/>
<path d="M0 0 C0.87672363 0.00757324 1.75344727 0.01514648 2.65673828 0.02294922 C11.23432961 0.23964293 19.34130334 1.48230477 26 7.3125 C28.25 10.4375 28.25 10.4375 28.875 13.5 C27.94587408 17.86689182 25.63042007 20.46351023 22.0078125 23.01953125 C15.01496334 26.28770259 8.78453158 26.92994723 1.125 27 C0.20734863 27.01458252 -0.71030273 27.02916504 -1.65576172 27.04418945 C-9.3352829 26.93074979 -17.17260967 25.32658851 -22.8125 19.75 C-23.451875 18.986875 -24.09125 18.22375 -24.75 17.4375 C-25.08 17.1075 -25.41 16.7775 -25.75 16.4375 C-26.3125 13.8125 -26.3125 13.8125 -25.75 10.4375 C-18.95899705 2.09426781 -10.33691602 -0.12501933 0 0 Z " fill="#FAFDBA" transform="translate(159.75,217.5625)"/>
<path d="M0 0 C3.85485585 0.55069369 5.41199853 2.17672567 8 5 C13.19291798 10.40098147 18.922123 14.64984438 25 19 C25.12375 17.88625 25.2475 16.7725 25.375 15.625 C26 12 26 12 28 10 C33.15532426 9.45156125 33.15532426 9.45156125 35.6484375 11.0703125 C37.69378626 13.99055033 37.52608285 16.66860618 37.6875 20.1875 C37.78611328 22.09595703 37.78611328 22.09595703 37.88671875 24.04296875 C37.94279297 25.50669922 37.94279297 25.50669922 38 27 C41.65079826 28.61064629 45.0507432 29.44894091 49 30 C48.94779297 28.53626953 48.94779297 28.53626953 48.89453125 27.04296875 C48.86746094 25.77066406 48.84039062 24.49835938 48.8125 23.1875 C48.76029297 21.29064453 48.76029297 21.29064453 48.70703125 19.35546875 C49 16 49 16 50.28515625 14.03515625 C53.1965423 12.27771365 55.823811 13.29418022 59 14 C60 15 60 15 60.09765625 18.16015625 C60.08605469 19.44792969 60.07445312 20.73570312 60.0625 22.0625 C60.05347656 23.35285156 60.04445312 24.64320313 60.03515625 25.97265625 C60.02355469 26.97167969 60.01195312 27.97070312 60 29 C62.21095812 27.92177933 64.41867306 26.83762596 66.625 25.75 C67.24246094 25.44964844 67.85992187 25.14929688 68.49609375 24.83984375 C72.55940875 22.82957212 76.2773364 20.58868299 80 18 C78.79037611 15.140889 77.48517275 13.4238838 75.375 11.0625 C73 8 73 8 72.5 5.3125 C73.10217164 2.52745615 73.61474169 1.56275544 76 0 C78.25 -0.625 78.25 -0.625 81 0 C84.86923125 3.1192481 88.20676063 6.89229505 91 11 C90.34 11 89.68 11 89 11 C87.23537317 14.08809695 87 15.23312136 87 19 C88.28913487 19.67154933 89.58140204 20.33708859 90.875 21 C91.95394531 21.556875 91.95394531 21.556875 93.0546875 22.125 C94.94848977 23.13673746 94.94848977 23.13673746 97 23 C97.25394531 22.30132812 97.50789063 21.60265625 97.76953125 20.8828125 C98.11371094 19.97273438 98.45789063 19.06265625 98.8125 18.125 C99.14894531 17.22007812 99.48539062 16.31515625 99.83203125 15.3828125 C101 13 101 13 104 11 C107.32240324 11.3241369 108.60776303 11.60776303 111 14 C110.62957306 19.46379741 109.54314226 23.59900209 108 29 C113.28 29.33 118.56 29.66 124 30 C124 30.33 124 30.66 124 31 C121.03 31 118.06 31 115 31 C115 31.66 115 32.32 115 33 C109.38193035 32.47854381 104.82960071 31.4125768 99.5625 29.25 C98.91434326 28.98703125 98.26618652 28.7240625 97.59838867 28.453125 C93.07836236 26.57724926 88.90794118 24.38869475 84.83203125 21.6875 C83.00773294 20.78072658 83.00773294 20.78072658 81.1796875 21.62890625 C80.46039063 22.08136719 79.74109375 22.53382813 79 23 C77.96488281 23.60714844 76.92976563 24.21429688 75.86328125 24.83984375 C75.29053467 25.17951172 74.71778809 25.51917969 74.12768555 25.86914062 C65.52735436 30.93101679 57.30942478 35.50910988 47 34 C30.13487335 29.55784611 17.49751714 18.59061767 5 7 C4.13955078 6.20335937 4.13955078 6.20335937 3.26171875 5.390625 C2.12911663 4.30587931 1.05493042 3.16042346 0 2 C0 1.34 0 0.68 0 0 Z " fill="#5C370B" transform="translate(169,347)"/>
<path d="M0 0 C1.703125 1.44921875 1.703125 1.44921875 3 3 C3 3.99 3 4.98 3 6 C2.07960937 6.44988281 1.15921875 6.89976562 0.2109375 7.36328125 C-8.39232182 11.69295133 -15.84140264 16.65191747 -23.26953125 22.77734375 C-26.88310379 25.71886417 -29.10351272 26.4657403 -33.83203125 26.4140625 C-37.86665097 25.64348648 -40.38667274 23.03203715 -43 20 C-44.92007922 16.87987127 -45.00444282 15.24435496 -44.9375 11.5625 C-43.82736729 7.34399572 -42.38622024 4.68383831 -39 2 C-27.29186142 -4.52210122 -11.77625051 -7.92632246 0 0 Z " fill="#FC9622" transform="translate(240,323)"/>
<path d="M0 0 C5.20896761 1.78032122 10.1339583 3.81311105 15.01831055 6.35595703 C15.01831055 7.01595703 15.01831055 7.67595703 15.01831055 8.35595703 C13.17306047 9.83951357 11.31469146 11.22704499 9.39331055 12.60595703 C3.96618165 16.62714905 -0.91215556 21.00028115 -5.66918945 25.79345703 C-6.26876465 26.39641602 -6.86833984 26.999375 -7.48608398 27.62060547 C-9.94481005 30.13245872 -12.02071711 32.41449852 -13.98168945 35.35595703 C-16.98168945 34.35595703 -16.98168945 34.35595703 -18.33325195 31.84423828 C-18.75348633 30.79623047 -19.1737207 29.74822266 -19.60668945 28.66845703 C-20.03208008 27.63333984 -20.4574707 26.59822266 -20.89575195 25.53173828 C-22.70020081 20.254699 -23.13666159 15.28671661 -23.16918945 9.73095703 C-23.18336914 8.62494141 -23.19754883 7.51892578 -23.2121582 6.37939453 C-22.98736094 3.43035924 -22.61183025 1.79258854 -20.98168945 -0.64404297 C-14.79286949 -3.73845295 -6.34770654 -2.00960273 0 0 Z " fill="#F7FAB8" transform="translate(122.981689453125,102.64404296875)"/>
<path d="M0 0 C0.33 0 0.66 0 1 0 C1 2.64 1 5.28 1 8 C1.6297876 7.81300537 2.2595752 7.62601074 2.90844727 7.43334961 C5.78909859 6.58690857 8.67552144 5.76208982 11.5625 4.9375 C12.55314453 4.64294922 13.54378906 4.34839844 14.56445312 4.04492188 C20.14255696 2.46970983 24.34624846 1.48681217 30 3 C33.24875254 5.22283069 33.89631231 6.61981182 34.9375 10.4375 C35.01117993 14.63725628 34.88727321 15.94773975 32 19 C23.42473202 23.96262737 12.53025824 25.61254311 3 28 C0.78842446 18.4823267 -0.44723112 9.82252062 0 0 Z " fill="#8C5E3A" transform="translate(85,206)"/>
<path d="M0 0 C2.8100346 1.79363911 4.50940468 3.01880935 6 6 C6.48062866 8.95243318 6.59764321 11.05703007 4.95678711 13.64599609 C0.90353064 18.4379075 -3.54479206 21.67161835 -8.875 24.9375 C-9.65875 25.43056641 -10.4425 25.92363281 -11.25 26.43164062 C-13.16049425 27.63152421 -15.07685394 28.82054305 -17 30 C-21.8568562 25.99925916 -25.52575242 22.26401149 -29 17 C-27.48335071 12.87287557 -24.95347548 11.36951709 -21.3125 9.0625 C-17.81569086 6.8327111 -14.46414947 4.6175556 -11.25 2 C-6.92581917 -0.66103436 -5.00413573 -0.7264068 0 0 Z " fill="#8C5E3B" transform="translate(128,243)"/>
<path d="M0 0 C2.386108 2.2328717 3.08904021 3.32263637 4.25 6.5 C5.76771245 9.4954098 5.76771245 9.4954098 8.625 9.82421875 C10.171875 10.00404297 10.171875 10.00404297 11.75 10.1875 C18.32189147 10.98312851 21.90227042 13.13051948 26.0625 18.25 C29.16154017 23.47963028 29.93917527 28.30255529 29.0625 34.25 C27.24002381 40.81308389 23.95987511 45.72144502 18.0625 49.25 C16.845625 49.518125 15.62875 49.78625 14.375 50.0625 C11.01741765 50.87346206 11.01741765 50.87346206 9.91015625 53.15234375 C9.25445346 54.73498383 8.62333678 56.32800646 8.015625 57.9296875 C6.17105159 62.4201654 3.41682223 65.33661989 -0.625 68.0625 C-8.20695961 70.78056099 -14.34287515 70.92921637 -21.73828125 67.55078125 C-26.02270753 65.01665345 -28.13799512 61.96322474 -30.25 57.4375 C-31.14820967 53.27307337 -31.06651869 49.50761674 -30.9375 45.25 C-34.5675 44.92 -38.1975 44.59 -41.9375 44.25 C-41.9375 35.67 -41.9375 27.09 -41.9375 18.25 C-39.9575 17.92 -37.9775 17.59 -35.9375 17.25 C-35.72996094 16.46496094 -35.52242188 15.67992187 -35.30859375 14.87109375 C-33.21211362 7.72200879 -31.03404244 2.71895871 -24.9375 -1.75 C-22.375 -3.125 -22.375 -3.125 -19.9375 -3.75 C-19.050625 -3.9975 -18.16375 -4.245 -17.25 -4.5 C-10.8781707 -4.98089278 -5.06488887 -4.08839546 0 0 Z M-28.54296875 5.046875 C-32.09156509 10.01689789 -32.5614634 14.25995134 -31.9375 20.25 C-34.5775 20.25 -37.2175 20.25 -39.9375 20.25 C-39.9375 27.51 -39.9375 34.77 -39.9375 42.25 C-35.6475 42.25 -31.3575 42.25 -26.9375 42.25 C-27.2675 42.91 -27.5975 43.57 -27.9375 44.25 C-28.4447965 49.80531248 -28.70010422 54.66830236 -26.25 59.75 C-21.27203496 65.18062398 -21.27203496 65.18062398 -14.546875 67.453125 C-7.96794878 67.56097625 -3.43104691 67.35631039 1.68359375 62.80859375 C5.92171657 58.42818383 7.27691264 54.22317286 8.0625 48.25 C9.2175 48.229375 10.3725 48.20875 11.5625 48.1875 C17.04729065 47.52385985 20.49940871 44.28984294 24.0625 40.25 C27.35743595 35.20563551 26.73759904 29.01647098 26.0625 23.25 C24.22134472 18.48272294 20.59683308 15.22761233 16.109375 12.89453125 C12.16875246 11.65368637 8.14028924 11.95462694 4.0625 12.25 C3.835625 11.363125 3.60875 10.47625 3.375 9.5625 C1.46173289 4.73377824 -1.37453641 2.30409172 -5.625 -0.5625 C-14.58305704 -3.77387894 -22.19294413 -2.06020852 -28.54296875 5.046875 Z " fill="#55320C" transform="translate(426.9375,212.75)"/>
<path d="M0 0 C1.0209375 0.680625 1.0209375 0.680625 2.0625 1.375 C4.87668071 2.28280023 6.46700542 0.96831259 9.015625 -0.24609375 C14.1074064 -2.18056975 19.2752292 -1.61239852 24.1875 0.5625 C29.23413371 3.38861488 33.16419864 7.49259592 35 13 C35.71177422 20.43295654 35.80138408 26.35015682 31.2890625 32.51171875 C30.24276366 33.71971833 29.13004519 34.86995481 28 36 C27.95942657 38.20835369 28.01635073 40.41894752 28.125 42.625 C28.2067463 49.89298948 27.37829545 54.429574 22.3515625 59.7421875 C17.03048645 64.59854075 12.48597049 66.44169523 5.2734375 66.25 C-0.95081314 65.56554632 -5.0196377 62.64375602 -9 58 C-12 53.55172414 -12 53.55172414 -12 51 C-12.61488281 51.37253906 -13.22976563 51.74507812 -13.86328125 52.12890625 C-14.67152344 52.60199219 -15.47976563 53.07507813 -16.3125 53.5625 C-17.51326172 54.27599609 -17.51326172 54.27599609 -18.73828125 55.00390625 C-21 56 -21 56 -24 55 C-26.07105372 52.11004688 -27.60800995 48.89946679 -29.25 45.75 C-29.72179687 44.89019531 -30.19359375 44.03039062 -30.6796875 43.14453125 C-31.12054688 42.30792969 -31.56140625 41.47132813 -32.015625 40.609375 C-32.42071289 39.84592773 -32.82580078 39.08248047 -33.24316406 38.29589844 C-34.1792594 35.45620794 -33.87843919 33.83026214 -33 31 C-31.4375 29.1875 -31.4375 29.1875 -30 28 C-30.33 27.154375 -30.66 26.30875 -31 25.4375 C-32.94901741 18.73775265 -32.04179401 13.66195641 -29.33203125 7.37109375 C-26.63396391 2.56837564 -22.93870004 -0.11142915 -18 -2.375 C-11.21989799 -3.78752125 -6.16948321 -2.82654737 0 0 Z M-25.8125 7.125 C-29.91679131 12.51921143 -29.37054072 17.38197045 -29 24 C-28.15697007 27.55542252 -28.15697007 27.55542252 -27 30 C-28.65 30.99 -30.3 31.98 -32 33 C-30.34229667 37.49324849 -28.15017838 41.61186146 -25.875 45.8125 C-25.50246094 46.50537109 -25.12992187 47.19824219 -24.74609375 47.91210938 C-23.83309623 49.60934836 -22.91687284 51.30485138 -22 53 C-18.04 51.02 -14.08 49.04 -10 47 C-9.67 48.98 -9.34 50.96 -9 53 C-6.23713406 58.41521724 -2.55920324 61.67792573 3 64 C8.0468808 65.09216967 11.86926111 64.40919805 16.3125 61.8125 C20.47195828 58.88762197 23.37057161 55.88828517 25 51 C25.09485782 48.8350098 25.12988077 46.66706177 25.125 44.5 C25.12757813 43.3553125 25.13015625 42.210625 25.1328125 41.03125 C25.13684408 37.95320141 25.13684408 37.95320141 24 35 C24.60328125 34.74089844 25.2065625 34.48179687 25.828125 34.21484375 C29.61185575 32.09840443 31.37521948 28.94680936 33 25 C34.02578752 19.3907333 33.73957512 14.55690532 30.875 9.5625 C27.75384405 5.23544289 24.06015763 2.68671921 19 1 C14.19752306 0.59979359 11.34334601 0.50490568 7.25 3.125 C6.1775 3.74375 5.105 4.3625 4 5 C1.9375 4.4375 1.9375 4.4375 0 3 C-9.40880456 -2.96655899 -18.73662633 -1.0533469 -25.8125 7.125 Z " fill="#54300C" transform="translate(396,111)"/>
<path d="M0 0 C4.04823666 1.93211295 7.19672423 4.11931466 8.984375 8.3046875 C9.23703125 9.15289062 9.4896875 10.00109375 9.75 10.875 C10.01296875 11.71804688 10.2759375 12.56109375 10.546875 13.4296875 C11.05939302 16.3369018 10.91496138 18.19852032 10 21 C4.88318891 25.00446085 1.21198411 26.13131166 -5.1875 26.0625 C-6.81751953 26.04896484 -6.81751953 26.04896484 -8.48046875 26.03515625 C-9.31191406 26.02355469 -10.14335938 26.01195312 -11 26 C-13.52064635 19.78840721 -15.25345675 13.72308622 -14 7 C-10.61225686 0.80168477 -6.80992427 -0.46168978 0 0 Z " fill="#8A5D3B" transform="translate(74,401)"/>
<path d="M0 0 C-0.30782496 1.64671412 -0.62139234 3.29235576 -0.9375 4.9375 C-1.11152344 5.85402344 -1.28554688 6.77054687 -1.46484375 7.71484375 C-2 10 -2 10 -3 11 C-5.12254315 11.16143286 -7.24853187 11.27813269 -9.375 11.375 C-15.14650842 11.73461391 -20.28433003 12.65281106 -25.79296875 14.37890625 C-28 15 -28 15 -31 15 C-31.721875 14.0925 -32.44375 13.185 -33.1875 12.25 C-36.28180556 8.43188027 -39.19325429 6.24434985 -44 5 C-51.75691998 4.43801906 -59.31916191 4.77146543 -67 6 C-67.66 4.68 -68.32 3.36 -69 2 C-68.35013123 1.98969254 -67.70026245 1.97938507 -67.03070068 1.96876526 C-60.21634483 1.85989109 -53.40209992 1.74536803 -46.58789062 1.62768555 C-44.05080505 1.58459383 -41.51369526 1.54290278 -38.9765625 1.50268555 C-35.31242601 1.44435319 -31.64840857 1.38084615 -27.984375 1.31640625 C-26.30550201 1.29133751 -26.30550201 1.29133751 -24.5927124 1.26576233 C-18.18413459 1.14743349 -11.84387148 0.80458401 -5.46148682 0.20762634 C-3 0 -3 0 0 0 Z " fill="#F6FAB8" transform="translate(277,312)"/>
<path d="M0 0 C6.95927272 4.29401934 14.00693074 13.41865424 17 21 C16.625 23.75 16.625 23.75 16 26 C13.71875 25.82421875 13.71875 25.82421875 11 25 C9.15625 22.70703125 9.15625 22.70703125 7.5 19.8125 C2.51574208 10.93599183 2.51574208 10.93599183 -6 6 C-13.90532611 12.31133665 -19.99401209 19.90991534 -26 28 C-27.65 27.67 -29.3 27.34 -31 27 C-29.8571947 17.21472961 -19.1909577 7.13225074 -12 1 C-7.98034744 -1.48021115 -4.46058822 -1.28687535 0 0 Z " fill="#552C01" transform="translate(273,228)"/>
<path d="M0 0 C1.60080151 4.00200378 0.29279692 7.04556236 -1 11 C0.423125 11.2165625 0.423125 11.2165625 1.875 11.4375 C7.6268212 13.0640396 12.19487993 17.54611425 16 22 C16.7890625 24.79296875 16.7890625 24.79296875 17 27 C16.35675781 27.18433594 15.71351563 27.36867188 15.05078125 27.55859375 C6.62724497 30.26229655 0.02541673 34.79683036 -7 40 C-8.38601136 41.01138679 -9.77275711 42.02176778 -11.16015625 43.03125 C-14.78412508 45.6731993 -18.39492084 48.33234115 -22 51 C-22 48 -22 48 -19.9375 45.625 C-16.76120105 42.78660519 -13.50982247 40.4087017 -10 38 C-11.13068534 35.45595798 -12.21924052 33.76141473 -14.125 31.6875 C-16.54068589 28.22501689 -16.54632472 26.13645857 -16 22 C-13 20 -13 20 -10.1875 19.9375 C-5.79507601 21.40164133 -3.49855859 24.16356074 -1 28 C-1 28.66 -1 29.32 -1 30 C-0.24074219 29.6390625 0.51851563 29.278125 1.30078125 28.90625 C2.79158203 28.21015625 2.79158203 28.21015625 4.3125 27.5 C5.29863281 27.0359375 6.28476562 26.571875 7.30078125 26.09375 C10 25 10 25 13 25 C9.12255715 19.77132707 5.36855657 15.8604772 -1 14 C-5.33103327 13.41324693 -9.63300012 13.13314024 -14 13 C-13.67 12.01 -13.34 11.02 -13 10 C-8.545 9.505 -8.545 9.505 -4 9 C-3.71125 7.700625 -3.4225 6.40125 -3.125 5.0625 C-2.6328125 2.84765625 -2.6328125 2.84765625 -2 1 C-1.34 0.67 -0.68 0.34 0 0 Z " fill="#5C3103" transform="translate(278,313)"/>
<path d="M0 0 C2.21444638 0.83819094 4.42244801 1.69353422 6.625 2.5625 C14.59911504 5.88398379 14.59911504 5.88398379 22.9375 5.0625 C23.618125 4.711875 24.29875 4.36125 25 4 C23.63432328 8.6480927 21.78539228 10.16083696 17.6875 12.625 C-4.37007797 26.71440985 -19.7447408 46.05974259 -30 70 C-31.66666667 70 -33.33333333 70 -35 70 C-35 69.34 -35 68.68 -35 68 C-34.34 68 -33.68 68 -33 68 C-32.7525 67.16597656 -32.505 66.33195312 -32.25 65.47265625 C-24.80938839 44.80170713 -6.72369042 22.48445928 12 11 C12.66 11 13.32 11 14 11 C14 10.34 14 9.68 14 9 C11.91600739 8.3053358 9.8310091 7.61359954 7.7421875 6.93359375 C5.89758169 6.30558693 4.06862005 5.62983617 2.2578125 4.91015625 C-6.07487179 1.73741332 -13.19192909 1.56681618 -22 2 C-22.33 1.01 -22.66 0.02 -23 -1 C-16.59715658 -4.20142171 -6.61026637 -2.11443092 0 0 Z " fill="#5A3205" transform="translate(124,100)"/>
<path d="M0 0 C3.40953942 1.16535004 6.70621894 2.54188348 10 4 C9.67422369 11.16707877 6.34556372 16.76927124 3 23 C1.05652964 22.0960603 -0.87959907 21.176325 -2.8125 20.25 C-3.89144531 19.73953125 -4.97039062 19.2290625 -6.08203125 18.703125 C-8.97122277 17.01679635 -10.36666729 15.88070666 -12 13 C-12.54046356 8.75350057 -12.48376179 6.74176808 -10.125 3.125 C-6.7482698 -0.2517302 -4.72186346 -0.42159495 0 0 Z " fill="#8D5F3A" transform="translate(363,245)"/>
<path d="M0 0 C0.33 0.99 0.66 1.98 1 3 C2.98394051 3.48728364 4.97429868 3.95416647 6.98046875 4.33984375 C10.84228869 5.1841485 14.59562209 6.28423864 18.375 7.4375 C19.0769751 7.64294434 19.7789502 7.84838867 20.50219727 8.06005859 C26.93109448 10.04331786 26.93109448 10.04331786 29 13 C29.375 15.5 29.375 15.5 29 18 C27.72827148 19.66381836 27.72827148 19.66381836 26 21 C19.49488704 21.62589554 12.55080316 18.87061347 6.4375 16.9375 C5.52419922 16.65583984 4.61089844 16.37417969 3.66992188 16.08398438 C1.44438066 15.39651353 -0.77813991 14.69927647 -3 14 C-2.01 9.38 -1.02 4.76 0 0 Z " fill="#8E5F3A" transform="translate(153,403)"/>
<path d="M0 0 C3.85485585 0.55069369 5.41199853 2.17672567 8 5 C13.19291798 10.40098147 18.922123 14.64984438 25 19 C25.12375 17.88625 25.2475 16.7725 25.375 15.625 C26 12 26 12 28 10 C33.15532426 9.45156125 33.15532426 9.45156125 35.6484375 11.0703125 C37.69378626 13.99055033 37.52608285 16.66860618 37.6875 20.1875 C37.78611328 22.09595703 37.78611328 22.09595703 37.88671875 24.04296875 C37.94279297 25.50669922 37.94279297 25.50669922 38 27 C40.97 27.99 43.94 28.98 47 30 C46.505 31.485 46.505 31.485 46 33 C41.01887494 32.45757687 37.09696462 30.814318 32.75 28.4375 C32.09104736 28.08034912 31.43209473 27.72319824 30.75317383 27.35522461 C24.98539846 24.14417467 19.94078713 20.38083126 15 16 C14.1234375 15.23171875 13.246875 14.4634375 12.34375 13.671875 C9.86977779 11.47440557 7.42612829 9.25007296 5 7 C4.13955078 6.20335937 4.13955078 6.20335937 3.26171875 5.390625 C2.12911663 4.30587931 1.05493042 3.16042346 0 2 C0 1.34 0 0.68 0 0 Z " fill="#5B3306" transform="translate(169,347)"/>
<path d="M0 0 C3.94890355 7.22723857 6.94636617 13.78892255 8 22 C-7.13172414 19.95517241 -7.13172414 19.95517241 -11.6875 15.1875 C-13.12719996 11.69108581 -13.63460529 9.72830606 -13 6 C-9.11952432 0.17928648 -6.8224337 -0.12634136 0 0 Z " fill="#8D5F3A" transform="translate(366,206)"/>
<path d="M0 0 C0.33 0.66 0.66 1.32 1 2 C3.03359791 2.44808089 5.06871139 2.88997199 7.109375 3.3046875 C10.62486789 4.15030606 14.02564063 5.25162532 17.4375 6.4375 C19.22994141 7.05431641 19.22994141 7.05431641 21.05859375 7.68359375 C24 9 24 9 26 12 C25.8125 14.5625 25.8125 14.5625 25 17 C21.7019889 19.19867407 20.47051459 19.20542253 16.66796875 18.61328125 C13.07744192 17.78793321 9.57027829 16.74325982 6.0625 15.625 C5.04978027 15.31163696 5.04978027 15.31163696 4.01660156 14.99194336 C2.09765625 14.3515625 2.09765625 14.3515625 -1 13 C-2.12758089 9.61725734 -1.81750262 8.23221777 -1.0625 4.8125 C-0.86785156 3.91144531 -0.67320312 3.01039063 -0.47265625 2.08203125 C-0.23869141 1.05142578 -0.23869141 1.05142578 0 0 Z " fill="#8D5F3B" transform="translate(147,427)"/>
<path d="M0 0 C0.33 0 0.66 0 1 0 C1.495 8.415 1.495 8.415 2 17 C-1.8053125 18.2375 -1.8053125 18.2375 -5.6875 19.5 C-6.87218872 19.89155273 -6.87218872 19.89155273 -8.08081055 20.29101562 C-11.79689255 21.47504984 -15.05119454 22.43466329 -19 22 C-20.8125 20.8125 -20.8125 20.8125 -22 19 C-22.5 16.5625 -22.5 16.5625 -22 14 C-18.43989217 10.61035774 -15.12278382 9.11812459 -10.4375 7.75 C-9.32246094 7.41484375 -8.20742188 7.0796875 -7.05859375 6.734375 C-4 6 -4 6 0 6 C0 4.02 0 2.04 0 0 Z " fill="#8D5E3A" transform="translate(299,405)"/>
<path d="M0 0 C0.66 0 1.32 0 2 0 C4.06332249 4.12664498 3.53705856 9.02647157 2.3515625 13.3828125 C0.15965045 18.90942835 -2.8557383 22.92205262 -8 26 C-9.216875 26.268125 -10.43375 26.53625 -11.6875 26.8125 C-15.04508235 27.62346206 -15.04508235 27.62346206 -16.15234375 29.90234375 C-16.80804654 31.48498383 -17.43916322 33.07800646 -18.046875 34.6796875 C-19.89144841 39.1701654 -22.64567777 42.08661989 -26.6875 44.8125 C-34.26617968 47.52938517 -40.40542233 47.6827195 -47.796875 44.30078125 C-52.0727668 41.77618556 -54.40167839 38.96591385 -55.875 34.125 C-56.02885574 30.27860654 -55.59024625 26.80380918 -55 23 C-54.67 23 -54.34 23 -54 23 C-53.97421875 23.65226562 -53.9484375 24.30453125 -53.921875 24.9765625 C-53.44831999 32.27361469 -51.91830724 36.29522744 -46.4375 41.375 C-40.57898231 44.14448109 -34.72241961 43.9074732 -28.625 41.875 C-23.57870187 38.27050133 -21.20129407 35.24380802 -19.8125 29.3125 C-19.1328125 26.96484375 -19.1328125 26.96484375 -18 25 C-15.53016048 23.87934328 -13.16516794 23.37026586 -10.515625 22.80859375 C-6.39482149 21.48404977 -4.30502058 18.52982856 -2 15 C-0.58365167 12.16730334 -0.6536995 9.52533562 -0.4375 6.375 C-0.35371094 5.18648437 -0.26992188 3.99796875 -0.18359375 2.7734375 C-0.09271484 1.40058594 -0.09271484 1.40058594 0 0 Z " fill="#583713" transform="translate(453,236)"/>
<path d="M0 0 C0.78552246 0.01047363 1.57104492 0.02094727 2.38037109 0.03173828 C3.23115234 0.03818359 4.08193359 0.04462891 4.95849609 0.05126953 C6.29267578 0.07640625 6.29267578 0.07640625 7.65380859 0.10205078 C8.99958984 0.11558594 8.99958984 0.11558594 10.37255859 0.12939453 C12.59157445 0.15300108 14.81005937 0.18592768 17.02880859 0.22705078 C19.4155368 5.19886799 20.45014512 9.07511793 20.71630859 14.66455078 C20.78205078 15.90076172 20.84779297 17.13697266 20.91552734 18.41064453 C20.95291016 19.34005859 20.99029297 20.26947266 21.02880859 21.22705078 C20.14193359 20.44330078 19.25505859 19.65955078 18.34130859 18.85205078 C14.78096304 15.80136614 11.11211819 12.90661135 7.40380859 10.03955078 C6.85378174 9.61174316 6.30375488 9.18393555 5.73706055 8.74316406 C2.61261099 6.34234549 -0.54884851 4.17994905 -3.97119141 2.22705078 C-1.97119141 0.22705078 -1.97119141 0.22705078 0 0 Z " fill="#F6F9B6" transform="translate(312.97119140625,101.77294921875)"/>
<path d="M0 0 C1.890625 0.28125 1.890625 0.28125 4 1 C6.7683074 6.53661479 8.03144507 11.8227901 7 18 C4.17611004 23.54319141 0.60479989 26.97850985 -5.1875 29.25 C-9.85380138 30.16796093 -14.26326545 30.17155175 -19 30 C-19 28.68 -19 27.36 -19 26 C-17.89140625 25.76925781 -16.7828125 25.53851563 -15.640625 25.30078125 C-14.17685477 24.97237126 -12.71332517 24.64288743 -11.25 24.3125 C-10.52039063 24.16361328 -9.79078125 24.01472656 -9.0390625 23.86132812 C-5.27750368 22.9893304 -3.35547928 22.34154984 -0.5078125 19.60546875 C1.63855518 15.89658989 1.60083153 13.16350865 1 9 C0.3530635 7.3255761 -0.30959426 5.65697379 -1 4 C-0.625 1.6875 -0.625 1.6875 0 0 Z " fill="#4E2700" transform="translate(163,33)"/>
<path d="M0 0 C2.0625 0.4375 2.0625 0.4375 4 1 C4.09796875 1.81984375 4.1959375 2.6396875 4.296875 3.484375 C4.44640625 4.56203125 4.5959375 5.6396875 4.75 6.75 C4.88921875 7.81734375 5.0284375 8.8846875 5.171875 9.984375 C6.12436366 13.45287144 7.17170716 14.82159063 10 17 C15.02534801 17.67648915 18.61414269 16.61673706 23.10546875 14.55859375 C25.4160825 13.87732 26.74639052 14.24546556 29 15 C28.8203125 16.859375 28.8203125 16.859375 28 19 C22.55918344 22.04986949 16.20966984 23.85230763 10 23 C6.45248259 21.56734874 3.25428536 20.1559995 1 17 C-1.01069601 11.70869472 -1.51737528 6.6069042 -1 1 C-0.67 0.67 -0.34 0.34 0 0 Z " fill="#4E2700" transform="translate(174,31)"/>
<path d="M0 0 C5.04386862 5.785614 5.58996659 11.99803453 5.125 19.4375 C3.1875 20 3.1875 20 1.125 20.4375 C-1.08835833 18.22414167 -0.71245708 13.42213103 -1.08203125 10.41796875 C-2.01266484 6.92007008 -2.94516234 5.54268056 -5.875 3.4375 C-8.30386118 3.09480507 -8.30386118 3.09480507 -10.8125 3.5625 C-12.12927734 3.748125 -12.12927734 3.748125 -13.47265625 3.9375 C-16.09241403 4.4827504 -18.40636789 5.42100442 -20.875 6.4375 C-23.1875 6.0625 -23.1875 6.0625 -24.875 5.4375 C-24.8125 3.625 -24.8125 3.625 -23.875 1.4375 C-16.16235015 -2.56714511 -7.93917556 -4.31476933 0 0 Z " fill="#4D2700" transform="translate(172.875,66.5625)"/>
<path d="M0 0 C0.74507812 0.00902344 1.49015625 0.01804688 2.2578125 0.02734375 C4.08868059 0.05081642 5.91938238 0.08668475 7.75 0.125 C8.08 1.445 8.41 2.765 8.75 4.125 C5.94813442 5.05895519 3.95441005 5.09891508 0.9375 5 C-3.5571573 4.96639509 -6.37197386 5.79818431 -10.25 8.125 C-13.28265117 12.97724187 -11.87485954 17.627249 -10.7578125 22.9296875 C-10.59023437 23.65414062 -10.42265625 24.37859375 -10.25 25.125 C-11.57 25.455 -12.89 25.785 -14.25 26.125 C-17.39177184 20.23417779 -18.33160564 14.77487172 -17.25 8.125 C-13.50364073 0.63228147 -7.66280957 -0.17600093 0 0 Z " fill="#4E2700" transform="translate(198.25,56.875)"/>
<path d="M0 0 C1.93923052 1.93923052 1.21866472 5.36539595 1.25 7.9375 C1.28867188 9.83822266 1.28867188 9.83822266 1.328125 11.77734375 C1.21984375 12.84082031 1.1115625 13.90429688 1 15 C-2.31371 17.20914 -3.3446021 17.22481553 -7.1875 17.125 C-8.08855469 17.10695313 -8.98960937 17.08890625 -9.91796875 17.0703125 C-10.60503906 17.04710937 -11.29210937 17.02390625 -12 17 C-11.34 16.67 -10.68 16.34 -10 16 C-10.03480469 15.02417969 -10.06960937 14.04835938 -10.10546875 13.04296875 C-10.13253906 11.77066406 -10.15960938 10.49835938 -10.1875 9.1875 C-10.22230469 7.92292969 -10.25710937 6.65835937 -10.29296875 5.35546875 C-10 2 -10 2 -8.71484375 0.03515625 C-5.8034577 -1.72228635 -3.176189 -0.70581978 0 0 Z " fill="#8C5E3A" transform="translate(228,361)"/>
<path d="M0 0 C0.33 0 0.66 0 1 0 C1 5.94 1 11.88 1 18 C-8.73913043 21.65217391 -8.73913043 21.65217391 -12 21 C-13.875 19.3125 -13.875 19.3125 -15 17 C-15 14.4375 -15 14.4375 -14 12 C-9.9819042 8.60973167 -5.03845707 7.9330476 0 7 C0 4.69 0 2.38 0 0 Z " fill="#8E5E39" transform="translate(301,428)"/>
<path d="M0 0 C2.9375 0.25 2.9375 0.25 6 1 C8 4 8 4 7.875 6.6875 C6.77578899 10.84879881 5.02825866 14.20519347 3 18 C-1.95 16.02 -1.95 16.02 -7 14 C-6.15778313 9.78891566 -5.70609188 8.11044227 -3.5 4.75 C-3.0565625 4.06421875 -2.613125 3.3784375 -2.15625 2.671875 C-1 1 -1 1 0 0 Z " fill="#8E5F3A" transform="translate(86,431)"/>
<path d="M0 0 C5.77359013 1.31217957 9.35936486 7.10415314 12.75 11.625 C8.295 14.595 8.295 14.595 3.75 17.625 C-5.04069767 10.2994186 -5.04069767 10.2994186 -5.5625 6.125 C-5.25 3.625 -5.25 3.625 -4.0625 1.8125 C-2.25 0.625 -2.25 0.625 0 0 Z " fill="#8D5F3A" transform="translate(247.25,346.375)"/>
<path d="M0 0 C5.43475265 1.721005 7.08595405 5.35708701 9.75 10.1875 C5.40865385 16.01730769 5.40865385 16.01730769 2.07421875 16.87890625 C1.30722656 16.98074219 0.54023438 17.08257812 -0.25 17.1875 C-1.28877263 15.6368684 -2.30542555 14.07140319 -3.3125 12.5 C-3.88097656 11.62988281 -4.44945312 10.75976562 -5.03515625 9.86328125 C-6.46160478 6.72142515 -6.38403188 5.40332954 -5.25 2.1875 C-3.25 0.1875 -3.25 0.1875 0 0 Z " fill="#8E5F3A" transform="translate(294.25,359.8125)"/>
<path d="M0 0 C2.4375 0.75 2.4375 0.75 4.4375 2.75 C4.08092001 8.0095548 3.00585699 12.73125763 1.4375 17.75 C-2.5225 16.43 -6.4825 15.11 -10.5625 13.75 C-4.95980135 -0.48388306 -4.95980135 -0.48388306 0 0 Z " fill="#8D5F3A" transform="translate(275.5625,358.25)"/>
<path d="M0 0 C0.99 0.33 1.98 0.66 3 1 C2.01 1.99 1.02 2.98 0 4 C-2.26809746 2.86595127 -4.415813 1.73631371 -6.5625 0.375 C-11.42527313 -1.57010925 -15.82803576 -1.69370608 -21 -1 C-26.00230198 1.45567552 -29.49851535 4.9970307 -32 10 C-32.40144948 16.23647099 -32.581299 22.19207724 -30 28 C-31.65 28.99 -33.3 29.98 -35 31 C-34.79375 30.29875 -34.5875 29.5975 -34.375 28.875 C-33.91680093 25.36214046 -34.86688554 23.33268958 -36 20 C-36.72782081 13.69221965 -35.06961247 8.46409023 -32 3 C-22.82619296 -7.81754002 -11.37344554 -5.89734213 0 0 Z " fill="#56350E" transform="translate(400,113)"/>
<path d="M0 0 C4.39242399 1.46414133 6.68894141 4.22606074 9.1875 8.0625 C9.1875 8.7225 9.1875 9.3825 9.1875 10.0625 C9.8475 10.3925 10.5075 10.7225 11.1875 11.0625 C6.2375 14.0325 6.2375 14.0325 1.1875 17.0625 C-5.64365093 10.10936423 -5.64365093 10.10936423 -6.4375 5.1875 C-6.23125 4.15625 -6.025 3.125 -5.8125 2.0625 C-2.8125 0.0625 -2.8125 0.0625 0 0 Z " fill="#8E5F3A" transform="translate(267.8125,332.9375)"/>
<path d="M0 0 C5.04663371 2.82611488 8.97669864 6.93009592 10.8125 12.4375 C11.52427422 19.87045654 11.61388408 25.78765682 7.1015625 31.94921875 C6.05526366 33.15721833 4.94254519 34.30745481 3.8125 35.4375 C3.56872117 38.79494112 3.56872117 38.79494112 3.6875 42.5625 C3.71457031 44.48449219 3.71457031 44.48449219 3.7421875 46.4453125 C3.76539063 47.43273437 3.78859375 48.42015625 3.8125 49.4375 C3.1525 49.1075 2.4925 48.7775 1.8125 48.4375 C1.00390625 45.41796875 1.00390625 45.41796875 0.375 41.625 C0.14941406 40.38105469 -0.07617188 39.13710937 -0.30859375 37.85546875 C-0.1875 34.4375 -0.1875 34.4375 2.1640625 32.1484375 C3.03804688 31.58382812 3.91203125 31.01921875 4.8125 30.4375 C8.51990062 25.19600257 8.72630735 19.63205943 7.8125 13.4375 C6.08136506 8.62077732 3.45170625 5.4574994 -1 2.9375 C-6.69392091 0.49878293 -12.22999651 0.94812413 -18.1875 2.4375 C-14.24054416 -3.48293376 -6.01686508 -2.70758929 0 0 Z " fill="#502B05" transform="translate(420.1875,111.5625)"/>
<path d="M0 0 C3.0625 0.3125 3.0625 0.3125 4.7421875 1.3828125 C6.77390478 4.35224544 6.34742255 6.9603141 6.25 10.5 C6.22292969 11.77230469 6.19585937 13.04460937 6.16796875 14.35546875 C6.13316406 15.33128906 6.09835938 16.30710937 6.0625 17.3125 C1.27233041 15.07787994 -2.92495115 12.82348025 -6.9375 9.3125 C-4.65143841 0.49483387 -4.65143841 0.49483387 0 0 Z " fill="#926139" transform="translate(199.9375,356.6875)"/>
<path d="M0 0 C7.13567839 8.91959799 7.13567839 8.91959799 6.8125 13.875 C6 16 6 16 5 17 C2.3125 17.625 2.3125 17.625 -1 17 C-3.51608317 14.28908738 -5.49850564 11.38274411 -7 8 C-5.61918777 3.8575633 -3.40174442 2.67796901 0 0 Z " fill="#8E5F3A" transform="translate(134,410)"/>
<path d="M0 0 C3.02254676 2.69870246 4.5913925 5.19847546 5.0625 9.25 C4.75 11.5625 4.75 11.5625 2.75 13.5625 C0.5 14.125 0.5 14.125 -2.25 13.5625 C-5.49702898 10.64329606 -7.86599935 7.71450194 -9.25 3.5625 C-2.93010076 -0.56974181 -2.93010076 -0.56974181 0 0 Z " fill="#8D5F3A" transform="translate(123.25,420.4375)"/>
<path d="M0 0 C0.33 0.99 0.66 1.98 1 3 C-0.98 3.33 -2.96 3.66 -5 4 C-5.33 11.26 -5.66 18.52 -6 26 C-1.71 26 2.58 26 7 26 C6.34 29.96 5.68 33.92 5 38 C4.34 38 3.68 38 3 38 C3 35.03 3 32.06 3 29 C-0.63 28.67 -4.26 28.34 -8 28 C-8 19.42 -8 10.84 -8 2 C-5.36 1.34 -2.72 0.68 0 0 Z " fill="#4F2902" transform="translate(393,229)"/>
<path d="M0 0 C-0.66 3.63 -1.32 7.26 -2 11 C-7.36170213 10.40425532 -7.36170213 10.40425532 -9.875 8.8125 C-11.55183041 6.1109399 -11.39612048 4.10294377 -11 1 C-6.8204355 -1.78637633 -4.85331323 -0.79562512 0 0 Z " fill="#8D5E3A" transform="translate(314,345)"/>
<path d="M0 0 C1.875 0.6875 1.875 0.6875 2.875 1.6875 C2.94705511 3.37358966 2.95886068 5.06250659 2.9375 6.75 C2.92847656 7.66910156 2.91945313 8.58820313 2.91015625 9.53515625 C2.89855469 10.24542969 2.88695313 10.95570313 2.875 11.6875 C-0.095 11.6875 -3.065 11.6875 -6.125 11.6875 C-6.0379995 10.06149059 -5.9298219 8.43660322 -5.8125 6.8125 C-5.75449219 5.90757812 -5.69648437 5.00265625 -5.63671875 4.0703125 C-4.92601219 0.76091552 -3.43411448 -0.50501684 0 0 Z " fill="#8F603B" transform="translate(105.125,438.3125)"/>
<path d="M0 0 C14.52 0 29.04 0 44 0 C44 0.33 44 0.66 44 1 C43.36723145 1.01981934 42.73446289 1.03963867 42.08251953 1.06005859 C28.63386805 1.50032011 15.34631068 2.26430556 2 4 C1.34 2.68 0.68 1.36 0 0 Z " fill="#D7D397" transform="translate(208,314)"/>
<path d="M0 0 C7.92315394 0.59182095 13.80397449 1.40444696 19.54296875 7.1796875 C21.26338117 9.32904994 22.34945217 11.3164902 23 14 C22.01 14 21.02 14 20 14 C19.13375 12.63875 19.13375 12.63875 18.25 11.25 C15.68453858 7.5443335 13.1950965 5.5033085 9 4 C5.66939832 3.42139912 2.37594958 3.1358531 -1 3 C-0.67 2.01 -0.34 1.02 0 0 Z " fill="#52300A" transform="translate(432,222)"/>
<path d="M0 0 C0.33 0 0.66 0 1 0 C2.59239395 10.6967333 2.59239395 10.6967333 0.4375 15.4375 C-7.22239624 23.49021143 -7.22239624 23.49021143 -13 24 C-10.90469426 21.82709034 -8.87892987 19.9114121 -6.4375 18.125 C-1.24109907 13.59480432 -0.60609837 8.52813124 -0.11328125 1.9765625 C-0.07589844 1.32429687 -0.03851563 0.67203125 0 0 Z " fill="#532E08" transform="translate(421,152)"/>
<path d="M0 0 C1 3 1 3 0.1015625 4.890625 C-0.26195312 5.58671875 -0.62546875 6.2828125 -1 7 C-1.44811137 9.35564596 -1.44811137 9.35564596 -1.625 11.75 C-1.69976562 12.54921875 -1.77453125 13.3484375 -1.8515625 14.171875 C-1.90054687 14.77515625 -1.94953125 15.3784375 -2 16 C-4.31 16 -6.62 16 -9 16 C-9 15.67 -9 15.34 -9 15 C-7.02 15 -5.04 15 -3 15 C-3.66 14.34 -4.32 13.68 -5 13 C-4.86328125 10.72265625 -4.86328125 10.72265625 -4.3125 8.0625 C-4.05919922 6.74958984 -4.05919922 6.74958984 -3.80078125 5.41015625 C-2.9474995 2.84198629 -2.05334442 1.71394865 0 0 Z " fill="#5F3E1B" transform="translate(397,217)"/>
<path d="M0 0 C0.33 0 0.66 0 1 0 C1.04898437 0.58007812 1.09796875 1.16015625 1.1484375 1.7578125 C1.59649405 6.43923092 2.298021 10.57485459 4 15 C1.525 16.485 1.525 16.485 -1 18 C-0.814375 17.29875 -0.62875 16.5975 -0.4375 15.875 C0.15621497 12.99669158 0.15621497 12.99669158 -0.5 10.125 C-1.07648191 6.52198804 -0.64311144 3.57284134 0 0 Z " fill="#60401C" transform="translate(366,126)"/>
<path d="M0 0 C-0.33 0.99 -0.66 1.98 -1 3 C-4.3 3.66 -7.6 4.32 -11 5 C-11 4.34 -11 3.68 -11 3 C-11.66 2.67 -12.32 2.34 -13 2 C-4.57142857 -0.28571429 -4.57142857 -0.28571429 0 0 Z " fill="#654113" transform="translate(265,323)"/>
<path d="M0 0 C0.66 0 1.32 0 2 0 C3.20272819 2.40545638 3.10071472 3.94996953 3.0625 6.625 C3.05347656 7.44226563 3.04445313 8.25953125 3.03515625 9.1015625 C3.02355469 9.72804687 3.01195312 10.35453125 3 11 C2.01 11.33 1.02 11.66 0 12 C0 8.04 0 4.08 0 0 Z " fill="#603F1D" transform="translate(453,236)"/>
<path d="M0 0 C1.6396875 0.0928125 1.6396875 0.0928125 3.3125 0.1875 C3.6425 1.1775 3.9725 2.1675 4.3125 3.1875 C0.6825 3.1875 -2.9475 3.1875 -6.6875 3.1875 C-3.6875 0.1875 -3.6875 0.1875 0 0 Z " fill="#5C3D18" transform="translate(384.6875,107.8125)"/>
<path d="M0 0 C1.12758089 3.38274266 0.81750262 4.76778223 0.0625 8.1875 C-0.13214844 9.08855469 -0.32679688 9.98960937 -0.52734375 10.91796875 C-0.68332031 11.60503906 -0.83929688 12.29210937 -1 13 C-1.66 13 -2.32 13 -3 13 C-3.17791204 8.46324303 -3.0461125 5.092225 -1 1 C-0.67 0.67 -0.34 0.34 0 0 Z " fill="#502801" transform="translate(367,120)"/>
<path d="M0 0 C3.3 0.33 6.6 0.66 10 1 C9.67 1.99 9.34 2.98 9 4 C5.7 3.67 2.4 3.34 -1 3 C-0.67 2.01 -0.34 1.02 0 0 Z " fill="#502700" transform="translate(432,222)"/>
<path d="M0 0 C4.62 0 9.24 0 14 0 C14 0.33 14 0.66 14 1 C11.03 1 8.06 1 5 1 C5 1.66 5 2.32 5 3 C3.35 2.67 1.7 2.34 0 2 C0 1.34 0 0.68 0 0 Z " fill="#72430D" transform="translate(279,377)"/>
<path d="M0 0 C1.24386556 3.73159669 0.77811718 6.18015204 0 10 C-0.99 10.495 -0.99 10.495 -2 11 C-2.05399736 9.54207116 -2.09279177 8.08357288 -2.125 6.625 C-2.15980469 5.40683594 -2.15980469 5.40683594 -2.1953125 4.1640625 C-2 2 -2 2 0 0 Z " fill="#522A00" transform="translate(195,330)"/>
<path d="M0 0 C0.33 0 0.66 0 1 0 C1.33 3.96 1.66 7.92 2 12 C1.01 12.33 0.02 12.66 -1 13 C-0.67 8.71 -0.34 4.42 0 0 Z " fill="#725A3B" transform="translate(421,152)"/>
<path d="M0 0 C0.625 1.8125 0.625 1.8125 1 4 C0.01 5.485 0.01 5.485 -1 7 C-1.66 7 -2.32 7 -3 7 C-2.625 4.0625 -2.625 4.0625 -2 1 C-1.34 0.67 -0.68 0.34 0 0 Z " fill="#5D380C" transform="translate(278,313)"/>
<path d="M0 0 C0.66 0.66 1.32 1.32 2 2 C1.625 5.125 1.625 5.125 1 8 C0.01 8 -0.98 8 -2 8 C-1.34 5.36 -0.68 2.72 0 0 Z " fill="#5F401C" transform="translate(434,264)"/>
</svg>
