<?xml version="1.0" encoding="UTF-8"?>
<svg version="1.1" xmlns="http://www.w3.org/2000/svg" width="512" height="512">
<path d="M0 0 C1.0832959 0.27408691 1.0832959 0.27408691 2.18847656 0.55371094 C10.56445229 2.73082114 18.55749768 5.21306828 26.35546875 9.01171875 C42.31935657 16.73957955 42.31935657 16.73957955 59.34960938 14.48803711 C60.88634859 13.92891952 62.41715783 13.35313077 63.94042969 12.75830078 C68.45565967 11.09586546 73.24869792 10.59651384 78 10 C78.85207031 9.88914062 79.70414063 9.77828125 80.58203125 9.6640625 C94.21639264 8.22065371 108.42474108 8.29046128 122.0625 9.6875 C122.77849365 9.75960693 123.4944873 9.83171387 124.23217773 9.90600586 C128.40767904 10.41860768 132.20428824 11.33151138 136.1953125 12.66796875 C145.92407091 15.78899145 152.42928172 17.16160951 161.82397461 12.35717773 C165.68265216 10.15530074 169.47539826 7.85367913 173.26660156 5.53808594 C177.37918025 3.22393394 181.6315759 1.71170285 186.125 0.3125 C186.85299805 0.08199951 187.58099609 -0.14850098 188.33105469 -0.38598633 C197.02228474 -3.03658398 205.58252811 -4.72491343 214.21484375 -1.03515625 C219.85996676 2.23827394 222.37443194 7.94252535 224 14 C225.82874269 22.47908052 226.31494092 30.72086405 226.25 39.375 C226.2497583 40.59018311 226.2495166 41.80536621 226.24926758 43.05737305 C226.19446381 50.73442547 225.61749142 58.1989523 224.6875 65.8125 C223.7360252 74.06502717 224.40289469 79.53525169 227.57421875 87.296875 C229.19092999 91.49589489 230.07070519 95.59974165 230.9375 100 C232.69656589 108.472327 235.51396807 116.06989885 239 124 C247.72025697 143.87200164 254.19192064 162.28854145 247 184 C238.34093713 205.58021899 221.03452246 217.17090832 201 227 C201.66386719 228.00417969 202.32773437 229.00835937 203.01171875 230.04296875 C208.5112477 238.50762397 212.64499391 246.4612572 216 256 C218.28933227 261.83730176 221.27612878 265.5406328 225.828125 269.8359375 C229.5870132 273.58130452 232.76557006 277.80212284 236 282 C239.35179318 280.88273561 240.01707405 280.04550033 242.1875 277.375 C247.29158701 271.36062996 252.14942071 265.6529626 260.25 264.5625 C264.59776477 265.06973922 266.38817227 266.06224715 269.484375 269.046875 C274.19232027 275.11381478 274.52302244 282.35309063 273.6328125 289.73046875 C270.08206203 308.07601287 260.22279908 325.81287475 245 337 C240.07003623 340.18886332 235.97043148 341.92644626 230 341 C223.27739301 338.40589057 217.56407876 334.52275676 212 330 C211.814375 330.680625 211.62875 331.36125 211.4375 332.0625 C207.29802448 340.52142823 199.45826567 344.61258778 191 348 C177.43574423 352.64960314 163.04235344 351.79547561 149.10546875 349.421875 C146.21630192 349.02938441 143.70915172 349.04991731 140.8125 349.25 C134.17266811 349.43657379 127.88174272 345.69640242 123.1171875 341.23828125 C117.8996105 338.18667256 109.1353592 342.10510911 103.5 343.5 C86.96452091 347.59294037 68.02652747 350.42753528 52 343 C50.96875 342.21625 49.9375 341.4325 48.875 340.625 C44.18572276 337.97453895 40.02151157 339.77554275 35 341 C17.99335038 345.01728916 1.01090662 344.84472103 -14.375 336.0625 C-25.42006067 328.94574639 -31.82365126 320.2139351 -35.34375 307.46875 C-37.02015856 298.60773331 -37.61345939 288.10425185 -33 280 C-29.67948406 276.11256671 -26.95266392 274.71497103 -22 274 C-17.51923473 273.77831296 -14.72140233 274.31712855 -11 277 C-6.71230249 281.00185101 -5.42320747 283.75563669 -5.03125 289.56640625 C-5.00974797 291.24087696 -5.03317036 292.91633109 -5.09375 294.58984375 C-5.24552504 298.79527718 -5.23617387 301.4686088 -3.5 305.375 C1.69209808 310.82670299 7.53988384 312.65837245 15 313 C18.3726626 312.72028492 21.67122484 312.16331579 25 311.5625 C25.87011719 311.41490234 26.74023438 311.26730469 27.63671875 311.11523438 C29.75956818 310.75365013 31.88005769 310.37825584 34 310 C32.66803582 299.41671031 31.25652785 288.84735949 29.74402618 278.28826809 C29.04402887 273.38379255 28.37143086 268.4787773 27.76123047 263.56225586 C27.17063059 258.8119496 26.50836605 254.07664681 25.79640198 249.34306526 C25.5380984 247.5409599 25.30530042 245.7349985 25.09922791 243.92617607 C24.29501782 234.32796061 24.29501782 234.32796061 19.30527306 226.56723976 C14.80225411 223.86902576 10.01405631 222.45422414 5 221 C-5.90196482 215.96917804 -14.63654225 208.45677388 -23 200 C-23.68707031 199.32324219 -24.37414062 198.64648438 -25.08203125 197.94921875 C-40.57139028 181.62070708 -47.31851044 156.99682103 -47 135 C-46.53789147 125.38298599 -45.43315524 115.93577868 -42.48828125 106.73828125 C-41.1371794 99.16130207 -44.10357656 91.11750966 -45.9375 83.8125 C-51.98395385 59.12683015 -57.49585681 28.76001468 -45.015625 5.13671875 C-35.76882611 -8.36494774 -13.04140126 -3.35138707 0 0 Z " fill="#532B01" transform="translate(145,82)"/>
<path d="M0 0 C3.96248373 -0.2853419 6.42983447 -0.35048277 9.7734375 1.91796875 C11.61300415 3.66301221 13.16220223 5.30557416 14.5625 7.41796875 C14.5625 8.07796875 14.5625 8.73796875 14.5625 9.41796875 C13.74265625 9.6603125 12.9228125 9.90265625 12.078125 10.15234375 C11.00046875 10.4875 9.9228125 10.82265625 8.8125 11.16796875 C7.74515625 11.4928125 6.6778125 11.81765625 5.578125 12.15234375 C2.36328078 13.50157889 0.69440342 14.67695006 -1.4375 17.41796875 C-2.16741469 20.16588288 -1.98436219 22.63808596 -1.4375 25.41796875 C-0.10416667 28.08463542 -0.10416667 28.08463542 2.5625 29.41796875 C8.89107473 30.22342372 14.49634833 28.60622008 20.609375 26.9765625 C25.20832945 26.10665445 25.20832945 26.10665445 27.5625 27.41796875 C29.046875 30.2890625 29.046875 30.2890625 30.3125 33.85546875 C30.74046875 35.02980469 31.1684375 36.20414063 31.609375 37.4140625 C32.5625 40.41796875 32.5625 40.41796875 32.5625 42.41796875 C31.58410156 42.588125 30.60570312 42.75828125 29.59765625 42.93359375 C18.60519175 44.7953137 18.60519175 44.7953137 8.5625 49.41796875 C6.06218346 53.16844357 6.02646446 54.97653141 6.5625 59.41796875 C8.3323823 62.60461905 8.3323823 62.60461905 11.5625 64.41796875 C15.94013362 64.73708597 19.90146658 63.61863961 24.0625 62.35546875 C28.32382903 61.21404133 32.18321435 61.2392224 36.5625 61.41796875 C36.57667969 62.00964844 36.59085938 62.60132813 36.60546875 63.2109375 C36.86540317 67.51741859 37.18760804 69.89312001 39.75 73.48046875 C43.08237136 75.77610235 44.59730439 76.0085298 48.5625 75.41796875 C51.76726624 74.21051931 51.76726624 74.21051931 53.5625 71.41796875 C53.78872081 69.71433053 53.97138473 68.00468174 54.125 66.29296875 C54.20878906 65.38289063 54.29257812 64.4728125 54.37890625 63.53515625 C54.43949219 62.83648437 54.50007812 62.1378125 54.5625 61.41796875 C55.58730469 61.54816406 56.61210937 61.67835938 57.66796875 61.8125 C59.02849952 61.95324456 60.3891861 62.09248855 61.75 62.23046875 C62.42353516 62.32005859 63.09707031 62.40964844 63.79101562 62.50195312 C67.78998878 62.87258966 69.30662497 62.61732112 72.515625 60.1171875 C74.76583461 57.56754406 74.76583461 57.56754406 75.125 54.41796875 C74.38147252 50.45248885 73.6506832 49.07524267 70.5625 46.41796875 C65.6848581 44.55798188 60.68102132 43.48396268 55.5 42.91796875 C54.530625 42.75296875 53.56125 42.58796875 52.5625 42.41796875 C50.81300228 39.79372217 49.90860019 37.86069659 48.9375 34.91796875 C48.67710937 34.14453125 48.41671875 33.37109375 48.1484375 32.57421875 C47.5625 30.41796875 47.5625 30.41796875 47.5625 27.41796875 C48.44292969 27.5365625 49.32335937 27.65515625 50.23046875 27.77734375 C51.39191406 27.90625 52.55335938 28.03515625 53.75 28.16796875 C54.89855469 28.3071875 56.04710937 28.44640625 57.23046875 28.58984375 C61.33619039 28.37805975 62.7555764 27.35855538 65.5625 24.41796875 C66.47358416 21.01658789 66.85738416 18.59750539 66 15.16796875 C62.08616335 10.40329804 55.3903124 9.2846237 49.5625 8.41796875 C46.45948381 8.28526114 43.36769663 8.16858416 40.26171875 8.15234375 C37.5625 7.41796875 37.5625 7.41796875 35.20703125 4.37109375 C34.66433594 3.3965625 34.12164062 2.42203125 33.5625 1.41796875 C50.71224807 3.60729829 67.07893048 7.50103049 82.5625 15.41796875 C83.57183594 15.90652344 84.58117187 16.39507812 85.62109375 16.8984375 C109.68121199 29.05847325 127.04154701 48.85510979 135.55078125 74.3828125 C136.61727321 78.10733059 137.44943425 81.83859456 138.19140625 85.640625 C140.16339338 95.63578264 143.01662087 105.60707221 147.74609375 114.69140625 C148.5625 116.41796875 148.5625 116.41796875 148.5625 119.41796875 C146.6753125 119.82015625 146.6753125 119.82015625 144.75 120.23046875 C142.45260781 120.82819734 140.63670568 121.37622806 138.5625 122.54296875 C136.27040624 126.84064456 137.39182906 131.91886216 138.5625 136.41796875 C139.76648438 136.67191406 140.97046875 136.92585937 142.2109375 137.1875 C143.78659847 137.53452057 145.36211185 137.88221172 146.9375 138.23046875 C147.7315625 138.39611328 148.525625 138.56175781 149.34375 138.73242188 C150.10429687 138.90322266 150.86484375 139.07402344 151.6484375 139.25 C152.3501709 139.40186768 153.0519043 139.55373535 153.77490234 139.71020508 C155.5625 140.41796875 155.5625 140.41796875 157.5625 143.41796875 C157.75793996 146.29208583 157.84125966 149.04679592 157.8125 151.91796875 C157.82023437 152.69011719 157.82796875 153.46226562 157.8359375 154.2578125 C157.82243153 158.15428343 157.76925169 160.10784122 155.5625 163.41796875 C154.98242188 163.12921875 154.40234375 162.84046875 153.8046875 162.54296875 C147.46388896 159.41320197 147.46388896 159.41320197 140.5625 159.41796875 C137.5219012 161.29155745 137.5219012 161.29155745 135.5625 164.41796875 C134.90091772 168.28221069 135.32066055 171.69245041 136.5625 175.41796875 C138.53833715 176.15316397 140.54427598 176.80869357 142.5625 177.41796875 C144.57720098 178.38800996 146.58172047 179.38041757 148.5625 180.41796875 C144.85728167 191.86297647 131.74506451 200.0401856 121.5625 205.41796875 C101.89430161 215.21394259 76.74648902 223.83367401 54.5625 223.41796875 C56.08211922 217.67334759 57.69611285 211.99770067 59.5625 206.35546875 C64.37603688 190.53165786 65.00073811 174.85664833 65.3515625 158.421875 C65.59621373 149.46983627 65.59621373 149.46983627 65.84765625 145.14453125 C65.892854 144.28037598 65.93805176 143.4162207 65.98461914 142.52587891 C66.5625 140.41796875 66.5625 140.41796875 68.37646484 139.08081055 C69.76134813 138.4915669 71.15938078 137.93265573 72.56640625 137.3984375 C75.57943146 135.91845838 76.40450985 134.00101706 77.6875 130.98828125 C79.54616467 125.52845378 81.09051169 119.992733 82.5625 114.41796875 C81.5725 114.41796875 80.5825 114.41796875 79.5625 114.41796875 C79.48 115.53171875 79.3975 116.64546875 79.3125 117.79296875 C78.46920219 124.38708916 76.20162712 130.2029321 72.25 135.54296875 C68.69213863 138.02519761 66.82397942 138.09083392 62.5625 137.41796875 C57.64931195 134.96137473 55.57148229 132.49329243 53.5625 127.41796875 C52.69735933 124.46940479 52.38369179 121.71881441 52.24609375 118.65234375 C52.18325195 117.31816406 52.18325195 117.31816406 52.11914062 115.95703125 C52.07982422 115.03664063 52.04050781 114.11625 52 113.16796875 C51.93522461 111.76417969 51.93522461 111.76417969 51.86914062 110.33203125 C51.7633195 108.02748234 51.66123443 105.72283036 51.5625 103.41796875 C50.9025 103.08796875 50.2425 102.75796875 49.5625 102.41796875 C49.57821045 103.01746338 49.5939209 103.61695801 49.61010742 104.23461914 C49.6729413 106.98313752 49.71164235 109.73150417 49.75 112.48046875 C49.77513672 113.42341797 49.80027344 114.36636719 49.82617188 115.33789062 C49.89794055 122.20376015 49.34138905 127.16506877 44.73046875 132.5625 C44.07691406 133.11292969 43.42335938 133.66335937 42.75 134.23046875 C41.78126953 135.07544922 41.78126953 135.07544922 40.79296875 135.9375 C33.84612451 140.54845266 25.16638474 140.43182948 17.1875 138.98828125 C10.82875258 136.97633382 6.42758678 132.58072172 3.0859375 126.9140625 C1.00712318 122.83545313 -0.762716 118.67692173 -2.4375 114.41796875 C-3.73389554 116.44778258 -3.73389554 116.44778258 -2.72265625 118.921875 C0.67029816 127.40968108 4.38654761 134.71250161 12.74609375 139.08203125 C15.65851106 140.3101177 18.56325955 141.42322067 21.5625 142.41796875 C18.85954208 205.93747993 18.85954208 205.93747993 0.69140625 223.1953125 C-1.4375 224.41796875 -1.4375 224.41796875 -3.921875 224.30859375 C-6.730483 223.31424185 -8.42454021 222.09567523 -10.6875 220.16796875 C-18.50429664 213.82579318 -25.54760579 210.00966789 -35.70703125 210.0546875 C-39.67017653 210.58197292 -42.68532386 212.23778061 -46.11328125 214.2265625 C-50.12938208 216.28523603 -52.45763439 216.65190063 -56.90625 215.58984375 C-58.25641666 215.13448613 -59.59992274 214.65907733 -60.9375 214.16796875 C-61.6694458 213.90201904 -62.4013916 213.63606934 -63.15551758 213.36206055 C-78.76030723 207.43860978 -92.84636728 199.3584992 -105.4375 188.41796875 C-103.93408736 183.71163353 -100.0262978 181.89534237 -96.0625 179.41796875 C-88.39593108 175.15286915 -88.39593108 175.15286915 -83.87109375 168.19921875 C-83.87241921 163.10026725 -83.87241921 163.10026725 -86.5625 158.85546875 C-89.93311228 157.17016261 -91.70451933 157.06931863 -95.4375 157.41796875 C-98.21572574 158.75354294 -98.21572574 158.75354294 -100.8359375 160.69921875 C-101.80917969 161.37597656 -102.78242188 162.05273438 -103.78515625 162.75 C-104.78417969 163.46542969 -105.78320312 164.18085938 -106.8125 164.91796875 C-107.83472656 165.63339844 -108.85695313 166.34882813 -109.91015625 167.0859375 C-112.4283174 168.85100373 -114.93666227 170.62848324 -117.4375 172.41796875 C-120.72153012 168.47628675 -122.80608482 164.68966832 -124.625 159.91796875 C-124.88474609 159.26699219 -125.14449219 158.61601562 -125.41210938 157.9453125 C-126.77179187 154.46705495 -127.84849526 151.1081189 -128.4375 147.41796875 C-120.84719447 144.80445695 -113.25467368 142.50698554 -105.46875 140.54296875 C-102.15561378 139.31335118 -100.57490739 138.21303995 -98.4375 135.41796875 C-97.42314575 131.59922332 -97.92637392 128.34728889 -99.8125 124.91796875 C-104.60566525 122.17901718 -109.74424922 122.77241093 -114.99609375 124.03125 C-116.65940243 124.53724874 -118.31601346 125.06583538 -119.96484375 125.6171875 C-123.7333666 126.83764119 -127.56277455 127.60552632 -131.4375 128.41796875 C-133.46729611 98.02741031 -120.13752103 69.33604864 -100.55419922 46.88232422 C-89.52355889 34.55906151 -76.85460245 25.44049369 -62.4375 17.41796875 C-61.81681641 17.0725 -61.19613281 16.72703125 -60.55664062 16.37109375 C-41.87077243 6.25044594 -20.83530179 2.53338329 0 0 Z " fill="#FD9723" transform="translate(233.4375,94.58203125)"/>
<path d="M0 0 C0.44730469 0.34933594 0.89460938 0.69867188 1.35546875 1.05859375 C1.96003906 1.51363281 2.56460938 1.96867187 3.1875 2.4375 C3.77917969 2.88996094 4.37085938 3.34242188 4.98046875 3.80859375 C7.30634601 5.18072637 9.34512905 5.60108157 12 6 C14.14082391 35.68609158 2.41222184 69.56189226 -17 92 C-17.66 92.99 -18.32 93.98 -19 95 C-22.19670649 93.62117961 -24.7216661 91.70571115 -27.41650391 89.52124023 C-35.6245256 82.87033212 -45.22906835 76.33333142 -56.2265625 76.546875 C-66.60906511 78.2431712 -74.98276462 85.15716129 -82.46948242 92.08691406 C-86.72194325 96 -86.72194325 96 -90 96 C-95.85112905 92.15860658 -99.74823899 86.87094011 -103.45703125 81.0390625 C-104.91372254 78.71448808 -104.91372254 78.71448808 -108 78 C-103.04369209 85.62950177 -98.37948989 92.47040948 -91 98 C-92.35354663 101.99719238 -94.10995202 104.50776179 -97 107.5625 C-99.54219638 110.2589105 -101.51536385 112.58997635 -103 116 C-102.01 116 -101.02 116 -100 116 C-99.72454346 115.40759521 -99.44908691 114.81519043 -99.1652832 114.20483398 C-98.05642724 112.10676606 -96.90000022 110.51312362 -95.35546875 108.72265625 C-94.84306641 108.12646484 -94.33066406 107.53027344 -93.80273438 106.91601562 C-93.00319336 105.99852539 -93.00319336 105.99852539 -92.1875 105.0625 C-91.66607422 104.45470703 -91.14464844 103.84691406 -90.60742188 103.22070312 C-87.53821781 99.66870291 -84.45727961 96.17973186 -81 93 C-80.34 93 -79.68 93 -79 93 C-78.67 94.65 -78.34 96.3 -78 98 C-74.58343976 98.16677282 -74.58343976 98.16677282 -71 98 C-68.69939466 96.1371051 -68.69939466 96.1371051 -68.8046875 93.1796875 C-68.82789063 92.08914063 -68.85109375 90.99859375 -68.875 89.875 C-68.89304688 88.77929688 -68.91109375 87.68359375 -68.9296875 86.5546875 C-68.95289063 85.71164062 -68.97609375 84.86859375 -69 84 C-67.75539217 83.32332002 -66.50403104 82.65905281 -65.25 82 C-64.20585937 81.443125 -64.20585937 81.443125 -63.140625 80.875 C-61 80 -61 80 -57 80 C-56.80664062 81.05960937 -56.61328125 82.11921875 -56.4140625 83.2109375 C-56.15144936 84.59903553 -55.88840614 85.98705224 -55.625 87.375 C-55.49867188 88.07367188 -55.37234375 88.77234375 -55.2421875 89.4921875 C-54.49856679 93.67259465 -54.49856679 93.67259465 -52 97 C-48.93008319 96.83557723 -48.93008319 96.83557723 -46 96 C-44.52806688 93.05613377 -45.15063827 90.62609964 -45.4375 87.375 C-45.59025391 85.59222656 -45.59025391 85.59222656 -45.74609375 83.7734375 C-45.82988281 82.85820312 -45.91367188 81.94296875 -46 81 C-41.60336239 82.27644318 -38.31790756 83.93017557 -34.625 86.625 C-33.75101562 87.25664062 -32.87703125 87.88828125 -31.9765625 88.5390625 C-31.32429688 89.02117187 -30.67203125 89.50328125 -30 90 C-31.06457357 92.23097591 -31.9966101 93.99608857 -33.625 95.875 C-35.45336519 98.70065529 -35.29325908 100.70083541 -35 104 C-33.91174564 105.2830226 -33.91174564 105.2830226 -31.3125 105.4375 C-27.13241331 104.88541308 -26.04755056 103.39821976 -23.4921875 100.21484375 C-22 99 -22 99 -19.99609375 99.17578125 C-16.83465748 100.4811884 -15.10917254 102.34846881 -13 105 C-12.91245068 108.5019727 -13.80305409 109.76724575 -16.0625 112.4375 C-18.41484282 115.54866308 -18.43319839 117.18785419 -18 121 C-16.90956624 122.27904792 -16.90956624 122.27904792 -14.3125 122.5 C-9.91077386 121.83558851 -8.73927386 119.93998468 -6.1015625 116.53125 C-5.73804688 116.0259375 -5.37453125 115.520625 -5 115 C-4.52949219 115.40992188 -4.05898438 115.81984375 -3.57421875 116.2421875 C-2.95160156 116.78101563 -2.32898438 117.31984375 -1.6875 117.875 C-1.07261719 118.40867187 -0.45773437 118.94234375 0.17578125 119.4921875 C2.13498212 121.1640447 2.13498212 121.1640447 5 123 C5.25394531 122.27683594 5.50789063 121.55367188 5.76953125 120.80859375 C9.31292632 112.7206539 16.74161188 104.19099505 25 100.75 C28.92499029 101.07708252 30.59931762 102.60389897 33.484375 105.1640625 C37.1626452 109.61969908 37.43550317 114.22353775 37.30859375 119.78515625 C35.49728256 138.65489181 25.86575832 156.11186807 11.375 168.1875 C7.57260249 171.08932968 5.18676016 172.60440228 0.27734375 172.41796875 C-8.38204868 170.8286806 -15.52441504 163.21214893 -22.09106445 157.765625 C-30.45042531 150.8801593 -39.18332339 144.23113841 -50.4453125 144.58203125 C-55.12369406 145.34745453 -57.92764495 147.45790472 -61 151 C-64.64500019 156.63703518 -68.01178464 162.28263738 -69 169 C-68.34 169 -67.68 169 -67 169 C-66.85304687 168.45472656 -66.70609375 167.90945313 -66.5546875 167.34765625 C-64.35603221 159.95562552 -60.82418173 154.21642919 -55.75 148.4375 C-51.4656152 146.19793522 -47.72535593 146.22048873 -43 147 C-35.82165684 149.41503948 -25.48016369 155.03967263 -22 162 C-39.93798413 168.36290758 -64.73326703 175.18060523 -83 167 C-89.76111765 163.68024259 -95.45209853 159.50867887 -97.96557617 152.1875 C-101.50239703 138.27697496 -103.54504033 124.09179812 -105.7354126 109.92102051 C-106.16908855 107.12539272 -106.60921542 104.33079898 -107.04963112 101.53622627 C-109.49115709 86.04188144 -111.84221832 70.53668295 -114 55 C-111.03 55.66 -108.06 56.32 -105 57 C-104.67 58.32 -104.34 59.64 -104 61 C-103.41992188 60.52949219 -102.83984375 60.05898438 -102.2421875 59.57421875 C-95.50429816 54.20392081 -90.46756936 50.34594588 -81.58203125 50.65234375 C-72.77209442 51.8385531 -65.17755952 57.52685355 -59.3125 63.9375 C-57.21298795 66.25725721 -57.21298795 66.25725721 -54.5625 66.0625 C-46.31610039 62.64326114 -41.6167773 57.05439631 -38.07226562 48.85351562 C-33.66094644 37.63563266 -30.96834542 26.34868837 -29.59301758 14.3762207 C-29.24205786 11.78673163 -28.89153316 9.45679823 -28 7 C-25.16321113 4.96579677 -23.48789843 4 -20 4 C-19.319375 5.7015625 -19.319375 5.7015625 -18.625 7.4375 C-17.42904194 11.04721692 -17.42904194 11.04721692 -15 12 C-12.06920681 12.28362515 -9.84691694 12.49240909 -7 12 C-3.30725874 8.70647401 -1.77384782 4.52331194 0 0 Z " fill="#FD9622" transform="translate(284,256)"/>
<path d="M0 0 C2.35146219 0.79218892 4.71711745 1.53129749 7.08544922 2.27148438 C18.06224966 5.75906651 28.61784352 9.83501966 39.05810547 14.69335938 C36.9699752 16.973775 35.10534757 18.32727109 32.29248047 19.59570312 C31.20386719 20.09553711 31.20386719 20.09553711 30.09326172 20.60546875 C29.33916016 20.94384766 28.58505859 21.28222656 27.80810547 21.63085938 C26.32239793 22.30370598 24.83800539 22.97946421 23.35498047 23.65820312 C22.62988281 23.98675293 21.90478516 24.31530273 21.15771484 24.65380859 C19.11735011 25.66402639 17.28822184 26.82571847 15.38623047 28.07226562 C12.05810547 29.69335938 12.05810547 29.69335938 9.06982422 29.10351562 C8.07595703 28.63816406 7.08208984 28.1728125 6.05810547 27.69335938 C4.88892578 27.27957031 3.71974609 26.86578125 2.51513672 26.43945312 C1.31244141 26.00761719 0.10974609 25.57578125 -1.12939453 25.13085938 C-7.99594906 22.53149883 -7.99594906 22.53149883 -15.17236328 21.37695312 C-15.97480469 21.33505859 -16.77724609 21.29316406 -17.60400391 21.25 C-18.43738281 21.21068359 -19.27076172 21.17136719 -20.12939453 21.13085938 C-20.974375 21.08767578 -21.81935547 21.04449219 -22.68994141 21 C-24.77373887 20.8940442 -26.85779556 20.79320917 -28.94189453 20.69335938 C-28.94189453 21.68335937 -28.94189453 22.67335938 -28.94189453 23.69335938 C-27.88873047 23.63535156 -26.83556641 23.57734375 -25.75048828 23.51757812 C-13.30539962 23.04863696 -2.65582648 24.82597067 8.05810547 31.69335938 C5.23551808 34.69804918 2.37534581 37.24361099 -0.94189453 39.69335938 C-18.83743282 53.43617676 -30.30758293 71.59099766 -39.94189453 91.69335938 C-48.62681249 75.44548755 -50.16969681 52.10756683 -50.25439453 34.00585938 C-50.25995361 33.01416748 -50.2655127 32.02247559 -50.27124023 31.00073242 C-50.17577296 21.36996164 -48.89232554 9.2767222 -42.23095703 1.76367188 C-31.52449423 -7.67789237 -12.54304364 -4.24523737 0 0 Z " fill="#FC9622" transform="translate(146.94189453125,86.306640625)"/>
<path d="M0 0 C3.5624308 -0.05827558 7.12473819 -0.09368885 10.6875 -0.125 C12.19860352 -0.15013672 12.19860352 -0.15013672 13.74023438 -0.17578125 C14.71669922 -0.18222656 15.69316406 -0.18867187 16.69921875 -0.1953125 C17.59471436 -0.20578613 18.49020996 -0.21625977 19.4128418 -0.22705078 C22.30212878 0.02651503 24.40559196 0.71638587 27 2 C27.4846875 2.68964844 27.969375 3.37929687 28.46875 4.08984375 C29.8688773 6.25596144 29.8688773 6.25596144 32.53125 6.50390625 C34.00078125 6.53291016 34.00078125 6.53291016 35.5 6.5625 C43.13817608 6.960611 51.85061156 8.04081578 58 13 C60.05430581 15.61457103 60 17.06354429 60 20.4375 C58.70479166 25.0516797 57.03318066 26.48877431 53 29 C48.32150648 29.69679691 44.42478443 28.41593102 40 27 C40.680625 28.5159375 40.680625 28.5159375 41.375 30.0625 C42.96518019 33.60426498 43.96788216 37.26193842 45 41 C46.08539063 41.15855469 47.17078125 41.31710938 48.2890625 41.48046875 C49.73454119 41.71512438 51.179845 41.95085903 52.625 42.1875 C53.33785156 42.28869141 54.05070312 42.38988281 54.78515625 42.49414062 C60.21037471 43.41493458 63.08040396 45.12261499 67 49 C68.42662219 51.85324437 68.31033868 53.83454549 68 57 C66.20006226 59.69990662 64.916227 61.5418865 62 63 C56.57065739 63.32576056 52.17510883 62.45266213 47 61 C47.04640625 61.67546875 47.0928125 62.3509375 47.140625 63.046875 C47.43819609 70.40113201 47.43819609 70.40113201 45.125 73.5625 C41.53369644 75.99191123 39.36754597 76.42819078 35 76 C32.30009338 74.20006226 30.4581135 72.916227 29 70 C28.93049459 68.45976004 28.91547643 66.91665012 28.9375 65.375 C28.94652344 64.55773437 28.95554687 63.74046875 28.96484375 62.8984375 C28.97644531 62.27195313 28.98804688 61.64546875 29 61 C26.95737483 61.28487651 24.91592973 61.57822051 22.875 61.875 C21.73804688 62.03742188 20.60109375 62.19984375 19.4296875 62.3671875 C16.13606899 62.97489388 13.15987947 63.90946168 10 65 C6.02978293 65.48614903 4.55138781 65.36759188 1.1875 63.125 C-1.60921179 60.40819426 -1.94303123 59.60386898 -2.3125 55.6875 C-1.94022306 51.29463208 -1.04578046 50.10619264 2 47 C9.26224461 43.65425045 17.08151352 42.47274546 25 42 C23.02 37.05 21.04 32.1 19 27 C15.8753125 27.4640625 15.8753125 27.4640625 12.6875 27.9375 C11.51574219 28.11152344 10.34398437 28.28554687 9.13671875 28.46484375 C5.98358597 28.92093031 5.98358597 28.92093031 3 30 C-3.98591549 30.67605634 -3.98591549 30.67605634 -8 28 C-10.22194002 24.66708997 -10.7646843 22.85430912 -10.46875 18.92578125 C-9.6011964 15.36158186 -7.96258078 14.07380655 -5 12 C-1.16079374 10.50530117 2.84359789 9 7 9 C6.4946875 8.43410156 5.989375 7.86820312 5.46875 7.28515625 C4.8190625 6.55167969 4.169375 5.81820312 3.5 5.0625 C2.8503125 4.33160156 2.200625 3.60070312 1.53125 2.84765625 C0 1 0 1 0 0 Z " fill="#8C5E3B" transform="translate(241,95)"/>
<path d="M0 0 C2.66666667 2.66666667 5.33333333 5.33333333 8 8 C6.87548273 10.9719385 5.77706209 13.33440687 4 16 C4.28274138 19.31086259 4.28274138 19.31086259 6 22 C8.87364791 22.41746608 8.87364791 22.41746608 12 22 C14.37719693 20.12498069 14.37719693 20.12498069 16 18 C16.78375 18.99 17.5675 19.98 18.375 21 C19.24125 21.99 20.1075 22.98 21 24 C21.66 24 22.32 24 23 24 C24.50311841 22.28353922 24.50311841 22.28353922 26.0625 20.0625 C37.1659861 5.38174013 37.1659861 5.38174013 45.375 3.4375 C49.58996288 4.34070633 51.56987556 7.60090189 54 11 C57.18645931 17.37291863 55.31227515 26.9927751 53.4375 33.5625 C48.55614267 47.67374779 38.93612807 65.24498647 24.93359375 72.32421875 C20.81454153 73.7638067 17.25151816 74.0398069 13 73 C8.98474369 70.7213552 5.47824299 68.02682377 2 65 C1.37996094 64.56300781 0.75992187 64.12601562 0.12109375 63.67578125 C-1.76061242 60.8630567 -0.59410485 58.21670029 0 55 C0.80231613 44.97722005 0.39266516 36.2008527 -4 27 C-9.04483142 16.43312338 -9.04483142 16.43312338 -8 11 C-6.05651499 9.26776336 -4.05279996 7.60118397 -2 6 C-0.58409628 2.84498835 -0.58409628 2.84498835 0 0 Z " fill="#FD9722" transform="translate(360,346)"/>
<path d="M0 0 C0.99 0.495 0.99 0.495 2 1 C1.01 1.495 1.01 1.495 0 2 C0 1.34 0 0.68 0 0 Z M24.1953125 0.65234375 C29.86812693 3.61594411 34.03437 8.58592499 36.375 14.4375 C36.684375 15.7059375 36.684375 15.7059375 37 17 C35.68 17 34.36 17 33 17 C33 17.99 33 18.98 33 20 C34.0725 20.103125 35.145 20.20625 36.25 20.3125 C39.85820872 20.97400493 41.36395023 21.57483421 44 24 C43.505 26.475 43.505 26.475 43 29 C42.36191406 29.13277344 41.72382813 29.26554687 41.06640625 29.40234375 C40.24011719 29.57894531 39.41382813 29.75554687 38.5625 29.9375 C37.73878906 30.11152344 36.91507812 30.28554688 36.06640625 30.46484375 C34.02338796 30.80752994 34.02338796 30.80752994 33 32 C30.68717649 32.52928076 28.36278087 32.96333715 26.03125 33.40234375 C25.3609375 33.59957031 24.690625 33.79679687 24 34 C22.1655024 37.6689952 23.09716708 42.46477662 23.30273438 46.52734375 C23.42750391 51.82311746 22.62179327 54.85246255 19 59 C15.9375 59.6875 15.9375 59.6875 13 59 C9.81709604 54.91894988 9.12522388 50.6571067 8.3125 45.6875 C8.18294922 44.94693359 8.05339844 44.20636719 7.91992188 43.44335938 C7.6041294 41.63047666 7.30079417 39.81543149 7 38 C5.68 38 4.36 38 3 38 C2.34 38.99 1.68 39.98 1 41 C0.67 40.67 0.34 40.34 0 40 C-1.4555937 39.90141397 -2.91607919 39.87027857 -4.375 39.875 C-5.16648437 39.87242187 -5.95796875 39.86984375 -6.7734375 39.8671875 C-9.17343496 39.91382334 -9.17343496 39.91382334 -12 41 C-12.598125 40.525625 -13.19625 40.05125 -13.8125 39.5625 C-16.72509621 37.48207413 -18.49346563 37.55235731 -22 38 C-24.9728217 40.25905015 -25.72348812 42.65278979 -26.6875 46.1875 C-26.93886719 47.08855469 -27.19023437 47.98960937 -27.44921875 48.91796875 C-27.63097656 49.60503906 -27.81273437 50.29210937 -28 51 C-29.32 51 -30.64 51 -32 51 C-32.83661862 48.2092793 -33.66942737 45.41751988 -34.5 42.625 C-34.73847656 41.8309375 -34.97695313 41.036875 -35.22265625 40.21875 C-35.44824219 39.45820313 -35.67382812 38.69765625 -35.90625 37.9140625 C-36.11572266 37.2123291 -36.32519531 36.5105957 -36.54101562 35.78759766 C-37 34 -37 34 -37 32 C-38.65 31.67 -40.3 31.34 -42 31 C-41.67 29.68 -41.34 28.36 -41 27 C-39.02 27.66 -37.04 28.32 -35 29 C-35.33 27.68 -35.66 26.36 -36 25 C-35.34 25 -34.68 25 -34 25 C-34 24.34 -34 23.68 -34 23 C-35.32 23.33 -36.64 23.66 -38 24 C-36.52307692 19.32307692 -36.52307692 19.32307692 -33.875 17.6875 C-33.25625 17.460625 -32.6375 17.23375 -32 17 C-32.66 16.34 -33.32 15.68 -34 15 C-33.26766027 13.34623282 -32.51347286 11.70212696 -31.75 10.0625 C-31.12351562 8.68771484 -31.12351562 8.68771484 -30.484375 7.28515625 C-29 5 -29 5 -27.125 4.1875 C-24.81751088 3.98389802 -22.56669626 3.90343094 -20.25 3.9375 C-19.45078125 3.94652344 -18.6515625 3.95554687 -17.828125 3.96484375 C-17.22484375 3.97644531 -16.6215625 3.98804688 -16 4 C-15.34 5.98 -14.68 7.96 -14 10 C-13.31292445 7.50935112 -13 5.62113708 -13 3 C-4.57142857 0.57142857 -4.57142857 0.57142857 0 2 C0 2.66 0 3.32 0 4 C0.598125 4.103125 1.19625 4.20625 1.8125 4.3125 C4.28243264 5.08876455 5.32251235 6.07088921 7 8 C6.34 6.02 5.68 4.04 5 2 C10.48944738 -1.33907991 18.14810019 -1.14460368 24.1953125 0.65234375 Z " fill="#5D3502" transform="translate(315,316)"/>
<path d="M0 0 C7.77477096 4.26826462 11.74234585 10.9712524 14.875 19.0625 C17.94346748 29.88421452 18.16849332 40.83646522 18.1875 52 C18.19099457 52.67950714 18.19448914 53.35901428 18.1980896 54.05911255 C18.22255294 62.6317663 18.22255294 62.6317663 17.875 66.0625 C15.875 68.0625 15.875 68.0625 13.375 68.3125 C10.875 68.0625 10.875 68.0625 8.875 66.0625 C8.7925 64.78375 8.71 63.505 8.625 62.1875 C8.25699808 58.56005246 8.08916333 58.24745924 5.125 55.6875 C-3.07814202 51.58592899 -10.49617594 50.90502642 -19.5625 51 C-20.80290039 51.00676758 -20.80290039 51.00676758 -22.06835938 51.01367188 C-24.08727146 51.02534189 -26.10614574 51.04327282 -28.125 51.0625 C-28.10179687 52.12210938 -28.07859375 53.18171875 -28.0546875 54.2734375 C-28.03593056 55.6614513 -28.01773028 57.0494727 -28 58.4375 C-27.97486328 59.48550781 -27.97486328 59.48550781 -27.94921875 60.5546875 C-27.93155733 62.39147486 -28.02196739 64.22851963 -28.125 66.0625 C-29.115 67.0525 -29.115 67.0525 -30.125 68.0625 C-34.68055556 67.50694444 -34.68055556 67.50694444 -36.125 66.0625 C-37.26713621 48.30055136 -38.25206911 27.00864373 -29.125 11.0625 C-28.5475 10.010625 -27.97 8.95875 -27.375 7.875 C-20.17643573 -1.12320534 -10.85453419 -4.82239611 0 0 Z " fill="#FC9623" transform="translate(194.125,175.9375)"/>
<path d="M0 0 C0.99 0.33 1.98 0.66 3 1 C3.01458252 1.56396484 3.02916504 2.12792969 3.04418945 2.70898438 C3.11944854 5.30661946 3.21584484 7.90307643 3.3125 10.5 C3.33505859 11.386875 3.35761719 12.27375 3.38085938 13.1875 C3.65667952 20.00777996 4.50522786 26.05163293 9.0625 31.4375 C12.6978447 34.3692296 15.36099249 34.39991444 20 34 C25.81503772 30.34483343 27.6518929 21.69990275 29.25 15.375 C29.62125 13.704375 29.62125 13.704375 30 12 C30.99 12 31.98 12 33 12 C32.35958881 20.48544823 30.31040797 29.88679228 24 36 C21.31591712 37.70805274 20.23830467 38 17 38 C16.98541748 39.14774902 16.97083496 40.29549805 16.95581055 41.47802734 C16.89684931 45.8284072 16.81964551 50.17832078 16.73754883 54.52832031 C16.70475091 56.39380195 16.67658667 58.25937211 16.65356445 60.125 C16.39357344 80.6587587 14.21913862 101.30302244 5 120 C3.515 120.495 3.515 120.495 2 121 C2.15855469 120.42636719 2.31710937 119.85273438 2.48046875 119.26171875 C3.32785258 116.17649255 4.16456326 113.08848464 5 110 C5.19819336 109.27119629 5.39638672 108.54239258 5.60058594 107.79150391 C9.49282143 93.43999634 12.23751365 79.86848384 13 65 C12.25363281 65.0515625 11.50726563 65.103125 10.73828125 65.15625 C7.65864817 64.98052201 6.57578217 64.37316248 4.1875 62.5 C3.58292969 62.0359375 2.97835937 61.571875 2.35546875 61.09375 C1.90816406 60.7328125 1.46085937 60.371875 1 60 C0.5875 61.2375 0.175 62.475 -0.25 63.75 C-1.62581935 67.32586228 -2.6871555 69.85112789 -6 72 C-8.7823831 72.55073975 -11.21932924 72.56526983 -14 72 C-16.955699 69.95374685 -17.80632018 68.71015935 -18.75 65.25 C-18.8325 64.5075 -18.915 63.765 -19 63 C-19.763125 63.495 -20.52625 63.99 -21.3125 64.5 C-24 66 -24 66 -27 66 C-27.07476562 67.05574219 -27.14953125 68.11148438 -27.2265625 69.19921875 C-28.78925588 87.84067976 -32.66849962 109.74653283 -47 123 C-51.85052249 126.13857338 -51.85052249 126.13857338 -54.9765625 125.76171875 C-57.42731668 124.83913754 -58.46413504 123.70740217 -60.1875 121.75 C-63.98738283 117.77033776 -68.08678737 115.39577606 -73 113 C-73.804375 112.566875 -74.60875 112.13375 -75.4375 111.6875 C-83.30708651 109.57614752 -89.14169594 111.01693929 -96.1640625 114.90625 C-96.76992187 115.2671875 -97.37578125 115.628125 -98 116 C-96.47693844 111.4079694 -96.47693844 111.4079694 -94.40625 109.63671875 C-88.04290483 106.46808581 -82.32613095 105.83325559 -75.421875 107.6953125 C-68.33117038 110.28363719 -62.85835547 114.40753807 -57.3125 119.4375 C-55.1199028 121.23327392 -55.1199028 121.23327392 -52.5 121 C-44.81926758 117.92770703 -41.93177026 111.26152316 -38.83447266 104.10498047 C-32.57469843 88.31452601 -30.92090766 71.45902869 -29.375 54.6875 C-29.23993276 53.25322226 -29.1045179 51.81897721 -28.96875 50.38476562 C-28.64184244 46.92354307 -28.31958042 43.46190771 -28 40 C-29.25683594 39.70351562 -30.51367188 39.40703125 -31.80859375 39.1015625 C-39.42635128 37.30455303 -44.62773395 32.29971512 -49 26 C-51.00539248 22.1123964 -52.801625 18.21303709 -54 14 C-53.67 13.01 -53.34 12.02 -53 11 C-50.33060433 13.31796263 -49.39760908 15.29027453 -48.3125 18.625 C-45.67170947 25.48302256 -41.1991719 31.94675415 -34.3125 35.0625 C-26.34315093 37.35290347 -17.35147984 37.17452271 -9.94140625 33.33984375 C-5.34262927 30.16603992 -2.12991075 26.50716909 -1 21 C-0.85701869 19.3413488 -0.75458775 17.6789131 -0.68359375 16.015625 C-0.64169922 15.08105469 -0.59980469 14.14648438 -0.55664062 13.18359375 C-0.51732422 12.21550781 -0.47800781 11.24742187 -0.4375 10.25 C-0.37272461 8.77466797 -0.37272461 8.77466797 -0.30664062 7.26953125 C-0.20077948 4.84648725 -0.09869829 2.4233446 0 0 Z " fill="#5E3302" transform="translate(283,197)"/>
<path d="M0 0 C6.21097511 4.75156566 7.86860926 12.83029134 8.90576172 20.22705078 C10.42981459 35.63276318 9.35581503 51.35907461 7.14453125 66.640625 C6.48453125 66.640625 5.82453125 66.640625 5.14453125 66.640625 C3.89262202 64.893356 2.71918292 63.08966222 1.58203125 61.265625 C-2.3841054 55.16553439 -6.8269718 49.90901354 -11.85546875 44.640625 C-12.38269531 44.03863281 -12.90992188 43.43664062 -13.453125 42.81640625 C-19.20696125 36.50337364 -26.71285143 32.20932617 -33.85546875 27.640625 C-29.87936089 24.92575566 -25.71644898 25.41621747 -21.10546875 25.515625 C-19.91630859 25.52916016 -19.91630859 25.52916016 -18.703125 25.54296875 C-16.75377594 25.56645488 -14.804583 25.60232363 -12.85546875 25.640625 C-13.35046875 24.650625 -13.35046875 24.650625 -13.85546875 23.640625 C-16.52220617 23.61335155 -19.18865744 23.59365552 -21.85546875 23.578125 C-22.97115234 23.56555664 -22.97115234 23.56555664 -24.109375 23.55273438 C-27.80574592 23.5366632 -31.19440025 23.67671839 -34.82421875 24.390625 C-39.93761158 25.10525716 -43.8572619 22.91926111 -48.35546875 20.703125 C-49.58910156 20.12401367 -49.58910156 20.12401367 -50.84765625 19.53320312 C-52.85911803 18.58594496 -54.86042294 17.62186312 -56.85546875 16.640625 C-50.62652156 11.28111021 -43.25402427 8.0622491 -35.85546875 4.640625 C-35.18483398 4.32706055 -34.51419922 4.01349609 -33.82324219 3.69042969 C-23.7845139 -0.88977111 -10.61768271 -5.05465607 0 0 Z " fill="#FB9622" transform="translate(358.85546875,84.359375)"/>
<path d="M0 0 C2.5625 0.625 2.5625 0.625 4.6875 2.75 C10.97835579 13.72304763 10.08943771 28.27647364 10.25 40.5 C10.28326216 42.26695092 10.31775961 44.03387904 10.35351562 45.80078125 C10.43738221 50.07539231 10.50466011 54.34996083 10.5625 58.625 C12.2125 58.955 13.8625 59.285 15.5625 59.625 C15.8925 55.995 16.2225 52.365 16.5625 48.625 C24.40166236 48.99246074 29.35636702 50.9325192 35.2578125 56.11328125 C36.5625 57.625 36.5625 57.625 37.0625 60.4375 C36.40614524 64.6217616 34.82971487 67.0532455 31.5625 69.625 C19.79835411 75.6116009 6.56952726 76.57403093 -6.0546875 72.6171875 C-10.14802266 70.91274958 -14.39058832 68.71882337 -16.4375 64.625 C-16.47772391 62.2920134 -16.48070247 59.95793334 -16.4375 57.625 C-16.025 58.12 -15.6125 58.615 -15.1875 59.125 C-13.31547662 61.05886092 -13.31547662 61.05886092 -9.4375 60.625 C-9.4689209 58.87981079 -9.4689209 58.87981079 -9.50097656 57.09936523 C-9.57433642 52.71033435 -9.61964226 48.32135549 -9.65722656 43.93188477 C-9.6771265 42.04572383 -9.70425654 40.15962278 -9.73925781 38.27368164 C-10.38278087 2.6622515 -10.38278087 2.6622515 0 0 Z " fill="#F9FCBA" transform="translate(342.4375,178.375)"/>
<path d="M0 0 C0.625 1.8125 0.625 1.8125 1 4 C0.34 4.99 -0.32 5.98 -1 7 C-0.01 7.99 -0.01 7.99 1 9 C0.38125 9.2475 -0.2375 9.495 -0.875 9.75 C-3.35068687 11.20628639 -3.95125002 12.37812506 -5 15 C-4.01 15 -3.02 15 -2 15 C-2 15.66 -2 16.32 -2 17 C-2.66 17 -3.32 17 -4 17 C-3.505 18.98 -3.505 18.98 -3 21 C-4.98 20.67 -6.96 20.34 -9 20 C-9.495 21.485 -9.495 21.485 -10 23 C-8.35 23.33 -6.7 23.66 -5 24 C-4.34922704 26.04009755 -3.70460176 28.08215669 -3.0625 30.125 C-2.52302734 31.83042969 -2.52302734 31.83042969 -1.97265625 33.5703125 C-1.08101661 36.71432699 -0.46648986 39.76894393 0 43 C1.32 43 2.64 43 4 43 C4.09796875 42.32453125 4.1959375 41.6490625 4.296875 40.953125 C5.50579151 33.74131274 5.50579151 33.74131274 7.75 30.375 C10.76923025 28.52991485 12.51201152 28.50171593 16 29 C17.67016516 29.99414593 19.33720673 30.9935725 21 32 C23.25328412 31.79356801 23.25328412 31.79356801 25 31 C25 31.99 25 32.98 25 34 C23.53125 35.25390625 23.53125 35.25390625 21.5 36.5625 C14.78865704 41.33077208 10.09388794 47.93331958 6 55 C2.05860922 53.33248852 -0.7892812 50.77289351 -4 48 C-4.36351562 48.5053125 -4.72703125 49.010625 -5.1015625 49.53125 C-9.23024055 54.8667724 -9.23024055 54.8667724 -13.25 55.5625 C-16 55 -16 55 -18 53 C-18.4375 50.25 -18.4375 50.25 -18 47 C-17.154375 45.989375 -16.30875 44.97875 -15.4375 43.9375 C-12.73568833 41.29922574 -12.73568833 41.29922574 -12.9375 38.375 C-14.22614434 35.49450089 -15.46268511 33.88486249 -18 32 C-20.03676643 31.77707415 -20.03676643 31.77707415 -22 33 C-22.78375 33.845625 -23.5675 34.69125 -24.375 35.5625 C-27 38 -27 38 -30.1875 38.4375 C-33 38 -33 38 -35 36 C-35.47828277 32.99365116 -35.62939981 30.92984502 -33.87890625 28.34375 C-32.60879286 26.87574359 -31.30578782 25.43636661 -30 24 C-30 23.34 -30 22.68 -30 22 C-32.33968927 20.24454773 -32.33968927 20.24454773 -35.25 18.5 C-36.71179688 17.58734375 -36.71179688 17.58734375 -38.203125 16.65625 C-40.43790366 15.33286152 -42.65716472 14.11563585 -45 13 C-44.505 14.546875 -44.505 14.546875 -44 16.125 C-43.04949219 19.5344302 -42.52576903 22.4432677 -43 26 C-44.6875 28.4375 -44.6875 28.4375 -47 30 C-49.5625 30.0625 -49.5625 30.0625 -52 29 C-54.77528167 25.25471697 -55.4341498 22.29847357 -55.6875 17.6875 C-55.75324219 16.61886719 -55.81898438 15.55023438 -55.88671875 14.44921875 C-55.94279297 13.23685547 -55.94279297 13.23685547 -56 12 C-56.61488281 12.20496094 -57.22976562 12.40992188 -57.86328125 12.62109375 C-61.2421875 13.74739583 -64.62109375 14.87369792 -68 16 C-67.835 16.495 -67.67 16.99 -67.5 17.5 C-66.6613866 21.69306699 -66.04652883 26.1491442 -68.0625 30.0625 C-71.1415866 31.55238061 -73.74856958 30.67482518 -77 30 C-77.495 27.525 -77.495 27.525 -78 25 C-83.43043561 29.24851727 -87.9746923 34.08719584 -92.4375 39.3125 C-93.23559082 40.24666748 -93.23559082 40.24666748 -94.04980469 41.19970703 C-96.80536254 44.40742926 -96.80536254 44.40742926 -99 48 C-99.99 48 -100.98 48 -102 48 C-100.5587522 43.65249978 -98.34665726 40.76999964 -95.375 37.3125 C-92.15250446 34.07824205 -92.15250446 34.07824205 -91 30 C-92.12525155 28.97350723 -93.30282645 28.00412304 -94.5 27.0625 C-99.58551175 22.75797755 -103.48118093 17.64321251 -107 12 C-107 11.34 -107 10.68 -107 10 C-103.94705718 10.30461735 -103.09804837 10.88133115 -101.10546875 13.29296875 C-100.47253906 14.24816406 -99.83960938 15.20335937 -99.1875 16.1875 C-95.86456582 20.97551773 -92.60220312 24.45246843 -88 28 C-83.91738006 25.03575733 -80.02319084 22.05276051 -76.375 18.5625 C-70.38955963 13.27359017 -61.55271235 7.77134778 -53.375 7.25 C-39.71368131 8.60858418 -28.2448756 18.70835302 -18 27 C-17.74734375 26.44441406 -17.4946875 25.88882812 -17.234375 25.31640625 C-15.80524999 22.63453558 -14.08869741 20.35702624 -12.25 17.9375 C-8.74430098 13.20161932 -5.88890621 8.36750778 -3.2265625 3.1171875 C-2 1 -2 1 0 0 Z " fill="#562F02" transform="translate(283,324)"/>
<path d="M0 0 C7.77477096 4.26826462 11.74234585 10.9712524 14.875 19.0625 C17.94346748 29.88421452 18.16849332 40.83646522 18.1875 52 C18.19099457 52.67950714 18.19448914 53.35901428 18.1980896 54.05911255 C18.22255294 62.6317663 18.22255294 62.6317663 17.875 66.0625 C15.875 68.0625 15.875 68.0625 13.3125 68.25 C10.875 68.0625 10.875 68.0625 9.875 67.0625 C9.76468265 64.97083741 9.71900751 62.87572623 9.69921875 60.78125 C10.00233019 35.00875391 10.00233019 35.00875391 0.53515625 11.62890625 C-2.49023001 8.77436533 -6.02501501 7.77016099 -10.125 7.6875 C-13.06635443 7.78701951 -14.19752198 8.10205744 -16.875 9.5625 C-28.11855483 22.05533869 -27.2762405 41.7048052 -27.64257812 57.43945312 C-27.67673828 58.52033203 -27.71089844 59.60121094 -27.74609375 60.71484375 C-27.7711499 61.69445068 -27.79620605 62.67405762 -27.82202148 63.68334961 C-28.125 66.0625 -28.125 66.0625 -30.125 68.0625 C-34.68055556 67.50694444 -34.68055556 67.50694444 -36.125 66.0625 C-37.26713621 48.30055136 -38.25206911 27.00864373 -29.125 11.0625 C-28.5475 10.010625 -27.97 8.95875 -27.375 7.875 C-20.17643573 -1.12320534 -10.85453419 -4.82239611 0 0 Z " fill="#522A01" transform="translate(194.125,175.9375)"/>
<path d="M0 0 C0.94875 0.495 1.8975 0.99 2.875 1.5 C8.69687135 3.9917137 14.61134418 3.65893954 20.625 2 C21.40875 1.67 22.1925 1.34 23 1 C23.20753906 1.51949219 23.41507813 2.03898437 23.62890625 2.57421875 C26.52332191 9.1260132 30.16967356 12.03573003 36.4375 15.25 C39.94436831 16.27640048 43.36471367 16.63030987 47 17 C47.99 20.63 48.98 24.26 50 28 C51.65 28.33 53.3 28.66 55 29 C57.30060534 27.1371051 57.30060534 27.1371051 57.1953125 24.1796875 C57.17210937 23.08914063 57.14890625 21.99859375 57.125 20.875 C57.10695312 19.77929688 57.08890625 18.68359375 57.0703125 17.5546875 C57.04710937 16.71164062 57.02390625 15.86859375 57 15 C58.65 15 60.3 15 62 15 C62.0515625 15.75925781 62.103125 16.51851563 62.15625 17.30078125 C62.5086449 20.38824107 62.92640909 23.07913728 64 26 C66.04114316 27.34018903 67.62704328 27.7631751 70.02734375 28.14453125 C73.13007026 29.49007007 73.72535847 32.00718963 75 35 C72.77155786 35.6483289 70.5422154 36.29356369 68.3125 36.9375 C66.45044922 37.47697266 66.45044922 37.47697266 64.55078125 38.02734375 C58.21114296 39.76394434 52.55318778 40.18275131 46 40.1875 C45.11054688 40.19974609 44.22109375 40.21199219 43.3046875 40.22460938 C38.76493955 40.23477299 35.1164257 40.16969938 31 38 C31.495 37.13375 31.99 36.2675 32.5 35.375 C34.0477761 31.89250377 34.26802896 29.75240542 34 26 C31.63940594 25.66553877 31.63940594 25.66553877 29 26 C27.10862297 27.71747493 27.10862297 27.71747493 25.6875 30 C24.91986328 31.11375 24.91986328 31.11375 24.13671875 32.25 C23.76160156 32.8275 23.38648438 33.405 23 34 C19.65569263 33.27633685 17.65737657 32.18284504 15 30 C16.13197013 27.11862149 17.01151945 25.99157113 19.5625 24.125 C22.25500822 22.15889804 22.25500822 22.15889804 22.9375 18.875 C22.958125 17.92625 22.97875 16.9775 23 16 C21.14455834 13.78239082 21.14455834 13.78239082 18.375 13.4375 C13.31769202 14.28038466 10.55184863 17.46618106 7 21 C2.44932575 17.08824563 0.39888205 10.57766518 -0.25390625 4.72265625 C-0.25 2.8125 -0.25 2.8125 0 0 Z " fill="#FB9522" transform="translate(113,382)"/>
<path d="M0 0 C1.83597749 1.74417861 3.31839914 3.43917123 4.8125 5.5 C7.24102785 8.59380498 7.24102785 8.59380498 13 11 C13 18.92 13 26.84 13 35 C5.15656178 33.87950883 5.15656178 33.87950883 2.6875 30.9375 C1.800625 29.968125 0.91375 28.99875 0 28 C-0.66 28 -1.32 28 -2 28 C-2.09796875 28.59167969 -2.1959375 29.18335938 -2.296875 29.79296875 C-3.22971403 34.7225405 -3.99341057 38.64312778 -8 42 C-11.75 42.3125 -11.75 42.3125 -15 42 C-17.21854707 37.37802694 -18.38281159 34.23175837 -18 29 C-18.7425 29.78375 -19.485 30.5675 -20.25 31.375 C-22.59421977 33.61266433 -24.14324985 34.69370826 -27 36 C-27.10920422 28.25863399 -26.97159933 20.68604474 -26 13 C-25.05640625 12.96132812 -25.05640625 12.96132812 -24.09375 12.921875 C-15.01973513 12.32058486 -9.14271753 9.84474239 -3 3 C-2 2 -1 1 0 0 Z " fill="#FADA00" transform="translate(284,224)"/>
<path d="M0 0 C2.33649367 1.43439419 3.48206833 2.54133773 4.32421875 5.171875 C4.78604346 7.94282328 5.00185428 10.20931993 4.62890625 13 C1.19160422 17.72996262 -4.81931176 20.10461405 -10.33984375 21.52734375 C-21.6620995 23.29279858 -33.49895474 23.24287588 -43.3359375 16.69140625 C-46.62223376 14.08556663 -48.1635368 12.33429471 -48.80859375 8.1875 C-48.32273675 4.64768471 -47.98340554 4.2824622 -45.37109375 2.125 C-44.38109375 1.42375 -43.39109375 0.7225 -42.37109375 0 C-42.29761719 0.92232422 -42.29761719 0.92232422 -42.22265625 1.86328125 C-42.14789063 2.67152344 -42.073125 3.47976562 -41.99609375 4.3125 C-41.92648438 5.11300781 -41.856875 5.91351563 -41.78515625 6.73828125 C-41.47544949 9.27224441 -41.47544949 9.27224441 -39.37109375 12 C-37.72109375 11.67 -36.07109375 11.34 -34.37109375 11 C-34.04109375 6.05 -33.71109375 1.1 -33.37109375 -4 C-22.01498062 -6.83902828 -10.31079578 -5.33245196 0 0 Z " fill="#F9FCBA" transform="translate(199.37109375,231)"/>
<path d="M0 0 C6.09270782 3.70341063 8.01195914 8.30571217 10 15 C12.14707315 24.7180102 12.28299202 34.35744444 12.20581055 44.25170898 C12.18724107 46.72194469 12.18530366 49.19181027 12.18554688 51.66210938 C12.18064129 53.23698243 12.17481721 54.81185295 12.16796875 56.38671875 C12.16685593 57.12307053 12.1657431 57.8594223 12.16459656 58.61808777 C12.11618576 63.76762847 12.11618576 63.76762847 11 66 C9.33388095 66.042721 7.66617115 66.04063832 6 66 C3.98136281 63.98136281 4.81495985 59.85617287 4.7890625 57.08203125 C4.76093522 55.41730887 4.73227059 53.75259549 4.703125 52.08789062 C4.66230498 49.47079294 4.62542329 46.85385293 4.59863281 44.23657227 C4.85619166 25.21656499 4.85619166 25.21656499 -2 8 C-4.5 7.16666667 -4.5 7.16666667 -7 8 C-14.92566249 19.22064286 -13.36721254 34.28164516 -13.1875 47.3125 C-13.17241845 49.22850505 -13.15873622 51.14452164 -13.14648438 53.06054688 C-13.11377091 57.70732169 -13.06218253 62.35352995 -13 67 C-15.475 67.495 -15.475 67.495 -18 68 C-22.82185835 60.76721247 -21.28294485 49.96028151 -21.3125 41.5 C-21.31511841 40.78612122 -21.31773682 40.07224243 -21.32043457 39.33673096 C-21.32557352 26.28489954 -21.05822614 13.90412559 -13 3 C-8.47059982 -0.92548016 -5.78147766 -1.75509143 0 0 Z " fill="#552D02" transform="translate(347,172)"/>
<path d="M0 0 C3.40012889 0.77546799 5.03982403 1.49163811 7.5625 3.8125 C7.2325 5.4625 6.9025 7.1125 6.5625 8.8125 C5.92441406 8.94527344 5.28632813 9.07804687 4.62890625 9.21484375 C3.80261719 9.39144531 2.97632813 9.56804687 2.125 9.75 C1.30128906 9.92402344 0.47757812 10.09804688 -0.37109375 10.27734375 C-2.41411204 10.62002994 -2.41411204 10.62002994 -3.4375 11.8125 C-5.75032351 12.34178076 -8.07471913 12.77583715 -10.40625 13.21484375 C-11.0765625 13.41207031 -11.746875 13.60929687 -12.4375 13.8125 C-14.2719976 17.4814952 -13.34033292 22.27727662 -13.13476562 26.33984375 C-13.00999609 31.63561746 -13.81570673 34.66496255 -17.4375 38.8125 C-20.5 39.5 -20.5 39.5 -23.4375 38.8125 C-26.62040396 34.73144988 -27.31227612 30.4696067 -28.125 25.5 C-28.25455078 24.75943359 -28.38410156 24.01886719 -28.51757812 23.25585938 C-28.8333706 21.44297666 -29.13670583 19.62793149 -29.4375 17.8125 C-30.7575 17.8125 -32.0775 17.8125 -33.4375 17.8125 C-34.0975 18.8025 -34.7575 19.7925 -35.4375 20.8125 C-35.7675 20.4825 -36.0975 20.1525 -36.4375 19.8125 C-37.8930937 19.71391397 -39.35357919 19.68277857 -40.8125 19.6875 C-41.60398437 19.68492187 -42.39546875 19.68234375 -43.2109375 19.6796875 C-45.61093496 19.72632334 -45.61093496 19.72632334 -48.4375 20.8125 C-49.035625 20.338125 -49.63375 19.86375 -50.25 19.375 C-53.16259621 17.29457413 -54.93096563 17.36485731 -58.4375 17.8125 C-61.4103217 20.07155015 -62.16098812 22.46528979 -63.125 26 C-63.37636719 26.90105469 -63.62773437 27.80210937 -63.88671875 28.73046875 C-64.06847656 29.41753906 -64.25023437 30.10460937 -64.4375 30.8125 C-65.7575 30.8125 -67.0775 30.8125 -68.4375 30.8125 C-69.27411862 28.0217793 -70.10692737 25.23001988 -70.9375 22.4375 C-71.17597656 21.6434375 -71.41445313 20.849375 -71.66015625 20.03125 C-71.88574219 19.27070313 -72.11132812 18.51015625 -72.34375 17.7265625 C-72.55322266 17.0248291 -72.76269531 16.3230957 -72.97851562 15.60009766 C-73.4375 13.8125 -73.4375 13.8125 -73.4375 11.8125 C-75.0875 11.4825 -76.7375 11.1525 -78.4375 10.8125 C-78.1075 9.4925 -77.7775 8.1725 -77.4375 6.8125 C-76.72207031 7.00585938 -76.00664062 7.19921875 -75.26953125 7.3984375 C-73.77486328 7.78902344 -73.77486328 7.78902344 -72.25 8.1875 C-71.28707031 8.44273437 -70.32414062 8.69796875 -69.33203125 8.9609375 C-58.27342254 11.37896829 -47.46907065 12.21219109 -36.1875 12.1875 C-35.46470856 12.18861786 -34.74191711 12.18973572 -33.9972229 12.19088745 C-22.99884899 12.18251533 -12.94598584 11.27821255 -2.4375 7.8125 C-1.1073866 7.46654159 0.22444974 7.12636364 1.5625 6.8125 C-0.06116466 3.56517068 -3.19137839 3.11094864 -6.4375 1.8125 C-3.4375 -0.1875 -3.4375 -0.1875 0 0 Z " fill="#F9D800" transform="translate(351.4375,336.1875)"/>
<path d="M0 0 C2.5625 0.625 2.5625 0.625 4.6875 2.75 C12.08613862 15.9532616 9.86861096 33.11691039 9.5625 47.625 C8.97154541 47.68486084 8.38059082 47.74472168 7.77172852 47.80639648 C3.62274037 48.24368908 -0.43476648 48.71958726 -4.5 49.6875 C-5.25410156 49.86410156 -6.00820313 50.04070312 -6.78515625 50.22265625 C-7.60306641 50.42181641 -7.60306641 50.42181641 -8.4375 50.625 C-12.78614505 37.57906486 -10.93757566 17.28069249 -5.4375 4.625 C-2.98488244 0.76535447 -2.98488244 0.76535447 0 0 Z " fill="#FB9522" transform="translate(342.4375,178.375)"/>
<path d="M0 0 C13.5986701 -0.74900876 25.21175238 0.44399917 37 8 C34.17741261 11.0046898 31.31724034 13.55025161 28 16 C21.92902598 20.62210291 16.71980435 26.11425491 11.40380859 31.56396484 C9.61761897 33.39115917 7.81117132 35.19759948 6 37 C5.20044999 35.48329636 4.41078612 33.96138002 3.625 32.4375 C3.18414062 31.59058594 2.74328125 30.74367187 2.2890625 29.87109375 C-0.44435188 23.78303445 -1.30469328 18.38149164 -1.1875 11.8125 C-1.18685547 11.11447266 -1.18621094 10.41644531 -1.18554688 9.69726562 C-1.15672257 6.33122677 -1.03932706 3.21775659 0 0 Z " fill="#F7FBBA" transform="translate(118,110)"/>
<path d="M0 0 C3.120231 1.99694784 4.58556388 3.28699736 5.46875 6.9375 C5.75519168 10.71853016 5.47639412 12.32676611 3.22265625 15.51171875 C-0.96339158 19.41242214 -6.80817352 20.37653365 -12.1875 21.8125 C-13.29287109 22.12380859 -14.39824219 22.43511719 -15.53710938 22.75585938 C-23.60121909 25 -23.60121909 25 -26 25 C-26.50838564 22.96040523 -27.00633886 20.91820862 -27.5 18.875 C-27.91765625 17.16957031 -27.91765625 17.16957031 -28.34375 15.4296875 C-28.96453765 12.18533302 -29.12006768 9.29185543 -29 6 C-26.87978201 5.27789677 -24.7567796 4.5664886 -22.62890625 3.8671875 C-20.92320391 3.30453383 -19.22223812 2.72723043 -17.52734375 2.1328125 C-11.73107839 0.20378599 -6.10614177 -1.12396238 0 0 Z " fill="#8D5E3B" transform="translate(131,217)"/>
<path d="M0 0 C4.27876075 2.45632562 4.27876075 2.45632562 6 5 C6.80664033 8.16363193 6.9590334 10.87108655 6 14 C2.26708376 18.43507706 -2.37224473 21.57041102 -7.125 24.8125 C-7.84042969 25.31458984 -8.55585938 25.81667969 -9.29296875 26.33398438 C-9.98261719 26.80771484 -10.67226562 27.28144531 -11.3828125 27.76953125 C-12.31697998 28.41305542 -12.31697998 28.41305542 -13.27001953 29.06958008 C-15 30 -15 30 -18 30 C-19.97265625 28.13671875 -19.97265625 28.13671875 -22.0625 25.6875 C-22.75472656 24.88699219 -23.44695312 24.08648437 -24.16015625 23.26171875 C-28.00852878 18.53091684 -28.00852878 18.53091684 -27.96875 16.0546875 C-26.52223387 12.98667346 -24.34714059 11.91524749 -21.5 10.125 C-17.62906708 7.67003779 -13.84404691 5.17822149 -10.125 2.5 C-6.59668693 0.17957789 -4.29181476 -1.04911028 0 0 Z " fill="#8C5E3B" transform="translate(144,251)"/>
<path d="M0 0 C2.82424288 2.19022918 4.41508603 3.83017207 6 7 C6.07181821 9.71760108 6.09299506 12.40859388 6.0625 15.125 C6.05798828 15.87910156 6.05347656 16.63320313 6.04882812 17.41015625 C6.03703499 19.27347127 6.01909942 21.13674555 6 23 C0.40285631 26.07517487 -3.71084714 26.79377657 -10 26 C-13.625 24.5 -13.625 24.5 -16 23 C-16.66 23.99 -17.32 24.98 -18 26 C-18.75609756 9.8699187 -18.75609756 9.8699187 -14 3 C-9.75647735 -0.87255372 -5.51335934 -0.98134228 0 0 Z " fill="#8B5D3A" transform="translate(130,360)"/>
<path d="M0 0 C1.6875 0.875 1.6875 0.875 2.6875 2.875 C2.875 5.875 2.875 5.875 2.6875 8.875 C2.0275 9.535 1.3675 10.195 0.6875 10.875 C1.1825 10.71 1.6775 10.545 2.1875 10.375 C6.3841406 9.53567188 10.87407948 8.88586153 14.75 11 C16.15521358 13.81042716 15.41299141 15.90708058 14.6875 18.875 C15.6775 19.205 16.6675 19.535 17.6875 19.875 C10.00200871 23.98584418 1.91052766 25.26015837 -6.69921875 23.34375 C-9.66569501 22.33481907 -12.01902156 21.1329053 -14.375 19.0625 C-15.76910149 15.80959652 -15.43286753 14.23610258 -14.3125 10.875 C-11.22844188 6.25892599 -6.03482786 -0.32620691 0 0 Z " fill="#FAD900" transform="translate(317.3125,320.125)"/>
<path d="M0 0 C5.54269255 2.89562189 9.86564759 7.75351923 11.97265625 13.57421875 C12.38451172 14.94707031 12.38451172 14.94707031 12.8046875 16.34765625 C10.89271711 17.04811081 8.97488315 17.73257525 7.0546875 18.41015625 C5.98734375 18.79300781 4.92 19.17585938 3.8203125 19.5703125 C0.87495392 20.32954353 -0.46957988 20.63255538 -3.1953125 19.34765625 C-4.24539903 17.37349357 -5.24519126 15.37182759 -6.1953125 13.34765625 C-9.63981987 11.05131801 -12.13343533 10.8074914 -16.1953125 10.34765625 C-17.1953125 7.34765625 -18.1953125 4.34765625 -19.1953125 1.34765625 C-13.70586512 -1.99142366 -6.04721231 -1.79694743 0 0 Z " fill="#FB9622" transform="translate(339.1953125,316.65234375)"/>
<path d="M0 0 C-1.3967121 2.7934242 -2.99413085 2.96442959 -5.875 4.0625 C-6.75929687 4.40410156 -7.64359375 4.74570312 -8.5546875 5.09765625 C-10.35847791 5.7632722 -12.1759841 6.3919947 -14 7 C-13.7525 7.7425 -13.7525 7.7425 -13.5 8.5 C-12.6613866 12.69306699 -12.04652883 17.1491442 -14.0625 21.0625 C-17.1415866 22.55238061 -19.74856958 21.67482518 -23 21 C-23.495 18.525 -23.495 18.525 -24 16 C-29.43043561 20.24851727 -33.9746923 25.08719584 -38.4375 30.3125 C-39.23559082 31.24666748 -39.23559082 31.24666748 -40.04980469 32.19970703 C-42.80536254 35.40742926 -42.80536254 35.40742926 -45 39 C-45.99 39 -46.98 39 -48 39 C-46.5587522 34.65249978 -44.34665726 31.76999964 -41.375 28.3125 C-38.15250446 25.07824205 -38.15250446 25.07824205 -37 21 C-38.12525155 19.97350723 -39.30282645 19.00412304 -40.5 18.0625 C-45.58551175 13.75797755 -49.48118093 8.64321251 -53 3 C-53 2.34 -53 1.68 -53 1 C-49.94705718 1.30461735 -49.09804837 1.88133115 -47.10546875 4.29296875 C-46.47253906 5.24816406 -45.83960938 6.20335937 -45.1875 7.1875 C-41.86456582 11.97551773 -38.60220312 15.45246843 -34 19 C-29.91738006 16.03575733 -26.02319084 13.05276051 -22.375 9.5625 C-18.79995167 6.37914023 -14.98665219 4.16750055 -10.75 2 C-10.14720215 1.68490479 -9.5444043 1.36980957 -8.92333984 1.04516602 C-5.62154132 -0.57167511 -3.48315699 -1.51741492 0 0 Z " fill="#5C3103" transform="translate(229,333)"/>
<path d="M0 0 C3.4442025 1.47021181 6.72474115 3.1876038 10 5 C8.42035192 11.61776809 6.69757049 17.26239061 3 23 C1.24503078 22.2617026 -0.50380532 21.50881758 -2.25 20.75 C-3.22453125 20.33234375 -4.1990625 19.9146875 -5.203125 19.484375 C-8.10459461 17.94448889 -9.94234016 16.55284434 -12 14 C-12.61089984 9.18916379 -12.73857492 7.1571007 -10.125 3.0625 C-6.73590815 -0.22691268 -4.68294769 -0.5017444 0 0 Z " fill="#8D5F3A" transform="translate(380,253)"/>
<path d="M0 0 C5.68246334 6.84554063 8.48322766 16.21487016 9 25 C8.34 24.34 7.68 23.68 7 23 C3.84687613 22.0975416 0.69297462 21.32239152 -2.50195312 20.58789062 C-8.78267549 19.04385408 -8.78267549 19.04385408 -11 16 C-12.62183644 12.75632711 -12.70281077 9.49397357 -12 6 C-8.37293928 1.94114633 -5.41500163 0.38678583 0 0 Z " fill="#8D5E3A" transform="translate(382,213)"/>
<path d="M0 0 C0.76763672 -0.03287109 1.53527344 -0.06574219 2.32617188 -0.09960938 C4.56640625 -0.12109375 4.56640625 -0.12109375 8.4375 0.4375 C13.31843166 5.90414346 13.81883783 15.38275023 13.4375 22.4375 C12.4475 21.591875 11.4575 20.74625 10.4375 19.875 C9.79296875 19.32585937 9.1484375 18.77671875 8.484375 18.2109375 C7.16566543 17.06839142 5.86208665 15.90802301 4.578125 14.7265625 C-0.70835009 9.89883111 -6.44423476 6.13770085 -12.5625 2.4375 C-8.62309211 -0.17826684 -4.56183531 0.03464685 0 0 Z " fill="#F5F7B5" transform="translate(337.5625,109.5625)"/>
<path d="M0 0 C1.41623216 -0.05447047 2.83308191 -0.09300508 4.25 -0.125 C5.03890625 -0.14820313 5.8278125 -0.17140625 6.640625 -0.1953125 C9.2780733 0.02301931 10.80593669 0.52766804 13 2 C14.6663175 6.33242549 15.61696289 10.37277833 15 15 C13.3125 17.4375 13.3125 17.4375 11 19 C8.4375 19.0625 8.4375 19.0625 6 18 C3.21003281 14.24634849 2.61406028 11.37474035 2.4375 6.75 C2.35566714 3.65004411 2.35566714 3.65004411 2 1 C1.34 0.67 0.68 0.34 0 0 Z " fill="#8F603A" transform="translate(225,335)"/>
<path d="M0 0 C2.6875 0.625 2.6875 0.625 4.625 1.75 C5.6875 3.625 5.6875 3.625 5.8125 6.4375 C4.23222224 10.91495364 1.36361276 12.80636389 -2.3125 15.625 C-2.9725 16.285 -3.6325 16.945 -4.3125 17.625 C-5.48510611 16.33872289 -6.6504283 15.04580217 -7.8125 13.75 C-8.4621875 13.03070313 -9.111875 12.31140625 -9.78125 11.5703125 C-11.3125 9.625 -11.3125 9.625 -11.3125 7.625 C-8.02871279 3.94115749 -4.91124197 0.92664943 0 0 Z " fill="#8D5E3A" transform="translate(131.3125,394.375)"/>
<path d="M0 0 C1.15518918 0.90484792 2.29885406 1.8244206 3.4375 2.75 C4.07558594 3.26046875 4.71367187 3.7709375 5.37109375 4.296875 C7.24796679 6.25926504 7.84372187 7.29117916 8 10 C6.51763975 12.83782585 4.48186652 14.99139405 2 17 C-1.25 17.5625 -1.25 17.5625 -4 17 C-6 15 -6 15 -6.4375 12.25 C-5.83653082 7.78565753 -4.01115843 6.30492998 -1 3 C-0.67 2.01 -0.34 1.02 0 0 Z " fill="#8D5E3A" transform="translate(271,362)"/>
<path d="M0 0 C2.10375 0.0309375 2.10375 0.0309375 4.25 0.0625 C4.91 3.0325 5.57 6.0025 6.25 9.0625 C4.02149723 9.40024332 1.79216533 9.7325187 -0.4375 10.0625 C-2.29955078 10.3409375 -2.29955078 10.3409375 -4.19921875 10.625 C-7.10886371 10.98350411 -9.82700022 11.15192256 -12.75 11.0625 C-12.18613497 9.40989558 -11.59821283 7.76548363 -11 6.125 C-10.67515625 5.20847656 -10.3503125 4.29195313 -10.015625 3.34765625 C-8.75 1.0625 -8.75 1.0625 -6.90625 0.25 C-4.58827582 0.04843703 -2.32694934 -0.03421984 0 0 Z " fill="#F4F4B1" transform="translate(294.75,319.9375)"/>
<path d="M0 0 C3.98381075 2.16264012 6.88983545 4.71211176 10 8 C3.15832482 14.80694586 3.15832482 14.80694586 -1.375 15.5625 C-4 15 -4 15 -6 13 C-6.5 10.3125 -6.5 10.3125 -6 7 C-4.22983136 4.4322263 -2.19598621 2.20905756 0 0 Z " fill="#8D5E3A" transform="translate(254,347)"/>
<path d="M0 0 C2.0625 2.3125 2.0625 2.3125 4 5 C6.28305833 6.27333972 8.53243764 7.09839068 11 8 C11 8.33 11 8.66 11 9 C4.76562019 9.15241208 -1.14865541 8.60184152 -7.3125 7.6875 C-8.20517578 7.56955078 -9.09785156 7.45160156 -10.01757812 7.33007812 C-11.30245117 7.14155273 -11.30245117 7.14155273 -12.61328125 6.94921875 C-13.38454346 6.83924561 -14.15580566 6.72927246 -14.95043945 6.6159668 C-17.35014302 5.89476941 -18.39433348 4.88708188 -20 3 C-6.14864865 -0.87837838 -6.14864865 -0.87837838 0 0 Z " fill="#F4A700" transform="translate(300,338)"/>
<path d="M0 0 C1.11259985 4.58947437 2.33019647 9.75966911 -0.1875 14 C-2 15 -2 15 -4.5625 14.875 C-7 14 -7 14 -9 11 C-9.4140625 8.73828125 -9.4140625 8.73828125 -9.625 6.3125 C-9.69976562 5.50425781 -9.77453125 4.69601562 -9.8515625 3.86328125 C-9.90054688 3.24839844 -9.94953125 2.63351562 -10 2 C-8.52112267 1.66538533 -7.04188942 1.33234333 -5.5625 1 C-4.32693359 0.7215625 -4.32693359 0.7215625 -3.06640625 0.4375 C-1 0 -1 0 0 0 Z " fill="#8F5F3A" transform="translate(170,397)"/>
<path d="M0 0 C2.93200474 2.85276137 5.64315404 5.65079784 8 9 C6.375 11.5 6.375 11.5 4 14 C0.73646883 14.53282141 -1.06322907 14.54393151 -3.9375 12.875 C-5 11 -5 11 -4.9375 8.125 C-3.89378182 4.64593941 -2.42967854 2.66480872 0 0 Z " fill="#8D5F3A" transform="translate(368,355)"/>
<path d="M0 0 C2.54440716 3.81661075 2.57622479 6.5296109 2 11 C0.9375 13.0625 0.9375 13.0625 -1 14 C-4.6875 13.6875 -4.6875 13.6875 -8 13 C-8.66 11.02 -9.32 9.04 -10 7 C-6.7 4.69 -3.4 2.38 0 0 Z " fill="#8E5F3A" transform="translate(214,341)"/>
<path d="M0 0 C1.67542976 0.28604898 3.34385343 0.61781233 5 1 C5.75 3.625 5.75 3.625 6 7 C4.0625 10.375 4.0625 10.375 2 13 C-0.97 12.01 -3.94 11.02 -7 10 C-6.02223933 8.51990357 -5.0427506 7.04094856 -4.0625 5.5625 C-3.51722656 4.73878906 -2.97195312 3.91507812 -2.41015625 3.06640625 C-1 1 -1 1 0 0 Z " fill="#8F5F39" transform="translate(142,407)"/>
<path d="M0 0 C1.3479743 0.63654342 2.68596724 1.29605388 4 2 C1.16796875 2.14648438 1.16796875 2.14648438 -1.6640625 2.29296875 C-5.91565602 3.57982231 -8.86623252 6.23713808 -11.22802734 9.90942383 C-12.35075024 12.01607554 -13.3786379 14.14337705 -14.375 16.3125 C-14.72949219 17.05306641 -15.08398438 17.79363281 -15.44921875 18.55664062 C-16.31252725 20.36492195 -17.15812711 22.18164003 -18 24 C-18.66 24 -19.32 24 -20 24 C-19.66379736 16.43544068 -16.2981686 9.51029148 -11.1171875 3.99609375 C-4.74592111 -1.53544506 -4.74592111 -1.53544506 0 0 Z " fill="#592F02" transform="translate(235,401)"/>
<path d="M0 0 C0.99 4.95 1.98 9.9 3 15 C1.02 15 -0.96 15 -3 15 C-6.05067835 11.94932165 -5.43933775 8.60373178 -5.65625 4.43359375 C-5.7696875 3.63050781 -5.883125 2.82742188 -6 2 C-6.66 1.67 -7.32 1.34 -8 1 C-2.25 0 -2.25 0 0 0 Z " fill="#8A5C38" transform="translate(181,395)"/>
<path d="M0 0 C3.40012889 0.77546799 5.03982403 1.49163811 7.5625 3.8125 C7.2325 5.4625 6.9025 7.1125 6.5625 8.8125 C5.92441406 8.94527344 5.28632813 9.07804687 4.62890625 9.21484375 C3.38947266 9.47974609 3.38947266 9.47974609 2.125 9.75 C1.30128906 9.92402344 0.47757812 10.09804688 -0.37109375 10.27734375 C-2.41411204 10.62002994 -2.41411204 10.62002994 -3.4375 11.8125 C-5.77694736 11.52519945 -8.1114143 11.19313221 -10.4375 10.8125 C-6.64208337 8.59850697 -2.68120579 7.80269802 1.5625 6.8125 C-0.06116466 3.56517068 -3.19137839 3.11094864 -6.4375 1.8125 C-3.4375 -0.1875 -3.4375 -0.1875 0 0 Z " fill="#EACA00" transform="translate(351.4375,336.1875)"/>
<path d="M0 0 C-0.33 1.32 -0.66 2.64 -1 4 C-1.55985596 4.11593506 -2.11971191 4.23187012 -2.6965332 4.35131836 C-5.23557785 4.87819053 -7.77404088 5.40781431 -10.3125 5.9375 C-11.19357422 6.11990234 -12.07464844 6.30230469 -12.98242188 6.49023438 C-13.82998047 6.66748047 -14.67753906 6.84472656 -15.55078125 7.02734375 C-16.33106689 7.18968506 -17.11135254 7.35202637 -17.9152832 7.51928711 C-20.1752971 8.00566604 -20.1752971 8.00566604 -23 9 C-22.5625 6.6875 -22.5625 6.6875 -21 4 C-14.57719933 0.66014365 -7.12155722 0 0 0 Z " fill="#ECCC00" transform="translate(300,331)"/>
<path d="M0 0 C1.32 0.33 2.64 0.66 4 1 C4 1.66 4 2.32 4 3 C-5.68886002 6.80633787 -13.56696832 8.31299095 -24 8 C-21.17261555 6.45713283 -18.64905308 5.59365927 -15.48828125 5 C-14.64845703 4.835 -13.80863281 4.67 -12.94335938 4.5 C-11.17814159 4.16451689 -9.41250883 3.83121045 -7.64648438 3.5 C-6.81052734 3.335 -5.97457031 3.17 -5.11328125 3 C-4.34798096 2.855625 -3.58268066 2.71125 -2.79418945 2.5625 C-1.90606567 2.2840625 -1.90606567 2.2840625 -1 2 C-0.67 1.34 -0.34 0.68 0 0 Z " fill="#573000" transform="translate(349,340)"/>
<path d="M0 0 C1.8125 0.125 1.8125 0.125 4 1 C6.66280693 5.08931064 7.34568576 8.16039934 7 13 C5.86800647 12.0919838 4.74467637 11.17316174 3.625 10.25 C2.99851562 9.73953125 2.37203125 9.2290625 1.7265625 8.703125 C-0.08312318 6.91800519 -1.00117455 5.32050356 -2 3 C-1.34 2.01 -0.68 1.02 0 0 Z " fill="#EBECAC" transform="translate(269,349)"/>
<path d="M0 0 C1.80078125 1.75 1.80078125 1.75 3.3125 4 C3.82425781 4.7425 4.33601563 5.485 4.86328125 6.25 C5.23839844 6.8275 5.61351562 7.405 6 8 C5.67 8.66 5.34 9.32 5 10 C4.401875 9.401875 3.80375 8.80375 3.1875 8.1875 C-1.22045242 5.16243461 -5.83777849 4.19336819 -11 3 C-7.26909705 0.51273137 -4.46212907 -0.55344237 0 0 Z " fill="#E98A1E" transform="translate(342,310)"/>
<path d="M0 0 C-4.455 3.465 -4.455 3.465 -9 7 C-9.99 6.01 -10.98 5.02 -12 4 C-12 3.01 -12 2.02 -12 1 C-4.5 -1.125 -4.5 -1.125 0 0 Z " fill="#E98A1E" transform="translate(314,318)"/>
<path d="M0 0 C2.69082872 0.17635452 5.32851446 0.61835921 8 1 C7 3 7 3 4.41796875 3.88671875 C3.35191406 4.15097656 2.28585937 4.41523438 1.1875 4.6875 C0.12917969 4.95949219 -0.92914063 5.23148437 -2.01953125 5.51171875 C-4.83268294 5.97258895 -6.35965663 5.9525694 -9 5 C-8.43410156 4.72285156 -7.86820312 4.44570313 -7.28515625 4.16015625 C-6.55167969 3.79792969 -5.81820313 3.43570312 -5.0625 3.0625 C-3.96615234 2.52302734 -3.96615234 2.52302734 -2.84765625 1.97265625 C-1.03750973 1.13628173 -1.03750973 1.13628173 0 0 Z " fill="#EBA000" transform="translate(339,340)"/>
<path d="M0 0 C1.134375 0.474375 2.26875 0.94875 3.4375 1.4375 C7.91298952 3.1348234 12.24712186 3.68094105 17 4 C15.70703125 5.51171875 15.70703125 5.51171875 14 7 C9.46107817 6.7430799 5.14977664 5.87727991 1 4 C0.3359375 1.92578125 0.3359375 1.92578125 0 0 Z " fill="#633B00" transform="translate(279,341)"/>
<path d="M0 0 C1.3479743 0.63654342 2.68596724 1.29605388 4 2 C2.80375 2.103125 1.6075 2.20625 0.375 2.3125 C-4.85305565 2.96022371 -8.6474642 5.09830947 -13 8 C-11.68818459 4.06455377 -9.04041273 2.25061837 -5.8515625 -0.14453125 C-3.46704917 -1.24623678 -2.42457019 -0.89065844 0 0 Z " fill="#653604" transform="translate(235,401)"/>
<path d="M0 0 C0.33 0.66 0.66 1.32 1 2 C-2.63 2.66 -6.26 3.32 -10 4 C-10.33 3.01 -10.66 2.02 -11 1 C-9.5437328 0.63743142 -8.08488815 0.28520207 -6.625 -0.0625 C-5.40683594 -0.35833984 -5.40683594 -0.35833984 -4.1640625 -0.66015625 C-2 -1 -2 -1 0 0 Z " fill="#704600" transform="translate(291,337)"/>
<path d="M0 0 C0.99 0.33 1.98 0.66 3 1 C3 2.98 3 4.96 3 7 C2.34 7 1.68 7 1 7 C1 10.63 1 14.26 1 18 C0.67 18 0.34 18 0 18 C0 12.06 0 6.12 0 0 Z " fill="#713E07" transform="translate(283,197)"/>
<path d="M0 0 C0.33 0 0.66 0 1 0 C1 2.64 1 5.28 1 8 C1.66 8 2.32 8 3 8 C3 8.66 3 9.32 3 10 C1.68 10.33 0.36 10.66 -1 11 C-1.02688151 9.35425434 -1.04634123 7.70838587 -1.0625 6.0625 C-1.07410156 5.14597656 -1.08570313 4.22945313 -1.09765625 3.28515625 C-1 1 -1 1 0 0 Z " fill="#4E2800" transform="translate(255,253)"/>
<path d="M0 0 C-1 2 -1 2 -2.84765625 2.6328125 C-3.57855469 2.79523438 -4.30945313 2.95765625 -5.0625 3.125 C-6.16271484 3.37636719 -6.16271484 3.37636719 -7.28515625 3.6328125 C-7.85105469 3.75398438 -8.41695313 3.87515625 -9 4 C-9.66 3.01 -10.32 2.02 -11 1 C-7.27569643 0.30710631 -3.78916254 -0.11144596 0 0 Z " fill="#6F4F1B" transform="translate(292,330)"/>
<path d="M0 0 C2.97 0 5.94 0 9 0 C7.515 1.485 7.515 1.485 6 3 C3.375 2.8125 3.375 2.8125 1 2 C0.67 1.34 0.34 0.68 0 0 Z " fill="#744A00" transform="translate(287,345)"/>
<path d="M0 0 C0.33 0.66 0.66 1.32 1 2 C1.66 2 2.32 2 3 2 C2.67 3.65 2.34 5.3 2 7 C1.01 7 0.02 7 -1 7 C-0.67 4.69 -0.34 2.38 0 0 Z " fill="#6D3B06" transform="translate(291,297)"/>
</svg>
