<?xml version="1.0" encoding="UTF-8"?>
<svg version="1.1" xmlns="http://www.w3.org/2000/svg" width="512" height="512">
<path d="M0 0 C10.71117226 6.60277742 14.68071954 22.52639388 17.484375 33.94580078 C21.3992605 50.63875741 21.3992605 50.63875741 22.5 59.06640625 C23.73788118 68.35930543 26.21515837 74.54601449 31.671875 82.1953125 C34.47847098 86.22789445 37.8359375 91.2162202 37.8359375 96.3046875 C38.8671875 95.8096875 39.8984375 95.3146875 40.9609375 94.8046875 C44.3653173 93.33775962 47.09979561 92.94886446 50.8359375 93.3046875 C51.8359375 94.3046875 51.8359375 94.3046875 52.2109375 97.1171875 C51.8359375 100.3046875 51.8359375 100.3046875 49.4609375 102.6796875 C46.8359375 104.3046875 46.8359375 104.3046875 44.8359375 104.3046875 C45.3309375 105.0884375 45.8259375 105.8721875 46.3359375 106.6796875 C47.8359375 109.3046875 47.8359375 109.3046875 47.8359375 111.3046875 C49.1353125 111.2428125 50.4346875 111.1809375 51.7734375 111.1171875 C57.3911173 111.1171875 63.02534177 112.15242951 67.5703125 115.6328125 C69.63116255 118.35516997 69.23512958 120.86131109 69.14453125 124.16015625 C68.75455406 126.8702509 67.54836964 128.21998751 65.8359375 130.3046875 C66.26249507 134.09200167 67.57337172 137.04973477 69.2734375 140.4296875 C75.60324728 154.13207919 75.59463116 170.07923093 70.8359375 184.3046875 C63.43130345 202.22860325 50.72440812 215.49086149 34.8359375 226.3046875 C36.37701172 226.63339844 36.37701172 226.63339844 37.94921875 226.96875 C54.04344348 230.57446411 66.98225587 237.52138981 76.65234375 251.41015625 C80.3740261 257.36730456 81.53158639 262.4017101 80.8359375 269.3046875 C80.5059375 270.2946875 80.1759375 271.2846875 79.8359375 272.3046875 C80.49335938 272.25828125 81.15078125 272.211875 81.828125 272.1640625 C95.44014333 271.64761736 113.17887614 274.36904792 123.5703125 283.89453125 C131.37190792 293.64652553 131.03123765 307.80775682 131.0234375 319.6171875 C131.02335693 320.75623535 131.02327637 321.8952832 131.02319336 323.06884766 C130.87139117 345.85835146 130.87139117 345.85835146 127.8359375 356.3046875 C129.39441406 356.16160156 129.39441406 356.16160156 130.984375 356.015625 C150.3361406 354.40336506 150.3361406 354.40336506 157.3984375 359.5546875 C160.22508845 362.7437296 160.8359375 364.07231538 160.8359375 368.3046875 C159.68009967 376.26712591 156.49703495 381.50960035 150.078125 386.41015625 C134.74731542 396.44863476 114.83305734 402.07531155 96.55859375 398.69921875 C89.01299955 396.89742232 89.01299955 396.89742232 85.6484375 395.203125 C83.79977721 394.11963692 83.79977721 394.11963692 81.3359375 394.3046875 C77.79952951 395.7192507 76.85824664 398.14482947 74.8359375 401.3046875 C66.91935438 408.05706722 51.8761988 405.48557719 42.01171875 405.5078125 C41.15491201 405.51063988 40.29810528 405.51346725 39.4153347 405.51638031 C34.86030148 405.53132465 30.30529941 405.54057805 25.75024414 405.54492188 C22.0532013 405.54926424 18.3563974 405.56299595 14.65942383 405.5859375 C-65.51103536 406.07337226 -65.51103536 406.07337226 -86.1640625 392.3046875 C-88.68808788 391.71135113 -88.68808788 391.71135113 -91.5390625 391.33984375 C-92.60769531 391.17935547 -93.67632812 391.01886719 -94.77734375 390.85351562 C-95.89496094 390.69302734 -97.01257813 390.53253906 -98.1640625 390.3671875 C-105.58241354 389.29799456 -112.73242163 388.03846363 -119.921875 385.88842773 C-122.26177844 385.17871463 -122.26177844 385.17871463 -125.1640625 385.3046875 C-126.79380458 386.9076954 -126.79380458 386.9076954 -128.3515625 388.9921875 C-132.65736376 394.13725511 -137.49708633 397.94687769 -144.1640625 399.3046875 C-146.02050204 399.40985663 -147.88017914 399.46306183 -149.73950195 399.48168945 C-150.85778885 399.49452469 -151.97607574 399.50735992 -153.12825012 399.52058411 C-154.33245102 399.52797104 -155.53665192 399.53535797 -156.77734375 399.54296875 C-158.02025681 399.5510405 -159.26316986 399.55911224 -160.54374695 399.56742859 C-163.17392588 399.58125736 -165.80412266 399.59198491 -168.43432617 399.59985352 C-171.12400965 399.60871453 -173.81317668 399.62959437 -176.50268555 399.66137695 C-180.38606346 399.70402002 -184.26876086 399.72021843 -188.15234375 399.73046875 C-189.35047195 399.74797684 -190.54860016 399.76548492 -191.78303528 399.78352356 C-198.47305808 399.76616845 -202.75301636 399.36581903 -208.1640625 395.3046875 C-211.49069445 391.33607394 -212.84949835 386.45091573 -212.546875 381.31640625 C-211.54157961 376.03347638 -209.13713184 372.29987205 -205.4140625 368.4921875 C-198.90077948 364.10824701 -191.93195701 362.1588722 -184.08203125 362.20703125 C-183.15068359 362.21025391 -182.21933594 362.21347656 -181.25976562 362.21679688 C-180.30005859 362.22517578 -179.34035156 362.23355469 -178.3515625 362.2421875 C-177.37251953 362.24669922 -176.39347656 362.25121094 -175.38476562 362.25585938 C-172.97780139 362.26760066 -170.57096393 362.28402331 -168.1640625 362.3046875 C-164.13381078 350.47086089 -161.04811003 338.68677343 -159.0703125 326.3515625 C-158.4646668 323.21564618 -157.48387558 320.37476092 -156.33984375 317.39453125 C-154.56165041 312.67838268 -153.24355417 307.96165012 -152.05078125 303.07421875 C-151.7809996 301.98453293 -151.7809996 301.98453293 -151.50576782 300.87283325 C-150.7622982 297.86183277 -150.02278872 294.85055557 -149.31762695 291.83032227 C-147.23877375 282.98593674 -145.39435645 275.43693788 -138.1640625 269.3046875 C-138.73213623 269.17940674 -139.30020996 269.05412598 -139.88549805 268.92504883 C-160.35577984 264.36253277 -179.148775 258.57626698 -195.1640625 244.3046875 C-195.92332031 243.63953125 -196.68257812 242.974375 -197.46484375 242.2890625 C-213.71186677 227.13639854 -222.86257426 204.10950912 -225.1640625 182.3046875 C-225.12566495 180.91075552 -225.06574538 179.51730745 -224.98828125 178.125 C-224.47043457 165.56047525 -228.15612731 157.46831519 -234.58251953 146.81054688 C-246.93181368 126.31103242 -259.26234924 97.0321593 -253.890625 72.64453125 C-252.17175535 67.10903167 -248.95041309 63.42622049 -244.1640625 60.3046875 C-224.55835837 50.14706555 -199.63976108 54.08109112 -178.66015625 56.55078125 C-177.56622559 56.67445068 -176.47229492 56.79812012 -175.34521484 56.92553711 C-173.27369103 57.17243477 -171.20555811 57.45039194 -169.14306641 57.76391602 C-162.62501386 58.64330035 -159.07797449 58.04771384 -153.6640625 54.3671875 C-152.28753562 53.52048985 -150.90578942 52.68223177 -149.51953125 51.8515625 C-148.4529126 51.21057617 -148.4529126 51.21057617 -147.36474609 50.55664062 C-127.84144868 39.44997664 -103.22554792 32.64841132 -80.82421875 32.0703125 C-66.94178932 32.48487439 -66.94178932 32.48487439 -54.38671875 28.19140625 C-52.21333992 25.87737732 -50.35269524 23.52218536 -48.51269531 20.94140625 C-45.74785409 17.5859581 -42.18458713 15.09160097 -38.7265625 12.4921875 C-37.63420288 11.66352173 -37.63420288 11.66352173 -36.51977539 10.81811523 C-26.06722034 3.06534342 -13.43643811 -4.31712271 0 0 Z M-107.1640625 325.3046875 C-111.96017663 340.21717698 -111.96017663 340.21717698 -116.1640625 355.3046875 C-114.10443398 355.98017328 -112.04121928 356.64473062 -109.9765625 357.3046875 C-108.82800781 357.6759375 -107.67945313 358.0471875 -106.49609375 358.4296875 C-103.48909176 359.21933398 -101.23241801 359.37790702 -98.1640625 359.3046875 C-99.46506573 351.45116504 -101.22812875 343.80378014 -103.2890625 336.1171875 C-103.56621094 335.06982422 -103.84335938 334.02246094 -104.12890625 332.94335938 C-104.803521 330.39610713 -105.48194897 327.8499399 -106.1640625 325.3046875 C-106.4940625 325.3046875 -106.8240625 325.3046875 -107.1640625 325.3046875 Z " fill="#532B01" transform="translate(303.1640625,53.6953125)"/>
<path d="M0 0 C12.45810317 10.44745994 19.92816478 24.15671473 26.21875 38.8828125 C19.24834295 41.53114344 10.84827923 42.6035862 3.70703125 39.94921875 C1.87119725 38.93863585 0.04434175 37.91178239 -1.78125 36.8828125 C-4.6662331 36.98620645 -4.6662331 36.98620645 -6.78125 37.8828125 C-6.74344702 40.25514861 -6.74344702 40.25514861 -5.78125 42.8828125 C1.6150939 49.04643242 9.96327697 49.65690661 19.21875 48.8828125 C23.28480632 48.08437011 27.24846636 47.06545018 31.21875 45.8828125 C34.21875 49.6328125 34.21875 49.6328125 34.21875 51.8828125 C34.79238281 51.72296875 35.36601562 51.563125 35.95703125 51.3984375 C42.90448071 49.81456301 49.82661755 50.76375992 56.21875 53.8828125 C58.33067617 55.50847124 59.10630544 56.34186301 59.65234375 58.96875 C59.65363281 59.72414063 59.65492188 60.47953125 59.65625 61.2578125 C59.68525391 62.38316406 59.68525391 62.38316406 59.71484375 63.53125 C59.01004569 66.87210381 57.59387631 68.4452855 55.21875 70.8828125 C52.125 72.83203125 52.125 72.83203125 48.71875 74.5703125 C47.5946875 75.15167969 46.470625 75.73304688 45.3125 76.33203125 C42.9485907 77.51697063 40.5838544 78.7002603 38.21875 79.8828125 C44.15875 80.2128125 50.09875 80.5428125 56.21875 80.8828125 C58.91920975 87.9274901 59.84967209 94.36125925 60.21875 101.8828125 C59.18234375 101.83640625 58.1459375 101.79 57.078125 101.7421875 C55.70836221 101.70465975 54.33856818 101.66826066 52.96875 101.6328125 C52.28683594 101.59929687 51.60492188 101.56578125 50.90234375 101.53125 C47.4818866 101.46483336 45.57435969 101.62686412 42.765625 103.6484375 C41.13978254 105.99687661 40.67475239 107.0669656 40.71875 109.8828125 C40.7084375 110.5428125 40.698125 111.2028125 40.6875 111.8828125 C41.47535136 114.84884114 42.80918084 116.01579534 45.21875 117.8828125 C48.24176398 118.78748181 48.24176398 118.78748181 51.46875 119.1328125 C52.54640625 119.28234375 53.6240625 119.431875 54.734375 119.5859375 C55.96414063 119.73289063 55.96414063 119.73289063 57.21875 119.8828125 C55.25974082 134.83658254 42.70162734 147.82441006 31.1875 156.71875 C29.71796875 157.78996094 29.71796875 157.78996094 28.21875 158.8828125 C27.1565625 159.65882813 26.094375 160.43484375 25 161.234375 C7.75288327 173.432067 -11.32994084 182.07513304 -31.21337891 188.98681641 C-33.35446847 189.73389748 -35.4814069 190.50709266 -37.60546875 191.30078125 C-68.66042692 202.44594045 -101.91033665 207.02939981 -134.78125 205.8828125 C-136.02261719 205.8621875 -137.26398438 205.8415625 -138.54296875 205.8203125 C-154.23025584 205.17755554 -173.5875948 200.67858263 -186.78125 191.8828125 C-185.19000955 188.24691363 -182.9418596 185.48214726 -180.40625 182.4453125 C-178.86430928 180.59137374 -177.32263706 178.73721161 -175.78125 176.8828125 C-175.04648438 176.01527344 -174.31171875 175.14773438 -173.5546875 174.25390625 C-171.1714789 171.06754585 -170.78125 168.84173301 -170.78125 164.8828125 C-172.54766172 162.08091804 -173.81174822 160.36756339 -176.78125 158.8828125 C-179.69146267 158.40905695 -181.81033314 158.3160572 -184.4140625 159.8359375 C-189.21459697 163.72102121 -192.95051903 168.57229067 -196.765625 173.39453125 C-197.43078125 174.21566406 -198.0959375 175.03679687 -198.78125 175.8828125 C-199.28140625 176.50800781 -199.7815625 177.13320313 -200.296875 177.77734375 C-201.78125 178.8828125 -201.78125 178.8828125 -203.70361328 178.63623047 C-206.10665073 177.76481172 -206.94094236 176.92572344 -208.5078125 174.93359375 C-208.9821875 174.33224609 -209.4565625 173.73089844 -209.9453125 173.11132812 C-210.42742187 172.47904297 -210.90953125 171.84675781 -211.40625 171.1953125 C-211.89609375 170.58236328 -212.3859375 169.96941406 -212.890625 169.33789062 C-215.74212878 165.66443698 -217.58755089 162.45397792 -218.78125 157.8828125 C-218.13051514 157.50995117 -217.47978027 157.13708984 -216.80932617 156.75292969 C-213.85735096 155.05494448 -210.91305355 153.34406298 -207.96875 151.6328125 C-206.43250977 150.75302734 -206.43250977 150.75302734 -204.86523438 149.85546875 C-203.39086914 148.99501953 -203.39086914 148.99501953 -201.88671875 148.1171875 C-200.98074951 147.59350586 -200.07478027 147.06982422 -199.14135742 146.53027344 C-196.7110904 144.83383795 -195.30496839 143.4128295 -193.78125 140.8828125 C-193.13628371 136.44866925 -193.25544492 134.60966069 -195.90625 130.9453125 C-199.40701799 128.43389199 -200.54712459 128.37471745 -204.78125 128.8828125 C-207.59582033 130.08109852 -210.16836638 131.61137459 -212.78125 133.1953125 C-214.15551831 134.00514918 -215.5305075 134.81376394 -216.90625 135.62109375 C-217.55851562 136.0073291 -218.21078125 136.39356445 -218.8828125 136.79150391 C-221.45923125 138.27254709 -224.10584589 139.59109395 -226.78125 140.8828125 C-227.267114 139.36410552 -227.74456201 137.84270551 -228.21875 136.3203125 C-228.48558594 135.47339844 -228.75242187 134.62648437 -229.02734375 133.75390625 C-233.6340788 116.21012253 -232.60058238 93.03262069 -226.78125 75.8828125 C-226.57226074 75.22893555 -226.36327148 74.57505859 -226.14794922 73.90136719 C-219.69696326 53.84774042 -208.16725322 37.12692819 -193.78125 21.8828125 C-193.10835937 21.14546875 -192.43546875 20.408125 -191.7421875 19.6484375 C-176.24594733 3.28162203 -149.10838736 -14.65737002 -126.34375 -17.5546875 C-121.55516133 -16.96661521 -119.48792678 -15.14304609 -115.78125 -12.1171875 C-118.72959351 -8.93107435 -122.17857322 -6.83539458 -125.8203125 -4.51953125 C-127.90469943 -3.25977884 -127.90469943 -3.25977884 -128.78125 -1.1171875 C-128.81960386 2.92530932 -128.64615157 6.65753527 -126.28125 10.0078125 C-122.19133988 11.43928104 -118.91420143 11.12208745 -114.78125 9.8828125 C-111.56657445 8.19278859 -108.52561656 6.35725718 -105.48046875 4.37890625 C-102.78125 2.8828125 -102.78125 2.8828125 -98.78125 2.8828125 C-96.640625 5.18359375 -96.640625 5.18359375 -94.53125 8.1953125 C-93.82484375 9.18144531 -93.1184375 10.16757813 -92.390625 11.18359375 C-90.78125 13.8828125 -90.78125 13.8828125 -90.78125 16.8828125 C-92.42673828 17.66205078 -92.42673828 17.66205078 -94.10546875 18.45703125 C-95.56015943 19.16091384 -97.01457193 19.86537152 -98.46875 20.5703125 C-99.18998047 20.90998047 -99.91121094 21.24964844 -100.65429688 21.59960938 C-105.11979973 23.78138474 -108.59077493 25.95036649 -111.78125 29.8828125 C-112.68863141 32.90929585 -112.24558133 34.6324932 -111.78125 37.8828125 C-110.44791667 40.54947917 -110.44791667 40.54947917 -107.78125 41.8828125 C-100.13115666 43.22493414 -95.19873475 39.72931733 -88.78125 35.8828125 C-86.02446473 34.3434397 -85.01423393 33.8828125 -81.78125 33.8828125 C-81.27464844 34.94822266 -81.27464844 34.94822266 -80.7578125 36.03515625 C-80.31179687 36.95425781 -79.86578125 37.87335938 -79.40625 38.8203125 C-78.74496094 40.19509766 -78.74496094 40.19509766 -78.0703125 41.59765625 C-76.98925838 44.01185052 -76.98925838 44.01185052 -74.78125 44.8828125 C-70.60606154 45.35547535 -68.45557444 45.29888503 -64.84375 43.0703125 C-61.84506104 38.43597502 -62.35790005 34.25465298 -62.78125 28.8828125 C-61.87761719 28.77324219 -60.97398437 28.66367188 -60.04296875 28.55078125 C-58.86347656 28.39222656 -57.68398437 28.23367187 -56.46875 28.0703125 C-55.29699219 27.91949219 -54.12523437 27.76867187 -52.91796875 27.61328125 C-49.75605855 26.876946 -48.51869417 26.58481643 -46.78125 23.8828125 C-46.38221561 21.70347919 -46.38221561 21.70347919 -46.53125 19.3828125 C-46.55445313 18.22265625 -46.55445313 18.22265625 -46.578125 17.0390625 C-46.71653295 14.7005318 -46.71653295 14.7005318 -47.78125 11.8828125 C-50.69569659 10.72758679 -53.2216477 10.87189474 -56.30078125 11.171875 C-70.24666311 12.15223948 -70.24666311 12.15223948 -74.65234375 8.5078125 C-78.78125 1.91529691 -78.78125 1.91529691 -78.78125 -2.1171875 C-78.11738281 -2.14296875 -77.45351562 -2.16875 -76.76953125 -2.1953125 C-71.26358744 -2.54897896 -67.73938608 -2.9036878 -63.78125 -7.1171875 C-62.33694145 -10.00580459 -62.40436494 -11.91366451 -62.78125 -15.1171875 C-64.73171774 -17.9547479 -64.73171774 -17.9547479 -67.78125 -20.1171875 C-70.73483798 -20.51818121 -73.04791785 -20.64353766 -75.96875 -20.4921875 C-77.0983313 -20.46547974 -77.0983313 -20.46547974 -78.25073242 -20.43823242 C-83.14377601 -20.29368553 -87.97461739 -19.88861516 -92.80078125 -19.04296875 C-95.57351243 -19.14687781 -96.80186163 -20.24455266 -98.78125 -22.1171875 C-98.78125 -22.7771875 -98.78125 -23.4371875 -98.78125 -24.1171875 C-63.97079933 -30.44176066 -27.8308894 -21.18587367 0 0 Z " fill="#FE9723" transform="translate(312.78125,114.1171875)"/>
<path d="M0 0 C1.52173828 0.49113281 1.52173828 0.49113281 3.07421875 0.9921875 C10.80635052 3.59650598 17.25256979 7.12283096 23 13 C23 13.66 23 14.32 23 15 C22.03320312 15.21914063 21.06640625 15.43828125 20.0703125 15.6640625 C10.71514381 17.89721627 2.4857799 20.5142201 -4.5 27.5 C-9.12359136 35.20598559 -9.44884078 44.9478803 -7.3828125 53.578125 C-5.09100308 58.89187782 -1.11450216 61.55302053 4 64 C10.02872891 66.0095763 16.84974502 65.29479052 23 64 C27.15013129 68.66889771 27.71246227 72.63392603 27.53515625 78.82421875 C26.77058022 83.36144732 24.84138249 86.7626264 22.41015625 90.625 C21.09357005 92.84240834 20.55207853 94.51810104 20 97 C12.58349491 97.78977459 5.2692332 98.16003163 -2.1875 98.125 C-3.74597656 98.12209961 -3.74597656 98.12209961 -5.3359375 98.11914062 C-12.40200829 98.08078439 -19.44289082 97.84161802 -26.5 97.5 C-35.54400162 97.07934876 -44.58473658 96.83277521 -53.63793945 96.76782227 C-55.02259849 96.75613805 -56.40722548 96.73923354 -57.79174805 96.71655273 C-68.48644658 96.55036814 -80.52027161 96.60741627 -89 104 C-91.1066013 106.90565697 -92.34676596 109.47253617 -93 113 C-92.01 113 -91.02 113 -90 113 C-89.9071875 111.9171875 -89.9071875 111.9171875 -89.8125 110.8125 C-88.7134604 107.00813217 -87.03980964 105.5111471 -84 103 C-76.37493345 98.97166295 -68.58683742 98.84429532 -60.17578125 98.93408203 C-58.91047829 98.94109131 -58.91047829 98.94109131 -57.61961365 98.94824219 C-55.79998449 98.95868634 -53.98036686 98.97132907 -52.1607666 98.98596573 C-49.26570434 99.00817143 -46.37070938 99.02213378 -43.47558594 99.03366089 C-35.24779123 99.06706516 -27.02010652 99.10847025 -18.79248047 99.17138672 C-13.745232 99.20939228 -8.69809706 99.23216691 -3.65072632 99.24569321 C-1.7436507 99.25366101 0.16341129 99.26714364 2.07040405 99.28662491 C13.80303282 99.40432907 24.54276134 98.62162149 36 96 C38.29119519 95.51858398 40.58278513 95.03903732 42.875 94.5625 C45.68935787 94.04325896 45.68935787 94.04325896 48 93 C49.23659775 91.08420959 49.23659775 91.08420959 50 89 C52.88527923 85.94499846 54.98289766 84.72239733 59.125 84.5625 C63 85 63 85 64.875 86.0625 C67.90325998 91.27783663 68.24890951 96.80490321 68.23046875 102.70703125 C68.23059715 103.78561401 68.23059715 103.78561401 68.23072815 104.88598633 C68.22747515 107.19502498 68.20871839 109.50356152 68.1875 111.8125 C68.17796666 113.39868108 68.16852679 114.98486273 68.15917969 116.57104492 C68.12679833 121.04772466 68.06725366 125.52372786 68 130 C67.98598145 131.08796875 67.97196289 132.1759375 67.95751953 133.296875 C67.91506375 135.80395446 67.84388098 138.30689653 67.75 140.8125 C67.70359375 142.09769531 67.6571875 143.38289062 67.609375 144.70703125 C66.88423368 148.6255834 65.45997584 150.89508667 63 154 C54.29250746 159.37815715 39.77029139 157.11547479 29.875 157.0625 C28.23437637 157.05747437 26.59375124 157.05291335 24.953125 157.04882812 C20.96871258 157.03790805 16.9843731 157.02070218 13 157 C12.95101562 155.86820313 12.90203125 154.73640625 12.8515625 153.5703125 C12.77653486 152.08851661 12.70098703 150.606747 12.625 149.125 C12.57859375 148.00544922 12.57859375 148.00544922 12.53125 146.86328125 C12.44356169 142.46526812 12.44356169 142.46526812 10 139 C7.69 139.33 5.38 139.66 3 140 C2.67 145.61 2.34 151.22 2 157 C-2.29 157 -6.58 157 -11 157 C-11.05607422 155.19402344 -11.05607422 155.19402344 -11.11328125 153.3515625 C-11.17892928 151.77600989 -11.24537701 150.20049046 -11.3125 148.625 C-11.33505859 147.8309375 -11.35761719 147.036875 -11.38085938 146.21875 C-11.47785075 144.13784419 -11.72994825 142.06558668 -12 140 C-14.76988076 137.68456793 -14.76988076 137.68456793 -17.625 138.3125 C-19.93501965 138.7741514 -19.93501965 138.7741514 -21 140 C-21.23695148 142.69422605 -21.42168602 145.36334611 -21.5625 148.0625 C-21.7790625 151.9915625 -21.7790625 151.9915625 -22 156 C-28.27 156 -34.54 156 -41 156 C-41.375 147.125 -41.375 147.125 -41.47802734 144.33251953 C-41.5136377 143.60661621 -41.54924805 142.88071289 -41.5859375 142.1328125 C-41.6173584 141.38918457 -41.6487793 140.64555664 -41.68115234 139.87939453 C-41.85419551 137.75989026 -41.85419551 137.75989026 -44 136 C-47.06991681 136.16442277 -47.06991681 136.16442277 -50 137 C-51.52106634 140.04213267 -51.37429338 143.28047572 -51.5625 146.625 C-51.60568359 147.33140625 -51.64886719 148.0378125 -51.69335938 148.765625 C-51.79944751 150.51018537 -51.90022889 152.25506697 -52 154 C-53.41655793 154.0272415 -54.83327045 154.04650467 -56.25 154.0625 C-57.43335938 154.07990234 -57.43335938 154.07990234 -58.640625 154.09765625 C-61 154 -61 154 -65 153 C-65.33 146.73 -65.66 140.46 -66 134 C-71.44996282 132.46164465 -71.44996282 132.46164465 -73.83203125 133.98828125 C-75.58089671 137.00054115 -75.52910849 139.73456518 -75.6875 143.1875 C-75.78611328 145.09595703 -75.78611328 145.09595703 -75.88671875 147.04296875 C-75.94279297 148.50669922 -75.94279297 148.50669922 -76 150 C-84.01485736 148.75695499 -90.25547828 146.00902981 -96.0625 140.25 C-98.67682921 135.86467359 -98.08641142 132.84044692 -97 128 C-97.99 127.67 -98.98 127.34 -100 127 C-100.84420401 124.61760221 -101.49109317 122.38584389 -102.0625 119.9375 C-102.23168945 119.25518311 -102.40087891 118.57286621 -102.57519531 117.86987305 C-103.05853954 115.91530907 -103.52958754 113.95771656 -104 112 C-104.41507884 110.43707744 -104.83130063 108.87445653 -105.25 107.3125 C-106 104 -106 104 -106 100 C-103.69262695 98.140625 -103.69262695 98.140625 -100.48828125 96.25 C-99.92304245 95.91000977 -99.35780365 95.57001953 -98.7754364 95.21972656 C-96.96236907 94.13251326 -95.13828069 93.06569999 -93.3125 92 C-91.50701429 90.93065446 -89.70410562 89.85718308 -87.90312195 88.78027344 C-86.25802948 87.79905701 -84.60634614 86.82891584 -82.9543457 85.859375 C-80.12115904 84.0762538 -77.56713564 82.14407263 -75 80 C-75.33 78.02 -75.66 76.04 -76 74 C-79.69622812 72.99165515 -81.4855762 72.77037902 -85.03613281 74.35522461 C-86.60379395 75.36854858 -86.60379395 75.36854858 -88.203125 76.40234375 C-88.76698914 76.75889542 -89.33085327 77.11544708 -89.9118042 77.48280334 C-91.70185929 78.61863511 -93.47601955 79.77675628 -95.25 80.9375 C-97.04077885 82.09012174 -98.83448973 83.23788496 -100.63104248 84.38148499 C-102.25354715 85.41723583 -103.86771742 86.46600795 -105.48144531 87.51538086 C-108 89 -108 89 -110 89 C-111.5625 83.23828125 -111.5625 83.23828125 -112 81 C-112.17402344 80.18789063 -112.34804687 79.37578125 -112.52734375 78.5390625 C-111.89162051 75.47817282 -111.33244023 75.22878309 -108.81640625 73.53515625 C-107.40858805 72.69371711 -105.98985318 71.87035818 -104.5625 71.0625 C-103.09353831 70.1839476 -101.62478711 69.30504316 -100.15625 68.42578125 C-98.77196032 67.61525965 -97.38663991 66.80649424 -96 66 C-89.5595927 62.58769356 -89.5595927 62.58769356 -85.8125 56.75 C-85.70722372 53.85453044 -85.70722372 53.85453044 -88 52 C-94.25017938 52.11704456 -98.03721478 54.5664182 -102.9375 58.0625 C-103.62134766 58.53494141 -104.30519531 59.00738281 -105.00976562 59.49414062 C-106.68118547 60.65127744 -108.34174777 61.82407081 -110 63 C-110.93423645 59.98968256 -111.04449911 59.13349732 -110 56 C-110.99 56 -111.98 56 -113 56 C-113.226875 57.299375 -113.45375 58.59875 -113.6875 59.9375 C-115.08753445 66.90850484 -117.19301425 73.66114838 -119.24072266 80.46142578 C-120.64434319 85.15430242 -122.00636237 89.85932885 -123.375 94.5625 C-123.66890625 95.56756592 -123.9628125 96.57263184 -124.265625 97.6081543 C-125.8177171 102.9182746 -127.35337531 108.23240761 -128.86328125 113.5546875 C-129.1689502 114.62388428 -129.47461914 115.69308105 -129.78955078 116.79467773 C-130.37007926 118.82652742 -130.94562223 120.85981109 -131.51513672 122.89477539 C-134.24340444 132.40419615 -136.95433985 140.80033389 -145 147 C-152.36275446 151.04798083 -159.31189759 151.59150756 -167.578125 151.53125 C-168.74833191 151.5350769 -169.91853882 151.53890381 -171.12420654 151.54284668 C-173.58151111 151.54555346 -176.03884509 151.53827945 -178.49609375 151.52148438 C-182.25325505 151.49998137 -186.00852097 151.52136986 -189.765625 151.546875 C-192.16146254 151.54423302 -194.5572989 151.53911073 -196.953125 151.53125 C-198.07197083 151.53934692 -199.19081665 151.54744385 -200.34356689 151.55578613 C-206.5186774 151.48152014 -210.32519873 151.18562913 -215 147 C-218.10014392 142.55314633 -217.89448797 137.17371839 -217 132 C-214.37772971 126.60331404 -210.22204508 123.70572604 -204.75 121.5 C-194.7971742 118.6401374 -183.11433948 118.9998975 -173 121 C-172.67 120.34 -172.34 119.68 -172 119 C-171.43152344 119.22816406 -170.86304688 119.45632813 -170.27734375 119.69140625 C-164.97846026 121.66411246 -161.5194609 122.29178872 -156 121 C-155.3121764 118.64632287 -155.3121764 118.64632287 -155 116 C-157.46486441 112.30270339 -158.88588138 112.16708856 -163.0625 110.9375 C-165.05871702 110.34646785 -167.04355219 109.71169751 -169 109 C-170.45047396 106.09905209 -169.45356803 104.44027404 -168.5625 101.375 C-168.27503906 100.37210937 -167.98757812 99.36921875 -167.69140625 98.3359375 C-167.46324219 97.56507813 -167.23507813 96.79421875 -167 96 C-166.13117188 96.28875 -165.26234375 96.5775 -164.3671875 96.875 C-162.63855469 97.431875 -162.63855469 97.431875 -160.875 98 C-159.73804688 98.37125 -158.60109375 98.7425 -157.4296875 99.125 C-154.06635888 99.98307017 -151.44634896 100.39957669 -148 100 C-145.74381231 97.24665405 -145.74381231 97.24665405 -146.0859375 94.44921875 C-146.77273751 91.85631802 -146.77273751 91.85631802 -149.0390625 90.70703125 C-150.31910156 90.26423828 -150.31910156 90.26423828 -151.625 89.8125 C-152.5221875 89.49410156 -153.419375 89.17570312 -154.34375 88.84765625 C-157.5498472 87.82453406 -160.74328906 86.84957677 -164 86 C-163.01 81.71 -162.02 77.42 -161 73 C-159.370625 73.474375 -157.74125 73.94875 -156.0625 74.4375 C-150.9950677 75.81238473 -146.24919133 76.75003851 -141 77 C-138.71271266 75.16116119 -138.71271266 75.16116119 -138.875 72.375 C-138.91625 71.59125 -138.9575 70.8075 -139 70 C-145.2662686 67.15444808 -151.59384869 64.51431409 -158 62 C-157.71640113 60.5608866 -157.42278601 59.12374482 -157.125 57.6875 C-156.96257812 56.88699219 -156.80015625 56.08648437 -156.6328125 55.26171875 C-156 53 -156 53 -154 50 C-152.92621094 50.3609375 -151.85242188 50.721875 -150.74609375 51.09375 C-149.31007163 51.56303827 -147.87386365 52.0317581 -146.4375 52.5 C-145.73302734 52.73847656 -145.02855469 52.97695313 -144.30273438 53.22265625 C-139.74601984 54.69256416 -135.84838513 55.34943316 -131 55 C-129.66812207 53.88833136 -129.66812207 53.88833136 -129.8125 51.0625 C-129.66721267 47.89107141 -129.66721267 47.89107141 -132 46 C-133.8888826 45.19200898 -133.8888826 45.19200898 -136.0625 44.52734375 C-136.85914063 44.26759766 -137.65578125 44.00785156 -138.4765625 43.74023438 C-139.30929688 43.47533203 -140.14203125 43.21042969 -141 42.9375 C-142.64622853 42.40617082 -144.29208054 41.8736732 -145.9375 41.33984375 C-146.66839844 41.10644287 -147.39929688 40.87304199 -148.15234375 40.63256836 C-150 40 -150 40 -152 39 C-151.47462592 34.93190071 -150.38599539 32.82396544 -147.625 29.8125 C-147.01914063 29.13832031 -146.41328125 28.46414063 -145.7890625 27.76953125 C-141.9778322 23.99990826 -139.44811206 23.72735012 -134.234375 23.62109375 C-133.56392151 23.60409927 -132.89346802 23.5871048 -132.20269775 23.56959534 C-130.05189534 23.51654578 -127.90110152 23.47636079 -125.75 23.4375 C-109.90525246 23.1022099 -94.47292063 22.43722771 -78.875 19.3125 C-78.20701385 19.18094513 -77.53902771 19.04939026 -76.85079956 18.91384888 C-65.81205591 16.73319231 -54.98637021 14.05966447 -44.24462891 10.69824219 C-42.08985948 10.02795281 -39.92837445 9.38846316 -37.76171875 8.7578125 C-31.40451478 6.87663027 -25.35309484 4.76472726 -19.296875 2.0534668 C-7.32248811 -3.25728893 -7.32248811 -3.25728893 0 0 Z " fill="#FD9723" transform="translate(312,299)"/>
<path d="M0 0 C8.90700321 6.90127805 16.01371144 14.33368404 18.38671875 25.60546875 C17.25734599 30.78176057 14.10343607 34.14291176 10.63671875 38.04296875 C11.19230469 37.71941406 11.74789062 37.39585937 12.3203125 37.0625 C22.22063829 32.70502102 39.95778141 36.73126869 49.79296875 40.51953125 C55.83234483 43.15008025 60.90884488 46.00996031 63.88671875 52.08203125 C71.81366823 72.80770125 68.08434087 99.87180792 63.63671875 121.04296875 C64.60480469 120.883125 65.57289063 120.72328125 66.5703125 120.55859375 C70.94914999 119.93729454 75.2815285 119.82244458 79.69921875 119.79296875 C80.86420898 119.76203125 80.86420898 119.76203125 82.05273438 119.73046875 C87.01079978 119.69688321 90.32294902 120.33783461 94.63671875 123.04296875 C96.63671875 125.04296875 96.63671875 125.04296875 97.01171875 128.16796875 C96.43123573 134.16629328 94.86997904 137.95885414 90.4140625 142.1171875 C77.22203968 152.31720515 62.80793021 156.4283084 46.38671875 156.29296875 C45.4328125 156.30070313 44.47890625 156.3084375 43.49609375 156.31640625 C38.47881199 156.30246936 34.33472414 156.02937371 29.63671875 154.04296875 C30.63671875 152.04296875 30.63671875 152.04296875 32.82421875 151.18359375 C33.75234375 150.8896875 34.68046875 150.59578125 35.63671875 150.29296875 C45.6108334 146.77421494 52.65511461 141.60020956 57.6328125 132.15234375 C62.14152631 122.22885881 61.7255633 110.92869198 58.63671875 100.65234375 C57.61145979 97.97705865 56.34885126 95.60254039 54.94921875 93.10546875 C52.01428851 87.50323109 51.5268345 82.25657272 52.63671875 76.04296875 C54.47911897 72.01490744 56.93549731 69.51044971 60.63671875 67.04296875 C61.38732724 64.12914146 61.38732724 64.12914146 60.63671875 61.04296875 C56.86743614 57.72241026 53.60030285 56.51569105 48.63671875 56.04296875 C49.34699219 56.34589844 50.05726563 56.64882813 50.7890625 56.9609375 C51.70816406 57.37988281 52.62726563 57.79882812 53.57421875 58.23046875 C54.94900391 58.83955078 54.94900391 58.83955078 56.3515625 59.4609375 C58.63671875 61.04296875 58.63671875 61.04296875 59.515625 63.65625 C59.55558594 64.44386719 59.59554687 65.23148437 59.63671875 66.04296875 C58.16585966 67.51382784 56.66206356 67.55500569 54.63671875 67.98046875 C53.42822266 68.24150391 53.42822266 68.24150391 52.1953125 68.5078125 C50.50163243 68.86206314 48.80630568 69.20853797 47.109375 69.546875 C45.91634766 69.79244141 45.91634766 69.79244141 44.69921875 70.04296875 C43.60287109 70.25953125 43.60287109 70.25953125 42.484375 70.48046875 C40.41336556 70.95264593 40.41336556 70.95264593 38.63671875 73.04296875 C38.59558754 75.61073153 38.64616938 78.10739482 38.76171875 80.66796875 C38.93706668 87.21429141 38.35857264 91.46018792 34.63671875 97.04296875 C31.82421875 97.35546875 31.82421875 97.35546875 28.63671875 97.04296875 C25.28942678 92.90807866 24.73165366 88.33126027 23.94921875 83.23046875 C23.81966797 82.44220703 23.69011719 81.65394531 23.55664062 80.84179688 C23.24058906 78.91037062 22.93735586 76.9768543 22.63671875 75.04296875 C20.98671875 75.04296875 19.33671875 75.04296875 17.63671875 75.04296875 C17.68892578 76.07357422 17.68892578 76.07357422 17.7421875 77.125 C17.76925781 78.02605469 17.79632813 78.92710937 17.82421875 79.85546875 C17.87642578 81.19544922 17.87642578 81.19544922 17.9296875 82.5625 C17.63671875 85.04296875 17.63671875 85.04296875 16.3125 86.84375 C13.71796968 88.70044186 11.73076293 88.42972427 8.63671875 88.04296875 C6.12625234 86.00439452 4.90272232 83.83314662 3.57421875 80.91796875 C2.29363552 77.84188854 2.29363552 77.84188854 -0.36328125 76.04296875 C-4.41419925 75.58731287 -4.41419925 75.58731287 -7.94921875 77.234375 C-9.70419937 79.47900491 -10.30299929 81.48860156 -11.05078125 84.23046875 C-11.30214844 85.13152344 -11.55351562 86.03257812 -11.8125 86.9609375 C-11.99425781 87.64800781 -12.17601562 88.33507812 -12.36328125 89.04296875 C-13.68328125 89.04296875 -15.00328125 89.04296875 -16.36328125 89.04296875 C-19.22481422 84.7506693 -19.47208546 80.23767396 -20.2890625 75.1953125 C-21.03684713 71.84139882 -21.03684713 71.84139882 -23.96875 70.609375 C-24.75894531 70.42246094 -25.54914063 70.23554688 -26.36328125 70.04296875 C-26.36328125 69.05296875 -26.36328125 68.06296875 -26.36328125 67.04296875 C-27.18119141 67.25953125 -27.18119141 67.25953125 -28.015625 67.48046875 C-35.9439252 69.43205034 -43.16820687 70.58612409 -50.5703125 66.44921875 C-54.833705 63.1053815 -57.32034775 58.299775 -58.36328125 53.04296875 C-58.9004736 46.19376628 -57.48335891 40.19169457 -53.6484375 34.49609375 C-46.40931468 26.72486447 -35.82611358 24.51982067 -25.80078125 22.859375 C-20.79296039 21.67001755 -17.32994619 19.20494033 -13.36328125 16.04296875 C-10.59876092 14.66070859 -8.31714495 14.94771488 -5.23828125 14.98046875 C-4.14257812 14.98949219 -3.046875 14.99851562 -1.91796875 15.0078125 C-0.65339844 15.02521484 -0.65339844 15.02521484 0.63671875 15.04296875 C0.14171875 14.05296875 0.14171875 14.05296875 -0.36328125 13.04296875 C-8.54659292 12.28369241 -13.55480251 12.9366097 -20.20703125 17.92578125 C-22.36328125 19.04296875 -22.36328125 19.04296875 -24.359375 18.4296875 C-26.57550165 16.89611058 -28.76236224 15.33788551 -30.92578125 13.73046875 C-37.80101778 8.85585496 -45.28523782 5.44454923 -53.36328125 3.04296875 C-50.24840273 -0.40700672 -47.01705394 -2.46409575 -42.92578125 -4.64453125 C-41.81332031 -5.24652344 -40.70085937 -5.84851563 -39.5546875 -6.46875 C-26.3660257 -12.61915409 -11.41896392 -7.81823953 0 0 Z " fill="#FC9622" transform="translate(363.36328125,292.95703125)"/>
<path d="M0 0 C1.52173828 0.49113281 1.52173828 0.49113281 3.07421875 0.9921875 C10.80635052 3.59650598 17.25256979 7.12283096 23 13 C23 13.66 23 14.32 23 15 C22.03320312 15.21914063 21.06640625 15.43828125 20.0703125 15.6640625 C10.71514381 17.89721627 2.4857799 20.5142201 -4.5 27.5 C-9.12359136 35.20598559 -9.44884078 44.9478803 -7.3828125 53.578125 C-5.09100308 58.89187782 -1.11450216 61.55302053 4 64 C10.02872891 66.0095763 16.84974502 65.29479052 23 64 C27.15013129 68.66889771 27.71246227 72.63392603 27.53515625 78.82421875 C26.77058022 83.36144732 24.84138249 86.7626264 22.41015625 90.625 C21.09357005 92.84240834 20.55207853 94.51810104 20 97 C9.39350841 98.12947236 -1.08262594 98.17192396 -11.73779297 98.03710938 C-13.90859821 98.01241529 -16.07954612 97.998054 -18.25048828 97.99414062 C-41.49690119 97.92368627 -41.49690119 97.92368627 -51 91 C-52.31097656 90.09701172 -52.31097656 90.09701172 -53.6484375 89.17578125 C-69.44317445 77.48388137 -76.09233067 61.04265684 -79.5625 42.3125 C-79.97593466 40.09940858 -80.39374596 37.88712928 -80.81640625 35.67578125 C-81.08626343 34.2203894 -81.08626343 34.2203894 -81.36157227 32.7355957 C-81.92234131 29.98335204 -81.92234131 29.98335204 -83.07397461 27.45776367 C-84.0748561 24.80132446 -84.16078717 22.81377547 -84 20 C-83.33170166 19.87471924 -82.66340332 19.74943848 -81.97485352 19.62036133 C-69.10475959 17.18589645 -56.42981458 14.6153986 -43.94873047 10.61621094 C-41.97399291 9.99177626 -39.99152981 9.40231579 -38.00390625 8.8203125 C-31.56719724 6.90904719 -25.42114155 4.80061628 -19.28808594 2.05126953 C-7.33085966 -3.26101288 -7.33085966 -3.26101288 0 0 Z " fill="#F8FDBB" transform="translate(312,299)"/>
<path d="M0 0 C0.68219604 -0.00167175 1.36439209 -0.00334351 2.06726074 -0.00506592 C11.78358178 -0.00648602 21.34243079 0.45690768 31 1.625 C32.56862793 1.81400879 32.56862793 1.81400879 34.16894531 2.00683594 C41.33146195 2.97097463 41.33146195 2.97097463 44.75 5.25 C44.09515625 5.77207031 43.4403125 6.29414062 42.765625 6.83203125 C41.85296875 7.56808594 40.9403125 8.30414063 40 9.0625 C38.48986328 10.27486328 38.48986328 10.27486328 36.94921875 11.51171875 C34.74445682 13.33928853 32.73668399 15.25157677 30.76953125 17.33203125 C23.46629811 24.95584692 23.46629811 24.95584692 18.9921875 25.72265625 C16.1875 25.4375 16.1875 25.4375 13.21875 24.87109375 C8.84686282 24.08828963 4.62023827 24.00561982 0.1875 24 C-0.62960449 23.99701904 -1.44670898 23.99403809 -2.28857422 23.9909668 C-8.61066803 24.05532191 -14.30589402 25.00593302 -20.25 27.25 C-19.92 27.91 -19.59 28.57 -19.25 29.25 C-18.67636719 29.0334375 -18.10273437 28.816875 -17.51171875 28.59375 C-11.14564129 26.50714494 -5.2079236 25.94784609 1.4375 25.9375 C2.23260986 25.93234375 3.02771973 25.9271875 3.84692383 25.921875 C9.11086921 25.98306461 13.68973991 26.79842825 18.75 28.25 C17.5434375 29.796875 17.5434375 29.796875 16.3125 31.375 C0.90067953 52.04497099 -7.6017725 73.21301133 -13.25 98.25 C-27.11607185 82.22132978 -34.60610838 58.60966045 -39.25 38.25 C-39.44207031 37.44175781 -39.63414063 36.63351563 -39.83203125 35.80078125 C-41.1984989 27.46149734 -41.57702648 17.68707677 -37.25 10.25 C-32.19802231 4.96783628 -26.24680715 2.8365517 -19.25 1.25 C-18.13612915 0.99198608 -18.13612915 0.99198608 -16.99975586 0.72875977 C-11.39991686 -0.24622774 -5.67060431 0.00726437 0 0 Z " fill="#FC9622" transform="translate(92.25,111.75)"/>
<path d="M0 0 C0.515625 0.680625 1.03125 1.36125 1.5625 2.0625 C3.72689567 4.18347206 3.72689567 4.18347206 5.8828125 4.04296875 C7.52508707 3.83420503 9.16559199 3.61131531 10.8046875 3.37890625 C14.81486433 2.90337183 18.77730324 2.75484682 22.8125 2.6875 C23.54170654 2.65817383 24.27091309 2.62884766 25.0222168 2.59863281 C28.74327659 2.55582757 30.78896562 2.86443487 33.94921875 4.89453125 C36.34846162 7.35775393 36.91186876 8.35370422 37.375 11.75 C36.8528401 16.2753858 35.15770622 17.7671103 32 21 C29.47524538 22.26237731 27.68799534 22.09856404 24.875 22.0625 C23.96492188 22.05347656 23.05484375 22.04445313 22.1171875 22.03515625 C21.06917969 22.01775391 21.06917969 22.01775391 20 22 C20.5053125 22.77085938 21.010625 23.54171875 21.53125 24.3359375 C22.50578125 25.84027344 22.50578125 25.84027344 23.5 27.375 C24.47453125 28.87160156 24.47453125 28.87160156 25.46875 30.3984375 C27 33 27 33 27 35 C27.99 34.67 28.98 34.34 30 34 C32.8243887 33.87744832 35.61326762 33.81487131 38.4375 33.8125 C39.20126953 33.80025391 39.96503906 33.78800781 40.75195312 33.77539062 C47.96650282 33.75655368 47.96650282 33.75655368 51 36 C53.67089167 40.00633751 53.70693873 43.28991428 53 48 C50.80168636 51.03215675 49.55036806 51.81654398 46 53 C44.27204648 53.06802967 42.54164635 53.08495645 40.8125 53.0625 C39.91144531 53.05347656 39.01039063 53.04445312 38.08203125 53.03515625 C37.39496094 53.02355469 36.70789063 53.01195312 36 53 C36.15855469 53.58910156 36.31710938 54.17820313 36.48046875 54.78515625 C37.23369732 57.99628859 37.28848684 60.71124997 37 64 C35.20437595 66.75329021 33.94745078 68.52627461 31 70 C26.7106322 70.48558881 24.72023945 70.5281756 21.1875 67.9375 C18.64568333 64.52420332 17.88831059 62.11853093 17 58 C9.45196478 61.26610198 9.45196478 61.26610198 2.3125 65.3125 C-2.04928357 67.53454069 -4.1526027 67.70365445 -9 67 C-11.97717008 65.01521994 -13.62826444 63.63168881 -14.44140625 60.0625 C-14.65303034 56.45806381 -14.40747309 54.64686353 -12.4375 51.51953125 C-9.41384445 48.39411807 -6.28407472 46.64231666 -2.4375 44.6875 C-1.76525391 44.32849609 -1.09300781 43.96949219 -0.40039062 43.59960938 C2.57375771 42.04903552 4.60013562 41 8 41 C6.06966971 37.48404125 4.25898204 34.32372755 1.75 31.1875 C0 29 0 29 0 27 C-5.14701052 28.92341312 -10.02573377 30.92509805 -14.75 33.75 C-18.34515379 35.79442724 -20.79501129 36.86011133 -25 36 C-27.8125 34.5625 -27.8125 34.5625 -30 32 C-31.37584353 27.71248761 -31.65719822 24.31439644 -29.625 20.25 C-26.06481541 17.19841321 -22.17762137 15.09773723 -18 13 C-21.01887244 9.51668565 -23.56909529 8.20842856 -28 7 C-24.53175936 4.68783957 -21.17727359 3.88882407 -17.1875 2.9375 C-16.48818359 2.76412109 -15.78886719 2.59074219 -15.06835938 2.41210938 C-10.07957289 1.19408012 -5.15949196 0 0 0 Z " fill="#8C5E3B" transform="translate(214,90)"/>
<path d="M0 0 C3.52513249 1.26889753 6.99186554 2.61688128 10.43945312 4.08203125 C14.61868767 5.70098101 16.24706412 6.26995109 20.6171875 4.703125 C21.73351562 4.14109375 22.84984375 3.5790625 24 3 C33.65414586 1.88982765 41.92060815 2.65046781 49.6875 8.625 C55.45146462 13.91413 58.36877651 20.42246786 59.23828125 28.10546875 C59.51556484 35.88400327 57.09986761 42.62453418 52.375 48.8125 C47.11441346 54.41760858 39.86019935 57.62244881 32.21875 58.06640625 C23.99609706 57.82030572 17.20347915 55.07033728 11.2734375 49.328125 C8.83171854 46.60975808 7.16050935 44.40837789 5.80859375 40.96875 C3.42020539 37.0482853 0.55941645 36.23923106 -3.625 34.9375 C-6.2613537 34.11180186 -8.4891868 33.21945224 -11 32 C-12.59090718 27.75742503 -11.58114188 24.97028723 -9.98046875 20.859375 C-9.53509766 19.70695312 -9.08972656 18.55453125 -8.63085938 17.3671875 C-8.15455078 16.17351562 -7.67824219 14.97984375 -7.1875 13.75 C-6.72279297 12.54085937 -6.25808594 11.33171875 -5.77929688 10.0859375 C-2.27541041 1.1377052 -2.27541041 1.1377052 0 0 Z " fill="#FDFCFC" transform="translate(383,238)"/>
<path d="M0 0 C9.22596378 1.45470869 18.85400675 3.940719 25.5234375 10.92578125 C37.77814796 29.16617399 31.93644196 61.72273031 28.07788086 81.78173828 C27.92843018 82.49313965 27.77897949 83.20454102 27.625 83.9375 C28.59308594 83.77765625 29.56117188 83.6178125 30.55859375 83.453125 C34.93743124 82.83182579 39.26980975 82.71697583 43.6875 82.6875 C44.46416016 82.666875 45.24082031 82.64625 46.04101562 82.625 C50.99908103 82.59141446 54.31123027 83.23236586 58.625 85.9375 C60.625 87.9375 60.625 87.9375 61 91.0625 C60.41951698 97.06082453 58.85826029 100.85338539 54.40234375 105.01171875 C41.21032093 115.2117364 26.79621146 119.32283965 10.375 119.1875 C8.94414062 119.19910156 8.94414062 119.19910156 7.484375 119.2109375 C2.46709324 119.19700061 -1.67699461 118.92390496 -6.375 116.9375 C-5.375 114.9375 -5.375 114.9375 -3.1875 114.078125 C-2.259375 113.78421875 -1.33125 113.4903125 -0.375 113.1875 C9.59911465 109.66874619 16.64339586 104.49474081 21.62109375 95.046875 C26.12980756 85.12339006 25.71384455 73.82322323 22.625 63.546875 C21.59974104 60.8715899 20.33713251 58.49707164 18.9375 56 C16.00256976 50.39776234 15.51511575 45.15110397 16.625 38.9375 C18.46740022 34.90943869 20.92377856 32.40498096 24.625 29.9375 C25.37560849 27.02367271 25.37560849 27.02367271 24.625 23.9375 C13.57380094 13.75876402 -6.0497518 14.6161458 -20.125 14.3125 C-21.61199914 14.27420539 -23.09897883 14.23514758 -24.5859375 14.1953125 C-28.18211089 14.10060095 -31.77843476 14.01613091 -35.375 13.9375 C-36.035 12.6175 -36.695 11.2975 -37.375 9.9375 C-36.63894531 9.47859375 -35.90289062 9.0196875 -35.14453125 8.546875 C-34.16871094 7.93328125 -33.19289063 7.3196875 -32.1875 6.6875 C-31.22457031 6.08421875 -30.26164062 5.4809375 -29.26953125 4.859375 C-26.34481577 3.00664379 -26.34481577 3.00664379 -23.83203125 0.73046875 C-17.58643271 -3.82713019 -7.30159841 -1.00386082 0 0 Z " fill="#FB9522" transform="translate(399.375,330.0625)"/>
<path d="M0 0 C0.99 0.66 1.98 1.32 3 2 C3.72072461 6.59461938 3.14895081 9.2349892 0.5 12.9375 C-0.325 13.948125 -1.15 14.95875 -2 16 C-2.5775 15.2575 -3.155 14.515 -3.75 13.75 C-5.8751046 11.00511268 -5.8751046 11.00511268 -8.25 9 C-10 7 -10 7 -10.4375 4.4375 C-10 2 -10 2 -8.9375 0.125 C-5.82585397 -1.68176221 -3.39346372 -0.78776836 0 0 Z M-22.75 13.4375 C-18.31446898 14.34476771 -15.92205491 17.69900426 -13 21 C-11.906875 20.34 -10.81375 19.68 -9.6875 19 C-7.06292462 17.41535071 -6.1743622 17 -3 17 C-4.49746706 20.88997191 -6.70422078 22.46948052 -10.125 24.75 C-11.03507812 25.36359375 -11.94515625 25.9771875 -12.8828125 26.609375 C-13.58148438 27.06828125 -14.28015625 27.5271875 -15 28 C-14.67 28.66 -14.34 29.32 -14 30 C-12.67947632 30.02187378 -12.67947632 30.02187378 -11.33227539 30.04418945 C20.97627512 30.64190925 20.97627512 30.64190925 35 34 C35 34.99 35 35.98 35 37 C35.55429687 37.19335938 36.10859375 37.38671875 36.6796875 37.5859375 C37.76636719 37.97652344 37.76636719 37.97652344 38.875 38.375 C39.95394531 38.75785156 39.95394531 38.75785156 41.0546875 39.1484375 C43 40 43 40 45 42 C44.625 44.625 44.625 44.625 44 47 C42.6875 47.29166667 41.375 47.58333333 40.0625 47.875 C39.2478125 48.05804688 38.433125 48.24109375 37.59375 48.4296875 C35.88875497 48.80458098 34.18036998 49.16443195 32.46875 49.5078125 C31.6746875 49.67023438 30.880625 49.83265625 30.0625 50 C29.33160156 50.144375 28.60070312 50.28875 27.84765625 50.4375 C25.77664681 50.90967718 25.77664681 50.90967718 24 53 C23.95886879 55.56776278 24.00945063 58.06442607 24.125 60.625 C24.30034793 67.17132266 23.72185389 71.41721917 20 77 C17.1875 77.3125 17.1875 77.3125 14 77 C10.65270803 72.86510991 10.09493491 68.28829152 9.3125 63.1875 C9.18294922 62.39923828 9.05339844 61.61097656 8.91992188 60.79882812 C8.60387031 58.86740187 8.30063711 56.93388555 8 55 C6.35 55 4.7 55 3 55 C3.05220703 56.03060547 3.05220703 56.03060547 3.10546875 57.08203125 C3.13253906 57.98308594 3.15960938 58.88414062 3.1875 59.8125 C3.23970703 61.15248047 3.23970703 61.15248047 3.29296875 62.51953125 C3 65 3 65 1.67578125 66.80078125 C-0.91874907 68.65747311 -2.90595582 68.38675552 -6 68 C-8.51046641 65.96142577 -9.73399643 63.79017787 -11.0625 60.875 C-12.34308323 57.79891979 -12.34308323 57.79891979 -15 56 C-19.050918 55.54434412 -19.050918 55.54434412 -22.5859375 57.19140625 C-24.34091812 59.43603616 -24.93971804 61.44563281 -25.6875 64.1875 C-25.93886719 65.08855469 -26.19023437 65.98960937 -26.44921875 66.91796875 C-26.63097656 67.60503906 -26.81273437 68.29210937 -27 69 C-28.32 69 -29.64 69 -31 69 C-33.86153297 64.70770055 -34.10880421 60.19470521 -34.92578125 55.15234375 C-35.67356588 51.79843007 -35.67356588 51.79843007 -38.60546875 50.56640625 C-39.79076172 50.28603516 -39.79076172 50.28603516 -41 50 C-41.25390625 47.67578125 -41.25390625 47.67578125 -41 45 C-39.27734375 43.48046875 -39.27734375 43.48046875 -36.9375 42.1875 C-31.65033946 38.95506536 -26.45581716 34.83294856 -24.19140625 28.87109375 C-24.09666016 27.94490234 -24.09666016 27.94490234 -24 27 C-24.639375 26.401875 -25.27875 25.80375 -25.9375 25.1875 C-28 23 -28 23 -28.4375 19.375 C-28.293125 18.26125 -28.14875 17.1475 -28 16 C-25 14 -25 14 -22.75 13.4375 Z " fill="#683C03" transform="translate(378,313)"/>
<path d="M0 0 C4.20286362 13.66844342 5.29426543 27.88395205 5.4375 42.125 C5.4595752 43.2377832 5.48165039 44.35056641 5.50439453 45.49707031 C5.48606027 52.69919894 4.77797962 59.7031392 1 66 C-2.16180666 68.35585594 -3.44052163 69.01017233 -7.4375 68.9375 C-17.41787485 66.31108557 -25.2596216 57.28012325 -31.25 49.25 C-31.79430664 48.52772217 -32.33861328 47.80544434 -32.89941406 47.0612793 C-37.06195317 41.45024856 -40.97234669 35.68859506 -44.75 29.8125 C-45.26336914 29.02327148 -45.77673828 28.23404297 -46.30566406 27.42089844 C-48.90356583 23.28165782 -50.64947907 19.99492321 -51 15 C-43.58178731 11.41520414 -35.9108359 8.90649904 -28.0625 6.4375 C-26.85142578 6.05142578 -25.64035156 5.66535156 -24.39257812 5.26757812 C-22.02687773 4.51572857 -19.65925126 3.76990701 -17.28955078 3.03076172 C-15.19970033 2.37591916 -13.11409999 1.7072285 -11.03466797 1.02001953 C-10.15568848 0.73626465 -9.27670898 0.45250977 -8.37109375 0.16015625 C-7.61626709 -0.08984131 -6.86144043 -0.33983887 -6.08374023 -0.59741211 C-3.72824137 -1.05250498 -2.25700286 -0.74829234 0 0 Z " fill="#522901" transform="translate(285,161)"/>
<path d="M0 0 C9.16156676 8.7451319 13.09129509 21.69481483 15.875 33.6875 C16.26292725 35.32609985 16.26292725 35.32609985 16.65869141 36.99780273 C18.61714841 45.50387142 19.99831625 53.92879658 20.75 62.625 C19.38875 61.4184375 19.38875 61.4184375 18 60.1875 C3.97338765 48.28443853 -10.85223863 39.64613828 -28.25 33.625 C-23.44857301 28.31971956 -17.06497444 27.59856778 -10.25 26.625 C-9.92 25.965 -9.59 25.305 -9.25 24.625 C-15.43785823 25.33734794 -20.77591645 26.1029941 -26.1875 29.3125 C-34.54635745 33.88165038 -44.47435612 30.8560959 -53.25 28.625 C-42.35294268 15.14706068 -19.18708638 -8.11761347 0 0 Z " fill="#FC9622" transform="translate(302.25,57.375)"/>
<path d="M0 0 C0.69719147 0.00060425 1.39438293 0.0012085 2.11270142 0.00183105 C37.02479032 0.08429066 37.02479032 0.08429066 48.125 9.1875 C47.795 10.8375 47.465 12.4875 47.125 14.1875 C45.8125 14.47916667 44.5 14.77083333 43.1875 15.0625 C42.3728125 15.24554688 41.558125 15.42859375 40.71875 15.6171875 C39.01375497 15.99208098 37.30536998 16.35193195 35.59375 16.6953125 C34.7996875 16.85773438 34.005625 17.02015625 33.1875 17.1875 C32.45660156 17.331875 31.72570312 17.47625 30.97265625 17.625 C28.90164681 18.09717718 28.90164681 18.09717718 27.125 20.1875 C27.08386879 22.75526278 27.13445063 25.25192607 27.25 27.8125 C27.42534793 34.35882266 26.84685389 38.60471917 23.125 44.1875 C20.3125 44.5 20.3125 44.5 17.125 44.1875 C13.77770803 40.05260991 13.21993491 35.47579152 12.4375 30.375 C12.30794922 29.58673828 12.17839844 28.79847656 12.04492188 27.98632812 C11.72887031 26.05490187 11.42563711 24.12138555 11.125 22.1875 C9.475 22.1875 7.825 22.1875 6.125 22.1875 C6.15980469 22.87457031 6.19460938 23.56164062 6.23046875 24.26953125 C6.25753906 25.17058594 6.28460938 26.07164062 6.3125 27 C6.36470703 28.33998047 6.36470703 28.33998047 6.41796875 29.70703125 C6.125 32.1875 6.125 32.1875 4.80078125 33.98828125 C2.20625093 35.84497311 0.21904418 35.57425552 -2.875 35.1875 C-5.38546641 33.14892577 -6.60899643 30.97767787 -7.9375 28.0625 C-9.21808323 24.98641979 -9.21808323 24.98641979 -11.875 23.1875 C-15.925918 22.73184412 -15.925918 22.73184412 -19.4609375 24.37890625 C-21.21591812 26.62353616 -21.81471804 28.63313281 -22.5625 31.375 C-22.81386719 32.27605469 -23.06523437 33.17710937 -23.32421875 34.10546875 C-23.50597656 34.79253906 -23.68773437 35.47960937 -23.875 36.1875 C-25.195 36.1875 -26.515 36.1875 -27.875 36.1875 C-30.70794177 31.93808734 -31.02862059 27.51826399 -31.8984375 22.53515625 C-32.9425772 18.95584535 -34.03221752 17.52138932 -36.875 15.1875 C-31.72115984 14.19738567 -28.07430538 14.39734547 -23 15.625 C-3.88345621 19.54992641 18.56723856 19.11170846 37.125 13.1875 C38.78661875 12.82985211 40.45179486 12.48628663 42.125 12.1875 C41.24766572 9.85753685 41.24766572 9.85753685 38.24609375 9.15234375 C37.03050781 8.81332031 35.81492187 8.47429687 34.5625 8.125 C33.36496094 7.78339844 32.16742188 7.44179688 30.93359375 7.08984375 C24.17377835 5.48828748 17.62743724 5.03536609 10.71484375 5.0546875 C9.94370743 5.05373077 9.17257111 5.05277405 8.37806702 5.05178833 C6.760426 5.05111271 5.14278217 5.05292347 3.52514648 5.05712891 C1.06552995 5.06249339 -1.39390462 5.05715902 -3.85351562 5.05078125 C-5.43489623 5.051442 -7.01627673 5.05272309 -8.59765625 5.0546875 C-9.32388687 5.05266327 -10.05011749 5.05063904 -10.7983551 5.04855347 C-15.26766706 5.06884156 -19.47917941 5.46283906 -23.875 6.1875 C-22.75 3.75 -22.75 3.75 -20.875 1.1875 C-14.07021453 -0.45475777 -6.95760877 -0.01099004 0 0 Z " fill="#F9D800" transform="translate(374.875,345.8125)"/>
<path d="M0 0 C2.11192617 1.62565874 2.88755544 2.45905051 3.43359375 5.0859375 C3.43552734 6.21902344 3.43552734 6.21902344 3.4375 7.375 C3.45683594 8.12523437 3.47617187 8.87546875 3.49609375 9.6484375 C2.55701863 14.09980146 -0.17422843 16.44495464 -3.84765625 18.9140625 C-15.69753213 25.2205578 -26.47890629 28.54786931 -40 27 C-47.22681212 23.8568027 -47.22681212 23.8568027 -49 21 C-49.63393353 16.16625682 -49.64447482 14.0741247 -47.125 9.875 C-35.85171506 -1.61688049 -14.83220467 -7.23740107 0 0 Z " fill="#F9FDBB" transform="translate(369,168)"/>
<path d="M0 0 C2.125 1.875 2.125 1.875 3 4 C3.19405663 8.26924578 1.67728848 10.804651 -0.875 14.0625 C-5.19900291 18.70548673 -10.14292546 20.80047272 -16 23 C-16.73089844 23.3196875 -17.46179688 23.639375 -18.21484375 23.96875 C-25.44715722 26.87783698 -34.07341651 27.46000574 -41.5703125 25.23828125 C-45.13827691 23.57279233 -48.40478399 21.7221707 -50 18 C-50.17511949 13.35933362 -49.13976057 10.71415509 -46.0625 7.375 C-34.35233294 -3.28364186 -14.05991607 -9.10128495 0 0 Z " fill="#FAFCB9" transform="translate(187,241)"/>
<path d="M0 0 C0.76828125 0.23589844 1.5365625 0.47179687 2.328125 0.71484375 C5.06288543 1.82882833 6.28722055 2.5667657 8 5 C9.39709833 13.71825644 9.04014315 23.98621811 5 32 C3.5859375 33.7421875 3.5859375 33.7421875 2 35 C-2.12727794 35.33692065 -4.0146134 34.72153101 -7.36328125 32.26953125 C-17.04161315 23.76524272 -25.51476328 14.16803708 -32 3 C-32 2.34 -32 1.68 -32 1 C-21.50688541 -4.30577352 -10.77743057 -4.84174043 0 0 Z " fill="#FB0072" transform="translate(279,191)"/>
<path d="M0 0 C1.22493164 -0.01836914 1.22493164 -0.01836914 2.47460938 -0.03710938 C7.88181365 -0.05003496 12.49377644 0.67540327 17.6875 2.1875 C16.4809375 3.734375 16.4809375 3.734375 15.25 5.3125 C7.73719211 15.35910867 1.43722747 26.05780245 -4.3125 37.1875 C-10.66498185 34.46302201 -14.08203204 28.885301 -16.875 22.76171875 C-19.27539398 16.41294944 -20.99189642 10.98146416 -20.3125 4.1875 C-13.37996338 0.47939902 -7.70969616 0.00599976 0 0 Z " fill="#F7FBB9" transform="translate(93.3125,137.8125)"/>
<path d="M0 0 C3.52513249 1.26889753 6.99186554 2.61688128 10.43945312 4.08203125 C14.61868767 5.70098101 16.24706412 6.26995109 20.6171875 4.703125 C21.73351562 4.14109375 22.84984375 3.5790625 24 3 C33.65414586 1.88982765 41.92060815 2.65046781 49.6875 8.625 C55.45146462 13.91413 58.36877651 20.42246786 59.23828125 28.10546875 C59.51556484 35.88400327 57.09986761 42.62453418 52.375 48.8125 C47.11441346 54.41760858 39.86019935 57.62244881 32.21875 58.06640625 C23.99609706 57.82030572 17.20347915 55.07033728 11.2734375 49.328125 C8.83171854 46.60975808 7.16050935 44.40837789 5.80859375 40.96875 C3.42020539 37.0482853 0.55941645 36.23923106 -3.625 34.9375 C-6.2613537 34.11180186 -8.4891868 33.21945224 -11 32 C-12.59090718 27.75742503 -11.58114188 24.97028723 -9.98046875 20.859375 C-9.53509766 19.70695312 -9.08972656 18.55453125 -8.63085938 17.3671875 C-8.15455078 16.17351562 -7.67824219 14.97984375 -7.1875 13.75 C-6.72279297 12.54085937 -6.25808594 11.33171875 -5.77929688 10.0859375 C-2.27541041 1.1377052 -2.27541041 1.1377052 0 0 Z M0 5 C-1.37218673 8.40970319 -2.71953606 11.82869286 -4.0625 15.25 C-4.45244141 16.21808594 -4.84238281 17.18617188 -5.24414062 18.18359375 C-5.60830078 19.11816406 -5.97246094 20.05273438 -6.34765625 21.015625 C-6.68804932 21.87446289 -7.02844238 22.73330078 -7.37915039 23.61816406 C-8.06363355 26.24412462 -8.08803501 27.52392281 -7 30 C-4.07630271 31.59388074 -4.07630271 31.59388074 -0.5625 32.75 C0.61183594 33.17796875 1.78617187 33.6059375 2.99609375 34.046875 C5.7924746 35.10081205 5.7924746 35.10081205 8 35 C8.11214844 35.556875 8.22429687 36.11375 8.33984375 36.6875 C10.18626401 43.83181891 13.98823321 47.83570307 20 52 C26.28504116 55.13228436 33.99527838 55.32897428 40.63671875 53.125 C46.72599506 49.98214771 51.5570306 45.58510955 54.13671875 39.17578125 C55.92881289 32.58314534 56.28408256 24.90317102 53.4375 18.5625 C49.68012388 12.29138634 43.95058177 8.12051647 37 6 C30.95598855 5.28660848 26.41259642 6.04021474 20.86328125 8.38671875 C15.74917992 10.06997642 10.59146422 7.62039923 5.89453125 5.62109375 C3.69879759 4.79231889 3.69879759 4.79231889 0 5 Z " fill="#542F09" transform="translate(383,238)"/>
<path d="M0 0 C4.55555556 0.55555556 4.55555556 0.55555556 6 2 C7.20720454 10.9031335 3.62840629 17.65991293 -1 25 C-7.07698301 32.4430275 -16.53679069 36.92639614 -26 38 C-29.60529708 38.16046443 -33.20400808 38.18507331 -36.8125 38.1875 C-37.75931641 38.19974609 -38.70613281 38.21199219 -39.68164062 38.22460938 C-45.65102876 38.23693433 -51.27753218 37.80784223 -57 36 C-58 35 -58 35 -58.1875 32.5625 C-58 30 -58 30 -56 28 C-53.234375 28.0234375 -53.234375 28.0234375 -49.75 28.375 C-35.61014175 29.56297989 -22.97996653 30.38197693 -10.9765625 21.79296875 C-5.66566393 16.97537499 -3.56826857 10.77151958 -2.45703125 3.84765625 C-2 2 -2 2 0 0 Z " fill="#532B01" transform="translate(201,184)"/>
<path d="M0 0 C3.94875513 2.45865885 5.66872408 3.98776803 7.125 8.4375 C6.86585206 15.82321617 0.88340877 20.40063162 -3.87109375 25.5859375 C-6.23492415 28.26639105 -8.15356981 30.94937621 -10 34 C-16.46751612 30.75127084 -21.742695 26.97080336 -27 22 C-25.95005859 20.98292969 -25.95005859 20.98292969 -24.87890625 19.9453125 C-21.11887744 16.18660812 -17.77228757 12.07857758 -14.37304688 7.99609375 C-6.7165593 -1.07464949 -6.7165593 -1.07464949 0 0 Z " fill="#8D5F3B" transform="translate(136,272)"/>
<path d="M0 0 C2.69990662 1.79993774 4.5418865 3.083773 6 6 C6.37117785 9.93448526 6.54428664 12.18976581 4.30566406 15.5222168 C1.93809427 18.06652703 -0.20050848 19.60378104 -3.203125 21.33203125 C-4.1828125 21.90244141 -5.1625 22.47285156 -6.171875 23.06054688 C-7.18765625 23.63869141 -8.2034375 24.21683594 -9.25 24.8125 C-10.796875 25.7087207 -10.796875 25.7087207 -12.375 26.62304688 C-14.91166337 28.09102336 -17.45326858 29.54958369 -20 31 C-22.49829578 27.78117497 -24.16331869 24.70353475 -25.75 20.9375 C-26.19859375 19.89464844 -26.6471875 18.85179687 -27.109375 17.77734375 C-28 15 -28 15 -27 12 C-23.80188998 9.63000428 -20.27341003 7.77268187 -16.8125 5.8125 C-15.39227539 4.97428711 -15.39227539 4.97428711 -13.94335938 4.11914062 C-12.55793945 3.32733398 -12.55793945 3.32733398 -11.14453125 2.51953125 C-10.30253174 2.03589111 -9.46053223 1.55225098 -8.59301758 1.05395508 C-5.50982087 -0.19923767 -3.30090724 -0.31763926 0 0 Z " fill="#8C5E3B" transform="translate(114,242)"/>
<path d="M0 0 C0.99 0.99 0.99 0.99 2 2 C-12.7193971 11.8129314 -40.67058856 8.22490018 -57.10180664 5.24365234 C-60.14893857 4.61423834 -61.7565423 4.2434577 -64 2 C-52.07815945 -9.92184055 -14.63187691 -4.35758083 0 0 Z " fill="#F6A900" transform="translate(409,355)"/>
<path d="M0 0 C2.625 1 2.625 1 4.625 4 C4.5625 6.4375 4.5625 6.4375 3.625 9 C0.15276788 12.06371127 -3.60587126 14.48092628 -7.55078125 16.890625 C-8.12080368 17.24010193 -8.69082611 17.58957886 -9.27812195 17.949646 C-11.07931938 19.05295418 -12.88334062 20.15154348 -14.6875 21.25 C-15.91750827 22.00229269 -17.14732787 22.75489394 -18.37695312 23.5078125 C-21.37413014 25.34211258 -24.37385635 27.17219523 -27.375 29 C-29.6094598 24.96707255 -29.91996743 21.55032566 -30.375 17 C-27.37520446 15.10384301 -24.37512551 13.20813486 -21.375 11.3125 C-20.53582031 10.78205078 -19.69664062 10.25160156 -18.83203125 9.70507812 C-17.15721037 8.64695486 -15.48094611 7.59111265 -13.80322266 6.53759766 C-12.22099409 5.53569986 -10.64719348 4.52032696 -9.08349609 3.48974609 C-8.38305176 3.03293457 -7.68260742 2.57612305 -6.9609375 2.10546875 C-6.04127197 1.49481567 -6.04127197 1.49481567 -5.10302734 0.87182617 C-3.375 0 -3.375 0 0 0 Z " fill="#8E5F3B" transform="translate(233.375,371)"/>
<path d="M0 0 C1.65 0.33 3.3 0.66 5 1 C4.84402344 1.84304688 4.68804687 2.68609375 4.52734375 3.5546875 C4.33269531 4.65039062 4.13804687 5.74609375 3.9375 6.875 C3.74027344 7.96554687 3.54304688 9.05609375 3.33984375 10.1796875 C2.74368101 12.94653283 2.74368101 12.94653283 4 15 C5.98 15 7.96 15 10 15 C10.99 12.36 11.98 9.72 13 7 C13.66 7 14.32 7 15 7 C16.32 13.27 17.64 19.54 19 26 C8.36979121 25.55241226 -4.2765521 24.86172395 -14 20 C-13.49547781 16.25212088 -12.91840767 12.67363066 -12 9 C-9.03 9.33 -6.06 9.66 -3 10 C-2.01 6.7 -1.02 3.4 0 0 Z " fill="#F89422" transform="translate(194,415)"/>
<path d="M0 0 C1.875 1.125 1.875 1.125 3 3 C2.80375496 6.40005942 2.65223152 8.34492651 0.20703125 10.80078125 C-0.58316406 11.29964844 -1.37335938 11.79851562 -2.1875 12.3125 C-3.07824219 12.88742187 -3.96898437 13.46234375 -4.88671875 14.0546875 C-5.91410156 14.69664062 -6.94148438 15.33859375 -8 16 C-9.2376078 16.81216969 -10.4731992 17.62741817 -11.70703125 18.4453125 C-12.97076285 19.27694092 -14.23508142 20.10767811 -15.5 20.9375 C-16.11125732 21.3394458 -16.72251465 21.7413916 -17.35229492 22.15551758 C-21.76789734 25 -21.76789734 25 -24 25 C-24.33 25.66 -24.66 26.32 -25 27 C-25.96622879 21.24179872 -26.46760731 16.49603447 -24 11 C-22.34499147 10.30489642 -20.67522914 9.64484848 -19 9 C-15.97608028 7.16105687 -13.07537858 5.1240885 -10.171875 3.1015625 C-6.66684064 0.75471341 -4.25756237 -0.67144353 0 0 Z " fill="#8D5F3A" transform="translate(224,350)"/>
<path d="M0 0 C0.99 0.33 1.98 0.66 3 1 C3.22262303 7.7281627 2.95021536 13.53991163 1 20 C-10.66631081 18.8555742 -10.66631081 18.8555742 -15.3125 15.875 C-17.53957642 12.08072166 -18.01984456 9.28680426 -17 5 C-13.13817752 -1.6202671 -6.84192363 -0.6822431 0 0 Z " fill="#8C5E3B" transform="translate(370,215)"/>
<path d="M0 0 C0.99 0.66 1.98 1.32 3 2 C3.72072461 6.59461938 3.14895081 9.2349892 0.5 12.9375 C-0.325 13.948125 -1.15 14.95875 -2 16 C-2.5775 15.2575 -3.155 14.515 -3.75 13.75 C-5.8751046 11.00511268 -5.8751046 11.00511268 -8.25 9 C-10 7 -10 7 -10.4375 4.4375 C-10 2 -10 2 -8.9375 0.125 C-5.82585397 -1.68176221 -3.39346372 -0.78776836 0 0 Z M-5 16 C-4.34 16.33 -3.68 16.66 -3 17 C-4.49746706 20.88997191 -6.70422078 22.46948052 -10.125 24.75 C-11.49011719 25.67039062 -11.49011719 25.67039062 -12.8828125 26.609375 C-13.93082031 27.29773438 -13.93082031 27.29773438 -15 28 C-14.67 28.66 -14.34 29.32 -14 30 C-12.67947632 30.02187378 -12.67947632 30.02187378 -11.33227539 30.04418945 C20.97627512 30.64190925 20.97627512 30.64190925 35 34 C34.505 35.485 34.505 35.485 34 37 C32.86691406 36.79503906 31.73382813 36.59007812 30.56640625 36.37890625 C13.76909183 33.56632459 -3.0112872 33.27845305 -20 33 C-19.01 32.67 -18.02 32.34 -17 32 C-17.33 31.34 -17.66 30.68 -18 30 C-18.99 30 -19.98 30 -21 30 C-20.40082381 26.35261095 -20.09669185 26.07191456 -16.875 23.67578125 C-15.59084351 22.87583666 -14.29879422 22.08845285 -13 21.3125 C-11.70788931 20.51764844 -10.41620052 19.72211049 -9.125 18.92578125 C-8.09375 18.29027344 -7.0625 17.65476562 -6 17 C-5.67 16.67 -5.34 16.34 -5 16 Z " fill="#562E01" transform="translate(378,313)"/>
<path d="M0 0 C0.69719147 0.00060425 1.39438293 0.0012085 2.11270142 0.00183105 C37.02479032 0.08429066 37.02479032 0.08429066 48.125 9.1875 C47.795 10.8375 47.465 12.4875 47.125 14.1875 C41.8072785 15.42950752 36.54298672 16.49584212 31.125 17.1875 C30.63 16.1975 30.63 16.1975 30.125 15.1875 C34.085 14.1975 38.045 13.2075 42.125 12.1875 C41.24766572 9.85753685 41.24766572 9.85753685 38.24609375 9.15234375 C37.03050781 8.81332031 35.81492187 8.47429687 34.5625 8.125 C33.36496094 7.78339844 32.16742188 7.44179688 30.93359375 7.08984375 C24.17377835 5.48828748 17.62743724 5.03536609 10.71484375 5.0546875 C9.94370743 5.05373077 9.17257111 5.05277405 8.37806702 5.05178833 C6.760426 5.05111271 5.14278217 5.05292347 3.52514648 5.05712891 C1.06552995 5.06249339 -1.39390462 5.05715902 -3.85351562 5.05078125 C-5.43489623 5.051442 -7.01627673 5.05272309 -8.59765625 5.0546875 C-9.32388687 5.05266327 -10.05011749 5.05063904 -10.7983551 5.04855347 C-15.26766706 5.06884156 -19.47917941 5.46283906 -23.875 6.1875 C-22.75 3.75 -22.75 3.75 -20.875 1.1875 C-14.07021453 -0.45475777 -6.95760877 -0.01099004 0 0 Z " fill="#EDCC00" transform="translate(374.875,345.8125)"/>
<path d="M0 0 C2.37447565 0.71234269 4.74857422 1.42568821 7.12109375 2.14453125 C9.0032257 2.70380791 10.89124053 3.24374741 12.78515625 3.76171875 C13.66042969 4.00535156 14.53570312 4.24898438 15.4375 4.5 C16.64212891 4.82484375 16.64212891 4.82484375 17.87109375 5.15625 C20.24715304 6.09795423 21.44176044 6.98316462 23 9 C23.3125 12.0625 23.3125 12.0625 23 15 C21 17 21 17 17.8984375 17.2734375 C13.50274549 16.96512243 9.78902316 15.99000207 5.625 14.625 C4.90183594 14.40328125 4.17867187 14.1815625 3.43359375 13.953125 C1.59994838 13.36828501 -0.20363262 12.69091053 -2 12 C-3.30532548 9.38934904 -2.78282536 8.2445219 -2.125 5.4375 C-1.94195312 4.63183594 -1.75890625 3.82617188 -1.5703125 2.99609375 C-1 1 -1 1 0 0 Z " fill="#8E5F3A" transform="translate(160,338)"/>
<path d="M0 0 C38.09838776 -0.72550641 38.09838776 -0.72550641 53 6 C53 6.66 53 7.32 53 8 C50.45986091 8.8175507 47.91806769 9.62915186 45.375 10.4375 C44.66214844 10.66759766 43.94929688 10.89769531 43.21484375 11.13476562 C42.51230469 11.35712891 41.80976563 11.57949219 41.0859375 11.80859375 C40.4470459 12.01282959 39.8081543 12.21706543 39.14990234 12.42749023 C31.78973504 14.38747119 24.38603437 14.18612187 16.83276367 14.18530273 C14.57256258 14.18749026 12.31284943 14.20568291 10.05273438 14.22460938 C8.59895998 14.22754391 7.1451833 14.2295283 5.69140625 14.23046875 C4.38373291 14.23457764 3.07605957 14.23868652 1.72875977 14.24291992 C-2.20492784 13.98664943 -5.27298278 13.21662234 -9 12 C-9 11.67 -9 11.34 -9 11 C-8.03400879 11.01571045 -7.06801758 11.0314209 -6.07275391 11.04760742 C20.58553603 12.82512662 20.58553603 12.82512662 46 7 C35.62304186 2.46742636 23.82672968 2.64545171 12.6875 2.375 C11.349588 2.33667651 10.01169687 2.2976174 8.67382812 2.2578125 C5.44934726 2.1646867 2.2248557 2.07886614 -1 2 C-0.67 1.34 -0.34 0.68 0 0 Z " fill="#5B3300" transform="translate(364,350)"/>
<path d="M0 0 C1.41114691 2.31462511 2.60212019 4.50133448 3.75 6.9375 C4.06582031 7.57107422 4.38164062 8.20464844 4.70703125 8.85742188 C6.11293177 11.75138592 7 13.74401791 7 17 C2.34357786 15.560091 -1.99319232 13.67337464 -6.375 11.5625 C-11.51265436 9.12190938 -16.62024969 6.86644399 -22 5 C-17.16370859 -0.34380347 -6.3398123 -4.51102029 0 0 Z " fill="#F3F5B3" transform="translate(296,86)"/>
<path d="M0 0 C2.96157034 0.94852343 5.91860731 1.91047128 8.875 2.875 C10.13763672 3.27912109 10.13763672 3.27912109 11.42578125 3.69140625 C12.23144531 3.95566406 13.03710938 4.21992188 13.8671875 4.4921875 C14.61081543 4.73308105 15.35444336 4.97397461 16.12060547 5.22216797 C18 6 18 6 20 8 C20.36343883 10.83482291 20.49403441 12.3524349 18.73046875 14.6640625 C17 16 17 16 15.125 16.21484375 C8.71882628 15.37874387 2.98314235 13.40444038 -3 11 C-2.69217504 9.35328588 -2.37860766 7.70764424 -2.0625 6.0625 C-1.88847656 5.14597656 -1.71445313 4.22945313 -1.53515625 3.28515625 C-1 1 -1 1 0 0 Z " fill="#8C5E3A" transform="translate(154,361)"/>
<path d="M0 0 C6.96037592 0.5155834 14.89336335 1.89336335 20 7 C19.54545455 12.45454545 19.54545455 12.45454545 17 15 C10.19672627 15.43986684 4.09430194 12.6608924 -2 10 C-1.34 6.7 -0.68 3.4 0 0 Z " fill="#8E5F3A" transform="translate(147,385)"/>
<path d="M0 0 C2.9375 0.8125 2.9375 0.8125 4.9375 2.8125 C5.08307157 5.72975418 5.12348967 8.52564805 5.0625 11.4375 C5.02125 14.20125 4.98 16.965 4.9375 19.8125 C-1.6625 19.8125 -8.2625 19.8125 -15.0625 19.8125 C-15.0625 19.4825 -15.0625 19.1525 -15.0625 18.8125 C-12.0925 18.8125 -9.1225 18.8125 -6.0625 18.8125 C-6.09730469 17.69230469 -6.13210938 16.57210938 -6.16796875 15.41796875 C-6.19610839 13.94532749 -6.22340837 12.47267002 -6.25 11 C-6.28770508 9.89301758 -6.28770508 9.89301758 -6.32617188 8.76367188 C-6.39993705 3.32963726 -6.39993705 3.32963726 -4.7421875 0.7890625 C-3.0625 -0.1875 -3.0625 -0.1875 0 0 Z " fill="#8C5E39" transform="translate(296.0625,436.1875)"/>
<path d="M0 0 C2.375 0.875 2.375 0.875 4.375 2.875 C4.52017744 5.7843558 4.56130796 8.594946 4.5 11.5 C4.49097656 12.30179687 4.48195313 13.10359375 4.47265625 13.9296875 C4.44906223 15.91158523 4.41319065 17.89332981 4.375 19.875 C2.72925434 19.90188151 1.08338587 19.92134123 -0.5625 19.9375 C-1.47902344 19.94910156 -2.39554687 19.96070313 -3.33984375 19.97265625 C-5.625 19.875 -5.625 19.875 -6.625 18.875 C-6.80563984 16.42007499 -6.90301743 14.01995751 -6.9375 11.5625 C-6.96650391 10.88509766 -6.99550781 10.20769531 -7.02539062 9.50976562 C-7.06948912 6.03955323 -6.86805645 4.20095149 -4.76953125 1.38671875 C-2.625 -0.125 -2.625 -0.125 0 0 Z " fill="#8E5F3B" transform="translate(266.625,434.125)"/>
<path d="M0 0 C2.8125 0.8125 2.8125 0.8125 3.8125 1.8125 C3.89881874 3.15517413 3.91956473 4.50224322 3.91015625 5.84765625 C3.90693359 6.65654297 3.90371094 7.46542969 3.90039062 8.29882812 C3.89201172 9.14896484 3.88363281 9.99910156 3.875 10.875 C3.87048828 11.72900391 3.86597656 12.58300781 3.86132812 13.46289062 C3.84950373 15.57945663 3.83156769 17.69598685 3.8125 19.8125 C2.35416667 19.66666667 0.89583333 19.52083333 -0.5625 19.375 C-1.78066406 19.25318359 -1.78066406 19.25318359 -3.0234375 19.12890625 C-5.1875 18.8125 -5.1875 18.8125 -7.1875 17.8125 C-7.29573773 15.56356046 -7.37319645 13.31312425 -7.4375 11.0625 C-7.48390625 9.80953125 -7.5303125 8.5565625 -7.578125 7.265625 C-7.1875 3.8125 -7.1875 3.8125 -5.37109375 1.34765625 C-3.1875 -0.1875 -3.1875 -0.1875 0 0 Z " fill="#8E5F3B" transform="translate(243.1875,431.1875)"/>
<path d="M0 0 C1.64453125 1.0078125 1.64453125 1.0078125 3 3 C3.21714241 5.81127043 3.28284276 8.3883345 3.1875 11.1875 C3.17396484 11.93708984 3.16042969 12.68667969 3.14648438 13.45898438 C3.11118539 15.30629767 3.05737917 17.15324066 3 19 C-0.63 19 -4.26 19 -8 19 C-8.08071788 16.20775927 -8.14035408 13.41783434 -8.1875 10.625 C-8.21263672 9.8309375 -8.23777344 9.036875 -8.26367188 8.21875 C-8.29004405 6.14413852 -8.15486462 4.06899135 -8 2 C-4.76746204 -0.15502531 -3.74849077 -0.46856135 0 0 Z " fill="#8D5F3B" transform="translate(322,437)"/>
<path d="M0 0 C2.1090001 0.56560916 4.21212137 1.1531711 6.3125 1.75 C7.48425781 2.07484375 8.65601563 2.3996875 9.86328125 2.734375 C13.16302317 4.06577772 14.35108423 4.8940423 16 8 C15.875 10.625 15.875 10.625 15 13 C11.57612114 15.2825859 10.10189974 15.0937144 6.140625 14.4921875 C2.86146783 13.7382207 0.03089124 12.45230205 -3 11 C-1.125 3.375 -1.125 3.375 0 0 Z " fill="#8F5F3A" transform="translate(142,407)"/>
<path d="M0 0 C0.99 0.66 1.98 1.32 3 2 C3.51842494 5.36976212 3.73797406 7.82385384 1.875 10.79296875 C0.65205959 12.25563328 -0.66860372 13.63531882 -2 15 C-3.66666667 13.33333333 -5.33333333 11.66666667 -7 10 C-7.598125 9.505 -8.19625 9.01 -8.8125 8.5 C-10 7 -10 7 -10.375 4.5 C-10 2 -10 2 -8.9375 0.125 C-5.82585397 -1.68176221 -3.39346372 -0.78776836 0 0 Z " fill="#8E5F39" transform="translate(378,313)"/>
<path d="M0 0 C4.38133938 0.89618306 7.04197316 4.11308253 9.75 7.5625 C9.75 8.2225 9.75 8.8825 9.75 9.5625 C4.8 12.0375 4.8 12.0375 -0.25 14.5625 C-3.69608799 11.71947741 -5.13812514 10.3875771 -5.75 5.875 C-5.585 4.781875 -5.42 3.68875 -5.25 2.5625 C-2.25 0.5625 -2.25 0.5625 0 0 Z " fill="#8E5F3A" transform="translate(355.25,326.4375)"/>
<path d="M0 0 C2.64 0.33 5.28 0.66 8 1 C9.07010304 3.76443285 9.16283213 5.53851367 8.17578125 8.3359375 C7.16488321 10.58474227 6.11596524 12.80159637 5 15 C2.125 15.1875 2.125 15.1875 -1 15 C-3 12 -3 12 -2.79296875 9.58984375 C-2.59316406 8.71457031 -2.39335937 7.83929688 -2.1875 6.9375 C-1.99542969 6.05964844 -1.80335938 5.18179687 -1.60546875 4.27734375 C-1 2 -1 2 0 0 Z " fill="#8E5F3B" transform="translate(199,416)"/>
<path d="M0 0 C0 0.33 0 0.66 0 1 C5.28 1.33 10.56 1.66 16 2 C16 2.33 16 2.66 16 3 C15.39115967 3.01981934 14.78231934 3.03963867 14.1550293 3.06005859 C-5.96475997 2.73005715 -5.96475997 2.73005715 -24 10 C-25.39201702 12.32002837 -26.15044561 14.40136303 -27 17 C-27.99 17 -28.98 17 -30 17 C-29.54464562 12.10494044 -28.53993401 9.44916647 -25 6 C-17.32622959 0.98253473 -9.00720659 -0.32753479 0 0 Z " fill="#663704" transform="translate(249,395)"/>
<path d="M0 0 C2.64 0.99 5.28 1.98 8 3 C7.69217504 4.64671412 7.37860766 6.29235576 7.0625 7.9375 C6.88847656 8.85402344 6.71445313 9.77054687 6.53515625 10.71484375 C6 13 6 13 5 14 C2.125 14.25 2.125 14.25 -1 14 C-1.99 13.01 -2.98 12.02 -4 11 C-2.68 7.37 -1.36 3.74 0 0 Z " fill="#8B5D3A" transform="translate(186,412)"/>
<path d="M0 0 C3 1 3 1 4.6875 4.3125 C6.69016092 7.94419108 8.7184667 9.67094815 12.49609375 11.35546875 C17.57549308 12.66295844 22.80179461 12.28526737 28 12 C28 12.99 28 13.98 28 15 C21.67066095 17.10977968 15.75102464 16.70602547 9.6875 13.9375 C4.98553269 11.33105513 2.5686713 8.70923072 0 4 C0 2.68 0 1.36 0 0 Z " fill="#623D10" transform="translate(304,349)"/>
<path d="M0 0 C0.33 0.99 0.66 1.98 1 3 C-0.40625 5.2421875 -0.40625 5.2421875 -2.5 7.875 C-6.54798897 13.16852404 -9.45727482 18.45796989 -12.359375 24.4453125 C-14 27 -14 27 -16.203125 27.8671875 C-16.79609375 27.91101563 -17.3890625 27.95484375 -18 28 C-16.60291053 23.28302268 -14.59126127 19.16865085 -12.125 14.9375 C-11.61646484 14.0393457 -11.61646484 14.0393457 -11.09765625 13.12304688 C-8.08570274 7.89507433 -5.03094502 3.41385555 0 0 Z " fill="#5E370B" transform="translate(107,147)"/>
<path d="M0 0 C2 3 2 3 4 9 C-1.61 9 -7.22 9 -13 9 C-13 8.01 -13 7.02 -13 6 C-11.96939453 5.60167969 -11.96939453 5.60167969 -10.91796875 5.1953125 C-10.01691406 4.84210938 -9.11585938 4.48890625 -8.1875 4.125 C-7.29417969 3.77695313 -6.40085937 3.42890625 -5.48046875 3.0703125 C-2.82288409 2.01167845 -2.82288409 2.01167845 0 0 Z " fill="#92643E" transform="translate(364,186)"/>
<path d="M0 0 C18.315 0.495 18.315 0.495 37 1 C36.67 1.66 36.34 2.32 36 3 C31.9981675 3.04978833 27.99645735 3.08590164 23.99438477 3.10986328 C22.63562882 3.11986243 21.27689406 3.13346624 19.91821289 3.15087891 C17.95468704 3.17539594 15.99099799 3.18546962 14.02734375 3.1953125 C12.84906006 3.20578613 11.67077637 3.21625977 10.45678711 3.22705078 C6.64874307 2.97692853 3.61886504 2.16789726 0 1 C0 0.67 0 0.34 0 0 Z " fill="#4E2800" transform="translate(355,361)"/>
<path d="M0 0 C9.9 0 19.8 0 30 0 C30.33 0.99 30.66 1.98 31 3 C20.44 2.67 9.88 2.34 -1 2 C-0.67 1.34 -0.34 0.68 0 0 Z " fill="#512B00" transform="translate(364,350)"/>
<path d="M0 0 C-0.33 0.99 -0.66 1.98 -1 3 C-1.65226562 3.10957031 -2.30453125 3.21914062 -2.9765625 3.33203125 C-8.14928804 4.27044606 -12.34986436 5.4424254 -17 8 C-17.66 8 -18.32 8 -19 8 C-19 6.68 -19 5.36 -19 4 C-12.37384327 0.90133798 -7.32627475 -0.47266289 0 0 Z " fill="#5D3406" transform="translate(293,82)"/>
<path d="M0 0 C7.92 0 15.84 0 24 0 C23.01 0.33 22.02 0.66 21 1 C21 1.66 21 2.32 21 3 C13.74 2.67 6.48 2.34 -1 2 C-0.67 1.34 -0.34 0.68 0 0 Z " fill="#532B01" transform="translate(249,395)"/>
<path d="M0 0 C-4.14929821 4.45665363 -8.392014 6.78632132 -14 9 C-14.99 9.66 -15.98 10.32 -17 11 C-15.59844241 7.66227007 -14.0490314 5.98250943 -11.125 3.875 C-10.44695312 3.37742187 -9.76890625 2.87984375 -9.0703125 2.3671875 C-3.64556962 -1.21518987 -3.64556962 -1.21518987 0 0 Z " fill="#633D10" transform="translate(323,318)"/>
<path d="M0 0 C-2 3 -2 3 -4.42578125 3.73046875 C-5.37839844 3.88128906 -6.33101563 4.03210938 -7.3125 4.1875 C-8.25738281 4.34605469 -9.20226562 4.50460937 -10.17578125 4.66796875 C-12.81727602 4.97851793 -15.34373744 5.06289875 -18 5 C-15.50177426 1.77312509 -14.21272927 1.04117341 -10.125 0.25 C-6.74902475 -0.02184819 -3.38658781 -0.0846647 0 0 Z " fill="#5E3600" transform="translate(364,350)"/>
<path d="M0 0 C-0.33 0.99 -0.66 1.98 -1 3 C-7.93 2.01 -14.86 1.02 -22 0 C-22 -0.33 -22 -0.66 -22 -1 C-14.72006471 -2.77079507 -7.23186927 -1.54314751 0 0 Z " fill="#6B4301" transform="translate(413,347)"/>
<path d="M0 0 C0.33 0.66 0.66 1.32 1 2 C-0.7902061 2.67057887 -2.58221489 3.3363469 -4.375 4 C-5.37273437 4.37125 -6.37046875 4.7425 -7.3984375 5.125 C-10 6 -10 6 -12 6 C-11.7421875 4.11328125 -11.7421875 4.11328125 -11 2 C-9.2578125 0.91796875 -9.2578125 0.91796875 -7.125 0.1875 C-6.42632812 -0.06644531 -5.72765625 -0.32039063 -5.0078125 -0.58203125 C-3 -1 -3 -1 0 0 Z " fill="#5A370C" transform="translate(293,300)"/>
<path d="M0 0 C0.99 0 1.98 0 3 0 C2.77192509 1.79458945 2.51677697 3.58575449 2.25 5.375 C2.11078125 6.37273437 1.9715625 7.37046875 1.828125 8.3984375 C1 11 1 11 -1.078125 12.3515625 C-1.71234375 12.56554687 -2.3465625 12.77953125 -3 13 C-2.68991116 11.39536551 -2.37683713 9.79130769 -2.0625 8.1875 C-1.88847656 7.29417969 -1.71445313 6.40085937 -1.53515625 5.48046875 C-1 3 -1 3 0 0 Z " fill="#5E3204" transform="translate(199,355)"/>
<path d="M0 0 C5.40301401 0.43224112 8.80684463 1.50570386 13 5 C13.875 7.25 13.875 7.25 14 9 C13.01 9.495 13.01 9.495 12 10 C11.76410156 9.38382812 11.52820313 8.76765625 11.28515625 8.1328125 C9.6642712 5.44283306 8.33693111 4.98264784 5.4375 3.875 C1.09722222 2.19444444 1.09722222 2.19444444 0 0 Z " fill="#5E3501" transform="translate(411,348)"/>
<path d="M0 0 C0.66 0.33 1.32 0.66 2 1 C0.59070303 4.47132095 -0.90605083 5.88093274 -4.125 7.75 C-4.84945313 8.17796875 -5.57390625 8.6059375 -6.3203125 9.046875 C-6.87460937 9.36140625 -7.42890625 9.6759375 -8 10 C-8.33 9.34 -8.66 8.68 -9 8 C-6.14723863 5.06799526 -3.34920216 2.35684596 0 0 Z " fill="#5D3203" transform="translate(373,329)"/>
<path d="M0 0 C0.33 0 0.66 0 1 0 C1.33 4.29 1.66 8.58 2 13 C1.01 13.33 0.02 13.66 -1 14 C-1.02685938 11.85423363 -1.04633088 9.70837355 -1.0625 7.5625 C-1.07410156 6.36753906 -1.08570313 5.17257812 -1.09765625 3.94140625 C-1 1 -1 1 0 0 Z " fill="#542D03" transform="translate(304,336)"/>
<path d="M0 0 C0.33 0.66 0.66 1.32 1 2 C1.66 2 2.32 2 3 2 C2.34 5.3 1.68 8.6 1 12 C0.01 11.34 -0.98 10.68 -2 10 C-1.34 6.7 -0.68 3.4 0 0 Z " fill="#673806" transform="translate(181,416)"/>
<path d="M0 0 C0 0.99 0 1.98 0 3 C-3.3 3.33 -6.6 3.66 -10 4 C-10.33 3.01 -10.66 2.02 -11 1 C-7.27569643 0.30710631 -3.78916254 -0.11144596 0 0 Z " fill="#6B4200" transform="translate(401,360)"/>
<path d="M0 0 C0.6875 1.75 0.6875 1.75 1 4 C-0.7573799 7.07541482 -1.57945994 7.85981998 -5 9 C-3.90931332 5.22454612 -3.0916909 2.52956528 0 0 Z " fill="#5D3103" transform="translate(91,173)"/>
<path d="M0 0 C1.45823212 -0.0270043 2.91660675 -0.04639787 4.375 -0.0625 C5.18710937 -0.07410156 5.99921875 -0.08570313 6.8359375 -0.09765625 C9 0 9 0 11 1 C11 1.66 11 2.32 11 3 C9.35333797 2.8864371 7.70763918 2.75882619 6.0625 2.625 C5.14597656 2.55539062 4.22945313 2.48578125 3.28515625 2.4140625 C2.15400391 2.20910156 2.15400391 2.20910156 1 2 C0.67 1.34 0.34 0.68 0 0 Z " fill="#573100" transform="translate(355,361)"/>
<path d="M0 0 C2.64 0 5.28 0 8 0 C8.33 0.99 8.66 1.98 9 3 C5.7 2.67 2.4 2.34 -1 2 C-0.67 1.34 -0.34 0.68 0 0 Z " fill="#532B01" transform="translate(355,305)"/>
<path d="M0 0 C2.31 0 4.62 0 7 0 C7 0.99 7 1.98 7 3 C4.69 2.67 2.38 2.34 0 2 C0 1.34 0 0.68 0 0 Z " fill="#603700" transform="translate(395,351)"/>
<path d="M0 0 C0.53625 0.144375 1.0725 0.28875 1.625 0.4375 C4.39915827 1.09453748 7.18525388 1.55219948 10 2 C10 2.33 10 2.66 10 3 C6.37 3 2.74 3 -1 3 C-0.67 2.01 -0.34 1.02 0 0 Z " fill="#784208" transform="translate(351,305)"/>
</svg>
