<?xml version="1.0" encoding="UTF-8"?>
<svg version="1.1" xmlns="http://www.w3.org/2000/svg" width="512" height="512">
<path d="M0 0 C6.57055159 3.06433847 11.21323007 5.03643376 18.37451172 2.96166992 C21.06046079 2.30833096 23.7473835 1.66195682 26.43701172 1.02416992 C27.18112305 0.84619873 27.92523438 0.66822754 28.69189453 0.48486328 C52.50499398 -5.1301282 83.15815231 -7.05860292 106.58154297 1.40307617 C112.38558626 3.45205906 117.02935698 4.8932288 122.83544922 2.19995117 C126.75112637 0.08949155 130.47177109 -2.3116734 134.20800781 -4.72143555 C145.94873254 -11.8579545 162.7008014 -17.68643072 176.44091797 -14.56958008 C182.47676229 -12.3794681 185.37248631 -8.07949295 188.06201172 -2.60083008 C194.13664787 15.72662332 191.57304332 37.04199255 190.37451172 55.96166992 C191.27073242 55.72262939 191.27073242 55.72262939 192.18505859 55.47875977 C202.06802311 53.1446698 211.72258214 54.85498368 220.37451172 59.96166992 C224.10953732 62.78869792 226.89481421 65.26427873 228.18701172 69.83666992 C228.27982422 70.88854492 228.27982422 70.88854492 228.37451172 71.96166992 C229.03451172 72.29166992 229.69451172 72.62166992 230.37451172 72.96166992 C232.20699686 83.68557944 231.90220911 92.26900458 225.67529297 101.47338867 C221.00103059 107.66465304 215.52766861 113.22671276 209.37451172 117.96166992 C208.71451172 117.96166992 208.05451172 117.96166992 207.37451172 117.96166992 C207.58132568 118.56116455 207.78813965 119.16065918 208.0012207 119.77832031 C208.9446081 122.52476715 209.87836768 125.27439637 210.81201172 128.02416992 C211.30024414 129.43859375 211.30024414 129.43859375 211.79833984 130.8815918 C217.21638168 146.9122929 216.48046013 162.85597598 209.24951172 178.27416992 C205.77908331 184.74112369 201.61791132 189.86119093 196.37451172 194.96166992 C195.71064453 195.64616211 195.04677734 196.3306543 194.36279297 197.03588867 C183.0376522 208.0158823 167.95961506 213.71170796 153.37451172 218.96166992 C153.2484663 221.79805652 153.2484663 221.79805652 153.85888672 223.82104492 C155.76660403 231.74096224 154.15225065 239.92590973 152.51000977 247.74462891 C151.52411817 252.61055552 151.11372105 257.31803451 150.93701172 262.27416992 C150.53802642 270.24605267 149.46490261 278.08809499 143.62451172 283.96166992 C138.26957936 291.10157974 141.74784827 303.93301909 142.48568726 312.55411148 C142.69153817 314.95988291 142.89171351 317.36607184 143.09057617 319.77243042 C143.51352005 324.87760419 143.94374356 329.98215138 144.37451172 335.08666992 C144.87410389 341.01566583 145.37062606 346.94489894 145.86141968 352.87462997 C146.05772935 355.23058872 146.25858101 357.58613002 146.4597168 359.94168091 C147.0486724 366.96122792 147.54180354 373.91051887 147.37451172 380.96166992 C147.99068359 381.24397461 148.60685547 381.5262793 149.24169922 381.81713867 C152.85814797 383.7578337 154.73660957 386.8073708 156.68701172 390.33666992 C157.63223589 393.94570765 157.35443322 396.36862442 156.37451172 399.96166992 C146.52734662 409.41455414 129.30315909 407.45969758 116.62231445 407.40771484 C113.41863421 407.39912062 110.2166925 407.42819726 107.01318359 407.4597168 C104.95784558 407.46132721 102.90250444 407.46075434 100.84716797 407.45776367 C99.8991481 407.46899765 98.95112823 407.48023163 97.97438049 407.49180603 C91.92504924 407.42841825 88.25477798 406.63277096 83.37451172 402.96166992 C80.07057392 399.03876975 79.95795975 395.31838585 80.04638672 390.37963867 C80.04825989 389.64779861 80.05013306 388.91595856 80.05206299 388.16194153 C80.05877125 386.61116993 80.0726615 385.0604149 80.09326172 383.50976562 C80.12390851 381.19473608 80.1341933 378.88039632 80.14013672 376.56518555 C80.19249836 366.66843799 80.65013869 356.83083132 81.37451172 346.96166992 C77.08451172 347.29166992 72.79451172 347.62166992 68.37451172 347.96166992 C67.88047852 349.34354492 67.38644531 350.72541992 66.87744141 352.14916992 C65.03369029 357.30219173 63.18334526 362.45282546 61.33105469 367.6027832 C60.53206783 369.82707724 59.73484259 372.05200492 58.93945312 374.27758789 C57.79228935 377.48648781 56.63869587 380.69301468 55.48388672 383.89916992 C55.13267761 384.88594727 54.78146851 385.87272461 54.4196167 386.8894043 C49.06510484 401.69669268 49.06510484 401.69669268 44.73193359 404.93896484 C40.29077106 406.29178842 36.27379479 406.3728701 31.65576172 406.32495117 C30.72082886 406.32544968 29.785896 406.32594818 28.82263184 406.32646179 C26.84576288 406.32412679 24.86889064 406.31443222 22.89208984 406.29785156 C19.91199146 406.27446406 16.9328024 406.27727017 13.95263672 406.28393555 C-16.06159873 406.24076563 -16.06159873 406.24076563 -25.62548828 399.96166992 C-28.12065244 396.21892369 -28.26812148 393.29570776 -27.62548828 388.96166992 C-26.72272491 386.49673342 -25.6772916 384.1899168 -24.50048828 381.84448242 C-23.4850073 380.00541834 -23.4850073 380.00541834 -23.62548828 377.96166992 C-24.53169922 378.4437793 -25.43791016 378.92588867 -26.37158203 379.42260742 C-40.22780989 386.67127303 -53.96839549 389.69525469 -69.43798828 385.39916992 C-81.97116486 380.94741042 -90.82585688 373.54072569 -97.00048828 361.71166992 C-97.55881518 360.469022 -98.10249829 359.21959848 -98.62548828 357.96166992 C-99.03798828 357.03354492 -99.45048828 356.10541992 -99.87548828 355.14916992 C-101.3100826 349.05214408 -101.71096857 343.25787822 -99.00048828 337.52416992 C-95.1254123 333.34316689 -91.98881211 330.75763032 -86.18798828 330.46166992 C-81.34156226 330.69867895 -78.51650845 332.082315 -74.62548828 334.96166992 C-72.30321878 338.34160672 -70.97502347 341.62841417 -69.75048828 345.52416992 C-68.18274831 349.98712316 -66.88838326 352.55695993 -62.62548828 354.96166992 C-55.60906158 357.30047882 -49.20015454 356.62590035 -42.56298828 353.46166992 C-36.70643693 350.23489905 -31.64293305 346.35997487 -26.62548828 341.96166992 C-25.77986328 341.22561523 -24.93423828 340.48956055 -24.06298828 339.73120117 C-22.36063398 338.22347579 -20.67665116 336.69473834 -19.01220703 335.14526367 C-16.62548828 332.96166992 -16.62548828 332.96166992 -14.39501953 331.24682617 C-0.86892679 320.05544362 -0.88043357 292.35960453 1.37451172 275.96166992 C1.52202881 274.9381543 1.6695459 273.91463867 1.8215332 272.86010742 C2.55983886 266.81610912 2.07429328 262.49994137 -0.06298828 256.83666992 C-3.09445014 247.72369276 -4.78500145 237.54216071 -1.71533203 228.18823242 C-0.62548828 226.02416992 -0.62548828 226.02416992 1.37451172 222.96166992 C1.37451172 222.30166992 1.37451172 221.64166992 1.37451172 220.96166992 C0.85244141 220.79151367 0.33037109 220.62135742 -0.20751953 220.44604492 C-20.9787768 213.60717212 -39.62862911 205.24266276 -55.62548828 189.96166992 C-56.24037109 189.42155273 -56.85525391 188.88143555 -57.48876953 188.32495117 C-73.74228383 173.4912841 -80.8044542 149.78411706 -81.78564453 128.48510742 C-81.98875491 119.53058917 -81.10625716 111.11440028 -79.47705078 102.31323242 C-79.3467749 101.60779297 -79.21649902 100.90235352 -79.08227539 100.17553711 C-78.76322109 98.62920659 -78.39238864 97.09306145 -77.9831543 95.56811523 C-76.26910656 88.76530064 -77.16847447 84.05912322 -79.31298828 77.46166992 C-82.23714254 67.67658489 -84.26338218 58.07581599 -85.62548828 47.96166992 C-85.75697266 47.01936523 -85.88845703 46.07706055 -86.02392578 45.10620117 C-87.80032089 29.62275734 -89.6343689 6.0943413 -79.62548828 -7.03833008 C-61.04897658 -27.15533299 -20.39048779 -9.55118637 0 0 Z " fill="#552D02" transform="translate(182.62548828125,84.038330078125)"/>
<path d="M0 0 C10.01918672 -0.98696466 10.01918672 -0.98696466 14.39648438 1.72851562 C16.21988772 3.47548889 17.67756884 5.06679202 18.97851562 7.22851562 C18.97851562 7.88851562 18.97851562 8.54851562 18.97851562 9.22851562 C18.08648437 9.45925781 17.19445312 9.69 16.27539062 9.92773438 C15.10492188 10.25386719 13.93445313 10.58 12.72851562 10.91601562 C11.56835938 11.22925781 10.40820312 11.5425 9.21289062 11.86523438 C5.5117261 13.42526628 4.06103275 14.82638369 1.97851562 18.22851562 C1.97851562 22.14867696 2.42625277 24.40012135 4.60351562 27.66601562 C7.85867992 29.80757108 10.25600012 29.78689295 13.97851562 29.22851562 C17.33508684 28.51217421 20.66355195 27.72914095 23.99023438 26.88476562 C26.97851562 26.22851562 26.97851562 26.22851562 30.97851562 26.22851562 C31.82063819 28.14133688 32.65190426 30.05894036 33.47851562 31.97851562 C33.94257813 33.04585937 34.40664063 34.11320312 34.88476562 35.21289062 C35.97851562 38.22851562 35.97851562 38.22851562 35.97851562 42.22851562 C35.00011719 42.39867187 34.02171875 42.56882813 33.01367188 42.74414062 C22.04662954 44.64943502 22.04662954 44.64943502 11.97851562 49.22851562 C10.36233755 52.46087177 10.40502279 55.73421043 10.97851562 59.22851562 C12.79186533 62.45863333 12.79186533 62.45863333 15.97851562 64.22851562 C18.98196039 64.17845821 21.12329905 63.92566007 23.97851562 63.22851562 C25.49894411 62.87261498 27.01978332 62.51846468 28.54101562 62.16601562 C29.28351563 61.99199219 30.02601563 61.81796875 30.79101562 61.63867188 C33.91142995 61.05359419 36.81235973 61.09378559 39.97851562 61.22851562 C40.06488281 61.90398437 40.15125 62.57945312 40.24023438 63.27539062 C41.12777376 69.03663594 41.12777376 69.03663594 44.22851562 73.85351562 C47.56708703 75.52280133 49.29758935 75.9186893 52.97851562 75.22851562 C56.0246093 73.13009554 57.67540263 71.5613213 58.50976562 67.89257812 C58.76288313 65.66373785 58.92478861 63.47039729 58.97851562 61.22851562 C59.94273437 61.32390625 60.90695312 61.41929687 61.90039062 61.51757812 C63.16367187 61.6284375 64.42695313 61.73929688 65.72851562 61.85351562 C66.98148438 61.96953125 68.23445312 62.08554688 69.52539062 62.20507812 C72.82390777 62.22746625 74.33511135 62.11482838 76.97851562 60.22851562 C78.14194789 57.90165109 78.17747551 56.38130149 78.22851562 53.79101562 C78.25429688 53.00855469 78.28007812 52.22609375 78.30664062 51.41992188 C77.89166327 48.64846598 77.21445188 47.88330545 74.97851562 46.22851562 C72.79514016 45.29361977 72.79514016 45.29361977 70.35351562 44.66601562 C69.03287109 44.28123047 69.03287109 44.28123047 67.68554688 43.88867188 C65.0231862 43.18418682 65.0231862 43.18418682 62.42773438 42.91210938 C60.02169291 42.60101727 58.15482919 42.30977078 55.97851562 41.22851562 C54.23006318 38.36793278 53.57854668 35.50189932 52.97851562 32.22851562 C52.79289063 31.30683594 52.60726562 30.38515625 52.41601562 29.43554688 C52.19945312 28.34306641 52.19945312 28.34306641 51.97851562 27.22851562 C52.78675781 27.33550781 53.595 27.4425 54.42773438 27.55273438 C56.03068359 27.73255859 56.03068359 27.73255859 57.66601562 27.91601562 C58.72175781 28.04363281 59.7775 28.17125 60.86523438 28.30273438 C64.48406102 28.21646373 66.1217098 27.39557014 68.97851562 25.22851562 C70.55022559 22.0850957 70.21027346 18.67080111 69.97851562 15.22851562 C69.64851562 14.23851563 69.31851563 13.24851562 68.97851562 12.22851562 C66.50812919 11.34731997 64.20862107 10.68565903 61.66601562 10.10351562 C60.94776611 9.92739746 60.2295166 9.7512793 59.48950195 9.56982422 C55.01757631 8.52596107 50.76928059 8.0114708 46.16601562 7.85351562 C43.28710938 7.70898438 43.28710938 7.70898438 40.97851562 7.22851562 C38.72851562 4.16601562 38.72851562 4.16601562 37.97851562 1.22851562 C44.69625928 1.74383238 51.07887123 2.74256275 57.60351562 4.41601562 C58.4681543 4.63741211 59.33279297 4.85880859 60.22363281 5.08691406 C80.66801405 10.48206362 97.88452241 19.49694343 113.97851562 33.22851562 C114.66300781 33.80988281 115.3475 34.39125 116.05273438 34.99023438 C122.84064676 41.27182229 129.9913729 50.4816336 132.97851562 59.22851562 C132.50542969 58.85339844 132.03234375 58.47828125 131.54492188 58.09179688 C122.60623008 51.17432973 115.33745155 47.51624609 103.97851562 46.22851562 C103.97851562 47.21851563 103.97851562 48.20851562 103.97851562 49.22851562 C104.6565625 49.24269531 105.33460938 49.256875 106.03320312 49.27148438 C114.94702275 49.72828677 122.07117252 52.17433884 128.60351562 58.41601562 C130.97851562 61.22851562 130.97851562 61.22851562 130.97851562 63.22851562 C131.9453125 62.79539063 132.91210938 62.36226562 133.90820312 61.91601562 C141.30652318 58.70610703 147.77063342 55.90421866 155.97851562 57.22851562 C156.79707031 57.35226563 157.615625 57.47601563 158.45898438 57.60351562 C165.01229261 59.06657979 168.94281681 62.39972341 173.65429688 67.07226562 C175.8929065 69.33492441 175.8929065 69.33492441 178.73632812 70.68945312 C180.97851562 72.22851562 180.97851562 72.22851562 181.60742188 74.61132812 C181.44299163 81.40132982 180.27972774 86.3069664 176.97851562 92.22851562 C176.56601562 93.0303125 176.15351563 93.83210938 175.72851562 94.65820312 C165.4123203 113.47353665 145.84275045 122.97125096 126.97851562 131.22851562 C126.05296875 131.64101562 125.12742187 132.05351562 124.17382812 132.47851562 C121.97851562 133.22851562 121.97851562 133.22851562 117.97851562 133.22851562 C117.97851562 134.21851563 117.97851562 135.20851562 117.97851562 136.22851562 C119.12126953 135.77798828 119.12126953 135.77798828 120.28710938 135.31835938 C131.38038564 131.23282067 137.31389643 132.22154721 147.96289062 136.95898438 C151.60967728 138.49422487 155.29090781 139.55853146 159.11523438 140.55273438 C160.97851562 141.22851562 160.97851562 141.22851562 161.97851562 143.22851562 C162.07629729 145.49762534 162.10827209 147.76980504 162.10351562 150.04101562 C162.10609375 151.26433594 162.10867188 152.48765625 162.11132812 153.74804688 C161.99797036 156.71868719 161.66996808 159.34746372 160.97851562 162.22851562 C158.20559781 161.73917719 155.69558868 161.12618035 153.04101562 160.16601562 C149.73706398 159.15460185 147.40739733 158.78127019 143.97851562 159.22851562 C140.73707742 161.41867657 140.07246797 162.85941712 139.10351562 166.66601562 C138.87116915 171.30233249 138.87116915 171.30233249 140.97851562 175.22851562 C143.2208509 176.18398286 145.42507744 176.85581467 147.78710938 177.45507812 C150.20096999 178.30702893 151.32748329 179.30673522 152.97851562 181.22851562 C138.24798351 202.14498117 112.63368269 213.6878225 87.97851562 218.22851562 C86.65851563 218.22851562 85.33851563 218.22851562 83.97851562 218.22851562 C83.91905762 217.13349731 83.91905762 217.13349731 83.85839844 216.01635742 C83.6656514 212.64834253 83.44723296 209.2824399 83.22851562 205.91601562 C83.16664063 204.76810547 83.10476563 203.62019531 83.04101562 202.4375 C82.29471263 191.46062671 79.9221619 180.71495834 71.54101562 172.97851562 C66.58544985 169.59422681 62.52941088 168.91382172 56.54101562 168.85351562 C55.26355469 168.82515625 53.98609375 168.79679688 52.66992188 168.76757812 C48.38563222 169.30254763 46.29867748 170.5195765 42.97851562 173.22851562 C42.31851563 174.21851563 41.65851563 175.20851563 40.97851562 176.22851562 C37.27747736 174.9948362 35.71041962 172.96041962 32.97851562 170.22851562 C26.43072192 168.04591772 17.75524861 167.92678162 11.41601562 170.85351562 C4.32699706 175.19157176 0.65495979 182.29931017 -1.5559082 190.11865234 C-2.32583721 193.60775905 -2.31434225 197.16891725 -2.45898438 200.72851562 C-3.40756763 220.61459888 -3.40756763 220.61459888 -6.02148438 223.22851562 C-12.26363112 223.75751111 -14.90807173 223.09198296 -20.02148438 219.22851562 C-24.00817641 217.0499144 -27.25675865 217.14832105 -31.65649414 217.35961914 C-43.24897233 217.89960354 -52.41882985 215.751168 -63.02148438 211.22851562 C-63.82005859 210.89110352 -64.61863281 210.55369141 -65.44140625 210.20605469 C-79.05231421 204.34744648 -91.00188247 197.22303829 -102.02148438 187.22851562 C-98.9990478 183.98138952 -95.8056113 181.63138194 -92.08398438 179.22851562 C-85.0995152 175.17415061 -85.0995152 175.17415061 -80.02148438 169.22851562 C-79.36632681 164.10356759 -79.36632681 164.10356759 -81.2902832 159.67529297 C-83.90705197 157.48844038 -86.11123112 157.18322759 -89.45849609 156.91259766 C-94.67857466 157.55603275 -98.52251557 161.04020435 -102.58398438 164.16601562 C-103.95393555 165.17438477 -103.95393555 165.17438477 -105.3515625 166.203125 C-107.59207277 167.85711426 -109.81332457 169.53171914 -112.02148438 171.22851562 C-116.90821921 169.02858104 -117.78547121 166.15421301 -119.84960938 161.33789062 C-121.59036752 156.71907902 -122.87988688 152.02693763 -124.02148438 147.22851562 C-116.83453123 144.47107238 -109.66937602 142.26722522 -102.18554688 140.45117188 C-98.44140645 139.00436206 -96.55059684 137.32120564 -94.02148438 134.22851562 C-93.395469 130.26375156 -93.36202398 128.23089542 -95.58398438 124.85351562 C-99.54557993 122.21245192 -103.06000501 121.86589225 -107.65209961 122.71484375 C-110.61035779 123.46694756 -113.53325311 124.29610073 -116.45898438 125.16601562 C-117.47669922 125.45669922 -118.49441406 125.74738281 -119.54296875 126.046875 C-122.03962058 126.76187858 -124.53190965 127.48931863 -127.02148438 128.22851562 C-128.15130473 96.76092636 -116.74528143 68.76148162 -95.35351562 45.69335938 C-94.19916016 44.47326172 -94.19916016 44.47326172 -93.02148438 43.22851562 C-91.88259766 41.99294922 -91.88259766 41.99294922 -90.72070312 40.73242188 C-67.16786828 16.02314669 -33.30495263 3.76490769 0 0 Z " fill="#FD9723" transform="translate(232.021484375,84.771484375)"/>
<path d="M0 0 C2.64 0 5.28 0 8 0 C8.05607422 1.670625 8.05607422 1.670625 8.11328125 3.375 C8.86116306 21.9409098 10.39849862 45.95095107 24.625 59.5 C28.39207919 61.87920791 31.27427746 63.2300833 35.75 63.625 C36.54921875 63.69976562 37.3484375 63.77453125 38.171875 63.8515625 C38.77515625 63.90054688 39.3784375 63.94953125 40 64 C39.34 64.99 38.68 65.98 38 67 C38.15760028 70.11304814 38.15760028 70.11304814 39 73 C41.88415883 74.44207941 44.41721528 74.09394887 47.625 74.0625 C49.40777344 74.04896484 49.40777344 74.04896484 51.2265625 74.03515625 C52.14179688 74.02355469 53.05703125 74.01195312 54 74 C55.23037727 86.0452626 56.2692927 97.88182842 56 110 C48.08 112.64 40.16 115.28 32 118 C30.48534976 123.46084261 30.48534976 123.46084261 32 126 C38.10312021 126.56773211 43.04565699 124.90547623 48.81640625 122.97265625 C52 122 52 122 58 121 C58 125.29 58 129.58 58 134 C56.94039062 134.33773437 55.88078125 134.67546875 54.7890625 135.0234375 C53.40093836 135.47363992 52.01292313 135.92417825 50.625 136.375 C49.92632812 136.59671875 49.22765625 136.8184375 48.5078125 137.046875 C44.37952197 138.37154413 44.37952197 138.37154413 41 141 C40.74994614 144.04182893 40.74994614 144.04182893 41 147 C42.10528442 148.31968178 42.10528442 148.31968178 44.875 148.25 C50.10781324 148.20630219 55.03283036 146.50901356 60 145 C60 148.3 60 151.6 60 155 C61.32 155.66 62.64 156.32 64 157 C67.48900734 160.40971172 68.82155697 161.83020683 69.5625 166.6875 C69 170 69 170 67.29711914 171.60327148 C57.22335656 177.72847031 43.44797557 176.49438463 32.12280273 176.44604492 C29.04409714 176.43744862 25.96719919 176.46652612 22.88867188 176.49804688 C20.91666722 176.4996572 18.9446593 176.4990846 16.97265625 176.49609375 C16.0600856 176.50732773 15.14751495 176.51856171 14.20729065 176.53013611 C8.69364739 176.4698892 5.24748726 175.87359895 1 172 C-1.20810464 168.20649834 -1.22721022 164.85805805 -1.15625 160.52734375 C-1.14815308 159.88643295 -1.14005615 159.24552216 -1.13171387 158.58518982 C-1.09979632 156.38974424 -1.0507975 154.19508678 -1 152 C-0.96607618 150.31266416 -0.93222491 148.62532686 -0.8984375 146.93798828 C-0.78274098 141.47902807 -0.64239506 136.02081786 -0.5 130.5625 C-0.4516502 128.65560333 -0.40347202 126.7487023 -0.35546875 124.84179688 C-0.23895256 120.22781206 -0.12013181 115.61389203 0 111 C-0.66 111 -1.32 111 -2 111 C-2 112.65 -2 114.3 -2 116 C-6.29 116 -10.58 116 -15 116 C-15 114.35 -15 112.7 -15 111 C-15.66 111 -16.32 111 -17 111 C-17.16911392 111.58782257 -17.33822784 112.17564514 -17.51246643 112.78128052 C-19.47142309 119.463223 -21.71477226 126.01031495 -24.08984375 132.5546875 C-24.47564102 133.61865753 -24.86143829 134.68262756 -25.25892639 135.77883911 C-26.06990684 138.00976017 -26.8826298 140.2400485 -27.69702148 142.46972656 C-28.9402369 145.88251314 -30.16830589 149.30052812 -31.39648438 152.71875 C-32.18917151 154.89356933 -32.98275979 157.06806047 -33.77734375 159.2421875 C-34.14101547 160.261987 -34.50468719 161.2817865 -34.87937927 162.33248901 C-35.22976761 163.28092682 -35.58015594 164.22936462 -35.94116211 165.20654297 C-36.24299911 166.03797821 -36.54483612 166.86941345 -36.8558197 167.7260437 C-38.52179128 171.03701363 -40.67806069 173.33903035 -44 175 C-46.8611096 175.09940269 -49.69729874 175.1397897 -52.55859375 175.1328125 C-53.41751724 175.13376923 -54.27644073 175.13472595 -55.16139221 175.13571167 C-56.98642042 175.13639339 -58.81145104 175.13453964 -60.63647461 175.13037109 C-63.39507711 175.12508135 -66.15351236 175.13028557 -68.91210938 175.13671875 C-92.39485005 175.14765243 -92.39485005 175.14765243 -100.4375 172.625 C-101.21996094 172.39039063 -102.00242188 172.15578125 -102.80859375 171.9140625 C-105.28431668 170.88140801 -107.05970137 169.86110276 -109 168 C-110.26233085 161.70122669 -106.7220699 156.42206171 -103.43359375 151.375 C-101.57249843 148.29176852 -100.7609791 145.50050385 -100 142 C-95.44913942 142.89542396 -91.15025367 143.86003863 -86.875 145.6875 C-82.86968949 147.29605844 -80.16814716 146.95520039 -76 146 C-75.505 143.03 -75.505 143.03 -75 140 C-79.35820058 137.09162166 -83.89150601 135.48308053 -88.8125 133.8125 C-89.60076172 133.53986328 -90.38902344 133.26722656 -91.20117188 132.98632812 C-93.13238221 132.31918274 -95.06595951 131.65889582 -97 131 C-95.515 125.06 -95.515 125.06 -94 119 C-82.34821429 121.8125 -82.34821429 121.8125 -77.0625 123.6875 C-73.93678365 124.76338063 -71.34042172 125.5061245 -68 125 C-65.58878141 123.04366025 -65.58878141 123.04366025 -65.875 119.375 C-65.91625 118.26125 -65.9575 117.1475 -66 116 C-66.94746094 115.76216797 -66.94746094 115.76216797 -67.9140625 115.51953125 C-75.79620662 113.46381355 -83.36487999 110.81997863 -91 108 C-90.37249068 101.60538122 -88.92784294 95.69156531 -87.25 89.5 C-83.32627207 74.53197023 -81.17680589 59.29900083 -79 44 C-78.34 44 -77.68 44 -77 44 C-75.73828125 45.5390625 -75.73828125 45.5390625 -74.3125 47.625 C-68.767258 55.17454634 -63.38435479 59.37784724 -54 61 C-44.5408463 62.02432012 -36.24519675 60.68644586 -28.37109375 55.15234375 C-13.21427411 42.40210311 -7.85550327 24.13933079 -2 6 C-1.33538216 3.99931822 -0.66940451 1.9990853 0 0 Z " fill="#FD9723" transform="translate(267,312)"/>
<path d="M0 0 C5.09234066 2.23378305 9.63488097 5.86761595 13.32421875 10.01953125 C13.32421875 10.67953125 13.32421875 11.33953125 13.32421875 12.01953125 C14.29101562 11.58640625 15.2578125 11.15328125 16.25390625 10.70703125 C23.6522263 7.49712265 30.11633655 4.69523429 38.32421875 6.01953125 C39.14277344 6.14328125 39.96132813 6.26703125 40.8046875 6.39453125 C47.35799574 7.85759542 51.28851994 11.19073904 56 15.86328125 C58.23860963 18.12594003 58.23860963 18.12594003 61.08203125 19.48046875 C63.32421875 21.01953125 63.32421875 21.01953125 63.953125 23.40234375 C63.78869476 30.19234545 62.62543086 35.09798202 59.32421875 41.01953125 C58.91171875 41.82132813 58.49921875 42.623125 58.07421875 43.44921875 C47.75802342 62.26455227 28.18845358 71.76226658 9.32421875 80.01953125 C8.39867187 80.43203125 7.473125 80.84453125 6.51953125 81.26953125 C4.32421875 82.01953125 4.32421875 82.01953125 0.32421875 82.01953125 C0.32421875 83.00953125 0.32421875 83.99953125 0.32421875 85.01953125 C1.08605469 84.71917969 1.84789062 84.41882813 2.6328125 84.109375 C9.10053396 81.7273802 14.5823731 79.82655172 21.32421875 82.01953125 C25.47474177 84.05110304 29.29507661 86.49008035 32.32421875 90.01953125 C32.86973708 93.60436599 32.63344554 95.45485624 30.88671875 98.64453125 C23.29830137 105.67769858 12.4877287 107.47187469 2.484375 107.26953125 C-6.06242721 106.59339362 -13.16042285 104.6850603 -19.67578125 99.01953125 C-21.67578125 96.01953125 -21.67578125 96.01953125 -21.73828125 92.70703125 C-20.31946076 87.78288955 -17.96376439 85.68250491 -13.67578125 83.01953125 C-9.56432005 81.46001148 -6.06396167 80.75358092 -1.67578125 81.01953125 C-1.67578125 80.02953125 -1.67578125 79.03953125 -1.67578125 78.01953125 C-3.32578125 77.68953125 -4.97578125 77.35953125 -6.67578125 77.01953125 C-6.67578125 76.35953125 -6.67578125 75.69953125 -6.67578125 75.01953125 C-8.16078125 74.52453125 -8.16078125 74.52453125 -9.67578125 74.01953125 C-10.68824027 72.02580942 -11.68638733 70.02479923 -12.67578125 68.01953125 C-14.1828031 66.28230713 -15.74979382 64.59584815 -17.36328125 62.95703125 C-27.96081626 51.58595354 -37.34522521 36.36006794 -36.9296875 20.3203125 C-36.23274401 14.00493223 -34.13368496 8.6212383 -29.67578125 4.01953125 C-29.01578125 3.68953125 -28.35578125 3.35953125 -27.67578125 3.01953125 C-27.34578125 2.02953125 -27.01578125 1.03953125 -26.67578125 0.01953125 C-25.02578125 0.01953125 -23.37578125 0.01953125 -21.67578125 0.01953125 C-21.67578125 -0.64046875 -21.67578125 -1.30046875 -21.67578125 -1.98046875 C-15.79389537 -4.92141169 -6.00372444 -1.96257015 0 0 Z " fill="#FDC4DF" transform="translate(349.67578125,135.98046875)"/>
<path d="M0 0 C0.495 1.485 0.495 1.485 1 3 C1.825 3.825 2.65 4.65 3.5 5.5 C8.25766612 10.25766612 7.3125 16.20462233 7.3125 22.54003906 C7.02138892 40.13241074 -3.19796779 55.71315526 -14 69 C-14.47469727 69.5868457 -14.94939453 70.17369141 -15.43847656 70.77832031 C-16.92769498 72.61113027 -18.42908723 74.43296374 -19.9375 76.25 C-20.41034424 76.82379395 -20.88318848 77.39758789 -21.37036133 77.98876953 C-22.53495369 79.36547124 -23.76249171 80.68845275 -25 82 C-25.66 82 -26.32 82 -27 82 C-26.67 82.66 -26.34 83.32 -26 84 C-25.113125 83.7525 -24.22625 83.505 -23.3125 83.25 C-20 83 -20 83 -17.1875 84.8125 C-14.48547034 87.51452966 -14.0841468 88.45304578 -13.5 92.25 C-14.00657846 96.04933842 -14.11335661 96.68962753 -16.6875 99.1875 C-25.68476419 105.92641474 -37.12455119 107.06823935 -48 106 C-54.12590076 104.85087692 -59.04484571 102.86743749 -64 99 C-64.61875 98.566875 -65.2375 98.13375 -65.875 97.6875 C-67.81081145 94.78378282 -67.40708089 92.37295594 -67 89 C-63.04891606 82.98587923 -57.72407608 80.97283406 -51 79 C-47.60922646 78.64771184 -44.38937895 78.66256183 -41 79 C-40.67 78.34 -40.34 77.68 -40 77 C-40.66902344 76.89816406 -41.33804688 76.79632813 -42.02734375 76.69140625 C-57.21217608 73.15958585 -74.74636602 63.13060273 -83.8515625 50.4140625 C-88.73752434 42.51779241 -89.71074554 36.28707503 -89 27 C-88.2439548 24.11647876 -87.25527444 21.71976128 -86 19 C-85.34 19 -84.68 19 -84 19 C-83.9175 18.401875 -83.835 17.80375 -83.75 17.1875 C-82.76462778 14.31349768 -81.53281614 13.63913747 -79 12 C-69.419072 8.22663613 -59.62531664 7.35418965 -50.0703125 11.44140625 C-47.32208354 12.18290954 -45.6905257 11.90542412 -43 11 C-41.19126924 9.34733349 -41.19126924 9.34733349 -39.6875 7.25 C-30.25191764 -4.22515147 -13.35069909 -7.06801716 0 0 Z " fill="#FDC4DF" transform="translate(221,137)"/>
<path d="M0 0 C1.28003906 -0.01933594 2.56007813 -0.03867188 3.87890625 -0.05859375 C7.99386902 0.51506187 9.56824894 1.48523264 12.4375 4.4375 C14.98332249 8.72786796 14.78181815 12.56742325 14.75 17.4375 C14.74480347 18.7222522 14.74480347 18.7222522 14.73950195 20.03295898 C14.64216475 25.73390774 13.93644683 30.79517724 12.29296875 36.2734375 C11.19027749 40.35188462 10.57664047 44.45276228 9.9375 48.625 C8.96737884 54.82900854 7.72346005 60.55931701 5.4375 66.4375 C-0.1625 64.65568182 -0.1625 64.65568182 -2.625 63.3125 C-5.03637354 62.2234926 -6.94682839 62.29218491 -9.5625 62.4375 C-9.5625 64.0875 -9.5625 65.7375 -9.5625 67.4375 C-5.6025 69.4175 -1.6425 71.3975 2.4375 73.4375 C1.96949289 77.49356165 1.55796792 80.90338679 -0.5625 84.4375 C-3.53817661 83.9797036 -4.97074292 83.15086135 -7.5 81.375 C-10.64636183 79.38444456 -11.94859384 79.01233457 -15.5625 79.4375 C-16.02285567 81.77564597 -16.02285567 81.77564597 -15.5625 84.4375 C-13.1527549 86.5776255 -13.1527549 86.5776255 -10.0625 88.25 C-8.53109375 89.15685547 -8.53109375 89.15685547 -6.96875 90.08203125 C-6.1746875 90.52933594 -5.380625 90.97664063 -4.5625 91.4375 C-5.90563185 95.21841617 -7.59214684 98.09401916 -10.0625 101.25 C-10.6709375 102.04019531 -11.279375 102.83039063 -11.90625 103.64453125 C-12.4528125 104.23621094 -12.999375 104.82789063 -13.5625 105.4375 C-14.2225 105.4375 -14.8825 105.4375 -15.5625 105.4375 C-17.1120199 102.89283388 -18.46176521 100.27001756 -19.83203125 97.625 C-20.40308594 96.903125 -20.97414062 96.18125 -21.5625 95.4375 C-24.19738116 95.0195431 -24.19738116 95.0195431 -26.5625 95.4375 C-26.23152776 100.84337987 -25.02450389 103.74374448 -21.62109375 107.95703125 C-20.5625 109.4375 -20.5625 109.4375 -20.5625 111.4375 C-27.61337756 115.42587518 -33.54823769 115.92567841 -41.5625 115.4375 C-41.35753906 114.84582031 -41.15257812 114.25414062 -40.94140625 113.64453125 C-39.5627429 109.60089184 -38.24499153 105.66894751 -37.5625 101.4375 C-39.2125 101.1075 -40.8625 100.7775 -42.5625 100.4375 C-44.5425 104.3975 -46.5225 108.3575 -48.5625 112.4375 C-53.94761454 111.36047709 -55.6812518 110.14624828 -59.5625 106.4375 C-60.73828125 104.26953125 -60.73828125 104.26953125 -61.5625 102.4375 C-60.38880859 101.64085937 -60.38880859 101.64085937 -59.19140625 100.828125 C-57.67353516 99.76851562 -57.67353516 99.76851562 -56.125 98.6875 C-54.61099609 97.64335937 -54.61099609 97.64335937 -53.06640625 96.578125 C-50.56538207 94.43996392 -49.84394987 93.64169855 -49.5625 90.4375 C-52.83729579 89.38980482 -54.23333459 89.29934826 -57.45703125 90.65234375 C-58.41996094 91.22082031 -59.38289062 91.78929687 -60.375 92.375 C-61.35082031 92.94089844 -62.32664063 93.50679688 -63.33203125 94.08984375 C-64.06808594 94.53457031 -64.80414063 94.97929687 -65.5625 95.4375 C-68.57366334 89.17428026 -68.57366334 89.17428026 -68.53125 86.375 C-67.00051997 83.31353994 -64.6221171 82.87061806 -61.5 81.6875 C-60.39527344 81.25953125 -59.29054687 80.8315625 -58.15234375 80.390625 C-57.29769531 80.07609375 -56.44304687 79.7615625 -55.5625 79.4375 C-55.5625 77.7875 -55.5625 76.1375 -55.5625 74.4375 C-60.33428494 74.92276627 -64.13457411 75.53981747 -68.5625 77.4375 C-69.5525 77.4375 -70.5425 77.4375 -71.5625 77.4375 C-71.8925 74.7975 -72.2225 72.1575 -72.5625 69.4375 C-68.6025 67.4575 -64.6425 65.4775 -60.5625 63.4375 C-60.8925 61.7875 -61.2225 60.1375 -61.5625 58.4375 C-64.93955625 58.97475895 -68.259186 59.54814623 -71.5625 60.4375 C-70.3183796 55.4610184 -68.82850936 53.28150624 -64.5625 50.4375 C-59.77029925 47.58670254 -54.98383498 47.96708544 -49.5625 48.4375 C-42.98879921 50.19048688 -39.46148384 54.09872967 -35.5625 59.4375 C-33.8253158 62.47757234 -33.53909656 63.88751923 -33.6875 67.375 C-34.7125441 70.96265434 -36.4101197 73.4107152 -38.5625 76.4375 C-39.0575 77.9225 -39.0575 77.9225 -39.5625 79.4375 C-38.5725 79.9325 -38.5725 79.9325 -37.5625 80.4375 C-37.27294434 79.85387695 -36.98338867 79.27025391 -36.68505859 78.66894531 C-35.99969471 77.30656473 -35.30238924 75.95000335 -34.58447266 74.60449219 C-32.03706407 69.75770885 -30.33441295 64.97279216 -28.9375 59.6875 C-28.72512695 58.89674072 -28.51275391 58.10598145 -28.29394531 57.29125977 C-26.09159215 48.91122062 -24.62416417 40.77270744 -24.27954102 32.10913086 C-23.85169701 21.72398376 -22.39574616 12.9612099 -15.3203125 4.875 C-10.48631475 0.92186406 -6.15920522 0.00621514 0 0 Z " fill="#FD9622" transform="translate(255.5625,255.5625)"/>
<path d="M0 0 C2.64 0 5.28 0 8 0 C8.05607422 1.670625 8.05607422 1.670625 8.11328125 3.375 C8.86116306 21.9409098 10.39849862 45.95095107 24.625 59.5 C28.39207919 61.87920791 31.27427746 63.2300833 35.75 63.625 C36.54921875 63.69976562 37.3484375 63.77453125 38.171875 63.8515625 C38.77515625 63.90054688 39.3784375 63.94953125 40 64 C39.34 64.99 38.68 65.98 38 67 C38.296877 69.7906438 38.75341264 72.30733886 39.6953125 74.953125 C40 77 40 77 39.06640625 78.89453125 C32.1824493 87.67381141 25.85573638 92.92128982 15 96 C13.80890625 96.35964844 12.6178125 96.71929687 11.390625 97.08984375 C6.05015537 98.3966214 0.71981909 98.30047221 -4.75 98.25 C-6.35343262 98.23767334 -6.35343262 98.23767334 -7.98925781 98.22509766 C-21.78236253 98.02925663 -34.50087456 96.50197056 -45 86.5625 C-48.05908891 83.19675426 -52 78.71811224 -52 74 C-50.2984375 73.7834375 -50.2984375 73.7834375 -48.5625 73.5625 C-45.19222799 73.38828522 -45.19222799 73.38828522 -44 72 C-43.66659529 69.04195427 -43.66659529 69.04195427 -44 66 C-46.90092502 64.06604999 -47.89674737 63.69868059 -51.1875 63.375 C-53.0746875 63.189375 -53.0746875 63.189375 -55 63 C-55 62.67 -55 62.34 -55 62 C-54.18917969 61.97421875 -53.37835938 61.9484375 -52.54296875 61.921875 C-40.6681002 61.31361631 -32.01681825 59.03716546 -23.34765625 50.6015625 C-11.857007 37.86816417 -7.15708014 21.9757374 -2 6 C-1.33538216 3.99931822 -0.66940451 1.9990853 0 0 Z " fill="#F8FDBB" transform="translate(267,312)"/>
<path d="M0 0 C0.66 0 1.32 0 2 0 C1.28161211 12.93098207 -6.13537741 21.31368878 -15 30 C-19.62458472 34 -19.62458472 34 -22 34 C-21.68977905 34.89924194 -21.68977905 34.89924194 -21.37329102 35.81665039 C-20.42990362 38.56309723 -19.49614404 41.31272645 -18.5625 44.0625 C-18.23701172 45.00544922 -17.91152344 45.94839844 -17.57617188 46.91992188 C-12.15813004 62.95062298 -12.89405159 78.89430606 -20.125 94.3125 C-23.5954284 100.77945377 -27.7566004 105.899521 -33 111 C-33.66386719 111.68449219 -34.32773437 112.36898437 -35.01171875 113.07421875 C-46.33685952 124.05421238 -61.41489666 129.75003803 -76 135 C-76.12604542 137.8363866 -76.12604542 137.8363866 -75.515625 139.859375 C-73.60790769 147.77929232 -75.22226107 155.96423981 -76.86450195 163.78295898 C-77.85039355 168.64888559 -78.26079066 173.35636459 -78.4375 178.3125 C-78.8364853 186.28438275 -79.90960911 194.12642507 -85.75 200 C-91.02914659 207.03886212 -87.61435523 219.87915778 -86.87109375 228.21484375 C-86.7559073 229.56037104 -86.64142492 230.90595876 -86.52760315 232.25160217 C-86.04849665 237.90517129 -85.55979261 243.55786884 -85.06079102 249.2097168 C-84.75394867 252.690617 -84.4570738 256.17225721 -84.16603279 259.65451241 C-84.0010944 261.59355528 -83.82523322 263.53165938 -83.64903259 265.4697113 C-83.01302918 273.11904699 -83.08764982 280.37605281 -84 288 C-95.98117155 293.38284519 -95.98117155 293.38284519 -103 293 C-105 291 -105 291 -105.3125 288.0625 C-105 285 -105 285 -103.85546875 283.4453125 C-101.39192597 281.52634234 -98.96875256 280.76206424 -96 279.8125 C-94.948125 279.46832031 -93.89625 279.12414062 -92.8125 278.76953125 C-90 278 -90 278 -87 278 C-87 273.71 -87 269.42 -87 265 C-87.95261719 265.34933594 -88.90523438 265.69867188 -89.88671875 266.05859375 C-91.15357779 266.51841666 -92.4205087 266.97804162 -93.6875 267.4375 C-94.62625977 267.78264648 -94.62625977 267.78264648 -95.58398438 268.13476562 C-101.48772356 270.26753004 -106.69072712 271.47617154 -113 271 C-115 268 -115 268 -115.1875 265.0625 C-113.84181217 261.59204192 -113.46435178 261.36716697 -110.25 259.875 C-94.8960084 254 -94.8960084 254 -89 254 C-89.06058594 253.33581055 -89.12117188 252.67162109 -89.18359375 251.98730469 C-89.46123665 248.90867206 -89.73064625 245.8293685 -90 242.75 C-90.09539062 241.70585937 -90.19078125 240.66171875 -90.2890625 239.5859375 C-90.91252127 232.37162885 -91.11692847 225.23982132 -91 218 C-91.99 218.33 -92.98 218.66 -94 219 C-98.66799311 219.47537159 -102.63510052 219.8570299 -106.6875 217.3125 C-108 215 -108 215 -107.8125 212.3125 C-107 210 -107 210 -106 209 C-106.97839844 208.85304688 -106.97839844 208.85304688 -107.9765625 208.703125 C-116.51299829 207.24261386 -121.57912745 204.37440255 -126.62109375 197.265625 C-128.98808228 193.37652203 -130.53672794 189.29795156 -132 185 C-132.27714844 184.20722656 -132.55429687 183.41445313 -132.83984375 182.59765625 C-136.98940172 169.85995839 -137.2676322 157.24779379 -137 144 C-139.64 144.33 -142.28 144.66 -145 145 C-145.14695312 145.59683594 -145.29390625 146.19367188 -145.4453125 146.80859375 C-150.72669865 167.2360241 -157.92661316 189.37143474 -176 202 C-180.54052394 204.16070509 -184.93250568 206 -190 206 C-190 205.34 -190 204.68 -190 204 C-191.98 204 -193.96 204 -196 204 C-196 203.67 -196 203.34 -196 203 C-195.13117188 202.87882813 -194.26234375 202.75765625 -193.3671875 202.6328125 C-192.21476563 202.46523438 -191.06234375 202.29765625 -189.875 202.125 C-188.73804688 201.96257812 -187.60109375 201.80015625 -186.4296875 201.6328125 C-183.13921085 201.02568583 -180.14220897 200.13654367 -177 199 C-177.5053125 198.26394531 -178.010625 197.52789062 -178.53125 196.76953125 C-179.1809375 195.79371094 -179.830625 194.81789063 -180.5 193.8125 C-181.1496875 192.84957031 -181.799375 191.88664063 -182.46875 190.89453125 C-184.05554435 187.89500418 -184.42564371 186.32829734 -184 183 C-183 182 -183 182 -180.64453125 181.6640625 C-178 182 -178 182 -176.19921875 183.8984375 C-175.45091797 185.12433594 -175.45091797 185.12433594 -174.6875 186.375 C-173.91986328 187.59316406 -173.91986328 187.59316406 -173.13671875 188.8359375 C-172 191 -172 191 -172 193 C-167.45924219 188.85989729 -164.28157862 184.17609824 -161 179 C-161.74636719 178.71769531 -162.49273437 178.43539062 -163.26171875 178.14453125 C-166.92673945 176.61264671 -170.15975618 174.80824107 -173 172 C-173.5 169.25 -173.5 169.25 -173 167 C-172 166 -172 166 -169.875 165.625 C-166.25507269 166.09716443 -164.45960547 167.57619566 -161.6484375 169.80859375 C-159.89443093 171.20153189 -159.89443093 171.20153189 -157 172 C-156.01 168.37 -155.02 164.74 -154 161 C-155.2684375 160.62875 -155.2684375 160.62875 -156.5625 160.25 C-160.38427474 158.86026373 -163.51868063 157.08879162 -167 155 C-167.042721 153.33388095 -167.04063832 151.66617115 -167 150 C-166.67 149.67 -166.34 149.34 -166 149 C-161.69187828 149.26376255 -158.58914105 150.05933259 -154.75390625 152.05078125 C-154.04693604 152.41469971 -153.33996582 152.77861816 -152.61157227 153.15356445 C-151.81384399 153.57255005 -151.81384399 153.57255005 -151 154 C-150.88930176 153.40985107 -150.77860352 152.81970215 -150.66455078 152.21166992 C-150.15845008 149.53555054 -149.6418511 146.86156297 -149.125 144.1875 C-148.95097656 143.25873047 -148.77695312 142.32996094 -148.59765625 141.37304688 C-148.42363281 140.48037109 -148.24960937 139.58769531 -148.0703125 138.66796875 C-147.91320801 137.84578857 -147.75610352 137.0236084 -147.59423828 136.17651367 C-147 134 -147 134 -145 131 C-144.34 131 -143.68 131 -143 131 C-142.855625 130.0925 -142.71125 129.185 -142.5625 128.25 C-142.13590527 125.78523044 -141.64925779 123.41152893 -141 121 C-140.34 121 -139.68 121 -139 121 C-139 121.66 -139 122.32 -139 123 C-138.34 123 -137.68 123 -137 123 C-136.67 122.34 -136.34 121.68 -136 121 C-134.88088288 124.35735137 -134.88634414 126.88205386 -134.90234375 130.41796875 C-134.90556641 131.67158203 -134.90878906 132.92519531 -134.91210938 134.21679688 C-134.92467773 136.18229492 -134.92467773 136.18229492 -134.9375 138.1875 C-134.94251683 139.52278481 -134.94707941 140.85807141 -134.95117188 142.19335938 C-134.96297305 145.46228473 -134.97943703 148.73111991 -135 152 C-134.06800781 151.51015625 -133.13601563 151.0203125 -132.17578125 150.515625 C-129.04281232 149.02043195 -127.39638338 148.6118419 -124 149 C-123 150 -123 150 -122.4375 152.25 C-123 155 -123 155 -124.71484375 156.44140625 C-130.32140313 160 -130.32140313 160 -133 160 C-132.67 163.96 -132.34 167.92 -132 172 C-130.783125 171.175 -129.56625 170.35 -128.3125 169.5 C-125.08135925 167.47194357 -122.90670014 166.28969088 -119 167 C-118 168 -118 168 -117.6328125 170.32421875 C-118 173 -118 173 -120.1171875 175.01953125 C-121.02726562 175.61121094 -121.93734375 176.20289063 -122.875 176.8125 C-123.77992188 177.41707031 -124.68484375 178.02164063 -125.6171875 178.64453125 C-128 180 -128 180 -130 180 C-129.36771484 181.57201172 -129.36771484 181.57201172 -128.72265625 183.17578125 C-128.16922506 184.55466913 -127.61584216 185.93357639 -127.0625 187.3125 C-126.78470703 188.00279297 -126.50691406 188.69308594 -126.22070312 189.40429688 C-125.07859872 192.25267773 -123.97069769 195.08790694 -123 198 C-119.40521193 194.67149253 -116.77635232 191.01028669 -114 187 C-112.35 187.33 -110.7 187.66 -109 188 C-108.125 190 -108.125 190 -108 193 C-109.39636898 195.20841125 -110.95610688 197.14678574 -112.65234375 199.1328125 C-114.29262139 201.02164069 -114.29262139 201.02164069 -114 204 C-106.64657821 204.20177072 -100.05112439 204.21211746 -93 202 C-93.45632813 201.19175781 -93.91265625 200.38351562 -94.3828125 199.55078125 C-94.95773437 198.48214844 -95.53265625 197.41351563 -96.125 196.3125 C-96.70507812 195.25675781 -97.28515625 194.20101562 -97.8828125 193.11328125 C-99 190 -99 190 -98.1796875 187.10546875 C-97.79039062 186.41066406 -97.40109375 185.71585938 -97 185 C-94.8125 185 -94.8125 185 -92 186 C-90.03811466 188.50803179 -88.50078257 191.19641043 -87 194 C-84.62811807 189.84920663 -83.25161145 186.81106927 -84 182 C-85.88077873 180.08743288 -85.88077873 180.08743288 -88 179 C-87.67 177.35 -87.34 175.7 -87 174 C-85.35 174 -83.7 174 -82 174 C-81.67 171.03 -81.34 168.06 -81 165 C-82.175625 164.814375 -82.175625 164.814375 -83.375 164.625 C-86 164 -86 164 -88 162 C-87.625 159.375 -87.625 159.375 -87 157 C-84.6875 156.375 -84.6875 156.375 -82 156 C-80.515 156.99 -80.515 156.99 -79 158 C-79.12928146 153.91962892 -79.12928146 153.91962892 -80 150 C-82.90153551 147.45201834 -82.90153551 147.45201834 -86 146 C-85.67 144.35 -85.34 142.7 -85 141 C-83.02 141 -81.04 141 -79 141 C-79.99 138.525 -79.99 138.525 -81 136 C-82.98 136 -84.96 136 -87 136 C-86.47265625 134.140625 -86.47265625 134.140625 -85 132 C-82.44510165 131.07313464 -80.06502863 130.37910609 -77.4375 129.75 C-63.55625133 126.0296354 -51.18070115 120.10808818 -40 111 C-39.32453125 110.47535156 -38.6490625 109.95070313 -37.953125 109.41015625 C-33.80086199 106.06527772 -30.93550278 102.44773148 -28 98 C-30.15263194 95.84736806 -31.63260036 95.26985044 -34.4375 94.1875 C-37.39400856 92.89253973 -38.90928432 92.09872001 -41.125 89.6875 C-42.33178807 85.98093663 -42.06936474 83.7427766 -41 80 C-39 77 -39 77 -36 75 C-29.80309487 74.43342582 -24.79998029 76.82500739 -19 79 C-19 72.07 -19 65.14 -19 58 C-22.6815625 57.13375 -22.6815625 57.13375 -26.4375 56.25 C-31.18659527 55.111001 -35.56652746 53.92762343 -39.9375 51.6875 C-44.45600582 49.48440443 -48.19238561 49.80981086 -53 51 C-54.6792238 51.63437344 -56.35008418 52.29289322 -58 53 C-59.32 53 -60.64 53 -62 53 C-62 52.01 -62 51.02 -62 50 C-61.04222656 49.67128906 -60.08445312 49.34257812 -59.09765625 49.00390625 C-37.31458956 41.31234855 -15.14573495 30.19938059 -4 9 C-2.5820291 6.03235812 -1.24926856 3.04233639 0 0 Z " fill="#512A01" transform="translate(412,168)"/>
<path d="M0 0 C5.87371059 1.45690153 9.42677676 4.87941213 12.75 9.828125 C17.19930733 17.55879648 17.46564082 25.2873439 17.7890625 34.01171875 C17.9140877 37.82169136 17.9140877 37.82169136 18.47973633 40.83154297 C19.02014335 44.12267496 19.30570965 47.35673577 19.53515625 50.68359375 C19.62216797 51.94107422 19.70917969 53.19855469 19.79882812 54.49414062 C19.9293457 56.44610352 19.9293457 56.44610352 20.0625 58.4375 C20.15337891 59.73494141 20.24425781 61.03238281 20.33789062 62.36914062 C20.73922128 68.26236443 21.04834212 74.090528 21 80 C21.99 80 22.98 80 24 80 C23.93941406 79.3702124 23.87882812 78.7404248 23.81640625 78.09155273 C23.54087158 75.20718167 23.27039824 72.32235693 23 69.4375 C22.90460938 68.44685547 22.80921875 67.45621094 22.7109375 66.43554688 C22.22991879 61.26459572 21.88346366 56.19315048 22 51 C23.57725347 50.29866401 25.16211333 49.614417 26.75 48.9375 C27.63171875 48.55464844 28.5134375 48.17179687 29.421875 47.77734375 C32.17380112 46.94759633 33.39291632 46.83612336 36 48 C37.25 50.5625 37.25 50.5625 38 53 C36.02 53 34.04 53 32 53 C31.49758678 55.3295947 31.49758678 55.3295947 32 58 C32.99 58.598125 33.98 59.19625 35 59.8125 C38 62 38 62 38.3984375 64.02734375 C38.375 66.25 38.375 66.25 38 70 C35.69 69.67 33.38 69.34 31 69 C30.67 70.65 30.34 72.3 30 74 C31.98 74.99 33.96 75.98 36 77 C35.67 79.97 35.34 82.94 35 86 C32.525 86.495 32.525 86.495 30 87 C30.27034634 89.43717258 30.27034634 89.43717258 31 92 C31.99 92.66 32.98 93.32 34 94 C33.91214662 95.41777182 33.80395353 96.83429039 33.6875 98.25 C33.60048828 99.43335938 33.60048828 99.43335938 33.51171875 100.640625 C32.9150147 103.39184062 31.81336211 104.88035957 30 107 C29.61328125 106.3503125 29.2265625 105.700625 28.828125 105.03125 C28.04695313 103.77828125 28.04695313 103.77828125 27.25 102.5 C26.73953125 101.6646875 26.2290625 100.829375 25.703125 99.96875 C25.14109375 99.3190625 24.5790625 98.669375 24 98 C22.68 98 21.36 98 20 98 C19.00507444 100.61540311 18.8437968 101.64655197 19.99609375 104.25390625 C20.47175781 105.01574219 20.94742188 105.77757812 21.4375 106.5625 C24 110.70299728 24 110.70299728 24 114 C16.93924474 117.32270836 10.7276932 117.31806054 3 117 C2.3125 115.24609375 2.3125 115.24609375 2 113 C3.25 111.03515625 3.25 111.03515625 5 109.0625 C7.63826636 105.97473664 7.63826636 105.97473664 7.875 102 C7.58625 101.34 7.2975 100.68 7 100 C3.76653268 100.30193668 2.39633489 100.52672425 0.26953125 103.06640625 C-0.21128906 103.89011719 -0.69210937 104.71382813 -1.1875 105.5625 C-2.07880306 107.06995452 -3.00651258 108.55784085 -4 110 C-4.66 110 -5.32 110 -6 110 C-6.79423861 108.43880578 -7.58527123 106.87598036 -8.375 105.3125 C-8.81585938 104.44238281 -9.25671875 103.57226562 -9.7109375 102.67578125 C-13 95.84848485 -13 95.84848485 -13 92 C-10.23230866 90.10395171 -7.34116858 88.53716141 -4.40625 86.9140625 C-1.70564876 85.22329148 -1.70564876 85.22329148 -1.65625 82.2734375 C-1.7696875 81.52320313 -1.883125 80.77296875 -2 80 C-6.63826091 80.44598663 -9.44124272 80.96846602 -13 84 C-13.66 84 -14.32 84 -15 84 C-16.37020997 79.88937009 -16.06276637 76.33087938 -16 72 C-13.03 70.35 -10.06 68.7 -7 67 C-7 65.35 -7 63.7 -7 62 C-10.72908331 62.50199198 -14.36147686 63.04207023 -18 64 C-18.01981934 63.19892822 -18.03963867 62.39785645 -18.06005859 61.57250977 C-18.15599691 57.90220652 -18.26539563 54.23241955 -18.375 50.5625 C-18.4059375 49.30244141 -18.436875 48.04238281 -18.46875 46.74414062 C-18.65966332 40.65082381 -19.04388391 35.00551375 -20.55029297 29.09887695 C-21.38617693 25.19763134 -21.36862423 21.28779104 -21.375 17.3125 C-21.39949219 16.49716797 -21.42398437 15.68183594 -21.44921875 14.84179688 C-21.4755793 9.40713108 -20.64627401 6.28470105 -17 2 C-11.89061454 -1.40625698 -5.96111732 -0.51605677 0 0 Z " fill="#FC9622" transform="translate(295,256)"/>
<path d="M0 0 C-3.61544885 2.99886068 -7.61481716 4.9026122 -11.8125 6.9375 C-13.19501146 7.61123094 -14.57653106 8.28700118 -15.95703125 8.96484375 C-16.63459473 9.29339355 -17.3121582 9.62194336 -18.01025391 9.96044922 C-19.97922583 10.98914645 -21.7800016 12.16236598 -23.63671875 13.37890625 C-27 15 -27 15 -29.9375 14.44140625 C-30.948125 13.96574219 -31.95875 13.49007812 -33 13 C-34.28798279 12.49952861 -35.57993964 12.00920466 -36.875 11.52734375 C-38.94492252 10.73137164 -41.01334332 9.93227052 -43.078125 9.12304688 C-49.40877454 6.70072773 -55.06716816 5.86803233 -61.875 5.9375 C-63.02742188 5.94652344 -64.17984375 5.95554687 -65.3671875 5.96484375 C-66.23601562 5.97644531 -67.10484375 5.98804687 -68 6 C-68 6.99 -68 7.98 -68 9 C-66.88625 8.93039063 -65.7725 8.86078125 -64.625 8.7890625 C-52.35414462 8.26830861 -42.9782462 10.5108769 -32 16 C-33.42010296 19.40972637 -35.02531599 21.03616603 -38 23.1875 C-57.09952283 37.61892859 -69.6052074 55.15250191 -79 77 C-88.77730161 62.33404759 -89.34920815 37.64375399 -89.375 20.625 C-89.37661133 19.63459717 -89.37822266 18.64419434 -89.37988281 17.6237793 C-89.20155411 5.86696443 -88.2212051 -6.92691883 -79.375 -15.5625 C-57.76791026 -28.64047537 -19.49598221 -8.9010829 0 0 Z " fill="#FD9723" transform="translate(189,91)"/>
<path d="M0 0 C24.68061623 -0.25502359 24.68061623 -0.25502359 28.5625 3.4375 C30 6 30 6 30 8 C30.71542969 7.96519531 31.43085938 7.93039063 32.16796875 7.89453125 C41.23391006 7.64823789 50.5593789 8.06751437 58.3125 13.1875 C60.55057828 16.91763047 61.05328548 19.76116819 60 24 C57.48205327 27.58616655 55.84536207 28.7651772 51.625 29.9375 C47.54211841 30.00789451 44.8303935 29.32891203 41 28 C41.55869273 32.83269212 42.4376309 36.8277384 45 41 C48.74381074 43.14025354 52.94386456 43.65087528 57.15234375 44.2890625 C61.87005077 45.16076065 64.63818626 46.63818626 68 50 C68.50421994 53.03704568 68.45467228 55.95802594 68 59 C66.12379387 61.50160818 64.76108697 62.61945652 62 64 C56.82299767 64.30452955 52.85671426 63.58586588 48 62 C48.04640625 62.59167969 48.0928125 63.18335938 48.140625 63.79296875 C48.33369653 68.01985618 48.4219755 70.3248392 46.125 74 C43.6457271 76.33343332 42.61599145 76.91600117 39.25 77.375 C34.7246142 76.8528401 33.2328897 75.15770622 30 72 C28.39274365 68.78548731 28.94251815 65.56387464 29 62 C27.9378125 62.20496094 26.875625 62.40992188 25.78125 62.62109375 C24.35419189 62.89336142 22.92710712 63.16548933 21.5 63.4375 C20.80390625 63.57220703 20.1078125 63.70691406 19.390625 63.84570312 C17.26328938 64.24950294 15.13376677 64.63172461 13 65 C12.26966553 65.12689209 11.53933105 65.25378418 10.78686523 65.38452148 C5.34997686 66.21594317 5.34997686 66.21594317 2.0625 64.1875 C-1.04375427 60.8929879 -1.19369246 58.65423682 -1.5234375 54.16796875 C-0.6834305 50.68883528 1.27599878 49.2333881 4 47 C7.3046875 45.63671875 7.3046875 45.63671875 10.875 44.6875 C12.63457031 44.19830078 12.63457031 44.19830078 14.4296875 43.69921875 C18.04729485 42.99073766 21.32379982 42.87307237 25 43 C24.72285156 42.18015625 24.44570313 41.3603125 24.16015625 40.515625 C23.61681641 38.89914063 23.61681641 38.89914063 23.0625 37.25 C22.52302734 35.64898437 22.52302734 35.64898437 21.97265625 34.015625 C21.21925937 31.67979211 20.57735421 29.38130529 20 27 C18.85402344 27.28875 17.70804687 27.5775 16.52734375 27.875 C14.99749932 28.25042195 13.46754549 28.62539829 11.9375 29 C11.18533203 29.19078125 10.43316406 29.3815625 9.65820312 29.578125 C5.02632682 30.7010041 0.80235043 31.39067932 -4 31 C-7.53421028 28.46458828 -8.77241926 26.69538558 -10.125 22.5625 C-9.99432251 18.83819162 -9.382198 17.00863958 -6.80078125 14.2890625 C-2.55034929 11.24645394 2.83267866 10 8 10 C7.50628906 9.44570312 7.01257813 8.89140625 6.50390625 8.3203125 C5.86324219 7.59585938 5.22257813 6.87140625 4.5625 6.125 C3.60537109 5.04605469 3.60537109 5.04605469 2.62890625 3.9453125 C1 2 1 2 0 0 Z " fill="#8C5E3B" transform="translate(243,84)"/>
<path d="M0 0 C0 0.66 0 1.32 0 2 C0.86625 1.7525 1.7325 1.505 2.625 1.25 C7.02701053 0.92392515 8.5217698 2.4291342 12 5 C15.27933163 6.21958614 17.3061665 5.81551633 20.625 4.875 C26.32232809 3.64632954 30.80684267 4.33896726 36 7 C39.11115268 9.69014808 41.76462346 12.92405605 42.23828125 17.1015625 C42.45803063 24.57304128 41.23036297 29.52620846 36.08203125 35.0625 C28.81191964 41.85651581 18.9433937 48.99460967 9 51 C-0.43231008 48.54321226 -7.1683976 37.86448325 -12 30 C-15.15418283 24.44539127 -16.77166715 18.17299614 -15.59765625 11.82421875 C-13.94580935 6.63409624 -11.45199946 4.06074963 -7 1 C-4 0 -4 0 0 0 Z " fill="#FCC3DE" transform="translate(386,60)"/>
<path d="M0 0 C8.19110765 9.10123072 7.42247869 22.11141667 7.28125 33.57080078 C7.24997826 36.12677678 7.24025233 38.6821323 7.234375 41.23828125 C7.22520584 42.89063239 7.21483034 44.54297738 7.203125 46.1953125 C7.19887512 46.94555695 7.19462524 47.69580139 7.19024658 48.46878052 C6.99754424 63.00245576 6.99754424 63.00245576 4 66 C3.52691406 65.24976563 3.05382812 64.49953125 2.56640625 63.7265625 C-2.09320552 56.51460978 -7.06534711 50.21777395 -13 44 C-13.52722656 43.39800781 -14.05445313 42.79601562 -14.59765625 42.17578125 C-20.3514925 35.86274864 -27.85738268 31.56870117 -35 27 C-31.95318939 24.96879293 -31.39881676 24.75340125 -27.98828125 24.8046875 C-27.23095703 24.81113281 -26.47363281 24.81757812 -25.69335938 24.82421875 C-24.51483398 24.84935547 -24.51483398 24.84935547 -23.3125 24.875 C-22.51521484 24.88402344 -21.71792969 24.89304687 -20.89648438 24.90234375 C-18.930861 24.92588415 -16.96539225 24.96175453 -15 25 C-15 24.01 -15 23.02 -15 22 C-24.74998528 21.67221609 -24.74998528 21.67221609 -34.25 23.5 C-42.52919692 25.36748803 -50.84698601 19.66700167 -58 16 C-55.19755447 12.94600598 -52.63090687 11.0844687 -48.89453125 9.30859375 C-47.41823242 8.60379883 -47.41823242 8.60379883 -45.91210938 7.88476562 C-44.37780273 7.16836914 -44.37780273 7.16836914 -42.8125 6.4375 C-41.80896484 5.95603516 -40.80542969 5.47457031 -39.77148438 4.97851562 C-27.74116513 -0.71181755 -12.66011497 -7.44712645 0 0 Z " fill="#FC9622" transform="translate(363,75)"/>
<path d="M0 0 C0.66 0 1.32 0 2 0 C2 0.66 2 1.32 2 2 C2.66 2 3.32 2 4 2 C4.33 1.34 4.66 0.68 5 0 C6.11911712 3.35735137 6.11365586 5.88205386 6.09765625 9.41796875 C6.09443359 10.67158203 6.09121094 11.92519531 6.08789062 13.21679688 C6.07532227 15.18229492 6.07532227 15.18229492 6.0625 17.1875 C6.05748317 18.52278481 6.05292059 19.85807141 6.04882812 21.19335938 C6.03702695 24.46228473 6.02056297 27.73111991 6 31 C6.93199219 30.51015625 7.86398437 30.0203125 8.82421875 29.515625 C11.95718768 28.02043195 13.60361662 27.6118419 17 28 C18 29 18 29 18.5625 31.25 C18 34 18 34 16.28515625 35.44140625 C10.67859687 39 10.67859687 39 8 39 C8.495 44.94 8.495 44.94 9 51 C10.216875 50.175 11.43375 49.35 12.6875 48.5 C15.91864075 46.47194357 18.09329986 45.28969088 22 46 C23 47 23 47 23.3671875 49.32421875 C23 52 23 52 20.8828125 54.01953125 C19.97273438 54.61121094 19.06265625 55.20289063 18.125 55.8125 C17.22007812 56.41707031 16.31515625 57.02164063 15.3828125 57.64453125 C13 59 13 59 11 59 C11.42152344 60.04800781 11.84304688 61.09601563 12.27734375 62.17578125 C12.83077494 63.55466913 13.38415784 64.93357639 13.9375 66.3125 C14.21529297 67.00279297 14.49308594 67.69308594 14.77929688 68.40429688 C15.92140128 71.25267773 17.02930231 74.08790694 18 77 C21.59478807 73.67149253 24.22364768 70.01028669 27 66 C28.65 66.33 30.3 66.66 32 67 C32.875 69 32.875 69 33 72 C31.60363102 74.20841125 30.04389312 76.14678574 28.34765625 78.1328125 C26.70737861 80.02164069 26.70737861 80.02164069 27 83 C30.3 83.33 33.6 83.66 37 84 C37 84.33 37 84.66 37 85 C34.69 85 32.38 85 30 85 C30 85.66 30 86.32 30 87 C23.78891592 86.26928423 19.70838037 83.15465563 15.875 78.375 C12.69302509 73.88866462 10.76506216 69.18437541 9 64 C8.72285156 63.20722656 8.44570313 62.41445313 8.16015625 61.59765625 C4.01059828 48.85995839 3.7323678 36.24779379 4 23 C0.04 23.495 0.04 23.495 -4 24 C-4.14695312 24.59683594 -4.29390625 25.19367188 -4.4453125 25.80859375 C-9.72669865 46.2360241 -16.92661316 68.37143474 -35 81 C-39.54052394 83.16070509 -43.93250568 85 -49 85 C-49 84.34 -49 83.68 -49 83 C-50.98 83 -52.96 83 -55 83 C-55 82.67 -55 82.34 -55 82 C-54.13117188 81.87882812 -53.26234375 81.75765625 -52.3671875 81.6328125 C-51.21476563 81.46523438 -50.06234375 81.29765625 -48.875 81.125 C-47.73804688 80.96257812 -46.60109375 80.80015625 -45.4296875 80.6328125 C-42.13921085 80.02568583 -39.14220897 79.13654367 -36 78 C-36.5053125 77.26394531 -37.010625 76.52789062 -37.53125 75.76953125 C-38.1809375 74.79371094 -38.830625 73.81789063 -39.5 72.8125 C-40.1496875 71.84957031 -40.799375 70.88664062 -41.46875 69.89453125 C-43.05554435 66.89500418 -43.42564371 65.32829734 -43 62 C-42 61 -42 61 -39.64453125 60.6640625 C-37 61 -37 61 -35.19921875 62.8984375 C-34.70035156 63.71570313 -34.20148438 64.53296875 -33.6875 65.375 C-33.17574219 66.18710937 -32.66398437 66.99921875 -32.13671875 67.8359375 C-31 70 -31 70 -31 72 C-26.45924219 67.85989729 -23.28157862 63.17609824 -20 58 C-21.11955078 57.57654297 -21.11955078 57.57654297 -22.26171875 57.14453125 C-25.92673945 55.61264671 -29.15975618 53.80824107 -32 51 C-32.5 48.25 -32.5 48.25 -32 46 C-31 45 -31 45 -28.875 44.625 C-25.25507269 45.09716443 -23.45960547 46.57619566 -20.6484375 48.80859375 C-18.89443093 50.20153189 -18.89443093 50.20153189 -16 51 C-14.515 45.555 -14.515 45.555 -13 40 C-13.845625 39.7525 -14.69125 39.505 -15.5625 39.25 C-19.38427474 37.86026373 -22.51868063 36.08879162 -26 34 C-26.042721 32.33388095 -26.04063832 30.66617115 -26 29 C-25.67 28.67 -25.34 28.34 -25 28 C-20.69187828 28.26376255 -17.58914105 29.05933259 -13.75390625 31.05078125 C-12.69345093 31.59665894 -12.69345093 31.59665894 -11.61157227 32.15356445 C-11.07975342 32.43288818 -10.54793457 32.71221191 -10 33 C-9.88930176 32.40985107 -9.77860352 31.81970215 -9.66455078 31.21166992 C-9.15845008 28.53555054 -8.6418511 25.86156297 -8.125 23.1875 C-7.95097656 22.25873047 -7.77695312 21.32996094 -7.59765625 20.37304688 C-7.42363281 19.48037109 -7.24960937 18.58769531 -7.0703125 17.66796875 C-6.91320801 16.84578857 -6.75610352 16.0236084 -6.59423828 15.17651367 C-6 13 -6 13 -4 10 C-3.34 10 -2.68 10 -2 10 C-1.855625 9.0925 -1.71125 8.185 -1.5625 7.25 C-1.13590527 4.78523044 -0.64925779 2.41152893 0 0 Z " fill="#5B3408" transform="translate(271,289)"/>
<path d="M0 0 C1.63438907 3.26877815 0.11365045 6.52346497 -0.73046875 9.9296875 C-0.92216141 10.71642853 -1.11385406 11.50316956 -1.31135559 12.31375122 C-1.72050411 13.98076273 -2.13351299 15.64683071 -2.55004883 17.31201172 C-3.18233553 19.85423531 -3.79187899 22.40121504 -4.40039062 24.94921875 C-4.80069586 26.56805206 -5.20234553 28.18655363 -5.60546875 29.8046875 C-5.78482468 30.5652243 -5.9641806 31.32576111 -6.14897156 32.10934448 C-7.51388116 37.43138469 -9.21226166 40.25078741 -13.84350586 43.15673828 C-14.46104736 43.45821777 -15.07858887 43.75969727 -15.71484375 44.0703125 C-16.40126953 44.40933594 -17.08769531 44.74835938 -17.79492188 45.09765625 C-18.50197266 45.43667969 -19.20902344 45.77570313 -19.9375 46.125 C-20.64068359 46.47175781 -21.34386719 46.81851563 -22.06835938 47.17578125 C-28.28729487 50.21822204 -32.91203435 52.27795944 -40 52 C-39.98839844 51.36191406 -39.97679687 50.72382813 -39.96484375 50.06640625 C-39.95582031 49.24011719 -39.94679687 48.41382813 -39.9375 47.5625 C-39.92589844 46.73878906 -39.91429687 45.91507812 -39.90234375 45.06640625 C-39.76732652 43.00836062 -39.76732652 43.00836062 -41 42 C-43.5 41.83333333 -43.5 41.83333333 -46 42 C-47.58272601 43.58272601 -47.34735747 45.38034003 -47.5625 47.5625 C-47.706875 49.026875 -47.85125 50.49125 -48 52 C-50.97 52 -53.94 52 -57 52 C-57.33 51.01 -57.66 50.02 -58 49 C-57.525625 48.0925 -57.05125 47.185 -56.5625 46.25 C-54.77714366 42.53645881 -54.68072136 40.07080268 -55 36 C-56.10796961 34.68879347 -56.10796961 34.68879347 -58.875 34.625 C-62.12281395 34.64308775 -62.12281395 34.64308775 -63.6875 37.125 C-64.120625 38.07375 -64.55375 39.0225 -65 40 C-65.556875 41.093125 -66.11375 42.18625 -66.6875 43.3125 C-67.120625 44.199375 -67.55375 45.08625 -68 46 C-72.38377452 44.61115816 -74.66217816 42.61345869 -77.6875 39.1875 C-78.45449219 38.33542969 -79.22148438 37.48335938 -80.01171875 36.60546875 C-81.91807595 34.10735431 -83.00543713 31.96241454 -84 29 C-83.29875 29.05800781 -82.5975 29.11601562 -81.875 29.17578125 C-75.65606417 29.47151869 -71.80548137 29.02046356 -66.75390625 25.2890625 C-64.9185582 23.940143 -63.05756463 22.9677337 -61 22 C-59.53515625 23.26953125 -58.0703125 24.5390625 -56.60546875 25.80859375 C-53.02859154 28.46296735 -49.40495287 28.13404853 -45.125 28.125 C-43.30355469 28.12886719 -43.30355469 28.12886719 -41.4453125 28.1328125 C-38.48880905 28.01884298 -35.86808185 27.68703101 -33 27 C-32.63648438 27.5775 -32.27296875 28.155 -31.8984375 28.75 C-30.37301092 31.00293772 -28.89951925 33.04914239 -27 35 C-23.74303896 35.67166707 -23.74303896 35.67166707 -21 35 C-20.13617572 32.24293584 -20.13617572 32.24293584 -20 29 C-21.29352333 27.30225062 -22.62517293 25.63260714 -24 24 C-23.9375 21.75 -23.9375 21.75 -23 20 C-22.01 19.67 -21.02 19.34 -20 19 C-19.70867187 19.63808594 -19.41734375 20.27617187 -19.1171875 20.93359375 C-16.65639603 26.3119024 -16.65639603 26.3119024 -11.75 29.125 C-9.0889661 29.31372255 -9.0889661 29.31372255 -8 28 C-7.22190188 22.68299616 -8.99252514 19.96961993 -12.00390625 15.83203125 C-12.33261719 15.22746094 -12.66132813 14.62289063 -13 14 C-11.87050952 10.61152855 -10.87716782 9.80305816 -8.1875 7.5625 C-5.33240495 5.14310168 -2.5947338 2.7028477 0 0 Z " fill="#FA9522" transform="translate(173,415)"/>
<path d="M0 0 C0 0.66 0 1.32 0 2 C0.9075 2 1.815 2 2.75 2 C12.70588235 2 12.70588235 2 16.75 5.125 C19 8 19 8 19.75 11.4375 C18.85591981 15.68438091 17.77551606 17.09170685 14.3671875 19.64453125 C3.81512167 25.68672076 -8.82393938 26.91846623 -20.5 23.75 C-24.43950922 22.37861091 -27.69489436 20.57959465 -31 18 C-31.928125 17.3503125 -31.928125 17.3503125 -32.875 16.6875 C-34.81081145 13.78378282 -34.40708089 11.37295594 -34 8 C-26.95953537 -2.6421838 -11.2021706 -5.13690696 0 0 Z " fill="#F9FDBA" transform="translate(188,218)"/>
<path d="M0 0 C0.33 1.32 0.66 2.64 1 4 C1.76183594 3.69964844 2.52367187 3.39929688 3.30859375 3.08984375 C9.77631521 0.70784895 15.25815435 -1.19297953 22 1 C26.15052302 3.03157179 29.97085786 5.4705491 33 9 C33.54551833 12.58483474 33.30922679 14.43532499 31.5625 17.625 C23.97408262 24.65816733 13.16350995 26.45234344 3.16015625 26.25 C-5.38664596 25.57386237 -12.4846416 23.66552905 -19 18 C-21 15 -21 15 -21.0625 11.6875 C-19.64283838 6.76043909 -17.28706963 4.66769939 -13 2 C-8.54192949 0.27934121 -4.75991794 -0.23219112 0 0 Z " fill="#F9FCBA" transform="translate(349,217)"/>
<path d="M0 0 C3.98783902 1.06991664 7.82037155 2.49727505 11.6875 3.9375 C18.54261504 6.39042014 24.629859 8.45081116 31.9375 8.5625 C38.79508897 8.67095335 42.25664157 11.24659208 47 16 C47.81984375 16.74443359 47.81984375 16.74443359 48.65625 17.50390625 C50.0625 18.8125 50.0625 18.8125 52 21 C52 21.66 52 22.32 52 23 C37.05434607 29.03070246 18.67615365 29.06954676 3.61328125 23.16796875 C-3.11113673 20.16258613 -8.60047737 16.79904527 -12 10 C-12.27466391 6.84136499 -12.23149878 4.58646357 -11.0625 1.625 C-7.72591018 -1.00382834 -4.03439068 -0.45925314 0 0 Z " fill="#FC0073" transform="translate(248,185)"/>
<path d="M0 0 C8.71439217 0.388265 16.8545298 3.92715884 24.90039062 7.05639648 C37.100028 11.4496845 47.5528024 7.38884367 59 2.8125 C59.66 2.4825 60.32 2.1525 61 1.8125 C65.07909806 1.42767943 67.29089873 1.37128143 70.8125 3.5625 C74.21387283 7.06105491 74.21387283 7.06105491 75 9.8125 C74.88765973 15.76653421 73.1142024 19.66002595 69 23.8125 C56.42373309 34.120107 38.56337915 35.33173656 23 33.8125 C12.14672813 32.18955837 1.1837094 28.4752084 -6 19.8125 C-8.80699005 15.36003303 -9.65590138 12.05971108 -9 6.8125 C-7.16855916 1.7760377 -5.17408782 0.36540168 0 0 Z M-5.0625 5.4375 C-6.28998383 8.54712571 -6.46578832 10.48544058 -6 13.8125 C-1.51516772 22.11774497 5.76868126 25.97185081 14.375 29 C27.69333122 31.9851432 45.65405634 33.56729217 58 26.8125 C56.4561393 22.97916407 54.07543723 20.82941792 51 18.125 C50.113125 17.33738281 49.22625 16.54976562 48.3125 15.73828125 C44.73033251 12.75515866 42.95569779 12.78900838 38.375 12.75 C29.94483179 12.26078817 22.4915101 9.53784952 14.61669922 6.60717773 C4.59808295 2.75087247 4.59808295 2.75087247 -5.0625 5.4375 Z " fill="#572A03" transform="translate(242,181.1875)"/>
<path d="M0 0 C9.30264916 0.14546825 17.26733782 3.34729196 25.50976562 7.46850586 C24.08966267 10.87823223 22.48444963 12.50467189 19.50976562 14.65600586 C11.55667499 20.64316398 4.48369561 27.16779061 -1.89648438 34.81616211 C-2.42242187 35.36143555 -2.94835937 35.90670898 -3.49023438 36.46850586 C-4.15023437 36.46850586 -4.81023437 36.46850586 -5.49023438 36.46850586 C-6.1205557 35.26293982 -6.74418407 34.05387397 -7.36523438 32.84350586 C-7.71328125 32.17061523 -8.06132813 31.49772461 -8.41992188 30.80444336 C-11.42139468 24.25378373 -11.76971432 18.76750822 -11.67773438 11.65600586 C-11.67676758 10.20677734 -11.67676758 10.20677734 -11.67578125 8.72827148 C-11.61548774 -0.80480274 -8.93296978 0.11408761 0 0 Z " fill="#F8FCBA" transform="translate(131.490234375,99.531494140625)"/>
<path d="M0 0 C3.15789874 1.51315981 4.4941723 2.60471124 5.6953125 5.91796875 C6.79535867 11.56820589 5.43716199 15.61268338 2.6640625 20.5546875 C-0.01523225 24.49186711 -2.99894875 28.35119271 -7 31 C-10.53763384 30.65149704 -12.99562705 28.8165976 -16 27 C-17.134375 26.5875 -18.26875 26.175 -19.4375 25.75 C-24.55307381 23.23708655 -27.82682115 19.76042082 -30.0625 14.5 C-29.96775302 10.71012079 -28.87995918 8.27476761 -27 5 C-22.73156746 1.84949027 -19.14507128 1.74670504 -14.05078125 2.08984375 C-8.93259939 1.86561864 -5.80804689 -0.78459581 0 0 Z " fill="#FCC5DE" transform="translate(426,21)"/>
<path d="M0 0 C1.77697266 -0.02513672 1.77697266 -0.02513672 3.58984375 -0.05078125 C7.40646176 0.3484825 9.79655697 1.33285078 13.0625 3.3125 C14.10365841 4.61394802 15.11627841 5.94047869 16.0625 7.3125 C16.7225 7.3125 17.3825 7.3125 18.0625 7.3125 C18.68125 6.52875 19.3 5.745 19.9375 4.9375 C22.09957572 2.26670058 22.92969464 1.47279828 26.0625 0.3125 C34.07010297 -0.48088002 42.50132469 -0.98028581 49.0625 4.3125 C55.52255506 10.15226874 59.63893529 18.45209701 60.26782227 27.15332031 C60.30447998 28.22163086 60.3411377 29.28994141 60.37890625 30.390625 C60.42080078 31.55078125 60.46269531 32.7109375 60.50585938 33.90625 C60.54517578 35.1128125 60.58449219 36.319375 60.625 37.5625 C60.66818359 38.78453125 60.71136719 40.0065625 60.75585938 41.265625 C60.86187355 44.2811392 60.96393936 47.29673448 61.0625 50.3125 C64.3625 49.6525 67.6625 48.9925 71.0625 48.3125 C69.0625 52.3125 69.0625 52.3125 65.4375 53.5625 C64.32375 53.81 63.21 54.0575 62.0625 54.3125 C62.12308594 54.90675781 62.18367188 55.50101562 62.24609375 56.11328125 C62.52233621 58.84595666 62.79245488 61.57920549 63.0625 64.3125 C63.15789062 65.24707031 63.25328125 66.18164062 63.3515625 67.14453125 C63.88230465 72.56568323 64.1652694 77.86572171 64.0625 83.3125 C63.0725 83.3125 62.0825 83.3125 61.0625 83.3125 C59.84654593 73.32514906 58.83422466 63.38386999 58.40454102 53.32861328 C58.26688367 50.27913524 58.06387692 47.32064502 57.5546875 44.30859375 C57.05933256 41.29321883 56.91563 38.34938078 56.82324219 35.2980957 C56.51120184 26.03985865 55.41342904 17.49457701 49.75 9.8125 C43.4762459 3.97644968 37.62486308 3.72283737 29.26171875 3.8828125 C26.18125079 4.29655057 24.91206796 4.54445316 22.75 6.6875 C20.19339452 10.66444185 19.94271095 12.6776441 19.96484375 17.4140625 C19.96806641 18.62578125 19.97128906 19.8375 19.97460938 21.0859375 C19.98298828 22.35695313 19.99136719 23.62796875 20 24.9375 C20.00451172 26.21625 20.00902344 27.495 20.01367188 28.8125 C20.02548797 31.97921292 20.04196185 35.14583356 20.0625 38.3125 C19.4025 38.3125 18.7425 38.3125 18.0625 38.3125 C18.0625 37.6525 18.0625 36.9925 18.0625 36.3125 C17.4025 36.3125 16.7425 36.3125 16.0625 36.3125 C15.918125 37.22 15.77375 38.1275 15.625 39.0625 C15.439375 40.135 15.25375 41.2075 15.0625 42.3125 C14.876875 43.4571875 14.876875 43.4571875 14.6875 44.625 C14.48125 45.181875 14.275 45.73875 14.0625 46.3125 C13.0725 46.6425 12.0825 46.9725 11.0625 47.3125 C11.5154738 43.16024015 12.05816687 39.18353019 13.078125 35.1328125 C14.17557466 30.26845457 14.42952211 25.59921515 14.4375 20.625 C14.47423828 19.40200195 14.47423828 19.40200195 14.51171875 18.15429688 C14.53805316 12.72502003 13.69791162 9.60336688 10.0625 5.3125 C5.19131639 2.8769082 -1.60457719 3.81718209 -6.9375 4.3125 C-11.94161235 6.17138274 -15.27967047 9.51398471 -18.9375 13.3125 C-19.5975 13.3125 -20.2575 13.3125 -20.9375 13.3125 C-19.56548559 8.12933445 -16.2337988 5.24844768 -11.9375 2.3125 C-7.90782602 0.28395663 -4.48759427 0.01461757 0 0 Z " fill="#5F3303" transform="translate(254.9375,252.6875)"/>
<path d="M0 0 C3.66182182 2.64897749 4.84097547 4.01051403 5.5625 8.5 C4.8727945 12.79150087 4.30669165 14.15470719 1 17 C-7.38552599 21.10905992 -16.95438215 22.86627835 -26 25 C-28.66092028 18.56403429 -29.11882473 12.89183408 -29 6 C-24.0468541 4.01874164 -19.03740926 2.31752814 -13.9375 0.75 C-12.79152344 0.39421875 -11.64554688 0.0384375 -10.46484375 -0.328125 C-6.60096951 -1.07737682 -3.82485238 -0.87346388 0 0 Z " fill="#8D5F3B" transform="translate(134,207)"/>
<path d="M0 0 C0.66 0 1.32 0 2 0 C3.26171875 1.5390625 3.26171875 1.5390625 4.6875 3.625 C10.38413471 11.3806593 15.57418824 14.83794257 25 17 C25 17.33 25 17.66 25 18 C25.62648437 18.12117188 26.25296875 18.24234375 26.8984375 18.3671875 C27.71570313 18.53476562 28.53296875 18.70234375 29.375 18.875 C30.18710938 19.03742188 30.99921875 19.19984375 31.8359375 19.3671875 C34 20 34 20 36 22 C36.25 25 36.25 25 36 28 C33.55034008 30.44965992 32.19033087 30.25754249 28.84350586 30.27734375 C28.13202393 30.26832031 27.42054199 30.25929688 26.6875 30.25 C25.95217041 30.24613281 25.21684082 30.24226563 24.45922852 30.23828125 C14.93208527 30.09574529 5.46292576 29.04787515 -4 28 C-3.33556363 21.60721896 -2.46606595 15.28114356 -1.4375 8.9375 C-1.29892578 8.07189453 -1.16035156 7.20628906 -1.01757812 6.31445312 C-0.68029303 4.20932889 -0.34042164 2.1046193 0 0 Z " fill="#8E5F3B" transform="translate(188,356)"/>
<path d="M0 0 C2.96894936 1.08841321 4.29545744 1.95191018 5.91796875 4.703125 C6.76019317 11.33564233 6.76019317 11.33564233 4.46484375 15.0625 C0.94099075 18.71606538 -3.07699961 21.27977263 -7.33203125 24.015625 C-8.1725 24.56541016 -9.01296875 25.11519531 -9.87890625 25.68164062 C-11.94190533 27.02962298 -14.00955768 28.36977423 -16.08203125 29.703125 C-20.05999369 27.89553216 -22.08020881 25.62042084 -24.83203125 22.203125 C-25.63125 21.2234375 -26.43046875 20.24375 -27.25390625 19.234375 C-29.08203125 16.703125 -29.08203125 16.703125 -29.08203125 14.703125 C-27.34166631 13.40233677 -25.53621234 12.18823605 -23.70703125 11.015625 C-19.60315182 8.38258368 -15.72892703 5.64775744 -11.89453125 2.640625 C-7.76088298 -0.27489504 -4.97088659 -1.09095564 0 0 Z " fill="#8C5E3B" transform="translate(147.08203125,241.296875)"/>
<path d="M0 0 C5.77016096 0.35327516 9.98672841 2.2003808 15 5 C15 4.34 15 3.68 15 3 C15.99 2.67 16.98 2.34 18 2 C17.46580197 7.71083129 16.34631426 12.54896379 14.25 17.875 C13.84575806 18.91926147 13.84575806 18.91926147 13.43334961 19.98461914 C8.15815586 33.39894992 0.75635727 47.88135813 -12.9140625 54.38671875 C-16.71201676 55.81470947 -19.92252649 57 -24 57 C-24 56.34 -24 55.68 -24 55 C-25.98 55 -27.96 55 -30 55 C-30 54.67 -30 54.34 -30 54 C-29.13117188 53.87882812 -28.26234375 53.75765625 -27.3671875 53.6328125 C-25.63855469 53.38144531 -25.63855469 53.38144531 -23.875 53.125 C-22.16957031 52.88136719 -22.16957031 52.88136719 -20.4296875 52.6328125 C-17.13921085 52.02568583 -14.14220897 51.13654367 -11 50 C-11.5053125 49.26394531 -12.010625 48.52789062 -12.53125 47.76953125 C-13.1809375 46.79371094 -13.830625 45.81789063 -14.5 44.8125 C-15.1496875 43.84957031 -15.799375 42.88664062 -16.46875 41.89453125 C-18.05554435 38.89500418 -18.42564371 37.32829734 -18 34 C-17 33 -17 33 -14.64453125 32.6640625 C-12 33 -12 33 -10.19921875 34.8984375 C-9.70035156 35.71570313 -9.20148438 36.53296875 -8.6875 37.375 C-8.17574219 38.18710937 -7.66398437 38.99921875 -7.13671875 39.8359375 C-6 42 -6 42 -6 44 C-1.45924219 39.85989729 1.71842138 35.17609824 5 30 C4.25363281 29.71769531 3.50726563 29.43539063 2.73828125 29.14453125 C-0.92673945 27.61264671 -4.15975618 25.80824107 -7 23 C-7.5 20.25 -7.5 20.25 -7 18 C-6 17 -6 17 -3.875 16.625 C-0.25507269 17.09716443 1.54039453 18.57619566 4.3515625 20.80859375 C6.10556907 22.20153189 6.10556907 22.20153189 9 23 C10.485 17.555 10.485 17.555 12 12 C11.154375 11.7525 10.30875 11.505 9.4375 11.25 C5.61572526 9.86026373 2.48131937 8.08879162 -1 6 C-1.042721 4.33388095 -1.04063832 2.66617115 -1 1 C-0.67 0.67 -0.34 0.34 0 0 Z " fill="#5B3308" transform="translate(246,317)"/>
<path d="M0 0 C4.52469426 3.1476134 5.87988808 6.70365289 7.32421875 11.81640625 C8.00873882 14.02823698 8.91294366 15.96003471 10 18 C8.75312408 18.96239452 7.50235031 19.91974009 6.25 20.875 C5.55390625 21.40867187 4.8578125 21.94234375 4.140625 22.4921875 C0.50623972 25.05217421 -2.07446907 26.28037584 -6.5625 26.25 C-7.70912109 26.25773437 -7.70912109 26.25773437 -8.87890625 26.265625 C-11 26 -11 26 -14 24 C-16.71992418 18.60492405 -17.86312508 12.94597278 -17 7 C-12.42520307 -0.23293582 -8.28774654 -2.03961873 0 0 Z " fill="#8A5D3A" transform="translate(102,419)"/>
<path d="M0 0 C-0.0625 1.8125 -0.0625 1.8125 -1 4 C-3.31979381 5.03101947 -5.65429915 6.02936517 -8 7 C-10.19702511 8.84266622 -10.85119909 10.09231447 -11.3125 12.90625 C-11.93890079 24.02486406 -6.07428421 32.02261567 1 40 C1.55300781 40.65871094 2.10601562 41.31742188 2.67578125 41.99609375 C4.29986034 43.89984765 4.29986034 43.89984765 7 46 C15.7765431 45.37528079 26.21087253 38.78717994 32.4453125 32.8203125 C35.81398979 28.87608231 37.68211331 24.98679182 38.5 19.875 C37.83779443 16.06731795 36.47893764 13.94792584 34 11 C29.75166612 8.3296187 24.86680011 8.55601122 20 9 C16.58528076 9.88460028 16.58528076 9.88460028 14 11 C13.34 9.68 12.68 8.36 12 7 C20.60010892 4.3673136 27.54696747 2.99517918 36 7 C39.11977934 9.67206614 41.76561936 12.93283961 42.23828125 17.1015625 C42.45803063 24.57304128 41.23036297 29.52620846 36.08203125 35.0625 C28.81191964 41.85651581 18.9433937 48.99460967 9 51 C-0.43231008 48.54321226 -7.1683976 37.86448325 -12 30 C-15.15418283 24.44539127 -16.77166715 18.17299614 -15.59765625 11.82421875 C-13.94580935 6.63409624 -11.45199946 4.06074963 -7 1 C-4 0 -4 0 0 0 Z " fill="#522B06" transform="translate(386,60)"/>
<path d="M0 0 C1.02104551 0.97850195 2.0206121 1.97980427 3 3 C4.7325 3.4640625 4.7325 3.4640625 6.5 3.9375 C10 5 10 5 11.9375 6.75 C13.38526082 9.81584645 13.54792259 11.64397416 13 15 C9.29080036 20.31651949 4.12549561 21.82275631 -2 23 C-3.66608666 23.04396618 -5.3342918 23.0565151 -7 23 C-10.84081773 16.5529131 -13.70701279 10.61910587 -12 3 C-8.46365762 -1.60796128 -5.39003434 -1.49723176 0 0 Z " fill="#552E09" transform="translate(448,53)"/>
<path d="M0 0 C3.60165038 0.91233859 6.93134317 2.16411567 10.359375 3.59765625 C8.77972692 10.21542434 7.05694549 15.86004686 3.359375 21.59765625 C1.94146092 21.14319661 0.52509454 20.68390681 -0.890625 20.22265625 C-2.07398438 19.83980469 -2.07398438 19.83980469 -3.28125 19.44921875 C-6.73835338 18.20145627 -9.0828884 17.27078663 -11.453125 14.41015625 C-13.05510172 10.61600087 -12.76671615 8.53897527 -11.640625 4.59765625 C-8.2628861 -0.46895209 -5.64582493 -0.97570464 0 0 Z " fill="#8D5F3A" transform="translate(382.640625,243.40234375)"/>
<path d="M0 0 C8.54884894 2.14593555 16.74050475 4.9494127 25 8 C26.1171875 14.75 26.1171875 14.75 25.0625 17 C19.96045647 19.47371808 12.97035348 16.50457977 7.8984375 14.77929688 C7.10695312 14.50150391 6.31546875 14.22371094 5.5 13.9375 C4.67757812 13.65583984 3.85515625 13.37417969 3.0078125 13.08398438 C1.00282657 12.39622757 -0.99893723 11.69908924 -3 11 C-2.69217504 9.35328588 -2.37860766 7.70764424 -2.0625 6.0625 C-1.88847656 5.14597656 -1.71445313 4.22945313 -1.53515625 3.28515625 C-1 1 -1 1 0 0 Z " fill="#8E5F3B" transform="translate(176,420)"/>
<path d="M0 0 C0.33 0 0.66 0 1 0 C1 4.62 1 9.24 1 14 C-15.80146163 20.61875761 -15.80146163 20.61875761 -24 20 C-26 17 -26 17 -26.1875 14.0625 C-24.84181217 10.59204192 -24.46435178 10.36716697 -21.25 8.875 C-5.8960084 3 -5.8960084 3 0 3 C0 2.01 0 1.02 0 0 Z " fill="#8D5F3A" transform="translate(323,419)"/>
<path d="M0 0 C1.01031065 2.55885226 2.00840145 5.12140376 3 7.6875 C3.42925781 8.7693457 3.42925781 8.7693457 3.8671875 9.87304688 C5.3390502 13.71040321 6.39614998 16.81566589 6 21 C-11.2113685 17.02977021 -11.2113685 17.02977021 -19 13 C-20.33284001 12.3323476 -21.66611508 11.66556234 -23 11 C-19.54515902 9.16002803 -16.0855752 7.32916118 -12.625 5.5 C-11.64015625 4.97535156 -10.6553125 4.45070312 -9.640625 3.91015625 C-8.22910156 3.16572266 -8.22910156 3.16572266 -6.7890625 2.40625 C-5.91975098 1.94541016 -5.05043945 1.48457031 -4.15478516 1.00976562 C-2 0 -2 0 0 0 Z " fill="#8C5E3A" transform="translate(387,205)"/>
<path d="M0 0 C3.15789874 1.51315981 4.4941723 2.60471124 5.6953125 5.91796875 C6.79535867 11.56820589 5.43716199 15.61268338 2.6640625 20.5546875 C-0.01523225 24.49186711 -2.99894875 28.35119271 -7 31 C-9.24609375 30.70703125 -9.24609375 30.70703125 -11 30 C-10.60167969 29.54109375 -10.20335937 29.0821875 -9.79296875 28.609375 C-6.39984291 24.68325173 -6.39984291 24.68325173 -3.25 20.5625 C-2.8375 20.046875 -2.425 19.53125 -2 19 C-1.34 19 -0.68 19 0 19 C1.61692353 14.24434256 2.36514082 10.89175459 1 6 C-0.87217348 3.71012192 -0.87217348 3.71012192 -3.875 3.6875 C-6.9902836 3.70340978 -6.9902836 3.70340978 -8.8125 5.515625 C-11.7342187 7.49821984 -13.63728405 7.2381712 -17.125 7.0625 C-20.2338134 6.87100961 -20.2338134 6.87100961 -23 7 C-25.23593611 8.85870778 -25.23593611 8.85870778 -25.5 11.6875 C-24.80070743 16.32031328 -22.35404712 18.84580543 -19 22 C-18.34 22.33 -17.68 22.66 -17 23 C-17 23.99 -17 24.98 -17 26 C-21.21107642 25.50628759 -23.0155272 24.46845029 -25.75 21.25 C-26.63945312 20.23679687 -26.63945312 20.23679687 -27.546875 19.203125 C-29.18897014 16.71349689 -29.72284982 14.95940022 -30 12 C-28.79092699 7.87492737 -27.8614932 5.63586403 -24.375 3.0625 C-20.70123204 1.90594342 -17.85720958 1.8334522 -14.05078125 2.08984375 C-8.93259939 1.86561864 -5.80804689 -0.78459581 0 0 Z " fill="#542C07" transform="translate(426,21)"/>
<path d="M0 0 C18.82758621 4.82758621 18.82758621 4.82758621 23 9 C22.8125 12 22.8125 12 22 15 C19 17 19 17 15.80859375 16.78515625 C11.75316628 15.94911428 7.96310836 14.80405268 4.0625 13.4375 C3.37865234 13.20353516 2.69480469 12.96957031 1.99023438 12.72851562 C0.32491499 12.15788171 -1.33782493 11.57972902 -3 11 C-2.01 7.37 -1.02 3.74 0 0 Z " fill="#8E5F3B" transform="translate(170,443)"/>
<path d="M0 0 C-1 3 -1 3 -3.375 5.125 C-8.04884372 10.2439717 -9.6378777 16.62528278 -9.33984375 23.50390625 C-7.18068258 39.36257275 1.71674256 52.25049862 12 64 C17 69.77906977 17 69.77906977 17 72 C14.05379831 71.66822053 13.03457979 71.03522979 10.921875 68.8828125 C8.59888929 65.93312201 6.28215719 62.9814673 4 60 C3.28972656 59.09121094 2.57945312 58.18242187 1.84765625 57.24609375 C-7.13750011 45.39810446 -14.98792827 31.33544665 -13 16 C-11.41523979 10.29486325 -9.16036616 5.29904503 -5 1 C-3 0 -3 0 0 0 Z " fill="#61360D" transform="translate(323,137)"/>
<path d="M0 0 C0.66 0 1.32 0 2 0 C1.835 0.7425 1.67 1.485 1.5 2.25 C0.05404954 13.09462845 0.5672317 21.42590094 6.9375 30.4375 C17.47851708 43.21848321 33.74681248 50.42671995 49 56 C48.67 56.99 48.34 57.98 48 59 C29.83693868 53.81055391 9.71876138 43.19633417 0.19140625 26.39453125 C-3.32831753 19.32046345 -4.73363188 11.59171438 -2.32421875 3.8203125 C-1.5 2.1875 -1.5 2.1875 0 0 Z " fill="#5D340A" transform="translate(132,158)"/>
<path d="M0 0 C0.99 0 1.98 0 3 0 C6.93396951 7.86793903 3.9924867 20.14462476 1.33251953 28.12841797 C-5.10444815 45.83116569 -17.78273836 60.02560259 -30 74 C-30.99 73.67 -31.98 73.34 -33 73 C-33 71 -33 71 -31.0625 69 C-30.60359375 68.55398437 -30.1446875 68.10796875 -29.671875 67.6484375 C-16.24802314 54.41277048 -0.13494779 33.88744817 0.1953125 14.16015625 C0.18219026 12.46082653 0.15859335 10.76154831 0.125 9.0625 C0.11597656 8.18787109 0.10695312 7.31324219 0.09765625 6.41210938 C0.0742957 4.27461936 0.03843247 2.13727214 0 0 Z " fill="#5D340C" transform="translate(227,148)"/>
<path d="M0 0 C0 0.66 0 1.32 0 2 C-3.12290635 1.51421457 -5.99580359 1.0013988 -9 0 C-18.54047631 -0.75678681 -27.38546893 -0.58307365 -35.0625 5.68359375 C-38.01317139 8.54205665 -40.6864296 11.59769059 -43 15 C-46.19366028 14.53263508 -49.11907476 13.96030841 -52.1875 12.9375 C-60.35380818 10.92939143 -67.95906223 11.89090157 -76 14 C-75.505 12.515 -75.505 12.515 -75 11 C-65.99607322 6.65882101 -57.29636197 7.25610809 -48.06640625 10.24609375 C-46 11 -46 11 -44 12 C-43.73445313 11.4121875 -43.46890625 10.824375 -43.1953125 10.21875 C-39.39408305 3.16287311 -32.67469724 -1.14982519 -25.21484375 -3.58203125 C-16.33451953 -5.25785963 -7.6344081 -4.9857359 0 0 Z " fill="#5E330A" transform="translate(220,135)"/>
<path d="M0 0 C1.20366211 0.00966797 1.20366211 0.00966797 2.43164062 0.01953125 C3.26501953 0.03628906 4.09839844 0.05304688 4.95703125 0.0703125 C6.22450195 0.08384766 6.22450195 0.08384766 7.51757812 0.09765625 C9.60168368 0.12120547 11.68564342 0.15707603 13.76953125 0.1953125 C16.17143944 5.62571363 17.92035023 9.93962199 17.83203125 15.9453125 C17.82300781 16.74453125 17.81398438 17.54375 17.8046875 18.3671875 C17.79308594 18.97046875 17.78148437 19.57375 17.76953125 20.1953125 C14.27046068 18.68887893 11.94773691 16.63112385 9.20703125 14.0078125 C4.12994263 9.33174578 -1.30165353 5.70075268 -7.23046875 2.1953125 C-4.12961304 0.12807536 -3.50115194 -0.04966173 0 0 Z " fill="#F6F9B7" transform="translate(335.23046875,99.8046875)"/>
<path d="M0 0 C2.8125 -0.1875 2.8125 -0.1875 6 0 C7 1 8 2 9 3 C11.32817964 3.36760731 13.6618385 3.70241581 16 4 C18 6 18 6 18.3125 8.4375 C18 11 18 11 16.9375 12.6875 C12.74592335 15.52695515 7.98386712 16.30205255 3 16 C0.30757061 11.26420902 -1.66809211 7.61197375 -1 2 C-0.67 1.34 -0.34 0.68 0 0 Z " fill="#F9C2DB" transform="translate(440,56)"/>
<path d="M0 0 C1.20272819 2.40545638 1.10071472 3.94996953 1.0625 6.625 C1.05347656 7.44226563 1.04445313 8.25953125 1.03515625 9.1015625 C1.02355469 9.72804688 1.01195312 10.35453125 1 11 C-9.63914373 15.79510703 -9.63914373 15.79510703 -16 15 C-18 13 -18 13 -18.3125 10.0625 C-18 7 -18 7 -16.85546875 5.4453125 C-14.39192597 3.52634234 -11.96875256 2.76206424 -9 1.8125 C-7.948125 1.46832031 -6.89625 1.12414062 -5.8125 0.76953125 C-3 0 -3 0 0 0 Z " fill="#8D5E3A" transform="translate(325,446)"/>
<path d="M0 0 C5.69101138 3.29541111 9.72015879 8.16716134 11.6875 14.4375 C12.40719487 22.61585075 12.70594447 31.99593618 8.6875 39.4375 C7.6975 39.7675 6.7075 40.0975 5.6875 40.4375 C6.14572468 36.96808454 6.57881683 33.76354951 7.6875 30.4375 C8.63264749 20.07400773 8.63264749 20.07400773 6.1875 10.25 C2.6470294 6.26697057 -0.98321879 3.11497001 -6.328125 2.02734375 C-12.61719815 1.74260225 -18.15362982 3.99825321 -23.3125 7.4375 C-24.3025 7.4375 -25.2925 7.4375 -26.3125 7.4375 C-24.50594558 3.05683954 -22.05514784 1.55998835 -17.9453125 -0.57421875 C-11.98784219 -2.81047986 -5.8186061 -2.55396833 0 0 Z " fill="#FFF8FB" transform="translate(213.3125,137.5625)"/>
<path d="M0 0 C4.97648388 2.55067095 9.16306647 6.87397282 11.1796875 12.1171875 C12.51656029 22.09231527 10.80432366 29.80304192 5.1796875 38.1171875 C3.06722101 40.74217223 0.96728838 43.20029004 -1.8203125 45.1171875 C-2.8103125 45.1171875 -3.8003125 45.1171875 -4.8203125 45.1171875 C-3.51575184 42.25957842 -2.08776287 40.15394799 0.0546875 37.8671875 C6.19169909 30.72238234 7.98858015 24.97729912 7.69140625 15.40625 C7.05347728 11.3059737 5.96560222 9.16573433 2.9296875 6.3828125 C-4.05830285 1.32899805 -10.40334314 1.77544589 -18.8203125 2.1171875 C-18.4903125 1.1271875 -18.1603125 0.1371875 -17.8203125 -0.8828125 C-11.72755015 -2.91373328 -5.93644456 -2.15683972 0 0 Z " fill="#FFF8FB" transform="translate(395.8203125,146.8828125)"/>
<path d="M0 0 C0 4.29 0 8.58 0 13 C-3.69782533 14.84891267 -7.96339864 14.46801175 -12 14 C-14.6875 12.3125 -14.6875 12.3125 -16 10 C-16 6.96228169 -15.51582677 5.58030511 -13.5 3.3125 C-9.41312399 1.16689009 -4.6335274 0 0 0 Z " fill="#91623A" transform="translate(320,373)"/>
<path d="M0 0 C0.66 0 1.32 0 2 0 C3.26171875 1.5390625 3.26171875 1.5390625 4.6875 3.625 C9.45034781 10.15657528 14.41177551 14.21248896 22 17 C22 17.33 22 17.66 22 18 C13.92138585 18.09579384 6.01659634 18.12513633 -2 17 C-1.34 11.39 -0.68 5.78 0 0 Z " fill="#F69222" transform="translate(188,356)"/>
<path d="M0 0 C3 0.25 3 0.25 5 2.25 C5.72729051 8.31075425 3.96053215 12.16158537 1 17.25 C-0.46067199 16.79917531 -1.91848032 16.33906463 -3.375 15.875 C-4.59316406 15.49214844 -4.59316406 15.49214844 -5.8359375 15.1015625 C-8 14.25 -8 14.25 -10 12.25 C-9.21331482 10.62258256 -8.4204759 8.99813869 -7.625 7.375 C-7.18414062 6.47007812 -6.74328125 5.56515625 -6.2890625 4.6328125 C-4.48811315 1.30378491 -3.86062817 0.32171901 0 0 Z " fill="#8C5E3A" transform="translate(114,448.75)"/>
<path d="M0 0 C3.92393181 3.65331583 6.77546944 6.70978827 7.3125 12.1875 C7 15 7 15 5 17 C2.1875 17.125 2.1875 17.125 -1 16 C-3.17609947 13.57536126 -4.85991215 11.0572505 -6 8 C-5.66482711 4.62965039 -5.09055661 4.07951312 -2.4375 1.75 C-1.633125 1.1725 -0.82875 0.595 0 0 Z " fill="#8E5F3A" transform="translate(159,428)"/>
<path d="M0 0 C0.33 1.32 0.66 2.64 1 4 C-9.5 13 -9.5 13 -13 13 C-13.99 10.69 -14.98 8.38 -16 6 C-14.28336882 4.79444991 -12.55111532 3.61112276 -10.8125 2.4375 C-9.84957031 1.77621094 -8.88664063 1.11492187 -7.89453125 0.43359375 C-4.63481317 -1.18086851 -3.38479047 -1.13238877 0 0 Z " fill="#8F603A" transform="translate(206,345)"/>
<path d="M0 0 C1 1.33333333 2 2.66666667 3 4 C3.5775 4.61875 4.155 5.2375 4.75 5.875 C6 8 6 8 5.75 11.1875 C5 14 5 14 4 15 C1.3125 15.5625 1.3125 15.5625 -2 15 C-4.4211347 12.60072656 -6.32169307 9.96381863 -8 7 C-8 6.34 -8 5.68 -8 5 C-6.25 3.7109375 -6.25 3.7109375 -4 2.375 C-3.2575 1.92898438 -2.515 1.48296875 -1.75 1.0234375 C-1.1725 0.68570312 -0.595 0.34796875 0 0 Z " fill="#8E5F3A" transform="translate(148,436)"/>
<path d="M0 0 C1 1 1 1 1.0625 3.5625 C1.041875 4.366875 1.02125 5.17125 1 6 C-0.56119422 6.79423861 -2.12401964 7.58527123 -3.6875 8.375 C-4.55761719 8.81585938 -5.42773438 9.25671875 -6.32421875 9.7109375 C-8.84772799 10.92664268 -11.38737532 11.99260958 -14 13 C-14.66 10.03 -15.32 7.06 -16 4 C-14.274773 3.32320342 -12.54461061 2.65898 -10.8125 2 C-9.84957031 1.62875 -8.88664063 1.2575 -7.89453125 0.875 C-5.0618303 0.01869094 -2.93566326 -0.25028745 0 0 Z " fill="#8E5F3A" transform="translate(200,329)"/>
<path d="M0 0 C1.65 0.33 3.3 0.66 5 1 C5.92718689 4.08136961 6.14268368 5.61671247 5.00390625 8.67578125 C4.52824219 9.54589844 4.05257812 10.41601562 3.5625 11.3125 C3.08941406 12.19550781 2.61632812 13.07851563 2.12890625 13.98828125 C1.57009766 14.98408203 1.57009766 14.98408203 1 16 C-3.455 15.01 -3.455 15.01 -8 14 C-7.34 13.67 -6.68 13.34 -6 13 C-5.20006976 11.01866275 -5.20006976 11.01866275 -4.5625 8.6875 C-3.49713041 5.27396887 -2.45109658 2.68453435 0 0 Z " fill="#8F5F3A" transform="translate(213,355)"/>
<path d="M0 0 C1.67542976 0.28604898 3.34385343 0.61781233 5 1 C5.875 3 5.875 3 6 6 C4.27126905 8.89435736 2.14340624 11.40620714 0 14 C-0.99 15.485 -0.99 15.485 -2 17 C-3.98 15.35 -5.96 13.7 -8 12 C-6.85573734 10.186508 -5.70954608 8.37423275 -4.5625 6.5625 C-3.60537109 5.04849609 -3.60537109 5.04849609 -2.62890625 3.50390625 C-1 1 -1 1 0 0 Z " fill="#8F5F3A" transform="translate(298,355)"/>
<path d="M0 0 C5.85209953 0.35829181 9.86595733 2.20780135 15 5 C14.34 7.97 13.68 10.94 13 14 C12.67 13.34 12.34 12.68 12 12 C11.13375 11.71125 10.2675 11.4225 9.375 11.125 C5.51762922 9.83920974 2.47993907 8.08796344 -1 6 C-1.042721 4.33388095 -1.04063832 2.66617115 -1 1 C-0.67 0.67 -0.34 0.34 0 0 Z " fill="#8F603A" transform="translate(246,317)"/>
<path d="M0 0 C2.67578125 0.40625 2.67578125 0.40625 4.6953125 2.8125 C5.28699219 3.8334375 5.87867188 4.854375 6.48828125 5.90625 C7.09285156 6.9271875 7.69742188 7.948125 8.3203125 9 C8.76761719 9.7940625 9.21492187 10.588125 9.67578125 11.40625 C8.02578125 13.05625 6.37578125 14.70625 4.67578125 16.40625 C-3.08228327 9.06754032 -3.08228327 9.06754032 -3.57421875 3.65625 C-3.2334124 0.58899288 -3.04047086 0.53144365 0 0 Z " fill="#8E5F3A" transform="translate(231.32421875,349.59375)"/>
<path d="M0 0 C4.17655939 0.54476862 6.6263284 2.8345696 9.875 5.375 C10.865 6.035 11.855 6.695 12.875 7.375 C11.885 9.355 10.895 11.335 9.875 13.375 C6.50272948 12.7252965 4.01875689 11.45960404 1.125 9.625 C0.32578125 9.13515625 -0.4734375 8.6453125 -1.296875 8.140625 C-3.125 6.375 -3.125 6.375 -3.453125 3.734375 C-3.03445222 0.72391831 -2.96748737 0.52367424 0 0 Z " fill="#8E5F3A" transform="translate(242.125,333.625)"/>
<path d="M0 0 C2.1875 0 2.1875 0 5 1 C7.20736862 3.4349324 8.78708676 5.94461379 10 9 C9.46454357 12.44221989 8.62590812 13.51162849 5.90234375 15.63671875 C5.27457031 16.08660156 4.64679688 16.53648437 4 17 C2.93649337 15.11633147 1.89986771 13.2174671 0.875 11.3125 C0.00488281 9.72888672 0.00488281 9.72888672 -0.8828125 8.11328125 C-2 5 -2 5 -1.1796875 2.10546875 C-0.59574219 1.06326172 -0.59574219 1.06326172 0 0 Z " fill="#906039" transform="translate(315,353)"/>
<path d="M0 0 C0.66 0.33 1.32 0.66 2 1 C0.73142283 4.80573152 -0.35281196 5.01031092 -3.84765625 6.8125 C-5.34522461 7.58980469 -5.34522461 7.58980469 -6.87304688 8.3828125 C-7.92556641 8.91648438 -8.97808594 9.45015625 -10.0625 10 C-11.08794922 10.53367188 -12.11339844 11.06734375 -13.16992188 11.6171875 C-27.52232976 19 -27.52232976 19 -34 19 C-34 18.01 -34 17.02 -34 16 C-32.56333984 15.50693359 -32.56333984 15.50693359 -31.09765625 15.00390625 C-14.3906061 9.50715209 -14.3906061 9.50715209 0 0 Z " fill="#59310B" transform="translate(384,202)"/>
<path d="M0 0 C1 1 1 1 1.3671875 3.32421875 C1 6 1 6 -1.1171875 8.01953125 C-2.02726562 8.61121094 -2.93734375 9.20289063 -3.875 9.8125 C-4.77992188 10.41707031 -5.68484375 11.02164062 -6.6171875 11.64453125 C-9 13 -9 13 -11 13 C-12.25664978 10.09399739 -13 8.20395416 -13 5 C-9.30375491 1.74400246 -5.04354528 -0.91700823 0 0 Z " fill="#8F603A" transform="translate(293,335)"/>
<path d="M0 0 C0.66 0 1.32 0 2 0 C3.80679587 4.62369023 4.21839082 8.42528653 4.125 13.375 C4.10695313 14.62023437 4.08890625 15.86546875 4.0703125 17.1484375 C4.04710937 18.08945312 4.02390625 19.03046875 4 20 C1.69 20 -0.62 20 -3 20 C-3.40850553 12.91923749 -1.90420731 6.80074041 0 0 Z " fill="#EF8E20" transform="translate(271,289)"/>
<path d="M0 0 C0.33 1.65 0.66 3.3 1 5 C-3.15851477 7.72902532 -7.33908059 9.34102868 -12 11 C-12 7.7 -12 4.4 -12 1 C-10.824375 0.7834375 -10.824375 0.7834375 -9.625 0.5625 C-3.325 -0.7875 -3.325 -0.7875 0 0 Z " fill="#8D5F3A" transform="translate(195,314)"/>
<path d="M0 0 C2.5 0.25 2.5 0.25 4.5 2.25 C4.4765625 4.4140625 4.4765625 4.4140625 4.125 6.875 C3.95871094 8.10089844 3.95871094 8.10089844 3.7890625 9.3515625 C3.64597656 10.29128906 3.64597656 10.29128906 3.5 11.25 C4.16 11.58 4.82 11.91 5.5 12.25 C1.21 12.25 -3.08 12.25 -7.5 12.25 C-6.51 11.92 -5.52 11.59 -4.5 11.25 C-4.52320312 10.62351562 -4.54640625 9.99703125 -4.5703125 9.3515625 C-4.58835937 8.53429687 -4.60640625 7.71703125 -4.625 6.875 C-4.64820312 6.06289063 -4.67140625 5.25078125 -4.6953125 4.4140625 C-4.39501711 1.08678962 -3.24459633 0.32445963 0 0 Z " fill="#8D5E37" transform="translate(129.5,455.75)"/>
<path d="M0 0 C1 1 1 1 1.5625 3.25 C1 6 1 6 -0.71484375 7.44140625 C-6.32140313 11 -6.32140313 11 -9 11 C-9.33 11.99 -9.66 12.98 -10 14 C-10.28329774 10.29194738 -10.43653212 6.69960971 -10 3 C-6.960637 -0.039363 -4.21243574 -0.46804842 0 0 Z " fill="#906039" transform="translate(288,317)"/>
<path d="M0 0 C1.010625 0.66 2.02125 1.32 3.0625 2 C3.0625 2.66 3.0625 3.32 3.0625 4 C-0.06040635 3.51421457 -2.93330359 3.0013988 -5.9375 2 C-13.17088379 1.60925188 -20.10786184 1.39823308 -26.9375 4 C-26.8125 2.125 -26.8125 2.125 -25.9375 0 C-18.17314812 -3.32089749 -7.64674724 -3.85757195 0 0 Z " fill="#643A14" transform="translate(216.9375,133)"/>
<path d="M0 0 C0.66 0.33 1.32 0.66 2 1 C1.37899527 3.8759151 0.75333835 6.75068627 0.125 9.625 C-0.04902344 10.43324219 -0.22304687 11.24148438 -0.40234375 12.07421875 C-2.43094589 21.3156285 -2.43094589 21.3156285 -4 25 C-4.99 25.33 -5.98 25.66 -7 26 C-6.41124445 20.10575413 -5.22679399 14.72145059 -3.5 9.0625 C-3.27441406 8.29615234 -3.04882812 7.52980469 -2.81640625 6.74023438 C-1.13972622 1.13972622 -1.13972622 1.13972622 0 0 Z " fill="#5E3305" transform="translate(172,427)"/>
<path d="M0 0 C1.99954746 -0.04254356 4.00041636 -0.04080783 6 0 C7 1 7 1 7.09765625 3.50390625 C7.08605469 4.51324219 7.07445312 5.52257812 7.0625 6.5625 C7.05347656 7.57441406 7.04445313 8.58632813 7.03515625 9.62890625 C7.02355469 10.41136719 7.01195312 11.19382812 7 12 C6.13375 11.1028125 6.13375 11.1028125 5.25 10.1875 C3.25892393 8.2517316 1.25527003 6.61090717 -1 5 C-0.67 3.35 -0.34 1.7 0 0 Z " fill="#8D5D34" transform="translate(327,309)"/>
<path d="M0 0 C4.70588235 0.70588235 4.70588235 0.70588235 6 2 C6.04080783 3.99958364 6.04254356 6.00045254 6 8 C4.25 8.6875 4.25 8.6875 2 9 C-0.25 7.5625 -0.25 7.5625 -2 6 C-1.125 1.125 -1.125 1.125 0 0 Z " fill="#906039" transform="translate(326,324)"/>
<path d="M0 0 C8.9752527 -0.62739631 8.9752527 -0.62739631 13.0625 1.875 C15.67207978 4.73711976 15.97567397 5.54591403 16.1875 9.5 C16 13 16 13 14 15 C13.77213542 13.01432292 13.54427083 11.02864583 13.31640625 9.04296875 C13.02829265 6.80603607 13.02829265 6.80603607 12 4 C7.71 3.34 3.42 2.68 -1 2 C-0.67 1.34 -0.34 0.68 0 0 Z " fill="#FBE8F0" transform="translate(408,69)"/>
<path d="M0 0 C0.33 0 0.66 0 1 0 C1.0270817 2.72923388 1.04687847 5.45819637 1.0625 8.1875 C1.07087891 8.95642578 1.07925781 9.72535156 1.08789062 10.51757812 C1.10491934 14.48526789 0.98604115 18.12571234 0 22 C-0.99 22.33 -1.98 22.66 -3 23 C-2.90912109 22.12601562 -2.90912109 22.12601562 -2.81640625 21.234375 C-2.20838572 15.28512801 -1.7067942 9.33631154 -1.28125 3.37109375 C-1 1 -1 1 0 0 Z " fill="#552C01" transform="translate(230,282)"/>
<path d="M0 0 C1.65 0 3.3 0 5 0 C5 3.63 5 7.26 5 11 C1.50744532 7.86565605 -0.73200974 5.82382465 -1 1 C-0.67 0.67 -0.34 0.34 0 0 Z " fill="#905F37" transform="translate(325,342)"/>
<path d="M0 0 C0.33 0.66 0.66 1.32 1 2 C-0.24663331 2.50833591 -1.49749387 3.00631145 -2.75 3.5 C-3.44609375 3.7784375 -4.1421875 4.056875 -4.859375 4.34375 C-7 5 -7 5 -11 5 C-11 4.01 -11 3.02 -11 2 C-9.54494642 1.47007308 -8.08581873 0.9513211 -6.625 0.4375 C-5.81289063 0.14746094 -5.00078125 -0.14257812 -4.1640625 -0.44140625 C-2 -1 -2 -1 0 0 Z " fill="#643F1A" transform="translate(361,216)"/>
<path d="M0 0 C0.66 2.31 1.32 4.62 2 7 C-1.63 6.01 -5.26 5.02 -9 4 C-3.66666667 0 -3.66666667 0 0 0 Z " fill="#F2972C" transform="translate(373,213)"/>
<path d="M0 0 C6.625 -0.125 6.625 -0.125 10 1 C10 1.99 10 2.98 10 4 C6.7 3.67 3.4 3.34 0 3 C0 2.01 0 1.02 0 0 Z " fill="#663A11" transform="translate(336,131)"/>
<path d="M0 0 C0.99 0 1.98 0 3 0 C3.33 1.98 3.66 3.96 4 6 C3.34 6 2.68 6 2 6 C2 8.97 2 11.94 2 15 C1.67 15 1.34 15 1 15 C0.67 10.05 0.34 5.1 0 0 Z " fill="#70431E" transform="translate(227,148)"/>
<path d="M0 0 C2.31 0.66 4.62 1.32 7 2 C6.67 2.99 6.34 3.98 6 5 C1.545 4.01 1.545 4.01 -3 3 C-2.01 2.67 -1.02 2.34 0 2 C0 1.34 0 0.68 0 0 Z " fill="#683C14" transform="translate(167,144)"/>
<path d="M0 0 C0.33 0 0.66 0 1 0 C1.33 3.96 1.66 7.92 2 12 C1.01 12.33 0.02 12.66 -1 13 C-1.33 11.35 -1.66 9.7 -2 8 C-1.34 8 -0.68 8 0 8 C0 5.36 0 2.72 0 0 Z " fill="#704422" transform="translate(131,167)"/>
</svg>
