<?xml version="1.0" encoding="UTF-8"?>
<svg version="1.1" xmlns="http://www.w3.org/2000/svg" width="512" height="512">
<path d="M0 0 C16.99814145 7.97416097 30.6319755 21.52277305 43.75 34.625 C44.25006561 35.12397797 44.75013123 35.62295593 45.26535034 36.13705444 C53.81131244 44.68512487 53.81131244 44.68512487 55 47.0625 C57.31736502 47.68626483 57.31736502 47.68626483 60.16015625 48.0703125 C61.25223389 48.24796143 62.34431152 48.42561035 63.46948242 48.60864258 C64.65517822 48.79966553 65.84087402 48.99068848 67.0625 49.1875 C86.55031178 52.57629085 104.69713628 58.45974031 122 68.0625 C123.22109295 68.71793481 124.44244692 69.37288356 125.6640625 70.02734375 C134.40712428 74.79135041 143.22204097 80.20975552 150.24609375 87.34375 C154.34796649 89.90378405 157.80821418 89.2535068 162.5 88.8125 C164.30714657 88.68413858 166.11444046 88.55783452 167.921875 88.43359375 C168.79650391 88.36769043 169.67113281 88.30178711 170.57226562 88.23388672 C183.43696222 87.32569917 200.68614315 86.94974441 212 94.0625 C215.81621555 97.47183962 219.23724566 100.84873618 220 106.0625 C220.31121001 121.26733204 214.51612525 134.44105875 208.125 147.875 C207.63153076 148.91237305 207.13806152 149.94974609 206.62963867 151.01855469 C203.61920212 157.17985919 200.29558543 162.89809661 196.39526367 168.54150391 C193.93419774 172.98821727 193.85434218 177.18100145 195 182.0625 C196.29115408 184.69430928 197.79058487 187.06183903 199.3984375 189.51171875 C207.26521708 202.04100428 206.77395495 218.74320513 203.8659668 232.85107422 C201.26703883 243.56470566 196.58357661 250.36731024 188 257.0625 C188.38085334 260.50331294 188.89699065 263.77428344 190 267.0625 C192.81420633 269.38310231 192.81420633 269.38310231 196 271.0625 C200.79137004 277.40782788 201.71037566 282.30756574 201 290.0625 C197.63467265 306.77939781 190.90462793 328.02186531 176.0625 338 C166.62813496 342.77249287 155.12694523 340.46022644 145.421875 337.59375 C130.95761655 332.74952342 116.70063556 326.76300964 103 320.0625 C102.50371094 320.71476562 102.00742187 321.36703125 101.49609375 322.0390625 C92.24607961 333.93946019 92.24607961 333.93946019 86 337.0625 C86.54762471 344.21611041 87.09940555 351.3693916 87.65405273 358.52246094 C87.84218111 360.95500454 88.02936414 363.38762145 88.21557617 365.8203125 C88.48366732 369.32051053 88.75517663 372.82042934 89.02734375 376.3203125 C89.10967758 377.40490753 89.19201141 378.48950256 89.27684021 379.60696411 C89.30757739 388.74320788 89.30757739 388.74320788 93.375 396.125 C94.24125 396.764375 95.1075 397.40375 96 398.0625 C99.33827914 401.97634451 99.57673913 405.77748037 99.4140625 410.75390625 C99 413.0625 99 413.0625 96.875 415.5625 C88.17444324 420.10192092 79.40456358 420.23107204 69.80859375 420.30078125 C68.74512222 420.308853 67.6816507 420.31692474 66.58595276 420.32524109 C64.3461365 420.33901999 62.1062998 420.34976959 59.86645508 420.35766602 C57.57863198 420.36923137 55.2908368 420.38975411 53.00317383 420.41918945 C49.68812834 420.46180296 46.37387885 420.47802159 43.05859375 420.48828125 C42.03970566 420.50578934 41.02081757 420.52329742 39.97105408 420.54133606 C34.18981039 420.52368058 30.35320324 420.27033342 26 416.0625 C22.01328659 410.52617842 21.46875917 405.46897332 21.79296875 398.8125 C21.81845291 397.95495117 21.84393707 397.09740234 21.87019348 396.21386719 C21.95620458 393.49565057 22.0717915 390.7795964 22.1875 388.0625 C22.24730033 386.23964333 22.30525921 384.41672526 22.36132812 382.59375 C22.61516953 375.02080757 22.96510152 367.57422296 24 360.0625 C19.71 360.3925 15.42 360.7225 11 361.0625 C10.21351074 363.24190186 10.21351074 363.24190186 9.41113281 365.46533203 C7.45862314 370.86916936 5.49554538 376.26911691 3.52929688 381.66796875 C2.68071635 384.00253684 1.83498273 386.33814183 0.9921875 388.67480469 C-0.22163971 392.0385947 -1.4457485 395.39848923 -2.671875 398.7578125 C-3.04495789 399.79865997 -3.41804077 400.83950745 -3.8024292 401.91189575 C-8.61235966 415.01052806 -8.61235966 415.01052806 -15 419.0625 C-17.15765381 419.44345093 -17.15765381 419.44345093 -19.51464844 419.45068359 C-20.40367859 419.46014008 -21.29270874 419.46959656 -22.2086792 419.4793396 C-23.64452362 419.47023056 -23.64452362 419.47023056 -25.109375 419.4609375 C-26.10898254 419.46380768 -27.10859009 419.46667786 -28.13848877 419.46963501 C-30.26013757 419.47167716 -32.38180514 419.4661368 -34.50341797 419.45361328 C-37.6967385 419.43776434 -40.88875369 419.45335105 -44.08203125 419.47265625 C-73.96690261 419.50827101 -73.96690261 419.50827101 -84 412.0625 C-85.558221 410.504279 -85.35824164 409.04744686 -85.5 406.875 C-85.5 399.42706014 -81.56628745 393.37628441 -78 387.0625 C-78.33 386.7325 -78.66 386.4025 -79 386.0625 C-80.01578125 386.60519531 -81.0315625 387.14789063 -82.078125 387.70703125 C-97.7025954 395.89672437 -111.4208245 399.54794625 -128.96484375 395.03125 C-140.93839277 391.2095767 -149.62010613 383.0968159 -155.5546875 372.15234375 C-158.9971921 364.79282715 -161.0331643 358.0596129 -159 350.0625 C-156.71105992 345.72986343 -154.60964818 342.86627538 -150 341.0625 C-145.07365852 340.38387133 -140.56112305 340.40475922 -136.0625 342.6875 C-132.09842418 345.76168125 -130.73111174 348.49225624 -129.37109375 353.2734375 C-127.68783685 359.06384123 -126.10520948 361.72848564 -121 365.0625 C-115.65673712 367.37791391 -109.50123228 366.48017445 -104.1875 364.5625 C-90.55729339 358.58761491 -76.88305281 346.19180288 -67 335.0625 C-66.51845459 334.52359131 -66.03690918 333.98468262 -65.54077148 333.42944336 C-63.53852843 330.35358432 -62.79694522 327.22691883 -62.015625 323.69140625 C-61.84766418 322.95338272 -61.67970337 322.21535919 -61.50665283 321.45497131 C-59.37833204 311.72565755 -58.08816975 301.86220918 -56.75 292 C-56.47989803 290.05393481 -56.20906863 288.10797044 -55.9375 286.16210938 C-55.28330805 281.463355 -54.63885897 276.76336258 -54 272.0625 C-55.22146729 271.76102051 -56.44293457 271.45954102 -57.70141602 271.14892578 C-67.42473388 268.70161606 -76.73364003 265.9776417 -85.9375 261.9375 C-87.0308667 261.46521973 -88.1242334 260.99293945 -89.25073242 260.50634766 C-136.97977335 239.49513707 -136.97977335 239.49513707 -146 221.0625 C-148.18528371 211.384815 -145.02427263 203.33777256 -140 195.0625 C-137.2019158 191.20940045 -134.15180864 187.62977433 -131 184.0625 C-130.54173828 183.54252441 -130.08347656 183.02254883 -129.61132812 182.48681641 C-123.01420545 175.04603185 -116.080847 168.21038596 -108.66845703 161.578125 C-106.79641431 159.87756293 -104.95727671 158.14545941 -103.12109375 156.40625 C-102.45762939 155.77904053 -101.79416504 155.15183105 -101.1105957 154.50561523 C-99.82104999 153.28424911 -98.53426166 152.05996266 -97.25073242 150.83227539 C-87.95554982 142.0625 -87.95554982 142.0625 -84 142.0625 C-83.95875 140.9075 -83.9175 139.7525 -83.875 138.5625 C-81.9145236 121.2449585 -71.19434664 102.25684664 -59 90.0625 C-58.35094411 87.40613475 -58.35094411 87.40613475 -57.921875 84.26171875 C-57.73375244 83.06691895 -57.54562988 81.87211914 -57.35180664 80.64111328 C-57.15321045 79.3570459 -56.95461426 78.07297852 -56.75 76.75 C-52.40172772 49.89982253 -45.30320018 19.42635997 -24.328125 0.55859375 C-17.3927703 -4.36825477 -7.44616998 -2.84039332 0 0 Z M-81.5625 205.5625 C-82.17802734 205.89636719 -82.79355469 206.23023438 -83.42773438 206.57421875 C-84.95283109 207.40179061 -86.47654502 208.2319098 -88 209.0625 C-84.18384532 211.53295803 -80.15255752 211.50081912 -75.75 211.6875 C-75.00492188 211.72617187 -74.25984375 211.76484375 -73.4921875 211.8046875 C-71.6618476 211.89855108 -69.83095857 211.98159718 -68 212.0625 C-68.97473126 210.39323546 -69.95489789 208.72714358 -70.9375 207.0625 C-71.48277344 206.134375 -72.02804688 205.20625 -72.58984375 204.25 C-73.05519531 203.528125 -73.52054688 202.80625 -74 202.0625 C-76.51023167 202.0625 -79.34315585 204.35109824 -81.5625 205.5625 Z M150 295.0625 C150 295.3925 150 295.7225 150 296.0625 C151.65 296.0625 153.3 296.0625 155 296.0625 C155.33 294.7425 155.66 293.4225 156 292.0625 C153.80099734 292.0625 151.78482365 293.91838227 150 295.0625 Z " fill="#512A01" transform="translate(226,46.9375)"/>
<path d="M0 0 C0.70302246 0.18908936 1.40604492 0.37817871 2.13037109 0.57299805 C14.42938856 4.12073443 14.42938856 4.12073443 17.22631836 8.19555664 C18.50156012 11.04278984 19.0625 13.37923394 19.0625 16.5 C17.41701172 16.41298828 17.41701172 16.41298828 15.73828125 16.32421875 C14.28389686 16.27730312 12.82946626 16.23180489 11.375 16.1875 C10.65376953 16.14560547 9.93253906 16.10371094 9.18945312 16.06054688 C5.00128483 15.96492659 3.50612791 16.15482737 0.0703125 18.828125 C-2.16846861 21.36075647 -2.16846861 21.36075647 -2.375 24.5625 C-1.95364699 27.39158449 -1.5340514 29.1471874 0.0625 31.5 C3.75457929 33.96138619 7.2731501 34.38579956 11.5625 35.0625 C19.74622757 36.39457586 19.74622757 36.39457586 23.0625 37.5 C23.17388159 42.95769811 22.97907981 48.11509359 22.0625 53.5 C20.4997038 53.35737588 18.93727304 53.21074489 17.375 53.0625 C16.50488281 52.98128906 15.63476562 52.90007812 14.73828125 52.81640625 C12.0625 52.5 12.0625 52.5 9.58203125 51.97265625 C6.81773712 51.45408324 4.24834387 51.36725663 1.4375 51.375 C0.49648438 51.37242187 -0.44453125 51.36984375 -1.4140625 51.3671875 C-4.06427507 51.39452002 -4.06427507 51.39452002 -6.9375 52.5 C-8.15218687 56.14406062 -8.85884277 59.74587199 -7.9375 63.5 C-4.64071361 67.90004168 -1.81287967 69.14617945 3.3984375 69.95703125 C4.15382813 70.05371094 4.90921875 70.15039062 5.6875 70.25 C13.95940332 71.46563444 13.95940332 71.46563444 17.0625 72.5 C16.8975 73.139375 16.7325 73.77875 16.5625 74.4375 C15.29965392 82.00206255 15.29965392 82.00206255 17.5625 89.0625 C21.26419108 91.19097237 23.8118699 90.8373516 28.0625 90.5 C29.0525 90.17 30.0425 89.84 31.0625 89.5 C32.23332878 86.57085835 32.23332878 86.57085835 33.0625 83.5 C33.3925 82.84 33.7225 82.18 34.0625 81.5 C37.08659406 82.53683225 39.06727624 83.5041639 41.5 85.625 C44.66074988 87.93774381 46.22432599 87.98997966 50.0625 87.5 C52.65221247 86.63676251 53.72750737 85.96898968 55.3125 83.75 C56.30767055 80.76448836 56.44618557 78.63343215 56.0625 75.5 C53.22499815 71.17229933 50.31050103 69.47594303 45.75 67.1875 C40.37185985 63.81719884 40.37185985 63.81719884 39.60986328 60.57275391 C39.37379984 55.7894777 40.13123046 51.1790616 41.0625 46.5 C45.828125 49.2890625 45.828125 49.2890625 47.9375 51.1875 C51.15261516 53.17330642 53.36427947 53.0190485 57.0625 52.5 C60.96240596 49.84474488 61.90467316 48.2527126 62.875 43.625 C62.60288351 40.08084869 61.50441986 38.4178729 58.9375 36 C56.24607765 33.86625976 53.47115175 32.14168945 50.44921875 30.53125 C49.5048999 30.02368164 49.5048999 30.02368164 48.54150391 29.50585938 C47.28264273 28.84515771 46.01000103 28.20995682 44.72412109 27.60351562 C42.94140625 26.6875 42.94140625 26.6875 40.0625 24.5 C39.15234375 20.75 39.15234375 20.75 39.0625 17.5 C66.19136935 30.81908314 89.01206804 56.95466419 99.06640625 85.30859375 C102.7798732 97.20625061 103.44030772 108.15828103 103.0625 120.5 C102.505625 120.2834375 101.94875 120.066875 101.375 119.84375 C93.32798844 116.90767821 87.99110941 116.35294381 80.125 119.9375 C70.8774983 124.92321114 63.17562043 132.23268936 60.0625 142.5 C59.28043486 147.96049056 59.07456566 153.35175324 61.625 158.375 C64.01254872 161.43595989 66.34445412 163.5977356 69.4765625 165.84765625 C73.21576103 169.7434222 73.38144188 175.30247347 73.9375 180.4375 C74.68532419 186.14870568 75.84432051 189.78000342 79.0625 194.5 C79.0625 195.16 79.0625 195.82 79.0625 196.5 C81.99970508 198.02299523 84.9793649 199.30100302 88.0625 200.5 C88.10938822 203.94963321 87.94426185 207.1544918 87.0625 210.5 C85.4919407 212.08357499 83.89904136 212.98620578 81.96875 214.09375 C78.83904839 216.40254627 77.34668435 219.63003462 75.51953125 223 C70.53943785 231.54493237 63.95520112 233.84182131 54.703125 236.4453125 C45.06521854 238.77560444 35.95696033 239.68590844 26.0625 239.5 C26.41183594 238.54738281 26.76117188 237.59476563 27.12109375 236.61328125 C27.58091666 235.34642221 28.04054162 234.0794913 28.5 232.8125 C28.73009766 232.18666016 28.96019531 231.56082031 29.19726562 230.91601562 C30.44303667 227.46757692 31.46054449 224.1186521 32.0625 220.5 C32.7225 220.5 33.3825 220.5 34.0625 220.5 C35.72916667 222.16666667 37.39583333 223.83333333 39.0625 225.5 C42.5033439 228.19687765 45.39418236 229.10708262 49.8125 228.90625 C55.13569802 227.94511702 60.06099755 225.68812272 63.73828125 221.66796875 C70.89188829 210.96921132 69.87226257 197.44599768 67.66064453 185.29150391 C64.3579691 170.84015095 56.78574944 156.61228507 47.0625 145.5 C46.48371094 144.7678125 45.90492188 144.035625 45.30859375 143.28125 C34.42546254 130.01246373 18.43378999 121.91548962 1.49365234 119.72705078 C-24.36522595 117.31203202 -55.62515236 119.94663634 -76.75390625 136.73828125 C-83.28173917 142.14461888 -83.28173917 142.14461888 -86.2734375 149.76171875 C-86.37570205 156.11234709 -85.38914174 161.09743032 -81.9375 166.5 C-70.42383484 178.27533936 -53.5825255 178.92096374 -38.0625 179.1875 C-36.68095991 179.22079599 -35.2994483 179.25529614 -33.91796875 179.29101562 C-30.59122805 179.37243935 -27.264716 179.44192612 -23.9375 179.5 C-23.45551537 180.74891614 -22.97704323 181.99918808 -22.5 183.25 C-22.23316406 183.94609375 -21.96632813 184.6421875 -21.69140625 185.359375 C-17.215061 198.06941228 -19.72360932 212.10416266 -25.09375 224.078125 C-25.99100784 225.9110946 -26.95534884 227.71108181 -27.9375 229.5 C-34.3898301 228.20178343 -40.36633593 226.43574979 -46.5 224.0625 C-47.39477051 223.71832031 -48.28954102 223.37414062 -49.21142578 223.01953125 C-70.54401022 214.66160198 -91.44244038 204.92123363 -110.20605469 191.69165039 C-111.39100593 190.87611922 -112.60223635 190.09785334 -113.83300781 189.35327148 C-118.56052999 186.36678587 -120.30694236 183.3794656 -121.6875 177.9375 C-122.8900861 173.57492702 -124.02882209 170.05226468 -126.9375 166.5 C-126.9375 165.84 -126.9375 165.18 -126.9375 164.5 C-128.02417969 164.066875 -128.02417969 164.066875 -129.1328125 163.625 C-130.88054688 162.92395891 -132.62581798 162.21670514 -134.3671875 161.5 C-135.17414063 161.17 -135.98109375 160.84 -136.8125 160.5 C-137.68261719 160.14164063 -138.55273438 159.78328125 -139.44921875 159.4140625 C-142.08702104 158.35888861 -142.08702104 158.35888861 -145.625 157.875 C-151.55107929 155.41511803 -154.69201772 149.43317163 -157.13671875 143.67578125 C-157.40097656 142.95777344 -157.66523438 142.23976562 -157.9375 141.5 C-157.06609375 141.02691406 -156.1946875 140.55382812 -155.296875 140.06640625 C-141.9985117 132.73333025 -126.96816981 124.19975767 -120.9375 109.5 C-119.4215625 110.49 -119.4215625 110.49 -117.875 111.5 C-110.66679198 115.05945139 -102.08750521 114.73979631 -94.51171875 112.4765625 C-90.44462273 110.80515318 -86.65803486 108.926439 -82.875 106.6875 C-76.98710221 104.307286 -70.50799214 104.9851016 -64.4375 106.5 C-57.47402552 108.20356429 -50.71698957 108.77540248 -44.125 105.5625 C-36.59775986 100.78223121 -32.99738198 92.9232968 -30.9375 84.5 C-30.54787664 81.15256923 -30.51588197 77.86685754 -30.5625 74.5 C-30.54509766 73.24316406 -30.54509766 73.24316406 -30.52734375 71.9609375 C-30.57112721 62.53289965 -33.18009827 54.25740173 -39.9375 47.5 C-50.8029365 39.03659437 -63.62873641 38.29766022 -76.9375 39.5 C-95.80220373 42.78167242 -112.47055376 54.35627741 -123.9375 69.5 C-125.83448124 72.74752526 -127.47159879 76.03782127 -128.9375 79.5 C-129.9275 79.5 -130.9175 79.5 -131.9375 79.5 C-132.370625 78.55125 -132.80375 77.6025 -133.25 76.625 C-134.73052201 73.29958063 -134.73052201 73.29958063 -137.9375 71.5 C-139.76994795 71.07191877 -141.62194991 70.72469049 -143.48046875 70.4296875 C-144.55361328 70.25566406 -145.62675781 70.08164063 -146.73242188 69.90234375 C-147.85197266 69.72832031 -148.97152344 69.55429688 -150.125 69.375 C-151.25615234 69.19324219 -152.38730469 69.01148438 -153.55273438 68.82421875 C-156.3466781 68.37624465 -159.14153028 67.93511863 -161.9375 67.5 C-160.13982102 51.17313471 -143.70164348 33.86474864 -131.9375 23.5 C-127.44214047 19.91254463 -122.72306553 16.68474031 -117.9375 13.5 C-117.14214844 12.94699219 -116.34679687 12.39398438 -115.52734375 11.82421875 C-81.42839067 -10.48744191 -37.91476232 -10.20108501 0 0 Z " fill="#FD9722" transform="translate(312.9375,104.5)"/>
<path d="M0 0 C4.38880663 2.575556 6.75194657 5.58455917 9.3125 9.9375 C13.95836892 9.45265724 13.95836892 9.45265724 18.3125 7.9375 C21.3125 7.75 21.3125 7.75 24.3125 7.9375 C26.3125 9.9375 26.3125 9.9375 26.8125 12.25 C26.20431243 15.51900819 24.88157709 16.7086994 22.29296875 18.70703125 C20.02851926 20.11393774 17.70152294 21.08062924 15.25 22.125 C10.09929555 24.57005166 8.8068298 27.23245896 6.61328125 32.328125 C-1.74851617 49.10194085 -27.07853367 58.79643149 -42.6875 66.9375 C-43.48945801 67.35676758 -44.29141602 67.77603516 -45.11767578 68.20800781 C-50.43647114 70.9375 -50.43647114 70.9375 -52.6875 70.9375 C-52.6875 71.9275 -52.6875 72.9175 -52.6875 73.9375 C-52.05513428 73.91719727 -51.42276855 73.89689453 -50.77124023 73.87597656 C-42.96357117 73.7382479 -35.46824244 74.56636777 -27.75 75.6875 C-26.56470703 75.84476562 -25.37941406 76.00203125 -24.15820312 76.1640625 C-14.50500844 77.54082093 -4.92365511 79.46575381 3.3125 84.9375 C4.82421875 86.953125 4.82421875 86.953125 6 89.1875 C6.39574219 89.91453125 6.79148437 90.6415625 7.19921875 91.390625 C9.81138945 97.36653832 10.61454432 102.70448916 10.5 109.125 C10.4990332 110.17204102 10.4990332 110.17204102 10.49804688 111.24023438 C10.46922257 114.60627323 10.35182706 117.71974341 9.3125 120.9375 C11.4918144 119.17885754 12.24936419 118.24354 12.82421875 115.45703125 C12.88222656 114.56371094 12.94023437 113.67039062 13 112.75 C13.06574219 111.84894531 13.13148438 110.94789063 13.19921875 110.01953125 C13.23660156 109.33246094 13.27398437 108.64539063 13.3125 107.9375 C16.04815336 109.25396448 18.58623869 110.70231152 21.12109375 112.37109375 C46.55638085 128.91280692 73.74483996 140.85277182 102.3125 150.9375 C99.3374688 156.5058106 96.15204291 161.80743571 92.546875 166.9921875 C89.43821109 171.89128442 89.69059201 177.34764463 90.3125 182.9375 C92.39974939 190.06469305 95.92810398 194.08478363 102.2265625 197.87890625 C106.57519264 200.08579533 110.48891698 200.0880743 115.25 200.0625 C115.96607422 200.06636719 116.68214844 200.07023438 117.41992188 200.07421875 C120.85428156 200.06785293 124.03114926 200.01700442 127.3125 198.9375 C127.3125 201.5775 127.3125 204.2175 127.3125 206.9375 C126.32507813 207.13085938 125.33765625 207.32421875 124.3203125 207.5234375 C123.03898438 207.78382813 121.75765625 208.04421875 120.4375 208.3125 C119.16132813 208.56773437 117.88515625 208.82296875 116.5703125 209.0859375 C113.25325544 209.65987896 113.25325544 209.65987896 111.3125 211.9375 C111.14572718 215.52093976 111.14572718 215.52093976 111.3125 218.9375 C117.40157636 219.05026067 123.25813254 218.6102075 129.3125 217.9375 C129.3125 222.2275 129.3125 226.5175 129.3125 230.9375 C125.6825 231.9275 122.0525 232.9175 118.3125 233.9375 C117.63448966 236.83823181 117.63448966 236.83823181 117.3125 239.9375 C119.1753949 242.23810534 119.1753949 242.23810534 122.1328125 242.1328125 C123.22335937 242.10960937 124.31390625 242.08640625 125.4375 242.0625 C126.53320312 242.04445313 127.62890625 242.02640625 128.7578125 242.0078125 C129.60085938 241.98460937 130.44390625 241.96140625 131.3125 241.9375 C131.30347656 242.87851562 131.29445313 243.81953125 131.28515625 244.7890625 C131.19848353 251.81922773 131.19848353 251.81922773 133.8671875 258.0625 C135.69659037 259.57941331 135.69659037 259.57941331 137.62109375 260.7265625 C140.61033968 262.86666929 141.22500279 265.41251674 141.8125 268.9375 C141.3125 271.9375 141.3125 271.9375 139 274.1875 C131.57293864 278.39688885 121.91404567 278.25308812 113.60546875 278.2734375 C112.63644119 278.2800943 111.66741364 278.2867511 110.66902161 278.29360962 C108.64142738 278.30364838 106.61380069 278.3084294 104.58618164 278.30810547 C101.48985198 278.31251445 98.39490996 278.34902434 95.29882812 278.38671875 C93.31771316 278.39258172 91.3365915 278.39655459 89.35546875 278.3984375 C88.43662399 278.41280853 87.51777924 278.42717957 86.5710907 278.44198608 C80.99138284 278.40229321 77.69912828 277.72932396 73.3125 273.9375 C70.90342412 270.32388618 71.03959031 267.71417423 71.08203125 263.54296875 C71.08212692 262.8066774 71.0822226 262.07038605 71.08232117 261.31178284 C71.08604527 258.91602322 71.10496549 256.52067438 71.125 254.125 C71.13184376 252.48795709 71.13835341 250.85091275 71.14453125 249.21386719 C71.20996073 237.10490095 71.56702639 225.02482204 72.3125 212.9375 C71.6525 213.2675 70.9925 213.5975 70.3125 213.9375 C69.9825 215.2575 69.6525 216.5775 69.3125 217.9375 C65.0225 217.9375 60.7325 217.9375 56.3125 217.9375 C56.6425 216.2875 56.9725 214.6375 57.3125 212.9375 C54.38659411 214.40045295 54.29361343 216.25569043 53.22119141 219.31176758 C52.61013046 221.03409355 52.61013046 221.03409355 51.98672485 222.79121399 C51.77138721 223.40868311 51.55604958 224.02615223 51.33418655 224.66233253 C50.6597862 226.59428152 49.97576895 228.52256709 49.28890991 230.45011902 C47.33754781 235.931985 45.4041522 241.42013548 43.4765625 246.91040039 C42.29726721 250.26717352 41.10689792 253.61985528 39.90995407 256.97037315 C39.23664006 258.86615687 38.57630014 260.76653238 37.91616821 262.66694641 C37.50248993 263.82462021 37.08881165 264.98229401 36.66259766 266.17504883 C36.30444977 267.19351395 35.94630188 268.21197906 35.57730103 269.26130676 C33.89540221 272.82003746 31.84717161 275.1701642 28.3125 276.9375 C25.32939337 277.04929369 22.37043933 277.10164167 19.38671875 277.10546875 C18.48814651 277.10879715 17.58957428 277.11212555 16.66377258 277.11555481 C14.75298576 277.12062776 12.84219004 277.12296302 10.93139648 277.12280273 C8.04981114 277.12496266 5.16862555 277.14303961 2.28710938 277.16210938 C-26.65098436 277.25020314 -26.65098436 277.25020314 -35.625 271.75 C-37.38244744 268.75200143 -37.44189934 266.23051298 -36.6875 262.9375 C-35.32891918 260.10925943 -33.7981585 257.43105584 -32.21484375 254.72265625 C-30.46455664 251.53095623 -29.3436342 248.39283203 -28.328125 244.91015625 C-27.64038985 242.79243522 -26.72576956 240.90405293 -25.6875 238.9375 C-20.58994276 239.34964293 -15.62297922 239.89369691 -10.625 241 C-6.03391797 241.96463493 -1.36599953 242.62314217 3.3125 241.9375 C3.9725 241.2775 4.6325 240.6175 5.3125 239.9375 C4.99051034 236.83823181 4.99051034 236.83823181 4.3125 233.9375 C-4.58145402 231.28061967 -13.56116749 229.55207075 -22.6875 227.9375 C-22.54581863 226.49958484 -22.39898957 225.0621763 -22.25 223.625 C-22.12818359 222.42423828 -22.12818359 222.42423828 -22.00390625 221.19921875 C-21.6875 218.9375 -21.6875 218.9375 -20.6875 215.9375 C-15.08317488 216.41823218 -9.5525211 217.0938594 -4 218 C0.5212241 218.70910708 4.74574708 219.34343359 9.3125 218.9375 C11.59978734 217.09866119 11.59978734 217.09866119 11.4375 214.3125 C11.39625 213.52875 11.355 212.745 11.3125 211.9375 C5.31965355 209.00411513 -0.56976604 207.84609312 -7.125 206.75 C-8.14271484 206.57275391 -9.16042969 206.39550781 -10.20898438 206.21289062 C-12.70060583 205.78007375 -15.1933023 205.35516724 -17.6875 204.9375 C-17.01090222 200.39677711 -16.02401006 195.96834558 -14.97412109 191.50366211 C-11.16159274 175.27579695 -8.63740975 158.98462592 -6.3359375 142.484375 C-5.8411636 138.95856688 -5.29517091 135.44593957 -4.6875 131.9375 C-2.7075 131.9375 -0.7275 131.9375 1.3125 131.9375 C1.3125 131.2775 1.3125 130.6175 1.3125 129.9375 C0.013125 129.999375 -1.28625 130.06125 -2.625 130.125 C-7.74299789 130.14937142 -11.96818221 128.81183898 -16.6875 126.9375 C-16.543125 126.35742188 -16.39875 125.77734375 -16.25 125.1796875 C-15.18393703 120.69333916 -14.33899338 116.58425496 -14.6875 111.9375 C-15.79546961 110.62629347 -15.79546961 110.62629347 -18.5625 110.5625 C-21.79571813 110.591223 -21.79571813 110.591223 -23.4375 113 C-24.82485734 116.26028975 -25.81281197 119.50603156 -26.6875 122.9375 C-31.0052458 122.42952991 -34.72052114 121.74067221 -38.6875 119.9375 C-38.543125 118.7825 -38.39875 117.6275 -38.25 116.4375 C-38.11464844 115.35082031 -38.11464844 115.35082031 -37.9765625 114.2421875 C-37.78642642 112.72623766 -37.59378805 111.21059921 -37.3984375 109.6953125 C-36.87680853 105.82891034 -36.87680853 105.82891034 -36.6875 101.9375 C-39.6575 101.9375 -42.6275 101.9375 -45.6875 101.9375 C-45.86925781 102.71996094 -46.05101562 103.50242187 -46.23828125 104.30859375 C-46.61533203 105.82646484 -46.61533203 105.82646484 -47 107.375 C-47.24363281 108.38433594 -47.48726562 109.39367187 -47.73828125 110.43359375 C-48.05152344 111.25988281 -48.36476562 112.08617187 -48.6875 112.9375 C-51.6875 113.9375 -51.6875 113.9375 -54.7890625 112.57421875 C-55.96926849 111.93494051 -57.14360664 111.28473566 -58.3125 110.625 C-58.910625 110.30337891 -59.50875 109.98175781 -60.125 109.65039062 C-64.54990608 107.21268784 -64.54990608 107.21268784 -65.6875 104.9375 C-65.213125 104.03 -64.73875 103.1225 -64.25 102.1875 C-62.58202163 98.718105 -62.25663735 96.72909134 -62.6875 92.9375 C-64.48971125 90.69001559 -64.48971125 90.69001559 -67 90.8125 C-71.16515425 92.55605294 -72.6166841 96.06903965 -74.6875 99.9375 C-79.28056496 98.4515084 -82.12319245 96.08735318 -85.6875 92.9375 C-85.1925 91.90625 -84.6975 90.875 -84.1875 89.8125 C-82.72641827 86.39869292 -82.25198646 83.68291645 -82.6875 79.9375 C-83.3475 79.2775 -84.0075 78.6175 -84.6875 77.9375 C-87.16076954 77.79658518 -87.16076954 77.79658518 -89.6875 78.9375 C-92.02164647 81.89599927 -92.02164647 81.89599927 -93.6875 84.9375 C-97.06487047 81.85381392 -97.61300625 79.60794372 -98.125 75 C-98.07379083 67.19060188 -93.41450589 59.91368463 -88.6875 53.9375 C-83.8125 55.8125 -83.8125 55.8125 -82.6875 56.9375 C-80.01691149 57.07865161 -77.36317762 56.97997107 -74.6875 56.9375 C-74.26859782 54.14811788 -74.26859782 54.14811788 -74.6875 50.9375 C-76.33396685 49.25087542 -77.99933067 47.58238294 -79.6875 45.9375 C-79.41716404 42.57181724 -78.03238476 40.94122191 -75.625 38.6875 C-74.80322266 37.90632813 -74.80322266 37.90632813 -73.96484375 37.109375 C-73.54332031 36.72265625 -73.12179688 36.3359375 -72.6875 35.9375 C-70.19388429 37.14131448 -68.00606917 38.39178722 -65.6875 39.9375 C-63.14542029 40.27093551 -63.14542029 40.27093551 -60.6875 39.9375 C-58.47765749 38.11977196 -58.47765749 38.11977196 -58.3125 35.5625 C-58.79487612 32.18586718 -60.13208496 31.09363144 -62.6875 28.9375 C-56.4746845 15.09438198 -38.08334571 4.3315011 -24.6875 -1.0625 C-17.21976539 -3.55174487 -7.16728211 -3.30214659 0 0 Z " fill="#FD9723" transform="translate(180.6875,186.0625)"/>
<path d="M0 0 C4.38880663 2.575556 6.75194657 5.58455917 9.3125 9.9375 C13.95836892 9.45265724 13.95836892 9.45265724 18.3125 7.9375 C21.3125 7.75 21.3125 7.75 24.3125 7.9375 C26.3125 9.9375 26.3125 9.9375 26.8125 12.25 C26.20431243 15.51900819 24.88157709 16.7086994 22.29296875 18.70703125 C20.02851926 20.11393774 17.70152294 21.08062924 15.25 22.125 C10.09929555 24.57005166 8.8068298 27.23245896 6.61328125 32.328125 C-1.74851617 49.10194085 -27.07853367 58.79643149 -42.6875 66.9375 C-43.48945801 67.35676758 -44.29141602 67.77603516 -45.11767578 68.20800781 C-50.43647114 70.9375 -50.43647114 70.9375 -52.6875 70.9375 C-52.6875 71.9275 -52.6875 72.9175 -52.6875 73.9375 C-52.05513428 73.91719727 -51.42276855 73.89689453 -50.77124023 73.87597656 C-42.96357117 73.7382479 -35.46824244 74.56636777 -27.75 75.6875 C-26.56470703 75.84476562 -25.37941406 76.00203125 -24.15820312 76.1640625 C-14.50500844 77.54082093 -4.92365511 79.46575381 3.3125 84.9375 C4.82421875 86.953125 4.82421875 86.953125 6 89.1875 C6.39574219 89.91453125 6.79148437 90.6415625 7.19921875 91.390625 C9.81138945 97.36653832 10.61454432 102.70448916 10.5 109.125 C10.4990332 110.17204102 10.4990332 110.17204102 10.49804688 111.24023438 C10.46922257 114.60627323 10.35182706 117.71974341 9.3125 120.9375 C11.4918144 119.17885754 12.24936419 118.24354 12.82421875 115.45703125 C12.88222656 114.56371094 12.94023437 113.67039062 13 112.75 C13.06574219 111.84894531 13.13148438 110.94789063 13.19921875 110.01953125 C13.23660156 109.33246094 13.27398437 108.64539063 13.3125 107.9375 C16.86475704 109.65185014 20.05271634 111.71492023 23.3125 113.9375 C21.49942803 125.33670784 21.49942803 125.33670784 20.1875 130.6875 C19.21277633 134.85292067 19.15727776 138.66888827 19.3125 142.9375 C19.86679688 143.13085938 20.42109375 143.32421875 20.9921875 143.5234375 C21.71664062 143.78382813 22.44109375 144.04421875 23.1875 144.3125 C23.90679687 144.56773437 24.62609375 144.82296875 25.3671875 145.0859375 C27.3125 145.9375 27.3125 145.9375 29.3125 147.9375 C29.125 150.9375 29.125 150.9375 28.3125 153.9375 C24.1329355 156.72387633 22.16581323 155.73312512 17.3125 154.9375 C17.3125 159.2275 17.3125 163.5175 17.3125 167.9375 C18.6325 168.2675 19.9525 168.5975 21.3125 168.9375 C22.3125 169.9375 22.3125 169.9375 22.5625 172.8125 C22.3125 175.9375 22.3125 175.9375 21.078125 177.63671875 C18.09483043 179.83458842 15.4558354 178.95140151 11.91796875 178.53125 C4.32683137 177.28113854 -3.18004291 175.61014588 -10.6875 173.9375 C-10.07927988 165.92359972 -9.00143754 158.05147101 -7.6875 150.125 C-7.42066406 148.4862793 -7.42066406 148.4862793 -7.1484375 146.81445312 C-6.33924319 141.85360892 -5.51465178 136.89537821 -4.6875 131.9375 C-2.7075 131.9375 -0.7275 131.9375 1.3125 131.9375 C1.3125 131.2775 1.3125 130.6175 1.3125 129.9375 C0.013125 129.999375 -1.28625 130.06125 -2.625 130.125 C-7.74299789 130.14937142 -11.96818221 128.81183898 -16.6875 126.9375 C-16.543125 126.35742188 -16.39875 125.77734375 -16.25 125.1796875 C-15.18393703 120.69333916 -14.33899338 116.58425496 -14.6875 111.9375 C-15.79546961 110.62629347 -15.79546961 110.62629347 -18.5625 110.5625 C-21.79571813 110.591223 -21.79571813 110.591223 -23.4375 113 C-24.82485734 116.26028975 -25.81281197 119.50603156 -26.6875 122.9375 C-31.0052458 122.42952991 -34.72052114 121.74067221 -38.6875 119.9375 C-38.543125 118.7825 -38.39875 117.6275 -38.25 116.4375 C-38.11464844 115.35082031 -38.11464844 115.35082031 -37.9765625 114.2421875 C-37.78642642 112.72623766 -37.59378805 111.21059921 -37.3984375 109.6953125 C-36.87680853 105.82891034 -36.87680853 105.82891034 -36.6875 101.9375 C-39.6575 101.9375 -42.6275 101.9375 -45.6875 101.9375 C-45.86925781 102.71996094 -46.05101562 103.50242187 -46.23828125 104.30859375 C-46.61533203 105.82646484 -46.61533203 105.82646484 -47 107.375 C-47.24363281 108.38433594 -47.48726562 109.39367187 -47.73828125 110.43359375 C-48.05152344 111.25988281 -48.36476562 112.08617187 -48.6875 112.9375 C-51.6875 113.9375 -51.6875 113.9375 -54.7890625 112.57421875 C-55.96926849 111.93494051 -57.14360664 111.28473566 -58.3125 110.625 C-58.910625 110.30337891 -59.50875 109.98175781 -60.125 109.65039062 C-64.54990608 107.21268784 -64.54990608 107.21268784 -65.6875 104.9375 C-65.213125 104.03 -64.73875 103.1225 -64.25 102.1875 C-62.58202163 98.718105 -62.25663735 96.72909134 -62.6875 92.9375 C-64.48971125 90.69001559 -64.48971125 90.69001559 -67 90.8125 C-71.16515425 92.55605294 -72.6166841 96.06903965 -74.6875 99.9375 C-79.28056496 98.4515084 -82.12319245 96.08735318 -85.6875 92.9375 C-85.1925 91.90625 -84.6975 90.875 -84.1875 89.8125 C-82.72641827 86.39869292 -82.25198646 83.68291645 -82.6875 79.9375 C-83.3475 79.2775 -84.0075 78.6175 -84.6875 77.9375 C-87.16076954 77.79658518 -87.16076954 77.79658518 -89.6875 78.9375 C-92.02164647 81.89599927 -92.02164647 81.89599927 -93.6875 84.9375 C-97.06487047 81.85381392 -97.61300625 79.60794372 -98.125 75 C-98.07379083 67.19060188 -93.41450589 59.91368463 -88.6875 53.9375 C-83.8125 55.8125 -83.8125 55.8125 -82.6875 56.9375 C-80.01691149 57.07865161 -77.36317762 56.97997107 -74.6875 56.9375 C-74.26859782 54.14811788 -74.26859782 54.14811788 -74.6875 50.9375 C-76.33396685 49.25087542 -77.99933067 47.58238294 -79.6875 45.9375 C-79.41716404 42.57181724 -78.03238476 40.94122191 -75.625 38.6875 C-74.80322266 37.90632813 -74.80322266 37.90632813 -73.96484375 37.109375 C-73.54332031 36.72265625 -73.12179688 36.3359375 -72.6875 35.9375 C-70.19388429 37.14131448 -68.00606917 38.39178722 -65.6875 39.9375 C-63.14542029 40.27093551 -63.14542029 40.27093551 -60.6875 39.9375 C-58.47765749 38.11977196 -58.47765749 38.11977196 -58.3125 35.5625 C-58.79487612 32.18586718 -60.13208496 31.09363144 -62.6875 28.9375 C-56.4746845 15.09438198 -38.08334571 4.3315011 -24.6875 -1.0625 C-17.21976539 -3.55174487 -7.16728211 -3.30214659 0 0 Z " fill="#FC9622" transform="translate(180.6875,186.0625)"/>
<path d="M0 0 C7.14351936 6.91570781 9.82660482 14.61362458 10.15234375 24.47265625 C9.92081679 34.22836059 7.0827233 44.0662769 0.71484375 51.66015625 C-6.09852591 56.97458459 -11.90535187 57.14252785 -20.28515625 56.66015625 C-22.28515625 55.99348958 -24.28515625 55.32682292 -26.28515625 54.66015625 C-35.55791436 53.25255447 -42.08976393 55.87230626 -50.1328125 60.03125 C-54.88222944 62.48540968 -58.34424496 62.84749325 -63.66015625 62.91015625 C-65.62082031 62.94882813 -65.62082031 62.94882813 -67.62109375 62.98828125 C-71.41753024 62.64830186 -73.32349459 62.01576359 -76.28515625 59.66015625 C-76.28515625 59.00015625 -76.28515625 58.34015625 -76.28515625 57.66015625 C-75.52589844 57.26183594 -74.76664063 56.86351562 -73.984375 56.453125 C-72.99050781 55.92332031 -71.99664062 55.39351562 -70.97265625 54.84765625 C-69.49345703 54.06455078 -69.49345703 54.06455078 -67.984375 53.265625 C-65.63399197 51.8676403 -63.9444477 50.81170416 -62.28515625 48.66015625 C-61.70182292 45.16015625 -61.70182292 45.16015625 -62.28515625 41.66015625 C-64.4865244 39.03544807 -65.82786263 38.70880451 -69.22265625 38.34765625 C-72.29011754 38.6606625 -74.47543495 39.44514164 -77.28515625 40.66015625 C-78.27515625 40.66015625 -79.26515625 40.66015625 -80.28515625 40.66015625 C-82.70517704 37.52836464 -84.90013641 34.6556452 -85.28515625 30.66015625 C-78.3826431 13.665521 -62.46907386 2.80142044 -46.28515625 -4.33984375 C-31.85322478 -9.52099679 -12.33097979 -10.26320813 0 0 Z " fill="#FDFDFD" transform="translate(271.28515625,153.33984375)"/>
<path d="M0 0 C7.36409297 3.79756167 11.05946998 9.38046461 13.9921875 17.02734375 C19.70087098 40.04504831 6.63763276 67.01439752 -5.0078125 86.34765625 C-6.17627667 88.17338152 -7.3588285 89.99026073 -8.5625 91.79296875 C-9.87472466 93.82159715 -10.9767821 95.84516289 -12.0078125 98.02734375 C-1.98406205 88.54027078 3.46146668 75.4530194 8.9921875 63.02734375 C9.518125 61.86074219 10.0440625 60.69414062 10.5859375 59.4921875 C14.80010413 49.10894916 16.36653697 38.68802188 16.4296875 27.52734375 C16.43959717 26.62040771 16.44950684 25.71347168 16.4597168 24.77905273 C16.38226439 18.71269082 15.24655688 13.65424973 12.9921875 8.02734375 C20.01572754 11.87356806 24.61861918 18.38640464 26.9921875 26.02734375 C28.80697253 45.47419811 23.4642986 62.73321505 14.9921875 80.02734375 C14.67878418 80.68250977 14.36538086 81.33767578 14.04248047 82.01269531 C8.26528463 93.99002354 1.81360309 104.39026302 -10.828125 110.01953125 C-17.35001877 112.08666711 -23.48585922 112.42095649 -29.91015625 109.87890625 C-36.13715332 106.4225114 -39.73662166 102.84091627 -42.0078125 96.02734375 C-43.28583606 88.11653968 -40.37668561 83.4081979 -36.0078125 77.02734375 C-31.55532213 70.21190893 -27.32549778 63.47497518 -24.0078125 56.02734375 C-23.61335938 55.21910156 -23.21890625 54.41085937 -22.8125 53.578125 C-19.8439632 46.46816797 -19.58940317 39.50474236 -19.5078125 31.90234375 C-19.48936279 30.88897949 -19.47091309 29.87561523 -19.4519043 28.83154297 C-19.51041588 21.71398576 -20.33588811 13.68717497 -25.63867188 8.40185547 C-27.0078125 7.02734375 -27.0078125 7.02734375 -27.0703125 4.58984375 C-25.91863844 1.8122769 -24.74078312 0.29752031 -22.13671875 -1.24609375 C-15.22367275 -3.60540853 -6.71208795 -2.6676247 0 0 Z " fill="#FC0073" transform="translate(316.0078125,271.97265625)"/>
<path d="M0 0 C3.71856522 1.31788231 6.95610814 3.1099784 10.31225586 5.171875 C29.4561339 16.91786432 49.98972016 25.23541314 71 33 C72.58501532 33.59273511 74.1697028 34.18634842 75.75390625 34.78125 C76.82511719 35.1834375 77.89632812 35.585625 79 36 C76.0249688 41.5683106 72.83954291 46.86993571 69.234375 52.0546875 C66.14335979 56.92597096 66.32648722 62.43808805 67 68 C68.33671009 71.55169178 70.05822995 74.74673936 72 78 C72.33 78.66 72.66 79.32 73 80 C71.33769459 80.65697732 69.66985652 81.29995967 68 81.9375 C67.071875 82.29714844 66.14375 82.65679687 65.1875 83.02734375 C50.2048724 87.59924849 27.89589431 87.32561106 13.6875 80.75 C7.07582819 77.12047872 0.40146379 72.49547788 -2 65 C-2.30049907 61.6353957 -2.24384424 58.36640515 -2 55 C-3.32 54.34 -4.64 53.68 -6 53 C-6 48.71 -6 44.42 -6 40 C-4.1128125 40.0928125 -4.1128125 40.0928125 -2.1875 40.1875 C0.48703401 40.17801584 1.71452998 40.16436153 4.0625 38.8125 C5.15291959 36.97559439 5.15291959 36.97559439 5.25 34.5625 C3.22009867 30.40120228 -0.80778913 29.5159712 -5 28 C-5.21670934 21.89019478 -4.47509047 16.55885754 -3.0625 10.625 C-2.78889648 9.41650391 -2.78889648 9.41650391 -2.50976562 8.18359375 C-1.15865198 2.31730396 -1.15865198 2.31730396 0 0 Z " fill="#F9FDBB" transform="translate(204,301)"/>
<path d="M0 0 C17.76118081 7.74993427 32.15919635 20.18095402 45.80712891 33.69384766 C46.38688477 34.26433838 46.96664062 34.8348291 47.56396484 35.42260742 C48.11084961 35.97360107 48.65773438 36.52459473 49.22119141 37.09228516 C49.69766113 37.57101074 50.17413086 38.04973633 50.66503906 38.54296875 C52.7470116 40.98008949 54.43986182 43.63255961 56.18212891 46.31884766 C51.81077842 46.73785516 47.44193071 47.0780593 43.05957031 47.3503418 C41.57425724 47.45321575 40.09019668 47.5764806 38.60839844 47.72143555 C26.29027523 48.9050718 26.29027523 48.9050718 21.13793945 45.02832031 C18.64218231 42.22820254 16.41359583 39.33100816 14.18212891 36.31884766 C7.37150699 29.88382507 -0.63020337 25.92070556 -9.81787109 24.31884766 C-8.45548586 27.04361813 -7.15787046 27.06958862 -4.31787109 28.06884766 C3.89953604 31.27421923 10.02183253 35.91613909 16.24462891 42.06884766 C16.73439209 42.55297119 17.22415527 43.03709473 17.72875977 43.53588867 C21.18212891 47.06222067 21.18212891 47.06222067 21.18212891 49.31884766 C20.18697266 49.51478516 19.19181641 49.71072266 18.16650391 49.91259766 C-4.35514094 54.62077456 -27.34501717 64.10206199 -43.48974609 81.07666016 C-44.81787109 82.31884766 -44.81787109 82.31884766 -46.81787109 82.31884766 C-47.19711522 74.98679461 -46.04597492 68.48374963 -44.31396484 61.36425781 C-43.97264635 59.95699089 -43.63978403 58.54765474 -43.31396484 57.13671875 C-38.82727917 37.78165528 -31.89200509 13.37117754 -14.81787109 1.31884766 C-9.91546021 -1.42962127 -5.31279999 -1.9906946 0 0 Z " fill="#FC9622" transform="translate(219.81787109375,48.68115234375)"/>
<path d="M0 0 C5.05433789 1.51789078 9.57238924 3.66800878 14.25 6.0625 C14.96929687 6.42666016 15.68859375 6.79082031 16.4296875 7.16601562 C18.28811648 8.10741083 20.14422315 9.05338737 22 10 C22.66 10.33 23.32 10.66 24 11 C24.59355614 13.64860427 24.74209269 16.29197322 25 19 C25.86496094 19.25136719 26.72992188 19.50273437 27.62109375 19.76171875 C31.18002504 21.0659745 33.92514617 22.69529219 37.0625 24.8125 C38.06410156 25.47894531 39.06570313 26.14539063 40.09765625 26.83203125 C47.50044397 32.36170445 47.50044397 32.36170445 48.62890625 36.0625 C48.46272174 40.91117743 47.62605168 43.4805969 44 47 C40.78509882 48.60745059 38.5698929 48.40305242 35 48 C32.05063541 46.23449903 29.64535549 44.22766778 27 42 C26.34 46.95 25.68 51.9 25 57 C26.65 57.66 28.3 58.32 30 59 C31.7733094 60.25221698 33.50257996 61.56866178 35.1875 62.9375 C36.04730469 63.62714844 36.90710938 64.31679687 37.79296875 65.02734375 C40.57196531 67.51122563 41.90469618 69.12320485 42.3125 72.875 C41.95659791 76.4340209 41.18611509 78.1892806 39 81 C35.76274341 83.34422029 32.91567194 83.32032969 29 83 C26.2265625 81.46875 26.2265625 81.46875 23.625 79.5 C22.75101562 78.8503125 21.87703125 78.200625 20.9765625 77.53125 C19.99816406 76.77328125 19.99816406 76.77328125 19 76 C18.7525 76.9075 18.505 77.815 18.25 78.75 C16.89649254 82.26911941 16.10640228 83.87456686 13 86 C8.10298688 86.6995733 6.16005119 86.74919973 2 84.0625 C-0.66205984 79.98622087 -0.77214727 76.74667372 0 72 C0.62198463 70.31614807 1.27929367 68.64402087 2 67 C0.74896484 66.81824219 0.74896484 66.81824219 -0.52734375 66.6328125 C-4.02234896 66.11236499 -7.51121864 65.56055701 -11 65 C-11.89976562 64.86722656 -12.79953125 64.73445313 -13.7265625 64.59765625 C-17.49575403 63.93584168 -19.56956123 63.35694922 -22.5625 60.875 C-24.4572094 57.0855812 -24.92038527 54.15010083 -24 50 C-22.1875 47 -22.1875 47 -19 45 C-10.41916062 43.45336691 -1.33830791 46.1640423 7 48 C7.33 42.72 7.66 37.44 8 32 C5.999375 31.690625 3.99875 31.38125 1.9375 31.0625 C0.75027344 30.87429687 -0.43695313 30.68609375 -1.66015625 30.4921875 C-4.12407145 30.12908421 -6.52266076 29.87509362 -9 29.6875 C-12.91236012 28.79091747 -14.47345211 27.04671951 -17 24 C-18.42662219 21.14675563 -18.31033868 19.16545451 -18 16 C-16.20006226 13.30009338 -14.916227 11.4581135 -12 10 C-10.23132545 9.90316436 -8.45881697 9.87020618 -6.6875 9.875 C-5.74261719 9.87242188 -4.79773438 9.86984375 -3.82421875 9.8671875 C-1 10 -1 10 4 11 C2.68 7.37 1.36 3.74 0 0 Z " fill="#8C5E3B" transform="translate(328,110)"/>
<path d="M0 0 C7.36326096 3.54955405 12.20361385 11.77403198 15.15234375 19.1015625 C20.34006382 34.45617114 18.35062427 50.41838153 12.1015625 65.17578125 C9.60324146 69.92259123 6.3708475 73.44157041 1.9296875 76.40234375 C-0.078125 76.78125 -0.078125 76.78125 -2.1953125 76.96484375 C-5.84495216 76.96921274 -5.84495216 76.96921274 -7.0703125 78.40234375 C-10.51326397 78.40234375 -13.0682437 78.22530975 -15.796875 75.984375 C-20.82845846 70.37031759 -22.14692567 64.83222934 -22.9453125 57.40234375 C-24.18770826 48.42321078 -27.93381349 44.28213038 -34.36328125 38.234375 C-37.66704467 34.68868841 -37.41574611 30.61127053 -37.3359375 26.015625 C-36.38123591 16.62304611 -28.62849807 9.16228733 -21.68359375 3.43359375 C-14.90010364 -1.19796794 -7.95527715 -2.2965234 0 0 Z " fill="#FDFDFC" transform="translate(411.0703125,224.59765625)"/>
<path d="M0 0 C4.875 0.875 4.875 0.875 6 2 C6 3.375 6 4.75 6 6.125 C6.29735843 9.36005466 6.62295837 10.62671376 8.9609375 12.94140625 C10.57519078 14.10899721 12.19771502 15.26523459 13.828125 16.41015625 C16.95710002 18.70061098 18.02019033 20.22073413 19 24 C19.97087758 37.2686602 14.1152934 51.46348024 8 63 C7.34 63 6.68 63 6 63 C5.34 62.01 4.68 61.02 4 60 C1 59.58333333 1 59.58333333 -2 60 C-2.99 60.99 -2.99 60.99 -4 62 C-3.70758326 64.7633037 -3.70758326 64.7633037 -3 68 C-2.80087031 69.4567909 -2.61350014 70.91523416 -2.4375 72.375 C-2.293125 73.57125 -2.14875 74.7675 -2 76 C-3.26691507 76.67408308 -4.53870749 77.33900497 -5.8125 78 C-6.52019531 78.37125 -7.22789062 78.7425 -7.95703125 79.125 C-10 80 -10 80 -13 80 C-13.34933594 79.07316406 -13.69867188 78.14632812 -14.05859375 77.19140625 C-14.74115234 75.39509766 -14.74115234 75.39509766 -15.4375 73.5625 C-15.88996094 72.36753906 -16.34242188 71.17257812 -16.80859375 69.94140625 C-17.7144826 67.15554277 -17.7144826 67.15554277 -19 66 C-21.95817107 65.74994614 -21.95817107 65.74994614 -25 66 C-25.66 66.66 -26.32 67.32 -27 68 C-27.02253443 70.44963177 -27.02253443 70.44963177 -26.625 73.125 C-26.51414062 74.03507812 -26.40328125 74.94515625 -26.2890625 75.8828125 C-26.19367188 76.58148438 -26.09828125 77.28015625 -26 78 C-33.75 77.125 -33.75 77.125 -36 76 C-35.91621094 75.07316406 -35.83242188 74.14632812 -35.74609375 73.19140625 C-35.64425781 71.99386719 -35.54242188 70.79632813 -35.4375 69.5625 C-35.33308594 68.36753906 -35.22867188 67.17257812 -35.12109375 65.94140625 C-35.08113281 64.97074219 -35.04117188 64.00007813 -35 63 C-36.10796961 61.68879347 -36.10796961 61.68879347 -38.875 61.625 C-39.90625 61.74875 -40.9375 61.8725 -42 62 C-43.86250805 64.21491684 -43.86250805 64.21491684 -45 67 C-45.391875 67.763125 -45.78375 68.52625 -46.1875 69.3125 C-46.455625 69.869375 -46.72375 70.42625 -47 71 C-51.13882142 70.39134979 -54.30009051 68.91144908 -58 67 C-57.91621094 66.00097656 -57.83242188 65.00195312 -57.74609375 63.97265625 C-57.64425781 62.68230469 -57.54242188 61.39195312 -57.4375 60.0625 C-57.33308594 58.77472656 -57.22867187 57.48695313 -57.12109375 56.16015625 C-57.08113281 55.11730469 -57.04117187 54.07445312 -57 53 C-58.10796961 51.68879347 -58.10796961 51.68879347 -60.875 51.625 C-61.90625 51.74875 -62.9375 51.8725 -64 52 C-65.86250805 54.21491684 -65.86250805 54.21491684 -67 57 C-67.391875 57.763125 -67.78375 58.52625 -68.1875 59.3125 C-68.455625 59.869375 -68.72375 60.42625 -69 61 C-71.4375 60.625 -71.4375 60.625 -74 60 C-75 58 -75 58 -74.12109375 54.59375 C-72.44545471 50.17243362 -70.65965758 46.11244691 -67 43 C-60.87668646 40.73247811 -54.19002929 40.97566049 -47.73974609 41.03198242 C-44.21031519 40.99078162 -40.76840975 40.58773617 -37.27246094 40.12280273 C-34.01019386 39.94651134 -31.13367283 40.65648598 -28.0078125 41.52734375 C-25.69485446 42.15276326 -25.69485446 42.15276326 -22 42 C-21.72027344 41.11699219 -21.44054687 40.23398437 -21.15234375 39.32421875 C-14.46750976 19.31270606 -14.46750976 19.31270606 -6.25 14.5625 C-3.54597885 12.94616376 -3.02999303 12.08033469 -1.89453125 9.0390625 C-1.14870825 6.03476141 -0.51115953 3.05235262 0 0 Z " fill="#FB9522" transform="translate(405,304)"/>
<path d="M0 0 C2.00093689 -0.00218046 4.00183416 -0.02068039 6.00268555 -0.03930664 C15.3156739 -0.05326914 24.21296616 0.21462974 32.64135742 4.56030273 C33.44444336 4.95991211 34.2475293 5.35952148 35.07495117 5.77124023 C37.52390061 7.39788188 38.77283094 8.60945506 40.20385742 11.18530273 C43.91147529 33.54597485 29.01783883 55.77852587 18.20385742 74.18530273 C17.87385742 74.18530273 17.54385742 74.18530273 17.20385742 74.18530273 C17.06923096 73.34890259 17.06923096 73.34890259 16.93188477 72.49560547 C14.16314209 55.71247351 9.61961405 41.66187951 0.84057617 27.01342773 C-0.79614258 24.18530273 -0.79614258 24.18530273 -1.79614258 21.18530273 C5.11519382 21.65653022 10.92589903 24.39166279 17.20385742 27.18530273 C12.15561677 21.77485648 6.66014706 19.36239636 -0.67114258 18.68530273 C-9.14948275 17.27888011 -15.01988406 7.71127972 -19.79614258 1.18530273 C-13.15788187 0.12653949 -6.70966974 -0.00081696 0 0 Z " fill="#FC9622" transform="translate(401.796142578125,138.814697265625)"/>
<path d="M0 0 C-1.40380305 8.38865734 -3.24148278 16.62718524 -5.3125 24.875 C-5.59544922 26.07125 -5.87839844 27.2675 -6.16992188 28.5 C-8.19418944 36.52525589 -10.22675221 40.79770301 -17.41796875 45.1328125 C-18.66795745 45.80907108 -19.9247649 46.47285164 -21.1875 47.125 C-21.84661377 47.47046875 -22.50572754 47.8159375 -23.18481445 48.171875 C-29.58488769 51.44252074 -35.73493844 54 -43 54 C-42.97679687 53.37351562 -42.95359375 52.74703125 -42.9296875 52.1015625 C-42.91164062 51.28429687 -42.89359375 50.46703125 -42.875 49.625 C-42.85179687 48.81289063 -42.82859375 48.00078125 -42.8046875 47.1640625 C-42.78629949 44.78657757 -42.78629949 44.78657757 -45 43 C-46.65 43 -48.3 43 -50 43 C-50.66 46.63 -51.32 50.26 -52 54 C-54.64 54 -57.28 54 -60 54 C-60.6875 52.4375 -60.6875 52.4375 -61 50 C-60.02059602 47.65794699 -59.01965427 45.32481174 -58 43 C-57.58013054 40.28836222 -57.58013054 40.28836222 -58 38 C-58.66 37.34 -59.32 36.68 -60 36 C-62.99007115 35.88639721 -62.99007115 35.88639721 -66 37 C-68.01275258 39.48335076 -68.01275258 39.48335076 -69.375 42.5625 C-69.87773438 43.57441406 -70.38046875 44.58632813 -70.8984375 45.62890625 C-71.26195313 46.41136719 -71.62546875 47.19382812 -72 48 C-75.72024288 45.96133287 -78.38380142 43.8028866 -81.1875 40.625 C-81.86167969 39.87476563 -82.53585938 39.12453125 -83.23046875 38.3515625 C-85.02327943 35.96906354 -86.03282365 33.80729135 -87 31 C-86.2265625 30.98582031 -85.453125 30.97164063 -84.65625 30.95703125 C-76.33671757 30.57606256 -70.92390118 28.92390118 -65 23 C-64.52949219 23.42152344 -64.05898437 23.84304688 -63.57421875 24.27734375 C-62.95160156 24.82519531 -62.32898438 25.37304688 -61.6875 25.9375 C-60.76517578 26.75541016 -60.76517578 26.75541016 -59.82421875 27.58984375 C-54.69364015 31.55587989 -46.78804214 30.36617741 -40.65625 29.7734375 C-39.09884096 29.55003866 -37.54797164 29.28144939 -36 29 C-35.62488281 29.5775 -35.24976563 30.155 -34.86328125 30.75 C-34.35152344 31.4925 -33.83976562 32.235 -33.3125 33 C-32.81363281 33.7425 -32.31476563 34.485 -31.80078125 35.25 C-30.09732957 37.26019708 -30.09732957 37.26019708 -27.35546875 37.3125 C-25.0463721 37.24902802 -25.0463721 37.24902802 -24 36 C-23.55280961 32.06472456 -23.60795978 30.51084029 -26.0625 27.3125 C-26.701875 26.549375 -27.34125 25.78625 -28 25 C-27.505 23.515 -27.505 23.515 -27 22 C-25.68 21.67 -24.36 21.34 -23 21 C-21.35 23.97 -19.7 26.94 -18 30 C-16.02 30 -14.04 30 -12 30 C-11.11338401 27.02537712 -10.74468101 25.55459399 -12.06640625 22.68359375 C-13.065804 21.18319243 -14.06580657 19.68319379 -15.06640625 18.18359375 C-16 16 -16 16 -15.359375 13.9375 C-13.94205469 11.91741129 -12.46723692 10.2712053 -10.6875 8.5625 C-10.06875 7.964375 -9.45 7.36625 -8.8125 6.75 C-8.214375 6.1725 -7.61625 5.595 -7 5 C-6.06119817 4.02208143 -5.12351459 3.04308671 -4.1875 2.0625 C-2 0 -2 0 0 0 Z " fill="#FA9522" transform="translate(161,386)"/>
<path d="M0 0 C7.20539114 5.29961739 11.01319059 11.70118055 13.125 20.3125 C13.53642984 23.61758645 13.60295938 26.85955561 13.5625 30.1875 C13.55114014 31.50186035 13.55114014 31.50186035 13.53955078 32.84277344 C13.28117502 43.01561197 10.52274849 52.0138285 3.125 59.3125 C-2.34258982 63.69084341 -7.24484118 64.93929895 -14.1875 64.62109375 C-16.65446777 64.33782274 -18.96553639 63.90195806 -21.375 63.3125 C-32.07152125 60.7612096 -39.15584677 62.79456718 -48.6875 67.68359375 C-55.475429 71.15242511 -62.42610376 70.92863352 -69.875 70.3125 C-72.58713688 69.26292508 -74.46138155 67.97521493 -76.875 66.3125 C-79.23169053 66.41525315 -79.23169053 66.41525315 -80.875 67.3125 C-80.80859375 65.07421875 -80.80859375 65.07421875 -79.875 62.3125 C-77.54860681 60.68020136 -75.44428361 59.39950941 -72.9375 58.125 C-68.09208912 55.67355591 -68.09208912 55.67355591 -63.875 52.3125 C-63.6249227 49.77059998 -63.6249227 49.77059998 -63.875 47.3125 C-64.96468674 46.00369034 -64.96468674 46.00369034 -67.625 46.125 C-70.83538061 46.13131776 -70.83538061 46.13131776 -73.4375 47.375 C-76.55628279 48.57453184 -77.78681774 48.62497746 -80.875 47.3125 C-81.984375 45.8203125 -81.984375 45.8203125 -83.125 44 C-86.14844592 39.4554995 -89.6522817 37.69208597 -94.875 36.3125 C-99.20680782 35.73752438 -103.5086351 35.44747264 -107.875 35.3125 C-107.875 34.6525 -107.875 33.9925 -107.875 33.3125 C-113.27295989 34.46308556 -118.58487333 35.73671759 -123.875 37.3125 C-123.58959486 35.74884416 -123.29636502 34.18661566 -123 32.625 C-122.83757812 31.75488281 -122.67515625 30.88476562 -122.5078125 29.98828125 C-121.8686906 27.28582135 -120.93047631 24.87606792 -119.875 22.3125 C-115.80850785 22.8699343 -111.7479769 23.46293647 -107.6875 24.0625 C-105.96176758 24.29839844 -105.96176758 24.29839844 -104.20117188 24.5390625 C-103.08935547 24.70664063 -101.97753906 24.87421875 -100.83203125 25.046875 C-99.81085205 25.19350586 -98.78967285 25.34013672 -97.73754883 25.49121094 C-94.33073511 26.46865412 -92.41903337 27.86854012 -89.875 30.3125 C-89.0625 33.0625 -89.0625 33.0625 -88.875 35.3125 C-87.885 35.3125 -86.895 35.3125 -85.875 35.3125 C-85.73771484 34.23935547 -85.73771484 34.23935547 -85.59765625 33.14453125 C-82.15020514 19.63424989 -67.1098937 9.26616793 -55.875 2.3125 C-52.29058228 0.36307983 -48.69400947 -1.25537145 -44.875 -2.6875 C-44.0396875 -3.00589844 -43.204375 -3.32429687 -42.34375 -3.65234375 C-29.06275365 -7.99266936 -12.03883571 -7.33929021 0 0 Z M-74.875 21.3125 C-81.11890665 28.50510716 -81.11890665 28.50510716 -83.75 37.1875 C-82.51874503 40.17769064 -80.73179168 42.67705374 -78.875 45.3125 C-74.74526372 44.74510132 -74.74526372 44.74510132 -70.875 43.3125 C-67.6486324 43.0319463 -65.47381746 43.04460798 -62.5 44.375 C-60.875 46.3125 -60.875 46.3125 -60.25 49.6875 C-60.924902 53.60193163 -61.81574494 54.87345687 -65.0078125 57.1796875 C-68.20416544 59.11889745 -71.48518512 60.73448273 -74.875 62.3125 C-74.19773766 65.31965186 -74.19773766 65.31965186 -72.2578125 66.4765625 C-64.30236562 69.26748976 -54.54946354 67.91282806 -47.05859375 64.46875 C-45.65948844 63.72789996 -44.27458534 62.95917447 -42.91015625 62.15625 C-37.00042739 58.77235618 -31.6011465 58.64180163 -24.875 59.3125 C-22.875 59.97916667 -20.875 60.64583333 -18.875 61.3125 C-10.56344069 62.01667377 -4.94162958 61.58564088 1.6875 56.25 C9.88159372 46.37506654 12.27326514 34.90140689 11.125 22.3125 C8.92169829 13.82865268 4.6620128 6.69653378 -2.5625 1.63671875 C-27.24501534 -12.49735676 -57.46138411 3.20432393 -74.875 21.3125 Z " fill="#5C3309" transform="translate(269.875,148.6875)"/>
<path d="M0 0 C6.77878822 -0.36244966 13.12312456 0.98178681 19.75 2.3125 C20.88566406 2.52583984 22.02132812 2.73917969 23.19140625 2.95898438 C24.82142578 3.28286133 24.82142578 3.28286133 26.484375 3.61328125 C27.47147461 3.80704346 28.45857422 4.00080566 29.47558594 4.20043945 C32.16568682 5.05247818 33.3659999 5.71483347 35 8 C34.875 11.0625 34.875 11.0625 34 14 C29.8204355 16.78637633 27.85331323 15.79562512 23 15 C23 19.29 23 23.58 23 28 C24.32 28.33 25.64 28.66 27 29 C28 30 28 30 28.25 32.875 C28 36 28 36 26.765625 37.69921875 C23.78233043 39.89708842 21.1433354 39.01390151 17.60546875 38.59375 C10.01433137 37.34363854 2.50745709 35.67264588 -5 34 C-4.45945706 26.60279773 -3.53531554 19.2794517 -2.5 11.9375 C-2.36940186 10.99688721 -2.23880371 10.05627441 -2.10424805 9.0871582 C-1.97703369 8.20116943 -1.84981934 7.31518066 -1.71875 6.40234375 C-1.60466797 5.60304443 -1.49058594 4.80374512 -1.37304688 3.98022461 C-1 2 -1 2 0 0 Z " fill="#8E603C" transform="translate(175,326)"/>
<path d="M0 0 C0.33 0 0.66 0 1 0 C1 2.31 1 4.62 1 7 C1.61488281 6.855625 2.22976563 6.71125 2.86328125 6.5625 C3.67152344 6.376875 4.47976563 6.19125 5.3125 6 C6.11300781 5.814375 6.91351563 5.62875 7.73828125 5.4375 C12.42756711 4.5304188 14.87660554 5.80085629 19 8 C19.04688822 11.44963321 18.88176185 14.6544918 18 18 C16.4294407 19.58357499 14.83654136 20.48620578 12.90625 21.59375 C9.77654839 23.90254627 8.28418435 27.13003462 6.45703125 30.5 C1.47693785 39.04493237 -5.10729888 41.34182131 -14.359375 43.9453125 C-23.99728146 46.27560444 -33.10553967 47.18590844 -43 47 C-42.65066406 46.04738281 -42.30132812 45.09476562 -41.94140625 44.11328125 C-41.48158334 42.84642221 -41.02195838 41.5794913 -40.5625 40.3125 C-40.33240234 39.68666016 -40.10230469 39.06082031 -39.86523438 38.41601562 C-38.61946333 34.96757692 -37.60195551 31.6186521 -37 28 C-36.34 28 -35.68 28 -35 28 C-33.33333333 29.66666667 -31.66666667 31.33333333 -30 33 C-26.5591561 35.69687765 -23.66831764 36.60708262 -19.25 36.40625 C-13.92680198 35.44511702 -9.00150245 33.18812272 -5.32421875 29.16796875 C0.73743507 20.1023095 0.24480809 10.44514537 0 0 Z " fill="#FA9522" transform="translate(382,297)"/>
<path d="M0 0 C12.84544046 2.67497242 22.60399086 11.20162057 31 21 C31 21.66 31 22.32 31 23 C29.50726563 23.29390625 29.50726563 23.29390625 27.984375 23.59375 C16.75149023 25.94947129 6.45208357 29.71875154 -4.09326172 34.21557617 C-5.70276045 34.87771694 -7.3489322 35.44964407 -9 36 C-12.11466985 29.7706603 -9.90431443 21.05608497 -7.9921875 14.71875 C-6.08458109 9.49160804 -3.97622741 3.97622741 0 0 Z " fill="#F7FBB8" transform="translate(210,75)"/>
<path d="M0 0 C1.13199353 0.9080162 2.25532363 1.82683826 3.375 2.75 C4.00148437 3.26046875 4.62796875 3.7709375 5.2734375 4.296875 C7.12695535 6.12523197 8.07393738 7.57437406 9 10 C8.9229176 14.31661426 8.71787298 16.28212702 5.625 19.375 C-0.65047234 23.25981621 -6.90490948 22.40005245 -13.8125 20.875 C-22.45012231 18.55998618 -30.64239156 14.35760844 -37 8 C-38 5.8125 -38 5.8125 -38 4 C-37.34 3.34 -36.68 2.68 -36 2 C-34.7315625 2.99 -34.7315625 2.99 -33.4375 4 C-27.46636664 7.37236075 -20.6079363 6.79773879 -14 6 C-9.77829722 4.70669937 -5.91362771 3.03348629 -2 1 C-1.34 0.67 -0.68 0.34 0 0 Z " fill="#F8FAB8" transform="translate(229,212)"/>
<path d="M0 0 C3.38840111 1.23806964 5.39953158 2.26609415 7.6875 5.0625 C9.57619866 9.28958748 11.37606256 13.38134112 12 18 C10.34858852 21.37462347 8.53641891 22.6011244 5.5625 24.8125 C0.10306737 26.63231088 -5.29674049 26.22846885 -11 26 C-13.85308443 19.69943856 -15.16110072 13.92438247 -14 7 C-10.70817712 0.75772846 -6.75834088 -0.45055606 0 0 Z " fill="#8A5D3A" transform="translate(84,391)"/>
<path d="M0 0 C0.33 0 0.66 0 1 0 C1 2.31 1 4.62 1 7 C1.61488281 6.855625 2.22976563 6.71125 2.86328125 6.5625 C3.67152344 6.376875 4.47976563 6.19125 5.3125 6 C6.11300781 5.814375 6.91351563 5.62875 7.73828125 5.4375 C12.42756711 4.5304188 14.87660554 5.80085629 19 8 C19.04688822 11.44963321 18.88176185 14.6544918 18 18 C16.43106058 19.58194168 14.84533498 20.48128541 12.9140625 21.58203125 C9.70373998 23.96029059 8.15181649 27.33900932 6.26171875 30.79296875 C5 33 5 33 3 35 C-0.465 31.535 -0.465 31.535 -4 28 C-3.71125 27.23558594 -3.4225 26.47117187 -3.125 25.68359375 C-0.03205971 16.75917228 0.46449773 9.3286628 0 0 Z " fill="#8A5D3A" transform="translate(382,297)"/>
<path d="M0 0 C6.52021978 -0.35045029 12.46699985 0.96047398 18.8125 2.375 C19.86115234 2.59671875 20.90980469 2.8184375 21.99023438 3.046875 C23.48973633 3.37558594 23.48973633 3.37558594 25.01953125 3.7109375 C25.92807861 3.90993652 26.83662598 4.10893555 27.77270508 4.31396484 C30 5 30 5 32 7 C32.55715039 12.23721366 32.55715039 12.23721366 30.76171875 14.6953125 C27.78363418 16.90081194 25.14255335 16.01380863 21.60546875 15.59375 C14.01433137 14.34363854 6.50745709 12.67264588 -1 11 C-0.67 7.37 -0.34 3.74 0 0 Z " fill="#8E5F3B" transform="translate(171,349)"/>
<path d="M0 0 C0.33 0.99 0.66 1.98 1 3 C2.7325 3.1546875 2.7325 3.1546875 4.5 3.3125 C9.12758075 3.84389683 13.72077714 4.53488632 18.3125 5.3125 C19.35277344 5.47069214 19.35277344 5.47069214 20.4140625 5.63208008 C24.7793332 6.40500847 27.34363061 7.38267011 30 11 C29.83849795 14.39154295 29.41703243 15.58296757 27 18 C19.90926808 18.60090948 13.43359194 17.20005801 6.55078125 15.65625 C2.61847276 14.81825939 2.61847276 14.81825939 -3 15 C-2.01 10.05 -1.02 5.1 0 0 Z " fill="#8F603A" transform="translate(157,411)"/>
<path d="M0 0 C6.39235904 0.43783281 12.64159973 1.18117585 18.9375 2.375 C20.18402344 2.60960937 21.43054688 2.84421875 22.71484375 3.0859375 C25.87948977 3.96646921 27.67124922 4.71713594 30 7 C30.4375 9.5 30.4375 9.5 30 12 C28.82421875 13.6640625 28.82421875 13.6640625 27 15 C17.17126402 15.69557208 6.64433048 12.83646532 -3 11 C-2.01 7.37 -1.02 3.74 0 0 Z " fill="#8D5F3B" transform="translate(163,391)"/>
<path d="M0 0 C8.20927211 0.0626662 16.07705772 2.04056266 24 4 C24 7.96 24 11.92 24 16 C15.1924876 15.31191309 6.65444599 13.70726664 -2 12 C-1.85962479 10.18706911 -1.71255111 8.3746557 -1.5625 6.5625 C-1.48128906 5.55316406 -1.40007812 4.54382813 -1.31640625 3.50390625 C-1 1 -1 1 0 0 Z " fill="#FC9724" transform="translate(174,337)"/>
<path d="M0 0 C3.65236803 -0.33975517 5.61672415 -0.20830209 8.875 1.5625 C11 4 11 4 11.75 7.375 C10.70276802 12.43662124 8.195136 14.22566156 4 17 C-1.3 20 -1.3 20 -4 20 C-1.27319337 22.85075238 0.06757297 23.92890244 4.125 24.23828125 C13.14944117 24.41112841 20.07457339 23.48693097 27.96484375 18.84375 C33.87958398 15.45698668 39.26968834 15.34035298 46 16 C48.01927511 16.60578253 50.02253397 17.26919734 52 18 C55.32424198 18.45834245 58.65427447 18.74873998 62 19 C62 19.33 62 19.66 62 20 C60.02 20 58.04 20 56 20 C56 20.66 56 21.32 56 22 C55.33355469 21.855625 54.66710937 21.71125 53.98046875 21.5625 C41.40834441 19.03049174 33.5330413 19.55014255 22.1875 25.37109375 C15.399571 28.83992511 8.44889624 28.61613352 1 28 C-1.71213688 26.95042508 -3.58638155 25.66271493 -6 24 C-8.35669053 24.10275315 -8.35669053 24.10275315 -10 25 C-9.93359375 22.76171875 -9.93359375 22.76171875 -9 20 C-6.67360681 18.36770136 -4.56928361 17.08700941 -2.0625 15.8125 C2.78291088 13.36105591 2.78291088 13.36105591 7 10 C7.16687448 7.41645782 7.16687448 7.41645782 7 5 C3.535 3.02 3.535 3.02 0 1 C0 0.67 0 0.34 0 0 Z " fill="#5F3A11" transform="translate(199,191)"/>
<path d="M0 0 C4.06649215 0.5574343 8.1270231 1.15043647 12.1875 1.75 C13.33798828 1.90726563 14.48847656 2.06453125 15.67382812 2.2265625 C16.78564453 2.39414063 17.89746094 2.56171875 19.04296875 2.734375 C20.06414795 2.88100586 21.08532715 3.02763672 22.13745117 3.17871094 C25.53319766 4.15297884 27.44781097 5.5848163 30 8 C30.8125 10.25 30.8125 10.25 31 12 C29.71802734 11.76216797 29.71802734 11.76216797 28.41015625 11.51953125 C18.54753363 10.0169782 9.94444786 10.82438905 0.546875 14.125 C-2 15 -2 15 -4 15 C-3.71459486 13.43634416 -3.42136502 11.87411566 -3.125 10.3125 C-2.96257812 9.44238281 -2.80015625 8.57226562 -2.6328125 7.67578125 C-1.9936906 4.97332135 -1.05547631 2.56356792 0 0 Z " fill="#8D5E39" transform="translate(150,171)"/>
<path d="M0 0 C0 0.99 0 1.98 0 3 C-0.90878906 3.00386719 -0.90878906 3.00386719 -1.8359375 3.0078125 C-11.39765169 3.44912239 -17.90665309 7.45147313 -24.375 14.375 C-29.74348665 20.88456174 -32.74140203 26.13708681 -32.30859375 34.75390625 C-31.74508684 38.85538063 -30.10237673 40.96652182 -27.125 43.7578125 C-19.88009637 50.54990965 -18.37390881 55.98968698 -17.0625 65.6875 C-16.00409819 73.19253103 -13.5662529 76.83133659 -8 82 C-9.485 82.495 -9.485 82.495 -11 83 C-18.59281713 76.03991764 -20.62309319 69.54494348 -21.68945312 59.58398438 C-22.64549694 52.39234265 -25.52325756 49.41914377 -30.6875 44.375 C-34.39607685 40.56619134 -35.318652 37.67422269 -35.4375 32.375 C-35.22605585 23.20500103 -31.57276571 17.3693688 -25.4375 10.75 C-18.22723761 3.93732287 -10.1574971 -1.1720189 0 0 Z " fill="#6A4216" transform="translate(407,221)"/>
<path d="M0 0 C7.16707877 0.32577631 12.76927124 3.65443628 19 7 C19.5939348 14.57266875 17.43286286 20.87518733 15 28 C11.50241481 23.79418105 9.40441167 18.91224621 7.04882812 14.01953125 C5.44612937 10.74002051 3.82030454 7.62575216 1.74609375 4.6171875 C0 2 0 2 0 0 Z " fill="#F6F9B7" transform="translate(400,160)"/>
<path d="M0 0 C0.99 0.33 1.98 0.66 3 1 C0.67872425 21.8568358 -8.9294868 44.43068786 -22 61 C-24.26171875 62.37109375 -24.26171875 62.37109375 -26 63 C-25.35103887 59.16107498 -23.53865388 56.49013553 -21.4375 53.25 C-11.06481793 36.72889007 -3.97630912 19.12874921 0 0 Z " fill="#62230D" transform="translate(330,307)"/>
<path d="M0 0 C0.33 0 0.66 0 1 0 C1 5.61 1 11.22 1 17 C-9.47305389 19.53892216 -9.47305389 19.53892216 -14 19 C-15.875 17.8125 -15.875 17.8125 -17 16 C-17.40983641 13.26775725 -17.49822239 11.73374569 -15.92578125 9.41796875 C-13.0583997 7.30669187 -10.31519061 7.23025209 -6.8125 6.8125 C-5.54019531 6.65394531 -4.26789063 6.49539063 -2.95703125 6.33203125 C-1.98121094 6.22246094 -1.00539063 6.11289062 0 6 C0 4.02 0 2.04 0 0 Z " fill="#8E5F39" transform="translate(308,387)"/>
<path d="M0 0 C3.0625 1.625 3.0625 1.625 6 4 C6.55429688 4.43570313 7.10859375 4.87140625 7.6796875 5.3203125 C19.82042891 15.19478218 19.82042891 15.19478218 21 22 C18 22 18 22 16.24609375 20.390625 C15.35083984 19.33101562 15.35083984 19.33101562 14.4375 18.25 C13.83808594 17.55390625 13.23867187 16.8578125 12.62109375 16.140625 C11.11654771 14.15389915 10.10867395 12.2173479 9 10 C7.15028304 8.94978897 7.15028304 8.94978897 5 8 C4.21625 7.319375 3.4325 6.63875 2.625 5.9375 C-0.38854361 3.71321781 -2.26769734 3.08113701 -6 3 C-8 4 -8 4 -9 6 C-9.75342517 8.32515499 -9.75342517 8.32515499 -9 11 C-7.54837987 12.94811629 -5.99271547 14.69510491 -4.3125 16.44921875 C-3 18 -3 18 -3 20 C-3.55429688 20.25394531 -4.10859375 20.50789063 -4.6796875 20.76953125 C-5.40414062 21.11371094 -6.12859375 21.45789063 -6.875 21.8125 C-7.59429687 22.14894531 -8.31359375 22.48539063 -9.0546875 22.83203125 C-11.30542806 23.99467097 -11.30542806 23.99467097 -13 27 C-13.99 26.67 -14.98 26.34 -16 26 C-14.03681826 22.46627288 -11.95929119 19.75520215 -9 17 C-9.680625 16.154375 -10.36125 15.30875 -11.0625 14.4375 C-13 11 -13 11 -13 7.375 C-10.94614986 0.44325578 -7.02941855 -1.33763693 0 0 Z " fill="#5E3203" transform="translate(166,190)"/>
<path d="M0 0 C7.18933411 2.12412144 7.18933411 2.12412144 10 5 C10.65234375 7.56640625 10.65234375 7.56640625 10.9375 10.5625 C11.76659173 16.80731019 13.86091115 21.58447267 17 27 C13.5980513 29.09350689 10.94727588 29.17942163 7 29 C6.82984375 27.99582031 6.6596875 26.99164063 6.484375 25.95703125 C4.92331693 17.04795139 2.89610642 8.58541193 0 0 Z " fill="#F6F9B8" transform="translate(376,275)"/>
<path d="M0 0 C2.4375 0.75 2.4375 0.75 4.4375 2.75 C4.14895081 8.42480065 2.88156014 12.64935274 0.4375 17.75 C-1.0214426 17.27269162 -2.47963496 16.79308958 -3.9375 16.3125 C-4.74960938 16.04566406 -5.56171875 15.77882813 -6.3984375 15.50390625 C-8.5625 14.75 -8.5625 14.75 -10.5625 13.75 C-6.12168828 -0.59723788 -6.12168828 -0.59723788 0 0 Z " fill="#8E5F3A" transform="translate(99.5625,421.25)"/>
<path d="M0 0 C1.093125 0.226875 2.18625 0.45375 3.3125 0.6875 C4.8322276 7.0427245 3.4788492 11.60458727 1.3125 17.6875 C-0.1464426 17.21019162 -1.60463496 16.73058958 -3.0625 16.25 C-3.87460938 15.98316406 -4.68671875 15.71632813 -5.5234375 15.44140625 C-7.6875 14.6875 -7.6875 14.6875 -9.6875 13.6875 C-9.26283503 11.91354492 -8.8222591 10.14339369 -8.375 8.375 C-8.13136719 7.38886719 -7.88773438 6.40273438 -7.63671875 5.38671875 C-6.00854902 0.75682047 -4.99625354 -0.42341132 0 0 Z " fill="#8D5E3A" transform="translate(140.6875,287.3125)"/>
<path d="M0 0 C3.0625 0.1875 3.0625 0.1875 5.0625 2.1875 C5.18674085 7.3642022 3.90982153 12.38446402 2.0625 17.1875 C-1.8975 16.1975 -5.8575 15.2075 -9.9375 14.1875 C-9.2775 13.8575 -8.6175 13.5275 -7.9375 13.1875 C-7.793125 12.115 -7.64875 11.0425 -7.5 9.9375 C-6.75460446 4.9681964 -5.41068387 0.3453628 0 0 Z " fill="#8C5E3A" transform="translate(161.9375,295.8125)"/>
<path d="M0 0 C3.98602277 4.20254746 4.63216588 9.52866354 6 15 C-0.93 14.505 -0.93 14.505 -8 14 C-9.35802061 3.50620437 -9.35802061 3.50620437 -7.70703125 1.171875 C-5.05205621 -0.65076232 -3.12533344 -0.45577779 0 0 Z " fill="#8E5F3A" transform="translate(386,369)"/>
<path d="M0 0 C0.33 0 0.66 0 1 0 C1 2.31 1 4.62 1 7 C1.61488281 6.855625 2.22976563 6.71125 2.86328125 6.5625 C3.67152344 6.376875 4.47976563 6.19125 5.3125 6 C6.11300781 5.814375 6.91351563 5.62875 7.73828125 5.4375 C12.42756711 4.5304188 14.87660554 5.80085629 19 8 C18.67 11.3 18.34 14.6 18 18 C15.8125 18.8125 15.8125 18.8125 13 19 C11.33333333 17.33333333 9.66666667 15.66666667 8 14 C4.31558496 13.11472891 4.31558496 13.11472891 1 13 C-0.10228696 8.59085217 -0.07654536 4.51617599 0 0 Z " fill="#F59526" transform="translate(382,297)"/>
<path d="M0 0 C3.26664798 0.26588995 4.16949518 1.1745114 6.5078125 3.58203125 C7.38993074 4.65090425 8.26207029 5.72807647 9.125 6.8125 C9.78822266 7.61397461 9.78822266 7.61397461 10.46484375 8.43164062 C16.08611524 15.33510545 16.08611524 15.33510545 15.8125 20.625 C15 24 15 24 12 26 C7.7524747 26.30891093 4.6413547 26.33046701 1 24 C-0.32 25.32 -1.64 26.64 -3 28 C-3.99 27.67 -4.98 27.34 -6 27 C-6 25 -6 25 -3.5625 22.5 C-2.716875 21.675 -1.87125 20.85 -1 20 C-0.67 19.34 -0.34 18.68 0 18 C2.27071461 19.01790655 3.80784632 19.77442829 5.4375 21.6875 C6.2109375 22.3371875 6.2109375 22.3371875 7 23 C9.65466049 22.76956136 9.65466049 22.76956136 12 22 C11.59571238 16.31160229 10.28005108 13.419515 6.5625 9.125 C5.75941406 8.17882812 4.95632813 7.23265625 4.12890625 6.2578125 C2.20693136 3.96015031 2.20693136 3.96015031 0 3 C0 2.01 0 1.02 0 0 Z " fill="#5E3203" transform="translate(399,321)"/>
<path d="M0 0 C3 0.25 3 0.25 5 2.25 C5.40435072 7.40547167 4.57849109 11.41587103 3 16.25 C-0.96 14.6 -4.92 12.95 -9 11.25 C-4.33333333 0.36111111 -4.33333333 0.36111111 0 0 Z " fill="#8E5F3A" transform="translate(344,354.75)"/>
<path d="M0 0 C0.33 0 0.66 0 1 0 C1 4.62 1 9.24 1 14 C-2.76197942 15.25399314 -6.06558098 15.44170193 -10 15 C-12.0625 13.875 -12.0625 13.875 -13 12 C-12.875 8.9375 -12.875 8.9375 -12 6 C-8.96474514 3.97649676 -7.80573798 3.67875982 -4.3125 3.375 C-3.50425781 3.30023438 -2.69601562 3.22546875 -1.86328125 3.1484375 C-1.24839844 3.09945313 -0.63351562 3.05046875 0 3 C0 2.01 0 1.02 0 0 Z " fill="#8E5F3A" transform="translate(310,414)"/>
<path d="M0 0 C2.4375 0.8125 2.4375 0.8125 4.4375 2.8125 C5.20983468 8.34756523 3.32691312 11.297792 0.4375 15.8125 C-2.8625 14.1625 -6.1625 12.5125 -9.5625 10.8125 C-4.27347372 -0.3126932 -4.27347372 -0.3126932 0 0 Z " fill="#8D5E3A" transform="translate(114.5625,276.1875)"/>
<path d="M0 0 C7.13567839 8.91959799 7.13567839 8.91959799 6.8125 13.875 C6 16 6 16 5 17 C2.3125 17.6875 2.3125 17.6875 -1 17 C-3.41894198 13.88213122 -5.22827221 10.51832468 -7 7 C-4.66666667 4.66666667 -2.33333333 2.33333333 0 0 Z " fill="#8C5E3A" transform="translate(144,400)"/>
<path d="M0 0 C3 0.25 3 0.25 5 2.25 C5.046875 4.2734375 5.046875 4.2734375 4.75 6.625 C4.61851562 7.78128906 4.61851562 7.78128906 4.484375 8.9609375 C4 11.25 4 11.25 2 15.25 C-1.63 13.93 -5.26 12.61 -9 11.25 C-4.33333333 0.36111111 -4.33333333 0.36111111 0 0 Z " fill="#8C5E39" transform="translate(366,364.75)"/>
<path d="M0 0 C1.8253125 0.0309375 1.8253125 0.0309375 3.6875 0.0625 C3.6875 0.3925 3.6875 0.7225 3.6875 1.0625 C5.6675 1.3925 7.6475 1.7225 9.6875 2.0625 C9.6875 2.3925 9.6875 2.7225 9.6875 3.0625 C8.46675781 3.14886719 7.24601562 3.23523438 5.98828125 3.32421875 C-9.16853797 4.55177287 -24.10976272 7.85976272 -35.3125 19.0625 C-36.3025 18.7325 -37.2925 18.4025 -38.3125 18.0625 C-35.36390163 13.89678977 -32.16932754 11.42023704 -27.75 9 C-27.13519775 8.65638428 -26.52039551 8.31276855 -25.88696289 7.95874023 C-17.89917709 3.60261174 -9.24352041 -0.15666984 0 0 Z " fill="#60390F" transform="translate(240.3125,142.9375)"/>
<path d="M0 0 C4.75 0.75 4.75 0.75 7 3 C7.77233468 8.53506523 5.88941312 11.485292 3 16 C1.84481082 15.09515208 0.70114594 14.1755794 -0.4375 13.25 C-1.07558594 12.73953125 -1.71367188 12.2290625 -2.37109375 11.703125 C-4.23714465 9.7520502 -4.83181593 8.69094508 -5 6 C-3.63510623 3.66629928 -1.8580962 1.99405446 0 0 Z " fill="#8D5F3A" transform="translate(92,263)"/>
<path d="M0 0 C3.36370321 1.39187719 5.21906331 2.79431396 7 6 C7.3125 9.125 7.3125 9.125 7 12 C5 14 5 14 2.61328125 14.40625 C0 14 0 14 -2.01953125 12.03125 C-2.90705078 10.77828125 -2.90705078 10.77828125 -3.8125 9.5 C-4.41707031 8.6646875 -5.02164063 7.829375 -5.64453125 6.96875 C-6.09183594 6.3190625 -6.53914063 5.669375 -7 5 C-4.702779 3.25728062 -2.40133271 1.60088848 0 0 Z " fill="#8D5E3A" transform="translate(131,410)"/>
<path d="M0 0 C5.70259594 4.12528217 5.70259594 4.12528217 7.0625 8.125 C7 11 7 11 5.9375 12.875 C3.04761381 14.55299843 1.28910599 14.52625696 -2 14 C-4.875 11.5 -4.875 11.5 -7 9 C-4.69 6.03 -2.38 3.06 0 0 Z " fill="#8E5F3A" transform="translate(100,230)"/>
<path d="M0 0 C3.0625 0.4375 3.0625 0.4375 4.9375 2.9375 C5.30875 3.7625 5.68 4.5875 6.0625 5.4375 C5.13231474 6.90050982 4.19305973 8.35775579 3.25 9.8125 C2.72792969 10.62460937 2.20585937 11.43671875 1.66796875 12.2734375 C0.0625 14.4375 0.0625 14.4375 -2.9375 16.4375 C-6.65497967 6.7972561 -6.65497967 6.7972561 -4.9375 2.4375 C-2.9375 0.4375 -2.9375 0.4375 0 0 Z " fill="#8D5E3A" transform="translate(405.9375,362.5625)"/>
<path d="M0 0 C0.33 0 0.66 0 1 0 C1.27622203 5.65881896 0.32166598 10.22661319 -1.3125 15.625 C-1.77311813 17.20767016 -2.23143465 18.79101191 -2.6875 20.375 C-2.91179687 21.15230469 -3.13609375 21.92960937 -3.3671875 22.73046875 C-4.77324777 27.77319107 -5.88851786 32.88537488 -7 38 C-7.99 38 -8.98 38 -10 38 C-9.32017057 30.5218763 -7.46340708 23.43882171 -5.5625 16.1875 C-5.24990234 14.96095703 -4.93730469 13.73441406 -4.61523438 12.47070312 C-4.31037109 11.29830078 -4.00550781 10.12589844 -3.69140625 8.91796875 C-3.41498291 7.85344482 -3.13855957 6.7889209 -2.85375977 5.69213867 C-2 3 -2 3 0 0 Z " fill="#5C3205" transform="translate(162,386)"/>
<path d="M0 0 C5.84126984 4.25925926 5.84126984 4.25925926 6.5625 7.625 C5.8996214 10.42382077 5.4071187 11.42292223 3 13 C0.6875 13.5 0.6875 13.5 -2 13 C-4.21568191 11.49500852 -6.02706576 9.83528767 -8 8 C-5.33333333 5.33333333 -2.66666667 2.66666667 0 0 Z " fill="#8C5E3A" transform="translate(117,214)"/>
<path d="M0 0 C1.75 0.125 1.75 0.125 4 1 C8.4626206 6.43349607 8.97842825 11.54827496 9.77734375 18.3671875 C10.75724083 25.5530994 13.66323434 30.04443189 19 35 C17.515 35.495 17.515 35.495 16 36 C8.41131312 29.04370369 6.39342514 22.51903025 5.22265625 12.58398438 C4.50515977 7.35334646 3.26153321 4.17716856 0 0 Z " fill="#725129" transform="translate(380,268)"/>
<path d="M0 0 C1.9375 0.8125 1.9375 0.8125 3.9375 2.8125 C3.90442593 5.86633879 3.37054158 8.78120896 2.9375 11.8125 C-0.0325 11.8125 -3.0025 11.8125 -6.0625 11.8125 C-5.44577157 3.3016477 -5.44577157 3.3016477 -3.6484375 1.0078125 C-2.0625 -0.1875 -2.0625 -0.1875 0 0 Z " fill="#91613A" transform="translate(115.0625,428.1875)"/>
<path d="M0 0 C6.92972945 0.45193888 13.98147152 2.59642005 18.71484375 7.93359375 C21.01117447 11.45463418 22.60196523 14.75429584 23 19 C22.34 19 21.68 19 21 19 C20.67 19.66 20.34 20.32 20 21 C19.35309078 19.3962669 18.70751236 17.79199694 18.0625 16.1875 C17.70285156 15.29417969 17.34320313 14.40085937 16.97265625 13.48046875 C16.26386514 11.6729091 15.6139753 9.84192591 15 8 C12.71776855 6.86964993 12.71776855 6.86964993 10 6 C6.66666667 4.66666667 3.33333333 3.33333333 0 2 C0 1.34 0 0.68 0 0 Z " fill="#5F3303" transform="translate(169,263)"/>
<path d="M0 0 C0.66 0 1.32 0 2 0 C1.67 0.94875 1.34 1.8975 1 2.875 C-0.57776107 8.45959314 -1.13941907 14.4363071 1.25 19.8125 C2.11625 20.8953125 2.11625 20.8953125 3 22 C3.721875 22.928125 4.44375 23.85625 5.1875 24.8125 C6.0846875 25.8953125 6.0846875 25.8953125 7 27 C3.46491897 26.70540991 2.23796556 26.25118587 -0.25 23.625 C-3.88514875 18.17227687 -3.50183561 12.34822052 -3 6 C-2.24784645 3.62546872 -1.39125226 2.08687839 0 0 Z " fill="#6B441B" transform="translate(375,241)"/>
<path d="M0 0 C0.33 0 0.66 0 1 0 C1 1.98 1 3.96 1 6 C1.66 6 2.32 6 3 6 C1.88981151 9.10852776 0.95464704 10.02957802 -1.875 11.875 C-5.30315412 14.2061448 -6.74724161 16.58202175 -9 20 C-9.99 20 -10.98 20 -12 20 C-10.08196157 14.40572123 -7.03189025 10.18686383 -2 7 C-1.34 7 -0.68 7 0 7 C0 4.69 0 2.38 0 0 Z " fill="#582F04" transform="translate(400,308)"/>
<path d="M0 0 C0 0.33 0 0.66 0 1 C2.97 1.495 2.97 1.495 6 2 C6 2.33 6 2.66 6 3 C5.44538086 3.05534912 4.89076172 3.11069824 4.31933594 3.16772461 C1.7959083 3.42128107 -0.72703883 3.67934505 -3.25 3.9375 C-4.12269531 4.02451172 -4.99539062 4.11152344 -5.89453125 4.20117188 C-6.73886719 4.28818359 -7.58320313 4.37519531 -8.453125 4.46484375 C-9.22817383 4.543396 -10.00322266 4.62194824 -10.80175781 4.70288086 C-12.92623038 4.99002914 -14.93296525 5.43794772 -17 6 C-16.67 4.68 -16.34 3.36 -16 2 C-10.42932723 0.40837921 -5.78898419 -0.20674944 0 0 Z " fill="#684016" transform="translate(244,143)"/>
<path d="M0 0 C2.04773383 1.84296045 3.40492465 3.61391801 4.9375 5.9375 C6.77057055 8.65933204 8.60625174 10.77723376 11 13 C10.01 13.33 9.02 13.66 8 14 C4.72952316 10.90630569 1.98268225 8.0697162 0 4 C0 2.68 0 1.36 0 0 Z " fill="#644018" transform="translate(388,290)"/>
<path d="M0 0 C-2.69277589 3.32637022 -6.03724749 4.58473125 -10 6 C-10.99 5.67 -11.98 5.34 -13 5 C-9.76220634 1.00037254 -4.97776602 -1.65925534 0 0 Z " fill="#5C3307" transform="translate(228,147)"/>
<path d="M0 0 C0.33 0.66 0.66 1.32 1 2 C-0.4562545 2.67119549 -1.91507867 3.33681807 -3.375 4 C-4.59316406 4.556875 -4.59316406 4.556875 -5.8359375 5.125 C-8 6 -8 6 -10 6 C-10 4.68 -10 3.36 -10 2 C-3.375 -1.125 -3.375 -1.125 0 0 Z " fill="#5F3709" transform="translate(216,106)"/>
<path d="M0 0 C0.66 0.33 1.32 0.66 2 1 C0.5625 3 0.5625 3 -2 5 C-5.02824418 5.35442445 -7.96485939 5.23347235 -11 5 C-11 4.34 -11 3.68 -11 3 C-9.01432292 2.51171875 -7.02864583 2.0234375 -5.04296875 1.53515625 C-3.34316798 1.08989295 -1.66698046 0.55566015 0 0 Z " fill="#593107" transform="translate(266,208)"/>
<path d="M0 0 C0.66 0 1.32 0 2 0 C1.79503906 0.66386719 1.59007812 1.32773438 1.37890625 2.01171875 C0.97478516 3.33623047 0.97478516 3.33623047 0.5625 4.6875 C0.29566406 5.55761719 0.02882813 6.42773438 -0.24609375 7.32421875 C-0.96344529 9.87025921 -1.517541 12.4003423 -2 15 C-2.33 15 -2.66 15 -3 15 C-3.35050464 9.158256 -3.16727335 5.1468192 0 0 Z " fill="#5B3105" transform="translate(375,241)"/>
<path d="M0 0 C3.32820054 -0.22692276 5.41801336 -0.32162419 8.375 1.3125 C10 3 10 3 10 6 C6.66666667 4.33333333 3.33333333 2.66666667 0 1 C0 0.67 0 0.34 0 0 Z " fill="#603C15" transform="translate(199,191)"/>
<path d="M0 0 C0.66 0.33 1.32 0.66 2 1 C-0.83430453 4.2542015 -2.68607774 5.5206753 -7 6 C-6 3 -6 3 -3.0625 1.25 C-2.051875 0.8375 -1.04125 0.425 0 0 Z " fill="#573006" transform="translate(201,205)"/>
<path d="M0 0 C-4.625 4.875 -4.625 4.875 -8 6 C-6.53781513 1.3697479 -6.53781513 1.3697479 -4 -0.375 C-2 -1 -2 -1 0 0 Z " fill="#64431D" transform="translate(232,209)"/>
<path d="M0 0 C0.33 0 0.66 0 1 0 C1 1.98 1 3.96 1 6 C1.66 6 2.32 6 3 6 C2.1875 7.9375 2.1875 7.9375 1 10 C0.01 10.33 -0.98 10.66 -2 11 C-2 9.68 -2 8.36 -2 7 C-1.34 7 -0.68 7 0 7 C0 4.69 0 2.38 0 0 Z " fill="#723E07" transform="translate(400,308)"/>
<path d="M0 0 C0.33 0.99 0.66 1.98 1 3 C-0.9375 5.6875 -0.9375 5.6875 -3 8 C-3.66 7.67 -4.32 7.34 -5 7 C-3.75023244 3.34683329 -3.32901247 2.21934164 0 0 Z " fill="#643D13" transform="translate(190,174)"/>
<path d="M0 0 C0.33 0 0.66 0 1 0 C1.66 3.63 2.32 7.26 3 11 C2.01 11 1.02 11 0 11 C-0.84098656 6.98195309 -1.05404945 3.98196457 0 0 Z " fill="#603B13" transform="translate(373,251)"/>
<path d="M0 0 C2.72426311 2.35277269 3.8141763 4.62496331 5 8 C4.01 8 3.02 8 2 8 C0.23537317 4.91190305 0 3.76687864 0 0 Z " fill="#5C3A13" transform="translate(388,290)"/>
<path d="M0 0 C1.60379341 -0.05416188 3.20811406 -0.09286638 4.8125 -0.125 C5.70582031 -0.14820313 6.59914063 -0.17140625 7.51953125 -0.1953125 C10 0 10 0 13 2 C9.72814447 3.07310858 7.57052408 2.89263102 4.25 2.0625 C3.05117188 1.77052734 3.05117188 1.77052734 1.828125 1.47265625 C1.22484375 1.31667969 0.6215625 1.16070312 0 1 C0 0.67 0 0.34 0 0 Z " fill="#5B3309" transform="translate(400,222)"/>
<path d="M0 0 C1.8125 0.1875 1.8125 0.1875 4 1 C5.75 3.5625 5.75 3.5625 7 6 C6.01 6 5.02 6 4 6 C1.8125 3 1.8125 3 0 0 Z " fill="#5D3810" transform="translate(380,268)"/>
</svg>
