<?xml version="1.0" encoding="UTF-8"?>
<svg version="1.1" xmlns="http://www.w3.org/2000/svg" width="512" height="512">
<path d="M0 0 C9.92667669 4.76430593 15.76157239 4.35315584 26.05981445 0.97021484 C52.02197674 -7.05402408 87.32109903 -5.39321145 112.98022461 2.75585938 C117.27782058 3.81894891 119.4426687 3.70339441 123.45678711 1.61914062 C124.71009155 0.85369173 125.95988578 0.08247637 127.20678711 -0.69335938 C133.70678714 -4.55275852 140.32032959 -7.53508724 147.39428711 -10.19335938 C148.29083008 -10.53109375 149.18737305 -10.86882813 150.11108398 -11.21679688 C159.14080015 -14.53020296 169.90182619 -17.10247669 179.26928711 -13.50585938 C184.61925531 -10.20481516 187.3699075 -5.6285276 189.20678711 0.30664062 C191.23822064 9.27102379 191.51773368 18.08506752 191.45678711 27.24414062 C191.45667633 27.91928711 191.45656555 28.59443359 191.45645142 29.29003906 C191.45480579 37.88172581 191.00241489 46.27838661 189.89428711 54.80664062 C188.81540141 63.5551788 190.17548477 69.16548479 193.52075195 77.38623047 C194.78729322 80.93164457 195.41744074 84.62032462 196.14428711 88.30664062 C197.90353658 96.77895701 200.72073376 104.37649074 204.20678711 112.30664062 C213.49739605 133.47837866 218.77104809 151.61385769 211.20678711 174.30664062 C207.76212024 182.63037972 202.52271322 188.96952013 196.20678711 195.30664062 C195.54163086 195.995 194.87647461 196.68335938 194.19116211 197.39257812 C186.36425219 204.95062473 176.27635823 210.32342992 166.20678711 214.30664062 C167.10658798 214.31694809 168.00638885 214.32725555 168.93345642 214.33787537 C177.39499497 214.43567404 185.85646071 214.53816283 194.31787777 214.64597988 C198.66843517 214.70124847 203.01899923 214.75467462 207.36962891 214.80395508 C211.56474921 214.85154077 215.75978523 214.9038812 219.95480537 214.95958138 C221.55883256 214.98003129 223.16288288 214.99873992 224.76695061 215.01571465 C227.0060148 215.0397006 229.24491827 215.06976257 231.48388672 215.10131836 C232.76073837 215.11686264 234.03759003 215.13240692 235.35313416 215.14842224 C238.20678711 215.30664062 238.20678711 215.30664062 239.20678711 216.30664062 C239.36364959 217.86612604 239.4575535 219.4320673 239.52319336 220.99804688 C239.56508789 221.94228516 239.60698242 222.88652344 239.65014648 223.859375 C239.68946289 224.85259766 239.7287793 225.84582031 239.76928711 226.86914062 C239.8124707 227.86623047 239.8556543 228.86332031 239.90014648 229.890625 C240.00659009 232.36248212 240.10860639 234.83444372 240.20678711 237.30664062 C240.89168213 237.50290039 241.57657715 237.69916016 242.28222656 237.90136719 C243.18158936 238.16401367 244.08095215 238.42666016 245.00756836 238.69726562 C245.89871338 238.95540039 246.7898584 239.21353516 247.70800781 239.47949219 C254.56951821 241.75079627 260.96660612 247.31210103 264.50366211 253.61914062 C268.60582068 262.65577979 269.77868016 271.37664399 266.64428711 280.99414062 C263.14201856 289.59061797 256.63102471 296.33485293 248.20678711 300.30664062 C245.23678711 300.96664063 242.26678711 301.62664062 239.20678711 302.30664062 C238.87678711 326.72664063 238.54678711 351.14664063 238.20678711 376.30664062 C205.04178711 376.80164063 205.04178711 376.80164063 171.20678711 377.30664062 C172.85678711 379.28664063 174.50678711 381.26664062 176.20678711 383.30664062 C177.9604062 386.81387881 177.88058431 390.4884565 177.20678711 394.30664062 C172.05450416 400.51580213 165.27280486 401.04523128 157.60913086 401.83789062 C149.92584317 402.50918967 142.23357277 402.52914993 134.52612305 402.546875 C131.9480065 402.556674 129.37065829 402.58783365 126.79272461 402.61914062 C125.13387509 402.62566444 123.47501999 402.63091734 121.81616211 402.63476562 C121.05559509 402.64711243 120.29502808 402.65945923 119.51141357 402.67218018 C113.80412555 402.64854718 108.93174405 401.65279189 104.46459961 397.80664062 C101.25461885 393.55618335 100.06574319 390.71009073 100.08178711 385.43164062 C100.07920898 384.58859375 100.07663086 383.74554688 100.07397461 382.87695312 C100.20678711 380.30664063 100.20678711 380.30664063 101.20678711 375.30664062 C92.95678711 375.30664062 84.70678711 375.30664062 76.20678711 375.30664062 C75.87678711 376.95664062 75.54678711 378.60664063 75.20678711 380.30664062 C74.39820603 383.03374569 73.42711558 385.69583669 72.45678711 388.36914062 C72.21702148 389.07619141 71.97725586 389.78324219 71.73022461 390.51171875 C70.07547841 395.05374119 68.50041838 397.72917634 64.20678711 400.30664062 C60.06031876 401.4169804 55.95929597 401.46702956 51.69506836 401.47460938 C50.97340988 401.47884415 50.2517514 401.48307892 49.50822449 401.48744202 C47.1785192 401.49730577 44.84900952 401.49736904 42.51928711 401.49414062 C41.72844727 401.49353638 40.93760742 401.49293213 40.12280273 401.49230957 C6.17441107 401.42152621 6.17441107 401.42152621 -4.79321289 395.30664062 C-7.63373921 391.04585115 -7.31471999 387.31008558 -6.79321289 382.30664062 C-6.01407034 379.7575384 -5.03342814 377.68371985 -3.79321289 375.30664062 C-13.08153984 375.33201857 -19.38587133 376.13299169 -27.59008789 380.67382812 C-41.56277 387.79648803 -57.61840344 389.90280241 -72.79321289 385.68164062 C-85.26713021 381.16846451 -94.94080523 373.88784947 -100.73071289 361.68164062 C-101.45199577 359.90330525 -102.14309897 358.11220912 -102.79321289 356.30664062 C-103.03813477 355.62988281 -103.28305664 354.953125 -103.53540039 354.25585938 C-105.58234937 347.4841035 -106.47218893 338.77568079 -103.23071289 332.30664062 C-100.48172849 328.9232752 -98.02468955 326.53194232 -93.79321289 325.30664062 C-91.15321289 325.30664062 -88.51321289 325.30664062 -85.79321289 325.30664062 C-85.79321289 317.71664063 -85.79321289 310.12664062 -85.79321289 302.30664062 C-88.48477539 301.99726562 -88.48477539 301.99726562 -91.23071289 301.68164062 C-100.25309108 300.15314361 -106.53837073 295.59454057 -112.28540039 288.56445312 C-117.20326045 281.2004036 -118.99248122 273.04769945 -117.79321289 264.30664062 C-115.51955861 254.47207683 -110.1719989 246.96232118 -101.79321289 241.30664062 C-96.04304819 238.32097818 -92.69217467 238.07319193 -85.79321289 237.30664062 C-85.46321289 229.38664063 -85.13321289 221.46664062 -84.79321289 213.30664062 C-63.34321289 213.30664062 -41.89321289 213.30664062 -19.79321289 213.30664062 C-25.07321289 210.66664063 -30.35321289 208.02664063 -35.79321289 205.30664062 C-57.3407169 191.39870622 -73.05648789 173.55991708 -79.04711914 148.21289062 C-82.35009689 130.91981339 -82.66346198 114.62801315 -78.07788086 97.54492188 C-75.49018786 87.44569878 -79.02558318 77.86939999 -81.53344727 68.03320312 C-84.69389322 55.29731174 -86.14955426 42.896458 -86.10888672 29.81054688 C-86.10570437 27.67592206 -86.12938665 25.54266053 -86.15454102 23.40820312 C-86.20771479 11.96329072 -85.31764724 0.49577284 -77.79321289 -8.69335938 C-58.55807335 -26.52104968 -19.72861376 -9.61000586 0 0 Z " fill="#FE9723" transform="translate(180.793212890625,62.693359375)"/>
<path d="M0 0 C9.42554957 -0.16028648 18.85014539 -0.28776829 28.27676773 -0.3626852 C32.65737112 -0.39870234 37.03696806 -0.44726123 41.41699219 -0.52807617 C62.42915217 -0.90553557 80.82725948 0.02603449 101.06037903 6.19338989 C117.92946362 10.8221411 135.97075717 10.26953787 153.3125 10.3125 C154.27951843 10.31635712 155.24653687 10.32021423 156.24285889 10.32418823 C174.17536374 10.35939329 191.88263621 9.16488625 209.5625 6.0625 C210.51189453 5.90587891 211.46128906 5.74925781 212.43945312 5.58789062 C218.01448646 4.64913011 218.01448646 4.64913011 223.4851532 3.24685669 C233.18664543 0.31161436 242.73809449 0.61887791 252.765625 0.70703125 C254.6541917 0.71263771 256.5427628 0.71690283 258.43133545 0.71989441 C263.36326486 0.73126061 268.29492241 0.76065547 273.22674561 0.79400635 C278.27482426 0.82488612 283.32294754 0.83843774 288.37109375 0.85351562 C298.24753351 0.88553436 308.12370145 0.93823354 318 1 C318 7.6 318 14.2 318 21 C316.39125 21.20625 314.7825 21.4125 313.125 21.625 C304.67657776 23.17985763 297.51034873 27.23505564 292.25 34.109375 C286.93301082 42.15132114 285.93863638 49.38207605 287 59 C288.95948066 67.4292452 293.51588793 74.2035225 300.875 78.79296875 C306.56200732 81.78575635 310.4618345 83.06597636 317 84 C317 107.76 317 131.52 317 156 C259.8294372 156.13680805 202.66262495 155.94364609 145.49314278 155.61044246 C139.10406787 155.57328357 132.71498525 155.5377823 126.32589722 155.50296021 C83.8751745 155.27026223 41.44400095 154.84222713 -1 154 C-1 130.9 -1 107.8 -1 84 C2.96 82.68 6.92 81.36 11 80 C18.51856514 75.38145284 23.04250884 69.80475103 26.375 61.625 C28.13332272 51.42672821 27.28110687 42.47479007 21.375 33.8125 C15.48256429 26.50878956 8.85724296 23.95241432 0 21 C0 14.07 0 7.14 0 0 Z " fill="#FAFCFC" transform="translate(99,280)"/>
<path d="M0 0 C9.92667669 4.76430593 15.76157239 4.35315584 26.05981445 0.97021484 C52.02197674 -7.05402408 87.32109903 -5.39321145 112.98022461 2.75585938 C117.27782058 3.81894891 119.4426687 3.70339441 123.45678711 1.61914062 C124.71009155 0.85369173 125.95988578 0.08247637 127.20678711 -0.69335938 C133.70678714 -4.55275852 140.32032959 -7.53508724 147.39428711 -10.19335938 C148.29083008 -10.53109375 149.18737305 -10.86882813 150.11108398 -11.21679688 C159.14080015 -14.53020296 169.90182619 -17.10247669 179.26928711 -13.50585938 C184.61925531 -10.20481516 187.3699075 -5.6285276 189.20678711 0.30664062 C191.23822064 9.27102379 191.51773368 18.08506752 191.45678711 27.24414062 C191.45667633 27.91928711 191.45656555 28.59443359 191.45645142 29.29003906 C191.45480579 37.88172581 191.00241489 46.27838661 189.89428711 54.80664062 C188.81540141 63.5551788 190.17548477 69.16548479 193.52075195 77.38623047 C194.78729322 80.93164457 195.41744074 84.62032462 196.14428711 88.30664062 C197.90353658 96.77895701 200.72073376 104.37649074 204.20678711 112.30664062 C213.49739605 133.47837866 218.77104809 151.61385769 211.20678711 174.30664062 C207.76212024 182.63037972 202.52271322 188.96952013 196.20678711 195.30664062 C195.54163086 195.995 194.87647461 196.68335938 194.19116211 197.39257812 C186.36425219 204.95062473 176.27635823 210.32342992 166.20678711 214.30664062 C167.10658798 214.31694809 168.00638885 214.32725555 168.93345642 214.33787537 C177.39499497 214.43567404 185.85646071 214.53816283 194.31787777 214.64597988 C198.66843517 214.70124847 203.01899923 214.75467462 207.36962891 214.80395508 C211.56474921 214.85154077 215.75978523 214.9038812 219.95480537 214.95958138 C221.55883256 214.98003129 223.16288288 214.99873992 224.76695061 215.01571465 C227.0060148 215.0397006 229.24491827 215.06976257 231.48388672 215.10131836 C232.76073837 215.11686264 234.03759003 215.13240692 235.35313416 215.14842224 C238.20678711 215.30664062 238.20678711 215.30664062 239.20678711 216.30664062 C239.36364959 217.86612604 239.4575535 219.4320673 239.52319336 220.99804688 C239.56508789 221.94228516 239.60698242 222.88652344 239.65014648 223.859375 C239.68946289 224.85259766 239.7287793 225.84582031 239.76928711 226.86914062 C239.8124707 227.86623047 239.8556543 228.86332031 239.90014648 229.890625 C240.00659009 232.36248212 240.10860639 234.83444372 240.20678711 237.30664062 C240.89168213 237.50290039 241.57657715 237.69916016 242.28222656 237.90136719 C243.18158936 238.16401367 244.08095215 238.42666016 245.00756836 238.69726562 C245.89871338 238.95540039 246.7898584 239.21353516 247.70800781 239.47949219 C254.56951821 241.75079627 260.96660612 247.31210103 264.50366211 253.61914062 C268.60582068 262.65577979 269.77868016 271.37664399 266.64428711 280.99414062 C263.14201856 289.59061797 256.63102471 296.33485293 248.20678711 300.30664062 C245.23678711 300.96664063 242.26678711 301.62664062 239.20678711 302.30664062 C238.87678711 326.72664063 238.54678711 351.14664063 238.20678711 376.30664062 C205.04178711 376.80164063 205.04178711 376.80164063 171.20678711 377.30664062 C172.85678711 379.28664063 174.50678711 381.26664062 176.20678711 383.30664062 C177.9604062 386.81387881 177.88058431 390.4884565 177.20678711 394.30664062 C172.05450416 400.51580213 165.27280486 401.04523128 157.60913086 401.83789062 C149.92584317 402.50918967 142.23357277 402.52914993 134.52612305 402.546875 C131.9480065 402.556674 129.37065829 402.58783365 126.79272461 402.61914062 C125.13387509 402.62566444 123.47501999 402.63091734 121.81616211 402.63476562 C121.05559509 402.64711243 120.29502808 402.65945923 119.51141357 402.67218018 C113.80412555 402.64854718 108.93174405 401.65279189 104.46459961 397.80664062 C101.25461885 393.55618335 100.06574319 390.71009073 100.08178711 385.43164062 C100.07920898 384.58859375 100.07663086 383.74554688 100.07397461 382.87695312 C100.20678711 380.30664063 100.20678711 380.30664063 101.20678711 375.30664062 C92.95678711 375.30664062 84.70678711 375.30664062 76.20678711 375.30664062 C75.87678711 376.95664062 75.54678711 378.60664063 75.20678711 380.30664062 C74.39820603 383.03374569 73.42711558 385.69583669 72.45678711 388.36914062 C72.21702148 389.07619141 71.97725586 389.78324219 71.73022461 390.51171875 C70.07547841 395.05374119 68.50041838 397.72917634 64.20678711 400.30664062 C60.06031876 401.4169804 55.95929597 401.46702956 51.69506836 401.47460938 C50.97340988 401.47884415 50.2517514 401.48307892 49.50822449 401.48744202 C47.1785192 401.49730577 44.84900952 401.49736904 42.51928711 401.49414062 C41.72844727 401.49353638 40.93760742 401.49293213 40.12280273 401.49230957 C6.17441107 401.42152621 6.17441107 401.42152621 -4.79321289 395.30664062 C-7.63373921 391.04585115 -7.31471999 387.31008558 -6.79321289 382.30664062 C-6.01407034 379.7575384 -5.03342814 377.68371985 -3.79321289 375.30664062 C-13.08153984 375.33201857 -19.38587133 376.13299169 -27.59008789 380.67382812 C-41.56277 387.79648803 -57.61840344 389.90280241 -72.79321289 385.68164062 C-85.26713021 381.16846451 -94.94080523 373.88784947 -100.73071289 361.68164062 C-101.45199577 359.90330525 -102.14309897 358.11220912 -102.79321289 356.30664062 C-103.03813477 355.62988281 -103.28305664 354.953125 -103.53540039 354.25585938 C-105.58234937 347.4841035 -106.47218893 338.77568079 -103.23071289 332.30664062 C-100.48172849 328.9232752 -98.02468955 326.53194232 -93.79321289 325.30664062 C-91.15321289 325.30664062 -88.51321289 325.30664062 -85.79321289 325.30664062 C-85.79321289 317.71664063 -85.79321289 310.12664062 -85.79321289 302.30664062 C-88.48477539 301.99726562 -88.48477539 301.99726562 -91.23071289 301.68164062 C-100.25309108 300.15314361 -106.53837073 295.59454057 -112.28540039 288.56445312 C-117.20326045 281.2004036 -118.99248122 273.04769945 -117.79321289 264.30664062 C-115.51955861 254.47207683 -110.1719989 246.96232118 -101.79321289 241.30664062 C-96.04304819 238.32097818 -92.69217467 238.07319193 -85.79321289 237.30664062 C-85.46321289 229.38664063 -85.13321289 221.46664062 -84.79321289 213.30664062 C-63.34321289 213.30664062 -41.89321289 213.30664062 -19.79321289 213.30664062 C-25.07321289 210.66664063 -30.35321289 208.02664063 -35.79321289 205.30664062 C-57.3407169 191.39870622 -73.05648789 173.55991708 -79.04711914 148.21289062 C-82.35009689 130.91981339 -82.66346198 114.62801315 -78.07788086 97.54492188 C-75.49018786 87.44569878 -79.02558318 77.86939999 -81.53344727 68.03320312 C-84.69389322 55.29731174 -86.14955426 42.896458 -86.10888672 29.81054688 C-86.10570437 27.67592206 -86.12938665 25.54266053 -86.15454102 23.40820312 C-86.20771479 11.96329072 -85.31764724 0.49577284 -77.79321289 -8.69335938 C-58.55807335 -26.52104968 -19.72861376 -9.61000586 0 0 Z M-25.79321289 28.30664062 C-26.58083008 28.87253906 -27.36844727 29.4384375 -28.17993164 30.02148438 C-55.63318452 50.75890018 -71.71334574 78.36717359 -77.41821289 111.99023438 C-77.80828251 115.43991257 -77.8914891 118.77384829 -77.85571289 122.24414062 C-77.84668945 123.38753906 -77.83766602 124.5309375 -77.82836914 125.70898438 C-77.81676758 126.56621094 -77.80516602 127.4234375 -77.79321289 128.30664062 C-72.43625819 127.45553567 -67.26291246 126.58426294 -62.16821289 124.68164062 C-57.68896742 123.11350262 -53.5054978 122.48670305 -48.79321289 123.30664062 C-46.23071289 124.80664062 -46.23071289 124.80664062 -44.79321289 127.30664062 C-44.25168056 130.0884067 -44.06294513 132.55739728 -44.79321289 135.30664062 C-48.07475897 139.95918304 -52.89410018 140.92207005 -58.10571289 142.43164062 C-59.34998047 142.80869141 -59.34998047 142.80869141 -60.61938477 143.19335938 C-65.32971823 144.61352306 -70.05993154 145.96522486 -74.79321289 147.30664062 C-72.83822843 156.42990145 -69.14360141 164.14221285 -64.79321289 172.30664062 C-61.09381831 170.26887887 -57.54346535 168.18951515 -54.10961914 165.72851562 C-53.49151367 165.29023438 -52.8734082 164.85195312 -52.23657227 164.40039062 C-50.97780247 163.50108261 -49.72775488 162.58944511 -48.48657227 161.66601562 C-43.71339629 158.32826926 -40.61016083 157.68978506 -34.79321289 158.30664062 C-32.29321289 159.80664062 -32.29321289 159.80664062 -30.79321289 162.30664062 C-30.01917443 167.72490986 -30.01917443 167.72490986 -30.79321289 170.30664062 C-34.5762014 174.79344095 -39.27043384 177.88265804 -44.10571289 181.11914062 C-44.8462793 181.62123047 -45.5868457 182.12332031 -46.34985352 182.640625 C-48.16105558 183.86756833 -49.97548667 185.08939328 -51.79321289 186.30664062 C-45.059745 200.69075974 -21.84010672 208.88988413 -7.55444336 214.12744141 C1.24051686 217.22241465 10.13673131 219.68226153 19.26928711 221.55664062 C19.99857422 221.70770264 20.72786133 221.85876465 21.47924805 222.0144043 C38.20652087 225.21438862 54.9115484 225.71130329 71.89428711 225.68164062 C73.01319336 225.68142914 74.13209961 225.68121765 75.28491211 225.68099976 C100.19925655 225.63411649 124.29405759 223.79428858 148.20678711 216.30664062 C149.51255301 215.92306585 150.81853858 215.54023798 152.12475586 215.15820312 C168.97456292 209.95484302 191.57929467 200.30045203 200.76928711 184.30664062 C201.48084961 182.82164062 201.48084961 182.82164062 202.20678711 181.30664062 C201.43592773 180.89671875 200.66506836 180.48679688 199.87084961 180.06445312 C198.86795898 179.525625 197.86506836 178.98679688 196.83178711 178.43164062 C195.83405273 177.89796875 194.83631836 177.36429688 193.80834961 176.81445312 C191.20678711 175.30664063 191.20678711 175.30664063 189.20678711 173.30664062 C188.97631836 171.24804687 188.97631836 171.24804687 189.01928711 168.86914062 C189.02573242 168.08667969 189.03217773 167.30421875 189.03881836 166.49804688 C189.20678711 164.30664063 189.20678711 164.30664063 190.20678711 161.30664062 C195.37158122 159.58504259 199.62473663 159.59024041 204.51928711 161.80664062 C205.40616211 162.30164063 206.29303711 162.79664063 207.20678711 163.30664062 C208.19678711 163.30664062 209.18678711 163.30664062 210.20678711 163.30664062 C211.42143075 159.47659495 211.4099143 155.74004782 211.45678711 151.74414062 C211.47741211 151.07189453 211.49803711 150.39964844 211.51928711 149.70703125 C211.54091087 146.98514095 211.52959953 144.85518782 210.12866211 142.47460938 C207.29380768 140.7518015 204.40683033 140.02831873 201.20678711 139.18164062 C199.96928711 138.8490625 198.73178711 138.51648438 197.45678711 138.17382812 C196.38428711 137.88765625 195.31178711 137.60148438 194.20678711 137.30664062 C193.21678711 136.97664062 192.22678711 136.64664063 191.20678711 136.30664062 C191.17972982 134.53589145 191.16036516 132.76502352 191.14428711 130.99414062 C191.13268555 130.00800781 191.12108398 129.021875 191.10913086 128.00585938 C191.20678711 125.30664063 191.20678711 125.30664063 192.20678711 122.30664062 C197.15678711 121.31664062 197.15678711 121.31664062 202.20678711 120.30664062 C201.34628453 116.00412772 200.27030311 113.00906519 198.51928711 109.05664062 C195.59193157 102.14581338 193.85745297 95.11525266 192.20678711 87.80664062 C187.55390458 67.44196005 179.84748274 51.3199288 165.20678711 36.30664062 C164.63444336 35.66082031 164.06209961 35.015 163.47241211 34.34960938 C146.80614883 16.00812892 118.08820933 6.02488738 94.20678711 2.30664062 C92.20726388 2.26297288 90.20597373 2.24960677 88.20678711 2.30664062 C88.47126799 4.86308286 88.47126799 4.86308286 90.20678711 7.30664062 C93.36133108 8.36321705 96.59417611 8.61219928 99.89428711 8.93164062 C114.17296091 10.46854515 114.17296091 10.46854515 119.14428711 15.11914062 C120.61689669 18.15098388 120.75099845 19.97334616 120.20678711 23.30664062 C118.26928711 26.18164062 118.26928711 26.18164062 115.20678711 28.30664062 C110.40787188 29.07030164 105.91588278 28.31810131 101.20678711 27.30664062 C101.41174805 28.05429688 101.61670898 28.80195312 101.82788086 29.57226562 C102.09729492 30.55710937 102.36670898 31.54195312 102.64428711 32.55664062 C102.91112305 33.53117187 103.17795898 34.50570312 103.45288086 35.50976562 C104.06223295 37.77036715 104.64916966 40.03286071 105.20678711 42.30664062 C106.21999023 42.48839844 107.23319336 42.67015625 108.27709961 42.85742188 C109.62875064 43.11085644 110.9803083 43.36478928 112.33178711 43.61914062 C112.99694336 43.73708984 113.66209961 43.85503906 114.34741211 43.9765625 C118.72724864 44.81388419 122.38010313 46.00722369 126.20678711 48.30664062 C128.53214774 51.79468158 128.54136609 53.20804816 128.20678711 57.30664062 C127.34354962 59.8963531 126.67577679 60.97164799 124.45678711 62.55664062 C119.43117446 64.23184484 114.32844668 63.12610616 109.20678711 62.30664062 C109.10881836 62.99371094 109.01084961 63.68078125 108.90991211 64.38867188 C108.76038086 65.28972656 108.61084961 66.19078125 108.45678711 67.11914062 C108.24795898 68.45912109 108.24795898 68.45912109 108.03491211 69.82617188 C107.01337629 72.88596078 106.00723172 73.76312807 103.20678711 75.30664062 C100.34178874 75.86754242 98.18121512 75.58991948 95.20678711 75.30664062 C93.03202309 73.76325971 92.38846074 72.66998789 91.20678711 70.30664062 C90.9821088 68.76995197 90.79881906 67.22696009 90.64428711 65.68164062 C90.56049805 64.864375 90.47670898 64.04710937 90.39038086 63.20507812 C90.32979492 62.57859375 90.26920898 61.95210937 90.20678711 61.30664062 C82.77798404 61.81069989 82.77798404 61.81069989 75.51928711 63.36914062 C71.34821667 64.54963226 68.53420034 64.80322903 64.20678711 64.30664062 C61.70678711 62.24414062 61.70678711 62.24414062 60.20678711 59.30664062 C59.88008396 55.51688412 60.0048781 52.91236767 61.20678711 49.30664062 C68.78588413 45.55074707 77.84873122 44.11029985 86.20678711 43.30664062 C85.1519266 37.18567372 83.55461685 32.55157389 80.20678711 27.30664062 C75.76545822 27.01698874 72.39496426 27.43690654 68.14428711 28.80664062 C61.09141872 31.02936278 61.09141872 31.02936278 57.20678711 30.30664062 C54.33219375 28.3069235 52.5777091 26.81725034 51.72241211 23.33398438 C51.48911455 19.86692347 51.83396379 17.76945579 54.01928711 15.05664062 C58.55324301 12.56740993 63.30276413 10.92127516 68.20678711 9.30664062 C66.74734304 5.90127113 65.18898337 3.54328782 62.20678711 1.30664062 C59.37634301 0.89183416 57.03036673 0.7366672 54.20678711 0.80664062 C53.41715576 0.81872559 52.62752441 0.83081055 51.81396484 0.84326172 C24.69540832 1.7220915 -4.08094825 12.19334078 -25.79321289 28.30664062 Z M-81.79321289 217.30664062 C-81.79321289 224.23664063 -81.79321289 231.16664063 -81.79321289 238.30664062 C-79.81321289 238.98726562 -77.83321289 239.66789062 -75.79321289 240.36914062 C-66.6433703 243.91967737 -61.30846407 248.44749095 -56.70336914 257.09570312 C-53.15626836 265.71226555 -54.01224289 275.27019473 -57.47680664 283.73242188 C-61.58797171 291.77176247 -67.45692448 296.10610132 -75.79321289 299.30664062 C-79.25821289 300.29664063 -79.25821289 300.29664063 -82.79321289 301.30664062 C-82.79321289 324.40664063 -82.79321289 347.50664062 -82.79321289 371.30664062 C-39.45034149 372.16670427 3.87988536 372.58803313 47.22963518 372.82429987 C53.64830697 372.85930117 60.06696805 372.89590892 66.48562622 372.93331909 C122.72651356 373.26002814 178.96485895 373.44122647 235.20678711 373.30664062 C235.20678711 349.54664063 235.20678711 325.78664063 235.20678711 301.30664062 C231.90678711 300.64664063 228.60678711 299.98664063 225.20678711 299.30664062 C216.71001309 295.67640516 210.75309824 290.06331112 206.83178711 281.74414062 C203.71324454 273.03600692 203.85085474 264.28687276 207.70678711 255.86914062 C212.39313995 247.62686666 219.04598542 242.00269935 228.20678711 239.30664062 C232.16678711 238.81164062 232.16678711 238.81164062 236.20678711 238.30664062 C236.20678711 231.70664062 236.20678711 225.10664063 236.20678711 218.30664062 C225.50413846 218.19270807 214.8019066 218.10139599 204.09878349 218.04757977 C199.12641357 218.02172283 194.15448758 217.98677458 189.18237305 217.92944336 C159.95797883 217.27077666 159.95797883 217.27077666 131.40605164 222.70114136 C127.26306875 223.84178318 123.01477527 224.42682787 118.76928711 225.05664062 C117.97488724 225.17697159 117.18048737 225.29730255 116.36201477 225.42127991 C101.64636122 227.58574182 86.73312884 227.54775266 71.89428711 227.55664062 C70.36918015 227.55765274 70.36918015 227.55765274 68.81326294 227.5586853 C44.68766767 227.53330766 21.15597838 225.78473588 -1.95187378 218.28092957 C-5.91176238 217.27657261 -9.51557864 217.03711851 -13.56445312 217.07958984 C-14.67789345 217.07915176 -14.67789345 217.07915176 -15.81382751 217.07870483 C-18.24327693 217.0800872 -20.67241146 217.09559623 -23.10180664 217.11132812 C-24.79573906 217.11506215 -26.48967365 217.11790728 -28.18360901 217.11990356 C-32.62399343 217.12750934 -37.06424529 217.14713134 -41.50457764 217.16931152 C-46.04282844 217.18983602 -50.58110084 217.19891936 -55.11938477 217.20898438 C-64.01072817 217.23038035 -72.90193872 217.26553733 -81.79321289 217.30664062 Z " fill="#542D03" transform="translate(180.793212890625,62.693359375)"/>
<path d="M0 0 C14.22323568 9.30119992 24.79177956 23.98539208 28.69091797 40.63110352 C30.90267203 54.4865899 30.77247647 71.04217776 25.0703125 84.0078125 C24.5959375 85.09578125 24.1215625 86.18375 23.6328125 87.3046875 C16.21271516 102.50161762 4.1950015 113.40399944 -11.3671875 120.0078125 C-24.17371383 124.20084831 -39.76362078 123.94031956 -51.9296875 118.0078125 C-52.90808594 117.54503906 -53.88648438 117.08226562 -54.89453125 116.60546875 C-68.40570411 109.49340993 -77.50507191 98.64342851 -83.9296875 85.0078125 C-84.45691406 83.91597656 -84.98414063 82.82414062 -85.52734375 81.69921875 C-91.25945649 67.63239056 -91.7728705 48.06382319 -86.25 33.8125 C-85.81429687 32.88695312 -85.37859375 31.96140625 -84.9296875 31.0078125 C-84.18332031 29.37199219 -84.18332031 29.37199219 -83.421875 27.703125 C-79.6287351 20.06391766 -74.98109543 13.98516473 -68.9296875 8.0078125 C-68.31609375 7.37230469 -67.7025 6.73679687 -67.0703125 6.08203125 C-48.78537426 -11.53871052 -21.2500363 -12.23797271 0 0 Z " fill="#01D4FF" transform="translate(319.9296875,300.9921875)"/>
<path d="M0 0 C10.23 0 20.46 0 31 0 C31.17283793 9.33324813 31.34178138 18.66650026 31.5 28 C31.51187725 28.70032978 31.5237545 29.40065956 31.53599167 30.12221146 C32.03465042 59.75013874 32.11715267 89.36781374 32 119 C4.81138866 121.67005115 4.81138866 121.67005115 -2.48388672 117.62158203 C-6.36614486 113.91091541 -8.54879607 109.27286182 -10.77490234 104.44628906 C-12.85945929 100.28382182 -15.69856332 96.70097302 -18.5 93 C-24.78018879 84.41391266 -30.86518139 75.69099304 -37 67 C-37.33 82.84 -37.66 98.68 -38 115 C-48.23 115 -58.46 115 -69 115 C-69.24065286 99.13919418 -69.24065286 99.13919418 -69.29296875 92.33398438 C-69.32872014 87.70554902 -69.37082951 83.07783153 -69.45263672 78.44995117 C-69.51823773 74.71512982 -69.55379024 70.98107902 -69.56926346 67.24572563 C-69.58027767 65.82679565 -69.6017857 64.40790382 -69.63438034 62.9893055 C-69.8119335 54.93520862 -69.624775 49.17244122 -64.42617798 42.76756287 C-60.04345623 37.33574697 -60.40352915 29.61709852 -61 23 C-61.99804381 18.08775311 -63.68961429 14.19887548 -66.6875 10.1875 C-69 7 -69 7 -69 3 C-46.35697295 -0.48132421 -46.35697295 -0.48132421 -37 3 C-29.77606435 8.60818367 -26.24539843 17.44130984 -22.58789062 25.60546875 C-20.31343731 30.46770721 -17.46516358 34.85021952 -14.5 39.3125 C-9.90773452 46.48604432 -5.46482656 53.74465683 -1 61 C-0.67 40.87 -0.34 20.74 0 0 Z " fill="#01D4FE" transform="translate(187,304)"/>
<path d="M0 0 C0.71341553 0.28584961 1.42683105 0.57169922 2.16186523 0.86621094 C7.00254402 2.88008804 7.00254402 2.88008804 8.125 5.125 C7.43277344 5.393125 6.74054688 5.66125 6.02734375 5.9375 C-0.87483054 8.70200723 -7.30899539 11.83812677 -13.70922852 15.62109375 C-16.34234451 17.10896163 -18.28829495 18.14535885 -21.3515625 18.0390625 C-25.37664729 16.58105965 -29.32191672 14.97154695 -33.25976562 13.296875 C-39.85390997 10.56549338 -45.67521634 9.97337966 -52.75 10.0625 C-53.43835938 10.06701172 -54.12671875 10.07152344 -54.8359375 10.07617188 C-56.51566335 10.08783664 -58.19534375 10.10576729 -59.875 10.125 C-60.205 10.785 -60.535 11.445 -60.875 12.125 C-59.89402344 12.06699219 -58.91304687 12.00898437 -57.90234375 11.94921875 C-45.17055887 11.43581469 -35.26107359 14.22431445 -23.875 20.125 C-27.10822691 23.45110237 -30.41960956 26.44446366 -34.0625 29.3125 C-50.17202694 42.44596976 -60.71764936 57.6694164 -69.875 76.125 C-70.49181641 77.35669922 -70.49181641 77.35669922 -71.12109375 78.61328125 C-71.49427734 79.36158203 -71.49427734 79.36158203 -71.875 80.125 C-74.12869184 77.87130816 -74.36059788 76.86173649 -75.05859375 73.8203125 C-75.36470581 72.49567993 -75.36470581 72.49567993 -75.67700195 71.14428711 C-75.88671631 70.18917236 -76.09643066 69.23405762 -76.3125 68.25 C-76.53059326 67.26201416 -76.74868652 66.27402832 -76.97338867 65.25610352 C-81.81956543 42.79072802 -87.82111093 13.35888063 -75.78125 -7.796875 C-60.92249438 -28.07706848 -17.36197479 -7.01001681 0 0 Z " fill="#FC9622" transform="translate(179.875,65.875)"/>
<path d="M0 0 C3.52081558 -0.02927632 7.04159939 -0.04689119 10.5625 -0.0625 C11.55314453 -0.07087891 12.54378906 -0.07925781 13.56445312 -0.08789062 C18.80644347 -0.10530588 23.85987824 -0.091585 29 1 C30.9375 2.9375 30.9375 2.9375 32 5 C32 5.66 32 6.32 32 7 C32.56920166 7.04487549 33.13840332 7.08975098 33.72485352 7.13598633 C36.33857798 7.34912949 38.95036884 7.58067564 41.5625 7.8125 C42.90538086 7.91788086 42.90538086 7.91788086 44.27539062 8.02539062 C50.93193936 8.63496468 56.42457286 9.55664605 61.4375 14.3125 C63.3473948 17.59751905 63.6237752 19.25734882 63 23 C61.20006226 25.69990662 59.916227 27.5418865 57 29 C55.01171875 29.16796875 55.01171875 29.16796875 52.6875 29.1875 C51.92824219 29.20167969 51.16898437 29.21585938 50.38671875 29.23046875 C47.63986194 28.96522398 45.50788101 28.12299804 43 27 C43.28875 27.74765625 43.5775 28.4953125 43.875 29.265625 C44.24625 30.25046875 44.6175 31.2353125 45 32.25 C45.37125 33.22453125 45.7425 34.1990625 46.125 35.203125 C47 38 47 38 47 42 C48.01707031 42.03867188 48.01707031 42.03867188 49.0546875 42.078125 C56.24986895 42.51661251 64.6630037 43.29222633 69.7578125 48.953125 C71.49976779 51.82351673 71.4047953 53.69417169 71 57 C69.72311154 59.80915461 68.68900183 61.50106764 66.1875 63.3125 C60.79226784 65.00814439 56.18796001 63.6601472 51 62 C51.061875 63.051875 51.12375 64.10375 51.1875 65.1875 C50.98949851 69.21353023 50.42518953 70.85623579 48 74 C44.33218328 76.44521115 41.26546767 76.72237759 37 76 C34.56880377 74.12984906 33.35930827 72.71861655 32 70 C31.93049459 68.45976004 31.91547643 66.91665012 31.9375 65.375 C31.94652344 64.55773437 31.95554687 63.74046875 31.96484375 62.8984375 C31.97644531 62.27195313 31.98804688 61.64546875 32 61 C30.7934375 61.28875 29.586875 61.5775 28.34375 61.875 C26.72927349 62.25045965 25.11468403 62.6254338 23.5 63 C22.70851563 63.19078125 21.91703125 63.3815625 21.1015625 63.578125 C15.94348355 64.7619464 11.29496089 65.42014364 6 65 C2.43647116 61.95615245 1.18541585 60.05687034 0.375 55.4375 C1.18988282 50.9556445 2.33799108 49.69045553 6 47 C8.93918753 45.72440324 11.90380647 44.81239573 15 44 C15.845625 43.773125 16.69125 43.54625 17.5625 43.3125 C21.05943394 42.86417514 24.47531224 42.94025953 28 43 C27.18872921 40.87453041 26.37594602 38.74963805 25.5625 36.625 C25.11003906 35.44164062 24.65757812 34.25828125 24.19140625 33.0390625 C23.10728088 30.13963807 23.10728088 30.13963807 22 28 C17.55867111 27.71034812 14.18817715 28.13026591 9.9375 29.5 C6.13657254 30.70362703 3.01634721 31.65382396 -1 31 C-3.69990662 29.20006226 -5.5418865 27.916227 -7 25 C-7.34499529 21.99361247 -7.55867234 19.90509614 -7 17 C-2.51870937 11.54978167 3.29748781 10.46691993 10 9 C9.0919838 7.86800647 8.17316174 6.74467637 7.25 5.625 C6.73953125 4.99851562 6.2290625 4.37203125 5.703125 3.7265625 C3.90849037 1.90723107 2.29186068 1.07973942 0 0 Z " fill="#8C5E3B" transform="translate(239,63)"/>
<path d="M0 0 C5.8479321 3.20547754 9.45359759 6.83646024 12.8125 12.5625 C13.24433594 13.28953125 13.67617188 14.0165625 14.12109375 14.765625 C18.3761069 23.42288359 18.38784753 35.36191469 15.6875 44.5625 C12.32051595 52.6589221 7.47280301 59.15745246 -0.1875 63.5625 C-7.26780441 66.34404816 -14.17354406 66.60802863 -21.17578125 63.6640625 C-29.55969735 59.07325796 -34.86104604 51.81667069 -38 42.9375 C-40.7209282 32.75747554 -40.36779903 21.86190472 -35.1875 12.5625 C-26.38655653 0.05117915 -14.65164261 -6.53211464 0 0 Z " fill="#FCFEFF" transform="translate(301.1875,326.4375)"/>
<path d="M0 0 C5.69097752 3.49219075 9.90017651 9.70052954 12 16 C13.35681103 34.33633188 13.35681103 34.33633188 7 42 C6.23816406 42.96486328 6.23816406 42.96486328 5.4609375 43.94921875 C0.27213748 49.81428417 -5.68272276 52.47459083 -13.40234375 53.4140625 C-22.6766927 53.79671751 -29.33103424 52.19807862 -36.28515625 45.9453125 C-42.83542859 39.07406493 -45.0921617 33.55626078 -45.5 24.125 C-45.28611386 16.11710273 -43.32384197 10.6344814 -37.91015625 4.71484375 C-26.99356533 -5.56727864 -13.29685495 -7.2967445 0 0 Z " fill="#FD9722" transform="translate(433,308)"/>
<path d="M0 0 C7.24367767 4.63210507 12.57443781 9.89088196 15.05859375 18.31640625 C16.30629946 28.03305246 15.08636529 35.44034698 9.5859375 43.46484375 C4.48332064 49.95469687 -1.32573756 53.70960498 -9.56640625 54.79296875 C-19.94476173 55.19052672 -27.17120056 53.03620516 -34.81640625 46.00390625 C-35.89296672 44.80518289 -36.93718193 43.57634817 -37.94140625 42.31640625 C-38.37582031 41.77886719 -38.81023437 41.24132812 -39.2578125 40.6875 C-43.52797261 34.03676282 -42.8677157 24.89069232 -41.94140625 17.31640625 C-40.45488353 11.81547727 -37.18313825 8.04085386 -32.94140625 4.31640625 C-32.17828125 3.61515625 -31.41515625 2.91390625 -30.62890625 2.19140625 C-21.68076401 -4.05148369 -9.77599301 -5.14809173 0 0 Z " fill="#FD9722" transform="translate(108.94140625,306.68359375)"/>
<path d="M0 0 C10.23 0 20.46 0 31 0 C31 14 31 14 27.75 18.3125 C27.11449219 18.92480469 26.47898437 19.53710938 25.82421875 20.16796875 C20.80507878 25.20860397 19.73256223 31.01314703 19.5 37.9375 C19.72715178 44.74472583 20.59479004 51.74931377 25.75390625 56.67431641 C26.37136719 57.22780762 26.98882812 57.78129883 27.625 58.3515625 C32.76469336 64.08736641 31.75968002 70.71408824 31.4375 78 C31.293125 82.62 31.14875 87.24 31 92 C20.77 92 10.54 92 0 92 C0 61.64 0 31.28 0 0 Z " fill="#00D3FE" transform="translate(366,294)"/>
<path d="M0 0 C3.75753027 3.55976552 5.69230137 6.47038988 7 11.5 C7.35964844 12.83804688 7.35964844 12.83804688 7.7265625 14.203125 C9.47294439 22.40901579 9.5669625 30.44755244 9.5625 38.8125 C9.56314453 40.05290039 9.56378906 41.29330078 9.56445312 42.57128906 C9.51423114 51.28936829 9.0071771 59.68107024 7.375 68.25 C4.61934777 65.75479051 2.84337085 62.95271875 0.875 59.8125 C-6.93555077 48.01842607 -16.28584661 39.55134307 -27.625 31.25 C-29.2987235 29.92553588 -30.96792091 28.59523026 -32.625 27.25 C-28.16165816 25.52706865 -24.52298769 25.02759209 -19.75 25.125 C-18.59757812 25.14304687 -17.44515625 25.16109375 -16.2578125 25.1796875 C-15.38898438 25.20289062 -14.52015625 25.22609375 -13.625 25.25 C-13.295 24.59 -12.965 23.93 -12.625 23.25 C-15.27116837 23.19531455 -17.9159947 23.15304026 -20.5625 23.125 C-21.3464917 23.11549316 -22.1304834 23.10598633 -22.93823242 23.09619141 C-27.0489756 23.09192228 -30.5112079 23.28217891 -34.4375 24.625 C-38.60195524 25.80789974 -41.0288274 24.41496388 -44.8125 22.5 C-45.77542969 21.94828125 -46.73835938 21.3965625 -47.73046875 20.828125 C-50.64017337 19.24172734 -53.45900601 18.20683374 -56.625 17.25 C-46.43762646 6.28186394 -14.37777815 -8.7669379 0 0 Z " fill="#FB9622" transform="translate(359.625,52.75)"/>
<path d="M0 0 C23.76 0 47.52 0 72 0 C69.6985138 10.3566879 69.6985138 10.3566879 68.125 14.375 C67.66480469 15.59316406 67.66480469 15.59316406 67.1953125 16.8359375 C65.77143899 19.41379999 64.48787834 20.43999914 62 22 C59.79092407 22.38095093 59.79092407 22.38095093 57.36181641 22.38818359 C55.98855698 22.40236832 55.98855698 22.40236832 54.58755493 22.4168396 C53.60217743 22.41076691 52.61679993 22.40469421 51.6015625 22.3984375 C50.0617421 22.40274277 50.0617421 22.40274277 48.49081421 22.40713501 C46.31369477 22.40917693 44.13655703 22.40363818 41.95947266 22.39111328 C38.67176667 22.37522599 35.38532117 22.39087231 32.09765625 22.41015625 C2.95512689 22.44175037 2.95512689 22.44175037 -4 16 C-4.27734375 13.73046875 -4.27734375 13.73046875 -3.9375 11.1875 C-3.84339844 10.35605469 -3.74929687 9.52460938 -3.65234375 8.66796875 C-3 6 -3 6 0 0 Z " fill="#FD9722" transform="translate(181,438)"/>
<path d="M0 0 C7.83213959 -0.18584613 15.66375734 -0.32774759 23.49755192 -0.41449738 C27.13580075 -0.45614774 30.77253502 -0.51257608 34.40991211 -0.60351562 C37.92434349 -0.69082547 41.43732425 -0.73835044 44.95275688 -0.75901794 C46.93782856 -0.78086667 48.92232089 -0.84326199 50.9065094 -0.90637207 C59.75999583 -0.91075442 59.75999583 -0.91075442 63.35372925 1.72875977 C65.14206644 3.73813386 66.59789943 5.70884837 68 8 C68.99 9.485 68.99 9.485 70 11 C70.5533105 16.31178083 70.5533105 16.31178083 68.72639465 18.58413696 C62.42705295 23.7503978 53.67936916 23.49242201 45.95703125 23.5390625 C44.82980148 23.55141937 43.70257172 23.56377625 42.54118347 23.57650757 C40.17212066 23.59597935 37.80297806 23.60728912 35.43383789 23.61083984 C31.81195748 23.62500212 28.19346 23.69251926 24.57226562 23.76171875 C22.26303609 23.77410937 19.95378692 23.78333308 17.64453125 23.7890625 C16.02717827 23.82913925 16.02717827 23.82913925 14.37715149 23.87002563 C7.25005506 23.80552831 7.25005506 23.80552831 3.95932007 21.68499756 C1.02466491 18.67395469 -0.31433993 16.01876522 -0.5859375 11.81640625 C-0.54669782 10.39723767 -0.47605814 8.97860963 -0.375 7.5625 C-0.34792969 6.83095703 -0.32085937 6.09941406 -0.29296875 5.34570312 C-0.22303917 3.56249873 -0.11544442 1.78083706 0 0 Z " fill="#FD9622" transform="translate(285,438)"/>
<path d="M0 0 C2.74861995 2.0902081 4.99461249 4.57499084 7.3125 7.125 C17.11084407 18.07320294 17.11084407 18.07320294 30.1875 23.125 C34.00382688 23.10616062 34.00382688 23.10616062 37.6875 22.25 C41 22 41 22 43.5 23.625 C45 26 45 26 45 28.5625 C43.80456828 31.47636481 42.69046866 32.41737138 40 34 C36.62231526 35.12589491 33.99187928 35.13294275 30.4375 35.125 C29.28121094 35.12757813 28.12492187 35.13015625 26.93359375 35.1328125 C24 35 24 35 22 34 C22.04640625 35.03898437 22.0928125 36.07796875 22.140625 37.1484375 C22.46907103 47.58976201 21.62099053 55.5263599 15.125 64.125 C12.92848493 66.45983466 12.16463647 66.95968086 8.9375 67.75 C4.88906727 66.7163576 3.52004411 65.33735571 1 62 C-3.3611044 53.92323466 -3.35357829 43.4939354 -1.203125 34.765625 C0.41198993 30.16875944 2.42940872 26.13946218 5 22 C4.3184082 21.35768433 4.3184082 21.35768433 3.62304688 20.70239258 C1.56897079 18.75233701 -0.46544343 16.78290389 -2.5 14.8125 C-3.21542969 14.13896484 -3.93085938 13.46542969 -4.66796875 12.77148438 C-5.34472656 12.11083984 -6.02148438 11.45019531 -6.71875 10.76953125 C-7.34716797 10.16729736 -7.97558594 9.56506348 -8.62304688 8.94458008 C-10.3826839 6.45956077 -10.34018007 4.98422353 -10 2 C-7.57564887 -2.27826669 -4.24642728 -1.12430865 0 0 Z " fill="#512A00" transform="translate(198,129)"/>
<path d="M0 0 C3.0625 0.375 3.0625 0.375 5 2.0625 C6.40148865 5.11279882 6.09770365 6.18349878 5.0625 9.375 C3.37043238 11.64339266 1.69200118 13.71462336 -0.1875 15.8125 C-1.62757131 17.46023659 -3.06709168 19.1084492 -4.50585938 20.75732422 C-5.46989694 21.84663406 -6.45091307 22.92112405 -7.44726562 23.98095703 C-10.17867412 26.80084216 -10.17867412 26.80084216 -10.87890625 30.484375 C-10.56824219 31.10828125 -10.25757813 31.7321875 -9.9375 32.375 C-9.61652344 33.04015625 -9.29554688 33.7053125 -8.96484375 34.390625 C-8.42537109 35.49664062 -8.42537109 35.49664062 -7.875 36.625 C-3.91054131 46.45627669 -4.89636916 57.54795618 -8.76953125 67.23828125 C-9.96235721 69.42047455 -10.98504172 70.83919535 -12.9375 72.375 C-17.10869644 72.99295503 -19.13410548 72.9355078 -22.625 70.5 C-27.92060136 63.34378194 -30.08791432 55.41643173 -30 46.625 C-29.99097656 45.45453125 -29.98195313 44.2840625 -29.97265625 43.078125 C-29.96105469 42.18609375 -29.94945312 41.2940625 -29.9375 40.375 C-30.67355469 40.42140625 -31.40960938 40.4678125 -32.16796875 40.515625 C-40.1165369 40.80962752 -40.1165369 40.80962752 -44.125 38.6875 C-45.9375 36.375 -45.9375 36.375 -46.4375 33.8125 C-45.84118326 30.90545588 -45.31100456 30.12096817 -42.9375 28.375 C-40.23046875 28.1875 -40.23046875 28.1875 -37.125 28.375 C-29.62525892 28.50988743 -26.14193039 26.66964533 -20.75 21.5625 C-15.81757991 16.47908746 -11.52266042 10.93240371 -7.22265625 5.31640625 C-3.43284205 0.43823516 -3.43284205 0.43823516 0 0 Z " fill="#512A00" transform="translate(347.9375,123.625)"/>
<path d="M0 0 C2.64395094 1.94314467 4.26309318 3.50351793 5.2578125 6.66796875 C5.46350916 8.94348801 5.34618118 10.5081753 4.6328125 12.6796875 C-1.83682097 19.61143765 -9.36306913 21.50830198 -18.63671875 21.91796875 C-36.55681359 22.34970765 -36.55681359 22.34970765 -44.0390625 16.3359375 C-45.4296875 14.9921875 -45.4296875 14.9921875 -47.3671875 12.6796875 C-47.6971875 12.3496875 -48.0271875 12.0196875 -48.3671875 11.6796875 C-48.91556211 7.74966946 -48.5526236 5.98874766 -46.4921875 2.5546875 C-35.45762403 -9.49164111 -12.7814968 -7.12895366 0 0 Z " fill="#FAFDBA" transform="translate(200.3671875,199.3203125)"/>
<path d="M0 0 C1.3139978 0.01027222 1.3139978 0.01027222 2.65454102 0.02075195 C10.83157635 0.22217906 19.29751925 1.19198489 25.4375 7.125 C26.035625 7.888125 26.63375 8.65125 27.25 9.4375 C27.745 9.9325 27.745 9.9325 28.25 10.4375 C28.6496691 13.95458805 28.5258792 15.93372059 26.8125 19.0625 C18.92835391 26.36975735 7.85113126 27.87125373 -2.49609375 27.69140625 C-9.83736647 27.11855784 -15.91233445 24.99372677 -21.75 20.4375 C-22.36875 20.025 -22.9875 19.6125 -23.625 19.1875 C-25.2058434 16.72841026 -25.40562992 14.38239433 -25.2890625 11.5 C-24.44876717 8.28495698 -22.58737428 6.80148987 -20.0625 4.76171875 C-13.37804699 0.9339661 -7.58165736 -0.09097698 0 0 Z " fill="#FAFDBA" transform="translate(351.75,194.5625)"/>
<path d="M0 0 C1.26650391 0.65935547 1.26650391 0.65935547 2.55859375 1.33203125 C-0.67463316 4.65813362 -3.98601581 7.65149491 -7.62890625 10.51953125 C-13.2952301 15.10000086 -18.3734281 20.10838141 -23.44140625 25.33203125 C-25.10574029 27.00102729 -26.77179235 28.66831704 -28.44140625 30.33203125 C-29.24095626 28.81532761 -30.03062013 27.29341127 -30.81640625 25.76953125 C-31.25726563 24.92261719 -31.698125 24.07570313 -32.15234375 23.203125 C-34.80409871 17.29694351 -35.70074297 12.10330518 -35.62890625 5.64453125 C-35.62246094 4.36191406 -35.61601563 3.07929687 -35.609375 1.7578125 C-35.3512669 -3.5063923 -35.3512669 -3.5063923 -34.44140625 -5.66796875 C-22.77447767 -9.55694494 -10.54777618 -5.11225929 0 0 Z " fill="#F8FCBA" transform="translate(153.44140625,84.66796875)"/>
<path d="M0 0 C3.43292065 2.95390846 6.21289503 5.64617995 7.03515625 10.265625 C7.24155597 14.96794914 6.33650539 18.33899191 3.6875 22.3125 C0.82179752 25.28255579 -2.07395053 27.92717732 -6.3125 28.3125 C-7.385 28.43625 -8.4575 28.56 -9.5625 28.6875 C-15.29138679 28.11461132 -19.39767542 25.41263018 -23.25 21.1875 C-25.52103449 17.17979207 -25.75825344 13.8443266 -25.3125 9.3125 C-23.46164745 4.67671979 -20.90463842 1.26844028 -16.5625 -1.25 C-10.68281947 -3.74609079 -5.56588219 -2.83544942 0 0 Z " fill="#05D4FF" transform="translate(391.3125,396.6875)"/>
<path d="M0 0 C3.05067422 1.99227704 4.59426669 3.33682874 5.47265625 6.9375 C5.75968714 10.82345666 5.4984925 12.34996578 3.046875 15.546875 C-0.86551248 18.69684851 -4.59881204 19.87481276 -9.375 21.25 C-10.2 21.50523437 -11.025 21.76046875 -11.875 22.0234375 C-16.57620385 23.44126088 -21.12134709 24.44769967 -26 25 C-27.62849969 20.64409432 -28.34118446 16.76065388 -28.625 12.125 C-28.69976562 10.97257813 -28.77453125 9.82015625 -28.8515625 8.6328125 C-28.92503906 7.32957031 -28.92503906 7.32957031 -29 6 C-25.8606739 4.97875707 -22.71271763 3.98708301 -19.5625 3 C-18.68400391 2.71382812 -17.80550781 2.42765625 -16.90039062 2.1328125 C-11.31052769 0.40016126 -5.87273107 -0.93141152 0 0 Z " fill="#8C5E3B" transform="translate(132,185)"/>
<path d="M0 0 C2.9838283 1.98921886 4.60276841 3.38502568 5.4765625 6.9375 C5.75320521 10.78137766 5.58951936 12.30161066 3.01171875 15.35546875 C-0.61981399 18.74187303 -4.7339873 21.49890742 -8.8125 24.3125 C-9.99489258 25.13717773 -9.99489258 25.13717773 -11.20117188 25.97851562 C-13.13101938 27.32356086 -15.06396201 28.66388807 -17 30 C-21.0867377 26.69354128 -24.63401084 23.63793377 -27.4375 19.125 C-27.93121094 18.34382813 -28.42492187 17.56265625 -28.93359375 16.7578125 C-29.28550781 16.17773438 -29.63742188 15.59765625 -30 15 C-25.9216421 12.05006416 -21.8303472 9.12032213 -17.71777344 6.21826172 C-16.3267117 5.23170713 -14.94673962 4.22952818 -13.5703125 3.22265625 C-8.88350399 -0.02422917 -5.70695921 -0.93556708 0 0 Z " fill="#8C5E3B" transform="translate(146,220)"/>
<path d="M0 0 C1.21236328 0.02707031 1.21236328 0.02707031 2.44921875 0.0546875 C3.37154297 0.08949219 3.37154297 0.08949219 4.3125 0.125 C4.38651964 5.92738024 4.44103989 11.72948722 4.47729492 17.53222656 C4.49240462 19.50721013 4.51289328 21.48216004 4.53881836 23.45703125 C4.57510619 26.29175106 4.59220416 29.12602826 4.60546875 31.9609375 C4.62095261 32.84743988 4.63643646 33.73394226 4.65238953 34.64730835 C4.65261612 35.46800812 4.65284271 36.28870789 4.65307617 37.13427734 C4.65973801 37.85819672 4.66639984 38.58211609 4.67326355 39.32797241 C4.3125 41.125 4.3125 41.125 1.3125 43.125 C-6.16871115 35.79470665 -11.07503233 26.74110635 -11.6875 16.125 C-11.749375 15.46886719 -11.81125 14.81273437 -11.875 14.13671875 C-12.19047908 8.90173776 -11.00824372 6.10989246 -7.6875 2.125 C-4.48369983 -0.01086678 -3.66810033 -0.10632175 0 0 Z " fill="#8B5D3A" transform="translate(90.6875,391.875)"/>
<path d="M0 0 C8.51286582 4.41407857 14.59698891 13.66117835 19 22 C18.6875 24.8125 18.6875 24.8125 18 27 C15.71875 26.82421875 15.71875 26.82421875 13 26 C11.15625 23.70703125 11.15625 23.70703125 9.5 20.8125 C6.24434919 15.36282364 3.36540774 10.57693849 -2 7 C-5.65338556 6.89851707 -7.61916801 8.2944189 -10.1875 10.6875 C-15.45554947 16.23526891 -19.66872168 22.71659624 -24 29 C-25.65 28.67 -27.3 28.34 -29 28 C-28.56288137 22.80141055 -26.69750312 19.59570886 -23.5 15.625 C-23.0565625 15.06135742 -22.613125 14.49771484 -22.15625 13.91699219 C-10.13626456 -0.99700963 -10.13626456 -0.99700963 0 0 Z " fill="#552C01" transform="translate(289,204)"/>
<path d="M0 0 C0.91711258 0.00888245 1.83422516 0.01776489 2.77912903 0.0269165 C3.81998154 0.02721863 4.86083405 0.02752075 5.93322754 0.02783203 C7.61615654 0.05879974 7.61615654 0.05879974 9.33308411 0.09039307 C10.4830336 0.09605286 11.63298309 0.10171265 12.81777954 0.10754395 C16.49647876 0.12996333 20.17420973 0.18017227 23.85261536 0.23101807 C26.34413777 0.25107577 28.83567542 0.2693278 31.32722473 0.28570557 C37.4401862 0.32984641 43.55258162 0.39681458 49.66511536 0.48101807 C38.9110587 8.77157256 22.96652195 12.18396632 9.66511536 10.48101807 C-1.94652669 8.51316403 -1.94652669 8.51316403 -5.33488464 4.48101807 C-3.02530814 0.62325472 -3.02530814 0.62325472 0 0 Z " fill="#F99422" transform="translate(107.33488464355469,436.51898193359375)"/>
<path d="M0 0 C3.1156588 1.12724922 6.06004353 2.47557813 9 4 C7.79662881 10.89203498 5.67864914 16.06080693 2 22 C-4.00566471 20.35845165 -8.9009368 18.83479249 -13 14 C-13.7969996 10.82355232 -13.75372553 8.18175739 -13 5 C-9.64302649 -0.14036569 -5.85602179 -1.17328096 0 0 Z " fill="#8D5E3A" transform="translate(382,222)"/>
<path d="M0 0 C5.68246334 6.84554063 8.48322766 16.21487016 9 25 C8.67 24.34 8.34 23.68 8 23 C5.37292272 22.24772731 2.78809269 21.59282759 0.125 21 C-7.61007958 19.25994695 -7.61007958 19.25994695 -11 17 C-12.24249189 13.27252432 -12.65570112 9.86637557 -12 6 C-9.31119897 2.1704955 -7.77990511 1.16620928 -3.1875 0.1875 C-1.6096875 0.0946875 -1.6096875 0.0946875 0 0 Z " fill="#8D5F3A" transform="translate(383,182)"/>
<path d="M0 0 C9.57712662 -0.22446391 17.68381804 -0.19842111 26.63671875 3.50390625 C27.63348633 3.91552002 27.63348633 3.91552002 28.65039062 4.33544922 C29.98491422 4.89363323 31.31344734 5.46641385 32.63476562 6.05517578 C37.91146141 8.30504685 40.61882436 7.89955524 45.8125 5.9375 C46.534375 5.628125 47.25625 5.31875 48 5 C46.65174358 9.49674159 45.03255786 11.00408975 41 13.3125 C31.40973332 19.13382919 23.59749562 26.1372572 15.90893555 34.25219727 C12.81610618 37.4563208 10.4135028 39.75792604 6 41 C8.16628689 36.24678799 11.48472813 32.80763111 15 29 C15.59941406 28.34644531 16.19882813 27.69289063 16.81640625 27.01953125 C22.33545771 21.24699517 28.53567529 16.65431379 35 12 C22.91447371 5.49438691 12.54612446 3.48739158 -1 3 C-0.67 2.01 -0.34 1.02 0 0 Z " fill="#5A3307" transform="translate(120,75)"/>
<path d="M0 0 C0 0.33 0 0.66 0 1 C2.97 1.495 2.97 1.495 6 2 C6 2.33 6 2.66 6 3 C4.98292969 3.02126953 4.98292969 3.02126953 3.9453125 3.04296875 C-5.32454998 3.5180171 -12.52625978 5.95301108 -18.9375 12.875 C-25.25863901 20.92550723 -26.02596603 27.84408903 -25 38 C-23.13715469 45.1672184 -18.90721277 51.34941278 -12.77734375 55.5078125 C-6.64125471 58.91134842 -0.96501922 59.8543437 6 60 C6 60.33 6 60.66 6 61 C3.69 61 1.38 61 -1 61 C-1 61.66 -1 62.32 -1 63 C-9.40245258 62.63467597 -16.17081926 58.28468049 -21.875 52.25 C-27.88939205 44.71423692 -29.827469 37.13375749 -29.50390625 27.53125 C-28.19508197 18.35933414 -23.48701546 11.38493663 -16.37109375 5.625 C-11.42897122 2.23797698 -6.17633533 -0.79694649 0 0 Z " fill="#533711" transform="translate(414,301)"/>
<path d="M0 0 C0.969375 0 1.93875 0 2.9375 0 C5 1 5 1 6.75 4.25 C8.60329888 9.98789711 8.73548231 16.01642746 9 22 C8.113125 21.21625 7.22625 20.4325 6.3125 19.625 C1.71898878 15.67965294 -3.10051084 12.03693208 -7.9140625 8.3671875 C-10.63780766 6.27783362 -13.32828076 4.15525307 -16 2 C-10.58135737 -0.28153374 -5.75980567 -0.26005812 0 0 Z " fill="#F5F7B5" transform="translate(343,78)"/>
<path d="M0 0 C4.62 0.66 9.24 1.32 14 2 C14.08076963 4.45898655 14.14037143 6.91533742 14.1875 9.375 C14.22520508 10.42300781 14.22520508 10.42300781 14.26367188 11.4921875 C14.29296875 13.5234375 14.29296875 13.5234375 14 17 C13.01 17.66 12.02 18.32 11 19 C6.09299538 13.94137445 0 7.52474738 0 0 Z " fill="#FB9522" transform="translate(81,416)"/>
<path d="M0 0 C2.2989833 -0.08016702 4.54911828 -0.02238779 6.84619141 0.10009766 C8.04211914 0.13393555 8.04211914 0.13393555 9.26220703 0.16845703 C11.22850474 0.22732822 13.19383631 0.31701011 15.15869141 0.41259766 C14.70046672 3.88201312 14.26737458 7.08654814 13.15869141 10.41259766 C0.48898753 8.67000085 0.48898753 8.67000085 -4.84130859 5.41259766 C-3.01351873 0.67526474 -3.01351873 0.67526474 0 0 Z " fill="#8C5E3A" transform="translate(106.84130859375,436.58740234375)"/>
<path d="M0 0 C0.66 0.33 1.32 0.66 2 1 C1.3503125 1.5878125 1.3503125 1.5878125 0.6875 2.1875 C-1.08566296 3.94391908 -1.08566296 3.94391908 -2.20703125 6.1953125 C-4.52488764 9.82106606 -7.33347945 12.66310513 -10.375 15.6875 C-10.93960938 16.26822266 -11.50421875 16.84894531 -12.0859375 17.44726562 C-15.18283231 20.5477448 -17.6843848 22.74734016 -22 24 C-17.7179452 14.60442345 -8.14467729 6.10850797 0 0 Z " fill="#60390C" transform="translate(148,92)"/>
<path d="M0 0 C1.4384798 0.06423833 2.87666999 0.14163547 4.3125 0.25 C3.3225 2.89 2.3325 5.53 1.3125 8.25 C-4.22596154 7.63461538 -4.22596154 7.63461538 -6.5625 5.6875 C-6.93375 5.213125 -7.305 4.73875 -7.6875 4.25 C-5.84004374 0.30875998 -4.09551026 -0.02575793 0 0 Z " fill="#F69322" transform="translate(109.6875,436.75)"/>
<path d="M0 0 C0 0.33 0 0.66 0 1 C2.97 1.495 2.97 1.495 6 2 C6 2.33 6 2.66 6 3 C5.33355469 3.01417969 4.66710937 3.02835937 3.98046875 3.04296875 C-3.59185073 3.43482304 -9.31304656 5.49484646 -16 9 C-14.57078837 4.3913657 -14.57078837 4.3913657 -12.01171875 2.63671875 C-4.22172904 -0.54473923 -4.22172904 -0.54473923 0 0 Z " fill="#5A340B" transform="translate(414,301)"/>
<path d="M0 0 C0.66 0.99 1.32 1.98 2 3 C4.19454681 3.57993699 4.19454681 3.57993699 6.625 3.6875 C7.44226563 3.75324219 8.25953125 3.81898438 9.1015625 3.88671875 C9.72804688 3.92410156 10.35453125 3.96148437 11 4 C9.515 6.475 9.515 6.475 8 9 C6.65654015 8.26829419 5.32539416 7.51394247 4 6.75 C3.2575 6.33234375 2.515 5.9146875 1.75 5.484375 C1.1725 4.99453125 0.595 4.5046875 0 4 C0 2.68 0 1.36 0 0 Z " fill="#8B5D38" transform="translate(94,433)"/>
<path d="M0 0 C0.33 0 0.66 0 1 0 C1.33 5.28 1.66 10.56 2 16 C1.01 16.33 0.02 16.66 -1 17 C-1.02684679 14.35409986 -1.04676357 11.70846904 -1.0625 9.0625 C-1.07087891 8.30775391 -1.07925781 7.55300781 -1.08789062 6.77539062 C-1.09652441 4.85005687 -1.05224333 2.92464419 -1 1 C-0.67 0.67 -0.34 0.34 0 0 Z " fill="#542E04" transform="translate(387,325)"/>
<path d="M0 0 C1.65 0 3.3 0 5 0 C5 0.33 5 0.66 5 1 C7.97 1.495 7.97 1.495 11 2 C11 2.33 11 2.66 11 3 C5.06 3.495 5.06 3.495 -1 4 C-0.67 2.68 -0.34 1.36 0 0 Z " fill="#6C4112" transform="translate(409,301)"/>
<path d="M0 0 C0.33 0 0.66 0 1 0 C1.33 2.97 1.66 5.94 2 9 C1.01 8.67 0.02 8.34 -1 8 C-0.67 5.36 -0.34 2.72 0 0 Z " fill="#463919" transform="translate(125,322)"/>
<path d="M0 0 C0.99 0.33 1.98 0.66 3 1 C3 2.65 3 4.3 3 6 C2.01 6.33 1.02 6.66 0 7 C0 4.69 0 2.38 0 0 Z " fill="#542F05" transform="translate(124,330)"/>
</svg>
