<?xml version="1.0" encoding="UTF-8"?>
<svg version="1.1" xmlns="http://www.w3.org/2000/svg" width="512" height="512">
<path d="M0 0 C6.06467588 8.25469772 7.41152448 18.89569071 7.3828125 28.890625 C7.38445152 30.00401245 7.38445152 30.00401245 7.38612366 31.13989258 C7.38701964 32.71765197 7.38531532 34.29541468 7.38119507 35.87316895 C7.37495094 38.33181919 7.37736353 40.79036863 7.38012695 43.24902344 C7.37364954 51.31657013 7.19046094 59.27531842 6.4375 67.3125 C6.02434999 73.29727302 6.63041876 78.23478718 8.3125 83.9375 C8.50416748 84.59911133 8.69583496 85.26072266 8.89331055 85.94238281 C10.15748517 89.61036458 11.0300941 90.93315954 14.41796875 92.92578125 C17.25 95.0625 17.25 95.0625 17.66625977 96.96289062 C17.70645418 99.44376444 17.61566282 101.89654339 17.5 104.375 C17.46748699 114.41624863 20.16574903 121.78925948 24.44189453 130.77294922 C28.22832507 138.74402183 30.56573958 146.40238484 32.25 155.0625 C36.12726612 155.0625 38.98313705 150.89068988 41.6953125 148.3671875 C43.70351105 146.55550991 45.66431142 145.03373131 47.875 143.5 C50.41314877 141.39337356 50.41314877 141.39337356 50.46875 139.125 C50.42234375 138.073125 50.42234375 138.073125 50.375 137 C50.25 133.0625 50.25 133.0625 51.75 130.625 C54.62551992 128.82780005 56.97444215 128.6561552 60.3125 128.3984375 C63.27567531 127.88466114 64.96561068 125.95687163 67.25 124.0625 C73.6121914 120.91957745 79.36244024 120.53454306 86.25 122.0625 C92.27207385 124.3349807 96.87298592 128.5949534 100.25 134.0625 C103.10996903 141.58873429 103.48514826 150.03249954 100.578125 157.6171875 C91.683701 173.99339168 73.96192058 189.02334257 59.25 200.0625 C58.69812012 200.48547363 58.14624023 200.90844727 57.57763672 201.34423828 C30.30255567 222.2277625 0.22385202 236.6189426 -34.23828125 239.84838867 C-40.73484438 240.52744753 -45.96172175 242.01594255 -51.75 245.0625 C-51.02018606 255.76003587 -49.90921571 266.40446822 -48.75 277.0625 C-47.49896484 277.20558594 -47.49896484 277.20558594 -46.22265625 277.3515625 C-30.97428895 280.47327549 -16.7134153 292.09531872 -7.53125 304.25390625 C1.32336645 318.21546158 5.98814635 333.22892039 3.03515625 349.734375 C0.45153993 360.68582328 -4.34560561 372.2693343 -12.75 380.0625 C-11.88117188 380.37703125 -11.01234375 380.6915625 -10.1171875 381.015625 C5.04120879 386.64491758 5.04120879 386.64491758 7.25 391.0625 C7.59741553 396.36058682 7.78527987 399.82016415 4.25 404.0625 C-2.52903858 410.12795557 -13.07779386 411.67061035 -21.953125 411.3515625 C-34.8671514 410.01687262 -46.51409248 407.41834288 -56.75 399.0625 C-59.54536147 394.58980501 -59.27062405 390.17497456 -58.75 385.0625 C-57.85314022 381.19863614 -56.61967317 377.49245468 -55.3125 373.75 C-54.66576925 371.83798215 -54.02116224 369.92524434 -53.37890625 368.01171875 C-53.09088135 367.17987061 -52.80285645 366.34802246 -52.50610352 365.4909668 C-50.70759754 359.71449314 -50.04833597 354.21998812 -51.375 348.25 C-52.62832999 345.8294435 -52.62832999 345.8294435 -55.4375 344.75 C-60.59710414 343.67913876 -64.692712 343.56532132 -69.625 345.4375 C-85.19211002 350.99343826 -104.78714856 350.30275316 -121.07421875 349.875 C-123.29310578 349.82970658 -125.51202674 349.7864633 -127.73095703 349.74334717 C-129.89022672 349.68869648 -132.04534349 349.59416071 -134.203125 349.49853516 C-143.62557888 349.22378283 -148.55622086 351.08666683 -155.75 357.0625 C-171.1365585 365.87927622 -189.58945327 368.05608346 -206.75 364.0625 C-215.14046246 361.3928074 -223.34900529 357.61956405 -228.7265625 350.4140625 C-233.38529175 346.79060641 -237.94852581 347.40921671 -243.6875 347.4375 C-261.85521503 347.0977097 -276.94967412 344.41509648 -290.5625 331.34765625 C-300.46220937 321.00599557 -304.13978751 310.07360082 -304.03515625 295.84375 C-303.35319804 286.80079732 -300.66998702 277.38612496 -293.6875 271.25 C-289.72306626 268.82018577 -286.30690967 268.75355697 -281.75 269.0625 C-276.62481439 270.90756682 -273.74478483 273.52754011 -270.75 278.0625 C-269.22012129 283.8951626 -269.95018709 287.27624232 -272.0390625 292.82421875 C-273.39833191 297.10367685 -273.40501621 301.237812 -271.875 305.5 C-270.81925899 307.22143274 -270.81925899 307.22143274 -268.75 308.0625 C-268.4715625 306.8559375 -268.4715625 306.8559375 -268.1875 305.625 C-263.38074118 293.71259771 -252.24480466 284.03879155 -240.8125 278.6875 C-236.66254714 277.84057085 -232.79887146 277.7196243 -228.75 279.0625 C-222.32344276 283.49673634 -218.43693717 289.76680239 -214.04882812 296.11328125 C-210.42016512 301.21671648 -207.19022708 304.8890342 -201.75 308.0625 C-196.80651897 308.23595547 -193.80025155 306.92663229 -190.07189941 303.68417358 C-187.55389307 300.59514554 -187.4337025 297.03488069 -187.078125 293.17578125 C-186.9363382 291.89020576 -186.9363382 291.89020576 -186.79168701 290.57865906 C-186.60040991 288.76875453 -186.42305444 286.9573311 -186.25878906 285.14477539 C-186.00186072 282.39491496 -185.67987978 279.65815505 -185.3515625 276.91601562 C-183.93340225 264.73766021 -183.93340225 264.73766021 -188.93774414 253.89599609 C-194.09051892 248.6828291 -199.08211614 246.29377141 -206.0625 244.25 C-230.22010348 236.60075472 -252.07967466 223.97782806 -271.75 208.0625 C-272.59715576 207.37873291 -272.59715576 207.37873291 -273.46142578 206.68115234 C-284.94562711 197.33573639 -296.28018829 187.47117403 -305.75 176.0625 C-307.049375 174.59490234 -307.049375 174.59490234 -308.375 173.09765625 C-319.93195345 160.02758978 -329.75211984 146.02779747 -338.8125 131.125 C-339.44389893 130.09528076 -340.07529785 129.06556152 -340.72583008 128.00463867 C-347.15771961 117.22638525 -352.02477958 106.90193121 -349.08984375 94.20703125 C-346.03021512 84.6043007 -340.73327276 78.62034274 -331.86328125 73.97265625 C-324.09280616 70.62603759 -314.17977735 70.77503634 -306.3125 73.6875 C-300.68065501 76.3045971 -296.34467982 79.8199815 -292.75 84.875 C-290.00335318 87.87914496 -287.69802266 87.63180662 -283.75 88.0625 C-281.875 89.1875 -281.875 89.1875 -280.75 91.0625 C-279.81257363 94.88431521 -279.30915204 97.13197168 -281.01953125 100.7421875 C-282.12866492 105.78370416 -279.8414026 108.61585426 -277.25 112.875 C-276.78674316 113.67019043 -276.32348633 114.46538086 -275.84619141 115.28466797 C-272.68043789 120.67053165 -269.39960897 125.98865338 -265.75 131.0625 C-265.65203125 130.41667969 -265.5540625 129.77085937 -265.453125 129.10546875 C-265.30359375 128.16316406 -265.1540625 127.22085938 -265 126.25 C-264.82855469 125.15300781 -264.65710938 124.05601562 -264.48046875 122.92578125 C-263.94435807 120.09041513 -263.326561 117.43449654 -262.55078125 114.66796875 C-259.43759123 103.11333738 -260.17341576 95.63531815 -264.00976562 84.43066406 C-265.33468464 80.19197195 -266.15729834 75.85571421 -267 71.5 C-267.16242188 70.69119385 -267.32484375 69.8823877 -267.4921875 69.04907227 C-269.46165141 58.94200881 -269.95749648 49.10897818 -270 38.8125 C-270.020625 37.57886719 -270.04125 36.34523437 -270.0625 35.07421875 C-270.11404683 22.81896038 -268.84970842 10.92865421 -260.375 1.5390625 C-254.2831088 -4.18863956 -246.5234202 -4.40598056 -238.59765625 -4.2421875 C-218.22176171 -2.62866489 -197.64139579 4.29533538 -179.27661133 13.06762695 C-174.46206204 15.23640513 -170.77312511 15.14767525 -165.75 14.0625 C-164.87811035 13.88211182 -164.0062207 13.70172363 -163.10791016 13.51586914 C-159.17180639 12.67511199 -155.24952977 11.77699341 -151.32617188 10.87890625 C-139.90673709 8.32107394 -128.85601032 7.79066711 -117.1875 7.75 C-116.4166507 7.74671692 -115.64580139 7.74343384 -114.85159302 7.74005127 C-102.90851088 7.72366144 -91.48541889 8.64215154 -79.74609375 10.9921875 C-78.91037842 11.15936279 -78.07466309 11.32653809 -77.21362305 11.4987793 C-74.75 12.0625 -74.75 12.0625 -72.31176758 12.85473633 C-66.92455742 14.43523492 -63.90239556 14.08398768 -58.83203125 11.58984375 C-56.72826031 10.41788762 -54.63870946 9.22011787 -52.5625 8 C-50.35859539 6.77714028 -48.15026417 5.56222314 -45.9375 4.35546875 C-44.87789063 3.77716309 -43.81828125 3.19885742 -42.7265625 2.60302734 C-29.59885656 -4.1912496 -13.01118572 -9.16697176 0 0 Z " fill="#542C02" transform="translate(379.75,52.9375)"/>
<path d="M0 0 C1.67578125 1.65234375 1.67578125 1.65234375 3.73828125 4.65234375 C3.40828125 5.64234375 3.07828125 6.63234375 2.73828125 7.65234375 C-0.25240535 8.82629983 -3.28488422 9.63108016 -6.37890625 10.4921875 C-9.56133584 11.77292136 -10.62556664 12.68055726 -12.26171875 15.65234375 C-12.89325452 19.99415216 -12.72000162 21.94274447 -10.32421875 25.65234375 C-6.57269039 28.10232146 -4.93884498 27.92332316 -0.6640625 27.18359375 C3.93058814 26.17234986 3.93058814 26.17234986 8.5 25.0546875 C11.2712571 24.55653832 13.9288667 24.59205588 16.73828125 24.65234375 C17.58040381 26.565165 18.41166989 28.48276848 19.23828125 30.40234375 C19.70234375 31.4696875 20.16640625 32.53703125 20.64453125 33.63671875 C21.73828125 36.65234375 21.73828125 36.65234375 21.73828125 40.65234375 C20.52140625 40.73484375 19.30453125 40.81734375 18.05078125 40.90234375 C10.98479478 41.70988506 2.44726219 42.82636363 -2.61328125 48.10546875 C-4.69437613 51.32080965 -4.96700421 52.8908213 -4.26171875 56.65234375 C-2.38813005 59.69294255 -2.38813005 59.69294255 0.73828125 61.65234375 C6.67588102 62.47132303 11.48349438 61.00546559 17.171875 59.3203125 C20.09483523 58.55954203 22.72984527 58.40841651 25.73828125 58.65234375 C25.88523437 59.79123047 25.88523437 59.79123047 26.03515625 60.953125 C26.25945312 62.44392578 26.25945312 62.44392578 26.48828125 63.96484375 C26.69710937 65.44404297 26.69710937 65.44404297 26.91015625 66.953125 C27.9026525 70.188101 28.79360136 71.05819151 31.73828125 72.65234375 C34.49808199 73.29917205 36.96770907 73.24400598 39.73828125 72.65234375 C43.07613218 69.91359427 43.93634581 67.4830391 44.48828125 63.33984375 C44.57078125 62.12296875 44.65328125 60.90609375 44.73828125 59.65234375 C45.61871094 59.75933594 46.49914062 59.86632812 47.40625 59.9765625 C48.56769531 60.09644531 49.72914063 60.21632812 50.92578125 60.33984375 C52.64861328 60.53126953 52.64861328 60.53126953 54.40625 60.7265625 C58.15656408 60.64302678 59.79548055 59.91727811 62.73828125 57.65234375 C64.30999121 54.50892382 63.97003908 51.09462924 63.73828125 47.65234375 C63.40828125 46.66234375 63.07828125 45.67234375 62.73828125 44.65234375 C60.78737113 43.68631467 60.78737113 43.68631467 58.36328125 43.08984375 C57.46480469 42.82816406 56.56632813 42.56648438 55.640625 42.296875 C52.75474167 41.57579509 52.75474167 41.57579509 49.8046875 41.4765625 C46.70521464 41.26208066 44.53665232 41.02903434 41.73828125 39.65234375 C39.0177841 35.21239818 36.73828125 29.94548052 36.73828125 24.65234375 C37.56328125 24.81734375 38.38828125 24.98234375 39.23828125 25.15234375 C46.81644959 26.40900892 46.81644959 26.40900892 53.73828125 23.58984375 C56.24467548 19.90857722 56.45353408 18.02333328 55.73828125 13.65234375 C53.22558561 9.54065997 49.32337965 8.5315825 44.88671875 7.3125 C38.56845459 5.98770268 32.15328322 5.32886381 25.73828125 4.65234375 C24.74828125 2.17734375 24.74828125 2.17734375 23.73828125 -0.34765625 C31.3751769 0.13213901 38.53491369 1.31015423 45.92578125 3.27734375 C46.92319336 3.54095703 47.92060547 3.80457031 48.94824219 4.07617188 C57.64838763 6.46598346 65.67149144 9.64189193 73.73828125 13.65234375 C74.71667969 14.12285156 75.69507813 14.59335938 76.703125 15.078125 C99.78414033 26.83387886 116.33767656 46.38708358 124.73828125 70.65234375 C125.14046875 71.64105469 125.54265625 72.62976563 125.95703125 73.6484375 C126.92757414 77.38017493 126.37472997 79.84127359 125.73828125 83.65234375 C125.50836168 87.81603184 125.41871812 91.98414341 125.30078125 96.15234375 C124.24466883 127.07919487 124.24466883 127.07919487 117.62890625 133.79296875 C113.99311391 136.13166761 110.98966658 136.28096357 106.80078125 136.21484375 C106.11048828 136.23869141 105.42019531 136.26253906 104.70898438 136.28710938 C100.91556433 136.2763224 98.32971591 135.72414692 95.37890625 133.41796875 C92.92185704 130.84460951 91.63396085 129.13439516 90.42578125 125.83984375 C89.96751953 124.65455078 89.96751953 124.65455078 89.5 123.4453125 C87.00160575 114.28453358 87.45546367 104.60584601 87.33691406 95.18115234 C87.30943742 93.16351376 87.2624488 91.14617029 87.21484375 89.12890625 C87.19502441 87.93346191 87.17520508 86.73801758 87.15478516 85.50634766 C86.94861572 84.09361572 86.94861572 84.09361572 86.73828125 82.65234375 C83.90254862 80.31459346 83.90254862 80.31459346 80.61328125 80.90234375 C79.66453125 81.14984375 78.71578125 81.39734375 77.73828125 81.65234375 C75.52038133 86.08814359 76.55326298 92.15818433 76.55078125 97.02734375 C76.53853516 98.25324219 76.52628906 99.47914063 76.51367188 100.7421875 C76.492438 114.09121977 77.7265402 128.13609643 86.11328125 139.15234375 C92.89255246 145.60879252 99.44820379 146.97439098 108.5703125 146.86328125 C117.01609294 146.30092349 122.84061415 143.65951661 128.73828125 137.65234375 C129.15078125 137.07097656 129.56328125 136.48960937 129.98828125 135.890625 C131.73828125 134.65234375 131.73828125 134.65234375 135.0234375 134.9453125 C136.26996094 135.24050781 137.51648438 135.53570312 138.80078125 135.83984375 C140.04988281 136.12214844 141.29898437 136.40445313 142.5859375 136.6953125 C145.73828125 137.65234375 145.73828125 137.65234375 147.73828125 139.65234375 C147.91146917 142.132747 147.9706441 144.48794223 147.92578125 146.96484375 C147.91933594 148.28097656 147.91289062 149.59710938 147.90625 150.953125 C147.76801637 153.99747955 147.45177776 156.70132217 146.73828125 159.65234375 C141.1987129 158.89694807 141.1987129 158.89694807 138.73828125 157.58984375 C135.87293324 156.24671187 133.86803585 156.26910849 130.73828125 156.65234375 C127.70900017 157.92559212 127.70900017 157.92559212 125.73828125 160.65234375 C124.86201989 164.80506064 124.91314371 168.32494858 127.17578125 171.96484375 C130.82084539 174.36525184 134.69654341 176.02873966 138.73828125 177.65234375 C137.31114446 182.21751232 134.76557036 185.16711479 131.42578125 188.46484375 C130.62998657 189.25205811 130.62998657 189.25205811 129.81811523 190.05517578 C117.11257172 202.20765665 100.29376937 208.60702454 83.73828125 213.65234375 C82.61421875 214.00167969 81.49015625 214.35101563 80.33203125 214.7109375 C72.34526505 217.02242276 64.31354807 218.50795328 56.11328125 219.83984375 C55.0886377 220.00685791 54.06399414 220.17387207 53.00830078 220.34594727 C38.89644581 222.53424209 24.91709336 222.83876819 10.66577148 222.83764648 C7.57456558 222.83982697 4.48372098 222.85802525 1.39257812 222.87695312 C-39.47441968 222.99576859 -84.05241104 215.02444167 -115.26171875 186.65234375 C-114.14390178 183.29889284 -113.63236621 182.94906911 -110.8046875 181.09375 C-110.10408203 180.62517578 -109.40347656 180.15660156 -108.68164062 179.67382812 C-107.94494141 179.19236328 -107.20824219 178.71089844 -106.44921875 178.21484375 C-98.48371277 173.65353691 -98.48371277 173.65353691 -93.6953125 166.43359375 C-93.69663796 161.33464225 -93.69663796 161.33464225 -96.38671875 157.08984375 C-99.75733103 155.40453761 -101.52873808 155.30369363 -105.26171875 155.65234375 C-108.03994449 156.98791794 -108.03994449 156.98791794 -110.66015625 158.93359375 C-111.63339844 159.61035156 -112.60664063 160.28710938 -113.609375 160.984375 C-114.60839844 161.69980469 -115.60742188 162.41523438 -116.63671875 163.15234375 C-117.65894531 163.86777344 -118.68117187 164.58320313 -119.734375 165.3203125 C-122.25253615 167.08537873 -124.76088102 168.86285824 -127.26171875 170.65234375 C-129.86640268 168.16589169 -131.26625458 165.95003397 -132.76171875 162.65234375 C-133.16390625 161.78609375 -133.56609375 160.91984375 -133.98046875 160.02734375 C-135.76397881 155.32931724 -137.00319958 150.51342809 -138.26171875 145.65234375 C-137.48981201 145.42571045 -136.71790527 145.19907715 -135.92260742 144.96557617 C-132.42845007 143.93361206 -128.93887463 142.88692389 -125.44921875 141.83984375 C-124.23427734 141.48341797 -123.01933594 141.12699219 -121.76757812 140.75976562 C-120.60419922 140.40849609 -119.44082031 140.05722656 -118.2421875 139.6953125 C-117.16864014 139.3758667 -116.09509277 139.0564209 -114.98901367 138.72729492 C-111.51430564 137.3577542 -109.91667687 135.96225999 -108.26171875 132.65234375 C-108.12814422 128.97904411 -108.09456195 126.15381416 -109.26171875 122.65234375 C-117.05002553 120.05624149 -124.09030978 122.49788694 -131.67578125 124.6796875 C-134.87137217 125.54646543 -137.98869164 126.17397825 -141.26171875 126.65234375 C-142.36565448 95.90568932 -131.32824634 66.94756973 -110.33984375 44.35546875 C-97.48031716 30.93170815 -83.64870257 21.26994813 -67.26171875 12.65234375 C-65.9159375 11.92917969 -65.9159375 11.92917969 -64.54296875 11.19140625 C-50.73842779 4.33282102 -14.89721976 -8.87658172 0 0 Z " fill="#FE9723" transform="translate(260.26171875,66.34765625)"/>
<path d="M0 0 C3.66044321 2.51612387 6.40204118 4.83008057 8.4375 8.8125 C9.75259358 11.15635256 9.75259358 11.15635256 11.8828125 11.4609375 C13.91880798 11.67256427 15.95945198 11.83805174 18 12 C20 14 20 14 20.1875 17.0625 C20 20 20 20 19 21 C17.95361758 27.33924882 21.31334104 31.77993971 24.4375 37 C25.25142212 38.40439331 25.25142212 38.40439331 26.08178711 39.8371582 C28.48503997 43.94576297 30.92213317 47.98496563 33.6953125 51.85546875 C38.72618154 58.89161391 40.90545533 64.6377702 41.97753906 73.10253906 C44.82917904 95.22863009 57.07360623 115.13053167 74.44140625 128.94140625 C76.91367741 130.71525088 79.42859302 132.37350763 82 134 C82.8559375 134.56203125 83.711875 135.1240625 84.59375 135.703125 C97.86314173 143.97785805 112.93477474 149.09348459 128 153 C130.33667502 153.65551649 132.66824274 154.3270964 135 155 C135.33 156.65 135.66 158.3 136 160 C136.66 159.67 137.32 159.34 138 159 C138.33 158.01 138.66 157.02 139 156 C139.61254639 156.09087891 140.22509277 156.18175781 140.85620117 156.27539062 C172.46910208 160.75663782 205.29816389 160.62512725 237 157 C238.71353408 156.81112905 240.4270754 156.62232386 242.140625 156.43359375 C243.41421875 156.29050781 244.6878125 156.14742187 246 156 C248.57586526 171.07638787 250.78342194 186.19652116 252.83905029 201.35171509 C253.11132653 203.35480363 253.38607597 205.35755768 253.66339111 207.35995483 C257.86817011 237.80456758 257.86817011 237.80456758 251.3125 250.1875 C242.69040308 260.67383409 232.27334671 264.44899393 219 266 C200.10476447 267.79267774 180.95820096 267.09440612 162 267 C162 266.01 162 265.02 162 264 C160.58847656 265.04800781 160.58847656 265.04800781 159.1484375 266.1171875 C157.89092126 267.03686356 156.63309208 267.95611182 155.375 268.875 C154.44880859 269.56529297 154.44880859 269.56529297 153.50390625 270.26953125 C149.78630684 272.9696824 146.50313704 274.79454485 142 276 C141.34 273.36 140.68 270.72 140 268 C135.85906302 267.79029441 135.85906302 267.79029441 132 269 C132 272.96 132 276.92 132 281 C128.04 281.66 124.08 282.32 120 283 C119.25130208 280.16796875 118.50260417 277.3359375 117.75390625 274.50390625 C117.24021923 272.08247999 117.24021923 272.08247999 116 271 C113.54190002 270.7499227 113.54190002 270.7499227 111 271 C108.75675164 272.81193006 108.75675164 272.81193006 108.8046875 275.3828125 C108.82789063 276.28773438 108.85109375 277.19265625 108.875 278.125 C108.89304688 279.03507812 108.91109375 279.94515625 108.9296875 280.8828125 C108.95289063 281.58148438 108.97609375 282.28015625 109 283 C100.03276536 283.81520315 91.04614193 280.48033261 84 275 C84.763125 274.2575 85.52625 273.515 86.3125 272.75 C89.48238241 269.61264364 89.48238241 269.61264364 92 266 C91.76554071 262.67649546 91.76554071 262.67649546 90 260 C86.84181382 259.61262452 85.42065443 259.71222245 82.76171875 261.53125 C82.07722656 262.1809375 81.39273438 262.830625 80.6875 263.5 C79.99011719 264.1496875 79.29273438 264.799375 78.57421875 265.46875 C78.05472656 265.9740625 77.53523438 266.479375 77 267 C72.86281109 265.20953589 71.33679861 262.83902629 69 259 C70.16971867 255.95873146 71.74738142 254.25588457 74.125 252.125 C76.65730687 249.71562065 76.9661975 249.30422253 77.375 245.625 C77.189375 244.325625 77.189375 244.325625 77 243 C74.33793923 242.0384842 74.33793923 242.0384842 71 242 C68.36237242 243.41094649 66.33252063 245.08733308 64 247 C63.01 244.03 62.02 241.06 61 238 C57.65934427 239.67032786 55.18511019 241.32377742 52.25 243.5625 C47.64254669 246.80402688 44.67350209 248.39127601 39 248 C35.71865328 245.45695629 35.12041347 243.60206737 34.3125 239.5625 C34.92712704 228.72457647 43.32824989 217.99813303 51 211 C62.24581006 202 62.24581006 202 69.375 202 C78.28304413 204.45739148 82.71470419 212.45189197 87.66796875 219.66015625 C93.30608455 228.05852588 93.30608455 228.05852588 102.10546875 232.45703125 C107.75473394 232.87513521 111.00134957 231.26454738 115.2734375 227.65625 C118.40310019 224.65403964 120.62248205 222.13255385 122 218 C121.34 218 120.68 218 120 218 C120.96355353 198.99544419 120.96355353 198.99544419 122 191 C122.33 191.66 122.66 192.32 123 193 C123.99 193 124.98 193 126 193 C123.25666927 183.23646889 119.40392248 171.73627897 110.33984375 166.04296875 C105.69480531 163.97247582 100.7864629 162.62901278 95.9140625 161.203125 C91.40291679 159.86214951 87.23797948 158.04331153 83 156 C83.08378906 155.21753906 83.16757813 154.43507813 83.25390625 153.62890625 C83.35574219 152.61699219 83.45757812 151.60507812 83.5625 150.5625 C83.66691406 149.55316406 83.77132812 148.54382813 83.87890625 147.50390625 C83.91886719 146.67761719 83.95882812 145.85132813 84 145 C82.89745874 143.70078654 82.89745874 143.70078654 80.1875 143.5625 C76.70104556 143.66628741 76.70104556 143.66628741 74.625 147 C74.08875 147.99 73.5525 148.98 73 150 C68.48521602 149.46884894 65.65333143 147.63379708 62 145 C62.2165625 143.9790625 62.2165625 143.9790625 62.4375 142.9375 C63.59570509 137.00928494 63.59570509 137.00928494 64 131 C60.71158857 130.41439551 60.71158857 130.41439551 57 131 C54.88841619 133.08545034 53.43260857 135.41206193 52 138 C47.84848662 136.55797524 44.70021555 134.4989562 41.1875 131.875 C40.21167969 131.15054688 39.23585938 130.42609375 38.23046875 129.6796875 C37.12638672 128.84824219 37.12638672 128.84824219 36 128 C36.73589413 123.36386698 39.58738462 120.74160838 42.6015625 117.31640625 C44.27273269 115.05959857 44.27273269 115.05959857 43.7734375 112.27734375 C43.2076459 110.06026148 43.2076459 110.06026148 42 109 C39.14280935 108.49879619 39.14280935 108.49879619 36 109 C33.55452943 111.15142522 33.55452943 111.15142522 31.625 114 C30.93664062 114.928125 30.24828125 115.85625 29.5390625 116.8125 C28.77722656 117.8953125 28.77722656 117.8953125 28 119 C24.64749299 118.42424336 23.06181371 117.40693737 20.75 114.9375 C19.96882813 114.11572266 19.96882813 114.11572266 19.171875 113.27734375 C18.78515625 112.85582031 18.3984375 112.43429688 18 112 C19.09378193 108.11099757 20.94549363 105.90828748 23.6875 103.0625 C26.70126096 99.88275353 26.70126096 99.88275353 26.9375 95.5 C26.628125 94.675 26.31875 93.85 26 93 C23.25038489 92.05392193 23.25038489 92.05392193 20 92 C17.29199403 94.03949126 17.29199403 94.03949126 15 97 C14.53078125 97.55171875 14.0615625 98.1034375 13.578125 98.671875 C12.36777537 100.09981557 11.18166865 101.54823566 10 103 C6.66863403 101.57646476 4.72335243 99.8664687 2.375 97.125 C1.78460938 96.44695312 1.19421875 95.76890625 0.5859375 95.0703125 C-0.91318087 93.11333531 -1.98569068 91.23951463 -3 89 C-2.2059375 88.34773438 -1.411875 87.69546875 -0.59375 87.0234375 C0.43827209 86.14152771 1.46948002 85.25866455 2.5 84.375 C3.02464844 83.94832031 3.54929688 83.52164063 4.08984375 83.08203125 C6.8704692 80.66252599 7.94555201 79.43872513 8.40625 75.7265625 C8.29014015 73.09174694 8.29014015 73.09174694 7 72 C3.27750515 71.5751789 1.50364881 71.66964178 -1.66796875 73.75 C-2.49941406 74.4925 -3.33085938 75.235 -4.1875 76 C-8.70833333 80 -8.70833333 80 -12 80 C-13.421875 78.609375 -13.421875 78.609375 -14.75 76.75 C-15.19859375 76.14671875 -15.6471875 75.5434375 -16.109375 74.921875 C-17 73 -17 73 -16.95703125 71.0390625 C-15.15907869 67.20832276 -11.40486408 64.99600711 -8.15234375 62.4140625 C-5.71896381 60.13675538 -5.71896381 60.13675538 -5.56640625 56.8359375 C-5.73314408 53.87211277 -5.73314408 53.87211277 -8 52 C-10.35838165 51.45655939 -10.35838165 51.45655939 -13 52 C-15.76704543 53.94633801 -15.76704543 53.94633801 -18.3125 56.5 C-19.63701172 57.75296875 -19.63701172 57.75296875 -20.98828125 59.03125 C-21.98408203 60.00578125 -21.98408203 60.00578125 -23 61 C-26.5665994 59.81113353 -26.87052037 59.0498503 -28.7421875 55.9140625 C-29.24911133 55.07077393 -29.75603516 54.22748535 -30.27832031 53.35864258 C-30.80522461 52.45654053 -31.33212891 51.55443848 -31.875 50.625 C-32.4122168 49.71194092 -32.94943359 48.79888184 -33.50292969 47.8581543 C-44.77833957 28.49813089 -44.77833957 28.49813089 -42.5234375 17.72265625 C-40.07040577 9.077936 -34.80651645 2.422499 -27 -2 C-18.17978706 -6.20964708 -8.29981745 -4.59529927 0 0 Z " fill="#FD9723" transform="translate(76,132)"/>
<path d="M0 0 C1.90026846 0.09282865 3.79735894 0.25018217 5.69140625 0.4296875 C15.76948133 1.22267456 25.8336892 1.15086148 35.9375 1.125 C36.930914 1.12411377 37.924328 1.12322754 38.94784546 1.12231445 C53.32106251 1.10722705 67.65130659 0.90999641 82 0 C90.01059262 21.01139047 96.81170846 44.91577159 89 67 C84.01142084 77.88417271 77.20923008 82.73923013 66.57421875 87.703125 C51.26027619 93.25965935 29.31869316 93.86142669 14 88 C3.73414264 82.67696285 -1.5947109 75.27722518 -5.23828125 64.515625 C-5.48964844 63.68546875 -5.74101562 62.8553125 -6 62 C-6.26586914 61.12637817 -6.26586914 61.12637817 -6.53710938 60.23510742 C-7.62652528 54.97476852 -7.18482932 49.41187961 -7.1875 44.0625 C-7.19974609 42.80630859 -7.21199219 41.55011719 -7.22460938 40.25585938 C-7.24190736 29.08712912 -5.89860385 18.51355619 -2.9375 7.75 C-2.59589844 6.48671875 -2.25429687 5.2234375 -1.90234375 3.921875 C-1 1 -1 1 0 0 Z " fill="#F9FEBC" transform="translate(229,290)"/>
<path d="M0 0 C20.77907777 7.16861666 20.77907777 7.16861666 26 15 C25.175 15.350625 24.35 15.70125 23.5 16.0625 C22.675 16.701875 21.85 17.34125 21 18 C20.49968794 21.58428147 20.49968794 21.58428147 21 25 C22.09069279 26.30408759 22.09069279 26.30408759 24.75 26.25 C28.05110889 26.24648719 28.05110889 26.24648719 30.625 24.375 C33 23 33 23 35.0625 23.4375 C37.75196987 25.60642731 39.29336776 28.01339357 41 31 C41 31.99 41 32.98 41 34 C39.28515625 35.17578125 39.28515625 35.17578125 37.0625 36.3125 C33.53221524 38.36832531 33.53221524 38.36832531 31.8125 42.125 C31.78318314 44.95735525 31.78318314 44.95735525 33.125 46.9375 C34.98617065 48.21429932 34.98617065 48.21429932 37.375 47.875 C40.21380236 46.92873255 42.46618521 45.57507406 45 44 C45.66 44 46.32 44 47 44 C49.10428384 49.12919186 49.21755666 53.5610835 49 59 C48.30132812 58.90460938 47.60265625 58.80921875 46.8828125 58.7109375 C45.97273438 58.60007812 45.06265625 58.48921875 44.125 58.375 C43.22007812 58.25898438 42.31515625 58.14296875 41.3828125 58.0234375 C40.59648437 58.01570313 39.81015625 58.00796875 39 58 C38.34 58.66 37.68 59.32 37 60 C37.32326553 63.59679066 37.32326553 63.59679066 38 67 C40.97 67.99 43.94 68.98 47 70 C46.48898407 74.34363544 45.70656894 77.98331946 44 82 C43.16855469 81.89300781 42.33710938 81.78601563 41.48046875 81.67578125 C40.39378906 81.55589844 39.30710937 81.43601562 38.1875 81.3125 C37.10855469 81.18488281 36.02960938 81.05726563 34.91796875 80.92578125 C32.02107926 80.7383544 32.02107926 80.7383544 30.09375 82.28125 C28.6802879 84.11242229 28.6802879 84.11242229 29.3125 87.1875 C29.539375 88.115625 29.76625 89.04375 30 90 C32.31 90.66 34.62 91.32 37 92 C35.22054913 96.04420651 32.60470327 99.46078487 30 103 C31.03125 103.020625 32.0625 103.04125 33.125 103.0625 C37.56364172 103.62232869 41.42611558 105.29014072 45.4375 107.1875 C46.37843506 107.6062439 46.37843506 107.6062439 47.33837891 108.03344727 C49.12109375 108.91796875 49.12109375 108.91796875 52 111 C53.09636282 114.47918364 53.28913855 116.19041207 52.0625 119.625 C48.04400454 124.25235841 41.98011055 126.69454966 35.90039062 127.16113281 C20.76176847 127.44440555 5.92260097 127.44282685 -5.77734375 116.30859375 C-8.10762285 111.9086099 -7.49959852 107.83314225 -6.23828125 103.20507812 C-4.85415469 98.95695847 -3.36231239 94.75247921 -1.84375 90.55078125 C0.89784047 82.55121191 2.74375685 74.52124797 0.125 66.22949219 C-0.82710093 63.79103027 -0.82710093 63.79103027 -3.375 62.8125 C-4.24125 62.544375 -5.1075 62.27625 -6 62 C-7.34098912 61.3488699 -8.6758044 60.6846373 -10 60 C-9.61328125 59.56429687 -9.2265625 59.12859375 -8.828125 58.6796875 C-0.65046242 49.32800406 2.36245887 42.33809866 2.25 29.9375 C2.24613281 28.91414551 2.24226563 27.89079102 2.23828125 26.83642578 C2.16314952 20.24883407 1.71399197 13.99454264 0.4375 7.5234375 C-0.00614108 4.96457911 -0.07484297 2.59143799 0 0 Z " fill="#FC9622" transform="translate(331,333)"/>
<path d="M0 0 C5.42686103 3.10425384 8.7508794 8.75263819 10.6875 14.5625 C11.55787115 21.53973755 10.40709006 27.59008633 6.6875 33.5625 C2.38129145 38.88619708 -2.4717626 43.72953057 -7.3125 48.5625 C-8.30709229 49.55950928 -8.30709229 49.55950928 -9.32177734 50.57666016 C-10.98329413 52.24068616 -12.64686896 53.90259387 -14.3125 55.5625 C-17.3125 54.5625 -17.3125 54.5625 -19.1875 52 C-21.07233982 49.31677933 -21.07233982 49.31677933 -23.9375 49.125 C-26.49149853 49.36329504 -26.49149853 49.36329504 -28.3125 51.5625 C-28.05775692 56.14787549 -27.45281285 59.14911647 -24.3125 62.5625 C-25.9010342 66.85154235 -28.74377368 68.88595526 -32.3125 71.5625 C-32.9725 71.5625 -33.6325 71.5625 -34.3125 71.5625 C-35.44121025 70.09634029 -36.51665211 68.5888726 -37.5625 67.0625 C-40.28356287 63.23565177 -40.28356287 63.23565177 -44.6875 61.9375 C-47.22378559 62.29908645 -47.22378559 62.29908645 -48.3125 63.5625 C-49.12600492 68.21109955 -47.83953515 70.66775815 -45.3125 74.4375 C-44.32558529 75.82192203 -43.32970167 77.20017634 -42.3125 78.5625 C-52.68607631 86.04541572 -52.68607631 86.04541572 -58.3125 88.5625 C-58.951875 87.593125 -59.59125 86.62375 -60.25 85.625 C-62.0090259 82.80213731 -62.0090259 82.80213731 -63.3125 81.5625 C-65.77059998 81.3124227 -65.77059998 81.3124227 -68.3125 81.5625 C-70.55317222 83.38232462 -70.55317222 83.38232462 -70.5625 86 C-70.49217816 88.80354365 -70.49217816 88.80354365 -68.3125 91.5625 C-68.3125 92.5525 -68.3125 93.5425 -68.3125 94.5625 C-69.71941607 95.29000788 -71.13856022 95.99390353 -72.5625 96.6875 C-73.35140625 97.08195312 -74.1403125 97.47640625 -74.953125 97.8828125 C-77.3125 98.5625 -77.3125 98.5625 -79.5546875 97.80859375 C-81.3125 96.5625 -81.3125 96.5625 -82.1875 94.5 C-83.21555995 92.21664254 -83.21555995 92.21664254 -86.3125 91.6875 C-87.3025 91.64625 -88.2925 91.605 -89.3125 91.5625 C-91.62136319 93.4316366 -91.62136319 93.4316366 -91.5 96.4375 C-91.34544874 99.01335431 -90.97941787 101.09757156 -90.3125 103.5625 C-101.0823888 107.75079009 -112.81193027 109.4140705 -124.3125 110 C-129.50973362 110.30262373 -133.58353785 111.52622365 -138.2890625 113.72265625 C-140.3125 114.5625 -140.3125 114.5625 -143.3125 114.5625 C-143.3125 112.2525 -143.3125 109.9425 -143.3125 107.5625 C-142.32894531 107.35496094 -141.34539062 107.14742188 -140.33203125 106.93359375 C-114.53463338 101.29268053 -84.23900015 92.47430723 -68.3125 69.5625 C-65.67866057 65.04283153 -63.44590655 60.33671791 -61.3125 55.5625 C-60.92449219 54.74523437 -60.53648437 53.92796875 -60.13671875 53.0859375 C-59.07701724 49.84154331 -59.12445076 46.84389517 -59 43.4375 C-58.51310138 37.89471107 -57.19443271 34.68415619 -52.98046875 30.98999023 C-50.1507234 28.75789285 -47.25402543 26.64393028 -44.3125 24.5625 C-38.25209454 20.45884964 -38.25209454 20.45884964 -34.87109375 14.3984375 C-34.93136455 12.44849981 -35.11512454 10.5033587 -35.3125 8.5625 C-34.25 6.5625 -34.25 6.5625 -32.3125 5.5625 C-31.24 5.624375 -30.1675 5.68625 -29.0625 5.75 C-24.42491117 5.51812056 -23.08227721 4.12702281 -19.890625 0.97265625 C-15.02236892 -3.37744386 -5.64222756 -2.39631287 0 0 Z " fill="#FC9622" transform="translate(468.3125,179.4375)"/>
<path d="M0 0 C1.18746826 0.0163147 1.18746826 0.0163147 2.39892578 0.03295898 C24.76069928 0.62471752 45.22829697 10.02103121 65.625 18.375 C61.30552709 22.04312382 56.11764905 24.02056436 51 26.32617188 C47.51959427 27.92187026 44.52913085 29.44382616 41.3984375 31.69140625 C38.625 33.375 38.625 33.375 36.1875 33.3125 C31.69389035 31.66849647 27.36423544 29.7063814 23 27.75 C17.1557292 25.36900078 12.03250355 25.24472125 5.8125 25.3125 C4.63010742 25.31926758 4.63010742 25.31926758 3.42382812 25.32617188 C1.49085239 25.33788688 -0.44208393 25.35582002 -2.375 25.375 C-2.705 26.035 -3.035 26.695 -3.375 27.375 C-2.405625 27.31699219 -1.43625 27.25898437 -0.4375 27.19921875 C11.71896798 26.705128 23.24027853 28.60408217 33.625 35.375 C30.35270114 38.74163541 26.99214105 41.77467271 23.3125 44.6875 C6.5867694 58.30510686 -5.20308443 75.4781621 -13.375 95.375 C-17.2419109 91.5080891 -17.65886325 85.12850158 -18.9375 79.9375 C-19.25396484 78.70322266 -19.57042969 77.46894531 -19.89648438 76.19726562 C-22.86736532 64.26958864 -23.59967393 52.8472707 -23.67016602 40.58740234 C-23.68169313 39.19927788 -23.70215708 37.81119799 -23.73168945 36.42333984 C-23.95333517 25.9354113 -23.6251835 14.4685344 -17 5.75 C-11.73553919 0.98691641 -6.9662533 -0.13156641 0 0 Z " fill="#FC9622" transform="translate(137.375,52.625)"/>
<path d="M0 0 C19.96810934 -0.18451025 19.96810934 -0.18451025 29 1 C29.495 3.97 29.495 3.97 30 7 C31.52367187 7.03867188 31.52367187 7.03867188 33.078125 7.078125 C54.11995947 7.85004361 54.11995947 7.85004361 59.796875 13.921875 C61.63225345 17.09207414 61.44093815 19.40950366 61 23 C59.20437595 25.75329021 57.94745078 27.52627461 55 29 C49.7627306 29.26186347 45.93784652 28.97513861 41 27 C41.27714844 27.66386719 41.55429687 28.32773438 41.83984375 29.01171875 C42.38318359 30.33623047 42.38318359 30.33623047 42.9375 31.6875 C43.47697266 32.99267578 43.47697266 32.99267578 44.02734375 34.32421875 C44.9570312 36.88179265 45.54162625 39.3221323 46 42 C46.9075 41.9175 47.815 41.835 48.75 41.75 C55.13802372 41.75 62.36876367 43.85880936 67.328125 47.89453125 C69.42510189 50.53535028 69.63203249 52.69518618 69.4453125 56.03125 C68.64956037 59.54931206 66.8797993 60.97801326 64 63 C58.42888809 64.57672979 54.39238438 63.60825499 49 62 C49.1546875 63.794375 49.1546875 63.794375 49.3125 65.625 C49.29528345 68.85023451 48.88780129 70.86086643 47 73.5 C43.63453955 76.30455037 42.17257032 76.79338447 37.93359375 76.46484375 C34.87586252 75.72975281 33.12721603 74.25613821 31 72 C29.71682108 68.15046324 29.93356363 65.05261865 30 61 C28.865625 61.28875 27.73125 61.5775 26.5625 61.875 C25.0417863 62.25048486 23.52094608 62.62545754 22 63 C21.25621094 63.19078125 20.51242187 63.3815625 19.74609375 63.578125 C14.69596109 64.80772252 10.20137651 65.34788063 5 65 C2.1899654 63.20636089 0.49059532 61.98119065 -1 59 C-1.52298217 55.1647974 -1.16512075 53.30577916 0.6875 49.875 C5.3367491 44.8416249 13.26684619 43.31749731 19.84765625 42.7578125 C21.90001553 42.7513074 23.95233095 42.86117498 26 43 C25.6390625 42.01257813 25.278125 41.02515625 24.90625 40.0078125 C24.43733319 38.71360209 23.96859231 37.41932794 23.5 36.125 C23.26152344 35.47402344 23.02304687 34.82304688 22.77734375 34.15234375 C21 29.2265625 21 29.2265625 21 27 C19.77023437 27.28875 18.54046875 27.5775 17.2734375 27.875 C15.64070339 28.25034117 14.00788646 28.62532218 12.375 29 C11.56675781 29.19078125 10.75851562 29.3815625 9.92578125 29.578125 C5.56250075 30.57139211 1.50338293 31.42113083 -3 31 C-5.69990662 29.20006226 -7.5418865 27.916227 -9 25 C-9.3525421 21.26305375 -9.3438364 18.73924826 -7.75 15.3125 C-3.44944338 11.69612284 1.65186896 10.50521298 7 9 C5.44499019 5.18315774 2.96404505 2.80804268 0 0 Z " fill="#8C5E3B" transform="translate(256,64)"/>
<path d="M0 0 C1.04220703 -0.04350586 1.04220703 -0.04350586 2.10546875 -0.08789062 C7.2936329 -0.15139923 10.18923503 0.97235525 14.125 4.3125 C20.74896332 13.70885246 20.45913125 26.97940411 20.375 37.9375 C20.37113281 39.15920898 20.36726563 40.38091797 20.36328125 41.63964844 C20.27445896 50.97832503 19.59984399 60.09472503 18.125 69.3125 C15.39559564 65.95369863 12.81903336 62.52752454 10.3125 59 C1.21633794 46.54474335 -9.50247193 37.06856628 -22.875 29.3125 C-18.89889214 26.59763066 -14.73598023 27.08809247 -10.125 27.1875 C-8.93583984 27.20103516 -8.93583984 27.20103516 -7.72265625 27.21484375 C-5.77330719 27.23832988 -3.82411425 27.27419863 -1.875 27.3125 C-2.37 26.3225 -2.37 26.3225 -2.875 25.3125 C-5.33341521 25.28504871 -7.7915013 25.26531093 -10.25 25.25 C-10.98734375 25.24162109 -11.7246875 25.23324219 -12.484375 25.22460938 C-16.44871379 25.20722192 -19.98818327 25.46434583 -23.875 26.3125 C-31.30908695 27.32159428 -38.65626511 21.83850725 -44.875 18.3125 C-42.84700641 16.13881945 -40.93620287 14.63099826 -38.3203125 13.2265625 C-37.62897217 12.8553125 -36.93763184 12.4840625 -36.2253418 12.1015625 C-35.490979 11.71742187 -34.75661621 11.33328125 -34 10.9375 C-33.24565674 10.54046875 -32.49131348 10.1434375 -31.71411133 9.734375 C-21.5164259 4.46160408 -11.598109 0.159607 0 0 Z " fill="#FC9622" transform="translate(363.875,51.6875)"/>
<path d="M0 0 C3.1662513 0.67848242 4.40805807 2.08246117 6.4140625 4.56640625 C16.88310068 21.8234337 15.59913004 47.64732193 11.40014648 66.57836914 C9.86785596 72.70973385 7.63481334 79.42443832 2.625 83.5625 C-0.25 83.75 -0.25 83.75 -3.375 82.5625 C-10.71603402 75.55898478 -12.43497037 61.90216878 -12.83056641 52.15370178 C-12.88509705 49.28211702 -12.88338856 46.41496633 -12.84155273 43.54321289 C-12.81236104 41.3646297 -12.82105802 39.18846539 -12.83398438 37.00976562 C-12.81617236 25.2045585 -12.10684287 11.20260738 -3.8984375 1.88671875 C-2.375 0.5625 -2.375 0.5625 0 0 Z " fill="#FCFBFB" transform="translate(294.375,170.4375)"/>
<path d="M0 0 C3 0.4375 3 0.4375 4.66430664 1.52392578 C6.70436587 4.44660614 6.36910131 6.9638028 6.37109375 10.4921875 C6.38850962 11.92708531 6.40609353 13.36198109 6.42382812 14.796875 C6.43379324 17.03878189 6.43752472 19.28053309 6.43579102 21.52246094 C6.25430418 38.24863711 6.25430418 38.24863711 13.5625 52.6875 C19.01907455 56.6050407 25.54725588 56.00825869 32 55.4375 C34.85225032 54.46920838 35.80095839 53.63654161 38 51.4375 C43.48864517 40.08236814 42.33010218 24.76442934 42.48266602 12.49169922 C42.52025024 10.80004639 42.52025024 10.80004639 42.55859375 9.07421875 C42.57204834 8.06061279 42.58550293 7.04700684 42.59936523 6.00268555 C43 3.4375 43 3.4375 44.33618164 1.60473633 C46.8921923 -0.18840923 48.97212786 0.11538594 52 0.4375 C54.8006293 3.2381293 54.25825306 5.00316019 54.265625 8.921875 C54.26849518 9.8999411 54.26849518 9.8999411 54.27142334 10.89776611 C54.27278683 12.28650292 54.26907895 13.67525239 54.26074219 15.06396484 C54.25025036 17.13800831 54.26052149 19.21114365 54.2734375 21.28515625 C54.30565195 52.03269798 54.30565195 52.03269798 44.75390625 61.9296875 C38.56509352 67.25013675 32.35593194 67.81638113 24.4375 67.9375 C23.63417236 67.95611084 22.83084473 67.97472168 22.00317383 67.99389648 C14.67250098 67.91651006 8.98851236 65.69326335 3.8125 60.4375 C-6.03494319 47.7995007 -6.15668203 32.07429452 -6.3125 16.8125 C-6.33030518 15.66120605 -6.34811035 14.50991211 -6.36645508 13.32373047 C-6.36540771 12.23463379 -6.36436035 11.14553711 -6.36328125 10.0234375 C-6.36626221 9.0442334 -6.36924316 8.0650293 -6.37231445 7.05615234 C-5.754572 2.71129623 -4.39377535 0.6407589 0 0 Z " fill="#522B01" transform="translate(168,146.5625)"/>
<path d="M0 0 C0.54269531 0.42152344 1.08539063 0.84304688 1.64453125 1.27734375 C2.35996094 1.82519531 3.07539062 2.37304688 3.8125 2.9375 C4.87404297 3.75541016 4.87404297 3.75541016 5.95703125 4.58984375 C9.53030419 7.05629027 12.46874128 7.11213246 16.6875 7.0625 C17.68136719 7.05347656 18.67523438 7.04445313 19.69921875 7.03515625 C20.45847656 7.02355469 21.21773437 7.01195312 22 7 C22.25394531 7.75925781 22.50789063 8.51851563 22.76953125 9.30078125 C23.11371094 10.29464844 23.45789063 11.28851563 23.8125 12.3125 C24.14894531 13.29863281 24.48539063 14.28476562 24.83203125 15.30078125 C25.78520129 18.00249211 25.78520129 18.00249211 27.609375 19.48828125 C29.71252234 21.77456783 29.37299377 23.83182359 29.4375 26.875 C29.68134888 30.60950039 29.8992991 32.79457017 31.5625 36.1875 C35.00809874 38.74961189 37.74694591 38.65138901 42 39 C42.33 39.66 42.66 40.32 43 41 C45.91652174 41.16681109 45.91652174 41.16681109 49 41 C51.29575603 38.70424397 51.32339599 37.99157475 51.625 34.875 C51.810625 32.956875 51.810625 32.956875 52 31 C53.32 30.67 54.64 30.34 56 30 C56.495 36.435 56.495 36.435 57 43 C58.65 43.66 60.3 44.32 62 45 C63.36328125 46.9453125 63.36328125 46.9453125 64.3125 49.125 C64.63863281 49.84945312 64.96476562 50.57390625 65.30078125 51.3203125 C65.64689453 52.15175781 65.64689453 52.15175781 66 53 C50.14638376 53.5372006 36.34387063 53.52783586 22 46 C23.15173355 43.53199953 24.04783565 41.95216435 26 40 C26.16681109 36.91652174 26.16681109 36.91652174 26 34 C20.84001623 34.37409251 20.84001623 34.37409251 16.5625 37.0625 C16.046875 37.701875 15.53125 38.34125 15 39 C12.13302508 37.71480435 10.02392288 36.42870746 8 34 C8 33.34 8 32.68 8 32 C9.63618674 31.029975 11.31010847 30.12311063 13 29.25 C15.73987422 27.74160239 15.73987422 27.74160239 18 26 C19.00309237 22.82340774 19.00309237 22.82340774 18 20 C17.34 19.34 16.68 18.68 16 18 C10.70423336 18.25217936 6.55763582 20.51296523 2 23 C-1.46926034 15.7723743 -1.56047138 8.94360393 -1 1 C-0.67 0.67 -0.34 0.34 0 0 Z " fill="#F99422" transform="translate(80,344)"/>
<path d="M0 0 C1.69451449 0.95204959 3.3746566 1.93414981 5 3 C1.72770114 6.36663541 -1.63285895 9.39967271 -5.3125 12.3125 C-12.64440598 18.25489154 -18.96642628 24.75971154 -25 32 C-32.92126682 22.24360099 -33.98544455 11.02242349 -33 -1 C-32.67 -1.99 -32.34 -2.98 -32 -4 C-21.25523216 -7.58158928 -10.10234594 -3.96718231 0 0 Z " fill="#F8FCBA" transform="translate(166,85)"/>
<path d="M0 0 C5.48470134 1.79499317 8.00438078 5.03816582 10.625 10 C15.59430345 20.72006994 15.6241861 31.85173816 15.62280273 43.44433594 C15.6249884 45.48914452 15.64320412 47.53341134 15.66210938 49.578125 C15.71945343 62.77405024 14.77469786 78.79534985 5.14453125 88.9375 C1.79063815 91.27064303 -0.58802192 90.81895649 -4.5625 90.125 C-8.97366819 87.29021553 -10.73834841 84.414133 -12.75 79.625 C-13.23855469 78.5009375 -13.72710937 77.376875 -14.23046875 76.21875 C-17.79979384 66.26755801 -17.92072324 55.76390402 -17.875 45.3125 C-17.87317719 44.65302368 -17.87135437 43.99354736 -17.86947632 43.31408691 C-17.80432425 29.32018738 -17.32854911 14.78415803 -8.15234375 3.37109375 C-5.46484215 0.74092551 -3.74903643 0.13154514 0 0 Z M-7.36328125 8.015625 C-13.39758632 18.62971209 -13.79505093 30.35378794 -13.85766602 42.22509766 C-13.86908632 43.72389237 -13.88937674 45.22264971 -13.91918945 46.72119141 C-14.17012337 59.38003643 -13.65225629 74.15858719 -5.9140625 84.81640625 C-4.45238074 86.37694857 -4.45238074 86.37694857 -1.5625 87.5 C1.61549977 87.37694577 1.61549977 87.37694577 4.0625 84.9375 C7.45870314 80.21994451 8.92434291 74.66859394 10.4375 69.125 C10.66566406 68.31675781 10.89382813 67.50851563 11.12890625 66.67578125 C15.11442457 49.36804083 14.51806972 24.73115078 5.71875 8.9375 C3.75664173 6.16183464 2.43194941 4.36052749 -0.9375 3.5625 C-4.07415367 4.23464007 -5.44607956 5.47548396 -7.36328125 8.015625 Z " fill="#593209" transform="translate(295.5625,166.875)"/>
<path d="M0 0 C4.27876075 2.45632562 4.27876075 2.45632562 6 5 C6.80664033 8.16363193 6.9590334 10.87108655 6 14 C2.11695892 18.6520355 -2.86210839 21.89743521 -7.8125 25.3125 C-8.99489258 26.13717773 -8.99489258 26.13717773 -10.20117188 26.97851562 C-12.13101938 28.32356086 -14.06396201 29.66388807 -16 31 C-20.0867377 27.69354128 -23.63401084 24.63793377 -26.4375 20.125 C-26.93121094 19.34382813 -27.42492187 18.56265625 -27.93359375 17.7578125 C-28.28550781 17.17773438 -28.63742188 16.59765625 -29 16 C-25.35524838 13.30230983 -21.68412884 10.64364154 -18 8 C-16.94683594 7.236875 -15.89367187 6.47375 -14.80859375 5.6875 C-13.77863281 4.965625 -12.74867188 4.24375 -11.6875 3.5 C-10.74261719 2.8296875 -9.79773438 2.159375 -8.82421875 1.46875 C-5.55304155 -0.23244312 -3.63847112 -0.43303281 0 0 Z " fill="#8D5F3B" transform="translate(161,221)"/>
<path d="M0 0 C3 2.0625 3 2.0625 5 5 C5.53758585 8.76310092 5.40783179 11.07708653 3.87109375 14.5546875 C1.42615609 17.74995049 -0.6360805 18.3790498 -4.4375 19.625 C-5.68015625 20.03363281 -6.9228125 20.44226563 -8.203125 20.86328125 C-22.02061856 25 -22.02061856 25 -27 25 C-27.34522127 23.52356259 -27.67537487 22.04360218 -28 20.5625 C-28.185625 19.73878906 -28.37125 18.91507813 -28.5625 18.06640625 C-29.13843384 14.02972713 -29.08069064 10.06983431 -29 6 C-25.67187978 4.98207169 -22.33681549 3.98901607 -19 3 C-18.06542969 2.71382812 -17.13085938 2.42765625 -16.16796875 2.1328125 C-10.58715849 0.4936934 -5.82058431 -0.52619122 0 0 Z " fill="#8C5E3B" transform="translate(148,187)"/>
<path d="M0 0 C3.84985156 1.57179191 5.32016847 3.13638748 7 7 C7.64777637 11.92310039 6.88849554 15.44539311 5 20 C4.53886391 22.98978344 4.24954088 25.9858089 4 29 C3.67 27.68 3.34 26.36 3 25 C2.34 25.33 1.68 25.66 1 26 C-6.44170209 26.77393702 -10.89663091 25.19821977 -17 20.875 C-19 18 -19 18 -19.00390625 15.88671875 C-17.87712783 9.95368192 -15.3477966 5.60866289 -11.3125 1.125 C-7.68609116 -0.63919889 -3.95874299 -0.53666058 0 0 Z " fill="#8B5D3A" transform="translate(99,326)"/>
<path d="M0 0 C2 1 2 1 4 3 C4.7054924 6.91227606 5.08152359 9.3398991 2.8828125 12.71484375 C-3.94667432 19.39143162 -13.97629356 21.20671814 -23.1875 21.4375 C-32.71020033 21.13031612 -40.96632651 19.03367349 -47.875 12.125 C-49.35931979 9.32128484 -49.21293182 7.12299996 -49 4 C-44.64053682 4 -44.12030391 4.33115769 -40.9375 6.9375 C-33.710163 12.80537629 -23.92896124 11.89193499 -15 11 C-8.25050698 9.14688476 -3.95734506 5.67219459 0 0 Z " fill="#F7F9B6" transform="translate(217,202)"/>
<path d="M0 0 C3 1 3 1 5 4 C5.61217303 7.93539806 5.19937796 9.65624489 3.1875 13.125 C-0.54143271 17.21930363 -5.84854559 18.44499441 -11 20 C-11.99 20.33 -12.98 20.66 -14 21 C-26.20005162 21.77745427 -37.35606503 21.17637965 -47 13 C-48.4783226 10.04335481 -48.06032783 7.25770263 -48 4 C-44.43574334 4 -43.86028134 4.67140513 -41.1875 6.875 C-34.15120081 12.26992018 -27.69215005 12.69054912 -19 12 C-11.9690764 10.81321999 -6.83721988 8.27696714 -2 3 C-1.34 2.01 -0.68 1.02 0 0 Z " fill="#F8FAB7" transform="translate(391,201)"/>
<path d="M0 0 C3.40046493 1.18965214 6.70645994 2.54199017 10 4 C8.74646681 11.06536889 6.43796251 16.71456473 3 23 C1.24503078 22.2617026 -0.50380532 21.50881758 -2.25 20.75 C-3.22453125 20.33234375 -4.1990625 19.9146875 -5.203125 19.484375 C-8.11551494 17.93869319 -9.94683166 16.57362263 -12 14 C-12.85541832 10.89494259 -12.73481602 8.12853489 -12 5 C-9.02787304 0.58252362 -5.1623321 -0.89348056 0 0 Z " fill="#8D5F3A" transform="translate(397,222)"/>
<path d="M0 0 C1.15145508 -0.03673828 1.15145508 -0.03673828 2.32617188 -0.07421875 C7.87221594 -0.10323031 7.87221594 -0.10323031 10.390625 2.02734375 C11.62963725 4.80587496 12.18079511 7.30177797 12.625 10.3125 C12.78355469 11.33214844 12.94210937 12.35179688 13.10546875 13.40234375 C13.40609735 16.09385396 13.50225098 18.67040149 13.4375 21.375 C9.02017477 18.11753112 4.69071755 14.78223011 0.4375 11.3125 C-3.72209838 7.95777747 -7.9676219 5.09789073 -12.5625 2.375 C-8.62133626 -0.25244249 -4.56417473 0.00770325 0 0 Z " fill="#F4F6B5" transform="translate(353.5625,78.625)"/>
<path d="M0 0 C6.05725902 7.69483195 11.33029457 18.039011 11 28 C8.5185269 27.55208067 6.0403355 27.09226182 3.5625 26.625 C2.50192383 26.43550781 2.50192383 26.43550781 1.41992188 26.2421875 C-0.40052 25.89377757 -2.20271648 25.452957 -4 25 C-4.33 24.34 -4.66 23.68 -5 23 C-4.56880859 21.95392578 -4.56880859 21.95392578 -4.12890625 20.88671875 C-2.70857048 17.2547875 -2.3378281 13.6591309 -1.9375 9.8125 C-1.12202043 2.24404086 -1.12202043 2.24404086 0 0 Z " fill="#926138" transform="translate(396,177)"/>
<path d="M0 0 C2.5625 0.3125 2.5625 0.3125 4.375 1.4375 C6.15249858 4.24407671 5.98074645 6.03822776 5.5625 9.3125 C3.2265625 12.015625 3.2265625 12.015625 0.1875 14.5625 C-0.81023437 15.41328125 -1.80796875 16.2640625 -2.8359375 17.140625 C-3.69445313 17.85734375 -4.55296875 18.5740625 -5.4375 19.3125 C-6.0975 19.9725 -6.7575 20.6325 -7.4375 21.3125 C-9.7475 17.6825 -12.0575 14.0525 -14.4375 10.3125 C-11.8984375 8.29427083 -9.359375 6.27604167 -6.8203125 4.2578125 C-1.90390606 0.24409052 -1.90390606 0.24409052 0 0 Z " fill="#8E5F3A" transform="translate(65.4375,182.6875)"/>
<path d="M0 0 C2.8125 1 2.8125 1 4.8125 4 C4.57112718 8.42516828 2.66235443 10.85577979 -0.125 14.1875 C-0.83527344 15.04730469 -1.54554687 15.90710938 -2.27734375 16.79296875 C-4.1875 19 -4.1875 19 -6.1875 21 C-8.8275 18.36 -11.4675 15.72 -14.1875 13 C-4.71292373 0 -4.71292373 0 0 0 Z " fill="#8D5E3A" transform="translate(99.1875,223)"/>
<path d="M0 0 C2 2 2 2 2.46875 4.7890625 C1.84511326 9.06097418 -0.30648298 10.7778154 -3.5 13.375 C-4.02464844 13.82488281 -4.54929687 14.27476562 -5.08984375 14.73828125 C-6.38020164 15.84095072 -7.68843439 16.92264253 -9 18 C-12.21965664 16.63783758 -13.81687435 15.27468847 -15.75 12.375 C-16.17796875 11.74335938 -16.6059375 11.11171875 -17.046875 10.4609375 C-17.51867187 9.73777344 -17.51867187 9.73777344 -18 9 C-15.33333333 7 -12.66666667 5 -10 3 C-8.97519531 2.16855469 -8.97519531 2.16855469 -7.9296875 1.3203125 C-5.20779087 -0.54203782 -3.21923109 -0.34991642 0 0 Z " fill="#8C5E3B" transform="translate(83,203)"/>
<path d="M0 0 C2.8125 0.625 2.8125 0.625 4.75 1.75 C6.3820733 4.63012934 5.61556618 6.47392126 4.8125 9.625 C2.96484375 12.3984375 2.96484375 12.3984375 0.75 15 C-0.35021484 16.31097656 -0.35021484 16.31097656 -1.47265625 17.6484375 C-2.03855469 18.30070312 -2.60445312 18.95296875 -3.1875 19.625 C-6.93031699 17.24320737 -10.16477468 14.88024265 -13.1875 11.625 C-12.5275 11.625 -11.8675 11.625 -11.1875 11.625 C-10.91421875 11.04234375 -10.6409375 10.4596875 -10.359375 9.859375 C-7.9310422 5.22935379 -5.30676096 1.04054136 0 0 Z " fill="#8D5F3A" transform="translate(115.1875,239.375)"/>
<path d="M0 0 C2 2 2 2 2.6875 4.75 C1.84888975 8.71433936 0.95686436 9.10992498 -2.3125 11.3125 C-4.90386865 12.90237352 -7.10621815 14.03540605 -10 15 C-11.65 12.03 -13.3 9.06 -15 6 C-10.8330007 1.35219309 -6.36545915 -2.29863803 0 0 Z " fill="#8D5F3A" transform="translate(97,362)"/>
<path d="M0 0 C1.875 1.125 1.875 1.125 3 3 C3.1875 5.75 3.1875 5.75 2 9 C-0.47474597 11.58912499 -3.16473844 13.81704236 -6 16 C-7.31611677 15.04663979 -8.62778961 14.08714226 -9.9375 13.125 C-10.66839844 12.59132813 -11.39929688 12.05765625 -12.15234375 11.5078125 C-14 10 -14 10 -15 8 C-13.45025019 6.65186813 -11.88462935 5.3219657 -10.3125 4 C-9.44238281 3.2575 -8.57226562 2.515 -7.67578125 1.75 C-4.74122003 -0.16924588 -3.42550393 -0.48015611 0 0 Z " fill="#8E5F3A" transform="translate(166,391)"/>
<path d="M0 0 C5.07632969 0.95779805 7.4469038 4.4963311 10.3125 8.625 C10.6425 9.615 10.9725 10.605 11.3125 11.625 C10.24142883 12.49449317 9.15504056 13.34514205 8.0625 14.1875 C7.45921875 14.66316406 6.8559375 15.13882813 6.234375 15.62890625 C4.3125 16.625 4.3125 16.625 2.25 16.4765625 C-1.25587438 14.93567416 -2.98245056 11.95358258 -4.6875 8.625 C-5.125 5.3125 -5.125 5.3125 -4.6875 2.625 C-2.6875 0.625 -2.6875 0.625 0 0 Z " fill="#8C5E3B" transform="translate(423.6875,240.375)"/>
<path d="M0 0 C3.17218843 3.62535821 4.42902597 7.51150278 6 12 C-0.816609 17 -0.816609 17 -5.375 17 C-8 16 -8 16 -10 13 C-10.0625 10.125 -10.0625 10.125 -9 7 C-6.45069618 4.55266833 -3.64391696 2 0 2 C0 1.34 0 0.68 0 0 Z " fill="#8E5F39" transform="translate(372,365)"/>
<path d="M0 0 C0.75861328 0.00064453 1.51722656 0.00128906 2.29882812 0.00195312 C5.55149012 0.02779069 8.20776286 0.15258762 11.3125 1.1875 C9.94266497 4.34865776 9.3234362 5.1802092 6.3125 7.1875 C3.63481136 7.46220888 1.11624719 7.60328043 -1.5625 7.625 C-2.62404297 7.67430664 -2.62404297 7.67430664 -3.70703125 7.72460938 C-7.85055176 7.76704767 -9.4809838 7.36102725 -12.6953125 4.66015625 C-13.35273438 3.84417969 -14.01015625 3.02820313 -14.6875 2.1875 C-9.63836146 0.15660644 -5.34357406 -0.08759957 0 0 Z " fill="#F6F7B4" transform="translate(368.6875,194.8125)"/>
<path d="M0 0 C0.763125 -0.00386719 1.52625 -0.00773438 2.3125 -0.01171875 C5.58851362 -0.00597136 8.24637676 0.08212559 11.375 1.125 C10.44863725 3.44090688 9.80147083 4.8423391 7.6953125 6.23828125 C2.49996414 8.22370899 -4.5149299 8.08750828 -9.80859375 6.44921875 C-11.4375 5.625 -11.4375 5.625 -13.625 4.125 C-13.625 3.135 -13.625 2.145 -13.625 1.125 C-9.06117437 -0.02050205 -4.67100119 -0.02391298 0 0 Z " fill="#F6F8B6" transform="translate(194.625,195.875)"/>
<path d="M0 0 C2.625 0.9375 2.625 0.9375 3.625 1.9375 C4.1875 4.5 4.1875 4.5 3.625 7.9375 C1.25602601 10.94323693 -1.3733606 13.56270898 -4.375 15.9375 C-5.035 15.9375 -5.695 15.9375 -6.375 15.9375 C-7.695 12.6375 -9.015 9.3375 -10.375 5.9375 C-4.23627596 -0.07844955 -4.23627596 -0.07844955 0 0 Z " fill="#8D5F3B" transform="translate(150.375,373.0625)"/>
<path d="M0 0 C0.66 0.33 1.32 0.66 2 1 C1.67 5.29 1.34 9.58 1 14 C0.67 13.34 0.34 12.68 0 12 C-2.27399754 11.39923744 -4.55130576 11.0436846 -6.87109375 10.66015625 C-9 10 -9 10 -11 7 C-11.34806512 4.21547906 -11.32671539 2.61259135 -10 0.125 C-6.75971197 -1.69766202 -3.52103585 -0.80737128 0 0 Z " fill="#8F603A" transform="translate(378,391)"/>
<path d="M0 0 C4.24954421 0.9882661 6.16562674 4.2278374 8.6875 7.625 C7.75788578 8.77724028 6.8184875 9.92159176 5.875 11.0625 C5.09189453 12.01962891 5.09189453 12.01962891 4.29296875 12.99609375 C2.6875 14.625 2.6875 14.625 -0.3125 15.625 C-5.12389983 9.66230092 -5.12389983 9.66230092 -5.8125 5.875 C-4.9906328 2.17659761 -3.62475959 0.97966475 0 0 Z " fill="#8D5F3A" transform="translate(444.3125,227.375)"/>
<path d="M0 0 C1.33917261 0.30903983 2.67653254 0.62942911 4 1 C1.81879195 8.38255034 1.81879195 8.38255034 -1 11 C-4.66803219 11.62434591 -6.3277658 11.44815613 -9.4375 9.375 C-11 7 -11 7 -10.9375 3.875 C-8.98210695 -2.12153868 -5.28460792 -1.01983662 0 0 Z " fill="#8E5F3A" transform="translate(370,414)"/>
<path d="M0 0 C2.5 0.5 2.5 0.5 4.25 2.5 C5.81343291 6.25223899 6.15713882 9.45423812 6.5 13.5 C2.87 13.5 -0.76 13.5 -4.5 13.5 C-5.85911017 3.98622881 -5.85911017 3.98622881 -4.17578125 1.70703125 C-2.5 0.5 -2.5 0.5 0 0 Z " fill="#8D5F3B" transform="translate(189.5,401.5)"/>
<path d="M0 0 C2.33944736 0.28730055 4.6739143 0.61936779 7 1 C8.32854177 6.9180497 7.66464729 9.77729131 5 15 C1.37 13.02 -2.26 11.04 -6 9 C-1.125 1.125 -1.125 1.125 0 0 Z " fill="#8C5E3A" transform="translate(133,262)"/>
<path d="M0 0 C3.94675546 1.69146662 6.0684824 4.76023629 8.625 8.125 C4.110292 11.01441312 1.16006523 12.89733468 -4.375 12.125 C-6.375 10.125 -6.375 10.125 -6.75 6.6875 C-6.375 3.125 -6.375 3.125 -4.6875 1.125 C-2.375 0.125 -2.375 0.125 0 0 Z " fill="#8D5E39" transform="translate(357.375,347.875)"/>
<path d="M0 0 C0.928125 0.20625 1.85625 0.4125 2.8125 0.625 C3.8025 3.595 4.7925 6.565 5.8125 9.625 C2.1825 10.945 -1.4475 12.265 -5.1875 13.625 C-6.11306607 10.84830178 -6.38045491 8.94803105 -6.4375 6.0625 C-6.46328125 5.27746094 -6.4890625 4.49242187 -6.515625 3.68359375 C-6.40734375 3.00425781 -6.2990625 2.32492187 -6.1875 1.625 C-3.1875 -0.375 -3.1875 -0.375 0 0 Z " fill="#8E5F3A" transform="translate(213.1875,399.375)"/>
<path d="M0 0 C4.03332053 0.86428297 5.23324751 3.2823823 7.625 6.5625 C6.51684175 9.77615891 5.63970446 10.5539224 2.625 12.3125 C-0.375 13.5625 -0.375 13.5625 -2.375 13.5625 C-4.27463186 11.00530327 -5.29748074 9.10513483 -5.75 5.9375 C-5.375 3.5625 -5.375 3.5625 -4.1875 1.75 C-2.375 0.5625 -2.375 0.5625 0 0 Z " fill="#8F5F39" transform="translate(402.375,259.4375)"/>
<path d="M0 0 C0.66 0.33 1.32 0.66 2 1 C-1.15484591 5.8308578 -4.39767099 9.40953795 -8.81640625 13.1015625 C-12.00940015 15.87758224 -14.90159337 18.92817442 -17.82421875 21.984375 C-20.61651463 24.57113384 -23.61116408 26.30558204 -27 28 C-25.39003662 24.14889442 -22.80813376 21.32821456 -20 18.3125 C-19.51523193 17.78793213 -19.03046387 17.26336426 -18.53100586 16.72290039 C-12.82525606 10.62991185 -6.74500554 4.93199722 0 0 Z " fill="#60390C" transform="translate(168,90)"/>
<path d="M0 0 C3 0.25 3 0.25 5 2.25 C5.40554798 6.81241479 4.7730518 8.8173705 3 13.25 C-0.63 11.6 -4.26 9.95 -8 8.25 C-4.22264151 0.35188679 -4.22264151 0.35188679 0 0 Z " fill="#8C5E3A" transform="translate(156,274.75)"/>
<path d="M0 0 C4.71980042 1.79352416 5.76096653 4.80708504 8.125 9.1875 C4.165 10.5075 0.205 11.8275 -3.875 13.1875 C-5.87906642 9.17936716 -6.33648376 7.52544733 -5.875 3.1875 C-4.21677697 0.33167145 -3.29933732 0.21517417 0 0 Z " fill="#8D5F3A" transform="translate(381.875,269.8125)"/>
<path d="M0 0 C2.125 0.4375 2.125 0.4375 3.125 1.4375 C3.5 4.1875 3.5 4.1875 3.125 7.4375 C0.625 10.3125 0.625 10.3125 -1.875 12.4375 C-5.78902949 11.16808503 -7.66572873 9.92582306 -9.875 6.4375 C-3.82840447 0.58258329 -3.82840447 0.58258329 0 0 Z " fill="#906039" transform="translate(103.875,376.5625)"/>
<path d="M0 0 C0.33 0 0.66 0 1 0 C1.36103152 6.3782235 1.36103152 6.3782235 -0.125 8.9375 C-2.785027 10.44484863 -5.00206205 10.19986253 -8 10 C-8.33 9.01 -8.66 8.02 -9 7 C-9.66 6.67 -10.32 6.34 -11 6 C-10.28972656 5.65066406 -9.57945313 5.30132812 -8.84765625 4.94140625 C-7.92855469 4.48636719 -7.00945312 4.03132813 -6.0625 3.5625 C-4.68771484 2.88380859 -4.68771484 2.88380859 -3.28515625 2.19140625 C-1.09471096 1.19474606 -1.09471096 1.19474606 0 0 Z " fill="#936138" transform="translate(131,376)"/>
<path d="M0 0 C0.33 0.66 0.66 1.32 1 2 C1.66 2 2.32 2 3 2 C2.74337755 3.44010481 2.46909179 4.8770687 2.1875 6.3125 C2.03667969 7.11300781 1.88585937 7.91351563 1.73046875 8.73828125 C0.91499244 11.26320524 0.08046329 12.38069734 -2 14 C-2.66 14 -3.32 14 -4 14 C-3.79503906 13.32453125 -3.59007812 12.6490625 -3.37890625 11.953125 C-3.10949219 11.06109375 -2.84007812 10.1690625 -2.5625 9.25 C-2.16224609 7.92742187 -2.16224609 7.92742187 -1.75390625 6.578125 C-1.11531506 4.39434165 -0.53224167 2.21164502 0 0 Z " fill="#643504" transform="translate(331,369)"/>
<path d="M0 0 C1.50560497 2.85410334 2.63216796 5.68124642 3.625 8.75 C3.88539063 9.54921875 4.14578125 10.3484375 4.4140625 11.171875 C4.60742188 11.77515625 4.80078125 12.3784375 5 13 C1.125 12.125 1.125 12.125 0 11 C-0.07226502 9.14712498 -0.0838122 7.29166122 -0.0625 5.4375 C-0.05347656 4.42558594 -0.04445312 3.41367187 -0.03515625 2.37109375 C-0.02355469 1.58863281 -0.01195312 0.80617188 0 0 Z " fill="#8F5E34" transform="translate(136,376)"/>
<path d="M0 0 C0.33 0 0.66 0 1 0 C1.33 3.3 1.66 6.6 2 10 C1.34 10 0.68 10 0 10 C-0.33 10.66 -0.66 11.32 -1 12 C-1.33 8.7 -1.66 5.4 -2 2 C-1.34 2 -0.68 2 0 2 C0 1.34 0 0.68 0 0 Z " fill="#623404" transform="translate(332,346)"/>
</svg>
