<?xml version="1.0" encoding="UTF-8"?>
<svg version="1.1" xmlns="http://www.w3.org/2000/svg" width="512" height="512">
<path d="M0 0 C6.42623767 1.87560047 14.16012436 -1.08614252 20.47851562 -2.73632812 C33.06780106 -5.86284566 45.72461518 -6.6629668 58.63671875 -6.59765625 C59.35233978 -6.59649811 60.06796082 -6.59533997 60.80526733 -6.59414673 C75.86350267 -6.54617122 90.39491519 -5.1975283 104.84375 -0.73828125 C112.08244567 0.52062235 117.27239314 -2.52615687 123.32421875 -5.97265625 C129.65766102 -9.44595451 135.93208306 -12.47959541 142.76171875 -14.84765625 C143.4479834 -15.08637451 144.13424805 -15.32509277 144.84130859 -15.57104492 C153.22898239 -18.36035681 163.39167794 -20.41050997 171.82421875 -16.78515625 C177.07274652 -13.68326561 179.45749397 -9.33456232 181.31030273 -3.63745117 C183.54926418 5.19109099 183.84982201 13.54102146 183.73046875 22.58203125 C183.69908006 24.97541921 183.68945557 27.36814427 183.68359375 29.76171875 C183.64592914 37.1397233 183.4402647 44.39339575 182.44921875 51.71484375 C181.85215701 58.88937249 182.7698262 64.36201201 185.27734375 71.0859375 C186.18161191 73.88615458 186.83160411 76.44047671 187.37109375 79.3125 C189.85600937 92.39466707 194.2106756 104.00723174 199.81616211 116.02099609 C207.71334731 133.08733325 210.2682805 150.06512595 204.76953125 168.21484375 C196.85110896 189.205691 180.07933365 201.03577389 160.49462891 210.02368164 C158.48365484 210.93061981 156.46948364 211.82883088 154.44921875 212.71484375 C155.18205078 214.17277344 155.18205078 214.17277344 155.9296875 215.66015625 C157.78454514 220.00307779 157.86842834 223.92117623 157.76171875 228.58984375 C157.74806274 229.79326416 157.74806274 229.79326416 157.73413086 231.02099609 C157.63646745 235.65316668 157.21566265 239.86390314 155.9453125 244.33203125 C155.24671469 247.68750105 155.20648943 251.05090566 155.07421875 254.46484375 C154.21649815 272.25421884 154.21649815 272.25421884 148.98031616 277.06417847 C148.16320663 277.80560593 148.16320663 277.80560593 147.32958984 278.56201172 C144.36843758 281.98289389 144.06947964 284.3386574 144.22387695 288.82055664 C144.42963508 291.25829519 144.66975865 293.69328863 144.9375 296.125 C145.0595293 297.45330746 145.17805265 298.78194111 145.29328918 300.1108551 C145.53760151 302.90090536 145.79677415 305.68902083 146.06500244 308.47686768 C146.6407424 314.62143581 146.98914091 320.7795505 147.36483383 326.93885422 C147.61950366 330.98242519 147.91392062 335.02323415 148.20643425 339.06421471 C148.45318451 342.49043263 148.68703427 345.91663605 148.89477539 349.34545898 C149.14150649 353.40779183 149.44029973 357.46482928 149.7421875 361.5234375 C149.84263618 363.36233803 149.84263618 363.36233803 149.94511414 365.23838806 C150.40942161 370.94216668 150.80054007 374.74884846 154.96606445 378.88305664 C155.58367142 379.3847084 156.20127838 379.88636017 156.83760071 380.4032135 C160.15246512 383.10104656 160.3798914 386.16022496 160.88671875 390.21484375 C160.44921875 393.71484375 160.44921875 393.71484375 158.26171875 396.52734375 C143.67165489 407.8751712 112.4938529 403.30663627 94.97265625 402.2265625 C90.22905854 401.2646255 88.02285734 399.49370228 85.15625 395.6015625 C82.91070464 391.27433895 82.96634968 387.31388135 83.13671875 382.52734375 C83.15992188 381.20343628 83.15992188 381.20343628 83.18359375 379.8527832 C83.24626694 376.80556032 83.34519937 373.76093096 83.44921875 370.71484375 C83.48740723 369.48991211 83.5255957 368.26498047 83.56494141 367.00292969 C83.82009374 358.90514698 84.12048324 350.80995565 84.44921875 342.71484375 C80.15921875 342.71484375 75.86921875 342.71484375 71.44921875 342.71484375 C71.02809814 344.15432373 70.60697754 345.59380371 70.1730957 347.0769043 C67.68638191 355.35706926 64.69095857 363.45125847 61.71655273 371.56616211 C60.99440722 373.54647025 60.27992613 375.52958954 59.57299805 377.51538086 C58.54283332 380.40761062 57.48899498 383.29021115 56.4296875 386.171875 C56.12008591 387.05527054 55.81048431 387.93866608 55.49150085 388.84883118 C53.40968095 394.40739135 51.40194507 397.37930006 46.44921875 400.71484375 C44.1953125 401.421875 44.1953125 401.421875 41.88671875 401.52734375 C40.93925781 401.57246094 39.99179688 401.61757813 39.015625 401.6640625 C37.83871094 401.68082031 36.66179687 401.69757813 35.44921875 401.71484375 C34.69624512 401.72854004 33.94327148 401.74223633 33.16748047 401.75634766 C-12.45666812 402.49494807 -12.45666812 402.49494807 -23.55078125 393.71484375 C-25.60227284 387.68104496 -23.83969441 382.41978639 -21.55078125 376.71484375 C-20.01315582 373.63021712 -18.32141851 370.67015197 -16.55078125 367.71484375 C-16.22078125 367.05484375 -15.89078125 366.39484375 -15.55078125 365.71484375 C-16.4221875 366.2459375 -17.29359375 366.77703125 -18.19140625 367.32421875 C-32.89659565 376.12072042 -47.03288669 380.73092203 -64.35546875 377.55859375 C-76.26111862 374.41480356 -86.4008765 367.13815741 -92.98828125 356.71484375 C-97.17113992 349.03639498 -99.86726155 341.5645169 -98.55078125 332.71484375 C-97.25243758 328.9943213 -95.3522432 326.38272871 -92.30078125 323.83984375 C-87.05624641 321.69435223 -83.23392792 321.22986929 -77.86328125 322.77734375 C-72.04629814 326.1797301 -69.75008193 329.43328788 -68.05078125 335.77734375 C-66.81715836 340.33489499 -65.48016818 342.8571078 -61.55078125 345.71484375 C-54.95302376 348.50620269 -49.27212394 348.14025545 -42.6953125 345.62109375 C-35.02946389 342.05097021 -28.85012946 337.30088341 -22.55078125 331.71484375 C-21.69484375 330.96847656 -20.83890625 330.22210938 -19.95703125 329.453125 C-18.27887154 327.96919674 -16.61701711 326.46660814 -14.97265625 324.9453125 C-13.37228957 323.47142641 -11.73650545 322.03500027 -10.06640625 320.640625 C0.09780021 311.65559935 1.04837976 297.74471164 2.88720703 284.9440918 C3.20269015 282.75323682 3.53390791 280.56516476 3.8671875 278.37695312 C5.8545621 266.81190356 5.8545621 266.81190356 4.35546875 255.33203125 C4.12923828 254.56342773 3.90300781 253.79482422 3.66992188 253.00292969 C3.43208984 252.20661133 3.19425781 251.41029297 2.94921875 250.58984375 C0.10045424 240.39821116 -1.9522531 230.39248081 3.44921875 220.71484375 C-0.99257418 218.99305482 -5.43692517 217.40911127 -9.984375 215.98828125 C-27.78423608 210.39737504 -43.07543651 203.61297578 -57.55078125 191.71484375 C-58.73027344 190.79832031 -58.73027344 190.79832031 -59.93359375 189.86328125 C-76.26963632 176.48707915 -86.44967665 154.51149132 -88.55078125 133.71484375 C-89.2054689 120.5344918 -89.62900588 107.30038946 -85.88598633 94.53588867 C-83.48348999 86.12136866 -85.68501225 78.66388953 -87.92578125 70.46484375 C-94.11185754 46.40788039 -100.00120008 14.21374222 -88.23046875 -8.875 C-85.07413876 -13.64399039 -81.00781898 -16.5876243 -75.55078125 -18.28515625 C-50.82462269 -22.77023095 -21.46254122 -11.72386632 0 0 Z " fill="#532B02" transform="translate(201.55078125,64.28515625)"/>
<path d="M0 0 C1.6953125 1.56640625 1.6953125 1.56640625 3.7578125 4.75390625 C3.7578125 5.74390625 3.7578125 6.73390625 3.7578125 7.75390625 C3.02175781 7.91246094 2.28570312 8.07101563 1.52734375 8.234375 C-2.96390326 9.30823987 -6.60252561 10.33566578 -10.4921875 12.87890625 C-12.69265098 16.4939534 -12.62788105 18.63191408 -11.87109375 22.72265625 C-11.31834476 24.87849401 -11.31834476 24.87849401 -9.7421875 26.87890625 C-3.72269791 28.98572761 3.36468989 26.50694187 9.3984375 25.15625 C11.89375572 24.73072388 14.23133771 24.68671277 16.7578125 24.75390625 C17.5973007 26.85562492 18.42920906 28.9603725 19.2578125 31.06640625 C19.721875 32.23816406 20.1859375 33.40992188 20.6640625 34.6171875 C21.7578125 37.75390625 21.7578125 37.75390625 21.7578125 40.75390625 C20.695625 40.9240625 19.6334375 41.09421875 18.5390625 41.26953125 C7.65387134 43.06254293 7.65387134 43.06254293 -2.2421875 47.75390625 C-4.58387514 51.26643771 -4.73842427 52.61859981 -4.2421875 56.75390625 C-2.96893913 59.78318733 -2.96893913 59.78318733 -0.2421875 61.75390625 C5.89346422 63.12891488 12.0776663 61.09109088 17.9609375 59.41015625 C20.67323316 58.77375168 22.98497428 58.63246808 25.7578125 58.75390625 C25.83128906 59.65882812 25.83128906 59.65882812 25.90625 60.58203125 C26.01839844 61.78085938 26.01839844 61.78085938 26.1328125 63.00390625 C26.23722656 64.18726562 26.23722656 64.18726562 26.34375 65.39453125 C26.91832361 68.66851672 27.79279031 71.00333343 30.4453125 73.06640625 C34.67772999 74.32469253 38.66716766 73.11745453 42.7578125 71.75390625 C43.4178125 67.79390625 44.0778125 63.83390625 44.7578125 59.75390625 C45.71042969 59.88410156 46.66304687 60.01429687 47.64453125 60.1484375 C55.20643145 61.20321141 55.20643145 61.20321141 62.1328125 58.75390625 C64.14020167 55.04795701 64.36281395 52.91329124 63.7578125 48.75390625 C62.90390476 46.51003895 62.90390476 46.51003895 60.7578125 44.75390625 C56.81888506 43.44692502 52.70948263 42.76059086 48.62890625 42.0390625 C42.41206207 40.68423247 42.41206207 40.68423247 40.53125 38.00976562 C39.71349191 35.92368855 39.18048218 33.95281948 38.7578125 31.75390625 C38.5309375 30.59890625 38.3040625 29.44390625 38.0703125 28.25390625 C37.9671875 27.42890625 37.8640625 26.60390625 37.7578125 25.75390625 C39.22154297 25.77130859 39.22154297 25.77130859 40.71484375 25.7890625 C41.98714844 25.79808594 43.25945312 25.80710937 44.5703125 25.81640625 C46.46716797 25.83380859 46.46716797 25.83380859 48.40234375 25.8515625 C51.75386487 25.91549741 51.75386487 25.91549741 54.7578125 24.75390625 C56.14339717 18.0646219 56.14339717 18.0646219 54.0703125 11.81640625 C46.42686605 7.05727922 37.18035799 6.39774144 28.375 5.57421875 C25.7578125 4.75390625 25.7578125 4.75390625 24.390625 2.18359375 C24.07738281 0.98089844 24.07738281 0.98089844 23.7578125 -0.24609375 C31.018073 0.26502543 37.85038143 1.52362264 44.8828125 3.37890625 C45.88473633 3.64251953 46.88666016 3.90613281 47.91894531 4.17773438 C56.6403847 6.56265568 64.67551557 9.73112664 72.7578125 13.75390625 C73.7478125 14.23601562 74.7378125 14.718125 75.7578125 15.21484375 C97.49144744 26.39037763 116.47347459 45.85253307 124.08105469 69.37988281 C125.80950701 75.44318382 127.03296154 81.64554917 128.35498047 87.80737305 C130.68979859 98.30489244 134.39773425 107.94926329 138.7578125 117.75390625 C138.14292969 117.851875 137.52804687 117.94984375 136.89453125 118.05078125 C131.89587578 118.90365142 131.89587578 118.90365142 127.70703125 121.55078125 C126.56297038 124.20613242 126.45653695 126.12159236 126.5703125 129.00390625 C126.59738281 129.8959375 126.62445313 130.78796875 126.65234375 131.70703125 C126.68714844 132.3825 126.72195313 133.05796875 126.7578125 133.75390625 C127.36367188 133.93566406 127.96953125 134.11742187 128.59375 134.3046875 C130.3515625 134.83203125 132.109375 135.359375 133.8671875 135.88671875 C134.82109375 136.17289063 135.775 136.4590625 136.7578125 136.75390625 C138.6328125 137.31640625 140.5078125 137.87890625 142.3828125 138.44140625 C143.16108398 138.6748877 143.93935547 138.90836914 144.74121094 139.14892578 C145.40668945 139.34856934 146.07216797 139.54821289 146.7578125 139.75390625 C146.78677226 142.87888688 146.80459733 146.00383315 146.8203125 149.12890625 C146.82869141 150.01835937 146.83707031 150.9078125 146.84570312 151.82421875 C146.85053711 153.10039062 146.85053711 153.10039062 146.85546875 154.40234375 C146.86332397 155.58062744 146.86332397 155.58062744 146.87133789 156.78271484 C146.7578125 158.75390625 146.7578125 158.75390625 145.7578125 160.75390625 C143.09943489 160.29818437 140.80069081 159.7725968 138.3203125 158.69140625 C135.22203935 157.55789168 133.03842602 157.41217568 129.7578125 157.75390625 C128.06587991 158.71053674 126.39474317 159.70593881 124.7578125 160.75390625 C124.80421875 159.54734375 124.850625 158.34078125 124.8984375 157.09765625 C124.93598537 155.48309789 124.97238227 153.86851247 125.0078125 152.25390625 C125.05808594 151.06667969 125.05808594 151.06667969 125.109375 149.85546875 C125.2441685 141.63306532 122.21031324 136.12635372 117.0078125 129.87890625 C113.7578125 125.9597886 113.7578125 125.9597886 113.7578125 123.75390625 C112.90058594 124.04265625 112.04335938 124.33140625 111.16015625 124.62890625 C99.8035067 128.31629641 99.8035067 128.31629641 93.7578125 127.75390625 C93.91636719 128.53507813 94.07492187 129.31625 94.23828125 130.12109375 C95.61446698 139.74404659 96.59946759 151.48489651 92.7578125 160.56640625 C87.89060223 172.5445762 89.94384564 188.76114418 92.3125 201.23828125 C92.88562605 204.47594068 92.91019012 207.4777875 92.7578125 210.75390625 C90.9676064 211.42448512 89.17559761 212.09025315 87.3828125 212.75390625 C86.38507813 213.12515625 85.38734375 213.49640625 84.359375 213.87890625 C81.7578125 214.75390625 81.7578125 214.75390625 79.7578125 214.75390625 C79.72341064 213.99883789 79.68900879 213.24376953 79.65356445 212.46582031 C79.48168143 208.97699461 79.27617908 205.49088536 79.0703125 202.00390625 C78.99006836 200.22306641 78.99006836 200.22306641 78.90820312 198.40625 C78.31277134 188.93111804 76.37934696 180.32847609 70.3828125 172.75390625 C69.5165625 172.09390625 68.6503125 171.43390625 67.7578125 170.75390625 C66.365625 169.60921875 66.365625 169.60921875 64.9453125 168.44140625 C61.07751045 166.34492063 57.00203622 166.32280992 52.6953125 166.25390625 C52.01041748 166.23545654 51.32552246 166.21700684 50.61987305 166.19799805 C45.54630321 166.25986338 42.67136104 167.6044037 38.7578125 170.75390625 C36.92480341 172.85966268 36.92480341 172.85966268 35.7578125 174.75390625 C35.3865625 173.99078125 35.0153125 173.22765625 34.6328125 172.44140625 C32.3055521 169.10566635 30.51216696 168.28020923 26.7578125 166.75390625 C19.43208082 165.86811516 11.71150898 165.56446588 5.26171875 169.5625 C-3.03320964 176.13380691 -5.3380637 186.43439362 -6.57128906 196.41821289 C-6.84114657 199.09102885 -7.08078932 201.76436276 -7.3046875 204.44140625 C-8.76724646 221.27896521 -8.76724646 221.27896521 -10.2421875 222.75390625 C-12.9296875 223.12890625 -12.9296875 223.12890625 -16.2421875 222.75390625 C-17.78197132 221.56698955 -19.31976385 220.37082777 -20.7578125 219.0625 C-25.93382691 214.49943467 -31.65648812 214.13134752 -38.2421875 213.75390625 C-36.25651042 209.78255208 -34.27083333 205.81119792 -32.28515625 201.83984375 C-31.93864014 201.14552246 -31.59212402 200.45120117 -31.23510742 199.73583984 C-30.34908319 197.9672771 -29.45259505 196.20396551 -28.5546875 194.44140625 C-23.97015332 185.05402675 -23.84992829 172.83557006 -26.2421875 162.75390625 C-28.98244747 151.00430237 -27.25974108 139.24934847 -24.2421875 127.75390625 C-25.2734375 128.24890625 -26.3046875 128.74390625 -27.3671875 129.25390625 C-35.17060446 132.20805696 -44.19094461 131.27116175 -52.2421875 129.75390625 C-57.86653554 136.4560732 -57.89304161 142.64691128 -57.8046875 151.12890625 C-57.69971561 165.76037342 -61.34374851 176.28305123 -71.1796875 187.25390625 C-74.68866908 190.60553439 -78.68434796 193.10439187 -82.8046875 195.62890625 C-83.44204834 196.02271484 -84.07940918 196.41652344 -84.73608398 196.82226562 C-88.50997212 199.04720265 -91.75754934 200.71769114 -96.2421875 200.75390625 C-99.171875 199.34765625 -99.171875 199.34765625 -102.1171875 197.25390625 C-103.15101563 196.51914062 -104.18484375 195.784375 -105.25 195.02734375 C-113.43601495 188.80768226 -113.43601495 188.80768226 -116.2421875 185.75390625 C-116.2421875 185.09390625 -116.2421875 184.43390625 -116.2421875 183.75390625 C-114.5456543 182.39697266 -114.5456543 182.39697266 -112.19140625 180.85546875 C-111.34771484 180.2934375 -110.50402344 179.73140625 -109.63476562 179.15234375 C-107.84315844 177.97777384 -106.05149256 176.80329347 -104.25976562 175.62890625 C-103.41220703 175.06429687 -102.56464844 174.4996875 -101.69140625 173.91796875 C-100.52097778 173.15154053 -100.52097778 173.15154053 -99.3269043 172.36962891 C-96.09762919 169.8668367 -94.4322861 167.87073553 -93.7421875 163.81640625 C-94.04090096 160.60237972 -94.04090096 160.60237972 -96.2421875 157.87890625 C-99.34062094 155.68418256 -101.10869379 155.13909152 -104.875 155.24169922 C-109.97351487 156.3449051 -114.06548908 159.76972724 -118.2421875 162.75390625 C-119.20769531 163.42164063 -120.17320312 164.089375 -121.16796875 164.77734375 C-123.53809275 166.42000395 -125.89496006 168.07876996 -128.2421875 169.75390625 C-131.34071982 166.86765383 -132.64992878 163.98111679 -134.3046875 160.06640625 C-134.81128906 158.88691406 -135.31789063 157.70742187 -135.83984375 156.4921875 C-137.30358914 152.59022555 -138.30757738 148.80984588 -139.2421875 144.75390625 C-138.54134033 144.55756592 -137.84049316 144.36122559 -137.1184082 144.15893555 C-133.92831945 143.26064245 -130.74152934 142.351148 -127.5546875 141.44140625 C-126.45189453 141.13267578 -125.34910156 140.82394531 -124.21289062 140.50585938 C-123.14619141 140.19970703 -122.07949219 139.89355469 -120.98046875 139.578125 C-119.51154175 139.1617981 -119.51154175 139.1617981 -118.01293945 138.73706055 C-114.79451527 137.59505736 -111.68888557 136.20060432 -109.2421875 133.75390625 C-109.00397829 131.72120063 -109.00397829 131.72120063 -108.9921875 129.37890625 C-108.95351562 128.19167969 -108.95351562 128.19167969 -108.9140625 126.98046875 C-109.31709551 124.24560192 -110.10571464 123.44441633 -112.2421875 121.75390625 C-117.13700269 119.30649865 -122.43501453 120.90390071 -127.34960938 122.53125 C-128.37924805 122.88896484 -128.37924805 122.88896484 -129.4296875 123.25390625 C-133.48909295 124.64077607 -136.88337072 125.75390625 -141.2421875 125.75390625 C-142.49385965 104.59137529 -138.18815915 85.00838944 -127.2421875 66.75390625 C-126.66960205 65.79581055 -126.66960205 65.79581055 -126.08544922 64.81835938 C-120.4376605 55.54663078 -113.94527084 47.39142028 -106.2421875 39.75390625 C-105.75991699 39.274375 -105.27764648 38.79484375 -104.78076172 38.30078125 C-97.86529614 31.51080251 -90.53102525 25.81238242 -82.2421875 20.75390625 C-80.60636719 19.73490234 -80.60636719 19.73490234 -78.9375 18.6953125 C-70.41415934 13.51868665 -61.6467347 10.00221935 -52.2421875 6.75390625 C-51.29472656 6.38523437 -50.34726563 6.0165625 -49.37109375 5.63671875 C-37.4540205 1.17430235 -11.89152197 -6.60870298 0 0 Z " fill="#FD9723" transform="translate(258.2421875,63.24609375)"/>
<path d="M0 0 C2.64 0 5.28 0 8 0 C8.06731323 0.92727905 8.06731323 0.92727905 8.13598633 1.87329102 C9.69696483 32.21157783 9.69696483 32.21157783 23.625 58.375 C29.39330441 63.25195494 34.65395674 63.53650878 42 63 C45.69584625 62.45868918 49.34703766 61.77781708 53 61 C54.36693032 71.31014462 55.34712546 81.6285748 56.125 92 C56.25624268 93.7166687 56.25624268 93.7166687 56.39013672 95.46801758 C56.83977791 101.66483314 57.09213917 107.78718743 57 114 C55.92516357 114.34780518 55.92516357 114.34780518 54.82861328 114.70263672 C51.59200544 115.75383819 48.3585045 116.81429307 45.125 117.875 C43.43310547 118.42220703 43.43310547 118.42220703 41.70703125 118.98046875 C40.63066406 119.33496094 39.55429687 119.68945312 38.4453125 120.0546875 C37.45031738 120.37937012 36.45532227 120.70405273 35.43017578 121.03857422 C32.86965037 121.86542137 32.86965037 121.86542137 31 124 C30.66666667 126.5 30.66666667 126.5 31 129 C31.66 129.66 32.32 130.32 33 131 C38.93387194 130.64214588 44.34210337 129.18781984 50 127.4375 C51.16208984 127.08655273 51.16208984 127.08655273 52.34765625 126.72851562 C54.2335214 126.15809962 56.1170209 125.57987197 58 125 C59.32229189 127.64458379 59.09677194 129.67761301 59.0625 132.625 C59.05347656 133.62789062 59.04445313 134.63078125 59.03515625 135.6640625 C59.01775391 136.82035156 59.01775391 136.82035156 59 138 C57.79601562 138.40992188 56.59203125 138.81984375 55.3515625 139.2421875 C53.77593644 139.78615364 52.20042132 140.33044118 50.625 140.875 C49.8309375 141.14441406 49.036875 141.41382813 48.21875 141.69140625 C47.45820313 141.95566406 46.69765625 142.21992188 45.9140625 142.4921875 C45.2123291 142.73308105 44.5105957 142.97397461 43.78759766 143.22216797 C41.79749359 143.95833638 41.79749359 143.95833638 40 146 C39.66666667 148.5 39.66666667 148.5 40 151 C40.66 151.66 41.32 152.32 42 153 C47.05306748 152.66312883 51.20560737 151.63445203 56 150 C57.32 150 58.64 150 60 150 C60.09410156 150.598125 60.18820312 151.19625 60.28515625 151.8125 C61.1612286 154.49337713 62.21927994 155.30290024 64.4375 157 C67.98306684 159.72394279 69.61722504 162.0861252 70.5 166.5 C70 169 70 169 67.5 171.1875 C60.02336195 175.05933042 52.93194169 175.30819594 44.67578125 175.30078125 C43.611353 175.30506638 42.54692474 175.3093515 41.45024109 175.31376648 C39.21219593 175.31948345 36.9741322 175.32002958 34.73608398 175.31567383 C31.31266848 175.31250016 27.89010662 175.33605389 24.46679688 175.36132812 C22.28645942 175.36360001 20.10611965 175.36430513 17.92578125 175.36328125 C16.39441277 175.37709587 16.39441277 175.37709587 14.83210754 175.39118958 C5.60495681 175.3309959 5.60495681 175.3309959 2 172 C-1.53974623 166.92393882 -1.34214797 162.36087709 -1.109375 156.4296875 C-1.08530579 155.51220734 -1.06123657 154.59472717 -1.03643799 153.64944458 C-0.95566589 150.72398595 -0.85276704 147.79975948 -0.75 144.875 C-0.69524495 142.93232979 -0.64184654 140.98962084 -0.58984375 139.046875 C-0.32251769 129.67188187 0.03258044 120.3328978 1 111 C0.01 111 -0.98 111 -2 111 C-2 112.32 -2 113.64 -2 115 C-6.29 115 -10.58 115 -15 115 C-14.505 113.02 -14.505 113.02 -14 111 C-14.99 111 -15.98 111 -17 111 C-17.25747765 111.88995918 -17.25747765 111.88995918 -17.52015686 112.79789734 C-19.43336426 119.30440083 -21.58630778 125.69747308 -23.87109375 132.08203125 C-24.23469498 133.09923752 -24.5982962 134.11644379 -24.97291565 135.16447449 C-25.73697628 137.29697656 -26.50261735 139.42891298 -27.26977539 141.56030273 C-28.43936946 144.81770658 -29.59563784 148.07965969 -30.75195312 151.34179688 C-31.49917983 153.42216977 -32.24719918 155.50225817 -32.99609375 157.58203125 C-33.33789169 158.55292191 -33.67968964 159.52381256 -34.03184509 160.52412415 C-38.02922216 171.51461108 -38.02922216 171.51461108 -43 174 C-44.42769832 174.09945088 -45.85987469 174.13829287 -47.29101562 174.14526367 C-48.17954224 174.15164352 -49.06806885 174.15802338 -49.98352051 174.16459656 C-50.94802124 174.16570938 -51.91252197 174.1668222 -52.90625 174.16796875 C-53.90072144 174.17129715 -54.89519287 174.17462555 -55.9197998 174.17805481 C-58.03148943 174.18312681 -60.1431871 174.18546305 -62.25488281 174.18530273 C-65.45912288 174.18747232 -68.66300917 174.20557808 -71.8671875 174.22460938 C-73.92187383 174.22754676 -75.97656179 174.22952924 -78.03125 174.23046875 C-78.97955688 174.23765427 -79.92786377 174.24483978 -80.90490723 174.25224304 C-88.67361224 174.22608535 -102.07848532 173.92151468 -108 168 C-108.74494655 158.87440472 -104.94633065 152.35106847 -100 145 C-89.69941349 147.74926686 -89.69941349 147.74926686 -85.6875 149.1875 C-82.6080495 150.11849666 -80.19763747 150.36336789 -77 150 C-74.82476853 147.25714439 -74.82476853 147.25714439 -74.78515625 144.546875 C-76.26461019 141.44525452 -77.07194627 141.26780224 -80.18359375 140.015625 C-81.92777139 139.40629368 -83.67960397 138.8185436 -85.4375 138.25 C-87.18630546 137.65135574 -88.93500834 137.0524117 -90.68359375 136.453125 C-91.46275146 136.19692383 -92.24190918 135.94072266 -93.04467773 135.67675781 C-95 135 -95 135 -97 134 C-96.34 130.04 -95.68 126.08 -95 122 C-83.34821429 124.8125 -83.34821429 124.8125 -78.125 126.6875 C-74.63858764 127.88971116 -71.72205708 128.4539094 -68 128 C-65.78103864 126.17528109 -65.78103864 126.17528109 -65.625 123.5625 C-65.74664892 120.95708847 -65.74664892 120.95708847 -67.4921875 119.5 C-70.98086855 117.41331227 -74.59329258 116.48879563 -78.5 115.4375 C-87.66567545 112.92433093 -87.66567545 112.92433093 -91 111 C-91.2043439 106.26360032 -90.4652576 102.10728405 -89.25 97.5625 C-89.07025635 96.8607666 -88.8905127 96.1590332 -88.70532227 95.43603516 C-87.83760782 92.07170568 -86.92146741 88.73053686 -85.94921875 85.39453125 C-83.51323172 76.92030611 -82.09890037 68.59809806 -81.03881836 59.85107422 C-80.34050447 54.12833211 -79.33679003 48.6099479 -78 43 C-77.46375 43.680625 -76.9275 44.36125 -76.375 45.0625 C-75.59125 46.031875 -74.8075 47.00125 -74 48 C-73.57589844 48.56589844 -73.15179688 49.13179688 -72.71484375 49.71484375 C-68.13939111 55.53930575 -62.80714047 59.10013043 -55.5625 60.8125 C-53.7990625 60.9053125 -53.7990625 60.9053125 -52 61 C-50.87658203 61.0928125 -50.87658203 61.0928125 -49.73046875 61.1875 C-40.65968386 61.64461042 -32.02038752 58.77140595 -24.96484375 53 C-10.82516313 38.60732311 -5.34762274 18.84809798 0 0 Z " fill="#FD9723" transform="translate(289,288)"/>
<path d="M0 0 C3.26879576 2.30560072 4.52715802 5.43802539 5.68359375 9.1875 C7.01165903 20.54083856 4.3461147 32.06749637 1.4765625 42.9921875 C0.2488648 47.93926494 -0.69860347 52.93432438 -1.66796875 57.9375 C-2.1552688 60.37987133 -2.67881907 62.78151066 -3.31640625 65.1875 C-6.2943396 64.76208095 -8.2417146 64.23418228 -10.81640625 62.625 C-13.59796293 61.02560491 -15.16571284 60.91744056 -18.31640625 61.1875 C-18.64640625 62.5075 -18.97640625 63.8275 -19.31640625 65.1875 C-18.08761191 65.95892672 -16.85835023 66.72960904 -15.62890625 67.5 C-14.94441406 67.92925781 -14.25992188 68.35851562 -13.5546875 68.80078125 C-11.15639635 70.28663353 -8.73562425 71.7359692 -6.31640625 73.1875 C-7.63640625 76.8175 -8.95640625 80.4475 -10.31640625 84.1875 C-12.7578125 82.625 -15.19921875 81.0625 -17.640625 79.5 C-20.48613962 78.10424392 -22.19526565 77.91756352 -25.31640625 78.1875 C-25.03727997 81.62609819 -24.66400669 82.8803044 -22.03125 85.20703125 C-21.11472656 85.79871094 -20.19820313 86.39039063 -19.25390625 87 C-18.33480469 87.60457031 -17.41570312 88.20914063 -16.46875 88.83203125 C-15.75847656 89.27933594 -15.04820312 89.72664063 -14.31640625 90.1875 C-15.67638179 96.23183574 -19.17292419 99.82244136 -23.31640625 104.1875 C-26.5716489 101.16477468 -28.93461362 97.93031699 -31.31640625 94.1875 C-33.79140625 94.6825 -33.79140625 94.6825 -36.31640625 95.1875 C-35.90908904 99.66798936 -34.07161931 102.09908217 -31.27734375 105.44140625 C-30.31640625 107.1875 -30.31640625 107.1875 -30.4609375 109.29296875 C-31.31640625 111.1875 -31.31640625 111.1875 -34.62890625 112.9375 C-40.08331759 114.77550746 -45.63295529 114.44325529 -51.31640625 114.1875 C-49.53458807 108.5875 -49.53458807 108.5875 -48.19140625 106.125 C-47.10239885 103.71362646 -47.17109116 101.80317161 -47.31640625 99.1875 C-48.96640625 99.1875 -50.61640625 99.1875 -52.31640625 99.1875 C-54.29640625 103.1475 -56.27640625 107.1075 -58.31640625 111.1875 C-62.29824799 110.19203956 -63.5904444 109.42473318 -66.56640625 106.8125 C-67.2728125 106.20664062 -67.97921875 105.60078125 -68.70703125 104.9765625 C-70.31640625 103.1875 -70.31640625 103.1875 -70.31640625 100.1875 C-67.91015625 98.36328125 -67.91015625 98.36328125 -64.81640625 96.5 C-63.285 95.56607422 -63.285 95.56607422 -61.72265625 94.61328125 C-60.92859375 94.14277344 -60.13453125 93.67226563 -59.31640625 93.1875 C-59.64640625 91.5375 -59.97640625 89.8875 -60.31640625 88.1875 C-64.86492101 88.61392326 -67.85466525 90.63684116 -71.546875 93.12890625 C-73.31640625 94.1875 -73.31640625 94.1875 -75.31640625 94.1875 C-76.30640625 90.8875 -77.29640625 87.5875 -78.31640625 84.1875 C-73.69640625 81.8775 -69.07640625 79.5675 -64.31640625 77.1875 C-64.64640625 75.8675 -64.97640625 74.5475 -65.31640625 73.1875 C-71.57822852 73.80067839 -71.57822852 73.80067839 -77.31640625 76.1875 C-78.30640625 76.1875 -79.29640625 76.1875 -80.31640625 76.1875 C-81.79472885 73.23085481 -81.37673408 70.44520263 -81.31640625 67.1875 C-77.68640625 65.5375 -74.05640625 63.8875 -70.31640625 62.1875 C-70.31640625 60.5375 -70.31640625 58.8875 -70.31640625 57.1875 C-75.86693911 57.93109673 -75.86693911 57.93109673 -81.31640625 59.1875 C-79.91608611 54.73193592 -77.88452483 52.18796335 -74.31640625 49.1875 C-68.7052907 46.44718775 -62.10623439 46.12956211 -56.10546875 47.8046875 C-50.63154394 50.1746243 -47.09787023 53.94955408 -44.31640625 59.1875 C-43.00143783 62.815969 -42.76654259 65.6733026 -44.09375 69.328125 C-45.08373474 71.3454524 -46.16846657 73.25668979 -47.31640625 75.1875 C-47.99234803 76.51615531 -48.6616173 77.84829365 -49.31640625 79.1875 C-39.01910152 70.94965622 -36.36357269 54.22398338 -34.7109375 41.8359375 C-34.32249736 38.24382771 -34.08194291 34.6693866 -33.87890625 31.0625 C-33.17782441 20.6280653 -31.42558 11.21289184 -24.31640625 3.1875 C-18.14232406 -2.19840149 -7.66068393 -2.68705271 0 0 Z " fill="#FD9622" transform="translate(287.31640625,232.8125)"/>
<path d="M0 0 C2.64 0 5.28 0 8 0 C8.06731323 0.92727905 8.06731323 0.92727905 8.13598633 1.87329102 C9.72269851 33.42663494 9.72269851 33.42663494 25.2265625 59.8359375 C29.42897181 62.59434714 33.34751787 63.29763854 38.3125 63.625 C39.38113281 63.69976562 40.44976562 63.77453125 41.55078125 63.8515625 C42.35902344 63.90054688 43.16726563 63.94953125 44 64 C43.66015625 65.91015625 43.66015625 65.91015625 43 68 C42.154375 68.474375 41.30875 68.94875 40.4375 69.4375 C39.633125 69.953125 38.82875 70.46875 38 71 C37.58320703 73.45769153 37.58320703 73.45769153 38 76 C38 81.15504657 36.42450251 82.41407371 33.03125 86.04296875 C21.96426275 96.70558531 7.48490623 97.37403713 -7.125 97.5 C-8.38715332 97.51844971 -9.64930664 97.53689941 -10.94970703 97.5559082 C-22.80817864 97.47784109 -34.19334163 95.44720293 -43 87 C-49 80.81935484 -49 80.81935484 -49 78 C-48.175 77.5875 -47.35 77.175 -46.5 76.75 C-45.675 76.1725 -44.85 75.595 -44 75 C-43.33319632 71.95720628 -43.33319632 71.95720628 -44 69 C-47.44450737 66.70366176 -49.93812283 66.45983515 -54 66 C-54 64.68 -54 63.36 -54 62 C-52.96101562 61.91363281 -51.92203125 61.82726562 -50.8515625 61.73828125 C-39.89135605 60.68843792 -31.48525841 58.45273086 -23 51 C-10.68463517 35.92129359 -5.2325498 18.44251477 0 0 Z " fill="#F8FDBB" transform="translate(289,288)"/>
<path d="M0 0 C5.25075498 1.19627292 8.15238494 3.78253834 11.3125 8.0625 C16.63385408 17.17336177 17.48500739 26.81993082 17.96655273 37.19625854 C18.09760319 40.00138024 18.25701762 42.80467729 18.41513062 45.60838318 C18.49495821 47.02495255 18.57359757 48.44158939 18.65103149 49.85829163 C19.01022451 56.39210881 19.46629688 62.91551139 20 69.4375 C20.070979 70.40139648 20.14195801 71.36529297 20.21508789 72.35839844 C20.28848389 73.22883789 20.36187988 74.09927734 20.4375 74.99609375 C20.49808594 75.75075928 20.55867188 76.5054248 20.62109375 77.28295898 C20.74613281 77.84958252 20.87117188 78.41620605 21 79 C21.99 79.495 21.99 79.495 23 80 C22.01 65.645 22.01 65.645 21 51 C31 47 31 47 35 48 C37 50 37 50 37 53 C34.525 53.495 34.525 53.495 32 54 C32 55.65 32 57.3 32 59 C33.98 59.99 35.96 60.98 38 62 C37.67 64.64 37.34 67.28 37 70 C34.69 69.67 32.38 69.34 30 69 C29.67 70.65 29.34 72.3 29 74 C30.98 74.99 32.96 75.98 35 77 C34.67 79.64 34.34 82.28 34 85 C31.525 85.495 31.525 85.495 29 86 C30.26946514 90.82442184 30.26946514 90.82442184 34 94 C33.50269348 98.97306516 32.44697666 102.63799813 30 107 C25.57142857 101.85714286 25.57142857 101.85714286 25 98 C23.35 98 21.7 98 20 98 C19.07281311 101.08136961 18.85731632 102.61671247 19.99609375 105.67578125 C20.47175781 106.54589844 20.94742188 107.41601562 21.4375 108.3125 C21.91058594 109.19550781 22.38367188 110.07851563 22.87109375 110.98828125 C23.24363281 111.65214844 23.61617188 112.31601562 24 113 C18.7335479 116.36467773 15.10655607 117.14031095 8.875 117.125 C7.29332031 117.12886719 7.29332031 117.12886719 5.6796875 117.1328125 C3 117 3 117 1 116 C2.07725675 112.94777254 3.23918297 110.66232992 5.125 108 C7.06327231 104.89876431 7.41855678 103.55773261 7 100 C4.66134169 99.58148274 4.66134169 99.58148274 2 100 C-0.12988236 102.17754128 -0.12988236 102.17754128 -1.8125 105 C-2.41707031 105.928125 -3.02164062 106.85625 -3.64453125 107.8125 C-4.31548828 108.8953125 -4.31548828 108.8953125 -5 110 C-8.02841351 107.239362 -9.79425934 104.86689454 -11.3125 101.0625 C-11.65925781 100.22847656 -12.00601562 99.39445312 -12.36328125 98.53515625 C-13.11923794 95.52524282 -13.09208844 93.90744598 -12 91 C-9.76079302 89.23911133 -7.42750856 87.99451328 -4.93359375 86.625 C-2.69848761 85.12902629 -2.69848761 85.12902629 -2.72265625 82.3125 C-2.81417969 81.549375 -2.90570313 80.78625 -3 80 C-8.07612318 79.38471234 -10.82982006 81.38341651 -15 84 C-17.60018816 80.09971775 -17.15085514 76.52565431 -17 72 C-16.36191406 71.68546875 -15.72382813 71.3709375 -15.06640625 71.046875 C-14.24011719 70.61890625 -13.41382813 70.1909375 -12.5625 69.75 C-11.73878906 69.33234375 -10.91507812 68.9146875 -10.06640625 68.484375 C-7.85039335 67.17241899 -7.85039335 67.17241899 -7.15234375 64.890625 C-7.10207031 64.26671875 -7.05179687 63.6428125 -7 63 C-7.33 62.67 -7.66 62.34 -8 62 C-11.49734228 62.38859359 -14.65788261 62.88596087 -18 64 C-18.01458252 63.29093506 -18.02916504 62.58187012 -18.04418945 61.85131836 C-18.32169892 49.7556319 -18.62742857 38.14169591 -21.3515625 26.328125 C-22.71313111 19.33983308 -23.67213297 11.23677829 -20.1875 4.75 C-14.918623 -1.87373109 -7.72273916 -0.62072121 0 0 Z " fill="#FC9622" transform="translate(318,232)"/>
<path d="M0 0 C-2.7545226 2.7545226 -6.08389691 3.84033359 -9.625 5.3125 C-14.20397114 7.2409152 -18.4857928 9.11805055 -22.5625 12 C-26 14 -26 14 -29.3125 14.125 C-33.50572832 12.84571 -37.29451578 11.06906848 -41.2578125 9.2109375 C-49.93117536 5.38082 -58.68205394 5.77902104 -68 6 C-68 6.66 -68 7.32 -68 8 C-66.80117187 7.94779297 -66.80117187 7.94779297 -65.578125 7.89453125 C-53.07400512 7.58633111 -43.13832025 10.4527657 -32 16 C-32 16.66 -32 17.32 -32 18 C-33.53703057 19.20723464 -35.13334569 20.33917977 -36.75 21.4375 C-55.77460275 35.06125644 -70.01701727 53.38639913 -79 75 C-79.66 75 -80.32 75 -81 75 C-87.29956962 57.38255953 -89.48975265 39.66143593 -89.5 21.0625 C-89.50421967 20.293685 -89.50843933 19.52487 -89.51278687 18.73275757 C-89.54081926 7.14763283 -88.95137151 -4.26807988 -82 -14 C-61.90094535 -30.25029951 -19.93767876 -9.54643093 0 0 Z " fill="#FD9622" transform="translate(201,68)"/>
<path d="M0 0 C1.45139343 2.90278687 0.42744298 4.52658205 -0.4375 7.625 C-2.67258334 16.88316633 -3.18123659 26.66305202 -1 36 C3.02421021 53.35076141 -2.25722951 67.87243551 -10.9765625 82.76171875 C-13.25162695 86.40270028 -14.78330579 88.11508387 -18.6875 89.6875 C-19.33074219 89.95949219 -19.97398437 90.23148437 -20.63671875 90.51171875 C-34.64482875 93.40595635 -58.38534317 82.29142345 -70 75 C-67.07450319 72.65812503 -63.97374109 70.79624638 -60.72070312 68.94433594 C-48.75243181 62.07058646 -39.75290304 53.79529306 -35.42456055 40.19140625 C-34.88880203 37.42604201 -34.87223023 34.80138492 -34.859375 31.984375 C-34.84003906 30.81519531 -34.82070312 29.64601562 -34.80078125 28.44140625 C-34.76714428 25.99625716 -34.74871474 23.55084779 -34.74609375 21.10546875 C-34.59837679 14.02282943 -34.12677585 8.28301686 -29 3 C-26.3125 1.9375 -26.3125 1.9375 -24 2 C-23.34 2.33 -22.68 2.66 -22 3 C-14.0496402 3.54254424 -7.23679253 3.47366042 0 0 Z " fill="#1BC3E6" transform="translate(234,190)"/>
<path d="M0 0 C3.14581302 -0.02948491 6.29158963 -0.04695916 9.4375 -0.0625 C10.31599609 -0.07087891 11.19449219 -0.07925781 12.09960938 -0.08789062 C27.7803274 -0.14575305 27.7803274 -0.14575305 31.0625 2.9375 C32 5 32 5 32 7 C33.19882812 7.05607422 33.19882812 7.05607422 34.421875 7.11328125 C55.82035856 8.39417639 55.82035856 8.39417639 62 15 C63.3899408 17.7798816 63.18488204 19.9186326 63 23 C61.79293121 26.34265205 61.07943151 26.94704566 58 29 C55.9140625 29.23046875 55.9140625 29.23046875 53.625 29.1875 C52.87476563 29.18105469 52.12453125 29.17460938 51.3515625 29.16796875 C48.8354662 28.98824759 46.46106111 28.54352056 44 28 C44.38578693 32.97155608 45.21405096 36.81852987 48 41 C51.81043958 42.96459719 55.89390573 43.72614286 60.09301758 44.44213867 C66.52697363 45.5558167 66.52697363 45.5558167 69.5625 48.40625 C71.49633799 51.89556637 71.56196287 54.06625993 71 58 C69.20437595 60.75329021 67.94745078 62.52627461 65 64 C63.37139517 63.93757961 61.74506544 63.80287069 60.125 63.625 C59.26132812 63.53476563 58.39765625 63.44453125 57.5078125 63.3515625 C55.27639355 63.03874676 53.17057242 62.59564546 51 62 C51.04125 63.2375 51.0825 64.475 51.125 65.75 C51.10766653 69.02602655 51.07599321 71.33086588 49 74 C45.94354518 76.53249114 44.44403151 77.00779003 40.4375 76.9375 C36.72267858 75.92436688 35.35059461 74.983447 33 72 C31.79727181 69.59454362 31.89928528 68.05003047 31.9375 65.375 C31.94652344 64.55773437 31.95554687 63.74046875 31.96484375 62.8984375 C31.97644531 62.27195313 31.98804688 61.64546875 32 61 C30.87722656 61.28875 29.75445312 61.5775 28.59765625 61.875 C12.10720339 66.01786723 12.10720339 66.01786723 6 65 C2.63575474 62.66660424 1.18030067 59.98163699 0.4375 55.9375 C1.18851942 52.01550972 1.97696172 50.6715222 5 48 C11.08591761 45.24794621 17.51269273 42.82521155 24.25 42.9375 C26.10625 42.9684375 26.10625 42.9684375 28 43 C27.6390625 42.01257813 27.278125 41.02515625 26.90625 40.0078125 C26.43733319 38.71360209 25.96859231 37.41932794 25.5 36.125 C25.26152344 35.47402344 25.02304687 34.82304688 24.77734375 34.15234375 C23 29.2265625 23 29.2265625 23 27 C21.77023437 27.28875 20.54046875 27.5775 19.2734375 27.875 C17.64070339 28.25034117 16.00788646 28.62532218 14.375 29 C13.56675781 29.19078125 12.75851562 29.3815625 11.92578125 29.578125 C1.05830429 32.05202219 1.05830429 32.05202219 -3.8125 29.5625 C-6.49349175 26.42190967 -7.03338419 24.25322809 -7.25390625 20.18359375 C-7 18 -7 18 -5.0625 15.125 C-0.1810741 11.73788815 4.03472472 10 10 10 C7.22268973 5.10664382 5.05128831 2.43747999 0 0 Z " fill="#8C5E3B" transform="translate(252,61)"/>
<path d="M0 0 C1.91166832 2.20050295 3.50835028 4.28651133 5.125 6.6875 C5.56714844 7.31333984 6.00929688 7.93917969 6.46484375 8.58398438 C10.89798511 14.97922607 12.22988066 19.51747863 11.9375 27.375 C11.73980693 37.57804356 13.62759673 46.75371833 16.1875 56.625 C16.93666968 59.73693559 17.37121848 61.84705344 17 65 C9.07610688 75.43820536 -6.71258115 83.22939722 -19 87 C-19.66 87 -20.32 87 -21 87 C-23.01174375 76.17490267 -24.32622466 65.52321355 -24.4375 54.5 C-24.45941406 53.53513672 -24.48132813 52.57027344 -24.50390625 51.57617188 C-24.4895065 46.30946459 -23.83533751 42.1165045 -21.98828125 37.171875 C-19.49275174 30.3198751 -19.54612317 23.97194449 -19.75 16.75 C-19.77707031 14.89955078 -19.77707031 14.89955078 -19.8046875 13.01171875 C-19.85127287 10.00696209 -19.91666453 7.00392326 -20 4 C-18.51886719 3.69255859 -18.51886719 3.69255859 -17.0078125 3.37890625 C-15.72648437 3.10949219 -14.44515625 2.84007812 -13.125 2.5625 C-11.84882813 2.29566406 -10.57265625 2.02882812 -9.2578125 1.75390625 C-1.67875648 0 -1.67875648 0 0 0 Z " fill="#1AC3E7" transform="translate(372,187)"/>
<path d="M0 0 C6.24205855 4.41511458 7.74515143 9.69358682 9.5625 16.8125 C9.73668457 17.39692871 9.91086914 17.98135742 10.09033203 18.58349609 C11.17790793 23.71770909 10.75264389 29.14968827 10.75 34.375 C10.75064453 35.67010498 10.75128906 36.96520996 10.75195312 38.29956055 C10.69581448 48.58122669 9.9819867 58.63528734 8.5625 68.8125 C5.96741758 66.45613436 4.38517161 63.9562167 2.625 60.9375 C-5.82229466 47.53162567 -17.74927889 36.72797224 -31.4375 28.8125 C-31.1075 28.1525 -30.7775 27.4925 -30.4375 26.8125 C-24.1675 26.8125 -17.8975 26.8125 -11.4375 26.8125 C-14.06734682 23.57294242 -14.06734682 23.57294242 -17.22265625 23.44921875 C-18.84494141 23.47435547 -18.84494141 23.47435547 -20.5 23.5 C-22.25376953 23.52320313 -22.25376953 23.52320313 -24.04296875 23.546875 C-27.07257234 23.7839441 -29.43933782 24.34217733 -32.3125 25.25 C-39.52798182 26.99740664 -46.32238634 22.22213913 -52.4375 18.8125 C-53.4275 18.1525 -54.4175 17.4925 -55.4375 16.8125 C-40.54358888 7.53201371 -17.8977096 -6.18284513 0 0 Z " fill="#FC9622" transform="translate(371.4375,50.1875)"/>
<path d="M0 0 C1.6296297 3.2592594 0.13661029 6.49501408 -0.6953125 9.89453125 C-0.88463348 10.6789006 -1.07395447 11.46326996 -1.26901245 12.27140808 C-1.67382607 13.93425008 -2.08264394 15.5961215 -2.49511719 17.25708008 C-3.11892526 19.78785491 -3.71611404 22.32397248 -4.3125 24.86132812 C-4.70930665 26.47696392 -5.10769446 28.09221235 -5.5078125 29.70703125 C-5.68200714 30.46240677 -5.85620178 31.21778229 -6.03567505 31.99604797 C-7.78038113 38.80107365 -11.56015593 42.42499981 -17.5625 46 C-25.59733963 50.63410274 -33.65345373 54.46077618 -43 55 C-43 51.7 -43 48.4 -43 45 C-45.39719432 44.32041397 -45.39719432 44.32041397 -48 44 C-50.39763185 46.39763185 -50.34280586 47.33273498 -50.625 50.625 C-50.69976562 51.44226563 -50.77453125 52.25953125 -50.8515625 53.1015625 C-50.90054688 53.72804688 -50.94953125 54.35453125 -51 55 C-57.625 55.125 -57.625 55.125 -61 54 C-60.79503906 53.40832031 -60.59007812 52.81664062 -60.37890625 52.20703125 C-58.13933515 46.21896561 -58.13933515 46.21896561 -57 40 C-57.95548981 38.04374022 -57.95548981 38.04374022 -60 37 C-63.12549017 36.74951364 -63.12549017 36.74951364 -66 37 C-66.268125 37.86625 -66.53625 38.7325 -66.8125 39.625 C-67.97111987 42.91791964 -69.38209839 45.91127875 -71 49 C-77.32891692 45.73964886 -82.87390326 40.43608153 -86 34 C-86 33.34 -86 32.68 -86 32 C-85.28714844 31.97421875 -84.57429688 31.9484375 -83.83984375 31.921875 C-75.39378709 31.42170475 -70.624603 29.2996824 -64 24 C-63.52949219 24.42152344 -63.05898437 24.84304688 -62.57421875 25.27734375 C-61.95160156 25.82519531 -61.32898438 26.37304688 -60.6875 26.9375 C-59.76517578 27.75541016 -59.76517578 27.75541016 -58.82421875 28.58984375 C-53.39268293 32.78852561 -44.7538688 31.3051711 -38.3125 30.5 C-36.6728125 30.2525 -36.6728125 30.2525 -35 30 C-33.02 32.64 -31.04 35.28 -29 38 C-26.525 37.505 -26.525 37.505 -24 37 C-23.12245809 34.79561167 -23.12245809 34.79561167 -23 32 C-24.83317376 28.70751892 -24.83317376 28.70751892 -27 26 C-26.34 24.68 -25.68 23.36 -25 22 C-21.40265263 23.19911579 -21.37318933 23.82183679 -19.75 27.0625 C-18.55349606 29.25964954 -18.55349606 29.25964954 -17 31 C-13.28743547 31.66923762 -13.28743547 31.66923762 -10 31 C-10.40444182 24.66374486 -12.75422307 20.38023568 -16 15 C-15.32626343 14.37170288 -15.32626343 14.37170288 -14.63891602 13.73071289 C-12.61327169 11.84149326 -10.58788262 9.9520002 -8.5625 8.0625 C-7.85544922 7.40314453 -7.14839844 6.74378906 -6.41992188 6.06445312 C-5.74638672 5.43603516 -5.07285156 4.80761719 -4.37890625 4.16015625 C-3.7557251 3.57886963 -3.13254395 2.99758301 -2.49047852 2.39868164 C-1.65000401 1.609971 -0.81500364 0.81500364 0 0 Z " fill="#FA9522" transform="translate(197,384)"/>
<path d="M0 0 C0.33 0 0.66 0 1 0 C3.06827652 7.61353757 3.23812461 14.70033991 3.125 22.5625 C3.11597656 23.76197266 3.10695313 24.96144531 3.09765625 26.19726562 C3.07427412 29.13172309 3.0415028 32.06575234 3 35 C4.15435547 34.26716797 4.15435547 34.26716797 5.33203125 33.51953125 C8.24625015 31.85974918 9.709468 31.55533351 13 32 C13.66 32.66 14.32 33.32 15 34 C14.87109375 35.953125 14.87109375 35.953125 14 38 C12.22265625 39.484375 12.22265625 39.484375 10.0625 40.75 C9.35222656 41.17796875 8.64195312 41.6059375 7.91015625 42.046875 C6 43 6 43 4 43 C4.99 48.445 4.99 48.445 6 54 C7.051875 53.34 8.10375 52.68 9.1875 52 C12.26060863 50.23592344 14.39444888 49.46977189 18 50 C19 51 19 51 19.375 53.32421875 C19 56 19 56 16.8125 58.01953125 C15.884375 58.61121094 14.95625 59.20289063 14 59.8125 C13.071875 60.41707031 12.14375 61.02164063 11.1875 61.64453125 C10.465625 62.09183594 9.74375 62.53914063 9 63 C9.42335385 69.49142565 11.91099799 74.33492989 15 80 C17.48181621 77.69545638 19.18819459 75.68431875 20.9375 72.75 C23 70 23 70 25.6875 69.5625 C28 70 28 70 29 71 C29.59062317 75.6183451 28.04733879 78.03698001 25.5 81.8125 C24.8503125 82.78832031 24.200625 83.76414062 23.53125 84.76953125 C22.77328125 85.87361328 22.77328125 85.87361328 22 87 C27.445 87.495 27.445 87.495 33 88 C33 88.33 33 88.66 33 89 C31.02 89 29.04 89 27 89 C27 89.66 27 90.32 27 91 C21.52466178 90.86311654 18.70626935 88.60538897 14.8828125 85 C0.88293669 70.12876263 -0.39303819 46.34621313 0 27 C-2.64 27 -5.28 27 -8 27 C-8.20625 28.27875 -8.4125 29.5575 -8.625 30.875 C-12.53691325 50.08140743 -20.63949002 72.71799334 -37.5625 84 C-43.12148224 87.27225409 -47.47654658 89 -54 89 C-54 88.34 -54 87.68 -54 87 C-55.65 87 -57.3 87 -59 87 C-59 86.67 -59 86.34 -59 86 C-58.11957031 85.87882812 -57.23914063 85.75765625 -56.33203125 85.6328125 C-55.17058594 85.46523438 -54.00914062 85.29765625 -52.8125 85.125 C-51.66394531 84.96257812 -50.51539063 84.80015625 -49.33203125 84.6328125 C-46.31275375 84.05939755 -43.79424152 83.25240957 -41 82 C-41.77513922 77.96206548 -43.69839717 75.31055428 -46.0390625 72 C-47 70 -47 70 -46.6484375 67.75 C-46.43445313 67.1725 -46.22046875 66.595 -46 66 C-43.525 65.505 -43.525 65.505 -41 65 C-38.33333333 68.33333333 -35.66666667 71.66666667 -33 75 C-29.15383526 70.91193811 -26.36410449 67.59282842 -25 62 C-26.06541016 61.32904297 -26.06541016 61.32904297 -27.15234375 60.64453125 C-28.53099609 59.73767578 -28.53099609 59.73767578 -29.9375 58.8125 C-30.85402344 58.22082031 -31.77054687 57.62914062 -32.71484375 57.01953125 C-35 55 -35 55 -35.87890625 52.32421875 C-35.91886719 51.55722656 -35.95882813 50.79023438 -36 50 C-35.67 49.67 -35.34 49.34 -35 49 C-28.78257655 49.24869694 -25.70968708 51.25147355 -21 55 C-19.68 52.03 -18.36 49.06 -17 46 C-20.24718093 43.4293151 -23.69104763 41.40373389 -27.29296875 39.37890625 C-29 38 -29 38 -29.86328125 35.96484375 C-29.90839844 35.31644531 -29.95351563 34.66804688 -30 34 C-29.34 33.34 -28.68 32.68 -28 32 C-22.22333696 32.23106652 -17.93882266 34.24195617 -13 37 C-12.81630859 35.62134766 -12.81630859 35.62134766 -12.62890625 34.21484375 C-11.87987125 28.97159877 -10.89644306 23.77061123 -9.9375 18.5625 C-9.75123047 17.54478516 -9.56496094 16.52707031 -9.37304688 15.47851562 C-8.91657068 12.98545332 -8.45885727 10.49262496 -8 8 C-7.505 8.99 -7.505 8.99 -7 10 C-6.34 10 -5.68 10 -5 10 C-4.34 7.36 -3.68 4.72 -3 2 C-2.34 2.66 -1.68 3.32 -1 4 C-0.67 2.68 -0.34 1.36 0 0 Z " fill="#5C3408" transform="translate(297,261)"/>
<path d="M0 0 C1.91166832 2.20050295 3.50835028 4.28651133 5.125 6.6875 C5.56714844 7.31333984 6.00929688 7.93917969 6.46484375 8.58398438 C9.80345385 13.40025725 12.29135653 17.60762494 12.25 23.625 C12.25773437 24.75808594 12.25773437 24.75808594 12.265625 25.9140625 C12 28 12 28 10 31 C0.19143645 34.05512635 -9.17865987 33.80609718 -19 31 C-19.33 22.09 -19.66 13.18 -20 4 C-14.62890625 2.87695312 -14.62890625 2.87695312 -9.2578125 1.75390625 C-1.67875648 0 -1.67875648 0 0 0 Z " fill="#1BCEF8" transform="translate(372,187)"/>
<path d="M0 0 C0.9796875 0.00322266 1.959375 0.00644531 2.96875 0.00976562 C3.98453125 0.01814453 5.0003125 0.02652344 6.046875 0.03515625 C7.59375 0.04192383 7.59375 0.04192383 9.171875 0.04882812 C11.71360073 0.06059537 14.25520819 0.07703614 16.796875 0.09765625 C17.291875 1.08765625 17.291875 1.08765625 17.796875 2.09765625 C17.33667969 2.93554688 16.87648437 3.7734375 16.40234375 4.63671875 C14.37174704 9.01411215 14.24233985 12.70871564 14.109375 17.47265625 C14.07521484 18.30410156 14.04105469 19.13554687 14.00585938 19.9921875 C13.92400354 22.02688976 13.85874799 24.06224833 13.796875 26.09765625 C-9.18368591 26.94704043 -9.18368591 26.94704043 -16.87109375 20.75390625 C-18.265625 19.41015625 -18.265625 19.41015625 -20.203125 17.09765625 C-20.533125 16.76765625 -20.863125 16.43765625 -21.203125 16.09765625 C-21.578125 13.34765625 -21.578125 13.34765625 -21.203125 10.09765625 C-15.80631032 3.22898302 -8.6078002 -0.05004535 0 0 Z " fill="#F9FDBA" transform="translate(186.203125,192.90234375)"/>
<path d="M0 0 C0 0.66 0 1.32 0 2 C-1.53703057 3.20723464 -3.13334569 4.33917977 -4.75 5.4375 C-14.00431324 12.01701819 -22.73981081 19.41751743 -29 29 C-32 28 -32 28 -33.09765625 26.1796875 C-33.41605469 25.41914062 -33.73445312 24.65859375 -34.0625 23.875 C-34.38347656 23.12992188 -34.70445312 22.38484375 -35.03515625 21.6171875 C-37.21467173 15.70514146 -38.25782634 10.63547739 -38.1875 4.3125 C-38.18105469 3.02988281 -38.17460937 1.74726562 -38.16796875 0.42578125 C-37.90986065 -4.83842355 -37.90986065 -4.83842355 -37 -7 C-24.57382234 -11.14205922 -11.06463931 -5.51053887 0 0 Z " fill="#F8FBB9" transform="translate(169,84)"/>
<path d="M0 0 C3.2533348 1.76135961 5.38549431 3.69367327 6.52734375 7.24609375 C7.26984375 6.29734375 8.01234375 5.34859375 8.77734375 4.37109375 C10.79003201 1.79932542 12.43488178 0.3677664 15.52734375 -0.75390625 C24.12635213 -1.74098889 32.1645491 -1.92242366 39.47265625 3.26953125 C47.81885322 11.29838233 50.3519457 21.86206698 50.5859375 33.046875 C50.58933321 35.44764137 50.57244332 37.84579437 50.52734375 40.24609375 C49.86734375 40.24609375 49.20734375 40.24609375 48.52734375 40.24609375 C48.03234375 41.23609375 48.03234375 41.23609375 47.52734375 42.24609375 C47.5015625 41.24191406 47.47578125 40.23773438 47.44921875 39.203125 C47.04713949 28.33229104 46.26059501 15.62378261 38.52734375 7.24609375 C32.79725089 2.52806924 26.0889721 2.74001375 19.015625 2.6171875 C14.67611376 3.39956299 13.23410065 4.8362831 10.52734375 8.24609375 C9.48620472 11.36951084 9.43987606 13.44914015 9.5 16.71875 C9.51224609 17.78287109 9.52449219 18.84699219 9.53710938 19.94335938 C9.57232783 22.19081873 9.61140401 24.43822088 9.65429688 26.68554688 C9.66525391 27.74837891 9.67621094 28.81121094 9.6875 29.90625 C9.70433838 30.88215088 9.72117676 31.85805176 9.73852539 32.86352539 C9.52734375 35.24609375 9.52734375 35.24609375 7.52734375 37.24609375 C7.19734375 36.58609375 6.86734375 35.92609375 6.52734375 35.24609375 C5.53734375 38.21609375 5.53734375 38.21609375 4.52734375 41.24609375 C3.86734375 41.24609375 3.20734375 41.24609375 2.52734375 41.24609375 C2.67171875 40.158125 2.81609375 39.07015625 2.96484375 37.94921875 C5.837534 21.57115792 5.837534 21.57115792 1.52734375 6.24609375 C1.52734375 5.58609375 1.52734375 4.92609375 1.52734375 4.24609375 C-5.00856546 2.23250556 -13.50098385 2.0161952 -20.05859375 4.046875 C-25.35460496 6.99924906 -28.42655506 11.6232808 -30.47265625 17.24609375 C-32.14594749 23.94076548 -32.8751183 30.63222962 -33.41015625 37.49609375 C-34.7773845 52.97044577 -36.98298443 70.05539406 -47.47265625 82.24609375 C-48.13265625 82.24609375 -48.79265625 82.24609375 -49.47265625 82.24609375 C-48.85726561 79.28698133 -47.87934111 77.08817581 -46.34765625 74.49609375 C-44.51479689 70.85732884 -43.94078396 68.27247734 -44.74609375 64.26171875 C-46.52378397 59.330062 -49.31082317 55.49953443 -53.87109375 52.85546875 C-56.04892883 51.87990856 -58.21262071 51.00948353 -60.47265625 50.24609375 C-60.14265625 49.25609375 -59.81265625 48.26609375 -59.47265625 47.24609375 C-53.95606794 48.82226184 -49.55034201 51.16840799 -45.47265625 55.24609375 C-42.38917799 55.41290484 -42.38917799 55.41290484 -39.47265625 55.24609375 C-38.41359948 49.17341715 -37.52121666 43.13000622 -37 36.98828125 C-36.92185059 36.07199951 -36.84370117 35.15571777 -36.76318359 34.21166992 C-36.61406346 32.39492686 -36.47466057 30.57735327 -36.34619141 28.7590332 C-35.59235578 19.5913915 -32.80377191 9.99008213 -25.69921875 3.66796875 C-18.47351518 -1.63697818 -8.60346732 -2.62317408 0 0 Z " fill="#5F3405" transform="translate(287.47265625,229.75390625)"/>
<path d="M0 0 C0.53625 0.680625 1.0725 1.36125 1.625 2.0625 C2.40875 3.031875 3.1925 4.00125 4 5 C4.42410156 5.56589844 4.84820312 6.13179688 5.28515625 6.71484375 C9.86582108 12.54594076 15.58972139 16.708223 23.0625 17.8125 C24.5165625 17.9053125 24.5165625 17.9053125 26 18 C25.34 18.33 24.68 18.66 24 19 C24 20.32 24 21.64 24 23 C25.60875 22.9071875 25.60875 22.9071875 27.25 22.8125 C31 23 31 23 33.4375 24.125 C35 26 35 26 35.4375 29 C34.95239413 32.32644023 34.60551311 33.02388002 32 35 C29.93701172 35.32373047 29.93701172 35.32373047 27.5546875 35.2421875 C26.66749023 35.21479492 25.78029297 35.18740234 24.86621094 35.15917969 C19.94434356 34.88583578 15.03612943 34.55122496 10.125 34.125 C9.10664063 34.04636719 8.08828125 33.96773438 7.0390625 33.88671875 C6.059375 33.80292969 5.0796875 33.71914063 4.0703125 33.6328125 C3.19133301 33.55949707 2.31235352 33.48618164 1.40673828 33.41064453 C-1.06603588 32.98873277 -2.83196037 32.2371726 -5 31 C-4.54818719 27.51995488 -4.0873396 24.04116096 -3.625 20.5625 C-3.49867188 19.58861328 -3.37234375 18.61472656 -3.2421875 17.61132812 C-2.44475191 11.65049708 -1.39170855 5.8512268 0 0 Z " fill="#8E613C" transform="translate(211,331)"/>
<path d="M0 0 C0.33 0 0.66 0 1 0 C1 2.97 1 5.94 1 9 C2.36253906 8.566875 3.72507812 8.13375 5.12890625 7.6875 C6.93994359 7.12448321 8.75115059 6.56201198 10.5625 6 C11.45775391 5.71382812 12.35300781 5.42765625 13.27539062 5.1328125 C24.94913564 1.54089096 24.94913564 1.54089096 30.875 4.375 C33 6 33 6 34 8 C34.23828125 10.0234375 34.23828125 10.0234375 34.3125 12.375 C34.36857422 13.53128906 34.36857422 13.53128906 34.42578125 14.7109375 C33.82530338 17.93919467 32.56839891 18.99715913 30 21 C27.15234375 22.16015625 27.15234375 22.16015625 23.9375 23.0625 C22.22240234 23.55169922 22.22240234 23.55169922 20.47265625 24.05078125 C19.32667969 24.36402344 18.18070313 24.67726562 17 25 C15.94683594 25.30292969 14.89367187 25.60585937 13.80859375 25.91796875 C6.467723 28 6.467723 28 3 28 C0.12607723 18.61185227 -0.12219367 9.78907103 0 0 Z " fill="#8C5E3A" transform="translate(116,180)"/>
<path d="M0 0 C2.9375 2.4375 2.9375 2.4375 5 5 C5.495 5.495 5.495 5.495 6 6 C6.54088942 9.8763742 6.30796754 11.55446949 4.05859375 14.80859375 C0.54407375 18.8258125 -3.84771992 21.52064178 -8.3125 24.375 C-9.14845703 24.92027344 -9.98441406 25.46554688 -10.84570312 26.02734375 C-12.89175488 27.36020032 -14.94305605 28.68404114 -17 30 C-22.6249793 25.61251614 -26.30620592 21.08867157 -30 15 C-26.52140084 12.46913064 -23.01407737 9.98131417 -19.5 7.5 C-18.51773438 6.78457031 -17.53546875 6.06914062 -16.5234375 5.33203125 C-10.80265581 1.32748406 -7.05547807 -1.2647362 0 0 Z " fill="#8D5F3B" transform="translate(159,218)"/>
<path d="M0 0 C5.77721556 3.16111795 7.2844282 7.302246 9.43359375 13.37890625 C10.02681931 16.12410868 10.0904328 17.43556507 9 20 C3.94375504 24.72648985 0.59316266 26.05212754 -6.1875 26.5625 C-7.81751953 26.68818359 -7.81751953 26.68818359 -9.48046875 26.81640625 C-10.31191406 26.87699219 -11.14335938 26.93757813 -12 27 C-16.94717668 14.98542805 -16.94717668 14.98542805 -16 8 C-12.10005304 0.73802979 -7.94523718 -1.25164695 0 0 Z " fill="#8A5D3A" transform="translate(122,390)"/>
<path d="M0 0 C1.60597325 0.45196245 3.20972508 0.91182327 4.8125 1.375 C6.15248047 1.75785156 6.15248047 1.75785156 7.51953125 2.1484375 C10 3 10 3 13 5 C15.5606467 5.76679475 18.09863308 6.47234447 20.6875 7.125 C21.38939453 7.30675781 22.09128906 7.48851562 22.81445312 7.67578125 C24.54166268 8.12227079 26.27066456 8.5618166 28 9 C28.02895976 12.12498063 28.04678483 15.2499269 28.0625 18.375 C28.07087891 19.26445312 28.07925781 20.15390625 28.08789062 21.0703125 C28.09272461 22.34648437 28.09272461 22.34648437 28.09765625 23.6484375 C28.10551147 24.82672119 28.10551147 24.82672119 28.11352539 26.02880859 C28 28 28 28 27 30 C24.34162239 29.54427812 22.04287831 29.01869055 19.5625 27.9375 C16.46422685 26.80398543 14.28061352 26.65826943 11 27 C9.30806741 27.95663049 7.63693067 28.95203256 6 30 C6.06960938 28.19015625 6.06960938 28.19015625 6.140625 26.34375 C6.17817287 24.72919164 6.21456977 23.11460622 6.25 21.5 C6.28351563 20.70851562 6.31703125 19.91703125 6.3515625 19.1015625 C6.45051834 13.06525647 5.02993315 9.15673995 2 4 C1.32495948 2.67088657 0.65601931 1.33860408 0 0 Z " fill="#FC9725" transform="translate(377,194)"/>
<path d="M0 0 C2.625 0.9375 2.625 0.9375 4.4375 3.75 C7.29220688 7.90971574 9.76910002 9.61520108 14.625 10.9375 C24.03367209 11.91345783 31.66873507 11.24167662 39.625 5.9375 C42.58576291 6.29638035 43.47158021 6.78408021 45.625 8.9375 C45.6875 11.3125 45.6875 11.3125 44.625 13.9375 C42.23211606 15.63245946 40.26641381 16.77348713 37.625 17.9375 C36.95082031 18.23914063 36.27664063 18.54078125 35.58203125 18.8515625 C26.93810994 22.22095988 17.6756271 21.97011024 8.9453125 18.98046875 C2.75058698 16.19597091 -2.353182 12.1125194 -5.375 5.9375 C-5.25 3.125 -5.25 3.125 -4.375 0.9375 C-2.375 -0.0625 -2.375 -0.0625 0 0 Z " fill="#532C02" transform="translate(330.375,170.0625)"/>
<path d="M0 0 C2.3125 0.5 2.3125 0.5 4.3125 2.5 C3.82213837 8.34587979 0.63349531 11.80480401 -3.6875 15.5 C-12.73840075 21.06978507 -22.51485463 22.18768126 -32.80859375 19.765625 C-38.38074984 17.92084062 -42.48757508 15.58641344 -46.6875 11.5 C-45.8125 6.625 -45.8125 6.625 -44.6875 5.5 C-39.87256538 4.8121522 -37.51038734 6.75749387 -33.6875 9.5 C-27.08808784 11.69980405 -17.47317571 11.84039894 -11.0625 8.875 C-8.49617082 7.33409392 -6.82620492 5.60675375 -5 3.25 C-2.6875 0.5 -2.6875 0.5 0 0 Z " fill="#502C04" transform="translate(241.6875,173.5)"/>
<path d="M0 0 C0.495 0.99 0.495 0.99 1 2 C-0.4540625 2.58394531 -0.4540625 2.58394531 -1.9375 3.1796875 C-18.32609613 9.94117054 -31.98475485 19.00256483 -45 31 C-45.83144531 31.74894531 -46.66289062 32.49789062 -47.51953125 33.26953125 C-56.7121211 41.94694969 -63.57743729 52.63849254 -69.4296875 63.76953125 C-71 66 -71 66 -73.1953125 66.82421875 C-73.79085937 66.88222656 -74.38640625 66.94023437 -75 67 C-67.54777089 47.67940601 -53.14435562 31.57302847 -37 19 C-36.10796875 18.25492188 -35.2159375 17.50984375 -34.296875 16.7421875 C-32 15 -32 15 -30 15 C-30 14.34 -30 13.68 -30 13 C-30.556875 12.81824219 -31.11375 12.63648437 -31.6875 12.44921875 C-36.17467265 10.97118046 -40.60134555 9.42298416 -44.98046875 7.6484375 C-49.9084124 6.06615772 -54.73351102 5.88503583 -59.875 5.9375 C-61.02742187 5.94652344 -62.17984375 5.95554687 -63.3671875 5.96484375 C-64.23601562 5.97644531 -65.10484375 5.98804687 -66 6 C-66 4.68 -66 3.36 -66 2 C-53.0263941 1.52727752 -43.23551325 3.07785225 -31.5078125 9.01171875 C-28.63307346 10.14459878 -27.06229437 10.44925876 -24 10 C-21.59875848 8.80505594 -19.39377553 7.59256597 -17.125 6.1875 C-4.48365123 -1.49455041 -4.48365123 -1.49455041 0 0 Z " fill="#5C3306" transform="translate(199,71)"/>
<path d="M0 0 C2.48634262 0.98681113 4.94472504 2.01488631 7.390625 3.09765625 C5.44436381 14.06749206 1.14158647 22.10098707 -6.609375 30.09765625 C-8.87119088 26.23626788 -9.72781693 22.098444 -10.734375 17.78515625 C-11.00701172 16.68397461 -11.00701172 16.68397461 -11.28515625 15.56054688 C-12.36115155 11.0017247 -12.94461851 6.81501133 -12.609375 2.09765625 C-9.10432014 -2.08144762 -4.85766345 -1.67982074 0 0 Z " fill="#8C5F3B" transform="translate(396.609375,220.90234375)"/>
<path d="M0 0 C5.95406376 4.43145967 9.95301041 9.60080539 13.984375 15.7734375 C14.58765625 16.69564087 14.58765625 16.69564087 15.203125 17.63647461 C18.046875 22.14547804 18.046875 22.14547804 18.046875 25.5234375 C16.726875 25.5234375 15.406875 25.5234375 14.046875 25.5234375 C12.37109375 23.1796875 12.37109375 23.1796875 10.734375 20.0234375 C5.51938832 10.64309069 0.44469421 4.17445169 -9.953125 0.5234375 C-17.01994402 -0.57313786 -21.75010471 2.27406726 -27.3671875 6.21875 C-34.532234 11.6979032 -40.66226478 18.07146244 -46.0234375 25.32421875 C-46.66023438 26.04996094 -47.29703125 26.77570313 -47.953125 27.5234375 C-48.943125 27.5234375 -49.933125 27.5234375 -50.953125 27.5234375 C-49.36783875 17.90163071 -37.63551614 7.91435391 -30.078125 2.44140625 C-20.43366636 -3.85570704 -10.39998162 -6.67516551 0 0 Z " fill="#582E02" transform="translate(309.953125,186.4765625)"/>
<path d="M0 0 C6.00723032 1.40168707 10.23880369 3.15527647 14.02734375 8.16796875 C15 10 15 10 15.1875 13.125 C13.31772456 17.65182475 10.94951479 20.05896063 6.515625 22.19921875 C-0.28486842 25 -0.28486842 25 -3 25 C-5.20401338 7.64339465 -5.20401338 7.64339465 0 0 Z " fill="#1BCEF8" transform="translate(204,194)"/>
<path d="M0 0 C0.93972656 0.6496875 0.93972656 0.6496875 1.8984375 1.3125 C6.73589301 3.94446572 11.95317414 5.2297439 17.2265625 6.75 C18.0515625 6.9975 18.8765625 7.245 19.7265625 7.5 C20.47502441 7.7165625 21.22348633 7.933125 21.99462891 8.15625 C24.26149693 9.11002354 25.46389231 10.0895668 27 12 C27.375 14.5 27.375 14.5 27 17 C25.70703125 18.65625 25.70703125 18.65625 24 20 C17.90939471 20 12.3082674 18.38402201 6.5 16.6875 C5.78110596 16.48705078 5.06221191 16.28660156 4.3215332 16.08007812 C-0.70664902 14.5253548 -0.70664902 14.5253548 -2.02734375 12.16015625 C-1.99466689 9.57868469 -1.62628996 7.27047277 -1.0625 4.75 C-0.86785156 3.85796875 -0.67320312 2.9659375 -0.47265625 2.046875 C-0.31667969 1.37140625 -0.16070312 0.6959375 0 0 Z " fill="#8E5F3A" transform="translate(197,397)"/>
<path d="M0 0 C1.17051429 2.34102859 1.1992246 3.89352953 1.25 6.5 C1.27578125 7.2940625 1.3015625 8.088125 1.328125 8.90625 C1.21984375 9.5971875 1.1115625 10.288125 1 11 C-2.65763696 13.43842464 -6.18636085 14.40803052 -10.375 15.625 C-11.50808594 15.96917969 -11.50808594 15.96917969 -12.6640625 16.3203125 C-16.5022869 17.44762316 -19.95783482 18.43390474 -24 18 C-25.8125 16.8125 -25.8125 16.8125 -27 15 C-27.5 12.5625 -27.5 12.5625 -27 10 C-22.80430127 5.74484804 -17.94741548 4.40483854 -12.375 2.75 C-11.51648438 2.481875 -10.65796875 2.21375 -9.7734375 1.9375 C-3.44690689 0 -3.44690689 0 0 0 Z " fill="#8D5F3A" transform="translate(346,402)"/>
<path d="M0 0 C3.98608496 7.12138499 6.31444194 14.02443261 8 22 C5.60144902 21.57459662 3.20690259 21.1351976 0.8125 20.6875 C0.13896484 20.56955078 -0.53457031 20.45160156 -1.22851562 20.33007812 C-5.3641694 19.54329521 -8.63423629 18.56710792 -12 16 C-13.20190901 12.39427296 -13.32670315 9.7897565 -13 6 C-9.18395402 0.14872949 -6.78763028 -0.12569686 0 0 Z " fill="#8D5F3A" transform="translate(397,181)"/>
<path d="M0 0 C0.53625 0.680625 1.0725 1.36125 1.625 2.0625 C2.40875 3.031875 3.1925 4.00125 4 5 C4.42410156 5.56589844 4.84820312 6.13179688 5.28515625 6.71484375 C9.86582108 12.54594076 15.58972139 16.708223 23.0625 17.8125 C24.5165625 17.9053125 24.5165625 17.9053125 26 18 C25.34 18.33 24.68 18.66 24 19 C24 20.32 24 21.64 24 23 C14.84435229 23.34915606 6.04039783 22.27041977 -3 21 C-2.69073032 18.24960167 -2.3777116 15.49971822 -2.0625 12.75 C-1.97548828 11.97269531 -1.88847656 11.19539063 -1.79882812 10.39453125 C-1.71181641 9.64042969 -1.62480469 8.88632812 -1.53515625 8.109375 C-1.456604 7.41811523 -1.37805176 6.72685547 -1.29711914 6.01464844 C-0.99455017 3.96304687 -0.53587616 2.00217465 0 0 Z " fill="#F79423" transform="translate(211,331)"/>
<path d="M0 0 C5.37539026 1.5391573 10.71143831 3.18358515 16 5 C16.9075 5.309375 17.815 5.61875 18.75 5.9375 C21 7 21 7 23 10 C22.6758631 13.32240324 22.39223697 14.60776303 20 17 C11.77966735 16.86299446 4.58327049 13.92328066 -3 11 C-2.69217504 9.35328588 -2.37860766 7.70764424 -2.0625 6.0625 C-1.88847656 5.14597656 -1.71445313 4.22945313 -1.53515625 3.28515625 C-1 1 -1 1 0 0 Z " fill="#8D5F3B" transform="translate(192,422)"/>
<path d="M0 0 C1 3 1 3 0.06640625 5.34765625 C-6.58564579 17.35590604 -14.19977249 28.16288522 -27.9375 32.4375 C-31 33 -31 33 -35 33 C-35 32.34 -35 31.68 -35 31 C-36.65 31 -38.3 31 -40 31 C-40 30.67 -40 30.34 -40 30 C-39.11957031 29.87882812 -38.23914063 29.75765625 -37.33203125 29.6328125 C-35.58986328 29.38144531 -35.58986328 29.38144531 -33.8125 29.125 C-32.66394531 28.96257812 -31.51539063 28.80015625 -30.33203125 28.6328125 C-27.31275375 28.05939755 -24.79424152 27.25240957 -22 26 C-22.77513922 21.96206548 -24.69839717 19.31055428 -27.0390625 16 C-28 14 -28 14 -27.6484375 11.75 C-27.43445313 11.1725 -27.22046875 10.595 -27 10 C-25.35 9.67 -23.7 9.34 -22 9 C-18 14 -18 14 -14 19 C-9.73732269 14.33135342 -6.4265522 9.63048007 -3.296875 4.13671875 C-2 2 -2 2 0 0 Z " fill="#5B3307" transform="translate(278,317)"/>
<path d="M0 0 C6.6 0 13.2 0 20 0 C22.48903469 5.80774762 23.4043718 8.4918077 23.6875 14.4375 C23.75324219 15.67371094 23.81898438 16.90992188 23.88671875 18.18359375 C23.92410156 19.11300781 23.96148437 20.04242188 24 21 C23.113125 20.21625 22.22625 19.4325 21.3125 18.625 C17.75215444 15.57431536 14.0833096 12.67956056 10.375 9.8125 C9.82497314 9.38469238 9.27494629 8.95688477 8.70825195 8.51611328 C5.5838024 6.11529471 2.42234289 3.95289827 -1 2 C-0.67 1.34 -0.34 0.68 0 0 Z " fill="#F6F9B7" transform="translate(341,77)"/>
<path d="M0 0 C0.36314325 2.74908445 0.71580841 5.49883451 1.0625 8.25 C1.16626953 9.02730469 1.27003906 9.80460937 1.37695312 10.60546875 C1.51713867 11.73662109 1.51713867 11.73662109 1.66015625 12.890625 C1.74918213 13.58188477 1.83820801 14.27314453 1.92993164 14.98535156 C2.00606235 17.17430848 1.6249336 18.91005813 1 21 C1 20.01 1 19.02 1 18 C0.02417969 18.03480469 -0.95164062 18.06960938 -1.95703125 18.10546875 C-3.86548828 18.14607422 -3.86548828 18.14607422 -5.8125 18.1875 C-7.70935547 18.23970703 -7.70935547 18.23970703 -9.64453125 18.29296875 C-13 18 -13 18 -14.921875 16.64453125 C-16.48683812 14.25739547 -16.48810985 12.78919912 -16 10 C-13.95575462 8.02389614 -12.8823175 7 -10 7 C-9.67 5.68 -9.34 4.36 -9 3 C-9.66 2.67 -10.32 2.34 -11 2 C-9.5422647 1.664061 -8.08378894 1.33133376 -6.625 1 C-5.81289063 0.814375 -5.00078125 0.62875 -4.1640625 0.4375 C-2 0 -2 0 0 0 Z " fill="#8E603B" transform="translate(342,349)"/>
<path d="M0 0 C0.98248524 4.0527516 1.08159574 7.83861737 1 12 C-1.05962852 12.67548578 -3.12284322 13.34004312 -5.1875 14 C-6.33605469 14.37125 -7.48460937 14.7425 -8.66796875 15.125 C-11.66481586 15.91197978 -13.93297596 16.27931826 -17 16 C-18.8125 14.8125 -18.8125 14.8125 -20 13 C-20.40164147 10.32239017 -20.53804393 8.76206221 -18.94921875 6.51171875 C-16.08737601 4.29221346 -12.84827923 3.38058697 -9.4375 2.3125 C-8.75236328 2.08755859 -8.06722656 1.86261719 -7.36132812 1.63085938 C-2.31012538 0 -2.31012538 0 0 0 Z " fill="#8E5F3A" transform="translate(348,426)"/>
<path d="M0 0 C1.2263757 2.45275141 1.11415314 4.0505781 1.09765625 6.7890625 C1.09443359 7.73007813 1.09121094 8.67109375 1.08789062 9.640625 C1.07951172 10.62546875 1.07113281 11.6103125 1.0625 12.625 C1.05798828 13.61757812 1.05347656 14.61015625 1.04882812 15.6328125 C1.03702145 18.0886016 1.020554 20.54427104 1 23 C-4.41812002 21.36535473 -8.42536404 19.47340157 -12 15 C-12.75 11.4375 -12.75 11.4375 -12 8 C-9.12084256 4.38048779 -4.92871499 0 0 0 Z " fill="#F7FCBA" transform="translate(352,195)"/>
<path d="M0 0 C2 3 2 3 1.875 5.1875 C0.68163877 9.02330396 -1.11308437 12.46313023 -3 16 C-6.71888239 15.49287967 -9.73454239 14.88391785 -13 13 C-12.40523781 8.24190251 -10.5093872 4.05289706 -8 0 C-5.06791253 -1.46604374 -3.11702298 -0.77925574 0 0 Z " fill="#8E5F3A" transform="translate(139,421)"/>
<path d="M0 0 C6.41367149 1.53180892 10.77294439 2.81844796 15 8 C15.33 8.33 15.66 8.66 16 9 C16.5 12.1875 16.5 12.1875 16 16 C13.196065 19.39028066 10.16438374 21.61187209 6 23 C6.04640625 22.29875 6.0928125 21.5975 6.140625 20.875 C6.39963703 14.06668386 5.52583221 9.77773234 2 4 C1.32308264 2.67184146 0.65367939 1.33974829 0 0 Z " fill="#F7FCBA" transform="translate(377,194)"/>
<path d="M0 0 C3.59624508 1.19874836 3.94102427 2.03640783 5.75 5.25 C6.19859375 6.01828125 6.6471875 6.7865625 7.109375 7.578125 C8.17526806 10.47660612 7.85040031 12.07545258 7 15 C4.69 15.33 2.38 15.66 0 16 C-2.31 12.7 -4.62 9.4 -7 6 C-3 2 -3 2 0 0 Z " fill="#8F5F3A" transform="translate(180,400)"/>
<path d="M0 0 C6.05224964 7.46444122 6.05224964 7.46444122 5.75 10.5625 C5 13 5 13 3 15 C0.23131317 15 -1.3928275 14.56592437 -3.4375 12.66015625 C-7 8.52077415 -7 8.52077415 -7 6 C-7.66 5.67 -8.32 5.34 -9 5 C-6.03 3.35 -3.06 1.7 0 0 Z " fill="#8E5F3A" transform="translate(169,408)"/>
<path d="M0 0 C0.33 1.65 0.66 3.3 1 5 C-0.6209213 6.17232685 -2.24686833 7.3377077 -3.875 8.5 C-4.77992188 9.1496875 -5.68484375 9.799375 -6.6171875 10.46875 C-9 12 -9 12 -11 12 C-11.33 12.66 -11.66 13.32 -12 14 C-13.32 11.36 -14.64 8.72 -16 6 C-14.28336882 4.79444991 -12.55111532 3.61112276 -10.8125 2.4375 C-9.84957031 1.77621094 -8.88664063 1.11492187 -7.89453125 0.43359375 C-4.63481317 -1.18086851 -3.38479047 -1.13238877 0 0 Z " fill="#8E5F3A" transform="translate(228,321)"/>
<path d="M0 0 C0.66 0.66 1.32 1.32 2 2 C1.9921875 3.91796875 1.9921875 3.91796875 1 6 C-1.6171875 7.73828125 -1.6171875 7.73828125 -4.875 9.3125 C-6.47988281 10.11107422 -6.47988281 10.11107422 -8.1171875 10.92578125 C-11 12 -11 12 -14 11 C-14.33 8.69 -14.66 6.38 -15 4 C-13.44219668 3.32243118 -11.87849904 2.65840543 -10.3125 2 C-9.44238281 1.62875 -8.57226562 1.2575 -7.67578125 0.875 C-4.89759569 -0.03348696 -2.89935564 -0.31611373 0 0 Z " fill="#8E5F3A" transform="translate(222,305)"/>
<path d="M0 0 C2.32421875 0.375 2.32421875 0.375 3.32421875 1.375 C3.89757498 5.92203347 2.5091082 8.09166592 -0.17578125 11.6875 C-1.1503125 13.01201172 -1.1503125 13.01201172 -2.14453125 14.36328125 C-2.64984375 15.02714844 -3.15515625 15.69101562 -3.67578125 16.375 C-6.29765619 15.32625002 -7.46949486 14.72568687 -8.92578125 12.25 C-9.17328125 11.63125 -9.42078125 11.0125 -9.67578125 10.375 C-8.6347009 8.69487032 -7.56708541 7.0311599 -6.48828125 5.375 C-5.60076172 3.9828125 -5.60076172 3.9828125 -4.6953125 2.5625 C-2.67578125 0.375 -2.67578125 0.375 0 0 Z " fill="#90603A" transform="translate(322.67578125,330.625)"/>
<path d="M0 0 C1.65 0 3.3 0 5 0 C5.33 0.33 5.66 0.66 6 1 C5.64672484 6.77016096 3.7996192 10.98672841 1 16 C-4.75 15.25 -4.75 15.25 -7 13 C-3.535 6.565 -3.535 6.565 0 0 Z " fill="#8D5F3A" transform="translate(235,331)"/>
<path d="M0 0 C5.85209953 0.35829181 9.86595733 2.20780135 15 5 C14.01 7.64 13.02 10.28 12 13 C10.03925516 12.04661031 8.08147348 11.0871246 6.125 10.125 C5.03445313 9.59132813 3.94390625 9.05765625 2.8203125 8.5078125 C0 7 0 7 -2 5 C-1.46428571 1.46428571 -1.46428571 1.46428571 0 0 Z " fill="#90603A" transform="translate(269,293)"/>
<path d="M0 0 C2.32421875 0.12109375 2.32421875 0.12109375 5 1 C7.01953125 3.28515625 7.01953125 3.28515625 8.8125 6.0625 C9.41707031 6.98160156 10.02164062 7.90070313 10.64453125 8.84765625 C11.09183594 9.55792969 11.53914063 10.26820313 12 11 C7.25 15.875 7.25 15.875 5 17 C4.66226562 16.38511719 4.32453125 15.77023437 3.9765625 15.13671875 C3.53054687 14.32847656 3.08453125 13.52023437 2.625 12.6875 C2.18414062 11.88699219 1.74328125 11.08648437 1.2890625 10.26171875 C0.26486665 8.46472057 -0.85267138 6.72099292 -2 5 C-1.48275862 1.48275862 -1.48275862 1.48275862 0 0 Z " fill="#8D5F3A" transform="translate(252,326)"/>
<path d="M0 0 C6.21742345 0.24869694 9.29031292 2.25147355 14 6 C13.25 11.75 13.25 11.75 11 14 C9.17551873 12.78868871 7.36572564 11.55523257 5.5625 10.3125 C4.55316406 9.62800781 3.54382813 8.94351562 2.50390625 8.23828125 C0 6 0 6 -0.91015625 3.29296875 C-0.93980469 2.53628906 -0.96945312 1.77960938 -1 1 C-0.67 0.67 -0.34 0.34 0 0 Z " fill="#8D5F3A" transform="translate(262,310)"/>
<path d="M0 0 C1 1 1 1 1.3671875 3.33203125 C1 6 1 6 -1.1171875 7.94921875 C-2.48230469 8.80966797 -2.48230469 8.80966797 -3.875 9.6875 C-7.6458746 12.08383397 -7.6458746 12.08383397 -11 15 C-11.66 11.37 -12.32 7.74 -13 4 C-11.35 3.34 -9.7 2.68 -8 2 C-4.77786243 -0.14809171 -3.72224599 -0.29386153 0 0 Z " fill="#8F6039" transform="translate(315,311)"/>
<path d="M0 0 C2.38671875 0.12109375 2.38671875 0.12109375 5 1 C6.58203125 3.28515625 6.58203125 3.28515625 7.8125 6.0625 C8.23144531 6.98160156 8.65039062 7.90070313 9.08203125 8.84765625 C9.38496094 9.55792969 9.68789063 10.26820313 10 11 C8.02 12.65 6.04 14.3 4 16 C2.96122737 14.4493684 1.94457445 12.88390319 0.9375 11.3125 C0.36902344 10.44238281 -0.19945312 9.57226562 -0.78515625 8.67578125 C-2.20169733 5.55574705 -2.0714544 4.20314379 -1 1 C-0.67 0.67 -0.34 0.34 0 0 Z " fill="#8F5F3A" transform="translate(338,329)"/>
<path d="M0 0 C1 1 1 1 1.375 3.375 C1.25125 4.24125 1.1275 5.1075 1 6 C-1.25 7.6875 -1.25 7.6875 -4 9 C-4.70125 9.391875 -5.4025 9.78375 -6.125 10.1875 C-8 11 -8 11 -11 11 C-11.33 12.32 -11.66 13.64 -12 15 C-12 11.37 -12 7.74 -12 4 C-4.55696203 -0.67014147 -4.55696203 -0.67014147 0 0 Z " fill="#8D5E38" transform="translate(217,289)"/>
<path d="M0 0 C2.80194466 5.2302967 3.11756167 9.30333952 3.0625 15.25 C3.05347656 16.51328125 3.04445313 17.7765625 3.03515625 19.078125 C3.02355469 20.04234375 3.01195312 21.0065625 3 22 C0.69 22 -1.62 22 -4 22 C-3.5697663 14.3299717 -2.25768639 7.34103058 0 0 Z " fill="#F79321" transform="translate(294,263)"/>
<path d="M0 0 C2.375 0.75 2.375 0.75 3.375 1.75 C3.51068319 5.41344611 3.53961426 8.25615721 2.375 11.75 C-0.265 11.75 -2.905 11.75 -5.625 11.75 C-5.70631463 10.31344146 -5.76433559 8.8755517 -5.8125 7.4375 C-5.84730469 6.63699219 -5.88210937 5.83648437 -5.91796875 5.01171875 C-5.625 2.75 -5.625 2.75 -4.27734375 0.94140625 C-2.625 -0.25 -2.625 -0.25 0 0 Z " fill="#8F603A" transform="translate(151.625,427.25)"/>
<path d="M0 0 C3 3.21428571 3 3.21428571 3 6 C-7.89 6.495 -7.89 6.495 -19 7 C-19.33 7.99 -19.66 8.98 -20 10 C-20 8.02 -20 6.04 -20 4 C-19.01257813 3.79503906 -18.02515625 3.59007812 -17.0078125 3.37890625 C-15.72648437 3.10949219 -14.44515625 2.84007812 -13.125 2.5625 C-11.84882813 2.29566406 -10.57265625 2.02882812 -9.2578125 1.75390625 C-1.67875648 0 -1.67875648 0 0 0 Z " fill="#1EC0E0" transform="translate(372,187)"/>
<path d="M0 0 C0.66 0.66 1.32 1.32 2 2 C1.87109375 3.953125 1.87109375 3.953125 1 6 C-0.77734375 7.484375 -0.77734375 7.484375 -2.9375 8.75 C-4.00291016 9.39195312 -4.00291016 9.39195312 -5.08984375 10.046875 C-7 11 -7 11 -9 11 C-9.33 8.36 -9.66 5.72 -10 3 C-6.53498602 0.62399041 -4.23711541 -0.57258316 0 0 Z " fill="#8E5F3A" transform="translate(310,293)"/>
<path d="M0 0 C0.33 0 0.66 0 1 0 C0.71315435 7.45798682 -1.90392378 13.76475517 -6 20 C-8.19921875 21.3515625 -8.19921875 21.3515625 -10 22 C-9.3767176 19.07836377 -8.4290911 16.74149767 -7 14.125 C-5.2620086 10.76236447 -4.38015545 7.80155446 -4 4 C-3.01 4 -2.02 4 -1 4 C-0.67 2.68 -0.34 1.36 0 0 Z " fill="#5D3103" transform="translate(248,290)"/>
<path d="M0 0 C2.97 0.99 5.94 1.98 9 3 C9 8.30479934 7.4637943 9.18982627 4 13 C1.70395766 8.7938048 0.96227534 4.6739088 0 0 Z " fill="#F59525" transform="translate(386,238)"/>
<path d="M0 0 C3.125 0.375 3.125 0.375 6 1 C7.2380014 4.57644848 6.74926071 7.33694766 6 11 C5.67 10.34 5.34 9.68 5 9 C3.02111039 8.27306096 1.02045442 7.60183749 -1 7 C-1.625 4.625 -1.625 4.625 -2 2 C-1.34 1.34 -0.68 0.68 0 0 Z " fill="#916037" transform="translate(348,300)"/>
<path d="M0 0 C0 2.31 0 4.62 0 7 C-3.3 7 -6.6 7 -10 7 C-9.67 5.68 -9.34 4.36 -9 3 C-9.66 2.67 -10.32 2.34 -11 2 C-9.5422647 1.664061 -8.08378894 1.33133376 -6.625 1 C-5.40683594 0.7215625 -5.40683594 0.7215625 -4.1640625 0.4375 C-2 0 -2 0 0 0 Z " fill="#EE9024" transform="translate(342,349)"/>
<path d="M0 0 C0.33 0 0.66 0 1 0 C1.0270203 2.75006608 1.04684883 5.49986546 1.0625 8.25 C1.07087891 9.02730469 1.07925781 9.80460937 1.08789062 10.60546875 C1.09111328 11.35957031 1.09433594 12.11367188 1.09765625 12.890625 C1.10289307 13.58188477 1.10812988 14.27314453 1.11352539 14.98535156 C0.99437971 17.09973898 0.57618237 18.96641515 0 21 C-0.66 21 -1.32 21 -2 21 C-2.05390357 18.06225537 -2.0936255 15.12549768 -2.125 12.1875 C-2.14175781 11.35412109 -2.15851563 10.52074219 -2.17578125 9.66210938 C-2.18222656 8.85966797 -2.18867188 8.05722656 -2.1953125 7.23046875 C-2.20578613 6.49207764 -2.21625977 5.75368652 -2.22705078 4.99291992 C-2 3 -2 3 0 0 Z " fill="#5A2F02" transform="translate(253,254)"/>
<path d="M0 0 C0 3.3 0 6.6 0 10 C-2.31 9.01 -4.62 8.02 -7 7 C-7 5.35 -7 3.7 -7 2 C-1.125 0 -1.125 0 0 0 Z " fill="#8D5E38" transform="translate(356,284)"/>
<path d="M0 0 C0 2.97 0 5.94 0 9 C-4 7 -4 7 -5 6 C-5.04063832 4.33382885 -5.042721 2.66611905 -5 1 C-3 0 -3 0 0 0 Z " fill="#90603A" transform="translate(352,317)"/>
<path d="M0 0 C0.33 0 0.66 0 1 0 C0.25 7.625 0.25 7.625 -2 11 C-2.66 10.67 -3.32 10.34 -4 10 C-4 8.02 -4 6.04 -4 4 C-3.01 4 -2.02 4 -1 4 C-0.67 2.68 -0.34 1.36 0 0 Z " fill="#532B01" transform="translate(248,290)"/>
<path d="M0 0 C2.97 0 5.94 0 9 0 C8.67 0.99 8.34 1.98 8 3 C4.7 3.33 1.4 3.66 -2 4 C-1.34 2.68 -0.68 1.36 0 0 Z " fill="#5D3305" transform="translate(219,277)"/>
<path d="M0 0 C2.662062 0.3832143 5.32819962 0.68828996 8 1 C8 1.33 8 1.66 8 2 C6.75283203 2.09087891 6.75283203 2.09087891 5.48046875 2.18359375 C3.85044922 2.30927734 3.85044922 2.30927734 2.1875 2.4375 C0.56908203 2.55931641 0.56908203 2.55931641 -1.08203125 2.68359375 C-4.05989905 2.90212461 -4.05989905 2.90212461 -7 4 C-7 2.68 -7 1.36 -7 0 C-3.64629821 -1.1179006 -3.24364156 -0.87665988 0 0 Z " fill="#754107" transform="translate(274,230)"/>
<path d="M0 0 C0.66 0 1.32 0 2 0 C2.33 3.3 2.66 6.6 3 10 C2.01 9.34 1.02 8.68 0 8 C-0.40843923 5.28796348 -0.13336867 2.7562858 0 0 Z " fill="#12BAE5" transform="translate(382,226)"/>
<path d="M0 0 C0.33 0.66 0.66 1.32 1 2 C1.66 2 2.32 2 3 2 C2.67 4.64 2.34 7.28 2 10 C1.01 9.34 0.02 8.68 -1 8 C-0.67 5.36 -0.34 2.72 0 0 Z " fill="#6D3B06" transform="translate(253,247)"/>
<path d="M0 0 C0.33 0.66 0.66 1.32 1 2 C-3.75 6.875 -3.75 6.875 -6 8 C-4.55746343 4.63408134 -2.66735273 2.48952921 0 0 Z " fill="#5D3A10" transform="translate(267,335)"/>
<path d="M0 0 C0.33 0.99 0.66 1.98 1 3 C-0.3125 5.1875 -0.3125 5.1875 -2 7 C-2.66 7 -3.32 7 -4 7 C-2.92598892 4.08482708 -2.22189824 2.22189824 0 0 Z " fill="#522D05" transform="translate(278,317)"/>
<path d="M0 0 C0.33 0 0.66 0 1 0 C1.33 2.64 1.66 5.28 2 8 C1.34 8 0.68 8 0 8 C-0.33 8.66 -0.66 9.32 -1 10 C-0.67 6.7 -0.34 3.4 0 0 Z " fill="#723E07" transform="translate(297,261)"/>
</svg>
