<?xml version="1.0" encoding="UTF-8"?>
<svg version="1.1" xmlns="http://www.w3.org/2000/svg" width="512" height="512">
<path d="M0 0 C1.44620728 0.62636353 1.44620728 0.62636353 2.92163086 1.26538086 C3.77362061 1.64090088 4.62561035 2.0164209 5.50341797 2.40332031 C10.16287039 4.1815072 13.28290732 4.53943698 18.10522461 3.19506836 C19.0995752 2.93097168 20.09392578 2.666875 21.1184082 2.39477539 C22.17882324 2.10844238 23.23923828 1.82210937 24.33178711 1.52709961 C43.37618358 -3.33927495 62.69193536 -4.67756292 82.26928711 -2.97290039 C83.19990967 -2.89257568 84.13053223 -2.81225098 85.08935547 -2.72949219 C93.17280074 -1.93110214 100.95438857 -0.28507092 108.81152344 1.75048828 C109.67543701 1.96938721 110.53935059 2.18828613 111.42944336 2.41381836 C112.18491455 2.61579834 112.94038574 2.81777832 113.71875 3.02587891 C119.14067215 3.78590617 122.82457107 1.41001152 127.33178711 -1.34790039 C134.59227884 -5.65360845 142.03855447 -8.77859463 149.95678711 -11.66040039 C150.80499023 -12.00200195 151.65319336 -12.34360352 152.52709961 -12.69555664 C157.87304396 -14.64365501 163.0668755 -14.98858581 168.70678711 -15.09790039 C169.42850098 -15.12029785 170.15021484 -15.14269531 170.89379883 -15.16577148 C176.07175345 -15.14300334 178.97165496 -13.90314577 182.95678711 -10.66040039 C191.45364788 -0.70693491 191.15065078 14.26202786 191.14428711 26.65209961 C191.14565674 27.79332275 191.14702637 28.9345459 191.1484375 30.11035156 C191.1041936 37.91202563 190.65290095 45.55976674 189.58056641 53.28808594 C188.62122861 60.47033375 189.78523081 66.26732015 192.01928711 73.08959961 C193.95678711 79.01931491 193.95678711 79.01931491 193.95678711 82.33959961 C195.60678711 82.66959961 197.25678711 82.99959961 198.95678711 83.33959961 C200.83917117 88.02416904 200.92500601 91.29163248 200.45678711 96.27709961 C200.03994214 105.11926561 203.43050677 111.95083383 207.09692383 119.82519531 C214.99375034 136.82409408 217.49471655 153.05398354 211.95678711 171.33959961 C208.35297482 180.53437302 202.93165223 188.36473449 195.95678711 195.33959961 C202.83898737 193.77884145 209.31899416 191.51869549 215.83178711 188.83959961 C216.5568042 188.54303467 217.28182129 188.24646973 218.02880859 187.94091797 C223.72200397 185.56583886 223.72200397 185.56583886 228.95678711 182.33959961 C230.17559921 178.78287781 230.17559921 178.78287781 230.95678711 175.33959961 C233.8230321 173.90647711 236.41354979 174.36577799 239.57006836 174.49975586 C242.35914837 174.31259992 244.37196638 173.37750455 246.95678711 172.33959961 C254.01866871 171.4317942 260.1672178 172.00692411 265.95678711 176.33959961 C270.4103658 180.52536845 273.49595771 184.75477559 274.29272461 190.95288086 C274.3860775 197.40356578 273.77424319 202.06076848 269.95678711 207.33959961 C264.78999343 212.60200439 258.90707076 216.53432139 252.51928711 220.15209961 C251.61968262 220.66200439 250.72007812 221.17190918 249.79321289 221.69726562 C233.27404943 230.79000742 215.41414203 237.48700565 196.95678711 241.33959961 C196.22911133 241.50041016 195.50143555 241.6612207 194.75170898 241.8269043 C182.84953396 244.36988002 171.01349142 244.60019761 158.89428711 244.58959961 C158.12760712 244.58900543 157.36092712 244.58841125 156.5710144 244.58779907 C143.58598077 244.54933083 143.58598077 244.54933083 139.95678711 243.33959961 C140.13630165 244.52889572 140.13630165 244.52889572 140.31944275 245.74221802 C142.10030888 258.22719478 143.07441185 270.76495728 144.08569336 283.33178711 C144.28185024 285.73262517 144.47838508 288.13343237 144.67527771 290.53421021 C145.1894277 296.81361948 145.69924681 303.09337219 146.20788574 309.37322998 C147.02420674 319.44316233 147.84701557 329.51256613 148.67014885 339.58194351 C148.95570717 343.08315186 149.23930451 346.58451476 149.52259827 350.08590698 C149.69796413 352.24062452 149.87337186 354.39533865 150.04882812 356.55004883 C150.12624741 357.51335617 150.20366669 358.47666351 150.28343201 359.46916199 C150.49796823 362.09359885 150.726514 364.71650482 150.95678711 367.33959961 C151.05450063 368.62438391 151.05450063 368.62438391 151.15418816 369.93512344 C151.39432639 374.75803112 151.39432639 374.75803112 154.26928711 378.40209961 C155.15616211 379.04147461 156.04303711 379.68084961 156.95678711 380.33959961 C159.70450003 384.20865331 160.95678711 387.3203713 160.95678711 392.08959961 C159.84739801 395.69511418 158.95237772 397.09290665 155.95678711 399.33959961 C144.3074897 404.91191696 128.78900059 403.55800602 116.13214111 403.637146 C114.56696019 403.64705144 113.00180096 403.66151822 111.43670654 403.6807251 C95.59438882 403.85067356 95.59438882 403.85067356 88.95678711 400.33959961 C84.49808725 395.65224847 83.829661 392.89479266 83.82397461 386.52319336 C83.82265533 385.83854004 83.82133606 385.15388672 83.81997681 384.44848633 C83.81806014 382.22464471 83.82438777 380.00092839 83.83178711 377.77709961 C83.83311646 376.65369675 83.83311646 376.65369675 83.83447266 375.50759888 C83.84953735 364.7454721 84.12303455 354.07416375 84.95678711 343.33959961 C80.66678711 343.66959961 76.37678711 343.99959961 71.95678711 344.33959961 C71.17029785 346.51900146 71.17029785 346.51900146 70.36791992 348.74243164 C68.41541025 354.14626897 66.45233249 359.54621652 64.48608398 364.94506836 C63.63750346 367.27963645 62.79176984 369.61524144 61.94897461 371.9519043 C60.7351474 375.31569431 59.51103861 378.67558884 58.28491211 382.03491211 C57.91182922 383.07575958 57.53874634 384.11660706 57.15435791 385.18899536 C52.6068962 397.57286021 52.6068962 397.57286021 46.95678711 401.33959961 C39.58765243 402.71202446 32.11778048 402.53223892 24.64428711 402.52709961 C23.98126587 402.5268277 23.31824463 402.52655579 22.63513184 402.52627563 C-14.07276533 402.45712609 -14.07276533 402.45712609 -22.66821289 395.08959961 C-24.85305657 390.71991225 -24.70979932 387.44666305 -23.24243164 382.80834961 C-21.92279572 379.34366842 -20.70341961 376.20854815 -18.44946289 373.24194336 C-16.58093209 370.71423642 -16.39321965 368.41965913 -16.04321289 365.33959961 C-16.5652832 365.7147168 -17.08735352 366.08983398 -17.62524414 366.47631836 C-31.99630962 376.46810994 -45.75132414 379.75929491 -63.04321289 378.33959961 C-71.0444909 376.8350858 -77.70596758 373.38978349 -84.04321289 368.33959961 C-84.6580957 367.84975586 -85.27297852 367.35991211 -85.90649414 366.85522461 C-93.42871399 360.1169168 -99.26958976 349.49340324 -100.04321289 339.33959961 C-100.26336502 334.45038777 -99.37533403 331.30930742 -96.29321289 327.46459961 C-92.64928058 323.66486972 -89.86689576 322.50538896 -84.60571289 322.02709961 C-79.58810433 322.46724071 -76.44191536 323.8225454 -73.01196289 327.54272461 C-70.85580384 330.60583945 -69.86487562 333.34289076 -68.73071289 336.90209961 C-66.85692624 342.25759768 -66.85692624 342.25759768 -62.98071289 346.15209961 C-56.84851355 348.6341803 -50.12430695 348.40688124 -43.95336914 346.26928711 C-36.85962912 342.92783428 -30.9183108 338.48504826 -25.04321289 333.33959961 C-24.24399414 332.64995117 -23.44477539 331.96030273 -22.62133789 331.24975586 C-20.05368507 328.98874947 -17.55103048 326.66670682 -15.04321289 324.33959961 C-13.99140051 323.4239237 -12.93930541 322.50857246 -11.88696289 321.59350586 C-10.81262233 320.61459754 -9.73968545 319.6341463 -8.66821289 318.65209961 C-7.69110352 317.78198242 -6.71399414 316.91186523 -5.70727539 316.01538086 C3.58950325 304.9574519 3.27702268 284.10266775 5.20678711 270.46459961 C5.57309355 267.92671187 5.9402737 265.38895007 6.30834961 262.85131836 C7.20124634 256.68216222 8.08332274 250.51153546 8.95678711 244.33959961 C7.90628174 244.36054688 6.85577637 244.38149414 5.7734375 244.40307617 C-38.27643495 245.20231463 -85.3631264 239.7599469 -120.54321289 210.02709961 C-125.63007814 204.99079962 -127.20500091 201.13304389 -127.54321289 193.96459961 C-127.36518684 186.85974162 -125.45201191 182.81978709 -120.55102539 177.81616211 C-114.95576407 172.80072061 -110.00316569 172.01986847 -102.75415039 172.13647461 C-99.34278558 172.39208119 -96.30474715 173.33605061 -93.04321289 174.33959961 C-91.80571289 174.31897461 -90.56821289 174.29834961 -89.29321289 174.27709961 C-86.04321289 174.33959961 -86.04321289 174.33959961 -84.23071289 175.46459961 C-83.04321289 177.33959961 -83.04321289 177.33959961 -82.45336914 180.19897461 C-80.44398734 184.67416288 -77.66512151 185.59889583 -73.29321289 187.46459961 C-72.53983643 187.80297852 -71.78645996 188.14135742 -71.01025391 188.48999023 C-64.20011991 191.46230983 -57.26916374 193.59895852 -50.04321289 195.33959961 C-50.58848633 194.90131836 -51.13375977 194.46303711 -51.69555664 194.01147461 C-70.0715173 178.55682051 -79.35959136 156.61768975 -81.73071289 133.07788086 C-82.83028934 119.92419754 -81.8222124 106.4137356 -77.53149414 93.86694336 C-76.17268024 86.83372263 -79.29024764 79.00019883 -80.98071289 72.21459961 C-83.07951575 63.61675794 -85.07970475 55.14881689 -86.04321289 46.33959961 C-86.1527832 45.39084961 -86.26235352 44.44209961 -86.37524414 43.46459961 C-87.95652526 27.60962088 -88.98726589 8.69895315 -81.04321289 -5.66040039 C-78.54321289 -8.59790039 -78.54321289 -8.59790039 -76.04321289 -10.66040039 C-75.17696289 -11.49571289 -75.17696289 -11.49571289 -74.29321289 -12.34790039 C-53.74001782 -24.33726418 -19.1664999 -8.31839053 0 0 Z " fill="#532B01" transform="translate(172.043212890625,66.660400390625)"/>
<path d="M0 0 C0.77875488 -0.04374756 1.55750977 -0.08749512 2.35986328 -0.13256836 C5.81182608 -0.13900435 7.81698866 -0.00752491 10.49316406 2.29443359 C11.99316178 4.03244966 13.34824407 5.7810137 14.625 7.6875 C12.29082549 10.02167451 10.9089838 10.26572367 7.75 11.0625 C2.30072865 12.58900944 2.30072865 12.58900944 -1.375 16.6875 C-2.08351227 21.64708592 -2.12055354 23.54587114 0.625 27.75 C3.99054322 29.92357999 5.69381046 29.97676725 9.5859375 29.21875 C11.44513565 28.73436121 13.28658106 28.18309146 15.125 27.625 C19.18436841 26.53766918 22.44172537 26.54071843 26.625 26.6875 C27.25809191 27.87070576 27.88096718 29.05937848 28.5 30.25 C29.02207031 31.24193359 29.02207031 31.24193359 29.5546875 32.25390625 C30.90405317 35.32198951 31.75512419 38.45485342 32.625 41.6875 C32.01503174 41.81278076 31.40506348 41.93806152 30.77661133 42.06713867 C27.99245115 42.65042353 25.21534498 43.26237454 22.4375 43.875 C21.47779297 44.07158203 20.51808594 44.26816406 19.52929688 44.47070312 C13.90502618 45.7356775 10.18350225 46.82072486 6.625 51.6875 C5.95805173 55.83740033 6.21356309 57.91399861 8.1875 61.625 C10.75796234 63.80000659 12.02633167 64.29413207 15.36328125 64.0625 C19.47372029 63.38097643 23.50501928 62.37861144 27.5390625 61.34375 C30.35351961 60.74523254 32.76242028 60.55980128 35.625 60.6875 C35.75777344 61.37457031 35.89054688 62.06164062 36.02734375 62.76953125 C36.29224609 64.12111328 36.29224609 64.12111328 36.5625 65.5 C36.73652344 66.39332031 36.91054688 67.28664063 37.08984375 68.20703125 C37.60241153 70.80147171 37.60241153 70.80147171 38.625 73.6875 C42.34517451 74.92755817 45.75961006 75.20963937 49.625 74.6875 C52.26737846 73.46314845 52.26737846 73.46314845 53.625 70.6875 C54.23541731 67.35889964 54.49602847 64.06655413 54.625 60.6875 C55.33527344 60.84476563 56.04554688 61.00203125 56.77734375 61.1640625 C61.41578148 62.01666971 65.93900978 62.32191098 70.625 61.6875 C73.82958719 59.15364036 74.44317802 57.65721721 75.1875 53.6875 C74.38872786 49.42738192 73.14159995 48.23875878 69.625 45.6875 C63.8103561 43.52828709 57.77502959 42.37083662 51.625 41.6875 C50.95279649 39.75191401 50.28741923 37.81395628 49.625 35.875 C49.25375 34.79605469 48.8825 33.71710938 48.5 32.60546875 C47.625 29.6875 47.625 29.6875 47.625 26.6875 C48.51703125 26.78289062 49.4090625 26.87828125 50.328125 26.9765625 C51.49859375 27.08742188 52.6690625 27.19828125 53.875 27.3125 C55.03515625 27.42851563 56.1953125 27.54453125 57.390625 27.6640625 C60.58074908 27.68717934 62.04613182 27.49270773 64.625 25.6875 C65.78843227 23.36063547 65.82395988 21.84028587 65.875 19.25 C65.90078125 18.46753906 65.9265625 17.68507813 65.953125 16.87890625 C65.77389871 14.67772435 65.77389871 14.67772435 64.58203125 13.03515625 C61.66160133 11.02408176 58.46766001 10.35012011 55.0625 9.5625 C54.35029297 9.39073242 53.63808594 9.21896484 52.90429688 9.04199219 C47.51094683 7.7851708 42.1638555 6.95379113 36.625 6.6875 C35.635 4.2125 35.635 4.2125 34.625 1.6875 C41.06282102 1.3178212 46.77947889 2.66807832 53 4.25 C54.06202637 4.5195752 55.12405273 4.78915039 56.21826172 5.06689453 C75.3574103 10.10229619 92.8582383 18.29981806 107.625 31.6875 C108.11742187 32.13077637 108.60984375 32.57405273 109.1171875 33.03076172 C122.06157458 44.82937342 135.90361368 63.25977366 136.8125 81.4375 C136.625 84.6875 136.625 84.6875 135.625 86.6875 C135.49477624 88.4697889 135.42237973 90.25645762 135.37890625 92.04296875 C135.34756592 93.13367676 135.31622559 94.22438477 135.28393555 95.34814453 C135.25211182 96.51200684 135.22028809 97.67586914 135.1875 98.875 C134.19966419 127.85283681 134.19966419 127.85283681 128.625 135.6875 C123.08612708 139.30472313 117.11723894 139.56032366 110.625 138.6875 C105.70256376 136.36053014 103.11498975 133.49575608 100.625 128.6875 C97.15179853 118.5433815 97.16744278 108.42003629 97.11376953 97.85107422 C97.09815719 95.72069898 97.06524592 93.59108546 97.03125 91.4609375 C97.02416016 90.20716309 97.01707031 88.95338867 97.00976562 87.66162109 C96.88279297 86.68016113 96.75582031 85.69870117 96.625 84.6875 C93.85511924 82.37206793 93.85511924 82.37206793 91 83 C88.68998035 83.4616514 88.68998035 83.4616514 87.625 84.6875 C87.40408579 89.22570898 87.43921401 93.76968661 87.43969727 98.31274414 C87.43753863 100.5843458 87.41947065 102.85543934 87.40039062 105.12695312 C87.34791221 118.39384428 88.19288495 133.06102187 97.890625 143.21484375 C104.5051967 148.83127062 111.48169712 149.32074301 119.95703125 149.07421875 C127.78124138 148.24930203 133.4884963 145.75791347 138.625 139.6875 C139.00527344 139.10871094 139.38554687 138.52992188 139.77734375 137.93359375 C141.625 136.6875 141.625 136.6875 145.1640625 137.1640625 C146.53109267 137.52842657 147.89309863 137.91206106 149.25 138.3125 C149.94351562 138.49167969 150.63703125 138.67085937 151.3515625 138.85546875 C153.3515625 139.4140625 153.3515625 139.4140625 156.625 140.6875 C157.78109232 144.15577695 157.75772398 146.9090584 157.75 150.5625 C157.75257813 151.77679688 157.75515625 152.99109375 157.7578125 154.2421875 C157.64384298 157.19869095 157.31203101 159.81941815 156.625 162.6875 C156.068125 162.4709375 155.51125 162.254375 154.9375 162.03125 C149.59663032 160.08255431 145.31156435 159.01282287 139.625 159.6875 C136.95833333 161.02083333 136.95833333 161.02083333 135.625 163.6875 C134.86190384 167.56657214 134.91099997 170.56993474 137.0625 173.9375 C140.6853094 176.41161374 144.56431911 178.05628631 148.625 179.6875 C147.19790936 184.25252095 144.65249235 187.20258923 141.3125 190.5 C140.78052002 191.02553467 140.24854004 191.55106934 139.70043945 192.0925293 C127.21446783 204.02332535 110.129358 211.25848241 93.625 215.6875 C92.70976562 215.94015625 91.79453125 216.1928125 90.8515625 216.453125 C87.78748414 217.25991314 84.7151079 217.98647101 81.625 218.6875 C80.92020508 218.84750488 80.21541016 219.00750977 79.48925781 219.17236328 C77.05866963 219.71493263 74.62404604 220.23488407 72.1875 220.75 C71.456521 220.91242188 70.72554199 221.07484375 69.97241211 221.2421875 C53.0080411 224.72024586 35.56492541 225.0670236 18.3125 225 C17.3305365 224.99817719 16.348573 224.99635437 15.33685303 224.99447632 C0.5639102 224.94842244 -13.82601965 224.46923922 -28.375 221.6875 C-29.3340625 221.51057617 -30.293125 221.33365234 -31.28125 221.15136719 C-58.64385022 215.99415836 -84.71056986 207.13637543 -105.375 187.6875 C-104.05005846 183.71267538 -102.25029157 183.04469587 -98.75 180.8125 C-97.66847656 180.11125 -96.58695313 179.41 -95.47265625 178.6875 C-94.45042969 178.0275 -93.42820313 177.3675 -92.375 176.6875 C-87.69862156 173.82817543 -87.69862156 173.82817543 -84.375 169.6875 C-83.84700376 164.14653073 -83.84700376 164.14653073 -85.875 159.1875 C-88.61811677 157.54162994 -90.75602363 156.88332237 -93.97265625 157.0390625 C-99.42882858 158.51178544 -103.87225742 162.40314659 -108.375 165.6875 C-110.11892181 166.8632329 -111.86821976 168.03106829 -113.625 169.1875 C-114.35203125 169.6721875 -115.0790625 170.156875 -115.828125 170.65625 C-116.33859375 170.9965625 -116.8490625 171.336875 -117.375 171.6875 C-119.59480333 169.64688938 -120.95167936 167.86124516 -122.1640625 165.10546875 C-122.46570313 164.42033203 -122.76734375 163.73519531 -123.078125 163.02929688 C-123.38234375 162.31837891 -123.6865625 161.60746094 -124 160.875 C-124.31195313 160.17568359 -124.62390625 159.47636719 -124.9453125 158.75585938 C-126.68912725 154.73832066 -127.86488815 151.07859799 -128.375 146.6875 C-127.81627197 146.52668945 -127.25754395 146.36587891 -126.68188477 146.20019531 C-124.09846495 145.45255271 -121.51802117 144.6950842 -118.9375 143.9375 C-118.05900391 143.68484375 -117.18050781 143.4321875 -116.27539062 143.171875 C-110.49265339 141.4647939 -104.65075739 139.66313963 -99.375 136.6875 C-97.76471881 133.46693762 -97.78301235 130.1705901 -98.375 126.6875 C-101.08922755 123.29471557 -102.75856726 122.76063609 -107.0625 122.25 C-111.17954515 122.45855576 -114.86697617 123.60936642 -118.765625 124.88671875 C-122.90027246 126.15558511 -127.12346474 126.91860533 -131.375 127.6875 C-132.49918516 98.70850486 -122.19751561 71.68073034 -103.375 49.6875 C-102.95138184 49.1817041 -102.52776367 48.6759082 -102.09130859 48.15478516 C-91.75343931 35.88075231 -79.33490556 26.55672561 -65.375 18.6875 C-64.323125 18.09324219 -63.27125 17.49898437 -62.1875 16.88671875 C-43.29477799 6.8388206 -21.40959481 0.68036322 0 0 Z " fill="#FE9723" transform="translate(225.375,67.3125)"/>
<path d="M0 0 C1.14995661 3.44986982 1.31273605 6.44135548 1.53515625 10.07421875 C1.57813339 10.7580513 1.62111053 11.44188385 1.66539001 12.1464386 C1.80153681 14.32657778 1.93208855 16.50701096 2.0625 18.6875 C2.15392809 20.16734054 2.24572066 21.64715861 2.33789062 23.12695312 C2.56282069 26.75105107 2.78273474 30.37543355 3 34 C1.62714844 34.18175781 1.62714844 34.18175781 0.2265625 34.3671875 C-0.96195313 34.53476562 -2.15046875 34.70234375 -3.375 34.875 C-4.55835938 35.03742188 -5.74171875 35.19984375 -6.9609375 35.3671875 C-10.09566659 35.7302585 -10.09566659 35.7302585 -12 38 C-11.67 39.98 -11.34 41.96 -11 44 C-6.05 44.33 -1.1 44.66 4 45 C4.33670126 48.54137572 4.66947726 52.08304682 5 55.625 C5.14308594 57.12353516 5.14308594 57.12353516 5.2890625 58.65234375 C5.73400626 63.45138006 6.13177309 68.17381074 6 73 C4.86820313 73.12117188 3.73640625 73.24234375 2.5703125 73.3671875 C1.08848969 73.53600276 -0.39327842 73.70529855 -1.875 73.875 C-2.62136719 73.95363281 -3.36773437 74.03226562 -4.13671875 74.11328125 C-8.52555407 74.5080769 -8.52555407 74.5080769 -12 77 C-11.83557723 80.06991681 -11.83557723 80.06991681 -11 83 C-7.69005287 84.65497356 -4.00877 84.10084335 -0.375 84.0625 C0.42679688 84.05798828 1.22859375 84.05347656 2.0546875 84.04882812 C4.03649006 84.03703168 6.01825433 84.01909605 8 84 C8.95043457 95.35429868 9.11033706 106.61076383 9 118 C8.22285645 118.26216309 7.44571289 118.52432617 6.64501953 118.79443359 C3.13625506 119.98187806 -0.36937656 121.17831598 -3.875 122.375 C-5.09832031 122.7875 -6.32164062 123.2 -7.58203125 123.625 C-9.33193359 124.22441406 -9.33193359 124.22441406 -11.1171875 124.8359375 C-12.19597168 125.20251465 -13.27475586 125.5690918 -14.38623047 125.94677734 C-17.10513833 126.8440839 -17.10513833 126.8440839 -19 129 C-19.33333333 131.5 -19.33333333 131.5 -19 134 C-18.34 134.66 -17.68 135.32 -17 136 C-10.76154442 135.87767734 -5.17878964 133.84796985 0.6315918 131.72827148 C4.4385491 130.37228085 6.83607048 130 11 130 C11 133.96 11 137.92 11 142 C9.55625 142.5775 8.1125 143.155 6.625 143.75 C5.72136719 144.11738281 4.81773437 144.48476563 3.88671875 144.86328125 C1.9885592 145.61072973 0.07398062 146.31796288 -1.85546875 146.98046875 C-2.74878906 147.29628906 -3.64210938 147.61210937 -4.5625 147.9375 C-5.38878906 148.21464844 -6.21507812 148.49179687 -7.06640625 148.77734375 C-9.23446895 149.87420217 -9.23446895 149.87420217 -9.90234375 152.44140625 C-10.2596337 155.24541651 -10.2596337 155.24541651 -8 158 C-2.65995027 157.51454093 1.90107118 156.50841029 6.921875 154.62109375 C9 154 9 154 13 154 C15.5 156.1875 15.5 156.1875 18 159 C18.763125 159.763125 19.52625 160.52625 20.3125 161.3125 C22.77637227 165.23644472 22.66583882 167.41311037 22 172 C15.69269824 177.73391069 6.32451978 177.31922324 -1.6640625 177.3359375 C-2.77429779 177.3425943 -3.88453308 177.3492511 -5.02841187 177.35610962 C-7.36658071 177.36620167 -9.70477815 177.37092771 -12.04296875 177.37060547 C-15.62027026 177.3749942 -19.19635267 177.41139459 -22.7734375 177.44921875 C-25.04947496 177.45508446 -27.32551826 177.4590555 -29.6015625 177.4609375 C-30.66935944 177.47530853 -31.73715637 177.48967957 -32.83731079 177.50448608 C-40.23053151 177.45890648 -40.23053151 177.45890648 -44.08740234 175.15869141 C-47.17809808 171.67031616 -48.25203151 169.70773962 -48.23046875 165.109375 C-48.22917969 164.10374512 -48.22789062 163.09811523 -48.2265625 162.06201172 C-48.21367187 160.96904785 -48.20078125 159.87608398 -48.1875 158.75 C-48.18105469 157.62223145 -48.17460937 156.49446289 -48.16796875 155.33251953 C-48.04509919 141.21595889 -47.53219765 127.10606856 -47 113 C-47.66 113 -48.32 113 -49 113 C-49 114.32 -49 115.64 -49 117 C-53.29 117 -57.58 117 -62 117 C-61.505 115.02 -61.505 115.02 -61 113 C-64.07882061 113.64387338 -64.07882061 113.64387338 -64.97250366 115.82380676 C-65.25276398 116.62034164 -65.53302429 117.41687653 -65.82177734 118.23754883 C-66.14576508 119.13971634 -66.46975281 120.04188385 -66.80355835 120.97138977 C-67.14424347 121.95665146 -67.48492859 122.94191315 -67.8359375 123.95703125 C-68.19716705 124.97037033 -68.55839661 125.98370941 -68.93057251 127.02775574 C-70.08974307 130.28554972 -71.23297998 133.54865868 -72.375 136.8125 C-85.39364302 173.69773348 -85.39364302 173.69773348 -90 176 C-93.22512119 176.43928913 -96.42110528 176.42004813 -99.671875 176.3984375 C-100.62709045 176.40130768 -101.58230591 176.40417786 -102.56646729 176.40713501 C-104.59395946 176.4091769 -106.62147127 176.40363834 -108.64892578 176.39111328 C-111.69741161 176.37527325 -114.7445281 176.39084665 -117.79296875 176.41015625 C-145.64048993 176.44488736 -145.64048993 176.44488736 -153.92089844 171.12255859 C-156 169 -156 169 -156.125 165.3125 C-155.16967833 160.51786669 -153.21568748 155.71103328 -150 152 C-145.82424004 150.40754917 -143.17079198 151.40270031 -139.125 153 C-134.14155059 154.79650275 -131.09293552 155.38898242 -126 154 C-125.23043864 151.65466049 -125.23043864 151.65466049 -125 149 C-127.00153049 146.44851553 -128.97931879 145.42053124 -132.01171875 144.39453125 C-132.76904297 144.13349609 -133.52636719 143.87246094 -134.30664062 143.60351562 C-135.09232422 143.34248047 -135.87800781 143.08144531 -136.6875 142.8125 C-137.88342773 142.40354492 -137.88342773 142.40354492 -139.10351562 141.98632812 C-141.06635172 141.31637808 -143.03283769 140.65713854 -145 140 C-144.85904936 138.3745692 -144.71207913 136.74965949 -144.5625 135.125 C-144.48128906 134.22007812 -144.40007812 133.31515625 -144.31640625 132.3828125 C-144 130 -144 130 -143 128 C-137.29193449 128.51891505 -132.33502662 130.17721093 -126.96484375 132.16015625 C-123.79345573 133.05850727 -121.27895505 133.293013 -118 133 C-115.79142762 131.17213728 -115.79142762 131.17213728 -115.5625 128.5625 C-115.72179543 125.86049509 -115.72179543 125.86049509 -117.9453125 124.5390625 C-121.94651399 122.52311188 -126.051749 121.17446066 -130.3125 119.8125 C-131.14845703 119.53986328 -131.98441406 119.26722656 -132.84570312 118.98632812 C-134.89535489 118.31872726 -136.9474413 117.65860918 -139 117 C-139.18300814 111.90150769 -138.59937522 107.66647543 -137.25 102.75390625 C-137.07243164 102.09792953 -136.89486328 101.44195282 -136.71191406 100.76609802 C-136.1495061 98.69587888 -135.57499608 96.62925395 -135 94.5625 C-134.61377434 93.14930939 -134.22834999 91.73589953 -133.84375 90.32226562 C-132.9050775 86.87892846 -131.95553041 83.43870235 -131 80 C-130.25951416 80.06058594 -129.51902832 80.12117188 -128.75610352 80.18359375 C-125.35852633 80.45945293 -121.96052892 80.72976449 -118.5625 81 C-117.39783203 81.09539062 -116.23316406 81.19078125 -115.03320312 81.2890625 C-105.52570009 82.0533863 -105.52570009 82.0533863 -96 82 C-93.65026182 80.10244856 -93.65026182 80.10244856 -93.875 76.875 C-93.91625 75.92625 -93.9575 74.9775 -94 74 C-98.03612569 72.52288439 -101.63013506 71.69191132 -105.9140625 71.40234375 C-107.00460938 71.32306641 -108.09515625 71.24378906 -109.21875 71.16210938 C-110.3428125 71.08798828 -111.466875 71.01386719 -112.625 70.9375 C-114.86739877 70.78298391 -117.10959909 70.62555321 -119.3515625 70.46484375 C-120.33979004 70.399021 -121.32801758 70.33319824 -122.34619141 70.26538086 C-125 70 -125 70 -129 69 C-127.68 59.76 -126.36 50.52 -125 41 C-120.91625 41.2475 -120.91625 41.2475 -116.75 41.5 C-105.87810798 42.18612634 -105.87810798 42.18612634 -95 42 C-93.68879347 40.89203039 -93.68879347 40.89203039 -93.625 38.125 C-93.74875 37.09375 -93.8725 36.0625 -94 35 C-95.2375 34.2884375 -95.2375 34.2884375 -96.5 33.5625 C-97.325 33.046875 -98.15 32.53125 -99 32 C-99.54632042 26.46675476 -98.35189597 21.9786354 -96.625 16.8125 C-96.29242188 15.76545898 -96.29242188 15.76545898 -95.953125 14.69726562 C-94.85913303 11.31554338 -93.63473767 8.15097205 -92 5 C-91.39596848 5.00666183 -90.79193695 5.01332367 -90.16960144 5.02018738 C-46.85041631 5.86366651 -46.85041631 5.86366651 -4.00268555 0.38037109 C-2 0 -2 0 0 0 Z " fill="#FD9723" transform="translate(307,289)"/>
<path d="M0 0 C1.14995661 3.44986982 1.31273605 6.44135548 1.53515625 10.07421875 C1.57813339 10.7580513 1.62111053 11.44188385 1.66539001 12.1464386 C1.80153681 14.32657778 1.93208855 16.50701096 2.0625 18.6875 C2.15392809 20.16734054 2.24572066 21.64715861 2.33789062 23.12695312 C2.56282069 26.75105107 2.78273474 30.37543355 3 34 C1.62714844 34.18175781 1.62714844 34.18175781 0.2265625 34.3671875 C-0.96195313 34.53476562 -2.15046875 34.70234375 -3.375 34.875 C-4.55835938 35.03742188 -5.74171875 35.19984375 -6.9609375 35.3671875 C-10.09566659 35.7302585 -10.09566659 35.7302585 -12 38 C-11.505 40.97 -11.505 40.97 -11 44 C-6.05 44.33 -1.1 44.66 4 45 C4.33670126 48.54137572 4.66947726 52.08304682 5 55.625 C5.14308594 57.12353516 5.14308594 57.12353516 5.2890625 58.65234375 C5.73400626 63.45138006 6.13177309 68.17381074 6 73 C4.86820313 73.12117188 3.73640625 73.24234375 2.5703125 73.3671875 C1.08848969 73.53600276 -0.39327842 73.70529855 -1.875 73.875 C-2.62136719 73.95363281 -3.36773437 74.03226562 -4.13671875 74.11328125 C-8.52555407 74.5080769 -8.52555407 74.5080769 -12 77 C-11.5359375 78.794375 -11.5359375 78.794375 -11.0625 80.625 C-10.61839684 83.60915662 -10.73874673 84.63113205 -12.5078125 87.12890625 C-23.72258474 97.72063559 -36.73116576 99.21314214 -51.46533203 99.29516602 C-52.8944696 99.3066366 -54.32356601 99.32701004 -55.75244141 99.35668945 C-68.76562497 99.62610419 -80.81100775 97.83739124 -91 89 C-92.93164196 86.74641772 -94.42891611 84.53400628 -96 82 C-95.34 81.34 -94.68 80.68 -94 80 C-93.83318891 76.91652174 -93.83318891 76.91652174 -94 74 C-98.03612569 72.52288439 -101.63013506 71.69191132 -105.9140625 71.40234375 C-107.00460938 71.32306641 -108.09515625 71.24378906 -109.21875 71.16210938 C-110.3428125 71.08798828 -111.466875 71.01386719 -112.625 70.9375 C-114.86739877 70.78298391 -117.10959909 70.62555321 -119.3515625 70.46484375 C-120.83390381 70.36610962 -120.83390381 70.36610962 -122.34619141 70.26538086 C-125 70 -125 70 -129 69 C-127.68 59.76 -126.36 50.52 -125 41 C-120.91625 41.2475 -120.91625 41.2475 -116.75 41.5 C-105.87810798 42.18612634 -105.87810798 42.18612634 -95 42 C-93.68879347 40.89203039 -93.68879347 40.89203039 -93.625 38.125 C-93.74875 37.09375 -93.8725 36.0625 -94 35 C-95.2375 34.2884375 -95.2375 34.2884375 -96.5 33.5625 C-97.325 33.046875 -98.15 32.53125 -99 32 C-99.54632042 26.46675476 -98.35189597 21.9786354 -96.625 16.8125 C-96.29242188 15.76545898 -96.29242188 15.76545898 -95.953125 14.69726562 C-94.85913303 11.31554338 -93.63473767 8.15097205 -92 5 C-91.39596848 5.00666183 -90.79193695 5.01332367 -90.16960144 5.02018738 C-46.85041631 5.86366651 -46.85041631 5.86366651 -4.00268555 0.38037109 C-2 0 -2 0 0 0 Z " fill="#F9FEBC" transform="translate(307,289)"/>
<path d="M0 0 C2 1 4 2 6 3 C9.68203915 2.68873287 9.68203915 2.68873287 13 2 C13.66 2.33 14.32 2.66 15 3 C15.21785156 4.08925781 15.43570313 5.17851562 15.66015625 6.30078125 C17.23890305 10.65959531 18.31990555 11.33256006 22.30444336 13.25683594 C23.00835205 13.56395508 23.71226074 13.87107422 24.4375 14.1875 C25.16396729 14.52426758 25.89043457 14.86103516 26.63891602 15.20800781 C28.74691674 16.17062491 30.86765438 17.09280867 33 18 C33.9590625 18.41378906 34.918125 18.82757813 35.90625 19.25390625 C40.46762308 21.04889103 44.94122899 22.19798828 49.75146484 23.13500977 C57.69958122 24.73505021 64.20867771 27.39389556 71.3125 31.3125 C91.137141 42.21379462 113.25720594 48.44720251 135.8112793 50.3684082 C139.32301448 50.68270169 140.98830594 50.99220396 144 53 C143.66226563 53.95519531 143.32453125 54.91039062 142.9765625 55.89453125 C140.32332965 63.53707084 138.12071916 70.95424008 137 79 C137.66 79.33 138.32 79.66 139 80 C130.42 79.01 121.84 78.02 113 77 C114 67 114 67 115 66 C116.99958364 65.95919217 119.00045254 65.95745644 121 66 C121 65.01 121 64.02 121 63 C120.27296875 63.144375 119.5459375 63.28875 118.796875 63.4375 C111.44651204 64.79449009 104.46612603 65.23828062 97 65 C96.95101562 63.86820312 96.90203125 62.73640625 96.8515625 61.5703125 C96.77653486 60.08851661 96.70098703 58.606747 96.625 57.125 C96.5940625 56.37863281 96.563125 55.63226563 96.53125 54.86328125 C96.44356169 50.46526812 96.44356169 50.46526812 94 47 C90.95817107 46.74994614 90.95817107 46.74994614 88 47 C86.48578999 48.51421001 86.78690144 49.92472768 86.68359375 52.03515625 C86.64169922 52.84404297 86.59980469 53.65292969 86.55664062 54.48632812 C86.51732422 55.33646484 86.47800781 56.18660156 86.4375 57.0625 C86.37272461 58.34350586 86.37272461 58.34350586 86.30664062 59.65039062 C86.20023298 61.76672037 86.09958269 63.88333813 86 66 C84.02090602 66.02686553 82.04171029 66.04633375 80.0625 66.0625 C78.96035156 66.07410156 77.85820312 66.08570313 76.72265625 66.09765625 C74 66 74 66 73 65 C72.76281257 61.3894803 72.60344319 57.78580251 72.48242188 54.16992188 C72.4665658 49.61024467 72.4665658 49.61024467 70 46 C66.95817107 45.74994614 66.95817107 45.74994614 64 46 C61.88074396 48.11925604 62.58168983 52.6196093 62.4375 55.5625 C62.37272461 56.77196289 62.37272461 56.77196289 62.30664062 58.00585938 C62.20024738 60.00368805 62.09959112 62.0018207 62 64 C52.25782625 63.5286045 43.29939832 60.74524722 34 58 C34.30681877 56.55663414 34.61744908 55.11407815 34.9296875 53.671875 C35.10226074 52.8684668 35.27483398 52.06505859 35.45263672 51.23730469 C36 49 36 49 37.125 46.25 C38.14522614 43.62656135 38.37691975 41.78920612 38 39 C34.74922159 36.33885691 34.74922159 36.33885691 29 38 C27.35 42.95 25.7 47.9 24 53 C16.125 51.875 16.125 51.875 12 49 C12.31182069 47.58318366 12.62448737 46.16655349 12.9375 44.75 C13.11152344 43.96109375 13.28554687 43.1721875 13.46484375 42.359375 C13.800782 40.87830417 14.16290571 39.40267907 14.5625 37.9375 C15.23358353 34.96555865 15.05831692 32.03247981 15 29 C12.69 28.67 10.38 28.34 8 28 C5.74138003 32.93387858 3.59890486 37.80355921 2 43 C-2.00770479 42.33368233 -5.00944945 40.35835016 -8.4375 38.25 C-9.54996094 37.57453125 -10.66242187 36.8990625 -11.80859375 36.203125 C-17.47446511 32.29180132 -20.903324 28.62108211 -23 22 C-23.9903884 15.95971907 -23.01159009 11.73456882 -19.5 6.7265625 C-14.14845851 0.56671526 -7.75767856 -0.81448949 0 0 Z " fill="#FC9622" transform="translate(71,242)"/>
<path d="M0 0 C5.63902244 2.36475135 9.47920841 6.0922299 13 11 C14.77276597 16.31829792 14.72212067 21.03830184 12.4375 26.125 C8.22324696 33.64310995 0.48441807 38.14148831 -7 42 C-7.66 42 -8.32 42 -9 42 C-9.19335938 41.44570313 -9.38671875 40.89140625 -9.5859375 40.3203125 C-9.84632813 39.59585938 -10.10671875 38.87140625 -10.375 38.125 C-10.63023437 37.40570313 -10.88546875 36.68640625 -11.1484375 35.9453125 C-11.93877783 33.81842006 -11.93877783 33.81842006 -14 32 C-17.09926819 32.32198966 -17.09926819 32.32198966 -20 33 C-21.06017644 37.55875868 -20.74438695 39.7480568 -19 44 C-18.9375 46.625 -18.9375 46.625 -20 49 C-23.08838433 50.74814207 -25.49587862 52.10584558 -29.109375 51.8515625 C-31 51 -31 51 -32.08984375 48.96875 C-32.36957031 48.1540625 -32.64929688 47.339375 -32.9375 46.5 C-34.2943771 42.8003297 -34.2943771 42.8003297 -37.5625 40.8125 C-40.26013616 40.82007618 -40.26013616 40.82007618 -43 43 C-42.85704109 44.39613065 -42.71048442 45.79189308 -42.5625 47.1875 C-42.48128906 47.96480469 -42.40007812 48.74210937 -42.31640625 49.54296875 C-41.99227088 52.06001996 -41.52467495 54.5177143 -41 57 C-49.67779297 59.91771947 -57.78178463 62.56789615 -67 63 C-67.33 58.71 -67.66 54.42 -68 50 C-71.41656024 49.83322718 -71.41656024 49.83322718 -75 50 C-77.77042109 52.77042109 -77.39796106 54.76533805 -77.625 58.625 C-77.69976562 59.81351562 -77.77453125 61.00203125 -77.8515625 62.2265625 C-77.90054688 63.14179688 -77.94953125 64.05703125 -78 65 C-80.99480917 65.8723412 -83.63575911 66.10829766 -86.75 66.0625 C-87.54921875 66.05347656 -88.3484375 66.04445313 -89.171875 66.03515625 C-89.77515625 66.02355469 -90.3784375 66.01195312 -91 66 C-91.06058594 65.00097656 -91.12117188 64.00195312 -91.18359375 62.97265625 C-91.26738281 61.68230469 -91.35117187 60.39195312 -91.4375 59.0625 C-91.51871094 57.77472656 -91.59992188 56.48695313 -91.68359375 55.16015625 C-91.64919188 52.13976043 -91.64919188 52.13976043 -93 51 C-95.95817107 50.74994614 -95.95817107 50.74994614 -99 51 C-101.77042109 53.77042109 -101.39796106 55.76533805 -101.625 59.625 C-101.74875 61.72875 -101.8725 63.8325 -102 66 C-107.28 65.67 -112.56 65.34 -118 65 C-118.33 58.73 -118.66 52.46 -119 46 C-116.1228125 45.2265625 -116.1228125 45.2265625 -113.1875 44.4375 C-99.08321306 40.47376197 -84.89190508 35.70042895 -72.6875 27.43359375 C-69.35958001 25.65838062 -66.03698764 25.02290182 -62.375 24.3125 C-55.61429019 22.86218517 -49.36170204 20.76720219 -43 18.0625 C-42.23606934 17.73870361 -41.47213867 17.41490723 -40.68505859 17.08129883 C-36.7329255 15.35165031 -32.85998421 13.47982176 -29.03515625 11.484375 C-28.29918213 11.10120117 -27.56320801 10.71802734 -26.80493164 10.32324219 C-24.6693837 8.75761662 -24.15652602 7.70771933 -23.4375 5.1875 C-23.293125 4.135625 -23.14875 3.08375 -23 2 C-21.80375 2.226875 -20.6075 2.45375 -19.375 2.6875 C-12.40146036 3.5912512 -7.47151701 -1.34234034 0 0 Z " fill="#FC9622" transform="translate(429,242)"/>
<path d="M0 0 C-2.54457194 1.27557353 -5.09362972 2.54183937 -7.64453125 3.8046875 C-9.03388181 4.49473602 -10.42320391 5.18484183 -11.8125 5.875 C-12.49892578 6.21402344 -13.18535156 6.55304688 -13.89257812 6.90234375 C-17.27810607 8.58710032 -20.58719841 10.3235264 -23.83984375 12.25390625 C-27 14 -27 14 -29.75 14.0625 C-32.75222967 13.08100184 -35.45484094 11.89792899 -38.3125 10.5625 C-48.3281313 5.90375461 -58.11752438 5.50740377 -69 5 C-69 5.99 -69 6.98 -69 8 C-67.44152344 7.94779297 -67.44152344 7.94779297 -65.8515625 7.89453125 C-52.90590062 7.58818946 -43.70270577 10.37113201 -32 16 C-34.98695694 19.18608741 -38.10278848 21.89389804 -41.5625 24.5625 C-59.41697843 38.75588182 -69.90416485 55.76778418 -80 76 C-92.5712367 57.14314495 -92.6994456 21.72673697 -89 0 C-86.88732999 -7.17129423 -84.49157228 -13.02556799 -78 -17 C-54.1923494 -26.24375261 -21.4396423 -10.44366651 0 0 Z " fill="#FC9622" transform="translate(179,74)"/>
<path d="M0 0 C3.99998437 -0.02927916 7.99994076 -0.04689219 12 -0.0625 C13.12535156 -0.07087891 14.25070313 -0.07925781 15.41015625 -0.08789062 C21.37584397 -0.10533416 27.10287573 0.08218777 33 1 C33.66 2.98 34.32 4.96 35 7 C35.53625 6.95359375 36.0725 6.9071875 36.625 6.859375 C42.45643627 6.59082201 47.73401725 7.39626689 53.375 8.75 C54.06464844 8.90694336 54.75429688 9.06388672 55.46484375 9.22558594 C59.68024528 10.30005962 62.41569683 11.44171322 65 15 C65.73319402 18.06216325 65.57904219 20.91177501 65 24 C63.12379387 26.50160818 61.76108697 27.61945652 59 29 C56.9765625 28.9140625 56.9765625 28.9140625 54.625 28.625 C53.85414063 28.53476563 53.08328125 28.44453125 52.2890625 28.3515625 C50.14484251 28.02224544 48.09336359 27.56396553 46 27 C46.28875 27.74765625 46.5775 28.4953125 46.875 29.265625 C47.24625 30.25046875 47.6175 31.2353125 48 32.25 C48.37125 33.22453125 48.7425 34.1990625 49.125 35.203125 C50 38 50 38 50 42 C50.928125 41.938125 51.85625 41.87625 52.8125 41.8125 C59.28710353 41.82568657 65.72986857 43.50171326 71.125 47.0625 C73.40908217 49.42271824 73.93023889 50.48841851 74.375 53.75 C73.9794478 57.17811908 73.17453295 59.29463728 70.82421875 61.8671875 C66.98723026 64.24989984 62.31472885 63.6447296 58 63 C56.3124784 62.38804162 54.63739292 61.7356403 53 61 C53.08701172 61.99580078 53.08701172 61.99580078 53.17578125 63.01171875 C53.40888203 67.57383395 53.51487244 70.19551181 51 74.125 C47.68112337 76.19929789 45.78058661 76.73271034 41.93359375 76.5 C38.65279768 75.65163253 37.03356261 73.5881706 35 71 C33.39274365 67.78548731 33.94251815 64.56387464 34 61 C32.78183594 61.28875 31.56367188 61.5775 30.30859375 61.875 C28.68498829 62.25040011 27.06128511 62.62537772 25.4375 63 C24.63763672 63.19078125 23.83777344 63.3815625 23.01367188 63.578125 C18.27660157 64.66088393 13.89028142 65.45074564 9 65 C5.29783158 61.77044883 4.20267264 60.28359339 3.4375 55.4375 C4.11939663 51.27035393 4.82370716 49.78894006 8 47 C14.79092867 43.75089189 22.71318767 42.61076904 30 41 C27.525 34.565 27.525 34.565 25 28 C20.17774125 27.73209674 16.5287803 28.01566743 11.9375 29.5625 C7.577638 30.96220992 4.48406606 31.43490114 0 30 C-2.51666056 27.87051798 -3.71851452 26.3144841 -4.4140625 23.06640625 C-4.68760833 19.2583603 -4.27655578 17.41483367 -2.125 14.1875 C1.99499206 11.30350556 6.14710546 10.15904083 11 9 C11.29619523 5.96322243 11.29619523 5.96322243 9.4375 3.875 C6.33207032 1.48620794 3.85314086 1.29639545 0 1 C0 0.67 0 0.34 0 0 Z " fill="#8C5E3B" transform="translate(227,67)"/>
<path d="M0 0 C6.81458275 6.0357733 7.32663294 17.38228823 8 26 C8.15325903 29.45976285 8.1899837 32.91209432 8.1875 36.375 C8.18814453 37.31875488 8.18878906 38.26250977 8.18945312 39.23486328 C8.12079567 48.57071681 7.19640626 57.74921589 6 67 C3.24434777 64.50479051 1.46837085 61.70271875 -0.5 58.5625 C-9.65555123 44.73745088 -21.22352174 35.06076298 -35 26 C-31.1584024 23.43219529 -27.1860825 23.77311118 -22.75 23.875 C-22.00492187 23.88402344 -21.25984375 23.89304687 -20.4921875 23.90234375 C-18.66131941 23.92581642 -16.83061762 23.96168475 -15 24 C-15.495 23.01 -15.495 23.01 -16 22 C-18.47925034 21.97262178 -20.95816431 21.95231347 -23.4375 21.9375 C-24.17597168 21.93057129 -24.91444336 21.92364258 -25.67529297 21.91650391 C-29.46086566 21.90567609 -32.91056715 22.07551255 -36.625 22.875 C-43.03612841 23.81927473 -49.39234412 19.66688005 -55 17 C-55.99 16.67 -56.98 16.34 -58 16 C-58 15.34 -58 14.68 -58 14 C-15.92403336 -9.20962613 -15.92403336 -9.20962613 0 0 Z " fill="#FB9522" transform="translate(352,58)"/>
<path d="M0 0 C2.15150327 2.15150327 2.43409667 2.98802625 3.14501953 5.84790039 C3.44510422 7.03537621 3.44510422 7.03537621 3.75125122 8.24684143 C3.95966644 9.10511032 4.16808167 9.96337921 4.3828125 10.84765625 C4.71150833 12.17645058 4.71150833 12.17645058 5.04684448 13.53208923 C5.50931161 15.41169676 5.96804092 17.29222725 6.42333984 19.17358398 C7.11707189 22.02985794 7.82921105 24.88109569 8.54296875 27.73242188 C8.99071867 29.56222256 9.43736771 31.39229304 9.8828125 33.22265625 C10.09527618 34.06675552 10.30773987 34.9108548 10.52664185 35.78053284 C12.02943056 42.09190956 13.61138815 48.91150605 10.5 54.875 C5.37024868 59.23528863 -0.33293305 60.61296207 -7.01171875 60.34765625 C-9 60 -9 60 -11.5625 58.375 C-13.46543651 55.23101795 -13.6646293 53.61853729 -13 50 C-9.0169674 44.16770227 -2.40075511 42.3990071 4 40 C3.51298949 32.40935336 2.00236413 25.32940833 0 18 C-4.1143381 18.6772989 -7.74251954 19.96620639 -11.61328125 21.50390625 C-12.22769577 21.7466478 -12.84211029 21.98938934 -13.47514343 22.23948669 C-15.42251559 23.0098905 -17.36751397 23.78609451 -19.3125 24.5625 C-20.63851895 25.08827647 -21.96468936 25.61367113 -23.29101562 26.13867188 C-26.52910808 27.4213679 -29.76509885 28.70927349 -33 30 C-32.43135499 38.0268506 -30.78904966 45.47277992 -28.72851562 53.23242188 C-27.32774314 58.76608577 -26.14590959 64.2781137 -27 70 C-30.28182194 74.71761904 -34.56831174 76.64466445 -40 78 C-44.5617053 78.61853631 -46.21872235 78.55340501 -50 75.875 C-52 73 -52 73 -52.0625 69.9375 C-50.4718118 65.53971497 -48.09239642 63.59845571 -44.01953125 61.3671875 C-42.96121094 60.87476563 -41.90289062 60.38234375 -40.8125 59.875 C-36.65760204 58.2348517 -36.65760204 58.2348517 -34 55 C-34.47902604 52.56097951 -35.02761083 50.19899813 -35.65234375 47.796875 C-35.83132706 47.08146545 -36.01031036 46.36605591 -36.19471741 45.62896729 C-36.96176659 42.56394097 -37.74511292 39.50313767 -38.52709961 36.44189453 C-39.09539281 34.2074527 -39.65527657 31.9710152 -40.21484375 29.734375 C-40.39297104 29.0497821 -40.57109833 28.36518921 -40.75462341 27.65985107 C-41.74779802 23.68592838 -42.18144589 20.09265701 -42 16 C-34.08545788 11.7303128 -25.89637086 8.13871224 -17.625 4.625 C-16.05588867 3.9455835 -16.05588867 3.9455835 -14.45507812 3.25244141 C-13.45154297 2.83140137 -12.44800781 2.41036133 -11.4140625 1.9765625 C-10.5163916 1.59580566 -9.6187207 1.21504883 -8.69384766 0.82275391 C-5.62684447 -0.11396902 -3.18965264 -0.28448102 0 0 Z " fill="#00D4FF" transform="translate(482,143)"/>
<path d="M0 0 C1.24892905 4.86181297 1.17939751 9.66380909 1.203125 14.6484375 C1.20882507 15.57919098 1.21452515 16.50994446 1.22039795 17.46890259 C1.22982391 19.43400951 1.23637235 21.39913208 1.24023438 23.36425781 C1.2499439 26.3577041 1.28099173 29.35046452 1.3125 32.34375 C1.3190305 34.25780845 1.32428079 36.17187177 1.328125 38.0859375 C1.3404718 38.97469574 1.3528186 39.86345398 1.36553955 40.77914429 C1.34597099 46.283885 0.6384098 50.13548138 -2 55 C-6.65521005 58.79767135 -12.20682762 58.56192053 -17.98046875 58.41015625 C-21 58 -21 58 -24.375 55.9375 C-26 53 -26 53 -26.0625 49.375 C-24.85639826 45.54385329 -24.38539012 44.95016 -21 43 C-18.41302446 42.34978273 -15.93220594 41.81369481 -13.3125 41.375 C-8.78805473 40.93951965 -8.78805473 40.93951965 -5 39 C-4.91299658 37.36527118 -4.89298937 35.72685945 -4.90234375 34.08984375 C-4.90556641 33.10048828 -4.90878906 32.11113281 -4.91210938 31.09179688 C-4.92048828 30.05087891 -4.92886719 29.00996094 -4.9375 27.9375 C-4.94201172 26.89271484 -4.94652344 25.84792969 -4.95117188 24.77148438 C-4.96300087 22.1809334 -4.97948311 19.59049441 -5 17 C-9.96786552 17.66389955 -14.93392944 18.33957244 -19.89868164 19.02636719 C-21.58899055 19.25848192 -23.27975094 19.48733259 -24.97094727 19.71289062 C-27.39724918 20.03706105 -29.82170248 20.37281144 -32.24609375 20.7109375 C-33.00651474 20.80998383 -33.76693573 20.90903015 -34.55039978 21.01107788 C-36.37809631 21.27181148 -38.19185314 21.62709045 -40 22 C-41.56336148 25.12672295 -41.13599467 28.46221186 -41.140625 31.89453125 C-41.1589551 33.50587349 -41.1785256 35.117202 -41.19921875 36.72851562 C-41.22817281 39.26984757 -41.24999958 41.8102991 -41.25048828 44.35180664 C-41.25382864 46.80434339 -41.28841099 49.25484811 -41.328125 51.70703125 C-41.3210553 52.46240677 -41.3139856 53.21778229 -41.30670166 53.99604797 C-41.39827309 57.97853445 -41.84349749 59.80352801 -44.35449219 62.95581055 C-48.21182655 65.93638092 -51.12196798 66.17888231 -55.875 66.25 C-56.90367187 66.27578125 -57.93234375 66.3015625 -58.9921875 66.328125 C-62.43104854 65.95297652 -64.2672417 65.09495116 -67 63 C-67.97998178 59.92939043 -68.24119925 57.93799708 -67.4375 54.8125 C-63.89899663 50.35090879 -58.56421151 49.60104695 -53.26953125 48.41015625 C-52.09624268 48.14468994 -50.9229541 47.87922363 -49.71411133 47.60571289 C-48.81845459 47.40582764 -47.92279785 47.20594238 -47 47 C-46.98541748 45.79875488 -46.97083496 44.59750977 -46.95581055 43.35986328 C-46.89794008 38.91294227 -46.82070738 34.46653366 -46.73754883 30.02001953 C-46.70424631 28.09367169 -46.67623111 26.16722501 -46.65356445 24.24072266 C-46.62011576 21.4751565 -46.56780664 18.71050047 -46.51171875 15.9453125 C-46.50532883 15.0806839 -46.4989389 14.2160553 -46.49235535 13.32522583 C-46.43237305 10.89892578 -46.43237305 10.89892578 -46 7 C-42.38167544 4.58778363 -39.02632443 4.12965755 -34.82421875 3.45703125 C-33.62005058 3.25795418 -33.62005058 3.25795418 -32.39155579 3.05485535 C-30.6933633 2.77643121 -28.9945436 2.50180982 -27.29516602 2.23071289 C-24.70562112 1.81540623 -22.11952495 1.38213826 -19.53320312 0.94726562 C-17.88038643 0.67858962 -16.22739647 0.41097683 -14.57421875 0.14453125 C-13.80526779 0.0144014 -13.03631683 -0.11572845 -12.24406433 -0.24980164 C-7.89413548 -0.92699819 -4.35675562 -1.01051867 0 0 Z " fill="#00D5FF" transform="translate(445,43)"/>
<path d="M0 0 C2.875 0.875 2.875 0.875 4.875 2.875 C5.14624023 5.84912109 5.14624023 5.84912109 5.18359375 9.6484375 C5.2088028 11.0455762 5.23419992 12.44271153 5.25976562 13.83984375 C5.28820726 16.02912058 5.31222413 18.21833639 5.33129883 20.40771484 C5.32649054 37.7825738 5.32649054 37.7825738 12.875 52.875 C16.85700311 56.49500282 21.07123228 56.30437038 26.2109375 56.1796875 C29.57050687 55.79545523 32.01120269 54.63733681 34.875 52.875 C35.535 52.875 36.195 52.875 36.875 52.875 C37.36551977 51.10727781 37.84163674 49.33555927 38.3125 47.5625 C38.57933594 46.57636719 38.84617188 45.59023437 39.12109375 44.57421875 C40.54113218 37.60646544 40.89643654 30.60605577 41.05078125 23.5078125 C41.07462891 22.43789062 41.09847656 21.36796875 41.12304688 20.265625 C41.16647413 18.0653108 41.19747025 15.86472035 41.21679688 13.6640625 C41.42750377 5.58859819 41.42750377 5.58859819 43.91796875 1.6171875 C44.56378906 1.04226562 45.20960938 0.46734375 45.875 -0.125 C51.625 0.625 51.625 0.625 53.875 2.875 C54.13378906 4.71240234 54.13378906 4.71240234 54.140625 6.9609375 C54.14481445 7.79955322 54.14900391 8.63816895 54.15332031 9.50219727 C54.14397461 10.40897217 54.13462891 11.31574707 54.125 12.25 C54.11484863 13.65173462 54.11484863 13.65173462 54.10449219 15.08178711 C53.57928664 51.43395024 53.57928664 51.43395024 42.8984375 62.25 C35.90279982 67.86811829 28.27669159 68.58588622 19.50390625 68.3203125 C12.64795787 67.47900129 7.36661533 64.76219458 2.5625 59.8125 C-7.10097501 47.11036855 -7.28598797 31.48556879 -7.5 16.25 C-7.52618408 15.09870605 -7.55236816 13.94741211 -7.5793457 12.76123047 C-7.581521 11.67213379 -7.58369629 10.58303711 -7.5859375 9.4609375 C-7.59415527 8.4817334 -7.60237305 7.5025293 -7.61083984 6.49365234 C-6.7681564 1.95163091 -4.61627017 -0.18465081 0 0 Z " fill="#542C02" transform="translate(144.125,149.125)"/>
<path d="M0 0 C2.32019367 4.64038733 -1.05516597 12.96344617 -2.16552734 17.94677734 C-2.55198196 19.71762409 -2.920489 21.49249285 -3.27001953 23.27099609 C-6.54609643 39.90601407 -6.54609643 39.90601407 -13.28515625 44.9296875 C-15.15583424 46.01449842 -17.06053614 47.04358439 -19 48 C-19.77617676 48.44037598 -20.55235352 48.88075195 -21.35205078 49.33447266 C-23.43062359 50.48631122 -25.52988377 51.50574436 -27.6875 52.5 C-28.38166016 52.84546875 -29.07582031 53.1909375 -29.79101562 53.546875 C-34.76013012 55.88092319 -38.52138665 56.34433485 -44 56 C-43.98839844 55.36191406 -43.97679687 54.72382813 -43.96484375 54.06640625 C-43.95582031 53.24011719 -43.94679687 52.41382813 -43.9375 51.5625 C-43.92589844 50.73878906 -43.91429687 49.91507812 -43.90234375 49.06640625 C-43.76732652 47.00836062 -43.76732652 47.00836062 -45 46 C-47.5 45.83333333 -47.5 45.83333333 -50 46 C-51.48870271 47.48870271 -51.29343803 48.9343803 -51.5 51 C-51.88888889 54.88888889 -51.88888889 54.88888889 -53 56 C-54.51928038 56.07179964 -56.04167482 56.08392007 -57.5625 56.0625 C-58.38878906 56.05347656 -59.21507813 56.04445313 -60.06640625 56.03515625 C-60.70449219 56.02355469 -61.34257813 56.01195312 -62 56 C-61.24199288 50.44128114 -61.24199288 50.44128114 -59.9375 48.0625 C-58.56682916 45.04702414 -58.87448534 42.26338129 -59 39 C-62.28743547 38.33076238 -62.28743547 38.33076238 -66 39 C-68.95067001 42.20465173 -70.63369882 45.90109647 -72 50 C-76.9880438 49.26103055 -79.85184261 46.48064464 -82.875 42.58203125 C-88 35.42149698 -88 35.42149698 -88 33 C-86.948125 33.08701172 -86.948125 33.08701172 -85.875 33.17578125 C-79.65606417 33.47151869 -75.80548137 33.02046356 -70.75390625 29.2890625 C-68.9185582 27.940143 -67.05756463 26.9677337 -65 26 C-64.484375 26.598125 -63.96875 27.19625 -63.4375 27.8125 C-58.1817047 32.52923937 -53.3045528 33.43755582 -46.4453125 33.23828125 C-43.08682815 32.9110168 -40.18327537 32.10722622 -37 31 C-36.69707031 31.56589844 -36.39414063 32.13179688 -36.08203125 32.71484375 C-33.59865225 37.35782928 -33.59865225 37.35782928 -29.3125 40.0625 C-26.97231107 40.16235781 -26.97231107 40.16235781 -25 39 C-24.4502728 33.36529617 -26.04952165 30.61012242 -29 26 C-28.34 25.34 -27.68 24.68 -27 24 C-25.046875 24.12109375 -25.046875 24.12109375 -23 25 C-21.515625 26.84765625 -21.515625 26.84765625 -20.25 29.0625 C-19.82203125 29.79597656 -19.3940625 30.52945312 -18.953125 31.28515625 C-18.63859375 31.85105469 -18.3240625 32.41695313 -18 33 C-16.02 32.67 -14.04 32.34 -12 32 C-12.34515292 27.77187668 -12.88098607 24.87911218 -15.125 21.25 C-15.74375 20.1775 -16.3625 19.105 -17 18 C-15.89041597 14.6712479 -15.07455496 13.98510301 -12.4375 11.8125 C-8.05041036 8.09973698 -4.0135492 4.10961819 0 0 Z " fill="#FA9522" transform="translate(168,385)"/>
<path d="M0 0 C1.24112549 0.01571045 1.24112549 0.01571045 2.50732422 0.03173828 C3.85117187 0.04140625 3.85117187 0.04140625 5.22216797 0.05126953 C6.62789063 0.07640625 6.62789063 0.07640625 8.06201172 0.10205078 C9.00689453 0.11107422 9.95177734 0.12009766 10.92529297 0.12939453 C13.26278464 0.15300556 15.59977295 0.18593562 17.93701172 0.22705078 C16.20066718 11.31869994 16.20066718 11.31869994 11.93701172 15.22705078 C7.78306159 17.71942086 3.58167442 18.93533985 -1.06298828 20.22705078 C-1.24361816 21.41258545 -1.42424805 22.59812012 -1.61035156 23.81958008 C-2.28941562 28.23140148 -3.00176681 32.63731384 -3.72412109 37.04223633 C-4.03168738 38.94671917 -4.33029611 40.85267171 -4.61962891 42.76000977 C-5.03799403 45.50732183 -5.48867726 48.24767384 -5.94580078 50.98876953 C-6.06794952 51.83791428 -6.19009827 52.68705902 -6.31594849 53.56193542 C-7.04399276 57.73371679 -7.73780357 60.41482574 -11.0078125 63.24194336 C-16.63741244 66.89978874 -22.07394895 67.02360423 -28.54736328 65.73095703 C-32.26908064 64.65457799 -34.53498928 63.80163793 -37.18798828 60.91455078 C-38.30897835 57.47150985 -38.23114198 55.65850227 -37.06298828 52.22705078 C-33.48319558 48.43993418 -30.70810386 47.75607255 -25.72705078 47.56884766 C-24.97166016 47.55917969 -24.21626953 47.54951172 -23.43798828 47.53955078 C-17.66860082 47.45894499 -17.66860082 47.45894499 -12.06298828 46.22705078 C-11.66515724 44.14409801 -11.26997526 42.06063947 -10.87548828 39.97705078 C-10.74601807 39.29626465 -10.61654785 38.61547852 -10.4831543 37.9140625 C-9.54855496 32.95050296 -8.6719386 27.97906155 -7.82080078 23.00048828 C-7.60319092 21.74139648 -7.38558105 20.48230469 -7.16137695 19.18505859 C-6.72277162 16.6412449 -6.29058097 14.09631639 -5.86499023 11.55029297 C-5.66091553 10.37370117 -5.45684082 9.19710937 -5.24658203 7.98486328 C-5.06667725 6.92412598 -4.88677246 5.86338867 -4.70141602 4.77050781 C-3.93252842 1.70730668 -3.26529028 0.35937514 0 0 Z " fill="#00D4FF" transform="translate(421.06298828125,116.77294921875)"/>
<path d="M0 0 C3.70616175 1.58835503 7.36640694 3.25228318 11 5 C8.01304306 8.18608741 4.89721152 10.89389804 1.4375 13.5625 C-4.88708764 18.5406237 -10.39422844 24.24627552 -16 30 C-17.33112034 31.33554266 -18.66350337 32.66983748 -20 34 C-28.1142567 23.64732765 -27.37100829 11.49061252 -27 -1 C-19.10956586 -5.78381393 -8.08271274 -3.2330851 0 0 Z " fill="#F8FBBA" transform="translate(136,85)"/>
<path d="M0 0 C19.69248292 1.03644647 19.69248292 1.03644647 29 2 C29 2.33 29 2.66 29 3 C27.02 3 25.04 3 23 3 C23.33 11.91 23.66 20.82 24 30 C11.50769231 30 11.50769231 30 6.0625 29.5625 C5.00160156 29.48128906 3.94070312 29.40007812 2.84765625 29.31640625 C0 29 0 29 -4 28 C-2.68 18.76 -1.36 9.52 0 0 Z " fill="#FC9724" transform="translate(182,330)"/>
<path d="M0 0 C2.32629245 1.64663931 3.90972023 3.32617568 4.6875 6.1015625 C4.96502969 10.06198618 4.6403136 11.54921797 2.0625 14.74609375 C-1.1866081 17.43846044 -4.25031259 18.68868555 -8.23046875 19.8515625 C-8.8646875 20.05072266 -9.49890625 20.24988281 -10.15234375 20.45507812 C-12.04725221 21.04482004 -13.9513953 21.60461824 -15.85546875 22.1640625 C-17.06460938 22.56238281 -18.27375 22.96070313 -19.51953125 23.37109375 C-22.8302113 24.15805868 -24.64122186 24.13807671 -27.85546875 23.1640625 C-28.19919244 21.66640929 -28.5298025 20.16574576 -28.85546875 18.6640625 C-29.04109375 17.82875 -29.22671875 16.9934375 -29.41796875 16.1328125 C-29.96423238 12.42602359 -29.9194988 8.90982023 -29.85546875 5.1640625 C-28.66308594 4.81472656 -27.47070312 4.46539062 -26.2421875 4.10546875 C-24.67577282 3.64586205 -23.10936704 3.18622505 -21.54296875 2.7265625 C-20.36444336 2.38141602 -20.36444336 2.38141602 -19.16210938 2.02929688 C-18.02612305 1.69575195 -18.02612305 1.69575195 -16.8671875 1.35546875 C-16.17069092 1.15123291 -15.47419434 0.94699707 -14.7565918 0.73657227 C-4.93205097 -2.22201875 -4.93205097 -2.22201875 0 0 Z " fill="#8C5E3B" transform="translate(123.85546875,189.8359375)"/>
<path d="M0 0 C2.9838283 1.98921886 4.60276841 3.38502568 5.4765625 6.9375 C5.7592033 10.86471955 5.57893335 12.33050725 2.90234375 15.42578125 C-0.28485344 18.25264928 -3.57792312 20.7449705 -7.0625 23.1875 C-7.97999023 23.84395508 -7.97999023 23.84395508 -8.91601562 24.51367188 C-11.84582375 26.58829277 -14.71562583 28.53390779 -18 30 C-19.07260886 29.01085062 -20.132426 28.00783188 -21.1875 27 C-21.77917969 26.443125 -22.37085937 25.88625 -22.98046875 25.3125 C-25.75511396 22.13534339 -27.84403172 18.6154014 -30 15 C-26.70985787 12.68532491 -23.41763217 10.37363131 -20.125 8.0625 C-19.18785156 7.40314453 -18.25070313 6.74378906 -17.28515625 6.06445312 C-16.38925781 5.43603516 -15.49335937 4.80761719 -14.5703125 4.16015625 C-13.32918701 3.28822632 -13.32918701 3.28822632 -12.06298828 2.39868164 C-8.16359473 -0.24506104 -4.64446392 -0.76371682 0 0 Z " fill="#8C5E3B" transform="translate(137,224)"/>
<path d="M0 0 C4.87103541 2.65692841 6.1997439 4.872023 7.8125 10.125 C8.21930478 11.74728817 8.61646674 13.37205305 9 15 C9.33 15.99 9.66 16.98 10 18 C8.92130607 18.96355244 7.83681257 19.92061417 6.75 20.875 C6.14671875 21.40867187 5.5434375 21.94234375 4.921875 22.4921875 C1.44591619 25.21926087 -1.13002789 26.26999948 -5.5625 26.1875 C-6.32691406 26.18105469 -7.09132813 26.17460937 -7.87890625 26.16796875 C-10 26 -10 26 -13 25 C-15.86260826 19.16876095 -17.24898114 13.47580976 -16 7 C-12.75909574 -0.12998937 -7.37322451 -1.65447965 0 0 Z " fill="#8A5D3B" transform="translate(92,393)"/>
<path d="M0 0 C2.5625 2.0625 2.5625 2.0625 5 5 C5.14774414 9.13683587 4.49642011 11.2639288 2.1875 14.6875 C-7.79089772 21.92672972 -20.11400321 22.30118656 -32 21 C-38.33136398 19.56836147 -43.58115863 16.75875225 -48 12 C-49.0625 8.875 -49.0625 8.875 -49 6 C-47.49609375 4.3203125 -47.49609375 4.3203125 -46 3 C-45.57589844 3.39832031 -45.15179688 3.79664063 -44.71484375 4.20703125 C-36.93512898 11.23442195 -31.2194579 12.57963954 -20.73828125 12.3515625 C-14.03177557 11.72085664 -9.11112642 9.80325382 -4 5.4375 C-1.91031807 2.97268309 -1.91031807 2.97268309 0 0 Z " fill="#F8FAB8" transform="translate(366,204)"/>
<path d="M0 0 C0.99 0 1.98 0 3 0 C5.4915904 3.7373856 5.45793285 5.57331583 5 10 C2.10896024 15.65066861 -3.2862886 17.13205589 -9 19 C-18.49314096 21.68657606 -31.24952315 21.51070588 -40.11328125 17.1484375 C-46.3125 13.375 -46.3125 13.375 -48 10 C-48.23076923 4.46153846 -48.23076923 4.46153846 -47 2 C-44.56125571 3.08388635 -42.74714634 4.21185036 -40.6875 5.9375 C-32.97976846 11.85273583 -25.51693404 11.87603577 -16 11 C-9.34820861 9.53730242 -5.17675041 6.96457671 -1.25390625 1.390625 C-0.63322266 0.70226562 -0.63322266 0.70226562 0 0 Z " fill="#F8FAB7" transform="translate(191,205)"/>
<path d="M0 0 C4.02087084 0.23787157 8.04092791 0.48644421 12.06054688 0.74462891 C13.42592727 0.83085326 14.79149055 0.91423359 16.15722656 0.99462891 C18.12872073 1.1111917 20.09953439 1.23908692 22.0703125 1.3671875 C23.84559326 1.47716064 23.84559326 1.47716064 25.65673828 1.58935547 C33.56010656 2.56010656 33.56010656 2.56010656 36 5 C36.46596713 10.35862197 36.46596713 10.35862197 34.77490234 12.6862793 C32.45722633 14.40174211 31.20911265 14.30030101 28.3515625 14.14453125 C27.43391113 14.09997803 26.51625977 14.0554248 25.57080078 14.00952148 C24.59868652 13.94450439 23.62657227 13.8794873 22.625 13.8125 C21.63870605 13.75715088 20.65241211 13.70180176 19.63623047 13.64477539 C12.3168055 13.19323295 5.21756276 12.32028587 -2 11 C-1.34 7.37 -0.68 3.74 0 0 Z " fill="#8F603B" transform="translate(178,358)"/>
<path d="M0 0 C0 0.99 0 1.98 0 3 C-0.69222656 3.25652344 -1.38445312 3.51304688 -2.09765625 3.77734375 C-21.12991986 11.22475125 -41.09849483 24.42197529 -53.9375 40.5 C-55.91714265 42.89956684 -57.14107591 43.91558052 -60 45 C-60.99 45.495 -60.99 45.495 -62 46 C-59.56655772 40.43238599 -55.10675149 36.37752631 -51 32 C-50.27167969 31.21753906 -49.54335937 30.43507813 -48.79296875 29.62890625 C-43.36563012 23.98642987 -37.44900686 19.42389816 -31 15 C-43.41854115 8.41817319 -53.23609644 6.63474313 -67 6 C-67 5.01 -67 4.02 -67 3 C-53.7482358 2.55106947 -43.54746282 3.82221322 -31.60546875 10.109375 C-28.25430676 11.25489964 -26.39882618 10.94800165 -23 10 C-20.05536555 8.53701227 -20.05536555 8.53701227 -17.1875 6.6875 C-3.34560068 -1.67280034 -3.34560068 -1.67280034 0 0 Z " fill="#5A3206" transform="translate(177,76)"/>
<path d="M0 0 C0.33 0 0.66 0 1 0 C1.33 6.93 1.66 13.86 2 21 C-6.125 23.375 -6.125 23.375 -8.64892578 24.11083984 C-11.9175316 25.06935012 -15.1589243 26.05370798 -18.38671875 27.14453125 C-21.15875047 28.05196764 -23.10870629 28.39071537 -26 28 C-27.8125 26.8125 -27.8125 26.8125 -29 25 C-29.5 22.5625 -29.5 22.5625 -29 20 C-24.57287235 15.34632424 -18.78091109 14.04553232 -12.8125 12.25 C-11.80251953 11.93417969 -10.79253906 11.61835938 -9.75195312 11.29296875 C-2.33206507 9 -2.33206507 9 0 9 C0 6.03 0 3.06 0 0 Z " fill="#8E5F3A" transform="translate(316,398)"/>
<path d="M0 0 C4.01642465 0.80470919 7.58547713 2.56558884 11.203125 4.44140625 C9.62347692 11.05917434 7.90069549 16.70379686 4.203125 22.44140625 C2.25992387 21.70630381 0.32370909 20.95271576 -1.609375 20.19140625 C-3.22779297 19.56492188 -3.22779297 19.56492188 -4.87890625 18.92578125 C-7.90923937 17.38424633 -9.17089451 16.38814904 -10.796875 13.44140625 C-11.42075698 8.52833563 -11.55464563 6.57806219 -8.796875 2.44140625 C-5.69160075 0.37122342 -3.73165438 -0.22076581 0 0 Z " fill="#8C5E3B" transform="translate(370.796875,225.55859375)"/>
<path d="M0 0 C1.14995661 3.44986982 1.31273605 6.44135548 1.53515625 10.07421875 C1.57813339 10.7580513 1.62111053 11.44188385 1.66539001 12.1464386 C1.80153681 14.32657778 1.93208855 16.50701096 2.0625 18.6875 C2.15392809 20.16734054 2.24572066 21.64715861 2.33789062 23.12695312 C2.56282069 26.75105107 2.78273474 30.37543355 3 34 C0.36 34 -2.28 34 -5 34 C-5.13051758 33.45174561 -5.26103516 32.90349121 -5.39550781 32.33862305 C-8.94070391 17.43964351 -8.94070391 17.43964351 -14 3 C-9.41006238 1.05658407 -5.0221362 0 0 0 Z " fill="#FB9724" transform="translate(307,289)"/>
<path d="M0 0 C7.24843548 -0.27525704 14.00038464 0.13623257 21.125 1.375 C21.87128662 1.50108643 22.61757324 1.62717285 23.38647461 1.75708008 C28.74580158 2.74580158 28.74580158 2.74580158 31 5 C31.25 8 31.25 8 31 11 C29 13 29 13 26.8125 13.265625 C17.45500225 13.2136389 8.27358963 12.15404671 -1 11 C-0.67 7.37 -0.34 3.74 0 0 Z " fill="#8D5F3B" transform="translate(183,319)"/>
<path d="M0 0 C0.66 0 1.32 0 2 0 C2.226875 1.11375 2.45375 2.2275 2.6875 3.375 C3.120625 4.57125 3.55375 5.7675 4 7 C6.42383077 8.16953416 6.42383077 8.16953416 9 9 C12.70440785 13.4558987 12.45176964 17.86464611 12.375 23.375 C12.38660156 24.2 12.39820313 25.025 12.41015625 25.875 C12.38428051 31.30890472 11.67840414 35.23564979 9 40 C5.5 41.875 5.5 41.875 2 43 C0.515 43.495 0.515 43.495 -1 44 C-0.43628586 40.73045798 0.49962266 39.17424117 3 37 C2.505 35.515 2.505 35.515 2 34 C1.77254618 30.69140709 1.81484651 27.37811642 1.8125 24.0625 C1.80025391 23.15564453 1.78800781 22.24878906 1.77539062 21.31445312 C1.77345703 20.43853516 1.77152344 19.56261719 1.76953125 18.66015625 C1.76542236 17.86230713 1.76131348 17.06445801 1.75708008 16.24243164 C2.02501534 13.7690795 2.76485015 12.14139554 4 10 C3.01 9.67 2.02 9.34 1 9 C-0.4783226 6.04335481 -0.06032783 3.25770263 0 0 Z " fill="#583004" transform="translate(269,169)"/>
<path d="M0 0 C0.33 0.99 0.66 1.98 1 3 C3.22131762 3.92944028 3.22131762 3.92944028 5.9375 4.5 C6.92621094 4.7475 7.91492188 4.995 8.93359375 5.25 C9.94550781 5.4975 10.95742187 5.745 12 6 C13.83762638 6.4839839 15.67140741 6.98293111 17.5 7.5 C18.2940625 7.7165625 19.088125 7.933125 19.90625 8.15625 C22.24214079 9.09757912 23.43866798 10.03606035 25 12 C25.375 14.5 25.375 14.5 25 17 C23.70703125 18.65625 23.70703125 18.65625 22 20 C13.34081758 20 5.13437291 16.70480375 -3 14 C-2.01 9.38 -1.02 4.76 0 0 Z " fill="#8D5F3A" transform="translate(167,403)"/>
<path d="M0 0 C0.33 0 0.66 0 1 0 C1.33 6.6 1.66 13.2 2 20 C-1.8053125 21.2375 -1.8053125 21.2375 -5.6875 22.5 C-6.87218872 22.89155273 -6.87218872 22.89155273 -8.08081055 23.29101562 C-11.78090614 24.46995619 -15.07039798 25.49028554 -19 25 C-20.875 23.3125 -20.875 23.3125 -22 21 C-22 18.4375 -22 18.4375 -21 16 C-17.03653191 13.16361982 -12.78044112 11.76729762 -8.1875 10.3125 C-7.49462891 10.08755859 -6.80175781 9.86261719 -6.08789062 9.63085938 C-4.39370918 9.08171091 -2.69709367 8.54008138 -1 8 C-0.67 5.36 -0.34 2.72 0 0 Z " fill="#8F5F3A" transform="translate(318,423)"/>
<path d="M0 0 C0.33 0.66 0.66 1.32 1 2 C3.30479995 2.80867657 3.30479995 2.80867657 6.0625 3.4375 C19.23353882 6.85030824 19.23353882 6.85030824 22 11 C21.8125 13.5625 21.8125 13.5625 21 16 C17.65610853 18.22926098 16.39152243 18.14295565 12.5390625 17.55859375 C7.25485616 16.39606836 2.14493791 14.6613862 -3 13 C-2.01 8.71 -1.02 4.42 0 0 Z " fill="#8E5F3A" transform="translate(161,427)"/>
<path d="M0 0 C1.18916016 0.01353516 1.18916016 0.01353516 2.40234375 0.02734375 C4.35169281 0.05082988 6.30088575 0.08669863 8.25 0.125 C10.06139464 4.16465818 11.61546373 7.87985846 12.4375 12.25 C12.59605469 13.05695313 12.75460937 13.86390625 12.91796875 14.6953125 C13.26058446 17.20245331 13.30845862 19.59778904 13.25 22.125 C12.363125 21.34125 11.47625 20.5575 10.5625 19.75 C7.02449824 16.71742707 3.37621494 13.84523475 -0.3125 11 C-0.85414795 10.58057129 -1.3957959 10.16114258 -1.95385742 9.72900391 C-5.4639125 7.03681026 -9.04839628 4.54078348 -12.75 2.125 C-8.77389214 -0.58986934 -4.61098023 -0.09940753 0 0 Z " fill="#F4F6B4" transform="translate(329.75,81.875)"/>
<path d="M0 0 C4.29 0 8.58 0 13 0 C13.33670126 3.54137572 13.66947726 7.08304682 14 10.625 C14.09539062 11.62402344 14.19078125 12.62304688 14.2890625 13.65234375 C14.73400626 18.45138006 15.13177309 23.17381074 15 28 C11.37 28 7.74 28 4 28 C4.23009766 26.59041016 4.23009766 26.59041016 4.46484375 25.15234375 C5.15702904 20.30704669 5.34793629 15.4482211 5.5625 10.5625 C5.62727539 9.17901367 5.62727539 9.17901367 5.69335938 7.76757812 C5.79854931 5.51183837 5.90069107 3.25600501 6 1 C4.02 1 2.04 1 0 1 C0 0.67 0 0.34 0 0 Z " fill="#FA9929" transform="translate(298,334)"/>
<path d="M0 0 C5.88115015 7.24641715 10.48505774 17.75715006 12 27 C11.56640625 29.27734375 11.56640625 29.27734375 11 31 C11 30.01 11 29.02 11 28 C9.845 27.896875 8.69 27.79375 7.5 27.6875 C2.98828481 27.13964887 -0.80605749 25.7225121 -5 24 C-4.79503906 23.24976563 -4.59007812 22.49953125 -4.37890625 21.7265625 C-2.8157085 15.78790694 -1.62762204 10.09215284 -1.2109375 3.9609375 C-1 2 -1 2 0 0 Z " fill="#926036" transform="translate(371,180)"/>
<path d="M0 0 C0.66 0.66 1.32 1.32 2 2 C1.72810489 8.38953502 -0.70242085 14.0904127 -3 20 C-7.19469571 19.40075776 -11.00999834 18.42500059 -15 17 C-14.34 16.67 -13.68 16.34 -13 16 C-12.41933162 13.8508823 -12.41933162 13.8508823 -12.0625 11.3125 C-11.29649525 7.10248964 -10.26908762 3.68726738 -8 0 C-5.09288879 -1.4535556 -3.10402897 -0.71133997 0 0 Z " fill="#8E5F3A" transform="translate(108,279)"/>
<path d="M0 0 C3.0625 0.3125 3.0625 0.3125 4.7421875 1.3203125 C6.8371505 4.48135135 6.37446267 7.84590377 6.25 11.5 C6.23646484 12.24958984 6.22292969 12.99917969 6.20898438 13.77148438 C6.17368539 15.61879767 6.11987917 17.46574066 6.0625 19.3125 C8.0425 19.3125 10.0225 19.3125 12.0625 19.3125 C12.0625 19.6425 12.0625 19.9725 12.0625 20.3125 C6.4525 20.3125 0.8425 20.3125 -4.9375 20.3125 C-4.99129226 17.35392591 -5.03107093 14.39632279 -5.0625 11.4375 C-5.07925781 10.59574219 -5.09601563 9.75398438 -5.11328125 8.88671875 C-5.11972656 8.08105469 -5.12617188 7.27539062 -5.1328125 6.4453125 C-5.14852295 5.32987061 -5.14852295 5.32987061 -5.16455078 4.19189453 C-4.74964495 0.75754499 -3.23019388 0.34363765 0 0 Z " fill="#8E5F3A" transform="translate(161.9375,287.6875)"/>
<path d="M0 0 C0.33 0 0.66 0 1 0 C1 4.62 1 9.24 1 14 C-1.5829465 14.27631521 -4.16274443 14.52171274 -6.75 14.75 C-7.47960937 14.83121094 -8.20921875 14.91242188 -8.9609375 14.99609375 C-12.59172589 15.29315825 -14.51978764 15.34640706 -17.5234375 13.1796875 C-19 11 -19 11 -18.875 8.375 C-18 6 -18 6 -16 4 C-12.61215901 2.78678667 -9.31840018 2.89871304 -5.75 2.9375 C-4.67234375 2.94652344 -3.5946875 2.95554687 -2.484375 2.96484375 C-1.66453125 2.97644531 -0.8446875 2.98804688 0 3 C0 2.01 0 1.02 0 0 Z " fill="#8E603B" transform="translate(313,359)"/>
<path d="M0 0 C6.57692308 0.57692308 6.57692308 0.57692308 8 2 C8.80398585 9.07507547 6.23573534 15.36266071 4 22 C0.37 20.35 -3.26 18.7 -7 17 C-6.21563093 14.5391169 -5.42291109 12.08149031 -4.625 9.625 C-4.40328125 8.92632812 -4.1815625 8.22765625 -3.953125 7.5078125 C-2.2265625 2.2265625 -2.2265625 2.2265625 0 0 Z " fill="#8E5F3A" transform="translate(79,269)"/>
<path d="M0 0 C3.0625 0.3125 3.0625 0.3125 4.7355957 1.58129883 C6.35035245 3.68805874 6.41469043 4.69872442 6.35546875 7.32421875 C6.34580078 8.08154297 6.33613281 8.83886719 6.32617188 9.61914062 C6.30103516 10.40482422 6.27589844 11.19050781 6.25 12 C6.23646484 12.79728516 6.22292969 13.59457031 6.20898438 14.41601562 C6.17367089 16.38179967 6.11986447 18.34723582 6.0625 20.3125 C4.60426788 20.3395043 3.14589325 20.35889787 1.6875 20.375 C0.87539062 20.38660156 0.06328125 20.39820313 -0.7734375 20.41015625 C-2.9375 20.3125 -2.9375 20.3125 -4.9375 19.3125 C-4.99130578 16.52057795 -5.03107669 13.7296859 -5.0625 10.9375 C-5.07925781 10.1434375 -5.09601563 9.349375 -5.11328125 8.53125 C-5.13085473 6.45757985 -5.04085168 4.38366759 -4.9375 2.3125 C-2.9375 0.3125 -2.9375 0.3125 0 0 Z " fill="#8C5E3B" transform="translate(137.9375,286.6875)"/>
<path d="M0 0 C2.33944736 0.28730055 4.6739143 0.61936779 7 1 C8.64451156 7.4410036 7.05498079 11.21782606 4 17 C-0.56454251 16.45660208 -3.9728176 15.20536179 -8 13 C-7.34 12.67 -6.68 12.34 -6 12 C-5.87625 11.278125 -5.7525 10.55625 -5.625 9.8125 C-4.77367015 5.98151566 -2.78884988 2.78884988 0 0 Z " fill="#8C5E3A" transform="translate(102,423)"/>
<path d="M0 0 C2 2 2 2 2.1953125 5.2578125 C2.16050781 7.17207031 2.16050781 7.17207031 2.125 9.125 C2.10695313 10.40632813 2.08890625 11.68765625 2.0703125 13.0078125 C2.04710937 13.99523437 2.02390625 14.98265625 2 16 C-1.63 16 -5.26 16 -9 16 C-9.0810206 13.89646505 -9.13919907 11.79204048 -9.1875 9.6875 C-9.22230469 8.51574219 -9.25710938 7.34398437 -9.29296875 6.13671875 C-9 3 -9 3 -7.6796875 1.1015625 C-5.09770424 -0.59173815 -3.00157241 -0.31931621 0 0 Z " fill="#8D5F3B" transform="translate(336,292)"/>
<path d="M0 0 C1.17683626 3.67761331 1.03578346 7.16669708 1 11 C-1.45898655 11.08076963 -3.91533742 11.14037143 -6.375 11.1875 C-7.42300781 11.22520508 -7.42300781 11.22520508 -8.4921875 11.26367188 C-10.5234375 11.29296875 -10.5234375 11.29296875 -14 11 C-16 8 -16 8 -15.75 5.4375 C-15 3 -15 3 -13 1 C-8.68972272 -0.26772861 -4.45126889 -0.07544524 0 0 Z " fill="#8D603C" transform="translate(310,323)"/>
<path d="M0 0 C3.08281218 1.18569699 3.81463926 2.06061051 5.4375 4.9375 C6.53403198 7.58029366 7.49131555 10.23411586 8.4375 12.9375 C4.4775 14.2575 0.5175 15.5775 -3.5625 16.9375 C-7.29790856 6.50948444 -7.29790856 6.50948444 -6.5625 2.9375 C-4.3738798 0.50569978 -3.28548121 -0.08013369 0 0 Z " fill="#90603A" transform="translate(391.5625,282.0625)"/>
<path d="M0 0 C1.670625 0.4021875 1.670625 0.4021875 3.375 0.8125 C5.43027415 4.92304831 5.04106946 10.32828995 5.375 14.8125 C-0.565 15.3075 -0.565 15.3075 -6.625 15.8125 C-6.7060206 13.70896505 -6.76419907 11.60454048 -6.8125 9.5 C-6.84730469 8.32824219 -6.88210938 7.15648437 -6.91796875 5.94921875 C-6.625 2.8125 -6.625 2.8125 -5.33984375 0.8828125 C-3.625 -0.1875 -3.625 -0.1875 0 0 Z " fill="#8C5E3A" transform="translate(357.625,291.1875)"/>
<path d="M0 0 C-0.0625 1.8125 -0.0625 1.8125 -1 4 C-6.66388209 7.44758041 -12.47282085 7.91145294 -19 7 C-21.58805276 5.94395548 -22.90276173 4.92719192 -25 3 C-25 2.34 -25 1.68 -25 1 C-17.05670825 -1.95564344 -8.21778086 -1.9093357 0 0 Z " fill="#F1EFAC" transform="translate(355,199)"/>
<path d="M0 0 C0 0.99 0 1.98 0 3 C-6.34042987 6.82818407 -11.58965586 8.15221814 -19 7 C-22.14783158 5.68430477 -24.43540565 4.1291887 -26 1 C-17.87687398 -2.0945242 -8.40755963 -1.98291501 0 0 Z " fill="#F2F0AC" transform="translate(181,199)"/>
<path d="M0 0 C2.85218077 0.92695875 3.82143939 1.33462482 5.5 3.8125 C6.33869937 6.46488676 6.91860436 9.08441275 7.5 11.8125 C2.055 14.2875 2.055 14.2875 -3.5 16.8125 C-7.24551052 6.92435223 -7.24551052 6.92435223 -5.5 1.8125 C-2.5 -0.1875 -2.5 -0.1875 0 0 Z " fill="#8F5F39" transform="translate(413.5,273.1875)"/>
<path d="M0 0 C3.77260676 3.77260676 6.60423247 7.45578016 7.4375 12.8125 C7.293125 13.534375 7.14875 14.25625 7 15 C4 17 4 17 1.625 17.125 C-1.9810591 15.5795461 -3.01884326 13.26259728 -4.88671875 9.91015625 C-5.97681429 7.85327754 -5.97681429 7.85327754 -8 6 C-5.36 4.02 -2.72 2.04 0 0 Z " fill="#8E5F3A" transform="translate(150,402)"/>
<path d="M0 0 C5.89534884 5.74418605 5.89534884 5.74418605 6.25 10 C6.1675 10.99 6.085 11.98 6 13 C3 15 3 15 0.625 15.0625 C-3.2134611 13.50883718 -5.13295462 10.63875227 -7 7 C-7 6.01 -7 5.02 -7 4 C-4.69 2.68 -2.38 1.36 0 0 Z " fill="#8E5F3A" transform="translate(138,411)"/>
<path d="M0 0 C2.5 0.25 2.5 0.25 4.5 2.25 C4.4765625 4.4140625 4.4765625 4.4140625 4.125 6.875 C3.95871094 8.10089844 3.95871094 8.10089844 3.7890625 9.3515625 C3.64597656 10.29128906 3.64597656 10.29128906 3.5 11.25 C4.82 11.58 6.14 11.91 7.5 12.25 C1.56 12.25 -4.38 12.25 -10.5 12.25 C-10.5 11.92 -10.5 11.59 -10.5 11.25 C-8.85 10.92 -7.2 10.59 -5.5 10.25 C-5.314375 8.331875 -5.314375 8.331875 -5.125 6.375 C-4.7523769 2.52456127 -4.28781213 0.42878121 0 0 Z " fill="#936137" transform="translate(120.5,429.75)"/>
<path d="M0 0 C0.66 0 1.32 0 2 0 C3.18397001 2.36794003 3.12913001 3.82581309 3.1328125 6.46484375 C3.13410156 7.34720703 3.13539063 8.22957031 3.13671875 9.13867188 C3.13285156 10.06228516 3.12898438 10.98589844 3.125 11.9375 C3.12886719 12.85724609 3.13273437 13.77699219 3.13671875 14.72460938 C3.13542969 15.60826172 3.13414062 16.49191406 3.1328125 17.40234375 C3.13168457 18.21179443 3.13055664 19.02124512 3.12939453 19.85522461 C3 22 3 22 2 25 C1.34 25 0.68 25 0 25 C-1.21445591 22.57108818 -1.12924198 20.99280557 -1.1328125 18.28125 C-1.13410156 17.34925781 -1.13539063 16.41726562 -1.13671875 15.45703125 C-1.13285156 14.48121094 -1.12898438 13.50539062 -1.125 12.5 C-1.12886719 11.52417969 -1.13273437 10.54835937 -1.13671875 9.54296875 C-1.13542969 8.61097656 -1.13414062 7.67898437 -1.1328125 6.71875 C-1.13168457 5.86216797 -1.13055664 5.00558594 -1.12939453 4.12304688 C-1 2 -1 2 0 0 Z " fill="#F6F4F2" transform="translate(275,181)"/>
<path d="M0 0 C0.33 0 0.66 0 1 0 C1.06058594 0.86882812 1.12117188 1.73765625 1.18359375 2.6328125 C1.26738281 3.78523437 1.35117187 4.93765625 1.4375 6.125 C1.51871094 7.26195312 1.59992188 8.39890625 1.68359375 9.5703125 C1.97730965 12.7540478 2.43124313 15.85510907 3 19 C4.32 18.34 5.64 17.68 7 17 C7.33 17.66 7.66 18.32 8 19 C5.63129828 22.9478362 3.37166708 23.81600683 -1 25 C-1.99 25.33 -2.98 25.66 -4 26 C-3.43628586 22.73045798 -2.50037734 21.17424117 0 19 C-0.33 18.01 -0.66 17.02 -1 16 C-1.09582087 13.44665565 -1.13939278 10.92731984 -1.125 8.375 C-1.12886719 7.68148437 -1.13273437 6.98796875 -1.13671875 6.2734375 C-1.12666646 1.12666646 -1.12666646 1.12666646 0 0 Z " fill="#572E03" transform="translate(272,187)"/>
<path d="M0 0 C-1.32 5.61 -2.64 11.22 -4 17 C-4.99 17 -5.98 17 -7 17 C-6.41070415 11.49990544 -5.58330805 6.30873874 -4 1 C-2 0 -2 0 0 0 Z " fill="#633504" transform="translate(172,386)"/>
<path d="M0 0 C0.33 0 0.66 0 1 0 C1 3.63 1 7.26 1 11 C1.66 11 2.32 11 3 11 C2.67 12.98 2.34 14.96 2 17 C1.01 17 0.02 17 -1 17 C-0.67 11.39 -0.34 5.78 0 0 Z " fill="#6F4D2A" transform="translate(278,188)"/>
<path d="M0 0 C0 5.94 0 11.88 0 18 C-0.33 18 -0.66 18 -1 18 C-1.33 14.04 -1.66 10.08 -2 6 C-2.33 6 -2.66 6 -3 6 C-3 4.35 -3 2.7 -3 1 C-1 0 -1 0 0 0 Z " fill="#795733" transform="translate(274,182)"/>
<path d="M0 0 C0.99 0 1.98 0 3 0 C2.67 1.32 2.34 2.64 2 4 C6.29 4 10.58 4 15 4 C15 4.33 15 4.66 15 5 C12.70839681 5.02692484 10.41670454 5.04636124 8.125 5.0625 C6.84882813 5.07410156 5.57265625 5.08570313 4.2578125 5.09765625 C1 5 1 5 -1 4 C-0.67 2.68 -0.34 1.36 0 0 Z " fill="#6D3B06" transform="translate(243,402)"/>
</svg>
