<?xml version="1.0" encoding="UTF-8"?>
<svg version="1.1" xmlns="http://www.w3.org/2000/svg" width="512" height="512">
<path d="M0 0 C13.14805766 12.4367693 14.83865144 38.09759659 15.73046875 55.1875 C16.33538308 66.2546208 17.47696436 74.44971471 23.375 83.921875 C25.31607019 87.14314519 26.58378191 90.15043229 27.8203125 93.69140625 C31.68447004 104.22414336 37.51560583 113.77209075 44.0078125 122.87890625 C55.5066921 139.20249057 60.60528161 155.67167039 57.3203125 175.50390625 C54.88621953 186.65362244 50.08784265 195.64626346 42.6328125 204.18359375 C41.87291016 205.06712524 41.87291016 205.06712524 41.09765625 205.96850586 C39.86424652 207.40118108 38.62422246 208.82815762 37.3828125 210.25390625 C38.57358398 210.00632568 39.76435547 209.75874512 40.99121094 209.50366211 C45.4100023 208.58732119 49.83107583 207.6824421 54.25292969 206.78100586 C56.16633255 206.38927409 58.07910251 205.99443762 59.99121094 205.59643555 C62.73992964 205.02485619 65.49073179 204.46448474 68.2421875 203.90625 C69.09649353 203.72609848 69.95079956 203.54594696 70.83099365 203.3603363 C71.63152161 203.20009476 72.43204956 203.03985321 73.25683594 202.87475586 C73.95854919 202.73041611 74.66026245 202.58607635 75.38323975 202.43736267 C77.3828125 202.25390625 77.3828125 202.25390625 81.3828125 203.25390625 C82.0428125 207.21390625 82.7028125 211.17390625 83.3828125 215.25390625 C84.8265625 215.17140625 86.2703125 215.08890625 87.7578125 215.00390625 C95.81771968 215.02670655 102.87003279 217.91916775 108.78125 223.41015625 C117.31344769 233.23258871 118.23871401 242.76997135 117.3828125 255.25390625 C115.39647411 263.73772502 109.31088412 270.60527286 102.0703125 275.19140625 C100.19712074 276.27704784 98.31917752 277.28572374 96.3828125 278.25390625 C96.69014816 279.72515961 96.69014816 279.72515961 97.00369263 281.22613525 C98.93153182 290.46373921 100.84515843 299.70418757 102.7448597 308.94762039 C103.72200724 313.69983543 104.70415707 318.45090162 105.69775391 323.19970703 C106.6562005 327.78143204 107.60148622 332.36569186 108.53765488 336.95201874 C108.89738086 338.70250187 109.26186234 340.4520146 109.63113785 342.20050812 C110.14703567 344.64723425 110.64601133 347.09684563 111.14111328 349.54785156 C111.29791565 350.2721788 111.45471802 350.99650604 111.61627197 351.74278259 C112.16374078 354.52509057 112.58093261 356.66993714 111.65678883 359.39389801 C110.04134843 361.75244455 109.13771362 361.94949795 106.36610413 362.49420166 C105.52627487 362.6679834 104.68644562 362.84176514 103.82116699 363.02081299 C102.89799683 363.19344666 101.97482666 363.36608032 101.02368164 363.54394531 C100.05285141 363.73960083 99.08202118 363.93525635 98.08177185 364.13684082 C94.86355845 364.78103561 91.64109132 365.40040794 88.41796875 366.01953125 C86.18570691 366.46079265 83.95373035 366.90349953 81.72203064 367.34759521 C75.83903519 368.51384018 69.95207037 369.65873522 64.06414795 370.79980469 C59.25429541 371.73563743 54.44746541 372.68645703 49.64072514 373.63812637 C43.92160851 374.77019368 38.20125186 375.89591873 32.48046875 377.01953125 C31.38420732 377.23492805 30.2879459 377.45032486 29.15846443 377.67224884 C26.06340253 378.27869657 22.96754811 378.88089123 19.87133789 379.48144531 C18.48961899 379.7525412 18.48961899 379.7525412 17.07998657 380.02911377 C16.23733749 380.19161621 15.39468842 380.35411865 14.52650452 380.52154541 C13.79443315 380.66383701 13.06236177 380.80612862 12.30810642 380.95273209 C10.3828125 381.25390625 10.3828125 381.25390625 7.3828125 381.25390625 C7.7128125 382.24390625 8.0428125 383.23390625 8.3828125 384.25390625 C8.53875963 385.83278351 8.65391969 387.41589719 8.7421875 389 C8.83886719 390.37961914 8.83886719 390.37961914 8.9375 391.78710938 C9.06738055 393.71843314 9.18204756 395.65084204 9.28125 397.58398438 C9.61013445 403.2760005 9.61013445 403.2760005 12.8515625 407.76953125 C13.686875 408.259375 14.5221875 408.74921875 15.3828125 409.25390625 C18.28207392 413.08507313 19.21142478 416.45505018 19.3828125 421.25390625 C17.65617398 425.47457818 15.49348069 427.37729686 11.3828125 429.25390625 C-2.79454523 433.50711357 -18.94337505 432.54996514 -33.6171875 432.25390625 C-34.34341309 432.24133789 -35.06963867 432.22876953 -35.81787109 432.21582031 C-37.85585012 432.16989666 -39.89291369 432.08769126 -41.9296875 432.00390625 C-43.08082031 431.9575 -44.23195313 431.91109375 -45.41796875 431.86328125 C-50.20285419 430.9518745 -53.37554555 428.95012731 -56.25830078 425.01196289 C-57.85708076 421.76700827 -58.04344859 419.46568844 -58.12890625 415.859375 C-58.16435547 414.65732422 -58.19980469 413.45527344 -58.23632812 412.21679688 C-58.27016602 410.34797852 -58.27016602 410.34797852 -58.3046875 408.44140625 C-58.33884766 407.17619141 -58.37300781 405.91097656 -58.40820312 404.60742188 C-58.49055879 401.4896718 -58.55975279 398.37219866 -58.6171875 395.25390625 C-70.7751611 396.0055092 -70.7751611 396.0055092 -80.84765625 401.6640625 C-82.09868616 404.8364694 -82.87316272 407.92615363 -83.6171875 411.25390625 C-84.5026887 413.95896743 -85.52227281 416.60213841 -86.5546875 419.25390625 C-86.99683594 420.49140625 -87.43898437 421.72890625 -87.89453125 423.00390625 C-89.94290894 426.86841926 -91.76399843 428.25199717 -95.6171875 430.25390625 C-112.42970807 434.72959432 -144.91624027 433.91856232 -160.77734375 426.203125 C-162.55659649 425.04640041 -164.11546306 423.75563069 -165.6171875 422.25390625 C-165.65799533 420.25432261 -165.65973106 418.25345371 -165.6171875 416.25390625 C-166.43920654 416.43042725 -167.26122559 416.60694824 -168.1081543 416.78881836 C-171.17384983 417.44697439 -174.23961238 418.10481711 -177.30541992 418.76245117 C-178.62933988 419.04650629 -179.95323349 419.33068429 -181.27709961 419.61499023 C-183.18596482 420.0249045 -185.09493448 420.43433228 -187.00390625 420.84375 C-188.15076904 421.08988037 -189.29763184 421.33601074 -190.47924805 421.58959961 C-191.51476807 421.8088208 -192.55028809 422.02804199 -193.6171875 422.25390625 C-194.94133667 422.54309937 -194.94133667 422.54309937 -196.29223633 422.83813477 C-199.4152377 423.39662173 -202.45279122 423.31595324 -205.6171875 423.25390625 C-206.12463173 421.36005188 -206.62283324 419.46371959 -207.1171875 417.56640625 C-207.395625 416.51066406 -207.6740625 415.45492188 -207.9609375 414.3671875 C-208.556359 411.54247953 -208.74505242 409.12553917 -208.6171875 406.25390625 C-209.9165625 406.19203125 -211.2159375 406.13015625 -212.5546875 406.06640625 C-220.96775744 405.11398324 -227.18563611 400.52108093 -232.6171875 394.25390625 C-232.6171875 393.59390625 -232.6171875 392.93390625 -232.6171875 392.25390625 C-233.26042969 392.28871094 -233.90367187 392.32351563 -234.56640625 392.359375 C-248.56789574 392.77882048 -261.55164753 389.23331872 -271.9296875 379.50390625 C-280.70318154 370.0472303 -284.78838378 359.82452828 -285.0546875 347.00390625 C-285.07708496 346.33020996 -285.09948242 345.65651367 -285.12255859 344.96240234 C-285.09896759 339.94248562 -283.75310578 337.11085683 -280.6171875 333.25390625 C-275.86927907 329.941412 -271.23842651 329.37406014 -265.6171875 330.25390625 C-260.72594949 332.00683548 -257.91389581 334.61455547 -255.6171875 339.25390625 C-254.96838822 342.53034264 -254.61430105 345.77964375 -254.2421875 349.09765625 C-253.57051693 352.48959261 -252.71093613 354.51334741 -250.6171875 357.25390625 C-246.10735463 360.17455992 -240.94153287 361.70781955 -235.6171875 362.25390625 C-235.3903125 361.38765625 -235.1634375 360.52140625 -234.9296875 359.62890625 C-232.45832912 353.2739847 -228.2760551 349.67554713 -222.6171875 346.25390625 C-223.15057271 338.5385551 -224.54210382 331.08899855 -226.13046455 323.52745819 C-226.56820402 321.4425076 -226.99924966 319.35626595 -227.42869568 317.26959229 C-228.49489696 312.09520159 -229.57139175 306.92296665 -230.64916992 301.75097656 C-231.56405009 297.35955175 -232.47419836 292.96720114 -233.37775993 288.57343292 C-233.80074265 286.52627903 -234.23064176 284.48065753 -234.66078186 282.43499756 C-234.91782394 281.18639954 -235.17486603 279.93780151 -235.43969727 278.65136719 C-235.66762466 277.55789978 -235.89555206 276.46443237 -236.13038635 275.33782959 C-236.61702918 272.25490922 -236.70536275 269.36927322 -236.6171875 266.25390625 C-232.75707088 264.90825183 -228.97303172 263.82362131 -224.96655273 263.01708984 C-223.88200302 262.79701263 -222.79745331 262.57693542 -221.68003845 262.35018921 C-220.52363358 262.11990021 -219.3672287 261.88961121 -218.17578125 261.65234375 C-216.97534683 261.41101715 -215.77491241 261.16969055 -214.5381012 260.92105103 C-212.00601087 260.41321505 -209.47352499 259.90734788 -206.94067383 259.40332031 C-203.06395275 258.63075266 -199.18916752 257.84896829 -195.31445312 257.06640625 C-192.85167418 256.57366026 -190.38878709 256.08145438 -187.92578125 255.58984375 C-186.18813759 255.23833755 -186.18813759 255.23833755 -184.41539001 254.87973022 C-183.33399246 254.66595734 -182.25259491 254.45218445 -181.13842773 254.23193359 C-179.71662453 253.94786148 -179.71662453 253.94786148 -178.26609802 253.65805054 C-175.67017416 253.26199043 -173.23837812 253.17955334 -170.6171875 253.25390625 C-170.6171875 252.59390625 -170.6171875 251.93390625 -170.6171875 251.25390625 C-171.91011719 251.00769531 -173.20304687 250.76148438 -174.53515625 250.5078125 C-179.67046175 249.36027503 -184.2023859 247.47025042 -188.9296875 245.19140625 C-189.75782959 244.7936499 -190.58597168 244.39589355 -191.43920898 243.98608398 C-213.05904256 233.28884728 -227.46730666 215.69092576 -235.6171875 193.25390625 C-238.66734321 183.87858789 -240.92262739 175.15735893 -240.3984375 165.23828125 C-239.80870694 150.76555859 -239.65314541 138.99215362 -247.02734375 126.09375 C-254.84776457 112.32166124 -259.34312517 94.8748017 -261.6171875 79.25390625 C-261.74480469 78.52300781 -261.87242187 77.79210937 -262.00390625 77.0390625 C-263.68953641 66.33421639 -263.85103407 53.77169791 -258.3984375 44.08984375 C-253.73128143 37.99661222 -246.98588791 35.52567172 -239.6171875 34.25390625 C-217.92014121 32.86097624 -196.88542349 35.38493799 -175.96606445 41.12207031 C-168.24927484 43.1458191 -162.98329304 40.69310614 -156.0546875 37.56640625 C-140.16111261 30.66432891 -123.7624384 26.54221663 -106.6171875 24.25390625 C-105.67359375 24.12242188 -104.73 23.9909375 -103.7578125 23.85546875 C-97.76904458 23.1673184 -91.76331847 23.15945345 -85.7421875 23.12890625 C-84.86812256 23.12125244 -83.99405762 23.11359863 -83.09350586 23.10571289 C-78.15155014 23.10524977 -73.672348 23.57730586 -68.8046875 24.50390625 C-63.66007635 24.97516834 -61.19300613 23.66969505 -57.29516602 20.58886719 C-55.39371342 18.9733417 -53.52164501 17.32835539 -51.65234375 15.67578125 C-42.35821664 7.53217992 -30.5978261 0.43727162 -18.6171875 -2.74609375 C-17.10125 -3.17921875 -17.10125 -3.17921875 -15.5546875 -3.62109375 C-9.97800003 -3.8583996 -4.68851588 -3.12800985 0 0 Z " fill="#FE9723" transform="translate(339.6171875,41.74609375)"/>
<path d="M0 0 C1.1577506 3.47325181 1.06866652 6.36067448 1 10 C0.38253906 10.1959375 -0.23492187 10.391875 -0.87109375 10.59375 C-9.27659658 13.56190321 -16.30203373 18.15607941 -20.5 26.25 C-24.09577445 34.30719829 -24.57172291 44.05468614 -21.90625 52.44140625 C-19.02063591 58.57333619 -15.79214223 63.39040412 -10 67 C-9.36707031 67.39832031 -8.73414063 67.79664063 -8.08203125 68.20703125 C-1.17204465 71.87593595 6.3425287 71.7982221 14 72 C16.36312761 81.03583756 18.31430775 90.12688222 20.13671875 99.28515625 C20.42372643 100.71816818 20.7109052 102.15114586 20.99824524 103.58409119 C21.59420674 106.55951543 22.1881176 109.5353393 22.78051758 112.51147461 C23.53983475 116.32529434 24.30440342 120.13803966 25.07046795 123.95050907 C25.66190157 126.89685332 26.2505942 129.84374001 26.83844948 132.79080009 C27.11948811 134.19799165 27.40138096 135.60501288 27.68414879 137.01185799 C28.07697174 138.96836613 28.46570791 140.92569348 28.85424805 142.88305664 C29.07614304 143.99491837 29.29803802 145.10678009 29.5266571 146.25233459 C30 149 30 149 30 152 C15.24503149 154.96516545 0.48371642 157.89760282 -14.28125 160.8125 C-15.13521362 160.98109528 -15.98917725 161.14969055 -16.86901855 161.32339478 C-23.9766017 162.72649565 -31.08433782 164.128821 -38.19207764 165.53112793 C-44.36770431 166.74956807 -50.54327656 167.96828346 -56.71875 169.1875 C-57.56992716 169.35554579 -58.42110432 169.52359158 -59.29807472 169.69672966 C-71.46112375 172.09853627 -83.62095143 174.51586712 -95.77685547 176.95361328 C-100.55440074 177.91169026 -105.33355735 178.86145577 -110.11328125 179.80859375 C-112.17606459 180.21830888 -114.23879929 180.62826792 -116.30151367 181.03833008 C-117.63666201 181.30334981 -118.97194769 181.56767857 -120.30737305 181.83129883 C-128.34884067 183.41967661 -136.37288626 185.07357394 -144.38304138 186.81332397 C-166.95429902 191.70880298 -189.60321639 196.22995997 -212.24267578 200.79711914 C-218.54849517 202.06935037 -224.85343963 203.34586397 -231.15818405 204.62341022 C-236.0528491 205.61457859 -240.94805605 206.60304917 -245.84342194 207.59074974 C-248.17035122 208.06066304 -250.49709091 208.53151621 -252.82363129 209.00335121 C-256.05861751 209.65910438 -259.29434019 210.31109674 -262.53027344 210.9621582 C-263.47675247 211.15485291 -264.42323151 211.34754761 -265.39839172 211.54608154 C-270.58902159 212.58584461 -275.738249 213.41395046 -281 214 C-282.76615118 209.29026351 -283.48594831 204.96916636 -284 200 C-283.23816406 199.85304688 -282.47632813 199.70609375 -281.69140625 199.5546875 C-271.65663828 197.37485026 -264.10284627 193.77988479 -258.21875 185.1171875 C-253.86161347 177.5480593 -252.78815359 169.64450438 -254 161 C-256.98514095 151.68274188 -262.50781454 144.64798992 -271.05078125 139.84765625 C-278.70527555 136.71954841 -289.10863904 136.85201739 -297 139 C-297.18062988 138.03626465 -297.36125977 137.0725293 -297.54736328 136.07958984 C-300.75180961 118.99738904 -303.97547215 101.91961029 -307.375 84.875 C-307.62523926 83.61478027 -307.87547852 82.35456055 -308.13330078 81.05615234 C-308.3651709 79.90066895 -308.59704102 78.74518555 -308.8359375 77.5546875 C-309.03751465 76.54905762 -309.2390918 75.54342773 -309.44677734 74.50732422 C-309.97823152 71.89131081 -309.97823152 71.89131081 -311 69 C-311.03954234 66.66700175 -311.04401732 64.33291811 -311 62 C-293.39053447 58.09569772 -275.73805858 54.55693872 -258.00317383 51.27319336 C-256.83895401 51.05666107 -256.83895401 51.05666107 -255.6512146 50.83575439 C-254.18977417 50.56425422 -252.7279786 50.29465638 -251.26577759 50.02728271 C-248.42409924 49.49958577 -245.74687933 48.91562644 -243 48 C-237.63205238 47.82175217 -232.61868809 48.22560409 -227.2890625 48.96875 C-217.3249041 50.23508403 -207.41101417 50.48295096 -197.375 50.5 C-195.95784195 50.50401825 -195.95784195 50.50401825 -194.51205444 50.50811768 C-174.27672016 50.49584139 -154.81270749 47.95166806 -135 44 C-133.77748535 43.75975098 -132.5549707 43.51950195 -131.29541016 43.27197266 C-103.61062823 37.65551941 -74.9720925 27.79679882 -52 11 C-49.13898402 9.09265601 -47.74807594 8.57975915 -44.484375 7.94677734 C-43.57333008 7.76674164 -42.66228516 7.58670593 -41.72363281 7.4012146 C-40.74233398 7.21467316 -39.76103516 7.02813171 -38.75 6.8359375 C-37.2355127 6.54053574 -37.2355127 6.54053574 -35.69042969 6.23916626 C-33.55595864 5.82421041 -31.42084662 5.41254015 -29.28515625 5.00390625 C-26.01153854 4.37720892 -22.74004305 3.74027164 -19.46875 3.1015625 C-17.39595015 2.69991748 -15.32303712 2.29885607 -13.25 1.8984375 C-12.26870117 1.7078476 -11.28740234 1.51725769 -10.27636719 1.32089233 C-9.36532227 1.14716095 -8.45427734 0.97342957 -7.515625 0.79443359 C-6.71415039 0.64058197 -5.91267578 0.48673035 -5.08691406 0.32821655 C-3 0 -3 0 0 0 Z " fill="#FBFDFD" transform="translate(418,248)"/>
<path d="M0 0 C13.14805766 12.4367693 14.83865144 38.09759659 15.73046875 55.1875 C16.33538308 66.2546208 17.47696436 74.44971471 23.375 83.921875 C25.31607019 87.14314519 26.58378191 90.15043229 27.8203125 93.69140625 C31.68447004 104.22414336 37.51560583 113.77209075 44.0078125 122.87890625 C55.5066921 139.20249057 60.60528161 155.67167039 57.3203125 175.50390625 C54.88621953 186.65362244 50.08784265 195.64626346 42.6328125 204.18359375 C41.87291016 205.06712524 41.87291016 205.06712524 41.09765625 205.96850586 C39.86424652 207.40118108 38.62422246 208.82815762 37.3828125 210.25390625 C38.57358398 210.00632568 39.76435547 209.75874512 40.99121094 209.50366211 C45.4100023 208.58732119 49.83107583 207.6824421 54.25292969 206.78100586 C56.16633255 206.38927409 58.07910251 205.99443762 59.99121094 205.59643555 C62.73992964 205.02485619 65.49073179 204.46448474 68.2421875 203.90625 C69.09649353 203.72609848 69.95079956 203.54594696 70.83099365 203.3603363 C71.63152161 203.20009476 72.43204956 203.03985321 73.25683594 202.87475586 C73.95854919 202.73041611 74.66026245 202.58607635 75.38323975 202.43736267 C77.3828125 202.25390625 77.3828125 202.25390625 81.3828125 203.25390625 C82.0428125 207.21390625 82.7028125 211.17390625 83.3828125 215.25390625 C84.8265625 215.17140625 86.2703125 215.08890625 87.7578125 215.00390625 C95.81771968 215.02670655 102.87003279 217.91916775 108.78125 223.41015625 C117.31344769 233.23258871 118.23871401 242.76997135 117.3828125 255.25390625 C115.39647411 263.73772502 109.31088412 270.60527286 102.0703125 275.19140625 C100.19712074 276.27704784 98.31917752 277.28572374 96.3828125 278.25390625 C96.69014816 279.72515961 96.69014816 279.72515961 97.00369263 281.22613525 C98.93153182 290.46373921 100.84515843 299.70418757 102.7448597 308.94762039 C103.72200724 313.69983543 104.70415707 318.45090162 105.69775391 323.19970703 C106.6562005 327.78143204 107.60148622 332.36569186 108.53765488 336.95201874 C108.89738086 338.70250187 109.26186234 340.4520146 109.63113785 342.20050812 C110.14703567 344.64723425 110.64601133 347.09684563 111.14111328 349.54785156 C111.29791565 350.2721788 111.45471802 350.99650604 111.61627197 351.74278259 C112.16374078 354.52509057 112.58093261 356.66993714 111.65678883 359.39389801 C110.04134843 361.75244455 109.13771362 361.94949795 106.36610413 362.49420166 C105.52627487 362.6679834 104.68644562 362.84176514 103.82116699 363.02081299 C102.89799683 363.19344666 101.97482666 363.36608032 101.02368164 363.54394531 C100.05285141 363.73960083 99.08202118 363.93525635 98.08177185 364.13684082 C94.86355845 364.78103561 91.64109132 365.40040794 88.41796875 366.01953125 C86.18570691 366.46079265 83.95373035 366.90349953 81.72203064 367.34759521 C75.83903519 368.51384018 69.95207037 369.65873522 64.06414795 370.79980469 C59.25429541 371.73563743 54.44746541 372.68645703 49.64072514 373.63812637 C43.92160851 374.77019368 38.20125186 375.89591873 32.48046875 377.01953125 C31.38420732 377.23492805 30.2879459 377.45032486 29.15846443 377.67224884 C26.06340253 378.27869657 22.96754811 378.88089123 19.87133789 379.48144531 C18.48961899 379.7525412 18.48961899 379.7525412 17.07998657 380.02911377 C16.23733749 380.19161621 15.39468842 380.35411865 14.52650452 380.52154541 C13.79443315 380.66383701 13.06236177 380.80612862 12.30810642 380.95273209 C10.3828125 381.25390625 10.3828125 381.25390625 7.3828125 381.25390625 C7.7128125 382.24390625 8.0428125 383.23390625 8.3828125 384.25390625 C8.53875963 385.83278351 8.65391969 387.41589719 8.7421875 389 C8.83886719 390.37961914 8.83886719 390.37961914 8.9375 391.78710938 C9.06738055 393.71843314 9.18204756 395.65084204 9.28125 397.58398438 C9.61013445 403.2760005 9.61013445 403.2760005 12.8515625 407.76953125 C13.686875 408.259375 14.5221875 408.74921875 15.3828125 409.25390625 C18.28207392 413.08507313 19.21142478 416.45505018 19.3828125 421.25390625 C17.65617398 425.47457818 15.49348069 427.37729686 11.3828125 429.25390625 C-2.79454523 433.50711357 -18.94337505 432.54996514 -33.6171875 432.25390625 C-34.34341309 432.24133789 -35.06963867 432.22876953 -35.81787109 432.21582031 C-37.85585012 432.16989666 -39.89291369 432.08769126 -41.9296875 432.00390625 C-43.08082031 431.9575 -44.23195313 431.91109375 -45.41796875 431.86328125 C-50.20285419 430.9518745 -53.37554555 428.95012731 -56.25830078 425.01196289 C-57.85708076 421.76700827 -58.04344859 419.46568844 -58.12890625 415.859375 C-58.16435547 414.65732422 -58.19980469 413.45527344 -58.23632812 412.21679688 C-58.27016602 410.34797852 -58.27016602 410.34797852 -58.3046875 408.44140625 C-58.33884766 407.17619141 -58.37300781 405.91097656 -58.40820312 404.60742188 C-58.49055879 401.4896718 -58.55975279 398.37219866 -58.6171875 395.25390625 C-70.7751611 396.0055092 -70.7751611 396.0055092 -80.84765625 401.6640625 C-82.09868616 404.8364694 -82.87316272 407.92615363 -83.6171875 411.25390625 C-84.5026887 413.95896743 -85.52227281 416.60213841 -86.5546875 419.25390625 C-86.99683594 420.49140625 -87.43898437 421.72890625 -87.89453125 423.00390625 C-89.94290894 426.86841926 -91.76399843 428.25199717 -95.6171875 430.25390625 C-112.42970807 434.72959432 -144.91624027 433.91856232 -160.77734375 426.203125 C-162.55659649 425.04640041 -164.11546306 423.75563069 -165.6171875 422.25390625 C-165.65799533 420.25432261 -165.65973106 418.25345371 -165.6171875 416.25390625 C-166.43920654 416.43042725 -167.26122559 416.60694824 -168.1081543 416.78881836 C-171.17384983 417.44697439 -174.23961238 418.10481711 -177.30541992 418.76245117 C-178.62933988 419.04650629 -179.95323349 419.33068429 -181.27709961 419.61499023 C-183.18596482 420.0249045 -185.09493448 420.43433228 -187.00390625 420.84375 C-188.15076904 421.08988037 -189.29763184 421.33601074 -190.47924805 421.58959961 C-191.51476807 421.8088208 -192.55028809 422.02804199 -193.6171875 422.25390625 C-194.94133667 422.54309937 -194.94133667 422.54309937 -196.29223633 422.83813477 C-199.4152377 423.39662173 -202.45279122 423.31595324 -205.6171875 423.25390625 C-206.12463173 421.36005188 -206.62283324 419.46371959 -207.1171875 417.56640625 C-207.395625 416.51066406 -207.6740625 415.45492188 -207.9609375 414.3671875 C-208.556359 411.54247953 -208.74505242 409.12553917 -208.6171875 406.25390625 C-209.9165625 406.19203125 -211.2159375 406.13015625 -212.5546875 406.06640625 C-220.96775744 405.11398324 -227.18563611 400.52108093 -232.6171875 394.25390625 C-232.6171875 393.59390625 -232.6171875 392.93390625 -232.6171875 392.25390625 C-233.26042969 392.28871094 -233.90367187 392.32351563 -234.56640625 392.359375 C-248.56789574 392.77882048 -261.55164753 389.23331872 -271.9296875 379.50390625 C-280.70318154 370.0472303 -284.78838378 359.82452828 -285.0546875 347.00390625 C-285.07708496 346.33020996 -285.09948242 345.65651367 -285.12255859 344.96240234 C-285.09896759 339.94248562 -283.75310578 337.11085683 -280.6171875 333.25390625 C-275.86927907 329.941412 -271.23842651 329.37406014 -265.6171875 330.25390625 C-260.72594949 332.00683548 -257.91389581 334.61455547 -255.6171875 339.25390625 C-254.96838822 342.53034264 -254.61430105 345.77964375 -254.2421875 349.09765625 C-253.57051693 352.48959261 -252.71093613 354.51334741 -250.6171875 357.25390625 C-246.10735463 360.17455992 -240.94153287 361.70781955 -235.6171875 362.25390625 C-235.3903125 361.38765625 -235.1634375 360.52140625 -234.9296875 359.62890625 C-232.45832912 353.2739847 -228.2760551 349.67554713 -222.6171875 346.25390625 C-223.15057271 338.5385551 -224.54210382 331.08899855 -226.13046455 323.52745819 C-226.56820402 321.4425076 -226.99924966 319.35626595 -227.42869568 317.26959229 C-228.49489696 312.09520159 -229.57139175 306.92296665 -230.64916992 301.75097656 C-231.56405009 297.35955175 -232.47419836 292.96720114 -233.37775993 288.57343292 C-233.80074265 286.52627903 -234.23064176 284.48065753 -234.66078186 282.43499756 C-234.91782394 281.18639954 -235.17486603 279.93780151 -235.43969727 278.65136719 C-235.66762466 277.55789978 -235.89555206 276.46443237 -236.13038635 275.33782959 C-236.61702918 272.25490922 -236.70536275 269.36927322 -236.6171875 266.25390625 C-232.75707088 264.90825183 -228.97303172 263.82362131 -224.96655273 263.01708984 C-223.88200302 262.79701263 -222.79745331 262.57693542 -221.68003845 262.35018921 C-220.52363358 262.11990021 -219.3672287 261.88961121 -218.17578125 261.65234375 C-216.97534683 261.41101715 -215.77491241 261.16969055 -214.5381012 260.92105103 C-212.00601087 260.41321505 -209.47352499 259.90734788 -206.94067383 259.40332031 C-203.06395275 258.63075266 -199.18916752 257.84896829 -195.31445312 257.06640625 C-192.85167418 256.57366026 -190.38878709 256.08145438 -187.92578125 255.58984375 C-186.18813759 255.23833755 -186.18813759 255.23833755 -184.41539001 254.87973022 C-183.33399246 254.66595734 -182.25259491 254.45218445 -181.13842773 254.23193359 C-179.71662453 253.94786148 -179.71662453 253.94786148 -178.26609802 253.65805054 C-175.67017416 253.26199043 -173.23837812 253.17955334 -170.6171875 253.25390625 C-170.6171875 252.59390625 -170.6171875 251.93390625 -170.6171875 251.25390625 C-171.91011719 251.00769531 -173.20304687 250.76148438 -174.53515625 250.5078125 C-179.67046175 249.36027503 -184.2023859 247.47025042 -188.9296875 245.19140625 C-189.75782959 244.7936499 -190.58597168 244.39589355 -191.43920898 243.98608398 C-213.05904256 233.28884728 -227.46730666 215.69092576 -235.6171875 193.25390625 C-238.66734321 183.87858789 -240.92262739 175.15735893 -240.3984375 165.23828125 C-239.80870694 150.76555859 -239.65314541 138.99215362 -247.02734375 126.09375 C-254.84776457 112.32166124 -259.34312517 94.8748017 -261.6171875 79.25390625 C-261.74480469 78.52300781 -261.87242187 77.79210937 -262.00390625 77.0390625 C-263.68953641 66.33421639 -263.85103407 53.77169791 -258.3984375 44.08984375 C-253.73128143 37.99661222 -246.98588791 35.52567172 -239.6171875 34.25390625 C-217.92014121 32.86097624 -196.88542349 35.38493799 -175.96606445 41.12207031 C-168.24927484 43.1458191 -162.98329304 40.69310614 -156.0546875 37.56640625 C-140.16111261 30.66432891 -123.7624384 26.54221663 -106.6171875 24.25390625 C-105.67359375 24.12242188 -104.73 23.9909375 -103.7578125 23.85546875 C-97.76904458 23.1673184 -91.76331847 23.15945345 -85.7421875 23.12890625 C-84.86812256 23.12125244 -83.99405762 23.11359863 -83.09350586 23.10571289 C-78.15155014 23.10524977 -73.672348 23.57730586 -68.8046875 24.50390625 C-63.66007635 24.97516834 -61.19300613 23.66969505 -57.29516602 20.58886719 C-55.39371342 18.9733417 -53.52164501 17.32835539 -51.65234375 15.67578125 C-42.35821664 7.53217992 -30.5978261 0.43727162 -18.6171875 -2.74609375 C-17.10125 -3.17921875 -17.10125 -3.17921875 -15.5546875 -3.62109375 C-9.97800003 -3.8583996 -4.68851588 -3.12800985 0 0 Z M-93.6171875 27.25390625 C-92.27435638 29.9396483 -92.27435638 29.9396483 -89.6171875 32.25390625 C-86.35419825 32.85171166 -83.1674367 32.63143518 -79.8671875 32.44140625 C-65.9583532 31.81200054 -65.9583532 31.81200054 -59.6171875 35.37890625 C-57.95831877 38.48928511 -57.79530819 41.88225962 -58.6171875 45.25390625 C-60.84965141 48.32286515 -62.0898743 49.15455739 -65.8515625 49.86328125 C-67.59179688 49.93289062 -67.59179688 49.93289062 -69.3671875 50.00390625 C-70.53765625 50.060625 -71.708125 50.11734375 -72.9140625 50.17578125 C-73.80609375 50.2015625 -74.698125 50.22734375 -75.6171875 50.25390625 C-74.31359152 53.55987264 -72.94442146 56.82308374 -71.4921875 60.06640625 C-71.13898438 60.85660156 -70.78578125 61.64679688 -70.421875 62.4609375 C-70.15632812 63.05261719 -69.89078125 63.64429688 -69.6171875 64.25390625 C-68.37582031 64.30289063 -67.13445312 64.351875 -65.85546875 64.40234375 C-64.21352056 64.47740424 -62.57159453 64.55295064 -60.9296875 64.62890625 C-60.11306641 64.65984375 -59.29644531 64.69078125 -58.45507812 64.72265625 C-50.42615926 65.11272518 -50.42615926 65.11272518 -46.6171875 67.25390625 C-44.45967216 70.49017927 -44.3635523 71.08969463 -44.7421875 74.75390625 C-44.80664062 75.52734375 -44.87109375 76.30078125 -44.9375 77.09765625 C-45.86878305 80.05207145 -46.89316288 80.80199214 -49.6171875 82.25390625 C-52.8515625 82.765625 -52.8515625 82.765625 -56.3671875 82.94140625 C-58.12289062 83.04001953 -58.12289062 83.04001953 -59.9140625 83.140625 C-60.80609375 83.17800781 -61.698125 83.21539062 -62.6171875 83.25390625 C-62.55917969 83.91777344 -62.50117188 84.58164063 -62.44140625 85.265625 C-62.20622499 89.86845824 -62.08324901 92.44490854 -64.6796875 96.37890625 C-68.36613047 98.73195495 -70.31854216 98.95732094 -74.6171875 98.25390625 C-79.22834525 95.3078888 -80.20403934 90.26415881 -81.6171875 85.25390625 C-89.43472779 87.65888046 -89.43472779 87.65888046 -96.8671875 91.00390625 C-100.83644171 92.80811271 -103.26731009 92.81518075 -107.6171875 92.25390625 C-110.1171875 90.19140625 -110.1171875 90.19140625 -111.6171875 87.25390625 C-111.94389065 83.46414975 -111.81909651 80.85963329 -110.6171875 77.25390625 C-108.39453125 76.22265625 -108.39453125 76.22265625 -105.6171875 75.25390625 C-103.80083166 74.42901102 -101.98840842 73.59541045 -100.1796875 72.75390625 C-96.37874087 71.01266178 -92.6324832 69.44764281 -88.6171875 68.25390625 C-90.10524461 62.45048351 -93.20816305 58.07799746 -96.6171875 53.25390625 C-101.60790367 54.60385407 -106.2872366 55.94786331 -110.8046875 58.50390625 C-114.67976963 60.56695605 -117.32594292 60.34775291 -121.6171875 59.25390625 C-123.1021875 58.75890625 -123.1021875 58.75890625 -124.6171875 58.25390625 C-126.35409715 49.39738674 -126.35409715 49.39738674 -123.8046875 45.44140625 C-119.61653073 42.56718101 -115.23221133 40.35979091 -110.6171875 38.25390625 C-115.32897377 33.05962452 -115.32897377 33.05962452 -121.73046875 30.9765625 C-126.35042658 31.30622783 -130.39269286 32.33350152 -134.8046875 33.69140625 C-135.67182373 33.95655029 -136.53895996 34.22169434 -137.43237305 34.49487305 C-161.82078303 42.24472838 -181.92841128 54.93182625 -200.6171875 72.25390625 C-201.21015625 72.78113281 -201.803125 73.30835938 -202.4140625 73.8515625 C-223.795554 93.75671292 -236.27761435 124.74642972 -237.93359375 153.5078125 C-238.06480163 161.89636967 -237.04175137 169.9990674 -235.6171875 178.25390625 C-232.77922211 179.54301775 -232.77922211 179.54301775 -230.62768555 178.54125977 C-229.51453979 177.96782837 -229.51453979 177.96782837 -228.37890625 177.3828125 C-227.55841797 176.97353516 -226.73792969 176.56425781 -225.89257812 176.14257812 C-224.17818371 175.26403186 -222.46462952 174.38384388 -220.75195312 173.50195312 C-216.21897546 171.24432469 -212.81600666 169.56500263 -207.6171875 170.25390625 C-204.27453545 171.46097504 -203.67014184 172.17447474 -201.6171875 175.25390625 C-201.28009102 179.21478989 -201.30051328 181.98696083 -203.6171875 185.25390625 C-206.13184445 186.71618653 -208.5510184 187.97725691 -211.1796875 189.19140625 C-212.62963701 189.88649853 -214.07886058 190.58310721 -215.52734375 191.28125 C-216.22875488 191.61624512 -216.93016602 191.95124023 -217.65283203 192.29638672 C-221.39612054 194.12104214 -225.0127549 196.17134519 -228.6171875 198.25390625 C-226.41121739 206.63659265 -221.33402194 213.86450305 -215.6171875 220.25390625 C-212.13134714 218.77340327 -210.01820568 216.80580345 -207.4296875 214.06640625 C-196.19046197 202.64232504 -196.19046197 202.64232504 -190.3046875 201.75390625 C-189.4178125 201.91890625 -188.5309375 202.08390625 -187.6171875 202.25390625 C-186.4725 202.40859375 -186.4725 202.40859375 -185.3046875 202.56640625 C-184.7478125 202.79328125 -184.1909375 203.02015625 -183.6171875 203.25390625 C-182.21655447 207.45580534 -181.57316966 210.88591984 -182.6171875 215.25390625 C-185.1791973 218.91719567 -188.32408732 221.81256487 -191.6171875 224.81640625 C-192.47570312 225.63431641 -193.33421875 226.45222656 -194.21875 227.29492188 C-196.33266444 229.3031406 -198.46457666 231.28735884 -200.6171875 233.25390625 C-182.87370526 248.48683842 -155.24998204 254.30050891 -132.5390625 254.4921875 C-131.58286514 254.50198135 -130.62666779 254.51177521 -129.64149475 254.52186584 C-108.58777966 254.69296847 -88.33327674 254.38131029 -67.6171875 250.25390625 C-65.91804199 249.94042236 -65.91804199 249.94042236 -64.18457031 249.62060547 C-28.94066152 243.10931039 5.7077779 231.61135233 33.3828125 208.25390625 C34.08148438 207.67125 34.78015625 207.08859375 35.5 206.48828125 C41.30866617 201.18820797 45.5951314 194.09062768 49.3828125 187.25390625 C49.3828125 186.26390625 49.3828125 185.27390625 49.3828125 184.25390625 C48.63515625 184.08375 47.8875 183.91359375 47.1171875 183.73828125 C46.13234375 183.4959375 45.1475 183.25359375 44.1328125 183.00390625 C43.15828125 182.771875 42.18375 182.53984375 41.1796875 182.30078125 C37.99370529 181.10826277 36.46919615 179.92525727 34.3828125 177.25390625 C33.65289781 174.50599212 33.83595031 172.03378904 34.3828125 169.25390625 C35.8828125 166.75390625 35.8828125 166.75390625 38.3828125 165.25390625 C43.82339839 164.80052409 48.99193403 165.48378075 54.3828125 166.25390625 C54.79417879 158.37700368 53.8189805 151.75092326 51.3828125 144.25390625 C50.27421875 144.19332031 49.165625 144.13273437 48.0234375 144.0703125 C46.5598843 143.98587674 45.09634325 143.90123026 43.6328125 143.81640625 C42.90320313 143.77708984 42.17359375 143.73777344 41.421875 143.69726562 C34.4505312 143.28532258 34.4505312 143.28532258 31.3828125 142.25390625 C29.31503368 138.63529331 28.78343103 135.36395061 29.3828125 131.25390625 C31.92410145 127.89043558 33.39443172 126.45182525 37.5625 125.6171875 C38.49320312 125.49730469 39.42390625 125.37742187 40.3828125 125.25390625 C39.9703125 124.63386719 39.5578125 124.01382813 39.1328125 123.375 C32.45743823 113.13843276 26.48973226 102.80698304 22.4453125 91.25390625 C14.17383188 68.03175962 -2.6579902 51.10620521 -24.6171875 40.25390625 C-25.88949219 39.61001953 -25.88949219 39.61001953 -27.1875 38.953125 C-48.2313627 28.80809865 -70.51859446 26.57748324 -93.6171875 27.25390625 Z M56.32714844 209.54980469 C54.22149067 209.93153965 52.11338261 210.30003052 50.00292969 210.65429688 C37.54770652 212.7517706 27.64165747 215.18161501 17.5 222.890625 C13.41419093 225.9882622 9.15031339 228.1848169 4.5078125 230.31640625 C3.63181396 230.72286377 2.75581543 231.12932129 1.85327148 231.5480957 C-18.58807327 240.81969923 -39.62108285 246.93659689 -61.6171875 251.25390625 C-62.26669373 251.38343689 -62.91619995 251.51296753 -63.58538818 251.64642334 C-81.94961534 255.28241406 -99.95813402 256.70582598 -118.6796875 256.69140625 C-119.60195129 256.69171844 -120.52421509 256.69203064 -121.47442627 256.69235229 C-132.05015031 256.66505446 -142.37612078 256.1446631 -152.85327148 254.67602539 C-158.46764733 254.04637917 -163.89807627 253.89175916 -169.4609375 255.06640625 C-170.3586084 255.25106445 -171.2562793 255.43572266 -172.18115234 255.62597656 C-173.15004395 255.83319336 -174.11893555 256.04041016 -175.1171875 256.25390625 C-177.30714258 256.70775122 -179.4972593 257.16081665 -181.6875 257.61328125 C-182.91629883 257.86916016 -184.14509766 258.12503906 -185.41113281 258.38867188 C-190.28433981 259.39679984 -195.16552231 260.36425306 -200.046875 261.33203125 C-200.94807068 261.51092896 -201.84926636 261.68982666 -202.777771 261.87414551 C-206.42519354 262.59812098 -210.07265531 263.32189236 -213.72045898 264.04394531 C-216.29838835 264.55478033 -218.87580641 265.06812482 -221.453125 265.58203125 C-222.62341751 265.81300507 -222.62341751 265.81300507 -223.81735229 266.04864502 C-226.82209858 266.64943474 -229.70671763 267.28374963 -232.6171875 268.25390625 C-233.00869431 274.93816892 -231.5289052 281.00880881 -230.0546875 287.50390625 C-229.50561596 289.99170373 -228.95885534 292.48001205 -228.4140625 294.96875 C-228.27030685 295.62368942 -228.12655121 296.27862885 -227.97843933 296.95341492 C-226.32325977 304.53080075 -224.78987235 312.13239495 -223.27005005 319.73791504 C-222.96181952 321.28017942 -222.65264816 322.8222561 -222.34249878 324.36413574 C-221.90455756 326.54181067 -221.4693779 328.72001819 -221.03515625 330.8984375 C-220.66040161 332.77559448 -220.66040161 332.77559448 -220.27807617 334.69067383 C-219.62584512 338.20722804 -219.09663343 341.71055894 -218.6171875 345.25390625 C-218.10542969 345.0940625 -217.59367187 344.93421875 -217.06640625 344.76953125 C-208.83640643 343.03689971 -198.05339352 342.96747442 -190.6171875 347.25390625 C-183.18491278 352.46658762 -177.95550984 358.37063142 -175.6171875 367.25390625 C-174.33481675 376.72727578 -175.77112763 385.59905585 -181.1953125 393.57421875 C-188.03401215 401.92236111 -195.37119323 403.95143563 -205.6171875 406.25390625 C-204.9571875 410.54390625 -204.2971875 414.83390625 -203.6171875 419.25390625 C-199.43074921 420.64938568 -195.94073358 419.52836264 -191.73168945 418.65844727 C-190.82014603 418.47637222 -189.9086026 418.29429718 -188.96943665 418.10670471 C-185.92993406 417.49768322 -182.89276472 416.8777373 -179.85546875 416.2578125 C-177.71369322 415.82646603 -175.57177874 415.395809 -173.42973328 414.96580505 C-167.74728463 413.82318523 -162.0667338 412.67138734 -156.38653564 411.51763916 C-150.76981331 410.37826873 -145.15147129 409.24695311 -139.53320312 408.11523438 C-131.83132661 406.5631251 -124.13005415 405.00808291 -116.42955589 403.44915009 C-107.26628296 401.59425474 -98.10160954 399.74684634 -88.93310547 397.91796875 C-88.01660186 397.73510535 -87.10009825 397.55224195 -86.1558218 397.36383724 C-81.92154668 396.51937407 -77.68697782 395.67642054 -73.45198059 394.83558655 C-64.32057242 393.01896506 -55.2127559 391.11856319 -46.1171875 389.12890625 C-35.0077923 386.71319034 -23.86252781 384.55338378 -12.67773438 382.52099609 C-4.03161802 380.93891649 4.57023531 379.18708042 13.17192078 377.37940979 C22.27525019 375.47196807 31.39122405 373.63176421 40.51171875 371.80859375 C41.6324497 371.58453574 41.6324497 371.58453574 42.77582169 371.35595131 C47.38558016 370.43469591 51.99563433 369.51492705 56.60577393 368.59558105 C60.52183018 367.81443352 64.4376638 367.03217155 68.35351562 366.25 C74.11389392 365.09949692 79.87439176 363.94959516 85.63500977 362.80029297 C93.21808915 361.28721932 100.80054619 359.77104831 108.3828125 358.25390625 C107.00777876 348.71793252 105.27728948 339.28011146 103.37890625 329.8359375 C103.09252936 328.4020263 102.80632357 326.96808091 102.52027893 325.53410339 C101.92627646 322.55971149 101.33023088 319.58573873 100.73266602 316.61206055 C99.96653259 312.79865143 99.2056725 308.98421171 98.44628811 305.16945362 C97.85902208 302.22230993 97.26902224 299.27571877 96.67817879 296.32929039 C96.39624407 294.92161684 96.11516511 293.51377161 95.83495903 292.10575294 C95.4454128 290.15042966 95.05178752 288.19592035 94.65795898 286.24145508 C94.4352684 285.13038895 94.21257782 284.01932281 93.98313904 282.87458801 C93.49999114 280.29142467 93.49999114 280.29142467 92.3828125 278.25390625 C90.11579294 278.09817967 87.84250644 278.03153171 85.5703125 278.00390625 C76.41852343 277.62947009 68.28913046 274.79504815 61.8828125 267.94140625 C60.5625 266.140625 60.5625 266.140625 59.3828125 264.25390625 C58.76792969 263.30451172 58.76792969 263.30451172 58.140625 262.3359375 C53.79030621 254.34035159 54.0623926 244.02360785 56.3828125 235.37890625 C59.58192687 227.45586598 65.87020836 221.97985948 73.3046875 218.12890625 C75.31811593 217.28114691 77.25053039 216.71494022 79.3828125 216.25390625 C79.49602106 211.17086939 79.49602106 211.17086939 78.3828125 206.25390625 C71.01054824 206.25390625 63.55619802 208.21702515 56.32714844 209.54980469 Z " fill="#542D04" transform="translate(339.6171875,41.74609375)"/>
<path d="M0 0 C0.84663201 3.35095146 1.67486235 6.70619687 2.5 10.0625 C2.73847656 11.00544922 2.97695313 11.94839844 3.22265625 12.91992188 C4.48337747 18.08887886 5.29518184 22.67934731 5 28 C1.18900018 28.81964269 -2.62403875 29.6293935 -6.4375 30.4375 C-7.50677734 30.66759766 -8.57605469 30.89769531 -9.67773438 31.13476562 C-15.78457974 32.42336602 -21.78381775 33.43132718 -28 34 C-27.7834375 34.85722656 -27.566875 35.71445312 -27.34375 36.59765625 C-27.0653125 37.74105469 -26.786875 38.88445312 -26.5 40.0625 C-26.2215625 41.18785156 -25.943125 42.31320312 -25.65625 43.47265625 C-24.98796506 47.06468778 -24.88857142 50.3553568 -25 54 C-23.91460937 53.7834375 -22.82921875 53.566875 -21.7109375 53.34375 C-20.2656821 53.06220674 -18.82036635 52.78097314 -17.375 52.5 C-16.66214844 52.35691406 -15.94929688 52.21382813 -15.21484375 52.06640625 C-14.16103516 51.86337891 -14.16103516 51.86337891 -13.0859375 51.65625 C-12.4470459 51.53056641 -11.8081543 51.40488281 -11.14990234 51.27539062 C-8.42204575 50.92596725 -5.74685187 50.95895116 -3 51 C-2.16011547 54.91529148 -1.32923187 58.83243972 -0.5 62.75 C-0.26152344 63.86117187 -0.02304687 64.97234375 0.22265625 66.1171875 C0.44824219 67.18710937 0.67382812 68.25703125 0.90625 69.359375 C1.11572266 70.34389648 1.32519531 71.32841797 1.54101562 72.34277344 C2 75 2 75 2 79 C-0.58193977 79.67250524 -3.16532071 80.33817901 -5.75 81 C-6.47960937 81.19078125 -7.20921875 81.3815625 -7.9609375 81.578125 C-11.44571646 82.46515964 -14.38123722 83 -18 83 C-17.7525 83.7734375 -17.7525 83.7734375 -17.5 84.5625 C-16.85028292 87.72987076 -16.96988959 90.77442279 -17 94 C-16.18321777 93.81824219 -15.36643555 93.63648438 -14.52490234 93.44921875 C-11.47325045 92.77328847 -8.42042044 92.1030372 -5.36669922 91.43652344 C-3.40366834 91.00628328 -1.44205433 90.56959485 0.51953125 90.1328125 C1.76347656 89.86210937 3.00742187 89.59140625 4.2890625 89.3125 C5.43068848 89.06113281 6.57231445 88.80976563 7.74853516 88.55078125 C10.9036142 88.01632725 13.80748223 87.89851599 17 88 C17.84415762 91.53917574 18.67337694 95.08169141 19.5 98.625 C19.85771484 100.12353516 19.85771484 100.12353516 20.22265625 101.65234375 C20.44824219 102.62558594 20.67382812 103.59882813 20.90625 104.6015625 C21.11572266 105.49182129 21.32519531 106.38208008 21.54101562 107.29931641 C22.04142996 110.24377563 22.07653773 113.01885524 22 116 C17.00563071 117.08596744 12.0109045 118.17027413 7.01586914 119.25317383 C5.32371759 119.62025263 3.63165716 119.98775172 1.93969727 120.35571289 C-2.93674364 121.41606032 -7.81475106 122.46856374 -12.69561768 123.50836182 C-14.19843069 123.82898581 -15.70085282 124.15144915 -17.20281982 124.47601318 C-19.22620732 124.91182961 -21.25135982 125.33816011 -23.27734375 125.76171875 C-24.41292725 126.00237061 -25.54851074 126.24302246 -26.71850586 126.4909668 C-30.19591786 127.03039125 -33.4864091 127.03392612 -37 127 C-39.5755669 114.29974358 -42.1488907 101.5990349 -44.71940422 88.89775467 C-45.91324705 82.99916073 -47.10784272 77.1007214 -48.30419922 71.20263672 C-49.46014391 65.50363828 -50.61405833 59.8042321 -51.76660538 54.10454559 C-52.20521886 51.93726918 -52.64454612 49.7701371 -53.08462143 47.60315704 C-59.13810975 17.78880711 -59.13810975 17.78880711 -59 11 C-54.60514256 9.42459643 -50.31784988 8.40937059 -45.72265625 7.59765625 C-45.03425156 7.4744249 -44.34584686 7.35119354 -43.63658142 7.22422791 C-41.44594613 6.8327686 -39.25431453 6.44729652 -37.0625 6.0625 C-34.19881808 5.55562215 -31.33566521 5.04581981 -28.47265625 4.53515625 C-27.76879791 4.41048981 -27.06493958 4.28582336 -26.3397522 4.15737915 C-22.80565135 3.52597967 -19.28156961 2.8638953 -15.76513672 2.14013672 C-14.75005287 1.93124062 -14.75005287 1.93124062 -13.71446228 1.71812439 C-11.86513581 1.33336115 -10.01734769 0.94122489 -8.16967773 0.54858398 C-5.35933529 0.06219105 -2.84146741 -0.11181623 0 0 Z " fill="#02D4FF" transform="translate(281,298)"/>
<path d="M0 0 C3.66906169 2.5098509 7.06401577 5.05558187 10.1328125 8.28125 C8.7063547 11.5399136 6.96577088 13.6837354 4.4375 16.171875 C3.72207031 16.88085938 3.00664062 17.58984375 2.26953125 18.3203125 C1.14998047 19.41472656 1.14998047 19.41472656 0.0078125 20.53125 C-0.74628906 21.27632813 -1.50039063 22.02140625 -2.27734375 22.7890625 C-4.13619522 24.6243842 -5.99955755 26.4548691 -7.8671875 28.28125 C-9.18976563 27.79205078 -9.18976563 27.79205078 -10.5390625 27.29296875 C-13.63365554 26.35224152 -15.91390374 26.03970687 -19.1171875 26.09375 C-19.96796875 26.10019531 -20.81875 26.10664063 -21.6953125 26.11328125 C-23.91402513 26.147621 -23.91402513 26.147621 -25.8671875 27.28125 C-25.8671875 28.60125 -25.8671875 29.92125 -25.8671875 31.28125 C-24.85140625 31.58417969 -23.835625 31.88710938 -22.7890625 32.19921875 C-6.66899899 37.06787906 7.6384197 41.68963686 16.8828125 56.921875 C22.39774606 67.3313121 23.98114238 77.42175879 21.25 89.03515625 C17.67031118 100.02314146 12.74694298 107.35165551 2.66015625 113.08984375 C-5.55442804 116.96225211 -14.78341118 117.94827345 -23.6328125 115.5234375 C-25.82769688 114.57530717 -27.82839285 113.5269406 -29.8671875 112.28125 C-30.8984375 111.683125 -31.9296875 111.085 -32.9921875 110.46875 C-39.54535342 105.48264549 -43.39330368 100.7134327 -46.8671875 93.28125 C-44.1622678 91.5051606 -41.4526595 89.73635222 -38.7421875 87.96875 C-37.98164063 87.46923828 -37.22109375 86.96972656 -36.4375 86.45507812 C-32.34324257 83.79028126 -28.29284634 81.35268457 -23.8671875 79.28125 C-22.908125 80.51875 -22.908125 80.51875 -21.9296875 81.78125 C-18.28449722 84.75691554 -16.5126346 84.92476656 -11.9609375 84.62890625 C-9.0513647 84.14578689 -7.64930436 83.68323359 -5.8671875 81.28125 C-5.11673244 77.86668666 -5.11673244 77.86668666 -5.8671875 74.28125 C-10.9854205 67.84689994 -16.95731986 65.83670204 -24.6171875 63.96875 C-35.97799656 60.97344167 -43.95557502 56.05445769 -50.8671875 46.28125 C-53.74518123 40.82230317 -54.35271359 36.43182765 -54.2421875 30.40625 C-54.23203613 29.60977051 -54.22188477 28.81329102 -54.21142578 27.99267578 C-53.92808032 17.27167429 -50.60927362 10.37517963 -43.2734375 2.58984375 C-31.12393099 -8.84330035 -13.81509121 -8.28152607 0 0 Z " fill="#02D4FF" transform="translate(354.8671875,289.71875)"/>
<path d="M0 0 C3.34970496 0.94934035 6.67549762 1.96598501 10 3 C11.23621094 3.37511719 12.47242188 3.75023437 13.74609375 4.13671875 C15.01883418 4.54760984 16.29097645 4.96035855 17.5625 5.375 C18.76003906 5.75398438 19.95757812 6.13296875 21.19140625 6.5234375 C24 8 24 8 24.9921875 10.2890625 C25.00135691 13.47084842 24.44983341 15.9366747 23.5625 19 C23.1874005 20.3280969 22.81241094 21.65622486 22.4375 22.984375 C22.21578125 23.75458984 21.9940625 24.52480469 21.765625 25.31835938 C19.79527695 32.21960396 17.91474551 39.14666725 16.01416016 46.06738281 C14.48117808 51.64671616 12.94242931 57.22259123 11.3359375 62.78125 C10.86956708 64.43743678 10.40340304 66.09368168 9.9375 67.75 C9.7216626 68.46833008 9.5058252 69.18666016 9.28344727 69.92675781 C6.31808177 80.65758668 10.32781684 92.15625514 12.49145508 102.79711914 C12.90675472 104.84687006 13.31502856 106.8979305 13.72265625 108.94921875 C13.96765869 110.15924561 14.21266113 111.36927246 14.46508789 112.6159668 C14.9704052 115.81277341 15.1007291 118.77081608 15 122 C12.8978514 122.48794398 10.7931305 122.96480744 8.6875 123.4375 C7.51574219 123.70433594 6.34398437 123.97117187 5.13671875 124.24609375 C0.14154349 125.26294599 -4.9241731 125.6107121 -10 126 C-10.66247871 123.07107909 -11.32239563 120.14161471 -11.97924805 117.21142578 C-12.53759856 114.72445111 -13.10030679 112.23845101 -13.66723633 109.75341797 C-16.05865958 99.14169433 -16.05865958 99.14169433 -16.6796875 94.1015625 C-17.93539288 83.94416769 -21.65568576 78.6059101 -28.59960938 71.47314453 C-30.66478753 69.30067504 -32.51012798 66.96990389 -34.375 64.625 C-38.53432607 59.51156329 -42.84607457 54.5422671 -47.1784668 49.57592773 C-51.31760033 44.81956035 -55.33687497 39.98447244 -59.29296875 35.07421875 C-60.98296875 32.95259606 -60.98296875 32.95259606 -63 31 C-62.73624522 26.82667032 -61.35196117 24.86843483 -58.40234375 22.01171875 C-57.68369141 21.30595703 -56.96503906 20.60019531 -56.22460938 19.87304688 C-55.46986328 19.15181641 -54.71511719 18.43058594 -53.9375 17.6875 C-53.17888672 16.94693359 -52.42027344 16.20636719 -51.63867188 15.44335938 C-49.76780841 13.61956166 -47.88825508 11.80575696 -46 10 C-41.72393916 11.91598993 -39.2527313 14.88815023 -36.3125 18.4375 C-35.78503174 19.06350098 -35.25756348 19.68950195 -34.71411133 20.33447266 C-30.77582512 25.02225557 -26.89891798 29.76071173 -23.046875 34.51953125 C-20.52479903 37.57586377 -17.89243437 40.52095027 -15.21484375 43.44140625 C-14 45 -14 45 -14 47 C-13.34 47 -12.68 47 -12 47 C-11.89623047 46.28094482 -11.79246094 45.56188965 -11.68554688 44.82104492 C-10.49910943 37.12471459 -8.68841131 29.7796524 -6.5 22.3125 C-3.96133803 13.6069695 -3.96133803 13.6069695 -1.84375 4.79296875 C-1 1 -1 1 0 0 Z " fill="#02D4FF" transform="translate(189,310)"/>
<path d="M0 0 C0.83362061 0.00676758 1.66724121 0.01353516 2.52612305 0.02050781 C10.10279942 0.14517904 17.47151267 0.96728252 24.9375 2.25 C25.80906738 2.3948584 26.68063477 2.5397168 27.57861328 2.68896484 C30.49211431 3.17645325 33.40262678 3.67882325 36.3125 4.1875 C37.22813721 4.34508789 38.14377441 4.50267578 39.0871582 4.66503906 C44.9051933 5.72046013 50.3844354 7.2179557 55.9375 9.25 C53.11452272 12.27696865 50.30108642 14.38882019 46.75 16.5 C42.74864157 18.93907506 39.59227063 21.47508841 36.3125 24.8125 C32.62727762 28.2097121 32.62727762 28.2097121 29.73046875 28.37890625 C27.37173991 27.84602355 25.200984 27.0983245 22.9375 26.25 C12.69978459 23.49165181 0.99493776 22.45474047 -9.0625 26.25 C-9.3925 27.24 -9.7225 28.23 -10.0625 29.25 C-9.44503906 28.92644531 -8.82757813 28.60289063 -8.19140625 28.26953125 C-3.77599827 26.83080281 0.38396341 26.91139073 5 26.9375 C5.93287842 26.93878906 6.86575684 26.94007812 7.8269043 26.94140625 C14.91862525 27.03985964 21.20486995 27.90821564 27.9375 30.25 C27.9375 32.25 27.9375 32.25 26 34.25 C25.54109375 34.69730469 25.0821875 35.14460938 24.609375 35.60546875 C9.18885731 50.77378171 -2.00510892 70.39507199 -7.2734375 91.39453125 C-7.96887524 93.91118959 -8.79739128 95.97830477 -10.0625 98.25 C-20.71456342 76.31557355 -30.17537131 53.01570226 -30.4375 28.3125 C-30.45135742 27.54405762 -30.46521484 26.77561523 -30.47949219 25.98388672 C-30.42383842 19.20145046 -28.88288878 13.13751323 -25.25 7.375 C-18.44888227 0.76819992 -9.02979898 -0.10799636 0 0 Z " fill="#FC9622" transform="translate(111.0625,78.75)"/>
<path d="M0 0 C0.53882813 0.66515625 1.07765625 1.3303125 1.6328125 2.015625 C5.34294375 5.12576803 9.07993813 4.34965312 13.75 4.125 C28.22339282 3.54520533 28.22339282 3.54520533 34.5 7.625 C36.66524318 11.05330171 36.82746944 14.13081417 36 18 C34.3125 21 34.3125 21 31 23 C26.63435556 23.40696685 22.37056733 23.28795832 18 23 C18.433125 23.75925781 18.86625 24.51851562 19.3125 25.30078125 C19.869375 26.29464844 20.42625 27.28851563 21 28.3125 C21.556875 29.29863281 22.11375 30.28476563 22.6875 31.30078125 C24 34 24 34 24 37 C25.22976563 36.96519531 26.45953125 36.93039063 27.7265625 36.89453125 C29.35936127 36.86637955 30.9921749 36.83908087 32.625 36.8125 C33.43324219 36.78736328 34.24148438 36.76222656 35.07421875 36.73632812 C40.14230591 36.67452218 43.63703837 37.12044532 48 40 C50.13498775 43.20248163 50.27394539 43.81000694 49.9375 47.4375 C49.88464844 48.19933594 49.83179688 48.96117187 49.77734375 49.74609375 C48.62687284 53.08188126 46.99224911 54.19405129 44 56 C40.66796875 56.390625 40.66796875 56.390625 37.1875 56.25 C36.02605469 56.21390625 34.86460937 56.1778125 33.66796875 56.140625 C32.78753906 56.09421875 31.90710938 56.0478125 31 56 C31.33 56.99 31.66 57.98 32 59 C32.38887761 63.19987818 32.45908323 65.29607238 30.125 68.875 C27.4126761 71.5873239 26.53758847 71.93914093 22.6875 72.375 C19 72 19 72 16.25 70 C13.55136661 66.40182215 12.37468027 63.26874399 11 59 C8.91570807 59.78913943 6.83260131 60.58140963 4.75 61.375 C3.58984375 61.81585938 2.4296875 62.25671875 1.234375 62.7109375 C-1.86506998 63.8833792 -1.86506998 63.8833792 -4.17578125 65.1328125 C-7.38392479 66.65788288 -10.5966311 66.76154591 -14 66 C-17.56352884 62.95615245 -18.81458415 61.05687034 -19.625 56.4375 C-18.82609293 52.04351112 -17.33989812 50.90247627 -14 48 C-10.87890625 46.234375 -10.87890625 46.234375 -7.5625 44.75 C-6.47066406 44.24984375 -5.37882812 43.7496875 -4.25390625 43.234375 C-1.1345766 42.05105187 1.69929897 41.41818837 5 41 C3.90732603 38.84758195 2.80180949 36.7036782 1.6875 34.5625 C1.37876953 33.95083984 1.07003906 33.33917969 0.75195312 32.70898438 C-1.18193855 28.83641386 -1.18193855 28.83641386 -5 27 C-7.87619429 27.91160248 -7.87619429 27.91160248 -10.9375 29.3125 C-12.49791016 29.98732422 -12.49791016 29.98732422 -14.08984375 30.67578125 C-15.80500668 31.45623794 -17.50506539 32.27490901 -19.16015625 33.17578125 C-22.29260754 34.57906622 -24.7596048 33.8100988 -28 33 C-31.27498169 30.32830441 -32.84248982 28.4175916 -33.3125 24.1875 C-32.90085305 19.98870109 -32.10549299 18.88883069 -29 16 C-25.41623143 13.82911285 -21.74418414 11.87854756 -18 10 C-20.97 8.02 -23.94 6.04 -27 4 C-19.12466452 0.06233226 -8.75477059 -0.84723586 0 0 Z " fill="#8C5E3B" transform="translate(246,69)"/>
<path d="M0 0 C6.46531256 4.78178478 10.34735909 12.31550362 11.546875 20.171875 C11.89294195 30.36294995 8.92123754 37.60393782 2.03125 45.02734375 C-3.64160899 50.1229255 -9.61603261 52.47922927 -17.15234375 53.0703125 C-26.44571283 52.46091125 -33.24005534 49.25630631 -39.96484375 42.8203125 C-46.6651057 34.40203467 -46.92775297 25.09475876 -45.96484375 14.8203125 C-43.64134424 6.84597195 -36.99164008 0.84044417 -30.02734375 -3.34375 C-19.94814011 -7.83739496 -9.09339268 -5.45965127 0 0 Z " fill="#FD9722" transform="translate(442.96484375,265.1796875)"/>
<path d="M0 0 C7.09317231 3.75593325 13.1815421 9.60673606 16.125 17.12890625 C18.38662065 26.84248559 17.79520282 34.71827457 12.890625 43.49609375 C10.40275536 47.20588166 7.90810566 49.76837338 4.125 52.12890625 C3.48046875 52.53882813 2.8359375 52.94875 2.171875 53.37109375 C-4.48968533 56.94859837 -11.48414678 57.08635769 -18.875 56.12890625 C-26.66329391 53.73739209 -32.93505063 48.91831931 -37.19140625 41.984375 C-40.86282422 34.27055955 -41.51899414 24.81695014 -39.14453125 16.6015625 C-38.20563748 14.60497616 -37.17399372 12.90916649 -35.875 11.12890625 C-35.1325 10.07703125 -34.39 9.02515625 -33.625 7.94140625 C-24.78819028 -1.09624005 -12.09665518 -3.66515503 0 0 Z " fill="#FD9722" transform="translate(144.875,388.87109375)"/>
<path d="M0 0 C0.22044454 1.74429418 0.44056859 3.48862939 0.65917969 5.2331543 C0.84535469 6.70769299 1.0348308 8.18181849 1.22753906 9.65551758 C1.72442907 13.5089764 2.07169624 17.30444042 2.25 21.1875 C3.25194951 26.28074335 4.82676699 27.1042873 9 30 C11.48836965 33.73255448 11.54226552 35.58440935 11 40 C7.2816311 44.4380532 2.46924102 45.13690857 -3 46 C-6.7968562 46.29550561 -10.57938864 46.35080886 -14.38671875 46.37109375 C-15.9776812 46.38463646 -15.9776812 46.38463646 -17.6007843 46.39845276 C-19.82863572 46.41288011 -22.05652879 46.42182314 -24.28442383 46.42553711 C-27.6883801 46.43750309 -31.09056214 46.48682227 -34.49414062 46.53710938 C-36.66665788 46.54656733 -38.83918618 46.55380536 -41.01171875 46.55859375 C-42.02433273 46.57812607 -43.03694672 46.59765839 -44.08024597 46.61778259 C-48.62757594 46.58873686 -51.96760318 46.5453877 -55.62426758 43.65258789 C-59.14681504 39.71954112 -59.12160736 36.90236711 -59.09765625 31.80078125 C-59.09443359 30.59228516 -59.09121094 29.38378906 -59.08789062 28.13867188 C-59.07951172 26.87603516 -59.07113281 25.61339844 -59.0625 24.3125 C-59.05573242 22.40114258 -59.05573242 22.40114258 -59.04882812 20.45117188 C-59.03702873 17.30073436 -59.02056597 14.15039051 -59 11 C-47.74973896 8.38630299 -36.44717609 6.02581014 -25.12783813 3.73269653 C-23.54732921 3.41185628 -21.96722569 3.08901218 -20.38754272 2.76412964 C-18.12929714 2.30043069 -15.86959995 1.84456489 -13.609375 1.390625 C-12.93177628 1.25018265 -12.25417755 1.1097403 -11.55604553 0.96504211 C-7.64586067 0.19021032 -3.98345824 -0.13714808 0 0 Z " fill="#FD9622" transform="translate(344,424)"/>
<path d="M0 0 C13.13711464 12.04235509 15.55345217 34.62187422 16.37011719 51.55273438 C16.48201446 56.06164416 16.42214566 60.55483403 16.25 65.0625 C13.80944498 62.63913199 11.38755254 60.20877066 9.03125 57.703125 C-0.77936507 47.42213798 -11.81482724 40.7166756 -24.51171875 34.69140625 C-27.75 33.0625 -27.75 33.0625 -29.75 31.0625 C-23.19995746 28.36542366 -17.86513755 26.52550849 -10.75 27.0625 C-10.75 26.0725 -10.75 25.0825 -10.75 24.0625 C-16.65132386 24.36774089 -21.18961848 25.53883017 -26.6875 27.75 C-33.29124177 30.20868927 -37.1702588 30.25227124 -43.75 28.0625 C-45.79019622 27.51532094 -47.8318794 26.97365649 -49.875 26.4375 C-51.50096194 25.98259098 -53.12633024 25.5255237 -54.75 25.0625 C-50.98361434 21.09524044 -46.99000335 17.82864064 -42.5625 14.625 C-41.90121094 14.14417969 -41.23992187 13.66335937 -40.55859375 13.16796875 C-29.06484442 4.89425815 -14.87032879 -5.06943027 0 0 Z " fill="#FC9622" transform="translate(335.75,42.9375)"/>
<path d="M0 0 C-0.28875 0.62003906 -0.5775 1.24007813 -0.875 1.87890625 C-4.63221538 10.84143043 -5.93808336 20.01454115 -2.89453125 29.4140625 C-0.69079064 34.17603283 1.26859408 37.51393062 5.48632812 40.64550781 C9.55948671 44.09533917 10.40880529 47.20813967 11.21484375 52.35546875 C11.36031143 53.13892166 11.50577911 53.92237457 11.65565491 54.72956848 C12.10971324 57.21161276 12.52374496 59.6984558 12.9375 62.1875 C13.24028803 63.86960173 13.54560341 65.55125059 13.85351562 67.23242188 C16 79.13880107 16 79.13880107 16 83 C12.60641656 83.84268087 9.20980915 84.67247901 5.8125 85.5 C4.85279297 85.73847656 3.89308594 85.97695313 2.90429688 86.22265625 C1.97294922 86.44824219 1.04160156 86.67382812 0.08203125 86.90625 C-0.77156982 87.11572266 -1.6251709 87.32519531 -2.50463867 87.54101562 C-5.06255852 88.0115067 -7.4057105 88.0317491 -10 88 C-10.16793564 87.13486786 -10.16793564 87.13486786 -10.33926392 86.2522583 C-11.76374843 78.91737235 -13.1932806 71.58347697 -14.625 64.25 C-14.85209656 63.08595642 -15.07919312 61.92191284 -15.31317139 60.72259521 C-18.17903286 46.05020788 -21.08098468 31.39301306 -24.37353516 16.80957031 C-24.59315918 15.82311523 -24.8127832 14.83666016 -25.0390625 13.8203125 C-25.22678223 12.99805176 -25.41450195 12.17579102 -25.60791016 11.32861328 C-26.02594104 8.84593668 -26.068642 6.51296672 -26 4 C-22.42010978 3.13094278 -18.83566807 2.28237304 -15.25 1.4375 C-14.23421875 1.19064453 -13.2184375 0.94378906 -12.171875 0.68945312 C-11.1921875 0.46064453 -10.2125 0.23183594 -9.203125 -0.00390625 C-8.30239258 -0.21861572 -7.40166016 -0.4333252 -6.47363281 -0.65454102 C-3.95701536 -1.00600309 -2.38749855 -0.80151737 0 0 Z " fill="#02D3FE" transform="translate(399,271)"/>
<path d="M0 0 C-1.6344062 6.09318101 -3.64503063 12.03972387 -5.875 17.9375 C-6.10719238 18.5879126 -6.33938477 19.2383252 -6.57861328 19.90844727 C-8.28566478 24.3023542 -9.71326387 26.10039991 -14 28 C-17.13796498 28.41972553 -20.24041339 28.39672061 -23.40234375 28.36328125 C-24.7735714 28.36402901 -24.7735714 28.36402901 -26.17250061 28.36479187 C-28.10826793 28.36245442 -30.04403846 28.35274531 -31.97973633 28.33618164 C-34.89628368 28.31283 -37.81189998 28.31559371 -40.72851562 28.32226562 C-71.72048191 28.27951809 -71.72048191 28.27951809 -79 21 C-79.125 18.375 -79.125 18.375 -79 16 C-74.33138148 14.61734594 -69.69476517 13.45898125 -64.91894531 12.48779297 C-64.24974564 12.35095093 -63.58054596 12.21410889 -62.8910675 12.07312012 C-60.70397699 11.62668803 -58.5160954 11.18428543 -56.328125 10.7421875 C-54.79828728 10.43132103 -53.26848229 10.12029347 -51.7387085 9.80911255 C-48.54508397 9.16014891 -45.35105971 8.51320007 -42.15673828 7.86767578 C-38.06140388 7.03988999 -33.9671386 6.2069454 -29.8731575 5.37249565 C-26.72007452 4.73042978 -23.56643525 4.09113203 -20.41262054 3.45267105 C-18.90215224 3.14653233 -17.39186122 2.83951758 -15.88175201 2.5316124 C-13.77621992 2.10272312 -11.66996597 1.67757668 -9.56347656 1.25341797 C-8.36547424 1.01074188 -7.16747192 0.7680658 -5.9331665 0.51803589 C-3 0 -3 0 0 0 Z " fill="#FC9622" transform="translate(256,441)"/>
<path d="M0 0 C2.7397539 2.24217527 2.96304098 2.66736879 3.375 6.375 C2.89634144 11.00203276 1.55633935 13.71830877 -2.05859375 16.6953125 C-13.8400167 23.77577358 -27.22441895 26.22862988 -40.76953125 23.140625 C-44.56755937 21.79960419 -46.3778748 20.00773185 -49 17 C-49.33 16.67 -49.66 16.34 -50 16 C-50.16590697 11.9352792 -49.84974924 9.99318982 -47.171875 6.86328125 C-42.74303254 2.78844491 -38.71474932 -0.12971841 -33 -2 C-31.2675 -2.5878125 -31.2675 -2.5878125 -29.5 -3.1875 C-19.66624476 -5.42592289 -8.80619325 -5.26610356 0 0 Z " fill="#FAFDBA" transform="translate(377,186)"/>
<path d="M0 0 C2.22856541 2.49221265 2.94601555 3.57712184 3.375 6.9375 C2.8452214 11.26402521 1.29431443 13.96929823 -2.12890625 16.6953125 C-11.34755642 22.11108451 -18.97110893 24.25103898 -29.625 24.4375 C-30.42478271 24.45989746 -31.22456543 24.48229492 -32.04858398 24.50537109 C-38.74015595 24.47912693 -44.0023954 22.63425859 -49.0625 18.1875 C-50.59557138 14.61033346 -50.19024759 12.69603198 -49 9 C-38.18909075 -4.08256866 -14.61467857 -9.14122752 0 0 Z " fill="#FAFDBA" transform="translate(205,215)"/>
<path d="M0 0 C8.37274421 1.18887909 16.28295866 1.59712494 24.625 0.125 C31.92316761 -0.74889062 38.1301866 3.6546435 43.9765625 7.578125 C44.52054687 8.04734375 45.06453125 8.5165625 45.625 9 C45.625 9.66 45.625 10.32 45.625 11 C37.43650846 15.08103852 29.60784139 18.20877865 20.625 20 C19.51125 20.226875 18.3975 20.45375 17.25 20.6875 C5.76261707 21.67779163 -6.40378596 22.06731105 -16.1640625 14.97265625 C-19.63671321 11.87426648 -20.27945556 10.0892066 -20.6875 5.4375 C-20.375 2 -20.375 2 -19.12109375 0.3046875 C-14.23831031 -3.34374576 -5.56491191 -0.79417121 0 0 Z " fill="#FB0072" transform="translate(258.375,210)"/>
<path d="M0 0 C2.75329021 1.79562405 4.52627461 3.05254922 6 6 C6.48125746 13.21886187 5.07299911 16.98472857 0.9375 23 C-7.98128505 33.13618598 -23.9893226 37.8913979 -37 39 C-49.33162833 39.74573124 -61.45348539 39.86890261 -71.40625 31.52734375 C-75.68498983 27.42688474 -76.3520332 24.00188099 -76.59375 18.28125 C-75.66019697 14.69444098 -73.90826115 13.2257892 -71 11 C-67.4765625 10.4765625 -67.4765625 10.4765625 -63.625 10.625 C-62.35914063 10.65851563 -61.09328125 10.69203125 -59.7890625 10.7265625 C-56 11 -56 11 -52.59765625 11.5 C-37.09441561 13.65463062 -25.3549721 11.9539361 -12.1875 3.1875 C-7.94960524 0.39475784 -5.19019084 -1.14184198 0 0 Z M-73 17 C-73.5400081 21.08863274 -73.26088794 23.44561314 -71.5 27.1875 C-65.99247461 33.38346606 -58.04122912 35.63254468 -49.9453125 36.22265625 C-34.397842 36.62808915 -20.84116555 33.01760029 -7 26 C-7 25.34 -7 24.68 -7 24 C-13.76881542 18.88415651 -20.29955876 14.86189776 -29 15 C-29.63164062 15.16242188 -30.26328125 15.32484375 -30.9140625 15.4921875 C-37.9099534 17.19530701 -45.60906537 16.00227638 -52.625 15 C-63.77012185 12.56166847 -63.77012185 12.56166847 -73 17 Z " fill="#582B03" transform="translate(311,195)"/>
<path d="M0 0 C7.51207083 4.18624211 10.38761219 11.77707955 13.3125 19.4375 C14.87828883 27.55113301 14.60400705 34.52502242 11 42 C8.77932494 44.68720343 8.25658162 44.96198791 4.625 45.5 C-0.63058234 44.77509209 -2.20826792 42.3569809 -5.3125 38.2734375 C-11.48943153 29.33894724 -13.30917048 18.69859743 -12 8 C-9.75380594 1.67269278 -6.80373708 -0.89860678 0 0 Z " fill="#512A00" transform="translate(324,143)"/>
<path d="M0 0 C4.16583651 0.65346455 6.57251904 2.30309369 9.1875 5.5 C14.47120513 14.9268009 15.88873093 25.14856686 13.43359375 35.7578125 C11.79439454 40.57898664 10.67051968 43.77755318 6.1875 46.5 C3.3125 47.125 3.3125 47.125 0.1875 46.5 C-6.1180229 41.18687175 -8.86589759 34.52951344 -9.8125 26.5 C-10.42321969 17.05887435 -10.85408173 9.26951065 -4.3515625 1.828125 C-2.8125 0.5 -2.8125 0.5 0 0 Z " fill="#502900" transform="translate(202.8125,162.5)"/>
<path d="M0 0 C0.93287842 0.00128906 1.86575684 0.00257812 2.8269043 0.00390625 C9.91862525 0.10235964 16.20486995 0.97071564 22.9375 3.3125 C22.9375 5.3125 22.9375 5.3125 21 7.3125 C20.53980469 7.76109375 20.07960937 8.2096875 19.60546875 8.671875 C10.80688582 17.32621887 4.41941745 26.86873768 -2.0625 37.3125 C-10.03148219 29.78999729 -14.73959018 20.52363535 -15.171875 9.53125 C-15.18541991 7.1202561 -15.15302922 4.72158307 -15.0625 2.3125 C-10.17832388 -0.24684907 -5.3755548 -0.03040526 0 0 Z " fill="#F8FBB9" transform="translate(116.0625,105.6875)"/>
<path d="M0 0 C0.70125 0.7425 1.4025 1.485 2.125 2.25 C8.06241518 7.92926669 13.03089238 9.80305893 21 11 C20.98839844 12.15757812 20.97679687 13.31515625 20.96484375 14.5078125 C20.95545923 16.04687338 20.94635974 17.58593601 20.9375 19.125 C20.92493164 20.26582031 20.92493164 20.26582031 20.91210938 21.4296875 C20.89353491 25.7389644 21.13882735 29.75516474 22 34 C20.35 34 18.7 34 17 34 C17.33 30.37 17.66 26.74 18 23 C16.02 23 14.04 23 12 23 C10.68 26.3 9.36 29.6 8 33 C4.24364431 32.24872886 2.16789693 31.75994274 -1 30 C-0.04339848 27.35094963 0.73076494 25.30030064 2.625 23.1875 C4.74143127 19.82045025 4.1963519 16.92703796 4 13 C-0.40375819 12.5729925 -0.40375819 12.5729925 -4.125 14.6875 C-5.47140884 16.3480709 -6.77980265 18.03973686 -8.0625 19.75 C-8.701875 20.4925 -9.34125 21.235 -10 22 C-10.99 22 -11.98 22 -13 22 C-14.75390625 19.98828125 -14.75390625 19.98828125 -16.5625 17.3125 C-17.46162109 16.00732422 -17.46162109 16.00732422 -18.37890625 14.67578125 C-20.56852229 11.06159575 -22 8.25722947 -22 4 C-20.62328125 4.06960938 -20.62328125 4.06960938 -19.21875 4.140625 C-11.5780258 4.36535218 -6.4860843 4.15109395 0 0 Z " fill="#F99422" transform="translate(82,396)"/>
<path d="M0 0 C3.49406769 1.66762322 4.82670681 2.74006022 7 6 C7.51159518 10.70667566 6.87018404 13.25503875 4 17 C1.56450704 18.63518078 -1.02465964 19.84233715 -3.6875 21.0625 C-4.37005859 21.38798828 -5.05261719 21.71347656 -5.75585938 22.04882812 C-7.13298847 22.70553274 -8.51305414 23.3561149 -9.89599609 24.00048828 C-12.74737865 25.35504388 -15.54758892 26.80477717 -18.34692383 28.26342773 C-20 29 -20 29 -22 29 C-27.55580866 15.3667426 -27.55580866 15.3667426 -28 9 C-26.7625 8.87818359 -26.7625 8.87818359 -25.5 8.75390625 C-20.47791908 7.67214105 -16.39538812 5.2545132 -11.921875 2.79492188 C-7.77850143 0.60858067 -4.81086425 -0.59080789 0 0 Z " fill="#8D5E3B" transform="translate(132,211)"/>
<path d="M0 0 C3.34265205 1.20706879 3.94704566 1.92056849 6 5 C6.8275472 8.16476545 6.77996242 10.82443872 6 14 C3.52904846 17.68867197 0.4796959 20.59839847 -2.75 23.625 C-3.9875 24.86443359 -3.9875 24.86443359 -5.25 26.12890625 C-9.80825759 30.5474753 -9.80825759 30.5474753 -12 32 C-16.48092306 31.73465453 -19.16711394 28.39131786 -22.25 25.4375 C-22.80429688 24.91736328 -23.35859375 24.39722656 -23.9296875 23.86132812 C-25.29256828 22.58069015 -26.64711683 21.2911951 -28 20 C-26.87851563 18.88238281 -26.87851563 18.88238281 -25.734375 17.7421875 C-24.17145101 16.17479802 -22.61491876 14.60083043 -21.078125 13.0078125 C-7.02125271 -1.46956452 -7.02125271 -1.46956452 0 0 Z " fill="#8C5E3B" transform="translate(152,243)"/>
<path d="M0 0 C4.38544865 2.19272433 7.23315916 4.38658225 9 9 C9.60935585 13.42798584 10.0292316 17.85682638 8.05078125 21.9765625 C4.70284943 26.26444994 1.28901884 27.70778483 -3.9375 28.375 C-8.88369777 27.76934313 -12.84897282 24.81440132 -16 21 C-17.45857967 16.62426098 -17.75239657 12.56269847 -17 8 C-12.81625526 0.82970516 -8.04565651 -0.97523109 0 0 Z " fill="#04D4FF" transform="translate(411,364)"/>
<path d="M0 0 C3.35106891 2.72274349 5.74143635 4.90635264 6.28125 9.27734375 C6.3534375 10.15519531 6.425625 11.03304688 6.5 11.9375 C6.74363648 14.89159237 7.05630488 17.16891465 8 20 C2.69463924 23.65480408 -0.56631446 25.14076884 -7 25.125 C-8.051875 25.12757813 -9.10375 25.13015625 -10.1875 25.1328125 C-13 25 -13 25 -16 24 C-17.44462401 17.5990237 -18.92921974 9.21846664 -15.25 3.375 C-10.64455083 -1.48630746 -6.28572526 -1.77031121 0 0 Z " fill="#8A5D3B" transform="translate(75,376)"/>
<path d="M0 0 C2.72010841 0.55143595 5.32691476 1.23626136 8 2 C7.63176001 8.90767437 6.76081837 14.6381142 4 21 C-6.64557206 18.91163419 -6.64557206 18.91163419 -11.25 15.8125 C-13.24062775 12.61327683 -13.74424892 10.65693231 -13.4765625 6.9375 C-11.76339789 -0.0274971 -6.20464128 -0.89609993 0 0 Z " fill="#8D5E3B" transform="translate(386,206)"/>
<path d="M0 0 C2.36328125 2.6328125 2.36328125 2.6328125 4.3125 6.125 C4.96863281 7.26195312 5.62476563 8.39890625 6.30078125 9.5703125 C7.84199966 12.68109356 9.00590841 15.67963316 10 19 C7.41638482 19.05407567 4.83390745 19.093707 2.25 19.125 C1.52039063 19.14175781 0.79078125 19.15851563 0.0390625 19.17578125 C-6.85077999 19.23841618 -6.85077999 19.23841618 -10 17 C-12.11569184 14.27982477 -12.93911153 12.41752096 -13.4375 9 C-12.8943967 5.27586307 -11.59513183 3.67145924 -9 1 C-5.82407891 -0.58796055 -3.49605503 -0.42717071 0 0 Z " fill="#8D5F3B" transform="translate(381,167)"/>
<path d="M0 0 C0.99 0.495 0.99 0.495 2 1 C0.4779562 5.18328604 -2.13951651 6.65497547 -5.8125 9 C-12.21788037 13.21722941 -17.694545 18.10465007 -23.22265625 23.3984375 C-27.19067864 27.11531923 -31.46463708 30.01078353 -36 33 C-34.56438314 29.81293058 -32.79733671 27.37830895 -30.5 24.75 C-29.58734375 23.69039062 -29.58734375 23.69039062 -28.65625 22.609375 C-27 21 -27 21 -25 21 C-25 20.34 -25 19.68 -25 19 C-26.2375 18.855625 -27.475 18.71125 -28.75 18.5625 C-30.83870761 18.31881744 -32.80636633 18.05402351 -34.83325195 17.48852539 C-37.22150621 16.95005815 -39.36136731 16.87052517 -41.80859375 16.8671875 C-42.72060547 16.86589844 -43.63261719 16.86460938 -44.57226562 16.86328125 C-45.51779297 16.86714844 -46.46332031 16.87101562 -47.4375 16.875 C-48.37916016 16.87113281 -49.32082031 16.86726563 -50.29101562 16.86328125 C-51.6609668 16.86521484 -51.6609668 16.86521484 -53.05859375 16.8671875 C-53.88673584 16.86831543 -54.71487793 16.86944336 -55.56811523 16.87060547 C-58.12633456 17.00672195 -60.50315651 17.43970554 -63 18 C-62.67 16.68 -62.34 15.36 -62 14 C-50.87178375 10.45598209 -40.31815404 11.39551995 -29.27954102 14.66455078 C-24.58157641 16.11626794 -24.58157641 16.11626794 -20 15 C-18.22052488 13.66889656 -16.49614676 12.26291431 -14.8125 10.8125 C-10.07825924 6.82912001 -5.23244323 3.2945013 0 0 Z " fill="#603709" transform="translate(164,90)"/>
<path d="M0 0 C11.44896744 -0.40727552 20.01482531 -0.57483892 29.1875 6.9375 C36.08593176 13.59916811 40.25666876 20.85927377 40.625 30.5625 C40.02214534 41.53183373 36.18660486 49.65187423 28 57 C22.45405405 61 22.45405405 61 19 61 C19.23828125 59.1640625 19.23828125 59.1640625 20 57 C21.85546875 55.6484375 21.85546875 55.6484375 24.1875 54.375 C30.38538327 50.50997231 33.71652101 44.85043696 36 38 C36.74815262 28.41789148 36.01793438 20.38947292 29.875 12.75 C23.77029602 6.39146218 18.47135803 3.85785991 9.625 3.375 C8.44164062 3.36210937 7.25828125 3.34921875 6.0390625 3.3359375 C3 3 3 3 1.0859375 1.4765625 C0.54839844 0.74566406 0.54839844 0.74566406 0 0 Z " fill="#60380E" transform="translate(125,385)"/>
<path d="M0 0 C7.57617843 14.63185606 7.57617843 14.63185606 6 20 C5.3915625 19.5875 4.783125 19.175 4.15625 18.75 C-3.90007805 13.44230152 -12.3238063 9.19113498 -21 5 C-14.51258746 -0.12533674 -7.96399582 -0.28843446 0 0 Z " fill="#F2F4B2" transform="translate(327,70)"/>
<path d="M0 0 C2.75 0.9375 2.75 0.9375 3.75 2.9375 C4.54573835 7.59825321 3.28408339 10.02628128 0.75 13.8125 C-0.23691471 15.19692203 -1.23279833 16.57517634 -2.25 17.9375 C-3.5239902 17.17189544 -4.79406512 16.39977374 -6.0625 15.625 C-6.77019531 15.19574219 -7.47789063 14.76648438 -8.20703125 14.32421875 C-10.13960231 13.01243533 -11.66410612 11.64346155 -13.25 9.9375 C-11.58333333 8.27083333 -9.91666667 6.60416667 -8.25 4.9375 C-7.445625 3.98875 -6.64125 3.04 -5.8125 2.0625 C-3.25 -0.0625 -3.25 -0.0625 0 0 Z " fill="#8E5F3A" transform="translate(83.25,408.0625)"/>
<path d="M0 0 C0.495 0.99 0.495 0.99 1 2 C-5.92119096 3.45329571 -12.8448084 4.89455643 -19.77026367 6.32739258 C-22.12696308 6.81646984 -24.48308855 7.30832116 -26.83862305 7.80297852 C-30.22037824 8.51264173 -33.60405771 9.2123722 -36.98828125 9.91015625 C-38.04461258 10.13405533 -39.10094391 10.35795441 -40.18928528 10.58863831 C-41.66047066 10.88906288 -41.66047066 10.88906288 -43.16137695 11.19555664 C-44.02519485 11.37542618 -44.88901276 11.55529572 -45.77900696 11.74061584 C-48 12 -48 12 -51 11 C-48.70191911 8.32142772 -47.01596013 7.50313037 -43.57617188 6.81738281 C-42.68514771 6.63419495 -41.79412354 6.45100708 -40.87609863 6.26226807 C-39.91667358 6.07775085 -38.95724854 5.89323364 -37.96875 5.703125 C-36.98128784 5.50523376 -35.99382568 5.30734253 -34.97644043 5.10345459 C-32.88952288 4.68794272 -30.80146795 4.27810885 -28.71240234 3.87353516 C-25.50962522 3.25186828 -22.31144273 2.6097891 -19.11328125 1.96484375 C-17.08617845 1.56388408 -15.05884183 1.16410432 -13.03125 0.765625 C-12.07182495 0.57301086 -11.1123999 0.38039673 -10.12390137 0.1819458 C-8.78736511 -0.07392303 -8.78736511 -0.07392303 -7.42382812 -0.33496094 C-6.64011841 -0.48801697 -5.85640869 -0.641073 -5.0489502 -0.79876709 C-3 -1 -3 -1 0 0 Z " fill="#61370B" transform="translate(232,444)"/>
<path d="M0 0 C0.33 0 0.66 0 1 0 C1.02578125 0.76183594 1.0515625 1.52367187 1.078125 2.30859375 C1.57750009 11.39949033 3.36601891 19.36601891 10 26 C15.05504066 29.8702655 19.77901272 31.77802035 26 33 C25.01 33.495 25.01 33.495 24 34 C24 34.66 24 35.32 24 36 C16.49962166 35.60524325 9.61978041 31.12597917 4.625 25.6875 C1.49004943 21.69756291 -2 16.20314284 -2 11 C-1.34 11 -0.68 11 0 11 C0 7.37 0 3.74 0 0 Z " fill="#5C3A10" transform="translate(396,284)"/>
<path d="M0 0 C3.125 0.375 3.125 0.375 6 1 C7.26264601 5.29299643 6.62950412 7.87831311 5 12 C6.98 11.67 8.96 11.34 11 11 C11 11.66 11 12.32 11 13 C5.5814234 13.22577402 1.22512279 12.46670113 -4 11 C-3.71758359 9.53984709 -3.42373386 8.08190207 -3.125 6.625 C-2.96257812 5.81289063 -2.80015625 5.00078125 -2.6328125 4.1640625 C-2 2 -2 2 0 0 Z " fill="#946137" transform="translate(94,418)"/>
<path d="M0 0 C-0.33 0.99 -0.66 1.98 -1 3 C-3.09790039 3.78369141 -3.09790039 3.78369141 -5.84765625 4.3515625 C-6.84603516 4.56296875 -7.84441406 4.774375 -8.87304688 4.9921875 C-9.92556641 5.20101563 -10.97808594 5.40984375 -12.0625 5.625 C-13.08794922 5.8415625 -14.11339844 6.058125 -15.16992188 6.28125 C-20.76584239 7.44124888 -26.3184328 8.3861452 -32 9 C-32 8.34 -32 7.68 -32 7 C-32.99 6.67 -33.98 6.34 -35 6 C-30.82034342 5.13926926 -26.63943643 4.28498026 -22.45727539 3.43652344 C-21.03601981 3.14725708 -19.61511483 2.85626228 -18.19458008 2.56347656 C-16.14755509 2.14188262 -14.09933167 1.72660984 -12.05078125 1.3125 C-10.82012939 1.06113281 -9.58947754 0.80976563 -8.3215332 0.55078125 C-5.45870823 0.07606364 -2.89027326 -0.11513122 0 0 Z " fill="#664118" transform="translate(322,425)"/>
<path d="M0 0 C0 0.33 0 0.66 0 1 C-7.59 2.32 -15.18 3.64 -23 5 C-22.67 4.01 -22.34 3.02 -22 2 C-19.453125 1.0859375 -19.453125 1.0859375 -16.25 0.375 C-14.67992187 0.01535156 -14.67992187 0.01535156 -13.078125 -0.3515625 C-12.06234375 -0.56554687 -11.0465625 -0.77953125 -10 -1 C-8.65615234 -1.31904297 -8.65615234 -1.31904297 -7.28515625 -1.64453125 C-4.34027997 -2.10262312 -2.63971195 -1.28214581 0 0 Z " fill="#5D3307" transform="translate(344,423)"/>
<path d="M0 0 C-1 3 -1 3 -3.65234375 4.38671875 C-4.73644531 4.81597656 -5.82054687 5.24523437 -6.9375 5.6875 C-8.01902344 6.12449219 -9.10054688 6.56148437 -10.21484375 7.01171875 C-13 8 -13 8 -15 8 C-14.87109375 6.17578125 -14.87109375 6.17578125 -14 4 C-11.34765625 2.48046875 -11.34765625 2.48046875 -8.0625 1.1875 C-6.98097656 0.74792969 -5.89945312 0.30835938 -4.78515625 -0.14453125 C-2 -1 -2 -1 0 0 Z " fill="#5F2709" transform="translate(302,223)"/>
<path d="M0 0 C0.66 0.33 1.32 0.66 2 1 C1.34 5.95 0.68 10.9 0 16 C-0.66 16 -1.32 16 -2 16 C-2.05402274 13.89611431 -2.09280256 11.79183286 -2.125 9.6875 C-2.14820313 8.51574219 -2.17140625 7.34398437 -2.1953125 6.13671875 C-2 3 -2 3 0 0 Z " fill="#4E2A02" transform="translate(396,279)"/>
<path d="M0 0 C0.33 0.66 0.66 1.32 1 2 C-1.45614035 7 -1.45614035 7 -3 9 C-3.99 9.33 -4.98 9.66 -6 10 C-4.52307692 3.47692308 -4.52307692 3.47692308 -1.875 1.0625 C-1.25625 0.711875 -0.6375 0.36125 0 0 Z " fill="#4F3610" transform="translate(401,270)"/>
<path d="M0 0 C0.33 0 0.66 0 1 0 C1.33 4.29 1.66 8.58 2 13 C1.01 13.33 0.02 13.66 -1 14 C-1.33 12.68 -1.66 11.36 -2 10 C-1.34 10 -0.68 10 0 10 C0 6.7 0 3.4 0 0 Z " fill="#794308" transform="translate(104,412)"/>
<path d="M0 0 C0.66 0.33 1.32 0.66 2 1 C1.67 1.99 1.34 2.98 1 4 C-2.5625 5.1875 -2.5625 5.1875 -6 6 C-4.98545548 3.4636387 -4.3146444 2.20648539 -2 0.6875 C-1.34 0.460625 -0.68 0.23375 0 0 Z " fill="#623D15" transform="translate(415,258)"/>
<path d="M0 0 C0 0.33 0 0.66 0 1 C-4.455 1.495 -4.455 1.495 -9 2 C-8.67 1.01 -8.34 0.02 -8 -1 C-4.37673261 -2.2077558 -3.35853631 -1.54311128 0 0 Z " fill="#683A08" transform="translate(344,423)"/>
</svg>
